<?xml version="1.0" encoding="UTF-8" standalone="no"?>
<!DOCTYPE svg PUBLIC "-//W3C//DTD SVG 1.1//EN"
 "http://www.w3.org/Graphics/SVG/1.1/DTD/svg11.dtd">
<!-- Generated by graphviz version 2.40.1 (20161225.0304)
 -->
<!-- Title: Simulator::simulate_r Pages: 1 -->
<svg width="542pt" height="218pt"
 viewBox="0.00 0.00 542.00 218.00" xmlns="http://www.w3.org/2000/svg" xmlns:xlink="http://www.w3.org/1999/xlink">
<g id="graph0" class="graph" transform="scale(1 1) rotate(0) translate(4 214)">
<title>Simulator::simulate_r</title>
<!-- Node59 -->
<g id="node1" class="node">
<title>Node59</title>
<polygon fill="#bfbfbf" stroke="#000000" points="0,-95.5 0,-114.5 109,-114.5 109,-95.5 0,-95.5"/>
<text text-anchor="middle" x="54.5" y="-102.5" font-family="Helvetica,sans-Serif" font-size="10.00" fill="#000000">Simulator::simulate_r</text>
</g>
<!-- Node60 -->
<g id="node2" class="node">
<title>Node60</title>
<g id="a_node2"><a xlink:href="classPopulation.html#a20696fa511c914e7c8837acb2a254b33" target="_top" xlink:title="Population::set_harvestProp">
<polygon fill="none" stroke="#000000" points="146.5,-190.5 146.5,-209.5 286.5,-209.5 286.5,-190.5 146.5,-190.5"/>
<text text-anchor="middle" x="216.5" y="-197.5" font-family="Helvetica,sans-Serif" font-size="10.00" fill="#000000">Population::set_harvestProp</text>
</a>
</g>
</g>
<!-- Node59&#45;&gt;Node60 -->
<g id="edge1" class="edge">
<title>Node59&#45;&gt;Node60</title>
<path fill="none" stroke="#191970" d="M63.2594,-114.7324C78.3572,-130.9129 110.9532,-163.3125 145,-181 149.5146,-183.3453 154.3438,-185.4198 159.2822,-187.251"/>
<polygon fill="#191970" stroke="#191970" points="158.2655,-190.6017 168.8597,-190.48 160.5019,-183.9686 158.2655,-190.6017"/>
</g>
<!-- Node61 -->
<g id="node3" class="node">
<title>Node61</title>
<g id="a_node3"><a xlink:href="classPopulation.html#a343a346cae1413da400c042868c15859" target="_top" xlink:title="Population::set_minSizeLimit">
<polygon fill="none" stroke="#000000" points="145,-152.5 145,-171.5 288,-171.5 288,-152.5 145,-152.5"/>
<text text-anchor="middle" x="216.5" y="-159.5" font-family="Helvetica,sans-Serif" font-size="10.00" fill="#000000">Population::set_minSizeLimit</text>
</a>
</g>
</g>
<!-- Node59&#45;&gt;Node61 -->
<g id="edge2" class="edge">
<title>Node59&#45;&gt;Node61</title>
<path fill="none" stroke="#191970" d="M75.0345,-114.5798C93.1762,-122.8112 120.4843,-134.6402 145,-143 151.9369,-145.3655 159.3337,-147.6204 166.6409,-149.6966"/>
<polygon fill="#191970" stroke="#191970" points="165.9275,-153.1304 176.4979,-152.4105 167.7857,-146.3815 165.9275,-153.1304"/>
</g>
<!-- Node62 -->
<g id="node4" class="node">
<title>Node62</title>
<g id="a_node4"><a xlink:href="classPopulation.html#a42c4b04852bdda937e50f82952106af1" target="_top" xlink:title="Population::fishableBiomass">
<polygon fill="none" stroke="#000000" points="146.5,-114.5 146.5,-133.5 286.5,-133.5 286.5,-114.5 146.5,-114.5"/>
<text text-anchor="middle" x="216.5" y="-121.5" font-family="Helvetica,sans-Serif" font-size="10.00" fill="#000000">Population::fishableBiomass</text>
</a>
</g>
</g>
<!-- Node59&#45;&gt;Node62 -->
<g id="edge3" class="edge">
<title>Node59&#45;&gt;Node62</title>
<path fill="none" stroke="#191970" d="M109.3458,-111.4325C118.1091,-112.4603 127.3299,-113.5418 136.5329,-114.6211"/>
<polygon fill="#191970" stroke="#191970" points="136.15,-118.1001 146.4896,-115.7889 136.9654,-111.1478 136.15,-118.1001"/>
</g>
<!-- Node63 -->
<g id="node5" class="node">
<title>Node63</title>
<g id="a_node5"><a xlink:href="classPopulation.html#a5440cd360f9b6af954085b442327633b" target="_top" xlink:title="Population::init">
<polygon fill="none" stroke="#000000" points="176,-76.5 176,-95.5 257,-95.5 257,-76.5 176,-76.5"/>
<text text-anchor="middle" x="216.5" y="-83.5" font-family="Helvetica,sans-Serif" font-size="10.00" fill="#000000">Population::init</text>
</a>
</g>
</g>
<!-- Node59&#45;&gt;Node63 -->
<g id="edge4" class="edge">
<title>Node59&#45;&gt;Node63</title>
<path fill="none" stroke="#191970" d="M109.3458,-98.5675C127.6163,-96.4246 147.8757,-94.0485 165.8162,-91.9444"/>
<polygon fill="#191970" stroke="#191970" points="166.2728,-95.4149 175.797,-90.7738 165.4574,-88.4626 166.2728,-95.4149"/>
</g>
<!-- Node64 -->
<g id="node6" class="node">
<title>Node64</title>
<g id="a_node6"><a xlink:href="classPopulation.html#a345497aa32fe22f73153a59f469c6a19" target="_top" xlink:title="Population::print_summary">
<polygon fill="none" stroke="#000000" points="150,-38.5 150,-57.5 283,-57.5 283,-38.5 150,-38.5"/>
<text text-anchor="middle" x="216.5" y="-45.5" font-family="Helvetica,sans-Serif" font-size="10.00" fill="#000000">Population::print_summary</text>
</a>
</g>
</g>
<!-- Node59&#45;&gt;Node64 -->
<g id="edge5" class="edge">
<title>Node59&#45;&gt;Node64</title>
<path fill="none" stroke="#191970" d="M75.0345,-95.4202C93.1762,-87.1888 120.4843,-75.3598 145,-67 151.9369,-64.6345 159.3337,-62.3796 166.6409,-60.3034"/>
<polygon fill="#191970" stroke="#191970" points="167.7857,-63.6185 176.4979,-57.5895 165.9275,-56.8696 167.7857,-63.6185"/>
</g>
<!-- Node65 -->
<g id="node7" class="node">
<title>Node65</title>
<g id="a_node7"><a xlink:href="classPopulation.html#aa404f725dcde475806cdb26704b9fbcf" target="_top" xlink:title="Population::update">
<polygon fill="none" stroke="#000000" points="167.5,-.5 167.5,-19.5 265.5,-19.5 265.5,-.5 167.5,-.5"/>
<text text-anchor="middle" x="216.5" y="-7.5" font-family="Helvetica,sans-Serif" font-size="10.00" fill="#000000">Population::update</text>
</a>
</g>
</g>
<!-- Node59&#45;&gt;Node65 -->
<g id="edge6" class="edge">
<title>Node59&#45;&gt;Node65</title>
<path fill="none" stroke="#191970" d="M63.2594,-95.2676C78.3572,-79.0871 110.9532,-46.6875 145,-29 149.5146,-26.6547 154.3438,-24.5802 159.2822,-22.749"/>
<polygon fill="#191970" stroke="#191970" points="160.5019,-26.0314 168.8597,-19.52 158.2655,-19.3983 160.5019,-26.0314"/>
</g>
<!-- Node66 -->
<g id="node8" class="node">
<title>Node66</title>
<g id="a_node8"><a xlink:href="namespacepn.html#ad42003887dcc42a4758c69775f83a8d9" target="_top" xlink:title="pn::zero">
<polygon fill="none" stroke="#000000" points="324,-.5 324,-19.5 376,-19.5 376,-.5 324,-.5"/>
<text text-anchor="middle" x="350" y="-7.5" font-family="Helvetica,sans-Serif" font-size="10.00" fill="#000000">pn::zero</text>
</a>
</g>
</g>
<!-- Node65&#45;&gt;Node66 -->
<g id="edge7" class="edge">
<title>Node65&#45;&gt;Node66</title>
<path fill="none" stroke="#191970" d="M265.8312,-10C281.6101,-10 298.7853,-10 313.4817,-10"/>
<polygon fill="#191970" stroke="#191970" points="313.6895,-13.5001 323.6894,-10 313.6894,-6.5001 313.6895,-13.5001"/>
</g>
<!-- Node67 -->
<g id="node9" class="node">
<title>Node67</title>
<g id="a_node9"><a xlink:href="structpn_1_1BrentRes.html#a4fa42a440c4b9dc765ea7f0d7fd3a412" target="_top" xlink:title="pn::BrentRes::BrentRes">
<polygon fill="none" stroke="#000000" points="412,-.5 412,-19.5 534,-19.5 534,-.5 412,-.5"/>
<text text-anchor="middle" x="473" y="-7.5" font-family="Helvetica,sans-Serif" font-size="10.00" fill="#000000">pn::BrentRes::BrentRes</text>
</a>
</g>
</g>
<!-- Node66&#45;&gt;Node67 -->
<g id="edge8" class="edge">
<title>Node66&#45;&gt;Node67</title>
<path fill="none" stroke="#191970" d="M376.0851,-10C383.7193,-10 392.458,-10 401.4927,-10"/>
<polygon fill="#191970" stroke="#191970" points="401.7759,-13.5001 411.7759,-10 401.7759,-6.5001 401.7759,-13.5001"/>
</g>
</g>
</svg>
