<?xml version="1.0" encoding="UTF-8" standalone="no"?>
<!DOCTYPE svg PUBLIC "-//W3C//DTD SVG 1.1//EN"
 "http://www.w3.org/Graphics/SVG/1.1/DTD/svg11.dtd">
<!-- Generated by graphviz version 2.40.1 (20161225.0304)
 -->
<!-- Title: Population::set_minSizeLimit Pages: 1 -->
<svg width="562pt" height="116pt"
 viewBox="0.00 0.00 562.00 116.00" xmlns="http://www.w3.org/2000/svg" xmlns:xlink="http://www.w3.org/1999/xlink">
<g id="graph0" class="graph" transform="scale(1 1) rotate(0) translate(4 112)">
<title>Population::set_minSizeLimit</title>
<!-- Node142 -->
<g id="node1" class="node">
<title>Node142</title>
<polygon fill="#bfbfbf" stroke="#000000" points="0,-44.5 0,-63.5 143,-63.5 143,-44.5 0,-44.5"/>
<text text-anchor="middle" x="71.5" y="-51.5" font-family="Helvetica,sans-Serif" font-size="10.00" fill="#000000">Population::set_minSizeLimit</text>
</g>
<!-- Node143 -->
<g id="node2" class="node">
<title>Node143</title>
<g id="a_node2"><a xlink:href="fish__glue_8cpp.html#ab96ae82277aa9004dc603b77512c7265" target="_top" xlink:title="RCPP_MODULE">
<polygon fill="none" stroke="#000000" points="183,-88.5 183,-107.5 276,-107.5 276,-88.5 183,-88.5"/>
<text text-anchor="middle" x="229.5" y="-95.5" font-family="Helvetica,sans-Serif" font-size="10.00" fill="#000000">RCPP_MODULE</text>
</a>
</g>
</g>
<!-- Node142&#45;&gt;Node143 -->
<g id="edge1" class="edge">
<title>Node142&#45;&gt;Node143</title>
<path fill="none" stroke="#191970" d="M115.4809,-66.2478C140.7055,-73.2724 171.902,-81.96 195.2833,-88.4713"/>
<polygon fill="#191970" stroke="#191970" points="116.3561,-62.8584 105.7836,-63.5473 114.4781,-69.6018 116.3561,-62.8584"/>
</g>
<!-- Node144 -->
<g id="node3" class="node">
<title>Node144</title>
<g id="a_node3"><a xlink:href="classSimulator.html#ab21d1c6b0af00931f9a8fa5e0b6d417f" target="_top" xlink:title="Simulator::simulate\l_multi_2d">
<polygon fill="none" stroke="#000000" points="179,-39 179,-69 280,-69 280,-39 179,-39"/>
<text text-anchor="start" x="187" y="-57" font-family="Helvetica,sans-Serif" font-size="10.00" fill="#000000">Simulator::simulate</text>
<text text-anchor="middle" x="229.5" y="-46" font-family="Helvetica,sans-Serif" font-size="10.00" fill="#000000">_multi_2d</text>
</a>
</g>
</g>
<!-- Node142&#45;&gt;Node144 -->
<g id="edge2" class="edge">
<title>Node142&#45;&gt;Node144</title>
<path fill="none" stroke="#191970" d="M153.3292,-54C162.0439,-54 170.7125,-54 178.9103,-54"/>
<polygon fill="#191970" stroke="#191970" points="153.1034,-50.5001 143.1034,-54 153.1034,-57.5001 153.1034,-50.5001"/>
</g>
<!-- Node147 -->
<g id="node6" class="node">
<title>Node147</title>
<g id="a_node6"><a xlink:href="classSimulator.html#aa6e6cfd73fd8d3200e7f515b473e88f2" target="_top" xlink:title="Simulator::simulate_r">
<polygon fill="none" stroke="#000000" points="316,-.5 316,-19.5 425,-19.5 425,-.5 316,-.5"/>
<text text-anchor="middle" x="370.5" y="-7.5" font-family="Helvetica,sans-Serif" font-size="10.00" fill="#000000">Simulator::simulate_r</text>
</a>
</g>
</g>
<!-- Node142&#45;&gt;Node147 -->
<g id="edge5" class="edge">
<title>Node142&#45;&gt;Node147</title>
<path fill="none" stroke="#191970" d="M117.0093,-42.0399C136.0529,-37.3949 158.488,-32.388 179,-29 224.8188,-21.432 277.3383,-16.4809 315.7739,-13.536"/>
<polygon fill="#191970" stroke="#191970" points="115.9643,-38.6929 107.1011,-44.4977 117.6497,-45.487 115.9643,-38.6929"/>
</g>
<!-- Node145 -->
<g id="node4" class="node">
<title>Node145</title>
<g id="a_node4"><a xlink:href="classSimulator.html#af1b0a9562ecf0ad8f98d61576efba28b" target="_top" xlink:title="Simulator::simulate\l_multi_2d_r">
<polygon fill="none" stroke="#000000" points="320,-39 320,-69 421,-69 421,-39 320,-39"/>
<text text-anchor="start" x="328" y="-57" font-family="Helvetica,sans-Serif" font-size="10.00" fill="#000000">Simulator::simulate</text>
<text text-anchor="middle" x="370.5" y="-46" font-family="Helvetica,sans-Serif" font-size="10.00" fill="#000000">_multi_2d_r</text>
</a>
</g>
</g>
<!-- Node144&#45;&gt;Node145 -->
<g id="edge3" class="edge">
<title>Node144&#45;&gt;Node145</title>
<path fill="none" stroke="#191970" d="M290.1916,-54C300.0892,-54 310.2499,-54 319.8727,-54"/>
<polygon fill="#191970" stroke="#191970" points="290.006,-50.5001 280.006,-54 290.0059,-57.5001 290.006,-50.5001"/>
</g>
<!-- Node146 -->
<g id="node5" class="node">
<title>Node146</title>
<g id="a_node5"><a xlink:href="fish__glue_8cpp.html#addebb0997b0e49067d8784c9954b7b96" target="_top" xlink:title="RCPP_MODULE">
<polygon fill="none" stroke="#000000" points="461,-22.5 461,-41.5 554,-41.5 554,-22.5 461,-22.5"/>
<text text-anchor="middle" x="507.5" y="-29.5" font-family="Helvetica,sans-Serif" font-size="10.00" fill="#000000">RCPP_MODULE</text>
</a>
</g>
</g>
<!-- Node145&#45;&gt;Node146 -->
<g id="edge4" class="edge">
<title>Node145&#45;&gt;Node146</title>
<path fill="none" stroke="#191970" d="M431.2947,-44.2373C441.1625,-42.6527 451.2464,-41.0334 460.7131,-39.5132"/>
<polygon fill="#191970" stroke="#191970" points="430.443,-40.8292 421.1245,-45.8705 431.553,-47.7406 430.443,-40.8292"/>
</g>
<!-- Node147&#45;&gt;Node146 -->
<g id="edge6" class="edge">
<title>Node147&#45;&gt;Node146</title>
<path fill="none" stroke="#191970" d="M435.0912,-20.3723C443.714,-21.757 452.4196,-23.155 460.6593,-24.4781"/>
<polygon fill="#191970" stroke="#191970" points="435.4681,-16.8881 425.0397,-18.7582 434.3582,-23.7995 435.4681,-16.8881"/>
</g>
</g>
</svg>
