<?xml version="1.0" encoding="UTF-8" standalone="no"?>
<!DOCTYPE svg PUBLIC "-//W3C//DTD SVG 1.1//EN"
 "http://www.w3.org/Graphics/SVG/1.1/DTD/svg11.dtd">
<!-- Generated by graphviz version 2.40.1 (20161225.0304)
 -->
<!-- Title: Population Pages: 1 -->
<svg width="342pt" height="353pt"
 viewBox="0.00 0.00 342.00 353.00" xmlns="http://www.w3.org/2000/svg" xmlns:xlink="http://www.w3.org/1999/xlink">
<g id="graph0" class="graph" transform="scale(1 1) rotate(0) translate(4 349)">
<title>Population</title>
<!-- Node1 -->
<g id="node1" class="node">
<title>Node1</title>
<polygon fill="#bfbfbf" stroke="#000000" points="116,-.5 116,-19.5 178,-19.5 178,-.5 116,-.5"/>
<text text-anchor="middle" x="147" y="-7.5" font-family="Helvetica,sans-Serif" font-size="10.00" fill="#000000">Population</text>
</g>
<!-- Node2 -->
<g id="node2" class="node">
<title>Node2</title>
<g id="a_node2"><a xlink:href="classPopulationParams.html" target="_top" xlink:title="PopulationParams">
<polygon fill="none" stroke="#000000" points="0,-67.5 0,-86.5 96,-86.5 96,-67.5 0,-67.5"/>
<text text-anchor="middle" x="48" y="-74.5" font-family="Helvetica,sans-Serif" font-size="10.00" fill="#000000">PopulationParams</text>
</a>
</g>
</g>
<!-- Node2&#45;&gt;Node1 -->
<g id="edge1" class="edge">
<title>Node2&#45;&gt;Node1</title>
<path fill="none" stroke="#9a32cd" stroke-dasharray="5,2" d="M65.1751,-60.422C73.2576,-53.0755 83.2478,-44.6179 93,-38 103.3112,-31.0028 115.5898,-24.5071 125.8313,-19.5374"/>
<polygon fill="#9a32cd" stroke="#9a32cd" points="62.7367,-57.9102 57.8081,-67.2889 67.5096,-63.0308 62.7367,-57.9102"/>
<text text-anchor="middle" x="101.5" y="-41" font-family="Helvetica,sans-Serif" font-size="10.00" fill="#000000"> par</text>
</g>
<!-- Node3 -->
<g id="node3" class="node">
<title>Node3</title>
<g id="a_node3"><a xlink:href="classFish.html" target="_top" xlink:title="Fish">
<polygon fill="none" stroke="#000000" points="222.5,-152 222.5,-171 257.5,-171 257.5,-152 222.5,-152"/>
<text text-anchor="middle" x="240" y="-159" font-family="Helvetica,sans-Serif" font-size="10.00" fill="#000000">Fish</text>
</a>
</g>
</g>
<!-- Node3&#45;&gt;Node1 -->
<g id="edge2" class="edge">
<title>Node3&#45;&gt;Node1</title>
<path fill="none" stroke="#9a32cd" stroke-dasharray="5,2" d="M223.146,-143.983C209.9027,-129.5495 191.6444,-108.0949 179,-87 165.3799,-64.2773 154.8803,-34.6939 149.9997,-19.6697"/>
<polygon fill="#9a32cd" stroke="#9a32cd" points="220.8963,-146.7016 230.2835,-151.614 226.0087,-141.9199 220.8963,-146.7016"/>
<text text-anchor="middle" x="202" y="-74.5" font-family="Helvetica,sans-Serif" font-size="10.00" fill="#000000"> proto_fish</text>
</g>
<!-- Node6 -->
<g id="node6" class="node">
<title>Node6</title>
<polygon fill="none" stroke="#bfbfbf" points="234,-67.5 234,-86.5 334,-86.5 334,-67.5 234,-67.5"/>
<text text-anchor="middle" x="284" y="-74.5" font-family="Helvetica,sans-Serif" font-size="10.00" fill="#000000">std::vector&lt; Fish &gt;</text>
</g>
<!-- Node3&#45;&gt;Node6 -->
<g id="edge6" class="edge">
<title>Node3&#45;&gt;Node6</title>
<path fill="none" stroke="#9a32cd" stroke-dasharray="5,2" d="M249.8389,-142.6049C258.8914,-125.2198 271.9497,-100.1421 279.0115,-86.5802"/>
<polygon fill="#9a32cd" stroke="#9a32cd" points="246.5615,-141.3207 245.0474,-151.8068 252.7703,-144.5537 246.5615,-141.3207"/>
<text text-anchor="middle" x="289.5" y="-108" font-family="Helvetica,sans-Serif" font-size="10.00" fill="#000000"> elements</text>
</g>
<!-- Node4 -->
<g id="node4" class="node">
<title>Node4</title>
<g id="a_node4"><a xlink:href="structFishParams.html" target="_top" xlink:title="FishParams">
<polygon fill="none" stroke="#000000" points="178.5,-236.5 178.5,-255.5 247.5,-255.5 247.5,-236.5 178.5,-236.5"/>
<text text-anchor="middle" x="213" y="-243.5" font-family="Helvetica,sans-Serif" font-size="10.00" fill="#000000">FishParams</text>
</a>
</g>
</g>
<!-- Node4&#45;&gt;Node3 -->
<g id="edge3" class="edge">
<title>Node4&#45;&gt;Node3</title>
<path fill="none" stroke="#9a32cd" stroke-dasharray="5,2" d="M219.1939,-226.6154C224.7419,-209.2521 232.646,-184.5153 236.9389,-171.0802"/>
<polygon fill="#9a32cd" stroke="#9a32cd" points="215.807,-225.7159 216.0972,-236.3068 222.4749,-227.8465 215.807,-225.7159"/>
<text text-anchor="middle" x="232.5" y="-210" font-family="Helvetica,sans-Serif" font-size="10.00" fill="#000000"> par</text>
</g>
<!-- Node5 -->
<g id="node5" class="node">
<title>Node5</title>
<polygon fill="none" stroke="#bfbfbf" points="85,-325.5 85,-344.5 195,-344.5 195,-325.5 85,-325.5"/>
<text text-anchor="middle" x="140" y="-332.5" font-family="Helvetica,sans-Serif" font-size="10.00" fill="#000000">std::vector&lt; double &gt;</text>
</g>
<!-- Node5&#45;&gt;Node1 -->
<g id="edge7" class="edge">
<title>Node5&#45;&gt;Node1</title>
<path fill="none" stroke="#9a32cd" stroke-dasharray="5,2" d="M134.4811,-315.6854C129.8548,-297.7776 124,-270.3115 124,-246 124,-246 124,-246 124,-77 124,-55.6011 134.6254,-32.339 141.4323,-19.6322"/>
<polygon fill="#9a32cd" stroke="#9a32cd" points="131.1438,-316.7517 137.1395,-325.4868 137.8997,-314.9192 131.1438,-316.7517"/>
<text text-anchor="middle" x="164" y="-181" font-family="Helvetica,sans-Serif" font-size="10.00" fill="#000000"> carrying_capacity</text>
<text text-anchor="middle" x="164" y="-170" font-family="Helvetica,sans-Serif" font-size="10.00" fill="#000000">vfreq</text>
<text text-anchor="middle" x="164" y="-159" font-family="Helvetica,sans-Serif" font-size="10.00" fill="#000000">vmat</text>
<text text-anchor="middle" x="164" y="-148" font-family="Helvetica,sans-Serif" font-size="10.00" fill="#000000">vage</text>
<text text-anchor="middle" x="164" y="-137" font-family="Helvetica,sans-Serif" font-size="10.00" fill="#000000">vlen</text>
</g>
<!-- Node5&#45;&gt;Node4 -->
<g id="edge4" class="edge">
<title>Node5&#45;&gt;Node4</title>
<path fill="none" stroke="#9a32cd" stroke-dasharray="5,2" d="M154.318,-317.5438C169.4754,-299.0642 192.8544,-270.5611 205.0226,-255.7259"/>
<polygon fill="#9a32cd" stroke="#9a32cd" points="151.448,-315.5239 147.8123,-325.4754 156.8603,-319.9632 151.448,-315.5239"/>
<text text-anchor="middle" x="201.5" y="-299" font-family="Helvetica,sans-Serif" font-size="10.00" fill="#000000"> mam</text>
<text text-anchor="middle" x="201.5" y="-288" font-family="Helvetica,sans-Serif" font-size="10.00" fill="#000000">ma</text>
<text text-anchor="middle" x="201.5" y="-277" font-family="Helvetica,sans-Serif" font-size="10.00" fill="#000000">mai</text>
</g>
<!-- Node6&#45;&gt;Node1 -->
<g id="edge5" class="edge">
<title>Node6&#45;&gt;Node1</title>
<path fill="none" stroke="#9a32cd" stroke-dasharray="5,2" d="M255.1714,-62.9013C228.564,-49.889 189.7712,-30.9173 166.5923,-19.5817"/>
<polygon fill="#9a32cd" stroke="#9a32cd" points="253.8503,-66.1513 264.3712,-67.4005 256.9256,-59.8631 253.8503,-66.1513"/>
<text text-anchor="middle" x="238" y="-41" font-family="Helvetica,sans-Serif" font-size="10.00" fill="#000000"> fishes</text>
</g>
</g>
</svg>
