<?xml version="1.0" encoding="UTF-8" standalone="no"?>
<!DOCTYPE svg PUBLIC "-//W3C//DTD SVG 1.1//EN"
 "http://www.w3.org/Graphics/SVG/1.1/DTD/svg11.dtd">
<!-- Generated by graphviz version 2.40.1 (20161225.0304)
 -->
<!-- Title: Simulator Pages: 1 -->
<svg width="1343pt" height="448pt"
 viewBox="0.00 0.00 1343.00 448.00" xmlns="http://www.w3.org/2000/svg" xmlns:xlink="http://www.w3.org/1999/xlink">
<g id="graph0" class="graph" transform="scale(1 1) rotate(0) translate(4 444)">
<title>Simulator</title>
<!-- Node1 -->
<g id="node1" class="node">
<title>Node1</title>
<polygon fill="#bfbfbf" stroke="#000000" points="1277,-188.5 1277,-207.5 1335,-207.5 1335,-188.5 1277,-188.5"/>
<text text-anchor="middle" x="1306" y="-195.5" font-family="Helvetica,sans-Serif" font-size="10.00" fill="#000000">Simulator</text>
</g>
<!-- Node2 -->
<g id="node2" class="node">
<title>Node2</title>
<g id="a_node2"><a xlink:href="classPopulation.html" target="_top" xlink:title="Population">
<polygon fill="none" stroke="#000000" points="1116,-188.5 1116,-207.5 1178,-207.5 1178,-188.5 1116,-188.5"/>
<text text-anchor="middle" x="1147" y="-195.5" font-family="Helvetica,sans-Serif" font-size="10.00" fill="#000000">Population</text>
</a>
</g>
</g>
<!-- Node2&#45;&gt;Node1 -->
<g id="edge1" class="edge">
<title>Node2&#45;&gt;Node1</title>
<path fill="none" stroke="#9a32cd" stroke-dasharray="5,2" d="M1188.2527,-198C1216.0677,-198 1252.0833,-198 1276.9201,-198"/>
<polygon fill="#9a32cd" stroke="#9a32cd" points="1188.0343,-194.5001 1178.0343,-198 1188.0342,-201.5001 1188.0343,-194.5001"/>
<text text-anchor="middle" x="1227.5" y="-201" font-family="Helvetica,sans-Serif" font-size="10.00" fill="#000000"> noFishingPop</text>
</g>
<!-- Node3 -->
<g id="node3" class="node">
<title>Node3</title>
<g id="a_node3"><a xlink:href="classSeaEnvironment.html" target="_top" xlink:title="SeaEnvironment">
<polygon fill="none" stroke="#000000" points="726,-310.5 726,-329.5 815,-329.5 815,-310.5 726,-310.5"/>
<text text-anchor="middle" x="770.5" y="-317.5" font-family="Helvetica,sans-Serif" font-size="10.00" fill="#000000">SeaEnvironment</text>
</a>
</g>
</g>
<!-- Node3&#45;&gt;Node2 -->
<g id="edge2" class="edge">
<title>Node3&#45;&gt;Node2</title>
<path fill="none" stroke="#9a32cd" stroke-dasharray="5,2" d="M825.5658,-325.1969C882.9768,-328.7974 974.8898,-329.397 1050,-306 1073.5801,-298.6547 1080.3495,-295.2753 1098,-278 1119.7664,-256.6963 1135.8791,-223.8292 1142.9836,-207.6595"/>
<polygon fill="#9a32cd" stroke="#9a32cd" points="825.474,-321.6826 815.2592,-324.4948 824.9982,-328.6664 825.474,-321.6826"/>
<text text-anchor="middle" x="973.5" y="-329" font-family="Helvetica,sans-Serif" font-size="10.00" fill="#000000"> env</text>
</g>
<!-- Node5 -->
<g id="node5" class="node">
<title>Node5</title>
<polygon fill="none" stroke="#bfbfbf" points="897,-277.5 897,-296.5 1050,-296.5 1050,-277.5 897,-277.5"/>
<text text-anchor="middle" x="973.5" y="-284.5" font-family="Helvetica,sans-Serif" font-size="10.00" fill="#000000">std::vector&lt; SeaEnvironment &gt;</text>
</g>
<!-- Node3&#45;&gt;Node5 -->
<g id="edge5" class="edge">
<title>Node3&#45;&gt;Node5</title>
<path fill="none" stroke="#9a32cd" stroke-dasharray="5,2" d="M825.2886,-309.3469C827.8938,-308.8824 830.4746,-308.431 833,-308 856.704,-303.9547 882.7323,-299.9447 905.8761,-296.5298"/>
<polygon fill="#9a32cd" stroke="#9a32cd" points="824.3939,-305.9522 815.1835,-311.1884 825.649,-312.8388 824.3939,-305.9522"/>
<text text-anchor="middle" x="856" y="-311" font-family="Helvetica,sans-Serif" font-size="10.00" fill="#000000"> elements</text>
</g>
<!-- Node4 -->
<g id="node4" class="node">
<title>Node4</title>
<g id="a_node4"><a xlink:href="classPopulationParams.html" target="_top" xlink:title="PopulationParams">
<polygon fill="none" stroke="#000000" points="925.5,-239.5 925.5,-258.5 1021.5,-258.5 1021.5,-239.5 925.5,-239.5"/>
<text text-anchor="middle" x="973.5" y="-246.5" font-family="Helvetica,sans-Serif" font-size="10.00" fill="#000000">PopulationParams</text>
</a>
</g>
</g>
<!-- Node4&#45;&gt;Node2 -->
<g id="edge3" class="edge">
<title>Node4&#45;&gt;Node2</title>
<path fill="none" stroke="#9a32cd" stroke-dasharray="5,2" d="M1031.6168,-241.6699C1052.8948,-237.9836 1076.9132,-232.6264 1098,-225 1110.2394,-220.5734 1123.0911,-213.3833 1132.5605,-207.5355"/>
<polygon fill="#9a32cd" stroke="#9a32cd" points="1031.0339,-238.2186 1021.736,-243.298 1032.1721,-245.1255 1031.0339,-238.2186"/>
<text text-anchor="middle" x="1083" y="-237" font-family="Helvetica,sans-Serif" font-size="10.00" fill="#000000"> par</text>
</g>
<!-- Node5&#45;&gt;Node2 -->
<g id="edge4" class="edge">
<title>Node5&#45;&gt;Node2</title>
<path fill="none" stroke="#9a32cd" stroke-dasharray="5,2" d="M1038.7146,-274.8493C1058.8445,-269.1252 1080.3429,-260.8519 1098,-249 1115.1275,-237.5036 1130.8777,-219.1324 1139.6821,-207.8606"/>
<polygon fill="#9a32cd" stroke="#9a32cd" points="1037.7203,-271.4921 1028.9655,-277.459 1039.5304,-278.2541 1037.7203,-271.4921"/>
<text text-anchor="middle" x="1083" y="-266" font-family="Helvetica,sans-Serif" font-size="10.00" fill="#000000"> v_env</text>
</g>
<!-- Node6 -->
<g id="node6" class="node">
<title>Node6</title>
<g id="a_node6"><a xlink:href="classFish.html" target="_top" xlink:title="Fish">
<polygon fill="none" stroke="#000000" points="753,-141.5 753,-160.5 788,-160.5 788,-141.5 753,-141.5"/>
<text text-anchor="middle" x="770.5" y="-148.5" font-family="Helvetica,sans-Serif" font-size="10.00" fill="#000000">Fish</text>
</a>
</g>
</g>
<!-- Node6&#45;&gt;Node2 -->
<g id="edge6" class="edge">
<title>Node6&#45;&gt;Node2</title>
<path fill="none" stroke="#9a32cd" stroke-dasharray="5,2" d="M798.1311,-145.1287C848.9813,-135.4307 960.3848,-119.3614 1050,-143 1083.5065,-151.8383 1117.5802,-175.2067 1135.0464,-188.4646"/>
<polygon fill="#9a32cd" stroke="#9a32cd" points="797.3611,-141.7131 788.229,-147.0849 798.7177,-148.5804 797.3611,-141.7131"/>
<text text-anchor="middle" x="973.5" y="-146" font-family="Helvetica,sans-Serif" font-size="10.00" fill="#000000"> proto_fish</text>
</g>
<!-- Node16 -->
<g id="node16" class="node">
<title>Node16</title>
<polygon fill="none" stroke="#bfbfbf" points="923.5,-163.5 923.5,-182.5 1023.5,-182.5 1023.5,-163.5 923.5,-163.5"/>
<text text-anchor="middle" x="973.5" y="-170.5" font-family="Helvetica,sans-Serif" font-size="10.00" fill="#000000">std::vector&lt; Fish &gt;</text>
</g>
<!-- Node6&#45;&gt;Node16 -->
<g id="edge23" class="edge">
<title>Node6&#45;&gt;Node16</title>
<path fill="none" stroke="#9a32cd" stroke-dasharray="5,2" d="M798.166,-153.9983C830.2461,-157.4749 883.7662,-163.2752 923.254,-167.5546"/>
<polygon fill="#9a32cd" stroke="#9a32cd" points="798.4787,-150.5118 788.1598,-152.9139 797.7245,-157.471 798.4787,-150.5118"/>
<text text-anchor="middle" x="856" y="-165" font-family="Helvetica,sans-Serif" font-size="10.00" fill="#000000"> elements</text>
</g>
<!-- Node7 -->
<g id="node7" class="node">
<title>Node7</title>
<g id="a_node7"><a xlink:href="classFishParams.html" target="_top" xlink:title="FishParams">
<polygon fill="none" stroke="#000000" points="538,-168.5 538,-187.5 607,-187.5 607,-168.5 538,-168.5"/>
<text text-anchor="middle" x="572.5" y="-175.5" font-family="Helvetica,sans-Serif" font-size="10.00" fill="#000000">FishParams</text>
</a>
</g>
</g>
<!-- Node7&#45;&gt;Node6 -->
<g id="edge7" class="edge">
<title>Node7&#45;&gt;Node6</title>
<path fill="none" stroke="#9a32cd" stroke-dasharray="5,2" d="M605.1115,-164.9752C619.5385,-159.8681 636.862,-154.6119 653,-152 688.0401,-146.3288 729.7296,-147.9049 752.8419,-149.4965"/>
<polygon fill="#9a32cd" stroke="#9a32cd" points="603.8182,-161.7215 595.6365,-168.4527 606.2301,-168.2929 603.8182,-161.7215"/>
<text text-anchor="middle" x="680.5" y="-155" font-family="Helvetica,sans-Serif" font-size="10.00" fill="#000000"> par</text>
</g>
<!-- Node8 -->
<g id="node8" class="node">
<title>Node8</title>
<polygon fill="none" stroke="#bfbfbf" points="253,-215 253,-245 363,-245 363,-215 253,-215"/>
<text text-anchor="start" x="261" y="-233" font-family="Helvetica,sans-Serif" font-size="10.00" fill="#000000">std::map&lt; std::string,</text>
<text text-anchor="middle" x="308" y="-222" font-family="Helvetica,sans-Serif" font-size="10.00" fill="#000000"> RecruitmentModel &gt;</text>
</g>
<!-- Node8&#45;&gt;Node7 -->
<g id="edge8" class="edge">
<title>Node8&#45;&gt;Node7</title>
<path fill="none" stroke="#9a32cd" stroke-dasharray="5,2" d="M373.459,-219.1499C408.6776,-213.0883 452.8106,-205.1329 492,-197 507.0443,-193.8779 523.5757,-190.0464 537.7229,-186.644"/>
<polygon fill="#9a32cd" stroke="#9a32cd" points="372.5696,-215.7511 363.3034,-220.8879 373.7505,-222.6508 372.5696,-215.7511"/>
<text text-anchor="middle" x="436.5" y="-220" font-family="Helvetica,sans-Serif" font-size="10.00" fill="#000000"> recruitment_names_map</text>
</g>
<!-- Node9 -->
<g id="node9" class="node">
<title>Node9</title>
<g id="a_node9"><a xlink:title="STL class. ">
<polygon fill="none" stroke="#bfbfbf" points="132,-259.5 132,-278.5 192,-278.5 192,-259.5 132,-259.5"/>
<text text-anchor="middle" x="162" y="-266.5" font-family="Helvetica,sans-Serif" font-size="10.00" fill="#000000">std::string</text>
</a>
</g>
</g>
<!-- Node9&#45;&gt;Node7 -->
<g id="edge11" class="edge">
<title>Node9&#45;&gt;Node7</title>
<path fill="none" stroke="#9a32cd" stroke-dasharray="5,2" d="M202.6136,-276.4194C269.8654,-286.3165 405.501,-295.8812 492,-232 506.0709,-221.6084 496.5702,-208.2078 510,-197 517.9236,-190.3874 528.1113,-186.0752 537.9524,-183.2634"/>
<polygon fill="#9a32cd" stroke="#9a32cd" points="202.8435,-272.9133 192.4252,-274.8393 201.7707,-279.8306 202.8435,-272.9133"/>
<text text-anchor="middle" x="308" y="-352" font-family="Helvetica,sans-Serif" font-size="10.00" fill="#000000"> growth_model_name</text>
<text text-anchor="start" x="261" y="-341" font-family="Helvetica,sans-Serif" font-size="10.00" fill="#000000">recruitment_model</text>
<text text-anchor="middle" x="308" y="-330" font-family="Helvetica,sans-Serif" font-size="10.00" fill="#000000">_name</text>
<text text-anchor="start" x="261" y="-319" font-family="Helvetica,sans-Serif" font-size="10.00" fill="#000000">mortality_model</text>
<text text-anchor="middle" x="308" y="-308" font-family="Helvetica,sans-Serif" font-size="10.00" fill="#000000">_name</text>
<text text-anchor="start" x="261" y="-297" font-family="Helvetica,sans-Serif" font-size="10.00" fill="#000000">maturation_model</text>
<text text-anchor="middle" x="308" y="-286" font-family="Helvetica,sans-Serif" font-size="10.00" fill="#000000">_name</text>
</g>
<!-- Node9&#45;&gt;Node8 -->
<g id="edge9" class="edge">
<title>Node9&#45;&gt;Node8</title>
<path fill="none" stroke="#9a32cd" stroke-dasharray="5,2" d="M202.1085,-258.2861C217.7268,-254.1141 235.8849,-249.2636 252.7077,-244.7699"/>
<polygon fill="#9a32cd" stroke="#9a32cd" points="201.0093,-254.9569 192.2513,-260.9192 202.8158,-261.7198 201.0093,-254.9569"/>
<text text-anchor="middle" x="222.5" y="-258" font-family="Helvetica,sans-Serif" font-size="10.00" fill="#000000"> keys</text>
</g>
<!-- Node11 -->
<g id="node11" class="node">
<title>Node11</title>
<polygon fill="none" stroke="#bfbfbf" points="253,-166 253,-196 363,-196 363,-166 253,-166"/>
<text text-anchor="start" x="261" y="-184" font-family="Helvetica,sans-Serif" font-size="10.00" fill="#000000">std::map&lt; std::string,</text>
<text text-anchor="middle" x="308" y="-173" font-family="Helvetica,sans-Serif" font-size="10.00" fill="#000000"> GrowthModel &gt;</text>
</g>
<!-- Node9&#45;&gt;Node11 -->
<g id="edge13" class="edge">
<title>Node9&#45;&gt;Node11</title>
<path fill="none" stroke="#9a32cd" stroke-dasharray="5,2" d="M182.137,-253.2421C200.0757,-239.655 227.3767,-220.0617 253,-206 259.2527,-202.5686 266.0642,-199.1962 272.6966,-196.0936"/>
<polygon fill="#9a32cd" stroke="#9a32cd" points="179.9383,-250.5174 174.1311,-259.379 184.1969,-256.073 179.9383,-250.5174"/>
<text text-anchor="middle" x="222.5" y="-234" font-family="Helvetica,sans-Serif" font-size="10.00" fill="#000000"> keys</text>
</g>
<!-- Node12 -->
<g id="node12" class="node">
<title>Node12</title>
<polygon fill="none" stroke="#bfbfbf" points="253,-117 253,-147 363,-147 363,-117 253,-117"/>
<text text-anchor="start" x="261" y="-135" font-family="Helvetica,sans-Serif" font-size="10.00" fill="#000000">std::map&lt; std::string,</text>
<text text-anchor="middle" x="308" y="-124" font-family="Helvetica,sans-Serif" font-size="10.00" fill="#000000"> MaturationModel &gt;</text>
</g>
<!-- Node9&#45;&gt;Node12 -->
<g id="edge15" class="edge">
<title>Node9&#45;&gt;Node12</title>
<path fill="none" stroke="#9a32cd" stroke-dasharray="5,2" d="M172.3882,-250.6785C187.2391,-226.0427 216.7873,-182.4047 253,-157 258.2378,-153.3255 264.1022,-149.9827 269.9973,-147.0221"/>
<polygon fill="#9a32cd" stroke="#9a32cd" points="169.314,-249.0019 167.2698,-259.3977 175.3507,-252.5456 169.314,-249.0019"/>
<text text-anchor="middle" x="222.5" y="-200" font-family="Helvetica,sans-Serif" font-size="10.00" fill="#000000"> keys</text>
</g>
<!-- Node13 -->
<g id="node13" class="node">
<title>Node13</title>
<polygon fill="none" stroke="#bfbfbf" points="253,-378 253,-408 363,-408 363,-378 253,-378"/>
<text text-anchor="start" x="261" y="-396" font-family="Helvetica,sans-Serif" font-size="10.00" fill="#000000">std::map&lt; std::string,</text>
<text text-anchor="middle" x="308" y="-385" font-family="Helvetica,sans-Serif" font-size="10.00" fill="#000000"> MortalityModel &gt;</text>
</g>
<!-- Node9&#45;&gt;Node13 -->
<g id="edge17" class="edge">
<title>Node9&#45;&gt;Node13</title>
<path fill="none" stroke="#9a32cd" stroke-dasharray="5,2" d="M176.1013,-286.4943C192.9323,-306.6308 222.6331,-339.8919 253,-363 260.1842,-368.4669 268.4913,-373.5423 276.4381,-377.9056"/>
<polygon fill="#9a32cd" stroke="#9a32cd" points="178.7706,-284.2298 169.7116,-278.7358 173.3672,-288.68 178.7706,-284.2298"/>
<text text-anchor="middle" x="222.5" y="-350" font-family="Helvetica,sans-Serif" font-size="10.00" fill="#000000"> keys</text>
</g>
<!-- Node15 -->
<g id="node15" class="node">
<title>Node15</title>
<polygon fill="none" stroke="#bfbfbf" points="510,-206.5 510,-225.5 635,-225.5 635,-206.5 510,-206.5"/>
<text text-anchor="middle" x="572.5" y="-213.5" font-family="Helvetica,sans-Serif" font-size="10.00" fill="#000000">std::vector&lt; std::string &gt;</text>
</g>
<!-- Node9&#45;&gt;Node15 -->
<g id="edge20" class="edge">
<title>Node9&#45;&gt;Node15</title>
<path fill="none" stroke="#9a32cd" stroke-dasharray="5,2" d="M166.6675,-288.3139C176.1342,-322.5052 201.2369,-392.484 253,-418 296.8507,-439.6157 314.4939,-424.106 363,-418 421.7162,-410.6088 446.296,-422.5948 492,-385 544.9581,-341.4383 565.3047,-254.8774 570.8214,-225.7919"/>
<polygon fill="#9a32cd" stroke="#9a32cd" points="170.0376,-287.3665 164.1293,-278.5721 163.2637,-289.1315 170.0376,-287.3665"/>
<text text-anchor="middle" x="308" y="-432" font-family="Helvetica,sans-Serif" font-size="10.00" fill="#000000"> elements</text>
</g>
<!-- Node10 -->
<g id="node10" class="node">
<title>Node10</title>
<g id="a_node10"><a xlink:title="STL class. ">
<polygon fill="none" stroke="#bfbfbf" points="0,-254 0,-284 95,-284 95,-254 0,-254"/>
<text text-anchor="start" x="8" y="-272" font-family="Helvetica,sans-Serif" font-size="10.00" fill="#000000">std::basic_string&lt;</text>
<text text-anchor="middle" x="47.5" y="-261" font-family="Helvetica,sans-Serif" font-size="10.00" fill="#000000"> char &gt;</text>
</a>
</g>
</g>
<!-- Node10&#45;&gt;Node9 -->
<g id="edge10" class="edge">
<title>Node10&#45;&gt;Node9</title>
<path fill="none" stroke="#191970" d="M105.3356,-269C114.4701,-269 123.5847,-269 131.7491,-269"/>
<polygon fill="#191970" stroke="#191970" points="105.0636,-265.5001 95.0636,-269 105.0636,-272.5001 105.0636,-265.5001"/>
</g>
<!-- Node11&#45;&gt;Node7 -->
<g id="edge12" class="edge">
<title>Node11&#45;&gt;Node7</title>
<path fill="none" stroke="#9a32cd" stroke-dasharray="5,2" d="M373.2211,-181.9379C375.8484,-181.9616 378.4493,-181.9825 381,-182 430.3322,-182.3379 442.6819,-183.2245 492,-182 506.9678,-181.6284 523.4867,-180.8686 537.6451,-180.1101"/>
<polygon fill="#9a32cd" stroke="#9a32cd" points="373.0414,-178.436 363.0063,-181.8341 372.9702,-185.4357 373.0414,-178.436"/>
<text text-anchor="middle" x="436.5" y="-185" font-family="Helvetica,sans-Serif" font-size="10.00" fill="#000000"> growth_names_map</text>
</g>
<!-- Node12&#45;&gt;Node7 -->
<g id="edge14" class="edge">
<title>Node12&#45;&gt;Node7</title>
<path fill="none" stroke="#9a32cd" stroke-dasharray="5,2" d="M373.3536,-146.5258C375.9334,-147.0352 378.4895,-147.5287 381,-148 435.5724,-158.2455 499.3506,-167.7465 537.7973,-173.2065"/>
<polygon fill="#9a32cd" stroke="#9a32cd" points="373.8274,-143.0508 363.3315,-144.4951 372.4372,-149.9114 373.8274,-143.0508"/>
<text text-anchor="middle" x="436.5" y="-169" font-family="Helvetica,sans-Serif" font-size="10.00" fill="#000000"> maturation_names_map</text>
</g>
<!-- Node13&#45;&gt;Node7 -->
<g id="edge16" class="edge">
<title>Node13&#45;&gt;Node7</title>
<path fill="none" stroke="#9a32cd" stroke-dasharray="5,2" d="M372.5761,-375.0263C413.1174,-360.3679 463.0368,-335.4952 492,-296 518.4466,-259.9365 480.2513,-230.3918 510,-197 517.1669,-188.9555 527.6215,-184.265 537.9368,-181.547"/>
<polygon fill="#9a32cd" stroke="#9a32cd" points="371.3125,-371.7601 363.0221,-378.3571 373.6169,-378.37 371.3125,-371.7601"/>
<text text-anchor="middle" x="436.5" y="-373" font-family="Helvetica,sans-Serif" font-size="10.00" fill="#000000"> mortality_names_map</text>
</g>
<!-- Node14 -->
<g id="node14" class="node">
<title>Node14</title>
<polygon fill="none" stroke="#bfbfbf" points="253,-71.5 253,-90.5 363,-90.5 363,-71.5 253,-71.5"/>
<text text-anchor="middle" x="308" y="-78.5" font-family="Helvetica,sans-Serif" font-size="10.00" fill="#000000">std::vector&lt; double &gt;</text>
</g>
<!-- Node14&#45;&gt;Node2 -->
<g id="edge26" class="edge">
<title>Node14&#45;&gt;Node2</title>
<path fill="none" stroke="#9a32cd" stroke-dasharray="5,2" d="M365.5213,-69.6451C418.9281,-60.0991 500.7674,-48 572.5,-48 572.5,-48 572.5,-48 973.5,-48 1059.5069,-48 1123.8943,-154.7871 1141.9155,-188.1581"/>
<polygon fill="#9a32cd" stroke="#9a32cd" points="364.7731,-66.2236 355.5599,-71.455 366.0245,-73.1109 364.7731,-66.2236"/>
<text text-anchor="middle" x="770.5" y="-106" font-family="Helvetica,sans-Serif" font-size="10.00" fill="#000000"> carrying_capacity</text>
<text text-anchor="middle" x="770.5" y="-95" font-family="Helvetica,sans-Serif" font-size="10.00" fill="#000000">vfreq</text>
<text text-anchor="middle" x="770.5" y="-84" font-family="Helvetica,sans-Serif" font-size="10.00" fill="#000000">vmat</text>
<text text-anchor="middle" x="770.5" y="-73" font-family="Helvetica,sans-Serif" font-size="10.00" fill="#000000">vage</text>
<text text-anchor="middle" x="770.5" y="-62" font-family="Helvetica,sans-Serif" font-size="10.00" fill="#000000">nrecruits_vec</text>
<text text-anchor="middle" x="770.5" y="-51" font-family="Helvetica,sans-Serif" font-size="10.00" fill="#000000">vlen</text>
</g>
<!-- Node14&#45;&gt;Node6 -->
<g id="edge21" class="edge">
<title>Node14&#45;&gt;Node6</title>
<path fill="none" stroke="#9a32cd" stroke-dasharray="5,2" d="M373.5,-84.0295C408.7303,-86.1504 452.8615,-89.5968 492,-95 591.4201,-108.7253 708.7622,-136.0159 752.7094,-146.6321"/>
<polygon fill="#9a32cd" stroke="#9a32cd" points="373.5267,-80.5252 363.3406,-83.4395 373.1208,-87.5135 373.5267,-80.5252"/>
<text text-anchor="middle" x="572.5" y="-133" font-family="Helvetica,sans-Serif" font-size="10.00" fill="#000000"> trait_scalars</text>
<text text-anchor="middle" x="572.5" y="-122" font-family="Helvetica,sans-Serif" font-size="10.00" fill="#000000">trait_variances</text>
</g>
<!-- Node14&#45;&gt;Node7 -->
<g id="edge18" class="edge">
<title>Node14&#45;&gt;Node7</title>
<path fill="none" stroke="#9a32cd" stroke-dasharray="5,2" d="M373.201,-90.8032C423.8666,-98.5533 486.4612,-108.474 492,-111 522.4406,-124.8825 550.7093,-153.4212 564.2025,-168.3761"/>
<polygon fill="#9a32cd" stroke="#9a32cd" points="373.6608,-87.333 363.2473,-89.285 372.6052,-94.2529 373.6608,-87.333"/>
<text text-anchor="middle" x="436.5" y="-136" font-family="Helvetica,sans-Serif" font-size="10.00" fill="#000000"> mam</text>
<text text-anchor="middle" x="436.5" y="-125" font-family="Helvetica,sans-Serif" font-size="10.00" fill="#000000">ma</text>
<text text-anchor="middle" x="436.5" y="-114" font-family="Helvetica,sans-Serif" font-size="10.00" fill="#000000">mai</text>
</g>
<!-- Node15&#45;&gt;Node2 -->
<g id="edge25" class="edge">
<title>Node15&#45;&gt;Node2</title>
<path fill="none" stroke="#9a32cd" stroke-dasharray="5,2" d="M645.4368,-213.7148C771.9902,-209.7497 1027.211,-201.7532 1115.8369,-198.9764"/>
<polygon fill="#9a32cd" stroke="#9a32cd" points="644.9607,-210.2279 635.0752,-214.0394 645.1799,-217.2244 644.9607,-210.2279"/>
<text text-anchor="middle" x="856" y="-210" font-family="Helvetica,sans-Serif" font-size="10.00" fill="#000000"> colnames</text>
</g>
<!-- Node15&#45;&gt;Node6 -->
<g id="edge19" class="edge">
<title>Node15&#45;&gt;Node6</title>
<path fill="none" stroke="#9a32cd" stroke-dasharray="5,2" d="M619.1461,-203.2555C624.5665,-201.3542 629.9559,-199.2637 635,-197 643.5537,-193.1613 644.4356,-189.8146 653,-186 687.0263,-170.8445 729.4401,-160.0539 752.8736,-154.7427"/>
<polygon fill="#9a32cd" stroke="#9a32cd" points="617.8197,-200.0076 609.4239,-206.4698 620.0171,-206.6537 617.8197,-200.0076"/>
<text text-anchor="middle" x="680.5" y="-189" font-family="Helvetica,sans-Serif" font-size="10.00" fill="#000000"> trait_names</text>
</g>
<!-- Node16&#45;&gt;Node2 -->
<g id="edge22" class="edge">
<title>Node16&#45;&gt;Node2</title>
<path fill="none" stroke="#9a32cd" stroke-dasharray="5,2" d="M1033.8266,-177.6313C1054.2817,-179.6437 1077.2108,-182.3863 1098,-186 1103.7814,-187.005 1109.8929,-188.3058 1115.7658,-189.6789"/>
<polygon fill="#9a32cd" stroke="#9a32cd" points="1033.9781,-174.1301 1023.693,-176.6732 1033.3191,-181.099 1033.9781,-174.1301"/>
<text text-anchor="middle" x="1083" y="-189" font-family="Helvetica,sans-Serif" font-size="10.00" fill="#000000"> fishes</text>
</g>
<!-- Node17 -->
<g id="node17" class="node">
<title>Node17</title>
<polygon fill="none" stroke="#bfbfbf" points="927.5,-.5 927.5,-19.5 1019.5,-19.5 1019.5,-.5 927.5,-.5"/>
<text text-anchor="middle" x="973.5" y="-7.5" font-family="Helvetica,sans-Serif" font-size="10.00" fill="#000000">std::vector&lt; int &gt;</text>
</g>
<!-- Node17&#45;&gt;Node2 -->
<g id="edge24" class="edge">
<title>Node17&#45;&gt;Node2</title>
<path fill="none" stroke="#9a32cd" stroke-dasharray="5,2" d="M1029.7445,-2.8124C1053.2729,-2.8575 1079.4088,-7.3118 1098,-23 1124.0415,-44.9752 1141.0218,-154.4522 1145.6923,-188.1273"/>
<polygon fill="#9a32cd" stroke="#9a32cd" points="1029.4158,.6808 1019.5033,-3.0599 1029.585,-6.3171 1029.4158,.6808"/>
<text text-anchor="middle" x="1083" y="-26" font-family="Helvetica,sans-Serif" font-size="10.00" fill="#000000"> t_env</text>
</g>
</g>
</svg>
