<?xml version="1.0" encoding="UTF-8" standalone="no"?>
<!DOCTYPE svg PUBLIC "-//W3C//DTD SVG 1.1//EN"
 "http://www.w3.org/Graphics/SVG/1.1/DTD/svg11.dtd">
<!-- Generated by graphviz version 2.40.1 (20161225.0304)
 -->
<!-- Title: Simulator::max_avg_utils Pages: 1 -->
<svg width="665pt" height="104pt"
 viewBox="0.00 0.00 665.00 104.00" xmlns="http://www.w3.org/2000/svg" xmlns:xlink="http://www.w3.org/1999/xlink">
<g id="graph0" class="graph" transform="scale(1 1) rotate(0) translate(4 100)">
<title>Simulator::max_avg_utils</title>
<!-- Node2 -->
<g id="node1" class="node">
<title>Node2</title>
<polygon fill="#bfbfbf" stroke="#000000" points="0,-52 0,-82 104,-82 104,-52 0,-52"/>
<text text-anchor="start" x="8" y="-70" font-family="Helvetica,sans-Serif" font-size="10.00" fill="#000000">Simulator::max_avg</text>
<text text-anchor="middle" x="52" y="-59" font-family="Helvetica,sans-Serif" font-size="10.00" fill="#000000">_utils</text>
</g>
<!-- Node3 -->
<g id="node2" class="node">
<title>Node3</title>
<g id="a_node2"><a xlink:href="classTensor.html#a6c8465a488ce260e6e05f1a3ceb8ab26" target="_top" xlink:title="Tensor::avg_dim">
<polygon fill="none" stroke="#000000" points="142.5,-76.5 142.5,-95.5 231.5,-95.5 231.5,-76.5 142.5,-76.5"/>
<text text-anchor="middle" x="187" y="-83.5" font-family="Helvetica,sans-Serif" font-size="10.00" fill="#000000">Tensor::avg_dim</text>
</a>
</g>
</g>
<!-- Node2&#45;&gt;Node3 -->
<g id="edge1" class="edge">
<title>Node2&#45;&gt;Node3</title>
<path fill="none" stroke="#191970" d="M104.1945,-74.3459C113.4576,-75.6496 123.1266,-77.0104 132.4528,-78.323"/>
<polygon fill="#191970" stroke="#191970" points="132.0126,-81.7954 142.4028,-79.7234 132.9882,-74.8638 132.0126,-81.7954"/>
</g>
<!-- Node8 -->
<g id="node7" class="node">
<title>Node8</title>
<g id="a_node7"><a xlink:href="classTensor.html#a3986d7a50faef0249a8d2da5b1f67a89" target="_top" xlink:title="Tensor::transform">
<polygon fill="none" stroke="#000000" points="140,-38.5 140,-57.5 234,-57.5 234,-38.5 140,-38.5"/>
<text text-anchor="middle" x="187" y="-45.5" font-family="Helvetica,sans-Serif" font-size="10.00" fill="#000000">Tensor::transform</text>
</a>
</g>
</g>
<!-- Node2&#45;&gt;Node8 -->
<g id="edge6" class="edge">
<title>Node2&#45;&gt;Node8</title>
<path fill="none" stroke="#191970" d="M104.1945,-59.6541C112.529,-58.4811 121.192,-57.2619 129.6384,-56.0731"/>
<polygon fill="#191970" stroke="#191970" points="130.3823,-59.503 139.7969,-54.6434 129.4067,-52.5713 130.3823,-59.503"/>
</g>
<!-- Node4 -->
<g id="node3" class="node">
<title>Node4</title>
<g id="a_node3"><a xlink:href="classTensor.html#a447f65c9ada7c9357091fba66ad73d10" target="_top" xlink:title="Tensor::accumulate">
<polygon fill="none" stroke="#000000" points="276,-76.5 276,-95.5 379,-95.5 379,-76.5 276,-76.5"/>
<text text-anchor="middle" x="327.5" y="-83.5" font-family="Helvetica,sans-Serif" font-size="10.00" fill="#000000">Tensor::accumulate</text>
</a>
</g>
</g>
<!-- Node3&#45;&gt;Node4 -->
<g id="edge2" class="edge">
<title>Node3&#45;&gt;Node4</title>
<path fill="none" stroke="#191970" d="M231.8414,-86C242.5401,-86 254.1474,-86 265.4663,-86"/>
<polygon fill="#191970" stroke="#191970" points="265.7458,-89.5001 275.7457,-86 265.7457,-82.5001 265.7458,-89.5001"/>
</g>
<!-- Node5 -->
<g id="node4" class="node">
<title>Node5</title>
<g id="a_node4"><a xlink:href="classTensor.html#a862952dc137707abdccd06cf9cd5855b" target="_top" xlink:title="Tensor::plane">
<polygon fill="none" stroke="#000000" points="445,-38.5 445,-57.5 521,-57.5 521,-38.5 445,-38.5"/>
<text text-anchor="middle" x="483" y="-45.5" font-family="Helvetica,sans-Serif" font-size="10.00" fill="#000000">Tensor::plane</text>
</a>
</g>
</g>
<!-- Node4&#45;&gt;Node5 -->
<g id="edge3" class="edge">
<title>Node4&#45;&gt;Node5</title>
<path fill="none" stroke="#191970" d="M366.7392,-76.411C387.4932,-71.3393 413.145,-65.0707 435.0687,-59.7131"/>
<polygon fill="#191970" stroke="#191970" points="435.9652,-63.0971 444.8484,-57.3232 434.3034,-56.2972 435.9652,-63.0971"/>
</g>
<!-- Node7 -->
<g id="node6" class="node">
<title>Node7</title>
<g id="a_node6"><a xlink:href="classTensor.html#abbfd4d8d3390394254f1d42fcb845bd2" target="_top" xlink:title="Tensor::accumulate_dim">
<polygon fill="none" stroke="#000000" points="421,-76.5 421,-95.5 545,-95.5 545,-76.5 421,-76.5"/>
<text text-anchor="middle" x="483" y="-83.5" font-family="Helvetica,sans-Serif" font-size="10.00" fill="#000000">Tensor::accumulate_dim</text>
</a>
</g>
</g>
<!-- Node4&#45;&gt;Node7 -->
<g id="edge5" class="edge">
<title>Node4&#45;&gt;Node7</title>
<path fill="none" stroke="#191970" d="M379.2792,-86C389.3891,-86 400.1608,-86 410.7935,-86"/>
<polygon fill="#191970" stroke="#191970" points="410.9191,-89.5001 420.9191,-86 410.919,-82.5001 410.9191,-89.5001"/>
</g>
<!-- Node6 -->
<g id="node5" class="node">
<title>Node6</title>
<g id="a_node5"><a xlink:href="classTensor.html#a90a6b28226bcd1be7090fd2f8782d0b1" target="_top" xlink:title="Tensor::index">
<polygon fill="none" stroke="#000000" points="581,-38.5 581,-57.5 657,-57.5 657,-38.5 581,-38.5"/>
<text text-anchor="middle" x="619" y="-45.5" font-family="Helvetica,sans-Serif" font-size="10.00" fill="#000000">Tensor::index</text>
</a>
</g>
</g>
<!-- Node5&#45;&gt;Node6 -->
<g id="edge4" class="edge">
<title>Node5&#45;&gt;Node6</title>
<path fill="none" stroke="#191970" d="M521.2455,-48C536.4552,-48 554.1389,-48 570.2511,-48"/>
<polygon fill="#191970" stroke="#191970" points="570.5704,-51.5001 580.5703,-48 570.5703,-44.5001 570.5704,-51.5001"/>
</g>
<!-- Node8&#45;&gt;Node5 -->
<g id="edge7" class="edge">
<title>Node8&#45;&gt;Node5</title>
<path fill="none" stroke="#191970" d="M234.2294,-48C289.1244,-48 379.2436,-48 434.6237,-48"/>
<polygon fill="#191970" stroke="#191970" points="434.8797,-51.5001 444.8796,-48 434.8796,-44.5001 434.8797,-51.5001"/>
</g>
<!-- Node9 -->
<g id="node8" class="node">
<title>Node9</title>
<g id="a_node8"><a xlink:href="classTensor.html#a1a9aea97717d687b7d501842efb546d4" target="_top" xlink:title="Tensor::transform_dim">
<polygon fill="none" stroke="#000000" points="270,-.5 270,-19.5 385,-19.5 385,-.5 270,-.5"/>
<text text-anchor="middle" x="327.5" y="-7.5" font-family="Helvetica,sans-Serif" font-size="10.00" fill="#000000">Tensor::transform_dim</text>
</a>
</g>
</g>
<!-- Node8&#45;&gt;Node9 -->
<g id="edge8" class="edge">
<title>Node8&#45;&gt;Node9</title>
<path fill="none" stroke="#191970" d="M222.4541,-38.411C240.5913,-33.5056 262.8684,-27.4804 282.2334,-22.2429"/>
<polygon fill="#191970" stroke="#191970" points="283.3179,-25.5754 292.0573,-19.5859 281.4903,-18.8182 283.3179,-25.5754"/>
</g>
</g>
</svg>
