<?xml version="1.0" encoding="UTF-8" standalone="no"?>
<!DOCTYPE svg PUBLIC "-//W3C//DTD SVG 1.1//EN"
 "http://www.w3.org/Graphics/SVG/1.1/DTD/svg11.dtd">
<!-- Generated by graphviz version 2.40.1 (20161225.0304)
 -->
<!-- Title: Tensor::location Pages: 1 -->
<svg width="224pt" height="66pt"
 viewBox="0.00 0.00 224.00 66.00" xmlns="http://www.w3.org/2000/svg" xmlns:xlink="http://www.w3.org/1999/xlink">
<g id="graph0" class="graph" transform="scale(1 1) rotate(0) translate(4 62)">
<title>Tensor::location</title>
<!-- Node51 -->
<g id="node1" class="node">
<title>Node51</title>
<polygon fill="#bfbfbf" stroke="#000000" points="0,-19.5 0,-38.5 86,-38.5 86,-19.5 0,-19.5"/>
<text text-anchor="middle" x="43" y="-26.5" font-family="Helvetica,sans-Serif" font-size="10.00" fill="#000000">Tensor::location</text>
</g>
<!-- Node52 -->
<g id="node2" class="node">
<title>Node52</title>
<g id="a_node2"><a xlink:href="classTensor.html#a2e4d51ac74c4a518c4e83a4be3eab68a" target="_top" xlink:title="Tensor::location">
<polygon fill="none" stroke="#000000" points="126,-38.5 126,-57.5 212,-57.5 212,-38.5 126,-38.5"/>
<text text-anchor="middle" x="169" y="-45.5" font-family="Helvetica,sans-Serif" font-size="10.00" fill="#000000">Tensor::location</text>
</a>
</g>
</g>
<!-- Node51&#45;&gt;Node52 -->
<g id="edge1" class="edge">
<title>Node51&#45;&gt;Node52</title>
<path fill="none" stroke="#191970" d="M96.1389,-37.013C106.0143,-38.5022 116.2212,-40.0413 125.7564,-41.4791"/>
<polygon fill="#191970" stroke="#191970" points="96.4198,-33.5159 86.0096,-35.4856 95.3759,-40.4376 96.4198,-33.5159"/>
</g>
<!-- Node53 -->
<g id="node3" class="node">
<title>Node53</title>
<g id="a_node3"><a xlink:href="classTensor.html#a0002fa7601d29d35c4930cd168bffb6b" target="_top" xlink:title="Tensor::operator()">
<polygon fill="none" stroke="#000000" points="122,-.5 122,-19.5 216,-19.5 216,-.5 122,-.5"/>
<text text-anchor="middle" x="169" y="-7.5" font-family="Helvetica,sans-Serif" font-size="10.00" fill="#000000">Tensor::operator()</text>
</a>
</g>
</g>
<!-- Node51&#45;&gt;Node53 -->
<g id="edge2" class="edge">
<title>Node51&#45;&gt;Node53</title>
<path fill="none" stroke="#191970" d="M95.9518,-21.0152C104.5553,-19.7178 113.4155,-18.3818 121.8681,-17.1072"/>
<polygon fill="#191970" stroke="#191970" points="95.3759,-17.5624 86.0096,-22.5144 96.4198,-24.4841 95.3759,-17.5624"/>
</g>
</g>
</svg>
