<?xml version="1.0" encoding="UTF-8" standalone="no"?>
<!DOCTYPE svg PUBLIC "-//W3C//DTD SVG 1.1//EN"
 "http://www.w3.org/Graphics/SVG/1.1/DTD/svg11.dtd">
<!-- Generated by graphviz version 2.40.1 (20161225.0304)
 -->
<!-- Title: io::Initializer::get Pages: 1 -->
<svg width="347pt" height="39pt"
 viewBox="0.00 0.00 347.00 39.00" xmlns="http://www.w3.org/2000/svg" xmlns:xlink="http://www.w3.org/1999/xlink">
<g id="graph0" class="graph" transform="scale(1 1) rotate(0) translate(4 35)">
<title>io::Initializer::get</title>
<!-- Node0 -->
<g id="node1" class="node">
<title>Node0</title>
<polygon fill="#bfbfbf" stroke="#000000" points="0,-6 0,-25 89,-25 89,-6 0,-6"/>
<text text-anchor="middle" x="44.5" y="-13" font-family="Helvetica,sans-Serif" font-size="10.00" fill="#000000">io::Initializer::get</text>
</g>
<!-- Node1 -->
<g id="node2" class="node">
<title>Node1</title>
<g id="a_node2"><a xlink:href="classio_1_1Initializer.html#a06fe79d6d19f76180836e03e3ad6b7fb" target="_top" xlink:title="io::Initializer::get\l_value">
<polygon fill="none" stroke="#000000" points="125,-.5 125,-30.5 214,-30.5 214,-.5 125,-.5"/>
<text text-anchor="start" x="133" y="-18.5" font-family="Helvetica,sans-Serif" font-size="10.00" fill="#000000">io::Initializer::get</text>
<text text-anchor="middle" x="169.5" y="-7.5" font-family="Helvetica,sans-Serif" font-size="10.00" fill="#000000">_value</text>
</a>
</g>
</g>
<!-- Node0&#45;&gt;Node1 -->
<g id="edge1" class="edge">
<title>Node0&#45;&gt;Node1</title>
<path fill="none" stroke="#191970" d="M89.2748,-15.5C97.4426,-15.5 106.0507,-15.5 114.475,-15.5"/>
<polygon fill="#191970" stroke="#191970" points="114.6177,-19.0001 124.6177,-15.5 114.6176,-12.0001 114.6177,-19.0001"/>
</g>
<!-- Node2 -->
<g id="node3" class="node">
<title>Node2</title>
<g id="a_node3"><a xlink:href="classio_1_1Initializer.html#a310526fc5b0c2c257bee66d6f48fa4ae" target="_top" xlink:title="io::Initializer::get\l_section">
<polygon fill="none" stroke="#000000" points="250,-.5 250,-30.5 339,-30.5 339,-.5 250,-.5"/>
<text text-anchor="start" x="258" y="-18.5" font-family="Helvetica,sans-Serif" font-size="10.00" fill="#000000">io::Initializer::get</text>
<text text-anchor="middle" x="294.5" y="-7.5" font-family="Helvetica,sans-Serif" font-size="10.00" fill="#000000">_section</text>
</a>
</g>
</g>
<!-- Node1&#45;&gt;Node2 -->
<g id="edge2" class="edge">
<title>Node1&#45;&gt;Node2</title>
<path fill="none" stroke="#191970" d="M214.2748,-15.5C222.4426,-15.5 231.0507,-15.5 239.475,-15.5"/>
<polygon fill="#191970" stroke="#191970" points="239.6177,-19.0001 249.6177,-15.5 239.6176,-12.0001 239.6177,-19.0001"/>
</g>
</g>
</svg>
