<?xml version="1.0" encoding="UTF-8" standalone="no"?>
<!DOCTYPE svg PUBLIC "-//W3C//DTD SVG 1.1//EN"
 "http://www.w3.org/Graphics/SVG/1.1/DTD/svg11.dtd">
<!-- Generated by graphviz version 2.40.1 (20161225.0304)
 -->
<!-- Title: Tensor::avg_dim Pages: 1 -->
<svg width="508pt" height="66pt"
 viewBox="0.00 0.00 508.00 66.00" xmlns="http://www.w3.org/2000/svg" xmlns:xlink="http://www.w3.org/1999/xlink">
<g id="graph0" class="graph" transform="scale(1 1) rotate(0) translate(4 62)">
<title>Tensor::avg_dim</title>
<!-- Node24 -->
<g id="node1" class="node">
<title>Node24</title>
<polygon fill="#bfbfbf" stroke="#000000" points="0,-19.5 0,-38.5 89,-38.5 89,-19.5 0,-19.5"/>
<text text-anchor="middle" x="44.5" y="-26.5" font-family="Helvetica,sans-Serif" font-size="10.00" fill="#000000">Tensor::avg_dim</text>
</g>
<!-- Node25 -->
<g id="node2" class="node">
<title>Node25</title>
<g id="a_node2"><a xlink:href="classTensor.html#a447f65c9ada7c9357091fba66ad73d10" target="_top" xlink:title="Tensor::accumulate">
<polygon fill="none" stroke="#000000" points="125,-19.5 125,-38.5 228,-38.5 228,-19.5 125,-19.5"/>
<text text-anchor="middle" x="176.5" y="-26.5" font-family="Helvetica,sans-Serif" font-size="10.00" fill="#000000">Tensor::accumulate</text>
</a>
</g>
</g>
<!-- Node24&#45;&gt;Node25 -->
<g id="edge1" class="edge">
<title>Node24&#45;&gt;Node25</title>
<path fill="none" stroke="#191970" d="M89.1892,-29C97.2715,-29 105.8315,-29 114.3075,-29"/>
<polygon fill="#191970" stroke="#191970" points="114.567,-32.5001 124.5669,-29 114.5669,-25.5001 114.567,-32.5001"/>
</g>
<!-- Node26 -->
<g id="node3" class="node">
<title>Node26</title>
<g id="a_node3"><a xlink:href="classTensor.html#a862952dc137707abdccd06cf9cd5855b" target="_top" xlink:title="Tensor::plane">
<polygon fill="none" stroke="#000000" points="288,-38.5 288,-57.5 364,-57.5 364,-38.5 288,-38.5"/>
<text text-anchor="middle" x="326" y="-45.5" font-family="Helvetica,sans-Serif" font-size="10.00" fill="#000000">Tensor::plane</text>
</a>
</g>
</g>
<!-- Node25&#45;&gt;Node26 -->
<g id="edge2" class="edge">
<title>Node25&#45;&gt;Node26</title>
<path fill="none" stroke="#191970" d="M228.3683,-35.592C244.4182,-37.6317 262.0256,-39.8695 277.8152,-41.8762"/>
<polygon fill="#191970" stroke="#191970" points="277.5326,-45.3683 287.8941,-43.1571 278.4152,-38.4242 277.5326,-45.3683"/>
</g>
<!-- Node28 -->
<g id="node5" class="node">
<title>Node28</title>
<g id="a_node5"><a xlink:href="classTensor.html#abbfd4d8d3390394254f1d42fcb845bd2" target="_top" xlink:title="Tensor::accumulate_dim">
<polygon fill="none" stroke="#000000" points="264,-.5 264,-19.5 388,-19.5 388,-.5 264,-.5"/>
<text text-anchor="middle" x="326" y="-7.5" font-family="Helvetica,sans-Serif" font-size="10.00" fill="#000000">Tensor::accumulate_dim</text>
</a>
</g>
</g>
<!-- Node25&#45;&gt;Node28 -->
<g id="edge4" class="edge">
<title>Node25&#45;&gt;Node28</title>
<path fill="none" stroke="#191970" d="M228.3683,-22.408C236.612,-21.3604 245.2665,-20.2604 253.8747,-19.1664"/>
<polygon fill="#191970" stroke="#191970" points="254.4522,-22.6213 263.9311,-17.8884 253.5696,-15.6771 254.4522,-22.6213"/>
</g>
<!-- Node27 -->
<g id="node4" class="node">
<title>Node27</title>
<g id="a_node4"><a xlink:href="classTensor.html#a90a6b28226bcd1be7090fd2f8782d0b1" target="_top" xlink:title="Tensor::index">
<polygon fill="none" stroke="#000000" points="424,-38.5 424,-57.5 500,-57.5 500,-38.5 424,-38.5"/>
<text text-anchor="middle" x="462" y="-45.5" font-family="Helvetica,sans-Serif" font-size="10.00" fill="#000000">Tensor::index</text>
</a>
</g>
</g>
<!-- Node26&#45;&gt;Node27 -->
<g id="edge3" class="edge">
<title>Node26&#45;&gt;Node27</title>
<path fill="none" stroke="#191970" d="M364.2455,-48C379.4552,-48 397.1389,-48 413.2511,-48"/>
<polygon fill="#191970" stroke="#191970" points="413.5704,-51.5001 423.5703,-48 413.5703,-44.5001 413.5704,-51.5001"/>
</g>
</g>
</svg>
