<?xml version="1.0" encoding="UTF-8" standalone="no"?>
<!DOCTYPE svg PUBLIC "-//W3C//DTD SVG 1.1//EN"
 "http://www.w3.org/Graphics/SVG/1.1/DTD/svg11.dtd">
<!-- Generated by graphviz version 2.40.1 (20161225.0304)
 -->
<!-- Title: Population::fishableBiomass Pages: 1 -->
<svg width="559pt" height="160pt"
 viewBox="0.00 0.00 559.00 160.00" xmlns="http://www.w3.org/2000/svg" xmlns:xlink="http://www.w3.org/1999/xlink">
<g id="graph0" class="graph" transform="scale(1 1) rotate(0) translate(4 156)">
<title>Population::fishableBiomass</title>
<!-- Node10 -->
<g id="node1" class="node">
<title>Node10</title>
<polygon fill="#bfbfbf" stroke="#000000" points="0,-66.5 0,-85.5 140,-85.5 140,-66.5 0,-66.5"/>
<text text-anchor="middle" x="70" y="-73.5" font-family="Helvetica,sans-Serif" font-size="10.00" fill="#000000">Population::fishableBiomass</text>
</g>
<!-- Node11 -->
<g id="node2" class="node">
<title>Node11</title>
<g id="a_node2"><a xlink:href="fish__glue_8cpp.html#ab96ae82277aa9004dc603b77512c7265" target="_top" xlink:title="RCPP_MODULE">
<polygon fill="none" stroke="#000000" points="180,-132.5 180,-151.5 273,-151.5 273,-132.5 180,-132.5"/>
<text text-anchor="middle" x="226.5" y="-139.5" font-family="Helvetica,sans-Serif" font-size="10.00" fill="#000000">RCPP_MODULE</text>
</a>
</g>
</g>
<!-- Node10&#45;&gt;Node11 -->
<g id="edge1" class="edge">
<title>Node10&#45;&gt;Node11</title>
<path fill="none" stroke="#191970" d="M99.6771,-89.7066C120.8219,-99.3377 149.9897,-112.3508 176,-123 183.802,-126.1943 192.3599,-129.491 200.1778,-132.4232"/>
<polygon fill="#191970" stroke="#191970" points="101.1164,-86.5163 90.5666,-85.5402 98.2051,-92.8821 101.1164,-86.5163"/>
</g>
<!-- Node12 -->
<g id="node3" class="node">
<title>Node12</title>
<g id="a_node3"><a xlink:href="classSimulator.html#a4734ed6f01bdac62f74ebd20dd761f2b" target="_top" xlink:title="Simulator::simulate\l_multi">
<polygon fill="none" stroke="#000000" points="176,-83 176,-113 277,-113 277,-83 176,-83"/>
<text text-anchor="start" x="184" y="-101" font-family="Helvetica,sans-Serif" font-size="10.00" fill="#000000">Simulator::simulate</text>
<text text-anchor="middle" x="226.5" y="-90" font-family="Helvetica,sans-Serif" font-size="10.00" fill="#000000">_multi</text>
</a>
</g>
</g>
<!-- Node10&#45;&gt;Node12 -->
<g id="edge2" class="edge">
<title>Node10&#45;&gt;Node12</title>
<path fill="none" stroke="#191970" d="M147.9248,-86.9543C157.3433,-88.2783 166.7682,-89.6032 175.6535,-90.8522"/>
<polygon fill="#191970" stroke="#191970" points="148.1229,-83.4478 137.733,-85.5216 147.1483,-90.3796 148.1229,-83.4478"/>
</g>
<!-- Node15 -->
<g id="node6" class="node">
<title>Node15</title>
<g id="a_node6"><a xlink:href="classSimulator.html#a636e7a83b462c3e48769a85ae350e742" target="_top" xlink:title="Simulator::simulate\l_multi_2d">
<polygon fill="none" stroke="#000000" points="317,-39 317,-69 418,-69 418,-39 317,-39"/>
<text text-anchor="start" x="325" y="-57" font-family="Helvetica,sans-Serif" font-size="10.00" fill="#000000">Simulator::simulate</text>
<text text-anchor="middle" x="367.5" y="-46" font-family="Helvetica,sans-Serif" font-size="10.00" fill="#000000">_multi_2d</text>
</a>
</g>
</g>
<!-- Node10&#45;&gt;Node15 -->
<g id="edge5" class="edge">
<title>Node10&#45;&gt;Node15</title>
<path fill="none" stroke="#191970" d="M150.1925,-70.0698C203.2655,-66.1451 271.2426,-61.1182 316.9147,-57.7408"/>
<polygon fill="#191970" stroke="#191970" points="149.8412,-66.5861 140.1266,-70.8142 150.3575,-73.5671 149.8412,-66.5861"/>
</g>
<!-- Node16 -->
<g id="node7" class="node">
<title>Node16</title>
<g id="a_node7"><a xlink:href="classSimulator.html#a16eef6e60e97dabc2a1205b58b10182c" target="_top" xlink:title="Simulator::simulate_r">
<polygon fill="none" stroke="#000000" points="313,-.5 313,-19.5 422,-19.5 422,-.5 313,-.5"/>
<text text-anchor="middle" x="367.5" y="-7.5" font-family="Helvetica,sans-Serif" font-size="10.00" fill="#000000">Simulator::simulate_r</text>
</a>
</g>
</g>
<!-- Node10&#45;&gt;Node16 -->
<g id="edge7" class="edge">
<title>Node10&#45;&gt;Node16</title>
<path fill="none" stroke="#191970" d="M122.9293,-64.2577C180.4642,-51.4937 271.2968,-31.3426 324.5717,-19.5236"/>
<polygon fill="#191970" stroke="#191970" points="121.9459,-60.8907 112.9413,-66.4735 123.462,-67.7245 121.9459,-60.8907"/>
</g>
<!-- Node13 -->
<g id="node4" class="node">
<title>Node13</title>
<g id="a_node4"><a xlink:href="classSimulator.html#adb6faf4ee69f21998ce7dc79c065a3e9" target="_top" xlink:title="Simulator::simulate\l_multi_r">
<polygon fill="none" stroke="#000000" points="317,-88 317,-118 418,-118 418,-88 317,-88"/>
<text text-anchor="start" x="325" y="-106" font-family="Helvetica,sans-Serif" font-size="10.00" fill="#000000">Simulator::simulate</text>
<text text-anchor="middle" x="367.5" y="-95" font-family="Helvetica,sans-Serif" font-size="10.00" fill="#000000">_multi_r</text>
</a>
</g>
</g>
<!-- Node12&#45;&gt;Node13 -->
<g id="edge3" class="edge">
<title>Node12&#45;&gt;Node13</title>
<path fill="none" stroke="#191970" d="M287.1916,-100.1522C297.0892,-100.5032 307.2499,-100.8635 316.8727,-101.2047"/>
<polygon fill="#191970" stroke="#191970" points="287.1238,-96.6477 277.006,-99.791 286.8756,-103.6433 287.1238,-96.6477"/>
</g>
<!-- Node14 -->
<g id="node5" class="node">
<title>Node14</title>
<g id="a_node5"><a xlink:href="fish__glue_8cpp.html#addebb0997b0e49067d8784c9954b7b96" target="_top" xlink:title="RCPP_MODULE">
<polygon fill="none" stroke="#000000" points="458,-44.5 458,-63.5 551,-63.5 551,-44.5 458,-44.5"/>
<text text-anchor="middle" x="504.5" y="-51.5" font-family="Helvetica,sans-Serif" font-size="10.00" fill="#000000">RCPP_MODULE</text>
</a>
</g>
</g>
<!-- Node13&#45;&gt;Node14 -->
<g id="edge4" class="edge">
<title>Node13&#45;&gt;Node14</title>
<path fill="none" stroke="#191970" d="M419.3007,-84.4728C439.2049,-77.3537 461.1124,-69.5182 477.728,-63.5754"/>
<polygon fill="#191970" stroke="#191970" points="417.9595,-81.2352 409.7224,-87.8986 420.317,-87.8263 417.9595,-81.2352"/>
</g>
<!-- Node15&#45;&gt;Node14 -->
<g id="edge6" class="edge">
<title>Node15&#45;&gt;Node14</title>
<path fill="none" stroke="#191970" d="M428.2947,-54C438.1625,-54 448.2464,-54 457.7131,-54"/>
<polygon fill="#191970" stroke="#191970" points="428.1245,-50.5001 418.1245,-54 428.1245,-57.5001 428.1245,-50.5001"/>
</g>
<!-- Node16&#45;&gt;Node14 -->
<g id="edge8" class="edge">
<title>Node16&#45;&gt;Node14</title>
<path fill="none" stroke="#191970" d="M406.8015,-22.6224C428.4627,-29.5793 454.9162,-38.0753 474.8311,-44.4713"/>
<polygon fill="#191970" stroke="#191970" points="407.8182,-19.2729 397.227,-19.5473 405.6777,-25.9376 407.8182,-19.2729"/>
</g>
</g>
</svg>
