<?xml version="1.0" encoding="UTF-8" standalone="no"?>
<!DOCTYPE svg PUBLIC "-//W3C//DTD SVG 1.1//EN"
 "http://www.w3.org/Graphics/SVG/1.1/DTD/svg11.dtd">
<!-- Generated by graphviz version 2.40.1 (20161225.0304)
 -->
<!-- Title: Fish::grow Pages: 1 -->
<svg width="336pt" height="142pt"
 viewBox="0.00 0.00 336.00 142.00" xmlns="http://www.w3.org/2000/svg" xmlns:xlink="http://www.w3.org/1999/xlink">
<g id="graph0" class="graph" transform="scale(1 1) rotate(0) translate(4 138)">
<title>Fish::grow</title>
<!-- Node11 -->
<g id="node1" class="node">
<title>Node11</title>
<polygon fill="#bfbfbf" stroke="#000000" points="0,-57.5 0,-76.5 62,-76.5 62,-57.5 0,-57.5"/>
<text text-anchor="middle" x="31" y="-64.5" font-family="Helvetica,sans-Serif" font-size="10.00" fill="#000000">Fish::grow</text>
</g>
<!-- Node12 -->
<g id="node2" class="node">
<title>Node12</title>
<g id="a_node2"><a xlink:href="namespacefish.html#a0ab1c4842d702a0a40bd04f26793ce12" target="_top" xlink:title="Compute the nonlinear growth increment , as follows . ">
<polygon fill="none" stroke="#000000" points="105,-114.5 105,-133.5 182,-133.5 182,-114.5 105,-114.5"/>
<text text-anchor="middle" x="143.5" y="-121.5" font-family="Helvetica,sans-Serif" font-size="10.00" fill="#000000">fish::dl_power</text>
</a>
</g>
</g>
<!-- Node11&#45;&gt;Node12 -->
<g id="edge1" class="edge">
<title>Node11&#45;&gt;Node12</title>
<path fill="none" stroke="#191970" d="M46.6842,-76.6089C60.0816,-84.6426 79.9885,-96.1714 98,-105 101.8049,-106.865 105.8395,-108.7192 109.8727,-110.4969"/>
<polygon fill="#191970" stroke="#191970" points="108.6018,-113.76 119.1724,-114.4755 111.3552,-107.3242 108.6018,-113.76"/>
</g>
<!-- Node13 -->
<g id="node3" class="node">
<title>Node13</title>
<g id="a_node3"><a xlink:href="namespacefish.html#adc414165e9acd76993cbaaf5140c5f22" target="_top" xlink:title="Compute the new length after growth for adults, assuming allocation to reproduction ...">
<polygon fill="none" stroke="#000000" points="98,-76.5 98,-95.5 189,-95.5 189,-76.5 98,-76.5"/>
<text text-anchor="middle" x="143.5" y="-83.5" font-family="Helvetica,sans-Serif" font-size="10.00" fill="#000000">fish::length_adult</text>
</a>
</g>
</g>
<!-- Node11&#45;&gt;Node13 -->
<g id="edge2" class="edge">
<title>Node11&#45;&gt;Node13</title>
<path fill="none" stroke="#191970" d="M62.0389,-72.2421C70.0721,-73.5988 78.9702,-75.1016 87.8485,-76.6011"/>
<polygon fill="#191970" stroke="#191970" points="87.3735,-80.0703 97.8167,-78.2846 88.5392,-73.1681 87.3735,-80.0703"/>
</g>
<!-- Node14 -->
<g id="node4" class="node">
<title>Node14</title>
<g id="a_node4"><a xlink:href="namespacefish.html#a1d06e0358aca1be4446ed148b7ce3d84" target="_top" xlink:title="Compute the new length after growth assuming no allocation to reproduction . ">
<polygon fill="none" stroke="#000000" points="225,-57.5 225,-76.5 328,-76.5 328,-57.5 225,-57.5"/>
<text text-anchor="middle" x="276.5" y="-64.5" font-family="Helvetica,sans-Serif" font-size="10.00" fill="#000000">fish::length_juvenile</text>
</a>
</g>
</g>
<!-- Node11&#45;&gt;Node14 -->
<g id="edge4" class="edge">
<title>Node11&#45;&gt;Node14</title>
<path fill="none" stroke="#191970" d="M62.0927,-67C100.2775,-67 165.9551,-67 214.5844,-67"/>
<polygon fill="#191970" stroke="#191970" points="214.6866,-70.5001 224.6866,-67 214.6865,-63.5001 214.6866,-70.5001"/>
</g>
<!-- Node15 -->
<g id="node5" class="node">
<title>Node15</title>
<g id="a_node5"><a xlink:href="namespacefish.html#a7f532daff6b69774cc75d40ed18aad31" target="_top" xlink:title="Calculate effective GSI, given the initial and final body lengths. . ">
<polygon fill="none" stroke="#000000" points="118,-.5 118,-19.5 169,-19.5 169,-.5 118,-.5"/>
<text text-anchor="middle" x="143.5" y="-7.5" font-family="Helvetica,sans-Serif" font-size="10.00" fill="#000000">fish::gsi</text>
</a>
</g>
</g>
<!-- Node11&#45;&gt;Node15 -->
<g id="edge5" class="edge">
<title>Node11&#45;&gt;Node15</title>
<path fill="none" stroke="#191970" d="M49.83,-57.4595C67.7576,-48.3761 94.9663,-34.5904 115.4475,-24.2133"/>
<polygon fill="#191970" stroke="#191970" points="117.2701,-27.2135 124.6086,-19.5716 114.1063,-20.9692 117.2701,-27.2135"/>
</g>
<!-- Node13&#45;&gt;Node14 -->
<g id="edge3" class="edge">
<title>Node13&#45;&gt;Node14</title>
<path fill="none" stroke="#191970" d="M189.2711,-79.4613C197.4802,-78.2885 206.1576,-77.0489 214.7297,-75.8243"/>
<polygon fill="#191970" stroke="#191970" points="215.3053,-79.2777 224.7098,-74.3986 214.3153,-72.3481 215.3053,-79.2777"/>
</g>
</g>
</svg>
