<?xml version="1.0" encoding="UTF-8" standalone="no"?>
<!DOCTYPE svg PUBLIC "-//W3C//DTD SVG 1.1//EN"
 "http://www.w3.org/Graphics/SVG/1.1/DTD/svg11.dtd">
<!-- Generated by graphviz version 2.40.1 (20161225.0304)
 -->
<!-- Title: Simulator::simulate_multi_2d_r Pages: 1 -->
<svg width="759pt" height="370pt"
 viewBox="0.00 0.00 759.00 370.00" xmlns="http://www.w3.org/2000/svg" xmlns:xlink="http://www.w3.org/1999/xlink">
<g id="graph0" class="graph" transform="scale(1 1) rotate(0) translate(4 366)">
<title>Simulator::simulate_multi_2d_r</title>
<!-- Node85 -->
<g id="node1" class="node">
<title>Node85</title>
<polygon fill="#bfbfbf" stroke="#000000" points="0,-163 0,-193 101,-193 101,-163 0,-163"/>
<text text-anchor="start" x="8" y="-181" font-family="Helvetica,sans-Serif" font-size="10.00" fill="#000000">Simulator::simulate</text>
<text text-anchor="middle" x="50.5" y="-170" font-family="Helvetica,sans-Serif" font-size="10.00" fill="#000000">_multi_2d_r</text>
</g>
<!-- Node86 -->
<g id="node2" class="node">
<title>Node86</title>
<g id="a_node2"><a xlink:href="classSimulator.html#ab21d1c6b0af00931f9a8fa5e0b6d417f" target="_top" xlink:title="Simulator::simulate\l_multi_2d">
<polygon fill="none" stroke="#000000" points="137,-185 137,-215 238,-215 238,-185 137,-185"/>
<text text-anchor="start" x="145" y="-203" font-family="Helvetica,sans-Serif" font-size="10.00" fill="#000000">Simulator::simulate</text>
<text text-anchor="middle" x="187.5" y="-192" font-family="Helvetica,sans-Serif" font-size="10.00" fill="#000000">_multi_2d</text>
</a>
</g>
</g>
<!-- Node85&#45;&gt;Node86 -->
<g id="edge1" class="edge">
<title>Node85&#45;&gt;Node86</title>
<path fill="none" stroke="#191970" d="M101.1245,-186.1295C109.4519,-187.4667 118.1582,-188.8648 126.7026,-190.2369"/>
<polygon fill="#191970" stroke="#191970" points="126.1977,-193.7006 136.6262,-191.8305 127.3077,-186.7891 126.1977,-193.7006"/>
</g>
<!-- Node103 -->
<g id="node19" class="node">
<title>Node103</title>
<g id="a_node19"><a xlink:href="simulator_8cpp.html#a2a2aec343c151304395503fd8b1d6a78" target="_top" xlink:title="tensor2array">
<polygon fill="none" stroke="#000000" points="152,-146.5 152,-165.5 223,-165.5 223,-146.5 152,-146.5"/>
<text text-anchor="middle" x="187.5" y="-153.5" font-family="Helvetica,sans-Serif" font-size="10.00" fill="#000000">tensor2array</text>
</a>
</g>
</g>
<!-- Node85&#45;&gt;Node103 -->
<g id="edge22" class="edge">
<title>Node85&#45;&gt;Node103</title>
<path fill="none" stroke="#191970" d="M101.1245,-169.8705C114.3563,-167.7457 128.545,-165.4672 141.5205,-163.3836"/>
<polygon fill="#191970" stroke="#191970" points="142.3066,-166.8023 151.6251,-161.7609 141.1967,-159.8908 142.3066,-166.8023"/>
</g>
<!-- Node87 -->
<g id="node3" class="node">
<title>Node87</title>
<g id="a_node3"><a xlink:href="classPopulation.html#a20696fa511c914e7c8837acb2a254b33" target="_top" xlink:title="Population::set_harvestProp">
<polygon fill="none" stroke="#000000" points="275.5,-266.5 275.5,-285.5 415.5,-285.5 415.5,-266.5 275.5,-266.5"/>
<text text-anchor="middle" x="345.5" y="-273.5" font-family="Helvetica,sans-Serif" font-size="10.00" fill="#000000">Population::set_harvestProp</text>
</a>
</g>
</g>
<!-- Node86&#45;&gt;Node87 -->
<g id="edge2" class="edge">
<title>Node86&#45;&gt;Node87</title>
<path fill="none" stroke="#191970" d="M206.3765,-215.0446C223.2355,-227.8244 249.0524,-245.8235 274,-257 279.3314,-259.3885 285.0255,-261.528 290.7849,-263.4317"/>
<polygon fill="#191970" stroke="#191970" points="289.9,-266.8212 300.487,-266.415 291.9574,-260.1304 289.9,-266.8212"/>
</g>
<!-- Node88 -->
<g id="node4" class="node">
<title>Node88</title>
<g id="a_node4"><a xlink:href="classPopulation.html#a343a346cae1413da400c042868c15859" target="_top" xlink:title="Population::set_minSizeLimit">
<polygon fill="none" stroke="#000000" points="274,-228.5 274,-247.5 417,-247.5 417,-228.5 274,-228.5"/>
<text text-anchor="middle" x="345.5" y="-235.5" font-family="Helvetica,sans-Serif" font-size="10.00" fill="#000000">Population::set_minSizeLimit</text>
</a>
</g>
</g>
<!-- Node86&#45;&gt;Node88 -->
<g id="edge3" class="edge">
<title>Node86&#45;&gt;Node88</title>
<path fill="none" stroke="#191970" d="M238.3619,-212.2326C256.782,-216.6628 277.5498,-221.6576 295.8632,-226.062"/>
<polygon fill="#191970" stroke="#191970" points="295.213,-229.5054 305.7542,-228.4409 296.8499,-222.6995 295.213,-229.5054"/>
</g>
<!-- Node89 -->
<g id="node5" class="node">
<title>Node89</title>
<g id="a_node5"><a xlink:href="classPopulation.html#a42c4b04852bdda937e50f82952106af1" target="_top" xlink:title="Population::fishableBiomass">
<polygon fill="none" stroke="#000000" points="453,-.5 453,-19.5 593,-19.5 593,-.5 453,-.5"/>
<text text-anchor="middle" x="523" y="-7.5" font-family="Helvetica,sans-Serif" font-size="10.00" fill="#000000">Population::fishableBiomass</text>
</a>
</g>
</g>
<!-- Node86&#45;&gt;Node89 -->
<g id="edge4" class="edge">
<title>Node86&#45;&gt;Node89</title>
<path fill="none" stroke="#191970" d="M221.0812,-184.9526C226.8766,-181.9157 232.7274,-178.5545 238,-175 255.7504,-163.0337 256.9175,-155.9019 274,-143 349.2648,-86.1546 366.7272,-67.1208 453,-29 458.3865,-26.6199 464.1411,-24.4753 469.9494,-22.5596"/>
<polygon fill="#191970" stroke="#191970" points="471.1928,-25.839 479.7197,-19.5506 469.1324,-19.1491 471.1928,-25.839"/>
</g>
<!-- Node91 -->
<g id="node7" class="node">
<title>Node91</title>
<g id="a_node7"><a xlink:href="classPopulation.html#a012ef586a78b4e7c2082634b316072d0" target="_top" xlink:title="Population::init">
<polygon fill="none" stroke="#000000" points="305,-190.5 305,-209.5 386,-209.5 386,-190.5 305,-190.5"/>
<text text-anchor="middle" x="345.5" y="-197.5" font-family="Helvetica,sans-Serif" font-size="10.00" fill="#000000">Population::init</text>
</a>
</g>
</g>
<!-- Node86&#45;&gt;Node91 -->
<g id="edge6" class="edge">
<title>Node86&#45;&gt;Node91</title>
<path fill="none" stroke="#191970" d="M238.3619,-200C256.4694,-200 276.8457,-200 294.9288,-200"/>
<polygon fill="#191970" stroke="#191970" points="294.9923,-203.5001 304.9922,-200 294.9922,-196.5001 294.9923,-203.5001"/>
</g>
<!-- Node95 -->
<g id="node11" class="node">
<title>Node95</title>
<g id="a_node11"><a xlink:href="classPopulation.html#a81c19d1c80cfb1d54d3872ecdefd0872" target="_top" xlink:title="Population::update">
<polygon fill="none" stroke="#000000" points="296.5,-152.5 296.5,-171.5 394.5,-171.5 394.5,-152.5 296.5,-152.5"/>
<text text-anchor="middle" x="345.5" y="-159.5" font-family="Helvetica,sans-Serif" font-size="10.00" fill="#000000">Population::update</text>
</a>
</g>
</g>
<!-- Node86&#45;&gt;Node95 -->
<g id="edge10" class="edge">
<title>Node86&#45;&gt;Node95</title>
<path fill="none" stroke="#191970" d="M238.3619,-187.7674C256.782,-183.3372 277.5498,-178.3424 295.8632,-173.938"/>
<polygon fill="#191970" stroke="#191970" points="296.8499,-177.3005 305.7542,-171.5591 295.213,-170.4946 296.8499,-177.3005"/>
</g>
<!-- Node90 -->
<g id="node6" class="node">
<title>Node90</title>
<g id="a_node6"><a xlink:href="classPopulation.html#ac8ed845bbda25c937a2fd76b3788e987" target="_top" xlink:title="Population::selectivity">
<polygon fill="none" stroke="#000000" points="633.5,-190.5 633.5,-209.5 746.5,-209.5 746.5,-190.5 633.5,-190.5"/>
<text text-anchor="middle" x="690" y="-197.5" font-family="Helvetica,sans-Serif" font-size="10.00" fill="#000000">Population::selectivity</text>
</a>
</g>
</g>
<!-- Node89&#45;&gt;Node90 -->
<g id="edge5" class="edge">
<title>Node89&#45;&gt;Node90</title>
<path fill="none" stroke="#191970" d="M576.3694,-19.6105C582.3242,-22.0631 588.0257,-25.14 593,-29 644.5622,-69.0114 673.2152,-144.6562 684.4148,-180.3782"/>
<polygon fill="#191970" stroke="#191970" points="681.106,-181.5295 687.3362,-190.099 687.8098,-179.5147 681.106,-181.5295"/>
</g>
<!-- Node92 -->
<g id="node8" class="node">
<title>Node92</title>
<g id="a_node8"><a xlink:href="classFish.html#adf85bf269f1651352506e371ffd2cecc" target="_top" xlink:title="Initializes the fish, i.e., initializes parameters and sets the initial state (age = 1...">
<polygon fill="none" stroke="#000000" points="496,-304.5 496,-323.5 550,-323.5 550,-304.5 496,-304.5"/>
<text text-anchor="middle" x="523" y="-311.5" font-family="Helvetica,sans-Serif" font-size="10.00" fill="#000000">Fish::init</text>
</a>
</g>
</g>
<!-- Node91&#45;&gt;Node92 -->
<g id="edge7" class="edge">
<title>Node91&#45;&gt;Node92</title>
<path fill="none" stroke="#191970" d="M386.2378,-204.467C397.1486,-207.2654 408.3122,-211.7699 417,-219 445.7286,-242.9083 424.335,-271.0155 453,-295 462.2624,-302.75 474.4093,-307.3598 485.9794,-310.0946"/>
<polygon fill="#191970" stroke="#191970" points="485.4244,-313.5524 495.9117,-312.047 486.7746,-306.6838 485.4244,-313.5524"/>
</g>
<!-- Node93 -->
<g id="node9" class="node">
<title>Node93</title>
<g id="a_node9"><a xlink:href="namespacefish.html#a0ab1c4842d702a0a40bd04f26793ce12" target="_top" xlink:title="Compute the nonlinear growth increment , as follows . ">
<polygon fill="none" stroke="#000000" points="651.5,-342.5 651.5,-361.5 728.5,-361.5 728.5,-342.5 651.5,-342.5"/>
<text text-anchor="middle" x="690" y="-349.5" font-family="Helvetica,sans-Serif" font-size="10.00" fill="#000000">fish::dl_power</text>
</a>
</g>
</g>
<!-- Node92&#45;&gt;Node93 -->
<g id="edge8" class="edge">
<title>Node92&#45;&gt;Node93</title>
<path fill="none" stroke="#191970" d="M550.2031,-320.1899C574.8653,-325.8017 611.7919,-334.2042 641.5008,-340.9643"/>
<polygon fill="#191970" stroke="#191970" points="640.7439,-344.3814 651.2712,-343.1875 642.297,-337.5559 640.7439,-344.3814"/>
</g>
<!-- Node94 -->
<g id="node10" class="node">
<title>Node94</title>
<g id="a_node10"><a xlink:href="namespacefish.html#a1d06e0358aca1be4446ed148b7ce3d84" target="_top" xlink:title="Compute the new length after growth assuming no allocation to reproduction . ">
<polygon fill="none" stroke="#000000" points="638.5,-304.5 638.5,-323.5 741.5,-323.5 741.5,-304.5 638.5,-304.5"/>
<text text-anchor="middle" x="690" y="-311.5" font-family="Helvetica,sans-Serif" font-size="10.00" fill="#000000">fish::length_juvenile</text>
</a>
</g>
</g>
<!-- Node92&#45;&gt;Node94 -->
<g id="edge9" class="edge">
<title>Node92&#45;&gt;Node94</title>
<path fill="none" stroke="#191970" d="M550.2031,-314C571.2655,-314 601.2731,-314 628.0905,-314"/>
<polygon fill="#191970" stroke="#191970" points="628.1871,-317.5001 638.1871,-314 628.187,-310.5001 628.1871,-317.5001"/>
</g>
<!-- Node95&#45;&gt;Node89 -->
<g id="edge15" class="edge">
<title>Node95&#45;&gt;Node89</title>
<path fill="none" stroke="#191970" d="M354.6929,-152.3459C368.693,-137.4786 395.9516,-107.8776 417,-81 434.3309,-58.8694 430.0436,-45.2212 453,-29 455.7253,-27.0743 458.6365,-25.3437 461.6658,-23.7884"/>
<polygon fill="#191970" stroke="#191970" points="463.3195,-26.8837 471.0407,-19.6287 460.4805,-20.4853 463.3195,-26.8837"/>
</g>
<!-- Node95&#45;&gt;Node90 -->
<g id="edge20" class="edge">
<title>Node95&#45;&gt;Node90</title>
<path fill="none" stroke="#191970" d="M393.7804,-171.5396C412.2477,-174.9234 433.5433,-178.5064 453,-181 510.2162,-188.333 575.5889,-193.3218 623.1634,-196.3407"/>
<polygon fill="#191970" stroke="#191970" points="623.14,-199.8459 633.338,-196.9735 623.5746,-192.8594 623.14,-199.8459"/>
</g>
<!-- Node95&#45;&gt;Node92 -->
<g id="edge14" class="edge">
<title>Node95&#45;&gt;Node92</title>
<path fill="none" stroke="#191970" d="M394.694,-168.0591C402.9127,-170.9234 410.7762,-175.057 417,-181 455.4275,-217.6939 414.6701,-258.2042 453,-295 461.7826,-303.431 473.9152,-308.2039 485.615,-310.8791"/>
<polygon fill="#191970" stroke="#191970" points="485.2223,-314.3655 495.6901,-312.7293 486.4867,-307.4806 485.2223,-314.3655"/>
</g>
<!-- Node96 -->
<g id="node12" class="node">
<title>Node96</title>
<g id="a_node12"><a xlink:href="classPopulation.html#ae942ef70cc9f4dfc40b5d843baf40b1e" target="_top" xlink:title="Population::calcTSB">
<polygon fill="none" stroke="#000000" points="470,-114.5 470,-133.5 576,-133.5 576,-114.5 470,-114.5"/>
<text text-anchor="middle" x="523" y="-121.5" font-family="Helvetica,sans-Serif" font-size="10.00" fill="#000000">Population::calcTSB</text>
</a>
</g>
</g>
<!-- Node95&#45;&gt;Node96 -->
<g id="edge11" class="edge">
<title>Node95&#45;&gt;Node96</title>
<path fill="none" stroke="#191970" d="M390.2907,-152.411C414.0303,-147.3287 443.3839,-141.0446 468.4437,-135.6797"/>
<polygon fill="#191970" stroke="#191970" points="469.4856,-139.036 478.5313,-133.5201 468.0202,-132.1911 469.4856,-139.036"/>
</g>
<!-- Node97 -->
<g id="node13" class="node">
<title>Node97</title>
<g id="a_node13"><a xlink:href="classPopulation.html#af15e7ba23b161c710d4013204b542cb6" target="_top" xlink:title="Population::calcSSB">
<polygon fill="none" stroke="#000000" points="469.5,-76.5 469.5,-95.5 576.5,-95.5 576.5,-76.5 469.5,-76.5"/>
<text text-anchor="middle" x="523" y="-83.5" font-family="Helvetica,sans-Serif" font-size="10.00" fill="#000000">Population::calcSSB</text>
</a>
</g>
</g>
<!-- Node95&#45;&gt;Node97 -->
<g id="edge12" class="edge">
<title>Node95&#45;&gt;Node97</title>
<path fill="none" stroke="#191970" d="M361.0007,-152.3594C381.438,-139.9855 418.8152,-118.5071 453,-105 458.9948,-102.6313 465.3909,-100.4503 471.7881,-98.4765"/>
<polygon fill="#191970" stroke="#191970" points="473.1716,-101.7184 481.7844,-95.5483 471.2037,-95.0007 473.1716,-101.7184"/>
</g>
<!-- Node98 -->
<g id="node14" class="node">
<title>Node98</title>
<g id="a_node14"><a xlink:href="classFish.html#aaa3e67187a587efc7a99485b4a6ee248" target="_top" xlink:title="Fish::set_traits">
<polygon fill="none" stroke="#000000" points="482,-38.5 482,-57.5 564,-57.5 564,-38.5 482,-38.5"/>
<text text-anchor="middle" x="523" y="-45.5" font-family="Helvetica,sans-Serif" font-size="10.00" fill="#000000">Fish::set_traits</text>
</a>
</g>
</g>
<!-- Node95&#45;&gt;Node98 -->
<g id="edge13" class="edge">
<title>Node95&#45;&gt;Node98</title>
<path fill="none" stroke="#191970" d="M353.62,-152.3142C370.2528,-133.103 410.248,-90.0454 453,-67 458.958,-63.7884 465.4999,-61.0878 472.118,-58.8252"/>
<polygon fill="#191970" stroke="#191970" points="473.2976,-62.1238 481.8095,-55.8152 471.2213,-55.4388 473.2976,-62.1238"/>
</g>
<!-- Node99 -->
<g id="node15" class="node">
<title>Node99</title>
<g id="a_node15"><a xlink:href="classPopulation.html#ad1840de2f00982c35d48b91a1d27ae13" target="_top" xlink:title="Population::effort">
<polygon fill="none" stroke="#000000" points="477.5,-228.5 477.5,-247.5 568.5,-247.5 568.5,-228.5 477.5,-228.5"/>
<text text-anchor="middle" x="523" y="-235.5" font-family="Helvetica,sans-Serif" font-size="10.00" fill="#000000">Population::effort</text>
</a>
</g>
</g>
<!-- Node95&#45;&gt;Node99 -->
<g id="edge16" class="edge">
<title>Node95&#45;&gt;Node99</title>
<path fill="none" stroke="#191970" d="M394.4155,-171.6089C402.2192,-174.0903 410.0148,-177.1763 417,-181 436.0393,-191.422 434.3402,-202.9129 453,-214 460.1454,-218.2456 468.1499,-221.8781 476.1229,-224.9362"/>
<polygon fill="#191970" stroke="#191970" points="475.1781,-228.3153 485.7727,-228.3842 477.5335,-221.7235 475.1781,-228.3153"/>
</g>
<!-- Node100 -->
<g id="node16" class="node">
<title>Node100</title>
<g id="a_node16"><a xlink:href="namespacepn.html#ad42003887dcc42a4758c69775f83a8d9" target="_top" xlink:title="pn::zero">
<polygon fill="none" stroke="#000000" points="497,-266.5 497,-285.5 549,-285.5 549,-266.5 497,-266.5"/>
<text text-anchor="middle" x="523" y="-273.5" font-family="Helvetica,sans-Serif" font-size="10.00" fill="#000000">pn::zero</text>
</a>
</g>
</g>
<!-- Node95&#45;&gt;Node100 -->
<g id="edge18" class="edge">
<title>Node95&#45;&gt;Node100</title>
<path fill="none" stroke="#191970" d="M394.7959,-169.029C402.815,-171.8062 410.5829,-175.6596 417,-181 445.7286,-204.9083 424.335,-233.0155 453,-257 462.4865,-264.9375 474.9987,-269.581 486.8182,-272.2898"/>
<polygon fill="#191970" stroke="#191970" points="486.4563,-275.7835 496.9331,-274.2064 487.7595,-268.9058 486.4563,-275.7835"/>
</g>
<!-- Node102 -->
<g id="node18" class="node">
<title>Node102</title>
<g id="a_node18"><a xlink:href="classPopulation.html#ac62fc3480d60b055cd1886649809c6a6" target="_top" xlink:title="Population::nfish">
<polygon fill="none" stroke="#000000" points="478.5,-152.5 478.5,-171.5 567.5,-171.5 567.5,-152.5 478.5,-152.5"/>
<text text-anchor="middle" x="523" y="-159.5" font-family="Helvetica,sans-Serif" font-size="10.00" fill="#000000">Population::nfish</text>
</a>
</g>
</g>
<!-- Node95&#45;&gt;Node102 -->
<g id="edge21" class="edge">
<title>Node95&#45;&gt;Node102</title>
<path fill="none" stroke="#191970" d="M394.9436,-162C417.7296,-162 444.8474,-162 468.2495,-162"/>
<polygon fill="#191970" stroke="#191970" points="468.3686,-165.5001 478.3686,-162 468.3686,-158.5001 468.3686,-165.5001"/>
</g>
<!-- Node99&#45;&gt;Node90 -->
<g id="edge17" class="edge">
<title>Node99&#45;&gt;Node90</title>
<path fill="none" stroke="#191970" d="M565.1412,-228.411C587.3771,-223.3513 614.8482,-217.1004 638.3564,-211.7512"/>
<polygon fill="#191970" stroke="#191970" points="639.1877,-215.1516 648.1619,-209.5201 637.6345,-208.3261 639.1877,-215.1516"/>
</g>
<!-- Node101 -->
<g id="node17" class="node">
<title>Node101</title>
<g id="a_node17"><a xlink:href="structpn_1_1BrentRes.html#a4fa42a440c4b9dc765ea7f0d7fd3a412" target="_top" xlink:title="pn::BrentRes::BrentRes">
<polygon fill="none" stroke="#000000" points="629,-266.5 629,-285.5 751,-285.5 751,-266.5 629,-266.5"/>
<text text-anchor="middle" x="690" y="-273.5" font-family="Helvetica,sans-Serif" font-size="10.00" fill="#000000">pn::BrentRes::BrentRes</text>
</a>
</g>
</g>
<!-- Node100&#45;&gt;Node101 -->
<g id="edge19" class="edge">
<title>Node100&#45;&gt;Node101</title>
<path fill="none" stroke="#191970" d="M549.0938,-276C567.7993,-276 593.9543,-276 618.6585,-276"/>
<polygon fill="#191970" stroke="#191970" points="618.7637,-279.5001 628.7636,-276 618.7636,-272.5001 618.7637,-279.5001"/>
</g>
</g>
</svg>
