<?xml version="1.0" encoding="UTF-8" standalone="no"?>
<!DOCTYPE svg PUBLIC "-//W3C//DTD SVG 1.1//EN"
 "http://www.w3.org/Graphics/SVG/1.1/DTD/svg11.dtd">
<!-- Generated by graphviz version 2.40.1 (20161225.0304)
 -->
<!-- Title: Tensor::accumulate Pages: 1 -->
<svg width="518pt" height="186pt"
 viewBox="0.00 0.00 518.00 186.00" xmlns="http://www.w3.org/2000/svg" xmlns:xlink="http://www.w3.org/1999/xlink">
<g id="graph0" class="graph" transform="scale(1 1) rotate(0) translate(4 182)">
<title>Tensor::accumulate</title>
<!-- Node6 -->
<g id="node1" class="node">
<title>Node6</title>
<polygon fill="#bfbfbf" stroke="#000000" points="0,-117 0,-136 103,-136 103,-117 0,-117"/>
<text text-anchor="middle" x="51.5" y="-124" font-family="Helvetica,sans-Serif" font-size="10.00" fill="#000000">Tensor::accumulate</text>
</g>
<!-- Node7 -->
<g id="node2" class="node">
<title>Node7</title>
<g id="a_node2"><a xlink:href="classTensor.html#abf7346c2dbd5e6b195cfe9b66e5049e8" target="_top" xlink:title="Tensor::max_dim">
<polygon fill="none" stroke="#000000" points="139,-136 139,-155 231,-155 231,-136 139,-136"/>
<text text-anchor="middle" x="185" y="-143" font-family="Helvetica,sans-Serif" font-size="10.00" fill="#000000">Tensor::max_dim</text>
</a>
</g>
</g>
<!-- Node6&#45;&gt;Node7 -->
<g id="edge1" class="edge">
<title>Node6&#45;&gt;Node7</title>
<path fill="none" stroke="#191970" d="M113.1417,-135.273C121.7575,-136.4992 130.4875,-137.7417 138.753,-138.918"/>
<polygon fill="#191970" stroke="#191970" points="113.508,-131.7899 103.1146,-133.8459 112.5216,-138.7201 113.508,-131.7899"/>
</g>
<!-- Node8 -->
<g id="node3" class="node">
<title>Node8</title>
<g id="a_node3"><a xlink:href="classSimulator.html#a1b66b7260ff50758884d1f7361a1b988" target="_top" xlink:title="Simulator::stakeholder\l_satisfaction">
<polygon fill="none" stroke="#000000" points="267,-147.5 267,-177.5 381,-177.5 381,-147.5 267,-147.5"/>
<text text-anchor="start" x="275" y="-165.5" font-family="Helvetica,sans-Serif" font-size="10.00" fill="#000000">Simulator::stakeholder</text>
<text text-anchor="middle" x="324" y="-154.5" font-family="Helvetica,sans-Serif" font-size="10.00" fill="#000000">_satisfaction</text>
</a>
</g>
</g>
<!-- Node6&#45;&gt;Node8 -->
<g id="edge13" class="edge">
<title>Node6&#45;&gt;Node8</title>
<path fill="none" stroke="#191970" d="M77.1497,-140.9751C94.1153,-149.6963 117.1764,-159.9657 139,-164.5 181.1408,-173.2556 229.853,-172.2972 266.7111,-169.3952"/>
<polygon fill="#191970" stroke="#191970" points="78.3939,-137.673 67.9204,-136.0742 75.1109,-143.8554 78.3939,-137.673"/>
</g>
<!-- Node10 -->
<g id="node5" class="node">
<title>Node10</title>
<g id="a_node5"><a xlink:href="classSimulator.html#aac842e5498b4c9731910ce9a93fa555d" target="_top" xlink:title="Simulator::stakeholder\l_satisfaction_2d">
<polygon fill="none" stroke="#000000" points="267,-98.5 267,-128.5 381,-128.5 381,-98.5 267,-98.5"/>
<text text-anchor="start" x="275" y="-116.5" font-family="Helvetica,sans-Serif" font-size="10.00" fill="#000000">Simulator::stakeholder</text>
<text text-anchor="middle" x="324" y="-105.5" font-family="Helvetica,sans-Serif" font-size="10.00" fill="#000000">_satisfaction_2d</text>
</a>
</g>
</g>
<!-- Node6&#45;&gt;Node10 -->
<g id="edge14" class="edge">
<title>Node6&#45;&gt;Node10</title>
<path fill="none" stroke="#191970" d="M113.2494,-123.5542C159.4004,-121.3525 222.0184,-118.3652 266.9872,-116.2199"/>
<polygon fill="#191970" stroke="#191970" points="112.8974,-120.0669 103.0755,-124.0395 113.231,-127.0589 112.8974,-120.0669"/>
</g>
<!-- Node11 -->
<g id="node6" class="node">
<title>Node11</title>
<g id="a_node6"><a xlink:href="classTensor.html#a6c8465a488ce260e6e05f1a3ceb8ab26" target="_top" xlink:title="Tensor::avg_dim">
<polygon fill="none" stroke="#000000" points="140.5,-60 140.5,-79 229.5,-79 229.5,-60 140.5,-60"/>
<text text-anchor="middle" x="185" y="-67" font-family="Helvetica,sans-Serif" font-size="10.00" fill="#000000">Tensor::avg_dim</text>
</a>
</g>
</g>
<!-- Node6&#45;&gt;Node11 -->
<g id="edge6" class="edge">
<title>Node6&#45;&gt;Node11</title>
<path fill="none" stroke="#191970" d="M83.0699,-113.0207C107.5251,-102.5792 140.8011,-88.3715 162.5822,-79.0716"/>
<polygon fill="#191970" stroke="#191970" points="81.6673,-109.8138 73.8449,-116.9595 84.4161,-116.2516 81.6673,-109.8138"/>
</g>
<!-- Node7&#45;&gt;Node8 -->
<g id="edge2" class="edge">
<title>Node7&#45;&gt;Node8</title>
<path fill="none" stroke="#191970" d="M241.3474,-152.3914C249.7328,-153.417 258.3833,-154.4749 266.7864,-155.5026"/>
<polygon fill="#191970" stroke="#191970" points="241.6359,-148.9007 231.285,-151.1608 240.7861,-155.8489 241.6359,-148.9007"/>
</g>
<!-- Node7&#45;&gt;Node10 -->
<g id="edge4" class="edge">
<title>Node7&#45;&gt;Node10</title>
<path fill="none" stroke="#191970" d="M236.1218,-133.7309C246.132,-131.4265 256.6901,-128.9958 266.8812,-126.6496"/>
<polygon fill="#191970" stroke="#191970" points="235.2881,-130.3312 226.3282,-135.9856 236.8586,-137.1528 235.2881,-130.3312"/>
</g>
<!-- Node9 -->
<g id="node4" class="node">
<title>Node9</title>
<g id="a_node4"><a xlink:href="fish__glue_8cpp.html#addebb0997b0e49067d8784c9954b7b96" target="_top" xlink:title="RCPP_MODULE">
<polygon fill="none" stroke="#000000" points="417,-79 417,-98 510,-98 510,-79 417,-79"/>
<text text-anchor="middle" x="463.5" y="-86" font-family="Helvetica,sans-Serif" font-size="10.00" fill="#000000">RCPP_MODULE</text>
</a>
</g>
</g>
<!-- Node8&#45;&gt;Node9 -->
<g id="edge3" class="edge">
<title>Node8&#45;&gt;Node9</title>
<path fill="none" stroke="#191970" d="M371.3739,-143.1858C374.6566,-141.654 377.893,-140.0849 381,-138.5 405.7659,-125.867 433.1024,-108.5939 449.2624,-98.0101"/>
<polygon fill="#191970" stroke="#191970" points="369.7428,-140.082 362.0682,-147.3862 372.6227,-146.4621 369.7428,-140.082"/>
</g>
<!-- Node10&#45;&gt;Node9 -->
<g id="edge5" class="edge">
<title>Node10&#45;&gt;Node9</title>
<path fill="none" stroke="#191970" d="M391.2613,-101.446C399.9284,-99.8928 408.6468,-98.3303 416.8803,-96.8548"/>
<polygon fill="#191970" stroke="#191970" points="390.3682,-98.0502 381.1425,-103.2594 391.6031,-104.9404 390.3682,-98.0502"/>
</g>
<!-- Node11&#45;&gt;Node8 -->
<g id="edge9" class="edge">
<title>Node11&#45;&gt;Node8</title>
<path fill="none" stroke="#191970" d="M201.737,-86.2229C217.5332,-101.3346 242.4021,-123.452 267,-138.5 272.3124,-141.7499 278.1434,-144.7591 283.9854,-147.4699"/>
<polygon fill="#191970" stroke="#191970" points="203.9596,-83.5019 194.3531,-79.0336 199.0764,-88.5173 203.9596,-83.5019"/>
</g>
<!-- Node11&#45;&gt;Node10 -->
<g id="edge12" class="edge">
<title>Node11&#45;&gt;Node10</title>
<path fill="none" stroke="#191970" d="M224.802,-82.0992C240.8941,-87.1931 259.6023,-93.1151 276.4071,-98.4346"/>
<polygon fill="#191970" stroke="#191970" points="225.751,-78.7285 215.1609,-79.0473 223.6384,-85.4021 225.751,-78.7285"/>
</g>
<!-- Node12 -->
<g id="node7" class="node">
<title>Node12</title>
<g id="a_node7"><a xlink:href="classSimulator.html#addbc3da16a6f9c352eefbdc423419bca" target="_top" xlink:title="Simulator::max_avg\l_utils">
<polygon fill="none" stroke="#000000" points="272,-49.5 272,-79.5 376,-79.5 376,-49.5 272,-49.5"/>
<text text-anchor="start" x="280" y="-67.5" font-family="Helvetica,sans-Serif" font-size="10.00" fill="#000000">Simulator::max_avg</text>
<text text-anchor="middle" x="324" y="-56.5" font-family="Helvetica,sans-Serif" font-size="10.00" fill="#000000">_utils</text>
</a>
</g>
</g>
<!-- Node11&#45;&gt;Node12 -->
<g id="edge7" class="edge">
<title>Node11&#45;&gt;Node12</title>
<path fill="none" stroke="#191970" d="M239.9708,-67.5226C250.3846,-67.148 261.254,-66.7571 271.5862,-66.3854"/>
<polygon fill="#191970" stroke="#191970" points="239.6133,-64.0331 229.7456,-67.8904 239.865,-71.0286 239.6133,-64.0331"/>
</g>
<!-- Node13 -->
<g id="node8" class="node">
<title>Node13</title>
<g id="a_node8"><a xlink:href="classSimulator.html#a32eeba843e7526dceb75a2c6aebe240e" target="_top" xlink:title="Simulator::max_avg\l_utils_2d">
<polygon fill="none" stroke="#000000" points="272,-.5 272,-30.5 376,-30.5 376,-.5 272,-.5"/>
<text text-anchor="start" x="280" y="-18.5" font-family="Helvetica,sans-Serif" font-size="10.00" fill="#000000">Simulator::max_avg</text>
<text text-anchor="middle" x="324" y="-7.5" font-family="Helvetica,sans-Serif" font-size="10.00" fill="#000000">_utils_2d</text>
</a>
</g>
</g>
<!-- Node11&#45;&gt;Node13 -->
<g id="edge10" class="edge">
<title>Node11&#45;&gt;Node13</title>
<path fill="none" stroke="#191970" d="M218.8987,-56.3307C238.9591,-48.5375 264.4403,-38.6383 285.2887,-30.5389"/>
<polygon fill="#191970" stroke="#191970" points="217.5843,-53.0864 209.5304,-59.9702 220.1192,-59.6114 217.5843,-53.0864"/>
</g>
<!-- Node12&#45;&gt;Node9 -->
<g id="edge8" class="edge">
<title>Node12&#45;&gt;Node9</title>
<path fill="none" stroke="#191970" d="M386.451,-75.2442C396.6636,-77.0013 407.0873,-78.7946 416.8333,-80.4713"/>
<polygon fill="#191970" stroke="#191970" points="386.7902,-71.7513 376.3415,-73.505 385.6033,-78.6499 386.7902,-71.7513"/>
</g>
<!-- Node13&#45;&gt;Node9 -->
<g id="edge11" class="edge">
<title>Node13&#45;&gt;Node9</title>
<path fill="none" stroke="#191970" d="M369.3931,-34.8478C373.3456,-36.7016 377.261,-38.6001 381,-40.5 405.0799,-52.7359 431.9419,-68.8499 448.281,-78.9429"/>
<polygon fill="#191970" stroke="#191970" points="370.7185,-31.6053 360.1692,-30.6237 367.8039,-37.9696 370.7185,-31.6053"/>
</g>
</g>
</svg>
