<?xml version="1.0" encoding="UTF-8" standalone="no"?>
<!DOCTYPE svg PUBLIC "-//W3C//DTD SVG 1.1//EN"
 "http://www.w3.org/Graphics/SVG/1.1/DTD/svg11.dtd">
<!-- Generated by graphviz version 2.40.1 (20161225.0304)
 -->
<!-- Title: Population::init Pages: 1 -->
<svg width="590pt" height="214pt"
 viewBox="0.00 0.00 590.00 214.00" xmlns="http://www.w3.org/2000/svg" xmlns:xlink="http://www.w3.org/1999/xlink">
<g id="graph0" class="graph" transform="scale(1 1) rotate(0) translate(4 210)">
<title>Population::init</title>
<!-- Node67 -->
<g id="node1" class="node">
<title>Node67</title>
<polygon fill="#bfbfbf" stroke="#000000" points="0,-93.5 0,-112.5 81,-112.5 81,-93.5 0,-93.5"/>
<text text-anchor="middle" x="40.5" y="-100.5" font-family="Helvetica,sans-Serif" font-size="10.00" fill="#000000">Population::init</text>
</g>
<!-- Node68 -->
<g id="node2" class="node">
<title>Node68</title>
<g id="a_node2"><a xlink:href="fish__glue_8cpp.html#ab96ae82277aa9004dc603b77512c7265" target="_top" xlink:title="RCPP_MODULE">
<polygon fill="none" stroke="#000000" points="335.5,-186.5 335.5,-205.5 428.5,-205.5 428.5,-186.5 335.5,-186.5"/>
<text text-anchor="middle" x="382" y="-193.5" font-family="Helvetica,sans-Serif" font-size="10.00" fill="#000000">RCPP_MODULE</text>
</a>
</g>
</g>
<!-- Node67&#45;&gt;Node68 -->
<g id="edge1" class="edge">
<title>Node67&#45;&gt;Node68</title>
<path fill="none" stroke="#191970" d="M54.1273,-120.2217C68.0341,-136.4069 91.1911,-159.7718 117,-171 188.4015,-202.0632 280.6159,-203.0654 335.3117,-200.1215"/>
<polygon fill="#191970" stroke="#191970" points="56.812,-117.976 47.7331,-112.5147 51.4247,-122.4456 56.812,-117.976"/>
</g>
<!-- Node69 -->
<g id="node3" class="node">
<title>Node69</title>
<g id="a_node3"><a xlink:href="classPopulation.html#aa7eba257f23cbc12aa3673ce012fb2cb" target="_top" xlink:title="Population::noFishingEquilibriate">
<polygon fill="none" stroke="#000000" points="117,-142.5 117,-161.5 275,-161.5 275,-142.5 117,-142.5"/>
<text text-anchor="middle" x="196" y="-149.5" font-family="Helvetica,sans-Serif" font-size="10.00" fill="#000000">Population::noFishingEquilibriate</text>
</a>
</g>
</g>
<!-- Node67&#45;&gt;Node69 -->
<g id="edge2" class="edge">
<title>Node67&#45;&gt;Node69</title>
<path fill="none" stroke="#191970" d="M78.9868,-115.7513C91.1313,-119.7282 104.6111,-124.0943 117,-128 132.4482,-132.8702 149.6508,-138.1171 164.0492,-142.4592"/>
<polygon fill="#191970" stroke="#191970" points="79.7457,-112.3167 69.1528,-112.5209 77.561,-118.967 79.7457,-112.3167"/>
</g>
<!-- Node72 -->
<g id="node6" class="node">
<title>Node72</title>
<g id="a_node6"><a xlink:href="classSimulator.html#a7540919b97662be7deacba9194c0ed60" target="_top" xlink:title="Simulator::simulate\l_multi">
<polygon fill="none" stroke="#000000" points="145.5,-88 145.5,-118 246.5,-118 246.5,-88 145.5,-88"/>
<text text-anchor="start" x="153.5" y="-106" font-family="Helvetica,sans-Serif" font-size="10.00" fill="#000000">Simulator::simulate</text>
<text text-anchor="middle" x="196" y="-95" font-family="Helvetica,sans-Serif" font-size="10.00" fill="#000000">_multi</text>
</a>
</g>
</g>
<!-- Node67&#45;&gt;Node72 -->
<g id="edge6" class="edge">
<title>Node67&#45;&gt;Node72</title>
<path fill="none" stroke="#191970" d="M91.7964,-103C109.0306,-103 128.2335,-103 145.4129,-103"/>
<polygon fill="#191970" stroke="#191970" points="91.3558,-99.5001 81.3558,-103 91.3558,-106.5001 91.3558,-99.5001"/>
</g>
<!-- Node74 -->
<g id="node8" class="node">
<title>Node74</title>
<g id="a_node8"><a xlink:href="classSimulator.html#ab21d1c6b0af00931f9a8fa5e0b6d417f" target="_top" xlink:title="Simulator::simulate\l_multi_2d">
<polygon fill="none" stroke="#000000" points="145.5,-39 145.5,-69 246.5,-69 246.5,-39 145.5,-39"/>
<text text-anchor="start" x="153.5" y="-57" font-family="Helvetica,sans-Serif" font-size="10.00" fill="#000000">Simulator::simulate</text>
<text text-anchor="middle" x="196" y="-46" font-family="Helvetica,sans-Serif" font-size="10.00" fill="#000000">_multi_2d</text>
</a>
</g>
</g>
<!-- Node67&#45;&gt;Node74 -->
<g id="edge9" class="edge">
<title>Node67&#45;&gt;Node74</title>
<path fill="none" stroke="#191970" d="M80.5852,-90.3687C101.2547,-83.8554 126.607,-75.8666 148.2807,-69.037"/>
<polygon fill="#191970" stroke="#191970" points="79.3369,-87.0923 70.8511,-93.436 81.4407,-93.7687 79.3369,-87.0923"/>
</g>
<!-- Node76 -->
<g id="node10" class="node">
<title>Node76</title>
<g id="a_node10"><a xlink:href="classSimulator.html#aa6e6cfd73fd8d3200e7f515b473e88f2" target="_top" xlink:title="Simulator::simulate_r">
<polygon fill="none" stroke="#000000" points="141.5,-.5 141.5,-19.5 250.5,-19.5 250.5,-.5 141.5,-.5"/>
<text text-anchor="middle" x="196" y="-7.5" font-family="Helvetica,sans-Serif" font-size="10.00" fill="#000000">Simulator::simulate_r</text>
</a>
</g>
</g>
<!-- Node67&#45;&gt;Node76 -->
<g id="edge12" class="edge">
<title>Node67&#45;&gt;Node76</title>
<path fill="none" stroke="#191970" d="M53.9719,-85.3498C67.9052,-68.3439 91.2111,-43.1692 117,-29 124.5416,-24.8564 132.9745,-21.6088 141.4459,-19.0653"/>
<polygon fill="#191970" stroke="#191970" points="51.0585,-83.3903 47.5765,-93.3966 56.5385,-87.7457 51.0585,-83.3903"/>
</g>
<!-- Node69&#45;&gt;Node68 -->
<g id="edge3" class="edge">
<title>Node69&#45;&gt;Node68</title>
<path fill="none" stroke="#191970" d="M246.205,-163.8764C276.1669,-170.9642 313.7075,-179.8448 341.7195,-186.4713"/>
<polygon fill="#191970" stroke="#191970" points="246.8964,-160.4435 236.3592,-161.5473 245.2849,-167.2555 246.8964,-160.4435"/>
</g>
<!-- Node70 -->
<g id="node4" class="node">
<title>Node70</title>
<g id="a_node4"><a xlink:href="classSimulator.html#a3dfce52c0bb26ec7ff2632b1eca50240" target="_top" xlink:title="Simulator::equilibriateNatural\lPopulation">
<polygon fill="none" stroke="#000000" points="311,-137 311,-167 453,-167 453,-137 311,-137"/>
<text text-anchor="start" x="319" y="-155" font-family="Helvetica,sans-Serif" font-size="10.00" fill="#000000">Simulator::equilibriateNatural</text>
<text text-anchor="middle" x="382" y="-144" font-family="Helvetica,sans-Serif" font-size="10.00" fill="#000000">Population</text>
</a>
</g>
</g>
<!-- Node69&#45;&gt;Node70 -->
<g id="edge4" class="edge">
<title>Node69&#45;&gt;Node70</title>
<path fill="none" stroke="#191970" d="M285.2169,-152C293.8241,-152 302.4746,-152 310.8728,-152"/>
<polygon fill="#191970" stroke="#191970" points="285.1505,-148.5001 275.1504,-152 285.1504,-155.5001 285.1505,-148.5001"/>
</g>
<!-- Node71 -->
<g id="node5" class="node">
<title>Node71</title>
<g id="a_node5"><a xlink:href="fish__glue_8cpp.html#addebb0997b0e49067d8784c9954b7b96" target="_top" xlink:title="RCPP_MODULE">
<polygon fill="none" stroke="#000000" points="489,-68.5 489,-87.5 582,-87.5 582,-68.5 489,-68.5"/>
<text text-anchor="middle" x="535.5" y="-75.5" font-family="Helvetica,sans-Serif" font-size="10.00" fill="#000000">RCPP_MODULE</text>
</a>
</g>
</g>
<!-- Node70&#45;&gt;Node71 -->
<g id="edge5" class="edge">
<title>Node70&#45;&gt;Node71</title>
<path fill="none" stroke="#191970" d="M440.485,-133.3837C444.7638,-131.6712 448.9759,-129.872 453,-128 478.3596,-116.2029 505.7409,-98.5197 521.7144,-87.6502"/>
<polygon fill="#191970" stroke="#191970" points="439.1487,-130.1475 431.059,-136.9892 441.6495,-136.6856 439.1487,-130.1475"/>
</g>
<!-- Node73 -->
<g id="node7" class="node">
<title>Node73</title>
<g id="a_node7"><a xlink:href="classSimulator.html#a1a5454ee4736819d709398b225d7876d" target="_top" xlink:title="Simulator::simulate\l_multi_r">
<polygon fill="none" stroke="#000000" points="331.5,-88 331.5,-118 432.5,-118 432.5,-88 331.5,-88"/>
<text text-anchor="start" x="339.5" y="-106" font-family="Helvetica,sans-Serif" font-size="10.00" fill="#000000">Simulator::simulate</text>
<text text-anchor="middle" x="382" y="-95" font-family="Helvetica,sans-Serif" font-size="10.00" fill="#000000">_multi_r</text>
</a>
</g>
</g>
<!-- Node72&#45;&gt;Node73 -->
<g id="edge7" class="edge">
<title>Node72&#45;&gt;Node73</title>
<path fill="none" stroke="#191970" d="M256.9114,-103C280.9637,-103 308.2797,-103 331.2361,-103"/>
<polygon fill="#191970" stroke="#191970" points="256.8254,-99.5001 246.8253,-103 256.8253,-106.5001 256.8254,-99.5001"/>
</g>
<!-- Node73&#45;&gt;Node71 -->
<g id="edge8" class="edge">
<title>Node73&#45;&gt;Node71</title>
<path fill="none" stroke="#191970" d="M442.6161,-93.1277C457.9646,-90.6279 474.2148,-87.9813 488.7586,-85.6126"/>
<polygon fill="#191970" stroke="#191970" points="441.9944,-89.6827 432.6871,-94.7448 443.1197,-96.5917 441.9944,-89.6827"/>
</g>
<!-- Node75 -->
<g id="node9" class="node">
<title>Node75</title>
<g id="a_node9"><a xlink:href="classSimulator.html#af1b0a9562ecf0ad8f98d61576efba28b" target="_top" xlink:title="Simulator::simulate\l_multi_2d_r">
<polygon fill="none" stroke="#000000" points="331.5,-39 331.5,-69 432.5,-69 432.5,-39 331.5,-39"/>
<text text-anchor="start" x="339.5" y="-57" font-family="Helvetica,sans-Serif" font-size="10.00" fill="#000000">Simulator::simulate</text>
<text text-anchor="middle" x="382" y="-46" font-family="Helvetica,sans-Serif" font-size="10.00" fill="#000000">_multi_2d_r</text>
</a>
</g>
</g>
<!-- Node74&#45;&gt;Node75 -->
<g id="edge10" class="edge">
<title>Node74&#45;&gt;Node75</title>
<path fill="none" stroke="#191970" d="M256.9114,-54C280.9637,-54 308.2797,-54 331.2361,-54"/>
<polygon fill="#191970" stroke="#191970" points="256.8254,-50.5001 246.8253,-54 256.8253,-57.5001 256.8254,-50.5001"/>
</g>
<!-- Node75&#45;&gt;Node71 -->
<g id="edge11" class="edge">
<title>Node75&#45;&gt;Node71</title>
<path fill="none" stroke="#191970" d="M442.6161,-63.4774C457.9646,-65.8772 474.2148,-68.4179 488.7586,-70.6919"/>
<polygon fill="#191970" stroke="#191970" points="443.1077,-60.0119 432.6871,-61.925 442.0263,-66.9278 443.1077,-60.0119"/>
</g>
<!-- Node76&#45;&gt;Node71 -->
<g id="edge13" class="edge">
<title>Node76&#45;&gt;Node71</title>
<path fill="none" stroke="#191970" d="M260.7698,-6.6811C313.6824,-5.8739 389.7852,-9.1073 453,-29 480.3317,-37.6009 508.1783,-56.7637 523.5099,-68.4133"/>
<polygon fill="#191970" stroke="#191970" points="260.4328,-3.1872 250.5071,-6.8927 260.5772,-10.1858 260.4328,-3.1872"/>
</g>
</g>
</svg>
