<?xml version="1.0" encoding="UTF-8" standalone="no"?>
<!DOCTYPE svg PUBLIC "-//W3C//DTD SVG 1.1//EN"
 "http://www.w3.org/Graphics/SVG/1.1/DTD/svg11.dtd">
<!-- Generated by graphviz version 2.40.1 (20161225.0304)
 -->
<!-- Title: Population::set_minSizeLimit Pages: 1 -->
<svg width="425pt" height="116pt"
 viewBox="0.00 0.00 425.00 116.00" xmlns="http://www.w3.org/2000/svg" xmlns:xlink="http://www.w3.org/1999/xlink">
<g id="graph0" class="graph" transform="scale(1 1) rotate(0) translate(4 112)">
<title>Population::set_minSizeLimit</title>
<!-- Node54 -->
<g id="node1" class="node">
<title>Node54</title>
<polygon fill="#bfbfbf" stroke="#000000" points="0,-44.5 0,-63.5 143,-63.5 143,-44.5 0,-44.5"/>
<text text-anchor="middle" x="71.5" y="-51.5" font-family="Helvetica,sans-Serif" font-size="10.00" fill="#000000">Population::set_minSizeLimit</text>
</g>
<!-- Node55 -->
<g id="node2" class="node">
<title>Node55</title>
<g id="a_node2"><a xlink:href="fish__glue_8cpp.html#ab96ae82277aa9004dc603b77512c7265" target="_top" xlink:title="RCPP_MODULE">
<polygon fill="none" stroke="#000000" points="187,-88.5 187,-107.5 280,-107.5 280,-88.5 187,-88.5"/>
<text text-anchor="middle" x="233.5" y="-95.5" font-family="Helvetica,sans-Serif" font-size="10.00" fill="#000000">RCPP_MODULE</text>
</a>
</g>
</g>
<!-- Node54&#45;&gt;Node55 -->
<g id="edge1" class="edge">
<title>Node54&#45;&gt;Node55</title>
<path fill="none" stroke="#191970" d="M116.5943,-66.2478C142.4575,-73.2724 174.4438,-81.96 198.417,-88.4713"/>
<polygon fill="#191970" stroke="#191970" points="117.2194,-62.7909 106.6516,-63.5473 115.3846,-69.5461 117.2194,-62.7909"/>
</g>
<!-- Node56 -->
<g id="node3" class="node">
<title>Node56</title>
<g id="a_node3"><a xlink:href="classSimulator.html#a636e7a83b462c3e48769a85ae350e742" target="_top" xlink:title="Simulator::simulate\l_multi_2d">
<polygon fill="none" stroke="#000000" points="183,-39 183,-69 284,-69 284,-39 183,-39"/>
<text text-anchor="start" x="191" y="-57" font-family="Helvetica,sans-Serif" font-size="10.00" fill="#000000">Simulator::simulate</text>
<text text-anchor="middle" x="233.5" y="-46" font-family="Helvetica,sans-Serif" font-size="10.00" fill="#000000">_multi_2d</text>
</a>
</g>
</g>
<!-- Node54&#45;&gt;Node56 -->
<g id="edge2" class="edge">
<title>Node54&#45;&gt;Node56</title>
<path fill="none" stroke="#191970" d="M153.1136,-54C163.2192,-54 173.3121,-54 182.763,-54"/>
<polygon fill="#191970" stroke="#191970" points="153.0272,-50.5001 143.0271,-54 153.0271,-57.5001 153.0272,-50.5001"/>
</g>
<!-- Node58 -->
<g id="node5" class="node">
<title>Node58</title>
<g id="a_node5"><a xlink:href="classSimulator.html#a16eef6e60e97dabc2a1205b58b10182c" target="_top" xlink:title="Simulator::simulate_r">
<polygon fill="none" stroke="#000000" points="179,-.5 179,-19.5 288,-19.5 288,-.5 179,-.5"/>
<text text-anchor="middle" x="233.5" y="-7.5" font-family="Helvetica,sans-Serif" font-size="10.00" fill="#000000">Simulator::simulate_r</text>
</a>
</g>
</g>
<!-- Node54&#45;&gt;Node58 -->
<g id="edge4" class="edge">
<title>Node54&#45;&gt;Node58</title>
<path fill="none" stroke="#191970" d="M116.5943,-41.7522C142.4575,-34.7276 174.4438,-26.04 198.417,-19.5287"/>
<polygon fill="#191970" stroke="#191970" points="115.3846,-38.4539 106.6516,-44.4527 117.2194,-45.2091 115.3846,-38.4539"/>
</g>
<!-- Node57 -->
<g id="node4" class="node">
<title>Node57</title>
<g id="a_node4"><a xlink:href="fish__glue_8cpp.html#addebb0997b0e49067d8784c9954b7b96" target="_top" xlink:title="RCPP_MODULE">
<polygon fill="none" stroke="#000000" points="324,-22.5 324,-41.5 417,-41.5 417,-22.5 324,-22.5"/>
<text text-anchor="middle" x="370.5" y="-29.5" font-family="Helvetica,sans-Serif" font-size="10.00" fill="#000000">RCPP_MODULE</text>
</a>
</g>
</g>
<!-- Node56&#45;&gt;Node57 -->
<g id="edge3" class="edge">
<title>Node56&#45;&gt;Node57</title>
<path fill="none" stroke="#191970" d="M294.2947,-44.2373C304.1625,-42.6527 314.2464,-41.0334 323.7131,-39.5132"/>
<polygon fill="#191970" stroke="#191970" points="293.443,-40.8292 284.1245,-45.8705 294.553,-47.7406 293.443,-40.8292"/>
</g>
<!-- Node58&#45;&gt;Node57 -->
<g id="edge5" class="edge">
<title>Node58&#45;&gt;Node57</title>
<path fill="none" stroke="#191970" d="M298.0912,-20.3723C306.714,-21.757 315.4196,-23.155 323.6593,-24.4781"/>
<polygon fill="#191970" stroke="#191970" points="298.4681,-16.8881 288.0397,-18.7582 297.3582,-23.7995 298.4681,-16.8881"/>
</g>
</g>
</svg>
