<?xml version="1.0" encoding="UTF-8" standalone="no"?>
<!DOCTYPE svg PUBLIC "-//W3C//DTD SVG 1.1//EN"
 "http://www.w3.org/Graphics/SVG/1.1/DTD/svg11.dtd">
<!-- Generated by graphviz version 2.40.1 (20161225.0304)
 -->
<!-- Title: io::Initializer::parse Pages: 1 -->
<svg width="398pt" height="66pt"
 viewBox="0.00 0.00 398.00 66.00" xmlns="http://www.w3.org/2000/svg" xmlns:xlink="http://www.w3.org/1999/xlink">
<g id="graph0" class="graph" transform="scale(1 1) rotate(0) translate(4 62)">
<title>io::Initializer::parse</title>
<!-- Node29 -->
<g id="node1" class="node">
<title>Node29</title>
<polygon fill="#bfbfbf" stroke="#000000" points="0,-19.5 0,-38.5 99,-38.5 99,-19.5 0,-19.5"/>
<text text-anchor="middle" x="49.5" y="-26.5" font-family="Helvetica,sans-Serif" font-size="10.00" fill="#000000">io::Initializer::parse</text>
</g>
<!-- Node30 -->
<g id="node2" class="node">
<title>Node30</title>
<g id="a_node2"><a xlink:href="classio_1_1Initializer.html#ae0f4fbd39e7e1641612b39fb775d2400" target="_top" xlink:title="io::Initializer::parse">
<polygon fill="none" stroke="#000000" points="148.5,-38.5 148.5,-57.5 247.5,-57.5 247.5,-38.5 148.5,-38.5"/>
<text text-anchor="middle" x="198" y="-45.5" font-family="Helvetica,sans-Serif" font-size="10.00" fill="#000000">io::Initializer::parse</text>
</a>
</g>
</g>
<!-- Node29&#45;&gt;Node30 -->
<g id="edge1" class="edge">
<title>Node29&#45;&gt;Node30</title>
<path fill="none" stroke="#191970" d="M109.5214,-36.6795C122.3869,-38.3256 135.8445,-40.0474 148.2701,-41.6373"/>
<polygon fill="#191970" stroke="#191970" points="109.7248,-33.1771 99.3615,-35.3796 108.8364,-40.1205 109.7248,-33.1771"/>
</g>
<!-- Node31 -->
<g id="node3" class="node">
<title>Node31</title>
<g id="a_node3"><a xlink:href="classFishParams.html#a6a7122ea93777817165dfb09c1d840ac" target="_top" xlink:title="FishParams::initFromFile">
<polygon fill="none" stroke="#000000" points="135,-.5 135,-19.5 261,-19.5 261,-.5 135,-.5"/>
<text text-anchor="middle" x="198" y="-7.5" font-family="Helvetica,sans-Serif" font-size="10.00" fill="#000000">FishParams::initFromFile</text>
</a>
</g>
</g>
<!-- Node29&#45;&gt;Node31 -->
<g id="edge2" class="edge">
<title>Node29&#45;&gt;Node31</title>
<path fill="none" stroke="#191970" d="M109.411,-21.3346C117.7772,-20.2642 126.3958,-19.1615 134.8199,-18.0836"/>
<polygon fill="#191970" stroke="#191970" points="108.8364,-17.8795 99.3615,-22.6204 109.7248,-24.8229 108.8364,-17.8795"/>
</g>
<!-- Node32 -->
<g id="node4" class="node">
<title>Node32</title>
<g id="a_node4"><a xlink:href="fish__glue_8cpp.html#a7b6a9b6d94c71377c935b2cfbffdfabc" target="_top" xlink:title="RCPP_MODULE">
<polygon fill="none" stroke="#000000" points="297,-.5 297,-19.5 390,-19.5 390,-.5 297,-.5"/>
<text text-anchor="middle" x="343.5" y="-7.5" font-family="Helvetica,sans-Serif" font-size="10.00" fill="#000000">RCPP_MODULE</text>
</a>
</g>
</g>
<!-- Node31&#45;&gt;Node32 -->
<g id="edge3" class="edge">
<title>Node31&#45;&gt;Node32</title>
<path fill="none" stroke="#191970" d="M271.527,-10C280.177,-10 288.8124,-10 296.9439,-10"/>
<polygon fill="#191970" stroke="#191970" points="271.3952,-6.5001 261.3952,-10 271.3951,-13.5001 271.3952,-6.5001"/>
</g>
</g>
</svg>
