<?xml version="1.0" encoding="UTF-8" standalone="no"?>
<!DOCTYPE svg PUBLIC "-//W3C//DTD SVG 1.1//EN"
 "http://www.w3.org/Graphics/SVG/1.1/DTD/svg11.dtd">
<!-- Generated by graphviz version 2.40.1 (20161225.0304)
 -->
<!-- Title: Simulator::equilibriateNaturalPopulation Pages: 1 -->
<svg width="854pt" height="351pt"
 viewBox="0.00 0.00 854.00 351.00" xmlns="http://www.w3.org/2000/svg" xmlns:xlink="http://www.w3.org/1999/xlink">
<g id="graph0" class="graph" transform="scale(1 1) rotate(0) translate(4 347)">
<title>Simulator::equilibriateNaturalPopulation</title>
<!-- Node2 -->
<g id="node1" class="node">
<title>Node2</title>
<polygon fill="#bfbfbf" stroke="#000000" points="0,-270 0,-300 142,-300 142,-270 0,-270"/>
<text text-anchor="start" x="8" y="-288" font-family="Helvetica,sans-Serif" font-size="10.00" fill="#000000">Simulator::equilibriateNatural</text>
<text text-anchor="middle" x="71" y="-277" font-family="Helvetica,sans-Serif" font-size="10.00" fill="#000000">Population</text>
</g>
<!-- Node3 -->
<g id="node2" class="node">
<title>Node3</title>
<g id="a_node2"><a xlink:href="classPopulation.html#ae8a6455aa45e65bf8bd41312f9caa328" target="_top" xlink:title="Population::set_superFishSize">
<polygon fill="none" stroke="#000000" points="182.5,-294.5 182.5,-313.5 331.5,-313.5 331.5,-294.5 182.5,-294.5"/>
<text text-anchor="middle" x="257" y="-301.5" font-family="Helvetica,sans-Serif" font-size="10.00" fill="#000000">Population::set_superFishSize</text>
</a>
</g>
</g>
<!-- Node2&#45;&gt;Node3 -->
<g id="edge1" class="edge">
<title>Node2&#45;&gt;Node3</title>
<path fill="none" stroke="#191970" d="M142.1148,-292.2644C151.9601,-293.2701 162.1524,-294.3113 172.2154,-295.3392"/>
<polygon fill="#191970" stroke="#191970" points="171.9137,-298.8265 182.2176,-296.3609 172.6251,-291.8628 171.9137,-298.8265"/>
</g>
<!-- Node4 -->
<g id="node3" class="node">
<title>Node4</title>
<g id="a_node3"><a xlink:href="classPopulation.html#aa7eba257f23cbc12aa3673ce012fb2cb" target="_top" xlink:title="Population::noFishingEquilibriate">
<polygon fill="none" stroke="#000000" points="178,-256.5 178,-275.5 336,-275.5 336,-256.5 178,-256.5"/>
<text text-anchor="middle" x="257" y="-263.5" font-family="Helvetica,sans-Serif" font-size="10.00" fill="#000000">Population::noFishingEquilibriate</text>
</a>
</g>
</g>
<!-- Node2&#45;&gt;Node4 -->
<g id="edge2" class="edge">
<title>Node2&#45;&gt;Node4</title>
<path fill="none" stroke="#191970" d="M142.1148,-277.7356C150.5179,-276.8772 159.1738,-275.993 167.7863,-275.1132"/>
<polygon fill="#191970" stroke="#191970" points="168.2665,-278.5825 177.859,-274.0843 167.5551,-271.6187 168.2665,-278.5825"/>
</g>
<!-- Node5 -->
<g id="node4" class="node">
<title>Node5</title>
<g id="a_node4"><a xlink:href="classPopulation.html#a20696fa511c914e7c8837acb2a254b33" target="_top" xlink:title="Population::set_harvestProp">
<polygon fill="none" stroke="#000000" points="372,-294.5 372,-313.5 512,-313.5 512,-294.5 372,-294.5"/>
<text text-anchor="middle" x="442" y="-301.5" font-family="Helvetica,sans-Serif" font-size="10.00" fill="#000000">Population::set_harvestProp</text>
</a>
</g>
</g>
<!-- Node4&#45;&gt;Node5 -->
<g id="edge3" class="edge">
<title>Node4&#45;&gt;Node5</title>
<path fill="none" stroke="#191970" d="M303.6833,-275.589C328.6459,-280.7165 359.5642,-287.0672 385.834,-292.4632"/>
<polygon fill="#191970" stroke="#191970" points="385.1526,-295.8962 395.6524,-294.4799 386.5611,-289.0394 385.1526,-295.8962"/>
</g>
<!-- Node6 -->
<g id="node5" class="node">
<title>Node6</title>
<g id="a_node5"><a xlink:href="classPopulation.html#a012ef586a78b4e7c2082634b316072d0" target="_top" xlink:title="Population::init">
<polygon fill="none" stroke="#000000" points="401.5,-256.5 401.5,-275.5 482.5,-275.5 482.5,-256.5 401.5,-256.5"/>
<text text-anchor="middle" x="442" y="-263.5" font-family="Helvetica,sans-Serif" font-size="10.00" fill="#000000">Population::init</text>
</a>
</g>
</g>
<!-- Node4&#45;&gt;Node6 -->
<g id="edge4" class="edge">
<title>Node4&#45;&gt;Node6</title>
<path fill="none" stroke="#191970" d="M336.2617,-266C354.8599,-266 374.1871,-266 391.1518,-266"/>
<polygon fill="#191970" stroke="#191970" points="391.3818,-269.5001 401.3817,-266 391.3817,-262.5001 391.3818,-269.5001"/>
</g>
<!-- Node10 -->
<g id="node9" class="node">
<title>Node10</title>
<g id="a_node9"><a xlink:href="classPopulation.html#a81c19d1c80cfb1d54d3872ecdefd0872" target="_top" xlink:title="Population::update">
<polygon fill="none" stroke="#000000" points="393,-171.5 393,-190.5 491,-190.5 491,-171.5 393,-171.5"/>
<text text-anchor="middle" x="442" y="-178.5" font-family="Helvetica,sans-Serif" font-size="10.00" fill="#000000">Population::update</text>
</a>
</g>
</g>
<!-- Node4&#45;&gt;Node10 -->
<g id="edge8" class="edge">
<title>Node4&#45;&gt;Node10</title>
<path fill="none" stroke="#191970" d="M277.8622,-256.4146C310.565,-241.389 374.0491,-212.2207 411.7616,-194.8933"/>
<polygon fill="#191970" stroke="#191970" points="413.5885,-197.9058 421.214,-190.5503 410.666,-191.545 413.5885,-197.9058"/>
</g>
<!-- Node7 -->
<g id="node6" class="node">
<title>Node7</title>
<g id="a_node6"><a xlink:href="classFish.html#adf85bf269f1651352506e371ffd2cecc" target="_top" xlink:title="Initializes the fish, i.e., initializes parameters and sets the initial state (age = 1...">
<polygon fill="none" stroke="#000000" points="591,-304.5 591,-323.5 645,-323.5 645,-304.5 591,-304.5"/>
<text text-anchor="middle" x="618" y="-311.5" font-family="Helvetica,sans-Serif" font-size="10.00" fill="#000000">Fish::init</text>
</a>
</g>
</g>
<!-- Node6&#45;&gt;Node7 -->
<g id="edge5" class="edge">
<title>Node6&#45;&gt;Node7</title>
<path fill="none" stroke="#191970" d="M477.2628,-275.5278C488.381,-278.5435 500.707,-281.8989 512,-285 528.0131,-289.3972 531.9869,-290.6028 548,-295 558.6744,-297.9312 570.2719,-301.0897 580.8998,-303.9737"/>
<polygon fill="#191970" stroke="#191970" points="580.1632,-307.4003 590.7306,-306.6384 581.9946,-300.6441 580.1632,-307.4003"/>
</g>
<!-- Node8 -->
<g id="node7" class="node">
<title>Node8</title>
<g id="a_node7"><a xlink:href="namespacefish.html#a0ab1c4842d702a0a40bd04f26793ce12" target="_top" xlink:title="Compute the nonlinear growth increment , as follows . ">
<polygon fill="none" stroke="#000000" points="746.5,-323.5 746.5,-342.5 823.5,-342.5 823.5,-323.5 746.5,-323.5"/>
<text text-anchor="middle" x="785" y="-330.5" font-family="Helvetica,sans-Serif" font-size="10.00" fill="#000000">fish::dl_power</text>
</a>
</g>
</g>
<!-- Node7&#45;&gt;Node8 -->
<g id="edge6" class="edge">
<title>Node7&#45;&gt;Node8</title>
<path fill="none" stroke="#191970" d="M645.2031,-317.095C669.7581,-319.8886 706.4711,-324.0656 736.1129,-327.438"/>
<polygon fill="#191970" stroke="#191970" points="735.9396,-330.9408 746.2712,-328.5937 736.731,-323.9856 735.9396,-330.9408"/>
</g>
<!-- Node9 -->
<g id="node8" class="node">
<title>Node9</title>
<g id="a_node8"><a xlink:href="namespacefish.html#a1d06e0358aca1be4446ed148b7ce3d84" target="_top" xlink:title="Compute the new length after growth assuming no allocation to reproduction . ">
<polygon fill="none" stroke="#000000" points="733.5,-285.5 733.5,-304.5 836.5,-304.5 836.5,-285.5 733.5,-285.5"/>
<text text-anchor="middle" x="785" y="-292.5" font-family="Helvetica,sans-Serif" font-size="10.00" fill="#000000">fish::length_juvenile</text>
</a>
</g>
</g>
<!-- Node7&#45;&gt;Node9 -->
<g id="edge7" class="edge">
<title>Node7&#45;&gt;Node9</title>
<path fill="none" stroke="#191970" d="M645.2031,-310.905C666.2655,-308.5087 696.2731,-305.0947 723.0905,-302.0436"/>
<polygon fill="#191970" stroke="#191970" points="723.6468,-305.503 733.1871,-300.8949 722.8555,-298.5478 723.6468,-305.503"/>
</g>
<!-- Node10&#45;&gt;Node7 -->
<g id="edge12" class="edge">
<title>Node10&#45;&gt;Node7</title>
<path fill="none" stroke="#191970" d="M453.4817,-190.7346C467.8401,-203.1469 492.8598,-225.5758 512,-247 529.7663,-266.8864 525.9335,-280.0273 548,-295 557.7331,-301.6042 569.6826,-305.9185 580.9354,-308.7347"/>
<polygon fill="#191970" stroke="#191970" points="580.4746,-312.2163 590.9902,-310.9226 581.963,-305.3764 580.4746,-312.2163"/>
</g>
<!-- Node11 -->
<g id="node10" class="node">
<title>Node11</title>
<g id="a_node10"><a xlink:href="classPopulation.html#ae942ef70cc9f4dfc40b5d843baf40b1e" target="_top" xlink:title="Population::calcTSB">
<polygon fill="none" stroke="#000000" points="565,-266.5 565,-285.5 671,-285.5 671,-266.5 565,-266.5"/>
<text text-anchor="middle" x="618" y="-273.5" font-family="Helvetica,sans-Serif" font-size="10.00" fill="#000000">Population::calcTSB</text>
</a>
</g>
</g>
<!-- Node10&#45;&gt;Node11 -->
<g id="edge9" class="edge">
<title>Node10&#45;&gt;Node11</title>
<path fill="none" stroke="#191970" d="M452.615,-190.6269C470.8224,-206.6519 509.7528,-238.8284 548,-257 552.9761,-259.3642 558.2959,-261.4753 563.6965,-263.3506"/>
<polygon fill="#191970" stroke="#191970" points="562.857,-266.7569 573.4481,-266.4755 564.9932,-260.0908 562.857,-266.7569"/>
</g>
<!-- Node12 -->
<g id="node11" class="node">
<title>Node12</title>
<g id="a_node11"><a xlink:href="classPopulation.html#af15e7ba23b161c710d4013204b542cb6" target="_top" xlink:title="Population::calcSSB">
<polygon fill="none" stroke="#000000" points="564.5,-228.5 564.5,-247.5 671.5,-247.5 671.5,-228.5 564.5,-228.5"/>
<text text-anchor="middle" x="618" y="-235.5" font-family="Helvetica,sans-Serif" font-size="10.00" fill="#000000">Population::calcSSB</text>
</a>
</g>
</g>
<!-- Node10&#45;&gt;Node12 -->
<g id="edge10" class="edge">
<title>Node10&#45;&gt;Node12</title>
<path fill="none" stroke="#191970" d="M467.0822,-190.6259C488.4417,-198.6699 520.0258,-210.2044 548,-219 555.4329,-221.337 563.362,-223.6543 571.1133,-225.8248"/>
<polygon fill="#191970" stroke="#191970" points="570.2155,-229.2078 580.7857,-228.4861 572.0725,-222.4586 570.2155,-229.2078"/>
</g>
<!-- Node13 -->
<g id="node12" class="node">
<title>Node13</title>
<g id="a_node12"><a xlink:href="classFish.html#aaa3e67187a587efc7a99485b4a6ee248" target="_top" xlink:title="Fish::set_traits">
<polygon fill="none" stroke="#000000" points="577,-190.5 577,-209.5 659,-209.5 659,-190.5 577,-190.5"/>
<text text-anchor="middle" x="618" y="-197.5" font-family="Helvetica,sans-Serif" font-size="10.00" fill="#000000">Fish::set_traits</text>
</a>
</g>
</g>
<!-- Node10&#45;&gt;Node13 -->
<g id="edge11" class="edge">
<title>Node10&#45;&gt;Node13</title>
<path fill="none" stroke="#191970" d="M491.0258,-186.2926C514.6995,-188.8482 543.089,-191.913 567.0146,-194.4959"/>
<polygon fill="#191970" stroke="#191970" points="566.6504,-197.9768 576.9683,-195.5704 567.4018,-191.0173 566.6504,-197.9768"/>
</g>
<!-- Node14 -->
<g id="node13" class="node">
<title>Node14</title>
<g id="a_node13"><a xlink:href="classPopulation.html#a42c4b04852bdda937e50f82952106af1" target="_top" xlink:title="Population::fishableBiomass">
<polygon fill="none" stroke="#000000" points="548,-152.5 548,-171.5 688,-171.5 688,-152.5 548,-152.5"/>
<text text-anchor="middle" x="618" y="-159.5" font-family="Helvetica,sans-Serif" font-size="10.00" fill="#000000">Population::fishableBiomass</text>
</a>
</g>
</g>
<!-- Node10&#45;&gt;Node14 -->
<g id="edge13" class="edge">
<title>Node10&#45;&gt;Node14</title>
<path fill="none" stroke="#191970" d="M491.0258,-175.7074C505.4603,-174.1492 521.648,-172.4016 537.508,-170.6895"/>
<polygon fill="#191970" stroke="#191970" points="538.2947,-174.125 547.8613,-169.5718 537.5434,-167.1654 538.2947,-174.125"/>
</g>
<!-- Node15 -->
<g id="node14" class="node">
<title>Node15</title>
<g id="a_node14"><a xlink:href="classPopulation.html#ac8ed845bbda25c937a2fd76b3788e987" target="_top" xlink:title="Population::selectivity">
<polygon fill="none" stroke="#000000" points="728.5,-114.5 728.5,-133.5 841.5,-133.5 841.5,-114.5 728.5,-114.5"/>
<text text-anchor="middle" x="785" y="-121.5" font-family="Helvetica,sans-Serif" font-size="10.00" fill="#000000">Population::selectivity</text>
</a>
</g>
</g>
<!-- Node10&#45;&gt;Node15 -->
<g id="edge19" class="edge">
<title>Node10&#45;&gt;Node15</title>
<path fill="none" stroke="#191970" d="M463.4331,-171.4162C484.5036,-162.4536 517.8039,-149.5026 548,-143 604.5794,-130.8158 670.2763,-126.2786 718.1307,-124.6669"/>
<polygon fill="#191970" stroke="#191970" points="718.4762,-128.1582 728.3659,-124.3575 718.2646,-121.1614 718.4762,-128.1582"/>
</g>
<!-- Node16 -->
<g id="node15" class="node">
<title>Node16</title>
<g id="a_node15"><a xlink:href="classPopulation.html#ad1840de2f00982c35d48b91a1d27ae13" target="_top" xlink:title="Population::effort">
<polygon fill="none" stroke="#000000" points="572.5,-76.5 572.5,-95.5 663.5,-95.5 663.5,-76.5 572.5,-76.5"/>
<text text-anchor="middle" x="618" y="-83.5" font-family="Helvetica,sans-Serif" font-size="10.00" fill="#000000">Population::effort</text>
</a>
</g>
</g>
<!-- Node10&#45;&gt;Node16 -->
<g id="edge15" class="edge">
<title>Node10&#45;&gt;Node16</title>
<path fill="none" stroke="#191970" d="M454.0832,-171.3645C473.1224,-156.5487 511.684,-128.0034 548,-110 556.453,-105.8095 565.8166,-102.0482 574.8729,-98.8147"/>
<polygon fill="#191970" stroke="#191970" points="576.1904,-102.0633 584.5216,-95.5179 573.927,-95.4393 576.1904,-102.0633"/>
</g>
<!-- Node17 -->
<g id="node16" class="node">
<title>Node17</title>
<g id="a_node16"><a xlink:href="namespacepn.html#ad42003887dcc42a4758c69775f83a8d9" target="_top" xlink:title="pn::zero">
<polygon fill="none" stroke="#000000" points="592,-38.5 592,-57.5 644,-57.5 644,-38.5 592,-38.5"/>
<text text-anchor="middle" x="618" y="-45.5" font-family="Helvetica,sans-Serif" font-size="10.00" fill="#000000">pn::zero</text>
</a>
</g>
</g>
<!-- Node10&#45;&gt;Node17 -->
<g id="edge17" class="edge">
<title>Node10&#45;&gt;Node17</title>
<path fill="none" stroke="#191970" d="M448.1373,-171.3643C462.6751,-149.346 501.5034,-95.0864 548,-67 558.1505,-60.8686 570.3055,-56.6771 581.6167,-53.828"/>
<polygon fill="#191970" stroke="#191970" points="582.6929,-57.1737 591.6856,-51.5717 581.1622,-50.3431 582.6929,-57.1737"/>
</g>
<!-- Node19 -->
<g id="node18" class="node">
<title>Node19</title>
<g id="a_node18"><a xlink:href="classPopulation.html#ac62fc3480d60b055cd1886649809c6a6" target="_top" xlink:title="Population::nfish">
<polygon fill="none" stroke="#000000" points="573.5,-.5 573.5,-19.5 662.5,-19.5 662.5,-.5 573.5,-.5"/>
<text text-anchor="middle" x="618" y="-7.5" font-family="Helvetica,sans-Serif" font-size="10.00" fill="#000000">Population::nfish</text>
</a>
</g>
</g>
<!-- Node10&#45;&gt;Node19 -->
<g id="edge20" class="edge">
<title>Node10&#45;&gt;Node19</title>
<path fill="none" stroke="#191970" d="M445.8472,-171.4252C457.1611,-144.5243 493.0202,-67.7087 548,-29 552.8152,-25.6098 558.2072,-22.8242 563.8045,-20.5354"/>
<polygon fill="#191970" stroke="#191970" points="565.1072,-23.7868 573.3525,-17.1336 562.7579,-17.1929 565.1072,-23.7868"/>
</g>
<!-- Node14&#45;&gt;Node15 -->
<g id="edge14" class="edge">
<title>Node14&#45;&gt;Node15</title>
<path fill="none" stroke="#191970" d="M660.1412,-152.411C682.3771,-147.3513 709.8482,-141.1004 733.3564,-135.7512"/>
<polygon fill="#191970" stroke="#191970" points="734.1877,-139.1516 743.1619,-133.5201 732.6345,-132.3261 734.1877,-139.1516"/>
</g>
<!-- Node16&#45;&gt;Node15 -->
<g id="edge16" class="edge">
<title>Node16&#45;&gt;Node15</title>
<path fill="none" stroke="#191970" d="M660.1412,-95.589C682.3771,-100.6487 709.8482,-106.8996 733.3564,-112.2488"/>
<polygon fill="#191970" stroke="#191970" points="732.6345,-115.6739 743.1619,-114.4799 734.1877,-108.8484 732.6345,-115.6739"/>
</g>
<!-- Node18 -->
<g id="node17" class="node">
<title>Node18</title>
<g id="a_node17"><a xlink:href="structpn_1_1BrentRes.html#a4fa42a440c4b9dc765ea7f0d7fd3a412" target="_top" xlink:title="pn::BrentRes::BrentRes">
<polygon fill="none" stroke="#000000" points="724,-38.5 724,-57.5 846,-57.5 846,-38.5 724,-38.5"/>
<text text-anchor="middle" x="785" y="-45.5" font-family="Helvetica,sans-Serif" font-size="10.00" fill="#000000">pn::BrentRes::BrentRes</text>
</a>
</g>
</g>
<!-- Node17&#45;&gt;Node18 -->
<g id="edge18" class="edge">
<title>Node17&#45;&gt;Node18</title>
<path fill="none" stroke="#191970" d="M644.0938,-48C662.7993,-48 688.9543,-48 713.6585,-48"/>
<polygon fill="#191970" stroke="#191970" points="713.7637,-51.5001 723.7636,-48 713.7636,-44.5001 713.7637,-51.5001"/>
</g>
</g>
</svg>
