<?xml version="1.0" encoding="UTF-8" standalone="no"?>
<!DOCTYPE svg PUBLIC "-//W3C//DTD SVG 1.1//EN"
 "http://www.w3.org/Graphics/SVG/1.1/DTD/svg11.dtd">
<!-- Generated by graphviz version 2.40.1 (20161225.0304)
 -->
<!-- Title: Simulator::simulate_multi Pages: 1 -->
<svg width="628pt" height="370pt"
 viewBox="0.00 0.00 628.00 370.00" xmlns="http://www.w3.org/2000/svg" xmlns:xlink="http://www.w3.org/1999/xlink">
<g id="graph0" class="graph" transform="scale(1 1) rotate(0) translate(4 366)">
<title>Simulator::simulate_multi</title>
<!-- Node45 -->
<g id="node1" class="node">
<title>Node45</title>
<polygon fill="#bfbfbf" stroke="#000000" points="0,-185 0,-215 101,-215 101,-185 0,-185"/>
<text text-anchor="start" x="8" y="-203" font-family="Helvetica,sans-Serif" font-size="10.00" fill="#000000">Simulator::simulate</text>
<text text-anchor="middle" x="50.5" y="-192" font-family="Helvetica,sans-Serif" font-size="10.00" fill="#000000">_multi</text>
</g>
<!-- Node46 -->
<g id="node2" class="node">
<title>Node46</title>
<g id="a_node2"><a xlink:href="classPopulation.html#a20696fa511c914e7c8837acb2a254b33" target="_top" xlink:title="Population::set_harvestProp">
<polygon fill="none" stroke="#000000" points="141.5,-266.5 141.5,-285.5 281.5,-285.5 281.5,-266.5 141.5,-266.5"/>
<text text-anchor="middle" x="211.5" y="-273.5" font-family="Helvetica,sans-Serif" font-size="10.00" fill="#000000">Population::set_harvestProp</text>
</a>
</g>
</g>
<!-- Node45&#45;&gt;Node46 -->
<g id="edge1" class="edge">
<title>Node45&#45;&gt;Node46</title>
<path fill="none" stroke="#191970" d="M69.3489,-215.1066C86.1902,-227.926 111.9967,-245.9486 137,-257 142.4748,-259.4199 148.3176,-261.5749 154.2314,-263.4838"/>
<polygon fill="#191970" stroke="#191970" points="153.615,-266.9526 164.1987,-266.467 155.6221,-260.2465 153.615,-266.9526"/>
</g>
<!-- Node47 -->
<g id="node3" class="node">
<title>Node47</title>
<g id="a_node3"><a xlink:href="classPopulation.html#a42c4b04852bdda937e50f82952106af1" target="_top" xlink:title="Population::fishableBiomass">
<polygon fill="none" stroke="#000000" points="322,-.5 322,-19.5 462,-19.5 462,-.5 322,-.5"/>
<text text-anchor="middle" x="392" y="-7.5" font-family="Helvetica,sans-Serif" font-size="10.00" fill="#000000">Population::fishableBiomass</text>
</a>
</g>
</g>
<!-- Node45&#45;&gt;Node47 -->
<g id="edge2" class="edge">
<title>Node45&#45;&gt;Node47</title>
<path fill="none" stroke="#191970" d="M69.7562,-184.8942C112.6427,-151.9451 220.2741,-73.0501 322,-29 327.4781,-26.6278 333.3277,-24.4827 339.2235,-22.5618"/>
<polygon fill="#191970" stroke="#191970" points="340.5874,-25.8051 349.1316,-19.5404 338.5455,-19.1095 340.5874,-25.8051"/>
</g>
<!-- Node49 -->
<g id="node5" class="node">
<title>Node49</title>
<g id="a_node5"><a xlink:href="classPopulation.html#ae8a6455aa45e65bf8bd41312f9caa328" target="_top" xlink:title="Population::set_superFishSize">
<polygon fill="none" stroke="#000000" points="137,-190.5 137,-209.5 286,-209.5 286,-190.5 137,-190.5"/>
<text text-anchor="middle" x="211.5" y="-197.5" font-family="Helvetica,sans-Serif" font-size="10.00" fill="#000000">Population::set_superFishSize</text>
</a>
</g>
</g>
<!-- Node45&#45;&gt;Node49 -->
<g id="edge4" class="edge">
<title>Node45&#45;&gt;Node49</title>
<path fill="none" stroke="#191970" d="M101.4414,-200C109.5196,-200 118.059,-200 126.6646,-200"/>
<polygon fill="#191970" stroke="#191970" points="126.7737,-203.5001 136.7737,-200 126.7736,-196.5001 126.7737,-203.5001"/>
</g>
<!-- Node50 -->
<g id="node6" class="node">
<title>Node50</title>
<g id="a_node6"><a xlink:href="classPopulation.html#a012ef586a78b4e7c2082634b316072d0" target="_top" xlink:title="Population::init">
<polygon fill="none" stroke="#000000" points="171,-228.5 171,-247.5 252,-247.5 252,-228.5 171,-228.5"/>
<text text-anchor="middle" x="211.5" y="-235.5" font-family="Helvetica,sans-Serif" font-size="10.00" fill="#000000">Population::init</text>
</a>
</g>
</g>
<!-- Node45&#45;&gt;Node50 -->
<g id="edge5" class="edge">
<title>Node45&#45;&gt;Node50</title>
<path fill="none" stroke="#191970" d="M101.4414,-212.0234C120.4954,-216.5207 142.1152,-221.6235 161.1184,-226.1087"/>
<polygon fill="#191970" stroke="#191970" points="160.5441,-229.5692 171.0807,-228.46 162.1522,-222.7564 160.5441,-229.5692"/>
</g>
<!-- Node54 -->
<g id="node10" class="node">
<title>Node54</title>
<g id="a_node10"><a xlink:href="classPopulation.html#a81c19d1c80cfb1d54d3872ecdefd0872" target="_top" xlink:title="Population::update">
<polygon fill="none" stroke="#000000" points="162.5,-152.5 162.5,-171.5 260.5,-171.5 260.5,-152.5 162.5,-152.5"/>
<text text-anchor="middle" x="211.5" y="-159.5" font-family="Helvetica,sans-Serif" font-size="10.00" fill="#000000">Population::update</text>
</a>
</g>
</g>
<!-- Node45&#45;&gt;Node54 -->
<g id="edge9" class="edge">
<title>Node45&#45;&gt;Node54</title>
<path fill="none" stroke="#191970" d="M101.4414,-187.9766C120.4954,-183.4793 142.1152,-178.3765 161.1184,-173.8913"/>
<polygon fill="#191970" stroke="#191970" points="162.1522,-177.2436 171.0807,-171.54 160.5441,-170.4308 162.1522,-177.2436"/>
</g>
<!-- Node48 -->
<g id="node4" class="node">
<title>Node48</title>
<g id="a_node4"><a xlink:href="classPopulation.html#ac8ed845bbda25c937a2fd76b3788e987" target="_top" xlink:title="Population::selectivity">
<polygon fill="none" stroke="#000000" points="502.5,-190.5 502.5,-209.5 615.5,-209.5 615.5,-190.5 502.5,-190.5"/>
<text text-anchor="middle" x="559" y="-197.5" font-family="Helvetica,sans-Serif" font-size="10.00" fill="#000000">Population::selectivity</text>
</a>
</g>
</g>
<!-- Node47&#45;&gt;Node48 -->
<g id="edge3" class="edge">
<title>Node47&#45;&gt;Node48</title>
<path fill="none" stroke="#191970" d="M445.3694,-19.6105C451.3242,-22.0631 457.0257,-25.14 462,-29 513.5622,-69.0114 542.2152,-144.6562 553.4148,-180.3782"/>
<polygon fill="#191970" stroke="#191970" points="550.106,-181.5295 556.3362,-190.099 556.8098,-179.5147 550.106,-181.5295"/>
</g>
<!-- Node51 -->
<g id="node7" class="node">
<title>Node51</title>
<g id="a_node7"><a xlink:href="classFish.html#adf85bf269f1651352506e371ffd2cecc" target="_top" xlink:title="Initializes the fish, i.e., initializes parameters and sets the initial state (age = 1...">
<polygon fill="none" stroke="#000000" points="365,-304.5 365,-323.5 419,-323.5 419,-304.5 365,-304.5"/>
<text text-anchor="middle" x="392" y="-311.5" font-family="Helvetica,sans-Serif" font-size="10.00" fill="#000000">Fish::init</text>
</a>
</g>
</g>
<!-- Node50&#45;&gt;Node51 -->
<g id="edge6" class="edge">
<title>Node50&#45;&gt;Node51</title>
<path fill="none" stroke="#191970" d="M252.1701,-244.0264C263.631,-246.8539 275.7565,-250.9835 286,-257 306.0602,-268.7823 302.0307,-283.0642 322,-295 331.9307,-300.9356 343.7494,-305.058 354.8218,-307.9041"/>
<polygon fill="#191970" stroke="#191970" points="354.1752,-311.3467 364.705,-310.1745 355.7425,-304.5244 354.1752,-311.3467"/>
</g>
<!-- Node52 -->
<g id="node8" class="node">
<title>Node52</title>
<g id="a_node8"><a xlink:href="namespacefish.html#a0ab1c4842d702a0a40bd04f26793ce12" target="_top" xlink:title="Compute the nonlinear growth increment , as follows . ">
<polygon fill="none" stroke="#000000" points="520.5,-342.5 520.5,-361.5 597.5,-361.5 597.5,-342.5 520.5,-342.5"/>
<text text-anchor="middle" x="559" y="-349.5" font-family="Helvetica,sans-Serif" font-size="10.00" fill="#000000">fish::dl_power</text>
</a>
</g>
</g>
<!-- Node51&#45;&gt;Node52 -->
<g id="edge7" class="edge">
<title>Node51&#45;&gt;Node52</title>
<path fill="none" stroke="#191970" d="M419.2031,-320.1899C443.8653,-325.8017 480.7919,-334.2042 510.5008,-340.9643"/>
<polygon fill="#191970" stroke="#191970" points="509.7439,-344.3814 520.2712,-343.1875 511.297,-337.5559 509.7439,-344.3814"/>
</g>
<!-- Node53 -->
<g id="node9" class="node">
<title>Node53</title>
<g id="a_node9"><a xlink:href="namespacefish.html#a1d06e0358aca1be4446ed148b7ce3d84" target="_top" xlink:title="Compute the new length after growth assuming no allocation to reproduction . ">
<polygon fill="none" stroke="#000000" points="507.5,-304.5 507.5,-323.5 610.5,-323.5 610.5,-304.5 507.5,-304.5"/>
<text text-anchor="middle" x="559" y="-311.5" font-family="Helvetica,sans-Serif" font-size="10.00" fill="#000000">fish::length_juvenile</text>
</a>
</g>
</g>
<!-- Node51&#45;&gt;Node53 -->
<g id="edge8" class="edge">
<title>Node51&#45;&gt;Node53</title>
<path fill="none" stroke="#191970" d="M419.2031,-314C440.2655,-314 470.2731,-314 497.0905,-314"/>
<polygon fill="#191970" stroke="#191970" points="497.1871,-317.5001 507.1871,-314 497.187,-310.5001 497.1871,-317.5001"/>
</g>
<!-- Node54&#45;&gt;Node47 -->
<g id="edge14" class="edge">
<title>Node54&#45;&gt;Node47</title>
<path fill="none" stroke="#191970" d="M221.132,-152.4158C235.7894,-137.6399 264.2817,-108.1567 286,-81 303.5562,-59.0477 299.0436,-45.2212 322,-29 324.7253,-27.0743 327.6365,-25.3437 330.6658,-23.7884"/>
<polygon fill="#191970" stroke="#191970" points="332.3195,-26.8837 340.0407,-19.6287 329.4805,-20.4853 332.3195,-26.8837"/>
</g>
<!-- Node54&#45;&gt;Node48 -->
<g id="edge19" class="edge">
<title>Node54&#45;&gt;Node48</title>
<path fill="none" stroke="#191970" d="M260.5893,-171.4193C279.6996,-174.829 301.8176,-178.4611 322,-181 379.2331,-188.1997 444.6043,-193.2008 492.1739,-196.2582"/>
<polygon fill="#191970" stroke="#191970" points="492.1469,-199.7634 502.3474,-196.8999 492.5876,-192.7773 492.1469,-199.7634"/>
</g>
<!-- Node54&#45;&gt;Node51 -->
<g id="edge13" class="edge">
<title>Node54&#45;&gt;Node51</title>
<path fill="none" stroke="#191970" d="M260.812,-167.1045C270.0676,-170.0064 279.0161,-174.3978 286,-181 324.6109,-217.5009 283.6701,-258.2042 322,-295 330.7826,-303.431 342.9152,-308.2039 354.615,-310.8791"/>
<polygon fill="#191970" stroke="#191970" points="354.2223,-314.3655 364.6901,-312.7293 355.4867,-307.4806 354.2223,-314.3655"/>
</g>
<!-- Node55 -->
<g id="node11" class="node">
<title>Node55</title>
<g id="a_node11"><a xlink:href="classPopulation.html#ae942ef70cc9f4dfc40b5d843baf40b1e" target="_top" xlink:title="Population::calcTSB">
<polygon fill="none" stroke="#000000" points="339,-114.5 339,-133.5 445,-133.5 445,-114.5 339,-114.5"/>
<text text-anchor="middle" x="392" y="-121.5" font-family="Helvetica,sans-Serif" font-size="10.00" fill="#000000">Population::calcTSB</text>
</a>
</g>
</g>
<!-- Node54&#45;&gt;Node55 -->
<g id="edge10" class="edge">
<title>Node54&#45;&gt;Node55</title>
<path fill="none" stroke="#191970" d="M257.0478,-152.411C281.2959,-147.3061 311.3037,-140.9887 336.8612,-135.6082"/>
<polygon fill="#191970" stroke="#191970" points="337.7153,-139.0052 346.7798,-133.5201 336.2732,-132.1553 337.7153,-139.0052"/>
</g>
<!-- Node56 -->
<g id="node12" class="node">
<title>Node56</title>
<g id="a_node12"><a xlink:href="classPopulation.html#af15e7ba23b161c710d4013204b542cb6" target="_top" xlink:title="Population::calcSSB">
<polygon fill="none" stroke="#000000" points="338.5,-76.5 338.5,-95.5 445.5,-95.5 445.5,-76.5 338.5,-76.5"/>
<text text-anchor="middle" x="392" y="-83.5" font-family="Helvetica,sans-Serif" font-size="10.00" fill="#000000">Population::calcSSB</text>
</a>
</g>
</g>
<!-- Node54&#45;&gt;Node56 -->
<g id="edge11" class="edge">
<title>Node54&#45;&gt;Node56</title>
<path fill="none" stroke="#191970" d="M227.4731,-152.3894C248.524,-140.048 286.9909,-118.6045 322,-105 328.23,-102.579 334.8858,-100.3452 341.5229,-98.325"/>
<polygon fill="#191970" stroke="#191970" points="342.5543,-101.6701 351.1821,-95.521 340.6028,-94.9476 342.5543,-101.6701"/>
</g>
<!-- Node57 -->
<g id="node13" class="node">
<title>Node57</title>
<g id="a_node13"><a xlink:href="classFish.html#aaa3e67187a587efc7a99485b4a6ee248" target="_top" xlink:title="Fish::set_traits">
<polygon fill="none" stroke="#000000" points="351,-38.5 351,-57.5 433,-57.5 433,-38.5 351,-38.5"/>
<text text-anchor="middle" x="392" y="-45.5" font-family="Helvetica,sans-Serif" font-size="10.00" fill="#000000">Fish::set_traits</text>
</a>
</g>
</g>
<!-- Node54&#45;&gt;Node57 -->
<g id="edge12" class="edge">
<title>Node54&#45;&gt;Node57</title>
<path fill="none" stroke="#191970" d="M219.908,-152.3256C237.1154,-133.1348 278.4155,-90.1121 322,-67 327.9797,-63.8291 334.5343,-61.1521 341.1587,-58.9014"/>
<polygon fill="#191970" stroke="#191970" points="342.3368,-62.2007 350.8554,-55.9011 340.2676,-55.5135 342.3368,-62.2007"/>
</g>
<!-- Node58 -->
<g id="node14" class="node">
<title>Node58</title>
<g id="a_node14"><a xlink:href="classPopulation.html#ad1840de2f00982c35d48b91a1d27ae13" target="_top" xlink:title="Population::effort">
<polygon fill="none" stroke="#000000" points="346.5,-228.5 346.5,-247.5 437.5,-247.5 437.5,-228.5 346.5,-228.5"/>
<text text-anchor="middle" x="392" y="-235.5" font-family="Helvetica,sans-Serif" font-size="10.00" fill="#000000">Population::effort</text>
</a>
</g>
</g>
<!-- Node54&#45;&gt;Node58 -->
<g id="edge15" class="edge">
<title>Node54&#45;&gt;Node58</title>
<path fill="none" stroke="#191970" d="M260.8928,-170.9363C269.5461,-173.5156 278.2512,-176.8087 286,-181 305.0913,-191.3264 303.3402,-202.9129 322,-214 329.1454,-218.2456 337.1499,-221.8781 345.1229,-224.9362"/>
<polygon fill="#191970" stroke="#191970" points="344.1781,-228.3153 354.7727,-228.3842 346.5335,-221.7235 344.1781,-228.3153"/>
</g>
<!-- Node59 -->
<g id="node15" class="node">
<title>Node59</title>
<g id="a_node15"><a xlink:href="namespacepn.html#ad42003887dcc42a4758c69775f83a8d9" target="_top" xlink:title="pn::zero">
<polygon fill="none" stroke="#000000" points="366,-266.5 366,-285.5 418,-285.5 418,-266.5 366,-266.5"/>
<text text-anchor="middle" x="392" y="-273.5" font-family="Helvetica,sans-Serif" font-size="10.00" fill="#000000">pn::zero</text>
</a>
</g>
</g>
<!-- Node54&#45;&gt;Node59 -->
<g id="edge17" class="edge">
<title>Node54&#45;&gt;Node59</title>
<path fill="none" stroke="#191970" d="M260.527,-167.9858C269.6973,-170.8295 278.6852,-174.9743 286,-181 314.848,-204.7641 293.335,-233.0155 322,-257 331.4865,-264.9375 343.9987,-269.581 355.8182,-272.2898"/>
<polygon fill="#191970" stroke="#191970" points="355.4563,-275.7835 365.9331,-274.2064 356.7595,-268.9058 355.4563,-275.7835"/>
</g>
<!-- Node61 -->
<g id="node17" class="node">
<title>Node61</title>
<g id="a_node17"><a xlink:href="classPopulation.html#ac62fc3480d60b055cd1886649809c6a6" target="_top" xlink:title="Population::nfish">
<polygon fill="none" stroke="#000000" points="347.5,-152.5 347.5,-171.5 436.5,-171.5 436.5,-152.5 347.5,-152.5"/>
<text text-anchor="middle" x="392" y="-159.5" font-family="Helvetica,sans-Serif" font-size="10.00" fill="#000000">Population::nfish</text>
</a>
</g>
</g>
<!-- Node54&#45;&gt;Node61 -->
<g id="edge20" class="edge">
<title>Node54&#45;&gt;Node61</title>
<path fill="none" stroke="#191970" d="M260.8224,-162C284.4776,-162 312.8921,-162 337.2182,-162"/>
<polygon fill="#191970" stroke="#191970" points="337.3676,-165.5001 347.3675,-162 337.3675,-158.5001 337.3676,-165.5001"/>
</g>
<!-- Node58&#45;&gt;Node48 -->
<g id="edge16" class="edge">
<title>Node58&#45;&gt;Node48</title>
<path fill="none" stroke="#191970" d="M434.1412,-228.411C456.3771,-223.3513 483.8482,-217.1004 507.3564,-211.7512"/>
<polygon fill="#191970" stroke="#191970" points="508.1877,-215.1516 517.1619,-209.5201 506.6345,-208.3261 508.1877,-215.1516"/>
</g>
<!-- Node60 -->
<g id="node16" class="node">
<title>Node60</title>
<g id="a_node16"><a xlink:href="structpn_1_1BrentRes.html#a4fa42a440c4b9dc765ea7f0d7fd3a412" target="_top" xlink:title="pn::BrentRes::BrentRes">
<polygon fill="none" stroke="#000000" points="498,-266.5 498,-285.5 620,-285.5 620,-266.5 498,-266.5"/>
<text text-anchor="middle" x="559" y="-273.5" font-family="Helvetica,sans-Serif" font-size="10.00" fill="#000000">pn::BrentRes::BrentRes</text>
</a>
</g>
</g>
<!-- Node59&#45;&gt;Node60 -->
<g id="edge18" class="edge">
<title>Node59&#45;&gt;Node60</title>
<path fill="none" stroke="#191970" d="M418.0938,-276C436.7993,-276 462.9543,-276 487.6585,-276"/>
<polygon fill="#191970" stroke="#191970" points="487.7637,-279.5001 497.7636,-276 487.7636,-272.5001 487.7637,-279.5001"/>
</g>
</g>
</svg>
