<?xml version="1.0" encoding="UTF-8" standalone="no"?>
<!DOCTYPE svg PUBLIC "-//W3C//DTD SVG 1.1//EN"
 "http://www.w3.org/Graphics/SVG/1.1/DTD/svg11.dtd">
<!-- Generated by graphviz version 2.40.1 (20161225.0304)
 -->
<!-- Title: Simulator Pages: 1 -->
<svg width="342pt" height="420pt"
 viewBox="0.00 0.00 342.00 420.00" xmlns="http://www.w3.org/2000/svg" xmlns:xlink="http://www.w3.org/1999/xlink">
<g id="graph0" class="graph" transform="scale(1 1) rotate(0) translate(4 416)">
<title>Simulator</title>
<!-- Node1 -->
<g id="node1" class="node">
<title>Node1</title>
<polygon fill="#bfbfbf" stroke="#000000" points="118,-.5 118,-19.5 176,-19.5 176,-.5 118,-.5"/>
<text text-anchor="middle" x="147" y="-7.5" font-family="Helvetica,sans-Serif" font-size="10.00" fill="#000000">Simulator</text>
</g>
<!-- Node2 -->
<g id="node2" class="node">
<title>Node2</title>
<g id="a_node2"><a xlink:href="classPopulation.html" target="_top" xlink:title="Population">
<polygon fill="none" stroke="#000000" points="116,-67.5 116,-86.5 178,-86.5 178,-67.5 116,-67.5"/>
<text text-anchor="middle" x="147" y="-74.5" font-family="Helvetica,sans-Serif" font-size="10.00" fill="#000000">Population</text>
</a>
</g>
</g>
<!-- Node2&#45;&gt;Node1 -->
<g id="edge1" class="edge">
<title>Node2&#45;&gt;Node1</title>
<path fill="none" stroke="#9a32cd" stroke-dasharray="5,2" d="M147,-57.1079C147,-44.714 147,-29.3263 147,-19.5817"/>
<polygon fill="#9a32cd" stroke="#9a32cd" points="143.5001,-57.4005 147,-67.4005 150.5001,-57.4006 143.5001,-57.4005"/>
<text text-anchor="middle" x="178.5" y="-41" font-family="Helvetica,sans-Serif" font-size="10.00" fill="#000000"> noFishingPop</text>
</g>
<!-- Node3 -->
<g id="node3" class="node">
<title>Node3</title>
<g id="a_node3"><a xlink:href="classPopulationParams.html" target="_top" xlink:title="PopulationParams">
<polygon fill="none" stroke="#000000" points="0,-134.5 0,-153.5 96,-153.5 96,-134.5 0,-134.5"/>
<text text-anchor="middle" x="48" y="-141.5" font-family="Helvetica,sans-Serif" font-size="10.00" fill="#000000">PopulationParams</text>
</a>
</g>
</g>
<!-- Node3&#45;&gt;Node2 -->
<g id="edge2" class="edge">
<title>Node3&#45;&gt;Node2</title>
<path fill="none" stroke="#9a32cd" stroke-dasharray="5,2" d="M65.1751,-127.422C73.2576,-120.0755 83.2478,-111.6179 93,-105 103.3112,-98.0028 115.5898,-91.5071 125.8313,-86.5374"/>
<polygon fill="#9a32cd" stroke="#9a32cd" points="62.7367,-124.9102 57.8081,-134.2889 67.5096,-130.0308 62.7367,-124.9102"/>
<text text-anchor="middle" x="101.5" y="-108" font-family="Helvetica,sans-Serif" font-size="10.00" fill="#000000"> par</text>
</g>
<!-- Node4 -->
<g id="node4" class="node">
<title>Node4</title>
<g id="a_node4"><a xlink:href="classFish.html" target="_top" xlink:title="Fish">
<polygon fill="none" stroke="#000000" points="222.5,-219 222.5,-238 257.5,-238 257.5,-219 222.5,-219"/>
<text text-anchor="middle" x="240" y="-226" font-family="Helvetica,sans-Serif" font-size="10.00" fill="#000000">Fish</text>
</a>
</g>
</g>
<!-- Node4&#45;&gt;Node2 -->
<g id="edge3" class="edge">
<title>Node4&#45;&gt;Node2</title>
<path fill="none" stroke="#9a32cd" stroke-dasharray="5,2" d="M223.146,-210.983C209.9027,-196.5495 191.6444,-175.0949 179,-154 165.3799,-131.2773 154.8803,-101.6939 149.9997,-86.6697"/>
<polygon fill="#9a32cd" stroke="#9a32cd" points="220.8963,-213.7016 230.2835,-218.614 226.0087,-208.9199 220.8963,-213.7016"/>
<text text-anchor="middle" x="202" y="-141.5" font-family="Helvetica,sans-Serif" font-size="10.00" fill="#000000"> proto_fish</text>
</g>
<!-- Node7 -->
<g id="node7" class="node">
<title>Node7</title>
<polygon fill="none" stroke="#bfbfbf" points="234,-134.5 234,-153.5 334,-153.5 334,-134.5 234,-134.5"/>
<text text-anchor="middle" x="284" y="-141.5" font-family="Helvetica,sans-Serif" font-size="10.00" fill="#000000">std::vector&lt; Fish &gt;</text>
</g>
<!-- Node4&#45;&gt;Node7 -->
<g id="edge7" class="edge">
<title>Node4&#45;&gt;Node7</title>
<path fill="none" stroke="#9a32cd" stroke-dasharray="5,2" d="M249.8389,-209.6049C258.8914,-192.2198 271.9497,-167.1421 279.0115,-153.5802"/>
<polygon fill="#9a32cd" stroke="#9a32cd" points="246.5615,-208.3207 245.0474,-218.8068 252.7703,-211.5537 246.5615,-208.3207"/>
<text text-anchor="middle" x="289.5" y="-175" font-family="Helvetica,sans-Serif" font-size="10.00" fill="#000000"> elements</text>
</g>
<!-- Node5 -->
<g id="node5" class="node">
<title>Node5</title>
<g id="a_node5"><a xlink:href="structFishParams.html" target="_top" xlink:title="FishParams">
<polygon fill="none" stroke="#000000" points="178.5,-303.5 178.5,-322.5 247.5,-322.5 247.5,-303.5 178.5,-303.5"/>
<text text-anchor="middle" x="213" y="-310.5" font-family="Helvetica,sans-Serif" font-size="10.00" fill="#000000">FishParams</text>
</a>
</g>
</g>
<!-- Node5&#45;&gt;Node4 -->
<g id="edge4" class="edge">
<title>Node5&#45;&gt;Node4</title>
<path fill="none" stroke="#9a32cd" stroke-dasharray="5,2" d="M219.1939,-293.6154C224.7419,-276.2521 232.646,-251.5153 236.9389,-238.0802"/>
<polygon fill="#9a32cd" stroke="#9a32cd" points="215.807,-292.7159 216.0972,-303.3068 222.4749,-294.8465 215.807,-292.7159"/>
<text text-anchor="middle" x="232.5" y="-277" font-family="Helvetica,sans-Serif" font-size="10.00" fill="#000000"> par</text>
</g>
<!-- Node6 -->
<g id="node6" class="node">
<title>Node6</title>
<polygon fill="none" stroke="#bfbfbf" points="85,-392.5 85,-411.5 195,-411.5 195,-392.5 85,-392.5"/>
<text text-anchor="middle" x="140" y="-399.5" font-family="Helvetica,sans-Serif" font-size="10.00" fill="#000000">std::vector&lt; double &gt;</text>
</g>
<!-- Node6&#45;&gt;Node2 -->
<g id="edge8" class="edge">
<title>Node6&#45;&gt;Node2</title>
<path fill="none" stroke="#9a32cd" stroke-dasharray="5,2" d="M134.4811,-382.6854C129.8548,-364.7776 124,-337.3115 124,-313 124,-313 124,-313 124,-144 124,-122.6011 134.6254,-99.339 141.4323,-86.6322"/>
<polygon fill="#9a32cd" stroke="#9a32cd" points="131.1438,-383.7517 137.1395,-392.4868 137.8997,-381.9192 131.1438,-383.7517"/>
<text text-anchor="middle" x="164" y="-248" font-family="Helvetica,sans-Serif" font-size="10.00" fill="#000000"> carrying_capacity</text>
<text text-anchor="middle" x="164" y="-237" font-family="Helvetica,sans-Serif" font-size="10.00" fill="#000000">vfreq</text>
<text text-anchor="middle" x="164" y="-226" font-family="Helvetica,sans-Serif" font-size="10.00" fill="#000000">vmat</text>
<text text-anchor="middle" x="164" y="-215" font-family="Helvetica,sans-Serif" font-size="10.00" fill="#000000">vage</text>
<text text-anchor="middle" x="164" y="-204" font-family="Helvetica,sans-Serif" font-size="10.00" fill="#000000">vlen</text>
</g>
<!-- Node6&#45;&gt;Node5 -->
<g id="edge5" class="edge">
<title>Node6&#45;&gt;Node5</title>
<path fill="none" stroke="#9a32cd" stroke-dasharray="5,2" d="M154.318,-384.5438C169.4754,-366.0642 192.8544,-337.5611 205.0226,-322.7259"/>
<polygon fill="#9a32cd" stroke="#9a32cd" points="151.448,-382.5239 147.8123,-392.4754 156.8603,-386.9632 151.448,-382.5239"/>
<text text-anchor="middle" x="201.5" y="-366" font-family="Helvetica,sans-Serif" font-size="10.00" fill="#000000"> mam</text>
<text text-anchor="middle" x="201.5" y="-355" font-family="Helvetica,sans-Serif" font-size="10.00" fill="#000000">ma</text>
<text text-anchor="middle" x="201.5" y="-344" font-family="Helvetica,sans-Serif" font-size="10.00" fill="#000000">mai</text>
</g>
<!-- Node7&#45;&gt;Node2 -->
<g id="edge6" class="edge">
<title>Node7&#45;&gt;Node2</title>
<path fill="none" stroke="#9a32cd" stroke-dasharray="5,2" d="M255.1714,-129.9013C228.564,-116.889 189.7712,-97.9173 166.5923,-86.5817"/>
<polygon fill="#9a32cd" stroke="#9a32cd" points="253.8503,-133.1513 264.3712,-134.4005 256.9256,-126.8631 253.8503,-133.1513"/>
<text text-anchor="middle" x="238" y="-108" font-family="Helvetica,sans-Serif" font-size="10.00" fill="#000000"> fishes</text>
</g>
</g>
</svg>
