<?xml version="1.0" encoding="UTF-8" standalone="no"?>
<!DOCTYPE svg PUBLIC "-//W3C//DTD SVG 1.1//EN"
 "http://www.w3.org/Graphics/SVG/1.1/DTD/svg11.dtd">
<!-- Generated by graphviz version 2.40.1 (20161225.0304)
 -->
<!-- Title: Fish Pages: 1 -->
<svg width="707pt" height="378pt"
 viewBox="0.00 0.00 707.00 377.50" xmlns="http://www.w3.org/2000/svg" xmlns:xlink="http://www.w3.org/1999/xlink">
<g id="graph0" class="graph" transform="scale(1 1) rotate(0) translate(4 373.5)">
<title>Fish</title>
<!-- Node1 -->
<g id="node1" class="node">
<title>Node1</title>
<polygon fill="#bfbfbf" stroke="#000000" points="664,-32.5 664,-51.5 699,-51.5 699,-32.5 664,-32.5"/>
<text text-anchor="middle" x="681.5" y="-39.5" font-family="Helvetica,sans-Serif" font-size="10.00" fill="#000000">Fish</text>
</g>
<!-- Node2 -->
<g id="node2" class="node">
<title>Node2</title>
<g id="a_node2"><a xlink:href="classFishParams.html" target="_top" xlink:title="FishParams">
<polygon fill="none" stroke="#000000" points="542,-155.5 542,-174.5 611,-174.5 611,-155.5 542,-155.5"/>
<text text-anchor="middle" x="576.5" y="-162.5" font-family="Helvetica,sans-Serif" font-size="10.00" fill="#000000">FishParams</text>
</a>
</g>
</g>
<!-- Node2&#45;&gt;Node1 -->
<g id="edge1" class="edge">
<title>Node2&#45;&gt;Node1</title>
<path fill="none" stroke="#9a32cd" stroke-dasharray="5,2" d="M591.2844,-147.6812C613.7208,-121.3985 655.6227,-72.3135 673.2991,-51.6068"/>
<polygon fill="#9a32cd" stroke="#9a32cd" points="588.5698,-145.4703 584.7392,-155.3484 593.8938,-150.0152 588.5698,-145.4703"/>
<text text-anchor="middle" x="637.5" y="-106" font-family="Helvetica,sans-Serif" font-size="10.00" fill="#000000"> par</text>
</g>
<!-- Node3 -->
<g id="node3" class="node">
<title>Node3</title>
<polygon fill="none" stroke="#bfbfbf" points="271,-176 271,-206 381,-206 381,-176 271,-176"/>
<text text-anchor="start" x="279" y="-194" font-family="Helvetica,sans-Serif" font-size="10.00" fill="#000000">std::map&lt; std::string,</text>
<text text-anchor="middle" x="326" y="-183" font-family="Helvetica,sans-Serif" font-size="10.00" fill="#000000"> RecruitmentModel &gt;</text>
</g>
<!-- Node3&#45;&gt;Node2 -->
<g id="edge2" class="edge">
<title>Node3&#45;&gt;Node2</title>
<path fill="none" stroke="#9a32cd" stroke-dasharray="5,2" d="M391.3121,-187.4945C430.0007,-184.977 479.9217,-180.9613 524,-175 529.7927,-174.2166 535.9138,-173.2131 541.8509,-172.1454"/>
<polygon fill="#9a32cd" stroke="#9a32cd" points="390.9802,-184.0084 381.2216,-188.1338 391.4229,-190.9944 390.9802,-184.0084"/>
<text text-anchor="middle" x="461.5" y="-189" font-family="Helvetica,sans-Serif" font-size="10.00" fill="#000000"> recruitment_names_map</text>
</g>
<!-- Node4 -->
<g id="node4" class="node">
<title>Node4</title>
<g id="a_node4"><a xlink:title="STL class. ">
<polygon fill="none" stroke="#bfbfbf" points="132,-160.5 132,-179.5 192,-179.5 192,-160.5 132,-160.5"/>
<text text-anchor="middle" x="162" y="-167.5" font-family="Helvetica,sans-Serif" font-size="10.00" fill="#000000">std::string</text>
</a>
</g>
</g>
<!-- Node4&#45;&gt;Node2 -->
<g id="edge5" class="edge">
<title>Node4&#45;&gt;Node2</title>
<path fill="none" stroke="#9a32cd" stroke-dasharray="5,2" d="M186.6401,-184.4675C208.0829,-196.0426 240.4343,-211.1171 271,-216 382.2315,-233.7693 418.2956,-239.9201 524,-201 539.9713,-195.1194 555.7257,-183.2863 565.7445,-174.7904"/>
<polygon fill="#9a32cd" stroke="#9a32cd" points="188.3203,-181.3971 177.8784,-179.6031 184.9224,-187.5172 188.3203,-181.3971"/>
<text text-anchor="middle" x="326" y="-298" font-family="Helvetica,sans-Serif" font-size="10.00" fill="#000000"> growth_model_name</text>
<text text-anchor="start" x="279" y="-287" font-family="Helvetica,sans-Serif" font-size="10.00" fill="#000000">recruitment_model</text>
<text text-anchor="middle" x="326" y="-276" font-family="Helvetica,sans-Serif" font-size="10.00" fill="#000000">_name</text>
<text text-anchor="start" x="279" y="-265" font-family="Helvetica,sans-Serif" font-size="10.00" fill="#000000">mortality_model</text>
<text text-anchor="middle" x="326" y="-254" font-family="Helvetica,sans-Serif" font-size="10.00" fill="#000000">_name</text>
<text text-anchor="start" x="279" y="-243" font-family="Helvetica,sans-Serif" font-size="10.00" fill="#000000">maturation_model</text>
<text text-anchor="middle" x="326" y="-232" font-family="Helvetica,sans-Serif" font-size="10.00" fill="#000000">_name</text>
</g>
<!-- Node4&#45;&gt;Node3 -->
<g id="edge3" class="edge">
<title>Node4&#45;&gt;Node3</title>
<path fill="none" stroke="#9a32cd" stroke-dasharray="5,2" d="M202.1158,-175.1368C222.8135,-177.7871 248.378,-181.0606 270.8985,-183.9443"/>
<polygon fill="#9a32cd" stroke="#9a32cd" points="202.4437,-171.6503 192.0801,-173.8517 201.5546,-178.5936 202.4437,-171.6503"/>
<text text-anchor="middle" x="231.5" y="-184" font-family="Helvetica,sans-Serif" font-size="10.00" fill="#000000"> keys</text>
</g>
<!-- Node6 -->
<g id="node6" class="node">
<title>Node6</title>
<polygon fill="none" stroke="#bfbfbf" points="271,-127 271,-157 381,-157 381,-127 271,-127"/>
<text text-anchor="start" x="279" y="-145" font-family="Helvetica,sans-Serif" font-size="10.00" fill="#000000">std::map&lt; std::string,</text>
<text text-anchor="middle" x="326" y="-134" font-family="Helvetica,sans-Serif" font-size="10.00" fill="#000000"> GrowthModel &gt;</text>
</g>
<!-- Node4&#45;&gt;Node6 -->
<g id="edge7" class="edge">
<title>Node4&#45;&gt;Node6</title>
<path fill="none" stroke="#9a32cd" stroke-dasharray="5,2" d="M202.2708,-162.3793C204.8853,-161.9062 207.4791,-161.4427 210,-161 229.7981,-157.523 251.5342,-153.9088 270.7858,-150.7778"/>
<polygon fill="#9a32cd" stroke="#9a32cd" points="201.3987,-158.9809 192.195,-164.2289 202.6626,-165.8658 201.3987,-158.9809"/>
<text text-anchor="middle" x="231.5" y="-164" font-family="Helvetica,sans-Serif" font-size="10.00" fill="#000000"> keys</text>
</g>
<!-- Node7 -->
<g id="node7" class="node">
<title>Node7</title>
<polygon fill="none" stroke="#bfbfbf" points="271,-78 271,-108 381,-108 381,-78 271,-78"/>
<text text-anchor="start" x="279" y="-96" font-family="Helvetica,sans-Serif" font-size="10.00" fill="#000000">std::map&lt; std::string,</text>
<text text-anchor="middle" x="326" y="-85" font-family="Helvetica,sans-Serif" font-size="10.00" fill="#000000"> MaturationModel &gt;</text>
</g>
<!-- Node4&#45;&gt;Node7 -->
<g id="edge9" class="edge">
<title>Node4&#45;&gt;Node7</title>
<path fill="none" stroke="#9a32cd" stroke-dasharray="5,2" d="M183.1764,-154.4366C191.3217,-148.8414 200.8619,-142.7461 210,-138 232.4286,-126.351 258.5859,-115.9504 280.3787,-108.0904"/>
<polygon fill="#9a32cd" stroke="#9a32cd" points="181.1249,-151.6005 174.9702,-160.2243 185.1595,-157.3209 181.1249,-151.6005"/>
<text text-anchor="middle" x="231.5" y="-141" font-family="Helvetica,sans-Serif" font-size="10.00" fill="#000000"> keys</text>
</g>
<!-- Node8 -->
<g id="node8" class="node">
<title>Node8</title>
<polygon fill="none" stroke="#bfbfbf" points="271,-339 271,-369 381,-369 381,-339 271,-339"/>
<text text-anchor="start" x="279" y="-357" font-family="Helvetica,sans-Serif" font-size="10.00" fill="#000000">std::map&lt; std::string,</text>
<text text-anchor="middle" x="326" y="-346" font-family="Helvetica,sans-Serif" font-size="10.00" fill="#000000"> MortalityModel &gt;</text>
</g>
<!-- Node4&#45;&gt;Node8 -->
<g id="edge11" class="edge">
<title>Node4&#45;&gt;Node8</title>
<path fill="none" stroke="#9a32cd" stroke-dasharray="5,2" d="M170.7597,-188.7818C179.588,-206.9313 194.1442,-234.854 210,-257 233.4433,-289.7436 239.33,-299.1255 271,-324 278.0141,-329.509 286.1778,-334.5669 294.0349,-338.8973"/>
<polygon fill="#9a32cd" stroke="#9a32cd" points="173.8306,-187.0901 166.3647,-179.5727 167.5131,-190.1051 173.8306,-187.0901"/>
<text text-anchor="middle" x="231.5" y="-311" font-family="Helvetica,sans-Serif" font-size="10.00" fill="#000000"> keys</text>
</g>
<!-- Node10 -->
<g id="node10" class="node">
<title>Node10</title>
<polygon fill="none" stroke="#bfbfbf" points="399,-.5 399,-19.5 524,-19.5 524,-.5 399,-.5"/>
<text text-anchor="middle" x="461.5" y="-7.5" font-family="Helvetica,sans-Serif" font-size="10.00" fill="#000000">std::vector&lt; std::string &gt;</text>
</g>
<!-- Node4&#45;&gt;Node10 -->
<g id="edge14" class="edge">
<title>Node4&#45;&gt;Node10</title>
<path fill="none" stroke="#9a32cd" stroke-dasharray="5,2" d="M170.4582,-150.849C185.532,-119.3146 220.2907,-57.2435 271,-30 309.9618,-9.0678 359.8582,-4.4872 398.8113,-4.9177"/>
<polygon fill="#9a32cd" stroke="#9a32cd" points="167.119,-149.7319 166.1062,-160.2782 173.4748,-152.6654 167.119,-149.7319"/>
<text text-anchor="middle" x="231.5" y="-87" font-family="Helvetica,sans-Serif" font-size="10.00" fill="#000000"> elements</text>
</g>
<!-- Node5 -->
<g id="node5" class="node">
<title>Node5</title>
<g id="a_node5"><a xlink:title="STL class. ">
<polygon fill="none" stroke="#bfbfbf" points="0,-155 0,-185 95,-185 95,-155 0,-155"/>
<text text-anchor="start" x="8" y="-173" font-family="Helvetica,sans-Serif" font-size="10.00" fill="#000000">std::basic_string&lt;</text>
<text text-anchor="middle" x="47.5" y="-162" font-family="Helvetica,sans-Serif" font-size="10.00" fill="#000000"> char &gt;</text>
</a>
</g>
</g>
<!-- Node5&#45;&gt;Node4 -->
<g id="edge4" class="edge">
<title>Node5&#45;&gt;Node4</title>
<path fill="none" stroke="#191970" d="M105.3356,-170C114.4701,-170 123.5847,-170 131.7491,-170"/>
<polygon fill="#191970" stroke="#191970" points="105.0636,-166.5001 95.0636,-170 105.0636,-173.5001 105.0636,-166.5001"/>
</g>
<!-- Node6&#45;&gt;Node2 -->
<g id="edge6" class="edge">
<title>Node6&#45;&gt;Node2</title>
<path fill="none" stroke="#9a32cd" stroke-dasharray="5,2" d="M391.3063,-147.9962C439.4438,-152.416 503.04,-158.2552 541.7945,-161.8135"/>
<polygon fill="#9a32cd" stroke="#9a32cd" points="391.5616,-144.505 381.2834,-147.0759 390.9215,-151.4757 391.5616,-144.505"/>
<text text-anchor="middle" x="461.5" y="-163" font-family="Helvetica,sans-Serif" font-size="10.00" fill="#000000"> growth_names_map</text>
</g>
<!-- Node7&#45;&gt;Node2 -->
<g id="edge8" class="edge">
<title>Node7&#45;&gt;Node2</title>
<path fill="none" stroke="#9a32cd" stroke-dasharray="5,2" d="M391.3752,-107.416C393.949,-107.9559 396.498,-108.4857 399,-109 454.4118,-120.39 471.2282,-112.6202 524,-133 538.538,-138.6144 553.5695,-148.2331 563.8031,-155.4625"/>
<polygon fill="#9a32cd" stroke="#9a32cd" points="391.8794,-103.9451 381.3709,-105.2949 390.4275,-110.7929 391.8794,-103.9451"/>
<text text-anchor="middle" x="461.5" y="-136" font-family="Helvetica,sans-Serif" font-size="10.00" fill="#000000"> maturation_names_map</text>
</g>
<!-- Node8&#45;&gt;Node2 -->
<g id="edge10" class="edge">
<title>Node8&#45;&gt;Node2</title>
<path fill="none" stroke="#9a32cd" stroke-dasharray="5,2" d="M385.299,-335.5402C427.8321,-319.9599 484.3889,-294.1901 524,-257 549.8753,-232.7063 566.5751,-192.7525 573.2276,-174.559"/>
<polygon fill="#9a32cd" stroke="#9a32cd" points="383.8683,-332.3347 375.6296,-338.9962 386.2242,-338.9263 383.8683,-332.3347"/>
<text text-anchor="middle" x="461.5" y="-331" font-family="Helvetica,sans-Serif" font-size="10.00" fill="#000000"> mortality_names_map</text>
</g>
<!-- Node9 -->
<g id="node9" class="node">
<title>Node9</title>
<polygon fill="none" stroke="#bfbfbf" points="271,-39.5 271,-58.5 381,-58.5 381,-39.5 271,-39.5"/>
<text text-anchor="middle" x="326" y="-46.5" font-family="Helvetica,sans-Serif" font-size="10.00" fill="#000000">std::vector&lt; double &gt;</text>
</g>
<!-- Node9&#45;&gt;Node1 -->
<g id="edge15" class="edge">
<title>Node9&#45;&gt;Node1</title>
<path fill="none" stroke="#9a32cd" stroke-dasharray="5,2" d="M391.3108,-47.714C474.892,-46.0682 614.7454,-43.3144 663.827,-42.348"/>
<polygon fill="#9a32cd" stroke="#9a32cd" points="391.0859,-44.2176 381.1568,-47.9139 391.2238,-51.2163 391.0859,-44.2176"/>
<text text-anchor="middle" x="576.5" y="-59" font-family="Helvetica,sans-Serif" font-size="10.00" fill="#000000"> trait_scalars</text>
<text text-anchor="middle" x="576.5" y="-48" font-family="Helvetica,sans-Serif" font-size="10.00" fill="#000000">trait_variances</text>
</g>
<!-- Node9&#45;&gt;Node2 -->
<g id="edge12" class="edge">
<title>Node9&#45;&gt;Node2</title>
<path fill="none" stroke="#9a32cd" stroke-dasharray="5,2" d="M391.1189,-53.6259C444.4961,-57.9008 512.981,-64.6817 524,-72 554.2719,-92.1051 568.9645,-135.9392 574.1887,-155.382"/>
<polygon fill="#9a32cd" stroke="#9a32cd" points="391.2497,-50.1255 381.0062,-52.8311 390.7012,-57.104 391.2497,-50.1255"/>
<text text-anchor="middle" x="461.5" y="-97" font-family="Helvetica,sans-Serif" font-size="10.00" fill="#000000"> mam</text>
<text text-anchor="middle" x="461.5" y="-86" font-family="Helvetica,sans-Serif" font-size="10.00" fill="#000000">ma</text>
<text text-anchor="middle" x="461.5" y="-75" font-family="Helvetica,sans-Serif" font-size="10.00" fill="#000000">mai</text>
</g>
<!-- Node10&#45;&gt;Node1 -->
<g id="edge13" class="edge">
<title>Node10&#45;&gt;Node1</title>
<path fill="none" stroke="#9a32cd" stroke-dasharray="5,2" d="M534.6708,-2.9887C559.1849,-2.36 586.5032,-3.5504 611,-9 631.1832,-13.49 652.4233,-24.4004 666.2476,-32.453"/>
<polygon fill="#9a32cd" stroke="#9a32cd" points="534.2196,.4973 524.3529,-3.3625 534.473,-6.4981 534.2196,.4973"/>
<text text-anchor="middle" x="576.5" y="-12" font-family="Helvetica,sans-Serif" font-size="10.00" fill="#000000"> trait_names</text>
</g>
</g>
</svg>
