<?xml version="1.0" encoding="UTF-8" standalone="no"?>
<!DOCTYPE svg PUBLIC "-//W3C//DTD SVG 1.1//EN"
 "http://www.w3.org/Graphics/SVG/1.1/DTD/svg11.dtd">
<!-- Generated by graphviz version 2.40.1 (20161225.0304)
 -->
<!-- Title: Tensor::max_dim Pages: 1 -->
<svg width="511pt" height="66pt"
 viewBox="0.00 0.00 511.00 66.00" xmlns="http://www.w3.org/2000/svg" xmlns:xlink="http://www.w3.org/1999/xlink">
<g id="graph0" class="graph" transform="scale(1 1) rotate(0) translate(4 62)">
<title>Tensor::max_dim</title>
<!-- Node57 -->
<g id="node1" class="node">
<title>Node57</title>
<polygon fill="#bfbfbf" stroke="#000000" points="0,-19.5 0,-38.5 92,-38.5 92,-19.5 0,-19.5"/>
<text text-anchor="middle" x="46" y="-26.5" font-family="Helvetica,sans-Serif" font-size="10.00" fill="#000000">Tensor::max_dim</text>
</g>
<!-- Node58 -->
<g id="node2" class="node">
<title>Node58</title>
<g id="a_node2"><a xlink:href="classTensor.html#a447f65c9ada7c9357091fba66ad73d10" target="_top" xlink:title="Tensor::accumulate">
<polygon fill="none" stroke="#000000" points="128,-19.5 128,-38.5 231,-38.5 231,-19.5 128,-19.5"/>
<text text-anchor="middle" x="179.5" y="-26.5" font-family="Helvetica,sans-Serif" font-size="10.00" fill="#000000">Tensor::accumulate</text>
</a>
</g>
</g>
<!-- Node57&#45;&gt;Node58 -->
<g id="edge1" class="edge">
<title>Node57&#45;&gt;Node58</title>
<path fill="none" stroke="#191970" d="M92.3172,-29C100.4552,-29 109.0417,-29 117.5248,-29"/>
<polygon fill="#191970" stroke="#191970" points="117.784,-32.5001 127.7839,-29 117.7839,-25.5001 117.784,-32.5001"/>
</g>
<!-- Node59 -->
<g id="node3" class="node">
<title>Node59</title>
<g id="a_node3"><a xlink:href="classTensor.html#a862952dc137707abdccd06cf9cd5855b" target="_top" xlink:title="Tensor::plane">
<polygon fill="none" stroke="#000000" points="291,-38.5 291,-57.5 367,-57.5 367,-38.5 291,-38.5"/>
<text text-anchor="middle" x="329" y="-45.5" font-family="Helvetica,sans-Serif" font-size="10.00" fill="#000000">Tensor::plane</text>
</a>
</g>
</g>
<!-- Node58&#45;&gt;Node59 -->
<g id="edge2" class="edge">
<title>Node58&#45;&gt;Node59</title>
<path fill="none" stroke="#191970" d="M231.3683,-35.592C247.4182,-37.6317 265.0256,-39.8695 280.8152,-41.8762"/>
<polygon fill="#191970" stroke="#191970" points="280.5326,-45.3683 290.8941,-43.1571 281.4152,-38.4242 280.5326,-45.3683"/>
</g>
<!-- Node61 -->
<g id="node5" class="node">
<title>Node61</title>
<g id="a_node5"><a xlink:href="classTensor.html#abbfd4d8d3390394254f1d42fcb845bd2" target="_top" xlink:title="Tensor::accumulate_dim">
<polygon fill="none" stroke="#000000" points="267,-.5 267,-19.5 391,-19.5 391,-.5 267,-.5"/>
<text text-anchor="middle" x="329" y="-7.5" font-family="Helvetica,sans-Serif" font-size="10.00" fill="#000000">Tensor::accumulate_dim</text>
</a>
</g>
</g>
<!-- Node58&#45;&gt;Node61 -->
<g id="edge4" class="edge">
<title>Node58&#45;&gt;Node61</title>
<path fill="none" stroke="#191970" d="M231.3683,-22.408C239.612,-21.3604 248.2665,-20.2604 256.8747,-19.1664"/>
<polygon fill="#191970" stroke="#191970" points="257.4522,-22.6213 266.9311,-17.8884 256.5696,-15.6771 257.4522,-22.6213"/>
</g>
<!-- Node60 -->
<g id="node4" class="node">
<title>Node60</title>
<g id="a_node4"><a xlink:href="classTensor.html#a90a6b28226bcd1be7090fd2f8782d0b1" target="_top" xlink:title="Tensor::index">
<polygon fill="none" stroke="#000000" points="427,-38.5 427,-57.5 503,-57.5 503,-38.5 427,-38.5"/>
<text text-anchor="middle" x="465" y="-45.5" font-family="Helvetica,sans-Serif" font-size="10.00" fill="#000000">Tensor::index</text>
</a>
</g>
</g>
<!-- Node59&#45;&gt;Node60 -->
<g id="edge3" class="edge">
<title>Node59&#45;&gt;Node60</title>
<path fill="none" stroke="#191970" d="M367.2455,-48C382.4552,-48 400.1389,-48 416.2511,-48"/>
<polygon fill="#191970" stroke="#191970" points="416.5704,-51.5001 426.5703,-48 416.5703,-44.5001 416.5704,-51.5001"/>
</g>
</g>
</svg>
