<?xml version="1.0" encoding="UTF-8" standalone="no"?>
<!DOCTYPE svg PUBLIC "-//W3C//DTD SVG 1.1//EN"
 "http://www.w3.org/Graphics/SVG/1.1/DTD/svg11.dtd">
<!-- Generated by graphviz version 2.40.1 (20161225.0304)
 -->
<!-- Title: Population::init Pages: 1 -->
<svg width="500pt" height="160pt"
 viewBox="0.00 0.00 500.00 160.00" xmlns="http://www.w3.org/2000/svg" xmlns:xlink="http://www.w3.org/1999/xlink">
<g id="graph0" class="graph" transform="scale(1 1) rotate(0) translate(4 156)">
<title>Population::init</title>
<!-- Node21 -->
<g id="node1" class="node">
<title>Node21</title>
<polygon fill="#bfbfbf" stroke="#000000" points="0,-66.5 0,-85.5 81,-85.5 81,-66.5 0,-66.5"/>
<text text-anchor="middle" x="40.5" y="-73.5" font-family="Helvetica,sans-Serif" font-size="10.00" fill="#000000">Population::init</text>
</g>
<!-- Node22 -->
<g id="node2" class="node">
<title>Node22</title>
<g id="a_node2"><a xlink:href="fish__glue_8cpp.html#ab96ae82277aa9004dc603b77512c7265" target="_top" xlink:title="RCPP_MODULE">
<polygon fill="none" stroke="#000000" points="121,-132.5 121,-151.5 214,-151.5 214,-132.5 121,-132.5"/>
<text text-anchor="middle" x="167.5" y="-139.5" font-family="Helvetica,sans-Serif" font-size="10.00" fill="#000000">RCPP_MODULE</text>
</a>
</g>
</g>
<!-- Node21&#45;&gt;Node22 -->
<g id="edge1" class="edge">
<title>Node21&#45;&gt;Node22</title>
<path fill="none" stroke="#191970" d="M62.9545,-91.3747C77.8655,-101.1837 98.1035,-113.746 117,-123 124.0667,-126.4607 131.933,-129.696 139.3133,-132.4812"/>
<polygon fill="#191970" stroke="#191970" points="64.6788,-88.3177 54.4183,-85.6773 60.7928,-94.1399 64.6788,-88.3177"/>
</g>
<!-- Node23 -->
<g id="node3" class="node">
<title>Node23</title>
<g id="a_node3"><a xlink:href="classSimulator.html#a4734ed6f01bdac62f74ebd20dd761f2b" target="_top" xlink:title="Simulator::simulate\l_multi">
<polygon fill="none" stroke="#000000" points="117,-83 117,-113 218,-113 218,-83 117,-83"/>
<text text-anchor="start" x="125" y="-101" font-family="Helvetica,sans-Serif" font-size="10.00" fill="#000000">Simulator::simulate</text>
<text text-anchor="middle" x="167.5" y="-90" font-family="Helvetica,sans-Serif" font-size="10.00" fill="#000000">_multi</text>
</a>
</g>
</g>
<!-- Node21&#45;&gt;Node23 -->
<g id="edge2" class="edge">
<title>Node21&#45;&gt;Node23</title>
<path fill="none" stroke="#191970" d="M91.0936,-84.7642C99.5042,-86.2212 108.2303,-87.7328 116.6474,-89.1909"/>
<polygon fill="#191970" stroke="#191970" points="91.4835,-81.2797 81.0328,-83.0214 90.2886,-88.177 91.4835,-81.2797"/>
</g>
<!-- Node26 -->
<g id="node6" class="node">
<title>Node26</title>
<g id="a_node6"><a xlink:href="classSimulator.html#a636e7a83b462c3e48769a85ae350e742" target="_top" xlink:title="Simulator::simulate\l_multi_2d">
<polygon fill="none" stroke="#000000" points="258,-39 258,-69 359,-69 359,-39 258,-39"/>
<text text-anchor="start" x="266" y="-57" font-family="Helvetica,sans-Serif" font-size="10.00" fill="#000000">Simulator::simulate</text>
<text text-anchor="middle" x="308.5" y="-46" font-family="Helvetica,sans-Serif" font-size="10.00" fill="#000000">_multi_2d</text>
</a>
</g>
</g>
<!-- Node21&#45;&gt;Node26 -->
<g id="edge5" class="edge">
<title>Node21&#45;&gt;Node26</title>
<path fill="none" stroke="#191970" d="M91.3161,-71.8285C139.05,-67.9101 210.0822,-62.0791 257.7836,-58.1633"/>
<polygon fill="#191970" stroke="#191970" points="90.8835,-68.3522 81.2034,-72.6587 91.4563,-75.3287 90.8835,-68.3522"/>
</g>
<!-- Node27 -->
<g id="node7" class="node">
<title>Node27</title>
<g id="a_node7"><a xlink:href="classSimulator.html#a16eef6e60e97dabc2a1205b58b10182c" target="_top" xlink:title="Simulator::simulate_r">
<polygon fill="none" stroke="#000000" points="254,-.5 254,-19.5 363,-19.5 363,-.5 254,-.5"/>
<text text-anchor="middle" x="308.5" y="-7.5" font-family="Helvetica,sans-Serif" font-size="10.00" fill="#000000">Simulator::simulate_r</text>
</a>
</g>
</g>
<!-- Node21&#45;&gt;Node27 -->
<g id="edge7" class="edge">
<title>Node21&#45;&gt;Node27</title>
<path fill="none" stroke="#191970" d="M88.9364,-63.9486C98.2491,-61.6376 107.9262,-59.2403 117,-57 169.844,-43.9529 230.9184,-28.9822 269.6145,-19.5103"/>
<polygon fill="#191970" stroke="#191970" points="87.8818,-60.6041 79.02,-66.4109 89.5687,-67.3978 87.8818,-60.6041"/>
</g>
<!-- Node24 -->
<g id="node4" class="node">
<title>Node24</title>
<g id="a_node4"><a xlink:href="classSimulator.html#adb6faf4ee69f21998ce7dc79c065a3e9" target="_top" xlink:title="Simulator::simulate\l_multi_r">
<polygon fill="none" stroke="#000000" points="258,-88 258,-118 359,-118 359,-88 258,-88"/>
<text text-anchor="start" x="266" y="-106" font-family="Helvetica,sans-Serif" font-size="10.00" fill="#000000">Simulator::simulate</text>
<text text-anchor="middle" x="308.5" y="-95" font-family="Helvetica,sans-Serif" font-size="10.00" fill="#000000">_multi_r</text>
</a>
</g>
</g>
<!-- Node23&#45;&gt;Node24 -->
<g id="edge3" class="edge">
<title>Node23&#45;&gt;Node24</title>
<path fill="none" stroke="#191970" d="M228.1916,-100.1522C238.0892,-100.5032 248.2499,-100.8635 257.8727,-101.2047"/>
<polygon fill="#191970" stroke="#191970" points="228.1238,-96.6477 218.006,-99.791 227.8756,-103.6433 228.1238,-96.6477"/>
</g>
<!-- Node25 -->
<g id="node5" class="node">
<title>Node25</title>
<g id="a_node5"><a xlink:href="fish__glue_8cpp.html#addebb0997b0e49067d8784c9954b7b96" target="_top" xlink:title="RCPP_MODULE">
<polygon fill="none" stroke="#000000" points="399,-44.5 399,-63.5 492,-63.5 492,-44.5 399,-44.5"/>
<text text-anchor="middle" x="445.5" y="-51.5" font-family="Helvetica,sans-Serif" font-size="10.00" fill="#000000">RCPP_MODULE</text>
</a>
</g>
</g>
<!-- Node24&#45;&gt;Node25 -->
<g id="edge4" class="edge">
<title>Node24&#45;&gt;Node25</title>
<path fill="none" stroke="#191970" d="M360.3007,-84.4728C380.2049,-77.3537 402.1124,-69.5182 418.728,-63.5754"/>
<polygon fill="#191970" stroke="#191970" points="358.9595,-81.2352 350.7224,-87.8986 361.317,-87.8263 358.9595,-81.2352"/>
</g>
<!-- Node26&#45;&gt;Node25 -->
<g id="edge6" class="edge">
<title>Node26&#45;&gt;Node25</title>
<path fill="none" stroke="#191970" d="M369.2947,-54C379.1625,-54 389.2464,-54 398.7131,-54"/>
<polygon fill="#191970" stroke="#191970" points="369.1245,-50.5001 359.1245,-54 369.1245,-57.5001 369.1245,-50.5001"/>
</g>
<!-- Node27&#45;&gt;Node25 -->
<g id="edge8" class="edge">
<title>Node27&#45;&gt;Node25</title>
<path fill="none" stroke="#191970" d="M347.8015,-22.6224C369.4627,-29.5793 395.9162,-38.0753 415.8311,-44.4713"/>
<polygon fill="#191970" stroke="#191970" points="348.8182,-19.2729 338.227,-19.5473 346.6777,-25.9376 348.8182,-19.2729"/>
</g>
</g>
</svg>
