<?xml version="1.0" encoding="UTF-8" standalone="no"?>
<!DOCTYPE svg PUBLIC "-//W3C//DTD SVG 1.1//EN"
 "http://www.w3.org/Graphics/SVG/1.1/DTD/svg11.dtd">
<!-- Generated by graphviz version 2.40.1 (20161225.0304)
 -->
<!-- Title: io::Initializer::get_value Pages: 1 -->
<svg width="513pt" height="78pt"
 viewBox="0.00 0.00 513.00 77.50" xmlns="http://www.w3.org/2000/svg" xmlns:xlink="http://www.w3.org/1999/xlink">
<g id="graph0" class="graph" transform="scale(1 1) rotate(0) translate(4 73.5)">
<title>io::Initializer::get_value</title>
<!-- Node17 -->
<g id="node1" class="node">
<title>Node17</title>
<polygon fill="#bfbfbf" stroke="#000000" points="0,-22.5 0,-52.5 89,-52.5 89,-22.5 0,-22.5"/>
<text text-anchor="start" x="8" y="-40.5" font-family="Helvetica,sans-Serif" font-size="10.00" fill="#000000">io::Initializer::get</text>
<text text-anchor="middle" x="44.5" y="-29.5" font-family="Helvetica,sans-Serif" font-size="10.00" fill="#000000">_value</text>
</g>
<!-- Node18 -->
<g id="node2" class="node">
<title>Node18</title>
<g id="a_node2"><a xlink:href="classio_1_1Initializer.html#a098a8511a950a4449925c8315af36bdb" target="_top" xlink:title="io::Initializer::get">
<polygon fill="none" stroke="#000000" points="125,-50 125,-69 214,-69 214,-50 125,-50"/>
<text text-anchor="middle" x="169.5" y="-57" font-family="Helvetica,sans-Serif" font-size="10.00" fill="#000000">io::Initializer::get</text>
</a>
</g>
</g>
<!-- Node17&#45;&gt;Node18 -->
<g id="edge1" class="edge">
<title>Node17&#45;&gt;Node18</title>
<path fill="none" stroke="#191970" d="M99.1365,-47.116C107.6475,-48.614 116.3562,-50.1467 124.6177,-51.6007"/>
<polygon fill="#191970" stroke="#191970" points="99.7301,-43.6668 89.2748,-45.3804 98.5167,-50.5608 99.7301,-43.6668"/>
</g>
<!-- Node21 -->
<g id="node5" class="node">
<title>Node21</title>
<g id="a_node5"><a xlink:href="classio_1_1Initializer.html#a92f49c1ad4e16a85f3f0f12201cb9707" target="_top" xlink:title="io::Initializer::get\l_vector">
<polygon fill="none" stroke="#000000" points="125,-.5 125,-30.5 214,-30.5 214,-.5 125,-.5"/>
<text text-anchor="start" x="133" y="-18.5" font-family="Helvetica,sans-Serif" font-size="10.00" fill="#000000">io::Initializer::get</text>
<text text-anchor="middle" x="169.5" y="-7.5" font-family="Helvetica,sans-Serif" font-size="10.00" fill="#000000">_vector</text>
</a>
</g>
</g>
<!-- Node17&#45;&gt;Node21 -->
<g id="edge4" class="edge">
<title>Node17&#45;&gt;Node21</title>
<path fill="none" stroke="#191970" d="M99.1365,-27.884C107.6475,-26.386 116.3562,-24.8533 124.6177,-23.3993"/>
<polygon fill="#191970" stroke="#191970" points="98.5167,-24.4392 89.2748,-29.6196 99.7301,-31.3332 98.5167,-24.4392"/>
</g>
<!-- Node19 -->
<g id="node3" class="node">
<title>Node19</title>
<g id="a_node3"><a xlink:href="classFishParams.html#a6a7122ea93777817165dfb09c1d840ac" target="_top" xlink:title="FishParams::initFromFile">
<polygon fill="none" stroke="#000000" points="250,-50 250,-69 376,-69 376,-50 250,-50"/>
<text text-anchor="middle" x="313" y="-57" font-family="Helvetica,sans-Serif" font-size="10.00" fill="#000000">FishParams::initFromFile</text>
</a>
</g>
</g>
<!-- Node18&#45;&gt;Node19 -->
<g id="edge2" class="edge">
<title>Node18&#45;&gt;Node19</title>
<path fill="none" stroke="#191970" d="M224.1964,-59.5C232.6222,-59.5 241.3811,-59.5 249.9707,-59.5"/>
<polygon fill="#191970" stroke="#191970" points="224.1177,-56.0001 214.1177,-59.5 224.1177,-63.0001 224.1177,-56.0001"/>
</g>
<!-- Node20 -->
<g id="node4" class="node">
<title>Node20</title>
<g id="a_node4"><a xlink:href="fish__glue_8cpp.html#a7b6a9b6d94c71377c935b2cfbffdfabc" target="_top" xlink:title="RCPP_MODULE">
<polygon fill="none" stroke="#000000" points="412,-50 412,-69 505,-69 505,-50 412,-50"/>
<text text-anchor="middle" x="458.5" y="-57" font-family="Helvetica,sans-Serif" font-size="10.00" fill="#000000">RCPP_MODULE</text>
</a>
</g>
</g>
<!-- Node19&#45;&gt;Node20 -->
<g id="edge3" class="edge">
<title>Node19&#45;&gt;Node20</title>
<path fill="none" stroke="#191970" d="M386.527,-59.5C395.177,-59.5 403.8124,-59.5 411.9439,-59.5"/>
<polygon fill="#191970" stroke="#191970" points="386.3952,-56.0001 376.3952,-59.5 386.3951,-63.0001 386.3952,-56.0001"/>
</g>
</g>
</svg>
