<?xml version="1.0" encoding="UTF-8" standalone="no"?>
<!DOCTYPE svg PUBLIC "-//W3C//DTD SVG 1.1//EN"
 "http://www.w3.org/Graphics/SVG/1.1/DTD/svg11.dtd">
<!-- Generated by graphviz version 2.40.1 (20161225.0304)
 -->
<!-- Title: Tensor::index Pages: 1 -->
<svg width="744pt" height="192pt"
 viewBox="0.00 0.00 744.00 191.63" xmlns="http://www.w3.org/2000/svg" xmlns:xlink="http://www.w3.org/1999/xlink">
<g id="graph0" class="graph" transform="scale(1 1) rotate(0) translate(4 187.6272)">
<title>Tensor::index</title>
<!-- Node38 -->
<g id="node1" class="node">
<title>Node38</title>
<polygon fill="#bfbfbf" stroke="#000000" points="0,-93.6272 0,-112.6272 76,-112.6272 76,-93.6272 0,-93.6272"/>
<text text-anchor="middle" x="38" y="-100.6272" font-family="Helvetica,sans-Serif" font-size="10.00" fill="#000000">Tensor::index</text>
</g>
<!-- Node39 -->
<g id="node2" class="node">
<title>Node39</title>
<g id="a_node2"><a xlink:href="classTensor.html#af29c0ff50c2dbd82543cbc0d2ff95358" target="_top" xlink:title="Tensor::print">
<polygon fill="none" stroke="#000000" points="114.5,-112.6272 114.5,-131.6272 185.5,-131.6272 185.5,-112.6272 114.5,-112.6272"/>
<text text-anchor="middle" x="150" y="-119.6272" font-family="Helvetica,sans-Serif" font-size="10.00" fill="#000000">Tensor::print</text>
</a>
</g>
</g>
<!-- Node38&#45;&gt;Node39 -->
<g id="edge1" class="edge">
<title>Node38&#45;&gt;Node39</title>
<path fill="none" stroke="#191970" d="M86.246,-111.3118C95.6301,-112.9038 105.3103,-114.5459 114.2052,-116.0549"/>
<polygon fill="#191970" stroke="#191970" points="86.6753,-107.8347 76.2308,-109.6128 85.5045,-114.7361 86.6753,-107.8347"/>
</g>
<!-- Node40 -->
<g id="node3" class="node">
<title>Node40</title>
<g id="a_node3"><a xlink:href="classTensor.html#a862952dc137707abdccd06cf9cd5855b" target="_top" xlink:title="Tensor::plane">
<polygon fill="none" stroke="#000000" points="112,-74.6272 112,-93.6272 188,-93.6272 188,-74.6272 112,-74.6272"/>
<text text-anchor="middle" x="150" y="-81.6272" font-family="Helvetica,sans-Serif" font-size="10.00" fill="#000000">Tensor::plane</text>
</a>
</g>
</g>
<!-- Node38&#45;&gt;Node40 -->
<g id="edge2" class="edge">
<title>Node38&#45;&gt;Node40</title>
<path fill="none" stroke="#191970" d="M86.1781,-94.9541C94.7931,-93.4927 103.66,-91.9885 111.9415,-90.5836"/>
<polygon fill="#191970" stroke="#191970" points="85.5045,-91.5183 76.2308,-96.6416 86.6753,-98.4197 85.5045,-91.5183"/>
</g>
<!-- Node41 -->
<g id="node4" class="node">
<title>Node41</title>
<g id="a_node4"><a xlink:href="classTensor.html#a3986d7a50faef0249a8d2da5b1f67a89" target="_top" xlink:title="Tensor::transform">
<polygon fill="none" stroke="#000000" points="363,-131.6272 363,-150.6272 457,-150.6272 457,-131.6272 363,-131.6272"/>
<text text-anchor="middle" x="410" y="-138.6272" font-family="Helvetica,sans-Serif" font-size="10.00" fill="#000000">Tensor::transform</text>
</a>
</g>
</g>
<!-- Node40&#45;&gt;Node41 -->
<g id="edge3" class="edge">
<title>Node40&#45;&gt;Node41</title>
<path fill="none" stroke="#191970" d="M197.9794,-94.6458C246.252,-105.2286 320.0319,-121.4035 366.6059,-131.6139"/>
<polygon fill="#191970" stroke="#191970" points="198.6022,-91.1993 188.0847,-92.4766 197.1032,-98.0369 198.6022,-91.1993"/>
</g>
<!-- Node47 -->
<g id="node10" class="node">
<title>Node47</title>
<g id="a_node10"><a xlink:href="classTensor.html#a447f65c9ada7c9357091fba66ad73d10" target="_top" xlink:title="Tensor::accumulate">
<polygon fill="none" stroke="#000000" points="224,-55.6272 224,-74.6272 327,-74.6272 327,-55.6272 224,-55.6272"/>
<text text-anchor="middle" x="275.5" y="-62.6272" font-family="Helvetica,sans-Serif" font-size="10.00" fill="#000000">Tensor::accumulate</text>
</a>
</g>
</g>
<!-- Node40&#45;&gt;Node47 -->
<g id="edge12" class="edge">
<title>Node40&#45;&gt;Node47</title>
<path fill="none" stroke="#191970" d="M198.3549,-76.8066C206.752,-75.5353 215.5127,-74.209 223.9903,-72.9255"/>
<polygon fill="#191970" stroke="#191970" points="197.6995,-73.3658 188.3361,-78.3234 198.7473,-80.2869 197.6995,-73.3658"/>
</g>
<!-- Node42 -->
<g id="node5" class="node">
<title>Node42</title>
<g id="a_node5"><a xlink:href="classSimulator.html#addbc3da16a6f9c352eefbdc423419bca" target="_top" xlink:title="Simulator::max_avg\l_utils">
<polygon fill="none" stroke="#000000" points="498,-153.1272 498,-183.1272 602,-183.1272 602,-153.1272 498,-153.1272"/>
<text text-anchor="start" x="506" y="-171.1272" font-family="Helvetica,sans-Serif" font-size="10.00" fill="#000000">Simulator::max_avg</text>
<text text-anchor="middle" x="550" y="-160.1272" font-family="Helvetica,sans-Serif" font-size="10.00" fill="#000000">_utils</text>
</a>
</g>
</g>
<!-- Node41&#45;&gt;Node42 -->
<g id="edge4" class="edge">
<title>Node41&#45;&gt;Node42</title>
<path fill="none" stroke="#191970" d="M466.9694,-152.1142C477.0897,-154.066 487.5868,-156.0904 497.5736,-158.0164"/>
<polygon fill="#191970" stroke="#191970" points="467.4893,-148.65 457.0074,-150.1929 466.1637,-155.5234 467.4893,-148.65"/>
</g>
<!-- Node44 -->
<g id="node7" class="node">
<title>Node44</title>
<g id="a_node7"><a xlink:href="classSimulator.html#a1b66b7260ff50758884d1f7361a1b988" target="_top" xlink:title="Simulator::stakeholder\l_satisfaction">
<polygon fill="none" stroke="#000000" points="493,-6.1272 493,-36.1272 607,-36.1272 607,-6.1272 493,-6.1272"/>
<text text-anchor="start" x="501" y="-24.1272" font-family="Helvetica,sans-Serif" font-size="10.00" fill="#000000">Simulator::stakeholder</text>
<text text-anchor="middle" x="550" y="-13.1272" font-family="Helvetica,sans-Serif" font-size="10.00" fill="#000000">_satisfaction</text>
</a>
</g>
</g>
<!-- Node41&#45;&gt;Node44 -->
<g id="edge6" class="edge">
<title>Node41&#45;&gt;Node44</title>
<path fill="none" stroke="#191970" d="M452.2251,-126.0604C453.9123,-124.8441 455.5151,-123.5352 457,-122.1272 484.4135,-96.1338 465.7737,-71.3167 493,-45.1272 496.5596,-41.7032 500.6804,-38.7347 505.0457,-36.1687"/>
<polygon fill="#191970" stroke="#191970" points="450.0508,-123.2811 443.243,-131.3993 453.6275,-129.2984 450.0508,-123.2811"/>
</g>
<!-- Node45 -->
<g id="node8" class="node">
<title>Node45</title>
<g id="a_node8"><a xlink:href="classSimulator.html#a32eeba843e7526dceb75a2c6aebe240e" target="_top" xlink:title="Simulator::max_avg\l_utils_2d">
<polygon fill="none" stroke="#000000" points="498,-104.1272 498,-134.1272 602,-134.1272 602,-104.1272 498,-104.1272"/>
<text text-anchor="start" x="506" y="-122.1272" font-family="Helvetica,sans-Serif" font-size="10.00" fill="#000000">Simulator::max_avg</text>
<text text-anchor="middle" x="550" y="-111.1272" font-family="Helvetica,sans-Serif" font-size="10.00" fill="#000000">_utils_2d</text>
</a>
</g>
</g>
<!-- Node41&#45;&gt;Node45 -->
<g id="edge8" class="edge">
<title>Node41&#45;&gt;Node45</title>
<path fill="none" stroke="#191970" d="M466.9694,-132.1749C477.0897,-130.5845 487.5868,-128.935 497.5736,-127.3657"/>
<polygon fill="#191970" stroke="#191970" points="466.3428,-128.7303 457.0074,-133.7403 467.4296,-135.6454 466.3428,-128.7303"/>
</g>
<!-- Node46 -->
<g id="node9" class="node">
<title>Node46</title>
<g id="a_node9"><a xlink:href="classSimulator.html#aac842e5498b4c9731910ce9a93fa555d" target="_top" xlink:title="Simulator::stakeholder\l_satisfaction_2d">
<polygon fill="none" stroke="#000000" points="493,-55.1272 493,-85.1272 607,-85.1272 607,-55.1272 493,-55.1272"/>
<text text-anchor="start" x="501" y="-73.1272" font-family="Helvetica,sans-Serif" font-size="10.00" fill="#000000">Simulator::stakeholder</text>
<text text-anchor="middle" x="550" y="-62.1272" font-family="Helvetica,sans-Serif" font-size="10.00" fill="#000000">_satisfaction_2d</text>
</a>
</g>
</g>
<!-- Node41&#45;&gt;Node46 -->
<g id="edge10" class="edge">
<title>Node41&#45;&gt;Node46</title>
<path fill="none" stroke="#191970" d="M446.7469,-127.3606C450.2712,-125.7175 453.7425,-123.9658 457,-122.1272 474.4173,-112.2968 475.7279,-105.2105 493,-95.1272 499.0658,-91.5861 505.726,-88.2315 512.2877,-85.1969"/>
<polygon fill="#191970" stroke="#191970" points="445.1675,-124.2311 437.4045,-131.4413 447.9694,-130.6459 445.1675,-124.2311"/>
</g>
<!-- Node43 -->
<g id="node6" class="node">
<title>Node43</title>
<g id="a_node6"><a xlink:href="fish__glue_8cpp.html#addebb0997b0e49067d8784c9954b7b96" target="_top" xlink:title="RCPP_MODULE">
<polygon fill="none" stroke="#000000" points="643,-84.6272 643,-103.6272 736,-103.6272 736,-84.6272 643,-84.6272"/>
<text text-anchor="middle" x="689.5" y="-91.6272" font-family="Helvetica,sans-Serif" font-size="10.00" fill="#000000">RCPP_MODULE</text>
</a>
</g>
</g>
<!-- Node42&#45;&gt;Node43 -->
<g id="edge5" class="edge">
<title>Node42&#45;&gt;Node43</title>
<path fill="none" stroke="#191970" d="M597.3739,-148.813C600.6566,-147.2812 603.893,-145.7121 607,-144.1272 631.7659,-131.4942 659.1024,-114.2211 675.2624,-103.6373"/>
<polygon fill="#191970" stroke="#191970" points="595.7428,-145.7092 588.0682,-153.0134 598.6227,-152.0894 595.7428,-145.7092"/>
</g>
<!-- Node44&#45;&gt;Node43 -->
<g id="edge7" class="edge">
<title>Node44&#45;&gt;Node43</title>
<path fill="none" stroke="#191970" d="M596.8975,-40.26C600.3416,-41.852 603.7406,-43.4829 607,-45.1272 631.3921,-57.4329 658.3898,-74.0815 674.6442,-84.4585"/>
<polygon fill="#191970" stroke="#191970" points="598.2972,-37.0519 587.7404,-36.154 595.4331,-43.4392 598.2972,-37.0519"/>
</g>
<!-- Node45&#45;&gt;Node43 -->
<g id="edge9" class="edge">
<title>Node45&#45;&gt;Node43</title>
<path fill="none" stroke="#191970" d="M612.451,-107.9353C622.6636,-106.1051 633.0873,-104.237 642.8333,-102.4904"/>
<polygon fill="#191970" stroke="#191970" points="611.5673,-104.5378 602.3415,-109.747 612.8022,-111.428 611.5673,-104.5378"/>
</g>
<!-- Node46&#45;&gt;Node43 -->
<g id="edge11" class="edge">
<title>Node46&#45;&gt;Node43</title>
<path fill="none" stroke="#191970" d="M617.2613,-81.699C625.9284,-83.1902 634.6468,-84.6901 642.8803,-86.1066"/>
<polygon fill="#191970" stroke="#191970" points="617.5912,-78.2045 607.1425,-79.9582 616.4042,-85.1031 617.5912,-78.2045"/>
</g>
<!-- Node47&#45;&gt;Node44 -->
<g id="edge21" class="edge">
<title>Node47&#45;&gt;Node44</title>
<path fill="none" stroke="#191970" d="M293.5902,-48.7822C310.2525,-34.9111 336.3603,-16.0388 363,-8.1272 405.2718,4.4269 455.184,.0493 492.8058,-6.8533"/>
<polygon fill="#191970" stroke="#191970" points="291.0842,-46.3211 285.785,-55.4955 295.6488,-51.6281 291.0842,-46.3211"/>
</g>
<!-- Node47&#45;&gt;Node46 -->
<g id="edge22" class="edge">
<title>Node47&#45;&gt;Node46</title>
<path fill="none" stroke="#191970" d="M337.409,-66.2549C384.0448,-67.1044 447.4965,-68.2601 492.9151,-69.0874"/>
<polygon fill="#191970" stroke="#191970" points="337.1935,-62.7505 327.1314,-66.0677 337.0659,-69.7493 337.1935,-62.7505"/>
</g>
<!-- Node48 -->
<g id="node11" class="node">
<title>Node48</title>
<g id="a_node11"><a xlink:href="classTensor.html#abf7346c2dbd5e6b195cfe9b66e5049e8" target="_top" xlink:title="Tensor::max_dim">
<polygon fill="none" stroke="#000000" points="364,-17.6272 364,-36.6272 456,-36.6272 456,-17.6272 364,-17.6272"/>
<text text-anchor="middle" x="410" y="-24.6272" font-family="Helvetica,sans-Serif" font-size="10.00" fill="#000000">Tensor::max_dim</text>
</a>
</g>
</g>
<!-- Node47&#45;&gt;Node48 -->
<g id="edge13" class="edge">
<title>Node47&#45;&gt;Node48</title>
<path fill="none" stroke="#191970" d="M319.1004,-52.8089C337.5798,-47.5879 358.7895,-41.5956 376.0708,-36.7132"/>
<polygon fill="#191970" stroke="#191970" points="318.1117,-49.4511 309.44,-55.5382 320.015,-56.1874 318.1117,-49.4511"/>
</g>
<!-- Node49 -->
<g id="node12" class="node">
<title>Node49</title>
<g id="a_node12"><a xlink:href="classTensor.html#a6c8465a488ce260e6e05f1a3ceb8ab26" target="_top" xlink:title="Tensor::avg_dim">
<polygon fill="none" stroke="#000000" points="365.5,-93.6272 365.5,-112.6272 454.5,-112.6272 454.5,-93.6272 365.5,-93.6272"/>
<text text-anchor="middle" x="410" y="-100.6272" font-family="Helvetica,sans-Serif" font-size="10.00" fill="#000000">Tensor::avg_dim</text>
</a>
</g>
</g>
<!-- Node47&#45;&gt;Node49 -->
<g id="edge16" class="edge">
<title>Node47&#45;&gt;Node49</title>
<path fill="none" stroke="#191970" d="M319.1004,-77.4455C337.5798,-82.6665 358.7895,-88.6588 376.0708,-93.5413"/>
<polygon fill="#191970" stroke="#191970" points="320.015,-74.067 309.44,-74.7162 318.1117,-80.8033 320.015,-74.067"/>
</g>
<!-- Node48&#45;&gt;Node44 -->
<g id="edge14" class="edge">
<title>Node48&#45;&gt;Node44</title>
<path fill="none" stroke="#191970" d="M466.2427,-24.7168C474.9161,-24.3451 483.8829,-23.9608 492.5816,-23.588"/>
<polygon fill="#191970" stroke="#191970" points="466.0702,-21.2209 456.2292,-25.146 466.37,-28.2145 466.0702,-21.2209"/>
</g>
<!-- Node48&#45;&gt;Node46 -->
<g id="edge15" class="edge">
<title>Node48&#45;&gt;Node46</title>
<path fill="none" stroke="#191970" d="M451.0065,-39.7221C466.7093,-44.5451 484.7766,-50.0943 501.1423,-55.1209"/>
<polygon fill="#191970" stroke="#191970" points="451.6575,-36.2607 441.0705,-36.6703 449.6022,-42.9522 451.6575,-36.2607"/>
</g>
<!-- Node49&#45;&gt;Node42 -->
<g id="edge17" class="edge">
<title>Node49&#45;&gt;Node42</title>
<path fill="none" stroke="#191970" d="M445.095,-116.5706C449.1531,-118.3435 453.1971,-120.2128 457,-122.1272 473.7487,-130.5584 476.3122,-135.576 493,-144.1272 499.0201,-147.2121 505.5292,-150.2321 511.9221,-153.0323"/>
<polygon fill="#191970" stroke="#191970" points="446.2827,-113.2734 435.7072,-112.6328 443.575,-119.7285 446.2827,-113.2734"/>
</g>
<!-- Node49&#45;&gt;Node44 -->
<g id="edge18" class="edge">
<title>Node49&#45;&gt;Node44</title>
<path fill="none" stroke="#191970" d="M430.3673,-87.0643C446.7022,-74.6408 470.533,-57.5244 493,-45.1272 498.7346,-41.9629 504.9727,-38.9439 511.1487,-36.1806"/>
<polygon fill="#191970" stroke="#191970" points="427.9019,-84.5456 422.1198,-93.4236 432.1762,-90.0891 427.9019,-84.5456"/>
</g>
<!-- Node49&#45;&gt;Node45 -->
<g id="edge19" class="edge">
<title>Node49&#45;&gt;Node45</title>
<path fill="none" stroke="#191970" d="M464.9113,-109.4028C475.7818,-110.6451 487.1619,-111.9457 497.9345,-113.1769"/>
<polygon fill="#191970" stroke="#191970" points="465.0146,-105.8919 454.6818,-108.2337 464.2197,-112.8466 465.0146,-105.8919"/>
</g>
<!-- Node49&#45;&gt;Node46 -->
<g id="edge20" class="edge">
<title>Node49&#45;&gt;Node46</title>
<path fill="none" stroke="#191970" d="M460.385,-91.2508C470.9451,-88.7616 482.1531,-86.1197 492.9368,-83.5778"/>
<polygon fill="#191970" stroke="#191970" points="459.424,-87.8813 450.4938,-93.5823 461.0301,-94.6945 459.424,-87.8813"/>
</g>
</g>
</svg>
