<?xml version="1.0" encoding="UTF-8" standalone="no"?>
<!DOCTYPE svg PUBLIC "-//W3C//DTD SVG 1.1//EN"
 "http://www.w3.org/Graphics/SVG/1.1/DTD/svg11.dtd">
<!-- Generated by graphviz version 2.40.1 (20161225.0304)
 -->
<!-- Title: Population::summarize Pages: 1 -->
<svg width="422pt" height="47pt"
 viewBox="0.00 0.00 422.00 47.00" xmlns="http://www.w3.org/2000/svg" xmlns:xlink="http://www.w3.org/1999/xlink">
<g id="graph0" class="graph" transform="scale(1 1) rotate(0) translate(4 43)">
<title>Population::summarize</title>
<!-- Node156 -->
<g id="node1" class="node">
<title>Node156</title>
<polygon fill="#bfbfbf" stroke="#000000" points="0,-19.5 0,-38.5 116,-38.5 116,-19.5 0,-19.5"/>
<text text-anchor="middle" x="58" y="-26.5" font-family="Helvetica,sans-Serif" font-size="10.00" fill="#000000">Population::summarize</text>
</g>
<!-- Node157 -->
<g id="node2" class="node">
<title>Node157</title>
<g id="a_node2"><a xlink:href="fish__glue_8cpp.html#ab96ae82277aa9004dc603b77512c7265" target="_top" xlink:title="RCPP_MODULE">
<polygon fill="none" stroke="#000000" points="321,-19.5 321,-38.5 414,-38.5 414,-19.5 321,-19.5"/>
<text text-anchor="middle" x="367.5" y="-26.5" font-family="Helvetica,sans-Serif" font-size="10.00" fill="#000000">RCPP_MODULE</text>
</a>
</g>
</g>
<!-- Node156&#45;&gt;Node157 -->
<g id="edge1" class="edge">
<title>Node156&#45;&gt;Node157</title>
<path fill="none" stroke="#191970" d="M126.5613,-29C185.5437,-29 269.0533,-29 320.667,-29"/>
<polygon fill="#191970" stroke="#191970" points="126.2146,-25.5001 116.2146,-29 126.2145,-32.5001 126.2146,-25.5001"/>
</g>
<!-- Node158 -->
<g id="node3" class="node">
<title>Node158</title>
<g id="a_node3"><a xlink:href="classPopulation.html#a345497aa32fe22f73153a59f469c6a19" target="_top" xlink:title="Population::print_summary">
<polygon fill="none" stroke="#000000" points="152,-.5 152,-19.5 285,-19.5 285,-.5 152,-.5"/>
<text text-anchor="middle" x="218.5" y="-7.5" font-family="Helvetica,sans-Serif" font-size="10.00" fill="#000000">Population::print_summary</text>
</a>
</g>
</g>
<!-- Node156&#45;&gt;Node158 -->
<g id="edge2" class="edge">
<title>Node156&#45;&gt;Node158</title>
<path fill="none" stroke="#191970" d="M126.5635,-20.8835C134.9896,-19.886 143.5914,-18.8677 151.9865,-17.8739"/>
<polygon fill="#191970" stroke="#191970" points="125.9174,-17.4354 116.3982,-22.0868 126.7404,-24.3869 125.9174,-17.4354"/>
</g>
<!-- Node158&#45;&gt;Node157 -->
<g id="edge3" class="edge">
<title>Node158&#45;&gt;Node157</title>
<path fill="none" stroke="#191970" d="M295.1072,-19.7687C303.9301,-20.8938 312.7135,-22.0138 320.962,-23.0656"/>
<polygon fill="#191970" stroke="#191970" points="295.518,-16.2928 285.1555,-18.4997 294.6324,-23.2366 295.518,-16.2928"/>
</g>
</g>
</svg>
