<?xml version="1.0" encoding="UTF-8" standalone="no"?>
<!DOCTYPE svg PUBLIC "-//W3C//DTD SVG 1.1//EN"
 "http://www.w3.org/Graphics/SVG/1.1/DTD/svg11.dtd">
<!-- Generated by graphviz version 2.40.1 (20161225.0304)
 -->
<!-- Title: Simulator::simulate_multi Pages: 1 -->
<svg width="531pt" height="180pt"
 viewBox="0.00 0.00 531.00 180.00" xmlns="http://www.w3.org/2000/svg" xmlns:xlink="http://www.w3.org/1999/xlink">
<g id="graph0" class="graph" transform="scale(1 1) rotate(0) translate(4 176)">
<title>Simulator::simulate_multi</title>
<!-- Node25 -->
<g id="node1" class="node">
<title>Node25</title>
<polygon fill="#bfbfbf" stroke="#000000" points="0,-71 0,-101 101,-101 101,-71 0,-71"/>
<text text-anchor="start" x="8" y="-89" font-family="Helvetica,sans-Serif" font-size="10.00" fill="#000000">Simulator::simulate</text>
<text text-anchor="middle" x="50.5" y="-78" font-family="Helvetica,sans-Serif" font-size="10.00" fill="#000000">_multi</text>
</g>
<!-- Node26 -->
<g id="node2" class="node">
<title>Node26</title>
<g id="a_node2"><a xlink:href="classPopulation.html#a20696fa511c914e7c8837acb2a254b33" target="_top" xlink:title="Population::set_harvestProp">
<polygon fill="none" stroke="#000000" points="137,-152.5 137,-171.5 277,-171.5 277,-152.5 137,-152.5"/>
<text text-anchor="middle" x="207" y="-159.5" font-family="Helvetica,sans-Serif" font-size="10.00" fill="#000000">Population::set_harvestProp</text>
</a>
</g>
</g>
<!-- Node25&#45;&gt;Node26 -->
<g id="edge1" class="edge">
<title>Node25&#45;&gt;Node26</title>
<path fill="none" stroke="#191970" d="M69.3913,-101.0118C86.2597,-113.7706 112.0822,-131.7573 137,-143 142.2943,-145.3888 147.9533,-147.5335 153.6736,-149.4447"/>
<polygon fill="#191970" stroke="#191970" points="152.7164,-152.8123 163.3048,-152.4423 154.7967,-146.1286 152.7164,-152.8123"/>
</g>
<!-- Node27 -->
<g id="node3" class="node">
<title>Node27</title>
<g id="a_node3"><a xlink:href="classPopulation.html#a42c4b04852bdda937e50f82952106af1" target="_top" xlink:title="Population::fishableBiomass">
<polygon fill="none" stroke="#000000" points="137,-114.5 137,-133.5 277,-133.5 277,-114.5 137,-114.5"/>
<text text-anchor="middle" x="207" y="-121.5" font-family="Helvetica,sans-Serif" font-size="10.00" fill="#000000">Population::fishableBiomass</text>
</a>
</g>
</g>
<!-- Node25&#45;&gt;Node27 -->
<g id="edge2" class="edge">
<title>Node25&#45;&gt;Node27</title>
<path fill="none" stroke="#191970" d="M101.3111,-98.3375C119.5352,-102.7625 140.0329,-107.7396 158.0922,-112.1246"/>
<polygon fill="#191970" stroke="#191970" points="157.3009,-115.5341 167.8444,-114.4926 158.9526,-108.7318 157.3009,-115.5341"/>
</g>
<!-- Node28 -->
<g id="node4" class="node">
<title>Node28</title>
<g id="a_node4"><a xlink:href="classPopulation.html#a5440cd360f9b6af954085b442327633b" target="_top" xlink:title="Population::init">
<polygon fill="none" stroke="#000000" points="166.5,-76.5 166.5,-95.5 247.5,-95.5 247.5,-76.5 166.5,-76.5"/>
<text text-anchor="middle" x="207" y="-83.5" font-family="Helvetica,sans-Serif" font-size="10.00" fill="#000000">Population::init</text>
</a>
</g>
</g>
<!-- Node25&#45;&gt;Node28 -->
<g id="edge3" class="edge">
<title>Node25&#45;&gt;Node28</title>
<path fill="none" stroke="#191970" d="M101.3111,-86C118.9188,-86 138.6489,-86 156.2516,-86"/>
<polygon fill="#191970" stroke="#191970" points="156.3378,-89.5001 166.3378,-86 156.3378,-82.5001 156.3378,-89.5001"/>
</g>
<!-- Node29 -->
<g id="node5" class="node">
<title>Node29</title>
<g id="a_node5"><a xlink:href="classPopulation.html#a345497aa32fe22f73153a59f469c6a19" target="_top" xlink:title="Population::print_summary">
<polygon fill="none" stroke="#000000" points="140.5,-38.5 140.5,-57.5 273.5,-57.5 273.5,-38.5 140.5,-38.5"/>
<text text-anchor="middle" x="207" y="-45.5" font-family="Helvetica,sans-Serif" font-size="10.00" fill="#000000">Population::print_summary</text>
</a>
</g>
</g>
<!-- Node25&#45;&gt;Node29 -->
<g id="edge4" class="edge">
<title>Node25&#45;&gt;Node29</title>
<path fill="none" stroke="#191970" d="M101.3111,-73.6625C119.5352,-69.2375 140.0329,-64.2604 158.0922,-59.8754"/>
<polygon fill="#191970" stroke="#191970" points="158.9526,-63.2682 167.8444,-57.5074 157.3009,-56.4659 158.9526,-63.2682"/>
</g>
<!-- Node30 -->
<g id="node6" class="node">
<title>Node30</title>
<g id="a_node6"><a xlink:href="classPopulation.html#aa404f725dcde475806cdb26704b9fbcf" target="_top" xlink:title="Population::update">
<polygon fill="none" stroke="#000000" points="158,-.5 158,-19.5 256,-19.5 256,-.5 158,-.5"/>
<text text-anchor="middle" x="207" y="-7.5" font-family="Helvetica,sans-Serif" font-size="10.00" fill="#000000">Population::update</text>
</a>
</g>
</g>
<!-- Node25&#45;&gt;Node30 -->
<g id="edge5" class="edge">
<title>Node25&#45;&gt;Node30</title>
<path fill="none" stroke="#191970" d="M69.3913,-70.9882C86.2597,-58.2294 112.0822,-40.2427 137,-29 142.2943,-26.6112 147.9533,-24.4665 153.6736,-22.5553"/>
<polygon fill="#191970" stroke="#191970" points="154.7967,-25.8714 163.3048,-19.5577 152.7164,-19.1877 154.7967,-25.8714"/>
</g>
<!-- Node31 -->
<g id="node7" class="node">
<title>Node31</title>
<g id="a_node7"><a xlink:href="namespacepn.html#ad42003887dcc42a4758c69775f83a8d9" target="_top" xlink:title="pn::zero">
<polygon fill="none" stroke="#000000" points="313,-.5 313,-19.5 365,-19.5 365,-.5 313,-.5"/>
<text text-anchor="middle" x="339" y="-7.5" font-family="Helvetica,sans-Serif" font-size="10.00" fill="#000000">pn::zero</text>
</a>
</g>
</g>
<!-- Node30&#45;&gt;Node31 -->
<g id="edge6" class="edge">
<title>Node30&#45;&gt;Node31</title>
<path fill="none" stroke="#191970" d="M256.1519,-10C271.6056,-10 288.3799,-10 302.767,-10"/>
<polygon fill="#191970" stroke="#191970" points="302.7682,-13.5001 312.7682,-10 302.7681,-6.5001 302.7682,-13.5001"/>
</g>
<!-- Node32 -->
<g id="node8" class="node">
<title>Node32</title>
<g id="a_node8"><a xlink:href="structpn_1_1BrentRes.html#a4fa42a440c4b9dc765ea7f0d7fd3a412" target="_top" xlink:title="pn::BrentRes::BrentRes">
<polygon fill="none" stroke="#000000" points="401,-.5 401,-19.5 523,-19.5 523,-.5 401,-.5"/>
<text text-anchor="middle" x="462" y="-7.5" font-family="Helvetica,sans-Serif" font-size="10.00" fill="#000000">pn::BrentRes::BrentRes</text>
</a>
</g>
</g>
<!-- Node31&#45;&gt;Node32 -->
<g id="edge7" class="edge">
<title>Node31&#45;&gt;Node32</title>
<path fill="none" stroke="#191970" d="M365.0851,-10C372.7193,-10 381.458,-10 390.4927,-10"/>
<polygon fill="#191970" stroke="#191970" points="390.7759,-13.5001 400.7759,-10 390.7759,-6.5001 390.7759,-13.5001"/>
</g>
</g>
</svg>
