<?xml version="1.0" encoding="UTF-8" standalone="no"?>
<!DOCTYPE svg PUBLIC "-//W3C//DTD SVG 1.1//EN"
 "http://www.w3.org/Graphics/SVG/1.1/DTD/svg11.dtd">
<!-- Generated by graphviz version 2.40.1 (20161225.0304)
 -->
<!-- Title: Population::print_summary Pages: 1 -->
<svg width="552pt" height="160pt"
 viewBox="0.00 0.00 552.00 160.00" xmlns="http://www.w3.org/2000/svg" xmlns:xlink="http://www.w3.org/1999/xlink">
<g id="graph0" class="graph" transform="scale(1 1) rotate(0) translate(4 156)">
<title>Population::print_summary</title>
<!-- Node35 -->
<g id="node1" class="node">
<title>Node35</title>
<polygon fill="#bfbfbf" stroke="#000000" points="0,-66.5 0,-85.5 133,-85.5 133,-66.5 0,-66.5"/>
<text text-anchor="middle" x="66.5" y="-73.5" font-family="Helvetica,sans-Serif" font-size="10.00" fill="#000000">Population::print_summary</text>
</g>
<!-- Node36 -->
<g id="node2" class="node">
<title>Node36</title>
<g id="a_node2"><a xlink:href="fish__glue_8cpp.html#ab96ae82277aa9004dc603b77512c7265" target="_top" xlink:title="RCPP_MODULE">
<polygon fill="none" stroke="#000000" points="173,-132.5 173,-151.5 266,-151.5 266,-132.5 173,-132.5"/>
<text text-anchor="middle" x="219.5" y="-139.5" font-family="Helvetica,sans-Serif" font-size="10.00" fill="#000000">RCPP_MODULE</text>
</a>
</g>
</g>
<!-- Node35&#45;&gt;Node36 -->
<g id="edge1" class="edge">
<title>Node35&#45;&gt;Node36</title>
<path fill="none" stroke="#191970" d="M95.4256,-89.9207C115.8273,-99.5769 143.8847,-112.5323 169,-123 176.7818,-126.2433 185.3336,-129.5545 193.1522,-132.485"/>
<polygon fill="#191970" stroke="#191970" points="96.8845,-86.7389 86.3506,-85.604 93.8777,-93.0602 96.8845,-86.7389"/>
</g>
<!-- Node37 -->
<g id="node3" class="node">
<title>Node37</title>
<g id="a_node3"><a xlink:href="classSimulator.html#a4734ed6f01bdac62f74ebd20dd761f2b" target="_top" xlink:title="Simulator::simulate\l_multi">
<polygon fill="none" stroke="#000000" points="169,-83 169,-113 270,-113 270,-83 169,-83"/>
<text text-anchor="start" x="177" y="-101" font-family="Helvetica,sans-Serif" font-size="10.00" fill="#000000">Simulator::simulate</text>
<text text-anchor="middle" x="219.5" y="-90" font-family="Helvetica,sans-Serif" font-size="10.00" fill="#000000">_multi</text>
</a>
</g>
</g>
<!-- Node35&#45;&gt;Node37 -->
<g id="edge2" class="edge">
<title>Node35&#45;&gt;Node37</title>
<path fill="none" stroke="#191970" d="M142.7088,-86.9581C151.5821,-88.234 160.4607,-89.5107 168.8669,-90.7194"/>
<polygon fill="#191970" stroke="#191970" points="143.1145,-83.4806 132.7182,-85.5216 142.1182,-90.4093 143.1145,-83.4806"/>
</g>
<!-- Node40 -->
<g id="node6" class="node">
<title>Node40</title>
<g id="a_node6"><a xlink:href="classSimulator.html#a636e7a83b462c3e48769a85ae350e742" target="_top" xlink:title="Simulator::simulate\l_multi_2d">
<polygon fill="none" stroke="#000000" points="310,-39 310,-69 411,-69 411,-39 310,-39"/>
<text text-anchor="start" x="318" y="-57" font-family="Helvetica,sans-Serif" font-size="10.00" fill="#000000">Simulator::simulate</text>
<text text-anchor="middle" x="360.5" y="-46" font-family="Helvetica,sans-Serif" font-size="10.00" fill="#000000">_multi_2d</text>
</a>
</g>
</g>
<!-- Node35&#45;&gt;Node40 -->
<g id="edge5" class="edge">
<title>Node35&#45;&gt;Node40</title>
<path fill="none" stroke="#191970" d="M143.4802,-70.2396C195.9048,-66.3166 263.8322,-61.2336 309.6143,-57.8078"/>
<polygon fill="#191970" stroke="#191970" points="142.9241,-66.7713 133.2132,-71.0079 143.4465,-73.7518 142.9241,-66.7713"/>
</g>
<!-- Node41 -->
<g id="node7" class="node">
<title>Node41</title>
<g id="a_node7"><a xlink:href="classSimulator.html#a16eef6e60e97dabc2a1205b58b10182c" target="_top" xlink:title="Simulator::simulate_r">
<polygon fill="none" stroke="#000000" points="306,-.5 306,-19.5 415,-19.5 415,-.5 306,-.5"/>
<text text-anchor="middle" x="360.5" y="-7.5" font-family="Helvetica,sans-Serif" font-size="10.00" fill="#000000">Simulator::simulate_r</text>
</a>
</g>
</g>
<!-- Node35&#45;&gt;Node41 -->
<g id="edge7" class="edge">
<title>Node35&#45;&gt;Node41</title>
<path fill="none" stroke="#191970" d="M118.8066,-64.2577C175.6646,-51.4937 265.4286,-31.3426 318.0767,-19.5236"/>
<polygon fill="#191970" stroke="#191970" points="117.9266,-60.8681 108.9361,-66.4735 119.46,-67.6981 117.9266,-60.8681"/>
</g>
<!-- Node38 -->
<g id="node4" class="node">
<title>Node38</title>
<g id="a_node4"><a xlink:href="classSimulator.html#adb6faf4ee69f21998ce7dc79c065a3e9" target="_top" xlink:title="Simulator::simulate\l_multi_r">
<polygon fill="none" stroke="#000000" points="310,-88 310,-118 411,-118 411,-88 310,-88"/>
<text text-anchor="start" x="318" y="-106" font-family="Helvetica,sans-Serif" font-size="10.00" fill="#000000">Simulator::simulate</text>
<text text-anchor="middle" x="360.5" y="-95" font-family="Helvetica,sans-Serif" font-size="10.00" fill="#000000">_multi_r</text>
</a>
</g>
</g>
<!-- Node37&#45;&gt;Node38 -->
<g id="edge3" class="edge">
<title>Node37&#45;&gt;Node38</title>
<path fill="none" stroke="#191970" d="M280.1916,-100.1522C290.0892,-100.5032 300.2499,-100.8635 309.8727,-101.2047"/>
<polygon fill="#191970" stroke="#191970" points="280.1238,-96.6477 270.006,-99.791 279.8756,-103.6433 280.1238,-96.6477"/>
</g>
<!-- Node39 -->
<g id="node5" class="node">
<title>Node39</title>
<g id="a_node5"><a xlink:href="fish__glue_8cpp.html#addebb0997b0e49067d8784c9954b7b96" target="_top" xlink:title="RCPP_MODULE">
<polygon fill="none" stroke="#000000" points="451,-44.5 451,-63.5 544,-63.5 544,-44.5 451,-44.5"/>
<text text-anchor="middle" x="497.5" y="-51.5" font-family="Helvetica,sans-Serif" font-size="10.00" fill="#000000">RCPP_MODULE</text>
</a>
</g>
</g>
<!-- Node38&#45;&gt;Node39 -->
<g id="edge4" class="edge">
<title>Node38&#45;&gt;Node39</title>
<path fill="none" stroke="#191970" d="M412.3007,-84.4728C432.2049,-77.3537 454.1124,-69.5182 470.728,-63.5754"/>
<polygon fill="#191970" stroke="#191970" points="410.9595,-81.2352 402.7224,-87.8986 413.317,-87.8263 410.9595,-81.2352"/>
</g>
<!-- Node40&#45;&gt;Node39 -->
<g id="edge6" class="edge">
<title>Node40&#45;&gt;Node39</title>
<path fill="none" stroke="#191970" d="M421.2947,-54C431.1625,-54 441.2464,-54 450.7131,-54"/>
<polygon fill="#191970" stroke="#191970" points="421.1245,-50.5001 411.1245,-54 421.1245,-57.5001 421.1245,-50.5001"/>
</g>
<!-- Node41&#45;&gt;Node39 -->
<g id="edge8" class="edge">
<title>Node41&#45;&gt;Node39</title>
<path fill="none" stroke="#191970" d="M399.8015,-22.6224C421.4627,-29.5793 447.9162,-38.0753 467.8311,-44.4713"/>
<polygon fill="#191970" stroke="#191970" points="400.8182,-19.2729 390.227,-19.5473 398.6777,-25.9376 400.8182,-19.2729"/>
</g>
</g>
</svg>
