<?xml version="1.0" encoding="UTF-8" standalone="no"?>
<!DOCTYPE svg PUBLIC "-//W3C//DTD SVG 1.1//EN"
 "http://www.w3.org/Graphics/SVG/1.1/DTD/svg11.dtd">
<!-- Generated by graphviz version 2.40.1 (20161225.0304)
 -->
<!-- Title: Tensor::repeat_inner Pages: 1 -->
<svg width="393pt" height="88pt"
 viewBox="0.00 0.00 393.00 88.00" xmlns="http://www.w3.org/2000/svg" xmlns:xlink="http://www.w3.org/1999/xlink">
<g id="graph0" class="graph" transform="scale(1 1) rotate(0) translate(4 84)">
<title>Tensor::repeat_inner</title>
<!-- Node99 -->
<g id="node1" class="node">
<title>Node99</title>
<polygon fill="#bfbfbf" stroke="#000000" points="0,-30 0,-49 106,-49 106,-30 0,-30"/>
<text text-anchor="middle" x="53" y="-37" font-family="Helvetica,sans-Serif" font-size="10.00" fill="#000000">Tensor::repeat_inner</text>
</g>
<!-- Node100 -->
<g id="node2" class="node">
<title>Node100</title>
<g id="a_node2"><a xlink:href="classSimulator.html#a1b66b7260ff50758884d1f7361a1b988" target="_top" xlink:title="Simulator::stakeholder\l_satisfaction">
<polygon fill="none" stroke="#000000" points="142,-49.5 142,-79.5 256,-79.5 256,-49.5 142,-49.5"/>
<text text-anchor="start" x="150" y="-67.5" font-family="Helvetica,sans-Serif" font-size="10.00" fill="#000000">Simulator::stakeholder</text>
<text text-anchor="middle" x="199" y="-56.5" font-family="Helvetica,sans-Serif" font-size="10.00" fill="#000000">_satisfaction</text>
</a>
</g>
</g>
<!-- Node99&#45;&gt;Node100 -->
<g id="edge1" class="edge">
<title>Node99&#45;&gt;Node100</title>
<path fill="none" stroke="#191970" d="M116.0337,-50.2934C124.5737,-51.7558 133.2992,-53.2499 141.7307,-54.6936"/>
<polygon fill="#191970" stroke="#191970" points="116.5696,-46.8344 106.1224,-48.5963 115.3882,-53.7339 116.5696,-46.8344"/>
</g>
<!-- Node102 -->
<g id="node4" class="node">
<title>Node102</title>
<g id="a_node4"><a xlink:href="classSimulator.html#aac842e5498b4c9731910ce9a93fa555d" target="_top" xlink:title="Simulator::stakeholder\l_satisfaction_2d">
<polygon fill="none" stroke="#000000" points="142,-.5 142,-30.5 256,-30.5 256,-.5 142,-.5"/>
<text text-anchor="start" x="150" y="-18.5" font-family="Helvetica,sans-Serif" font-size="10.00" fill="#000000">Simulator::stakeholder</text>
<text text-anchor="middle" x="199" y="-7.5" font-family="Helvetica,sans-Serif" font-size="10.00" fill="#000000">_satisfaction_2d</text>
</a>
</g>
</g>
<!-- Node99&#45;&gt;Node102 -->
<g id="edge3" class="edge">
<title>Node99&#45;&gt;Node102</title>
<path fill="none" stroke="#191970" d="M116.0337,-29.1383C124.5737,-27.7345 133.2992,-26.3001 141.7307,-24.9141"/>
<polygon fill="#191970" stroke="#191970" points="115.4222,-25.6918 106.1224,-30.7676 116.5577,-32.5991 115.4222,-25.6918"/>
</g>
<!-- Node101 -->
<g id="node3" class="node">
<title>Node101</title>
<g id="a_node3"><a xlink:href="fish__glue_8cpp.html#addebb0997b0e49067d8784c9954b7b96" target="_top" xlink:title="RCPP_MODULE">
<polygon fill="none" stroke="#000000" points="292,-30 292,-49 385,-49 385,-30 292,-30"/>
<text text-anchor="middle" x="338.5" y="-37" font-family="Helvetica,sans-Serif" font-size="10.00" fill="#000000">RCPP_MODULE</text>
</a>
</g>
</g>
<!-- Node100&#45;&gt;Node101 -->
<g id="edge2" class="edge">
<title>Node100&#45;&gt;Node101</title>
<path fill="none" stroke="#191970" d="M266.2613,-52.446C274.9284,-50.8928 283.6468,-49.3303 291.8803,-47.8548"/>
<polygon fill="#191970" stroke="#191970" points="265.3682,-49.0502 256.1425,-54.2594 266.6031,-55.9404 265.3682,-49.0502"/>
</g>
<!-- Node102&#45;&gt;Node101 -->
<g id="edge4" class="edge">
<title>Node102&#45;&gt;Node101</title>
<path fill="none" stroke="#191970" d="M266.2613,-27.0718C274.9284,-28.5629 283.6468,-30.0629 291.8803,-31.4794"/>
<polygon fill="#191970" stroke="#191970" points="266.5912,-23.5772 256.1425,-25.331 265.4042,-30.4759 266.5912,-23.5772"/>
</g>
</g>
</svg>
