<?xml version="1.0" encoding="UTF-8" standalone="no"?>
<!DOCTYPE svg PUBLIC "-//W3C//DTD SVG 1.1//EN"
 "http://www.w3.org/Graphics/SVG/1.1/DTD/svg11.dtd">
<!-- Generated by graphviz version 2.40.1 (20161225.0304)
 -->
<!-- Title: Population::nfish Pages: 1 -->
<svg width="732pt" height="214pt"
 viewBox="0.00 0.00 732.00 214.00" xmlns="http://www.w3.org/2000/svg" xmlns:xlink="http://www.w3.org/1999/xlink">
<g id="graph0" class="graph" transform="scale(1 1) rotate(0) translate(4 210)">
<title>Population::nfish</title>
<!-- Node78 -->
<g id="node1" class="node">
<title>Node78</title>
<polygon fill="#bfbfbf" stroke="#000000" points="0,-153.5 0,-172.5 89,-172.5 89,-153.5 0,-153.5"/>
<text text-anchor="middle" x="44.5" y="-160.5" font-family="Helvetica,sans-Serif" font-size="10.00" fill="#000000">Population::nfish</text>
</g>
<!-- Node79 -->
<g id="node2" class="node">
<title>Node79</title>
<g id="a_node2"><a xlink:href="fish__glue_8cpp.html#ab96ae82277aa9004dc603b77512c7265" target="_top" xlink:title="RCPP_MODULE">
<polygon fill="none" stroke="#000000" points="477.5,-186.5 477.5,-205.5 570.5,-205.5 570.5,-186.5 477.5,-186.5"/>
<text text-anchor="middle" x="524" y="-193.5" font-family="Helvetica,sans-Serif" font-size="10.00" fill="#000000">RCPP_MODULE</text>
</a>
</g>
</g>
<!-- Node78&#45;&gt;Node79 -->
<g id="edge1" class="edge">
<title>Node78&#45;&gt;Node79</title>
<path fill="none" stroke="#191970" d="M99.1403,-172.2191C142.3761,-179.07 204.3597,-187.9087 259,-192 335.3964,-197.7204 424.5149,-197.6918 477.4906,-196.9727"/>
<polygon fill="#191970" stroke="#191970" points="99.5445,-168.7394 89.1167,-170.6133 98.4371,-175.6512 99.5445,-168.7394"/>
</g>
<!-- Node80 -->
<g id="node3" class="node">
<title>Node80</title>
<g id="a_node3"><a xlink:href="classPopulation.html#a81c19d1c80cfb1d54d3872ecdefd0872" target="_top" xlink:title="Population::update">
<polygon fill="none" stroke="#000000" points="125,-115.5 125,-134.5 223,-134.5 223,-115.5 125,-115.5"/>
<text text-anchor="middle" x="174" y="-122.5" font-family="Helvetica,sans-Serif" font-size="10.00" fill="#000000">Population::update</text>
</a>
</g>
</g>
<!-- Node78&#45;&gt;Node80 -->
<g id="edge2" class="edge">
<title>Node78&#45;&gt;Node80</title>
<path fill="none" stroke="#191970" d="M87.219,-150.4647C104.836,-145.2952 124.9232,-139.4009 141.3321,-134.5859"/>
<polygon fill="#191970" stroke="#191970" points="85.7882,-147.2369 77.1783,-153.411 87.7592,-153.9537 85.7882,-147.2369"/>
</g>
<!-- Node80&#45;&gt;Node79 -->
<g id="edge3" class="edge">
<title>Node80&#45;&gt;Node79</title>
<path fill="none" stroke="#191970" d="M198.6204,-139.6228C215.1335,-148.7291 237.6832,-159.8454 259,-166 333.288,-187.4486 423.4247,-193.6801 477.1191,-195.4205"/>
<polygon fill="#191970" stroke="#191970" points="200.0771,-136.4256 189.6503,-134.5461 196.6292,-142.5176 200.0771,-136.4256"/>
</g>
<!-- Node81 -->
<g id="node4" class="node">
<title>Node81</title>
<g id="a_node4"><a xlink:href="classPopulation.html#aa7eba257f23cbc12aa3673ce012fb2cb" target="_top" xlink:title="Population::noFishingEquilibriate">
<polygon fill="none" stroke="#000000" points="259,-137.5 259,-156.5 417,-156.5 417,-137.5 259,-137.5"/>
<text text-anchor="middle" x="338" y="-144.5" font-family="Helvetica,sans-Serif" font-size="10.00" fill="#000000">Population::noFishingEquilibriate</text>
</a>
</g>
</g>
<!-- Node80&#45;&gt;Node81 -->
<g id="edge4" class="edge">
<title>Node80&#45;&gt;Node81</title>
<path fill="none" stroke="#191970" d="M233.4461,-132.9745C244.3404,-134.4359 255.8107,-135.9746 267.0024,-137.4759"/>
<polygon fill="#191970" stroke="#191970" points="233.582,-129.4614 223.2054,-131.6007 232.6513,-136.3993 233.582,-129.4614"/>
</g>
<!-- Node84 -->
<g id="node7" class="node">
<title>Node84</title>
<g id="a_node7"><a xlink:href="classSimulator.html#a7540919b97662be7deacba9194c0ed60" target="_top" xlink:title="Simulator::simulate\l_multi">
<polygon fill="none" stroke="#000000" points="287.5,-88 287.5,-118 388.5,-118 388.5,-88 287.5,-88"/>
<text text-anchor="start" x="295.5" y="-106" font-family="Helvetica,sans-Serif" font-size="10.00" fill="#000000">Simulator::simulate</text>
<text text-anchor="middle" x="338" y="-95" font-family="Helvetica,sans-Serif" font-size="10.00" fill="#000000">_multi</text>
</a>
</g>
</g>
<!-- Node80&#45;&gt;Node84 -->
<g id="edge8" class="edge">
<title>Node80&#45;&gt;Node84</title>
<path fill="none" stroke="#191970" d="M233.4207,-117.0289C251.1162,-114.6551 270.3331,-112.0773 287.4092,-109.7866"/>
<polygon fill="#191970" stroke="#191970" points="232.6513,-113.6007 223.2054,-118.3993 233.582,-120.5386 232.6513,-113.6007"/>
</g>
<!-- Node86 -->
<g id="node9" class="node">
<title>Node86</title>
<g id="a_node9"><a xlink:href="classSimulator.html#ab21d1c6b0af00931f9a8fa5e0b6d417f" target="_top" xlink:title="Simulator::simulate\l_multi_2d">
<polygon fill="none" stroke="#000000" points="287.5,-39 287.5,-69 388.5,-69 388.5,-39 287.5,-39"/>
<text text-anchor="start" x="295.5" y="-57" font-family="Helvetica,sans-Serif" font-size="10.00" fill="#000000">Simulator::simulate</text>
<text text-anchor="middle" x="338" y="-46" font-family="Helvetica,sans-Serif" font-size="10.00" fill="#000000">_multi_2d</text>
</a>
</g>
</g>
<!-- Node80&#45;&gt;Node86 -->
<g id="edge11" class="edge">
<title>Node80&#45;&gt;Node86</title>
<path fill="none" stroke="#191970" d="M198.5787,-110.0838C215.2305,-100.3855 237.9529,-87.9299 259,-79 268.0052,-75.1792 277.8004,-71.6243 287.3305,-68.4636"/>
<polygon fill="#191970" stroke="#191970" points="196.3633,-107.3275 189.5344,-115.4279 199.9243,-113.354 196.3633,-107.3275"/>
</g>
<!-- Node88 -->
<g id="node11" class="node">
<title>Node88</title>
<g id="a_node11"><a xlink:href="classSimulator.html#aa6e6cfd73fd8d3200e7f515b473e88f2" target="_top" xlink:title="Simulator::simulate_r">
<polygon fill="none" stroke="#000000" points="283.5,-.5 283.5,-19.5 392.5,-19.5 392.5,-.5 283.5,-.5"/>
<text text-anchor="middle" x="338" y="-7.5" font-family="Helvetica,sans-Serif" font-size="10.00" fill="#000000">Simulator::simulate_r</text>
</a>
</g>
</g>
<!-- Node80&#45;&gt;Node88 -->
<g id="edge14" class="edge">
<title>Node80&#45;&gt;Node88</title>
<path fill="none" stroke="#191970" d="M185.1649,-106.6597C199.4907,-84.7404 226.4219,-48.5753 259,-29 266.3758,-24.5681 274.722,-21.1695 283.1574,-18.5634"/>
<polygon fill="#191970" stroke="#191970" points="182.0513,-105.0344 179.6557,-115.3549 187.9644,-108.7809 182.0513,-105.0344"/>
</g>
<!-- Node81&#45;&gt;Node79 -->
<g id="edge5" class="edge">
<title>Node81&#45;&gt;Node79</title>
<path fill="none" stroke="#191970" d="M384.3122,-159.2005C416.3007,-167.6276 458.2398,-178.6761 487.7873,-186.4601"/>
<polygon fill="#191970" stroke="#191970" points="384.8659,-155.7271 374.3042,-156.564 383.0826,-162.4961 384.8659,-155.7271"/>
</g>
<!-- Node82 -->
<g id="node5" class="node">
<title>Node82</title>
<g id="a_node5"><a xlink:href="classSimulator.html#a3dfce52c0bb26ec7ff2632b1eca50240" target="_top" xlink:title="Simulator::equilibriateNatural\lPopulation">
<polygon fill="none" stroke="#000000" points="453,-137 453,-167 595,-167 595,-137 453,-137"/>
<text text-anchor="start" x="461" y="-155" font-family="Helvetica,sans-Serif" font-size="10.00" fill="#000000">Simulator::equilibriateNatural</text>
<text text-anchor="middle" x="524" y="-144" font-family="Helvetica,sans-Serif" font-size="10.00" fill="#000000">Population</text>
</a>
</g>
</g>
<!-- Node81&#45;&gt;Node82 -->
<g id="edge6" class="edge">
<title>Node81&#45;&gt;Node82</title>
<path fill="none" stroke="#191970" d="M427.2169,-149.3983C435.8241,-149.6297 444.4746,-149.8622 452.8728,-150.088"/>
<polygon fill="#191970" stroke="#191970" points="427.2409,-145.8978 417.1504,-149.1277 427.0528,-152.8953 427.2409,-145.8978"/>
</g>
<!-- Node83 -->
<g id="node6" class="node">
<title>Node83</title>
<g id="a_node6"><a xlink:href="fish__glue_8cpp.html#addebb0997b0e49067d8784c9954b7b96" target="_top" xlink:title="RCPP_MODULE">
<polygon fill="none" stroke="#000000" points="631,-68.5 631,-87.5 724,-87.5 724,-68.5 631,-68.5"/>
<text text-anchor="middle" x="677.5" y="-75.5" font-family="Helvetica,sans-Serif" font-size="10.00" fill="#000000">RCPP_MODULE</text>
</a>
</g>
</g>
<!-- Node82&#45;&gt;Node83 -->
<g id="edge7" class="edge">
<title>Node82&#45;&gt;Node83</title>
<path fill="none" stroke="#191970" d="M582.485,-133.3837C586.7638,-131.6712 590.9759,-129.872 595,-128 620.3596,-116.2029 647.7409,-98.5197 663.7144,-87.6502"/>
<polygon fill="#191970" stroke="#191970" points="581.1487,-130.1475 573.059,-136.9892 583.6495,-136.6856 581.1487,-130.1475"/>
</g>
<!-- Node85 -->
<g id="node8" class="node">
<title>Node85</title>
<g id="a_node8"><a xlink:href="classSimulator.html#a1a5454ee4736819d709398b225d7876d" target="_top" xlink:title="Simulator::simulate\l_multi_r">
<polygon fill="none" stroke="#000000" points="473.5,-88 473.5,-118 574.5,-118 574.5,-88 473.5,-88"/>
<text text-anchor="start" x="481.5" y="-106" font-family="Helvetica,sans-Serif" font-size="10.00" fill="#000000">Simulator::simulate</text>
<text text-anchor="middle" x="524" y="-95" font-family="Helvetica,sans-Serif" font-size="10.00" fill="#000000">_multi_r</text>
</a>
</g>
</g>
<!-- Node84&#45;&gt;Node85 -->
<g id="edge9" class="edge">
<title>Node84&#45;&gt;Node85</title>
<path fill="none" stroke="#191970" d="M398.9114,-103C422.9637,-103 450.2797,-103 473.2361,-103"/>
<polygon fill="#191970" stroke="#191970" points="398.8254,-99.5001 388.8253,-103 398.8253,-106.5001 398.8254,-99.5001"/>
</g>
<!-- Node85&#45;&gt;Node83 -->
<g id="edge10" class="edge">
<title>Node85&#45;&gt;Node83</title>
<path fill="none" stroke="#191970" d="M584.6161,-93.1277C599.9646,-90.6279 616.2148,-87.9813 630.7586,-85.6126"/>
<polygon fill="#191970" stroke="#191970" points="583.9944,-89.6827 574.6871,-94.7448 585.1197,-96.5917 583.9944,-89.6827"/>
</g>
<!-- Node87 -->
<g id="node10" class="node">
<title>Node87</title>
<g id="a_node10"><a xlink:href="classSimulator.html#af1b0a9562ecf0ad8f98d61576efba28b" target="_top" xlink:title="Simulator::simulate\l_multi_2d_r">
<polygon fill="none" stroke="#000000" points="473.5,-39 473.5,-69 574.5,-69 574.5,-39 473.5,-39"/>
<text text-anchor="start" x="481.5" y="-57" font-family="Helvetica,sans-Serif" font-size="10.00" fill="#000000">Simulator::simulate</text>
<text text-anchor="middle" x="524" y="-46" font-family="Helvetica,sans-Serif" font-size="10.00" fill="#000000">_multi_2d_r</text>
</a>
</g>
</g>
<!-- Node86&#45;&gt;Node87 -->
<g id="edge12" class="edge">
<title>Node86&#45;&gt;Node87</title>
<path fill="none" stroke="#191970" d="M398.9114,-54C422.9637,-54 450.2797,-54 473.2361,-54"/>
<polygon fill="#191970" stroke="#191970" points="398.8254,-50.5001 388.8253,-54 398.8253,-57.5001 398.8254,-50.5001"/>
</g>
<!-- Node87&#45;&gt;Node83 -->
<g id="edge13" class="edge">
<title>Node87&#45;&gt;Node83</title>
<path fill="none" stroke="#191970" d="M584.6161,-63.4774C599.9646,-65.8772 616.2148,-68.4179 630.7586,-70.6919"/>
<polygon fill="#191970" stroke="#191970" points="585.1077,-60.0119 574.6871,-61.925 584.0263,-66.9278 585.1077,-60.0119"/>
</g>
<!-- Node88&#45;&gt;Node83 -->
<g id="edge15" class="edge">
<title>Node88&#45;&gt;Node83</title>
<path fill="none" stroke="#191970" d="M402.7698,-6.6811C455.6824,-5.8739 531.7852,-9.1073 595,-29 622.3317,-37.6009 650.1783,-56.7637 665.5099,-68.4133"/>
<polygon fill="#191970" stroke="#191970" points="402.4328,-3.1872 392.5071,-6.8927 402.5772,-10.1858 402.4328,-3.1872"/>
</g>
</g>
</svg>
