<?xml version="1.0" encoding="UTF-8" standalone="no"?>
<!DOCTYPE svg PUBLIC "-//W3C//DTD SVG 1.1//EN"
 "http://www.w3.org/Graphics/SVG/1.1/DTD/svg11.dtd">
<!-- Generated by graphviz version 2.40.1 (20161225.0304)
 -->
<!-- Title: Population::update Pages: 1 -->
<svg width="517pt" height="160pt"
 viewBox="0.00 0.00 517.00 160.00" xmlns="http://www.w3.org/2000/svg" xmlns:xlink="http://www.w3.org/1999/xlink">
<g id="graph0" class="graph" transform="scale(1 1) rotate(0) translate(4 156)">
<title>Population::update</title>
<!-- Node68 -->
<g id="node1" class="node">
<title>Node68</title>
<polygon fill="#bfbfbf" stroke="#000000" points="0,-66.5 0,-85.5 98,-85.5 98,-66.5 0,-66.5"/>
<text text-anchor="middle" x="49" y="-73.5" font-family="Helvetica,sans-Serif" font-size="10.00" fill="#000000">Population::update</text>
</g>
<!-- Node69 -->
<g id="node2" class="node">
<title>Node69</title>
<g id="a_node2"><a xlink:href="fish__glue_8cpp.html#ab96ae82277aa9004dc603b77512c7265" target="_top" xlink:title="RCPP_MODULE">
<polygon fill="none" stroke="#000000" points="138,-132.5 138,-151.5 231,-151.5 231,-132.5 138,-132.5"/>
<text text-anchor="middle" x="184.5" y="-139.5" font-family="Helvetica,sans-Serif" font-size="10.00" fill="#000000">RCPP_MODULE</text>
</a>
</g>
</g>
<!-- Node68&#45;&gt;Node69 -->
<g id="edge1" class="edge">
<title>Node68&#45;&gt;Node69</title>
<path fill="none" stroke="#191970" d="M73.2339,-90.6353C89.9792,-100.4388 112.9438,-113.28 134,-123 141.3142,-126.3764 149.4133,-129.6285 156.9445,-132.4588"/>
<polygon fill="#191970" stroke="#191970" points="75.0112,-87.6201 64.6224,-85.5406 71.4469,-93.6447 75.0112,-87.6201"/>
</g>
<!-- Node70 -->
<g id="node3" class="node">
<title>Node70</title>
<g id="a_node3"><a xlink:href="classSimulator.html#a4734ed6f01bdac62f74ebd20dd761f2b" target="_top" xlink:title="Simulator::simulate\l_multi">
<polygon fill="none" stroke="#000000" points="134,-83 134,-113 235,-113 235,-83 134,-83"/>
<text text-anchor="start" x="142" y="-101" font-family="Helvetica,sans-Serif" font-size="10.00" fill="#000000">Simulator::simulate</text>
<text text-anchor="middle" x="184.5" y="-90" font-family="Helvetica,sans-Serif" font-size="10.00" fill="#000000">_multi</text>
</a>
</g>
</g>
<!-- Node68&#45;&gt;Node70 -->
<g id="edge2" class="edge">
<title>Node68&#45;&gt;Node70</title>
<path fill="none" stroke="#191970" d="M108.4331,-85.6497C116.8384,-87.0144 125.4172,-88.4072 133.6412,-89.7425"/>
<polygon fill="#191970" stroke="#191970" points="108.7336,-82.1527 98.3019,-84.0047 107.6117,-89.0622 108.7336,-82.1527"/>
</g>
<!-- Node73 -->
<g id="node6" class="node">
<title>Node73</title>
<g id="a_node6"><a xlink:href="classSimulator.html#a636e7a83b462c3e48769a85ae350e742" target="_top" xlink:title="Simulator::simulate\l_multi_2d">
<polygon fill="none" stroke="#000000" points="275,-39 275,-69 376,-69 376,-39 275,-39"/>
<text text-anchor="start" x="283" y="-57" font-family="Helvetica,sans-Serif" font-size="10.00" fill="#000000">Simulator::simulate</text>
<text text-anchor="middle" x="325.5" y="-46" font-family="Helvetica,sans-Serif" font-size="10.00" fill="#000000">_multi_2d</text>
</a>
</g>
</g>
<!-- Node68&#45;&gt;Node73 -->
<g id="edge5" class="edge">
<title>Node68&#45;&gt;Node73</title>
<path fill="none" stroke="#191970" d="M108.3785,-71.2755C158.0029,-67.3271 228.0003,-61.7577 274.9747,-58.0201"/>
<polygon fill="#191970" stroke="#191970" points="107.8049,-67.81 98.114,-72.0922 108.3602,-74.7879 107.8049,-67.81"/>
</g>
<!-- Node74 -->
<g id="node7" class="node">
<title>Node74</title>
<g id="a_node7"><a xlink:href="classSimulator.html#a16eef6e60e97dabc2a1205b58b10182c" target="_top" xlink:title="Simulator::simulate_r">
<polygon fill="none" stroke="#000000" points="271,-.5 271,-19.5 380,-19.5 380,-.5 271,-.5"/>
<text text-anchor="middle" x="325.5" y="-7.5" font-family="Helvetica,sans-Serif" font-size="10.00" fill="#000000">Simulator::simulate_r</text>
</a>
</g>
</g>
<!-- Node68&#45;&gt;Node74 -->
<g id="edge7" class="edge">
<title>Node68&#45;&gt;Node74</title>
<path fill="none" stroke="#191970" d="M98.859,-64.0988C152.3653,-51.3269 236.2926,-31.2936 285.6019,-19.5236"/>
<polygon fill="#191970" stroke="#191970" points="97.8243,-60.7473 88.9102,-66.4735 99.4496,-67.5561 97.8243,-60.7473"/>
</g>
<!-- Node71 -->
<g id="node4" class="node">
<title>Node71</title>
<g id="a_node4"><a xlink:href="classSimulator.html#adb6faf4ee69f21998ce7dc79c065a3e9" target="_top" xlink:title="Simulator::simulate\l_multi_r">
<polygon fill="none" stroke="#000000" points="275,-88 275,-118 376,-118 376,-88 275,-88"/>
<text text-anchor="start" x="283" y="-106" font-family="Helvetica,sans-Serif" font-size="10.00" fill="#000000">Simulator::simulate</text>
<text text-anchor="middle" x="325.5" y="-95" font-family="Helvetica,sans-Serif" font-size="10.00" fill="#000000">_multi_r</text>
</a>
</g>
</g>
<!-- Node70&#45;&gt;Node71 -->
<g id="edge3" class="edge">
<title>Node70&#45;&gt;Node71</title>
<path fill="none" stroke="#191970" d="M245.1916,-100.1522C255.0892,-100.5032 265.2499,-100.8635 274.8727,-101.2047"/>
<polygon fill="#191970" stroke="#191970" points="245.1238,-96.6477 235.006,-99.791 244.8756,-103.6433 245.1238,-96.6477"/>
</g>
<!-- Node72 -->
<g id="node5" class="node">
<title>Node72</title>
<g id="a_node5"><a xlink:href="fish__glue_8cpp.html#addebb0997b0e49067d8784c9954b7b96" target="_top" xlink:title="RCPP_MODULE">
<polygon fill="none" stroke="#000000" points="416,-44.5 416,-63.5 509,-63.5 509,-44.5 416,-44.5"/>
<text text-anchor="middle" x="462.5" y="-51.5" font-family="Helvetica,sans-Serif" font-size="10.00" fill="#000000">RCPP_MODULE</text>
</a>
</g>
</g>
<!-- Node71&#45;&gt;Node72 -->
<g id="edge4" class="edge">
<title>Node71&#45;&gt;Node72</title>
<path fill="none" stroke="#191970" d="M377.3007,-84.4728C397.2049,-77.3537 419.1124,-69.5182 435.728,-63.5754"/>
<polygon fill="#191970" stroke="#191970" points="375.9595,-81.2352 367.7224,-87.8986 378.317,-87.8263 375.9595,-81.2352"/>
</g>
<!-- Node73&#45;&gt;Node72 -->
<g id="edge6" class="edge">
<title>Node73&#45;&gt;Node72</title>
<path fill="none" stroke="#191970" d="M386.2947,-54C396.1625,-54 406.2464,-54 415.7131,-54"/>
<polygon fill="#191970" stroke="#191970" points="386.1245,-50.5001 376.1245,-54 386.1245,-57.5001 386.1245,-50.5001"/>
</g>
<!-- Node74&#45;&gt;Node72 -->
<g id="edge8" class="edge">
<title>Node74&#45;&gt;Node72</title>
<path fill="none" stroke="#191970" d="M364.8015,-22.6224C386.4627,-29.5793 412.9162,-38.0753 432.8311,-44.4713"/>
<polygon fill="#191970" stroke="#191970" points="365.8182,-19.2729 355.227,-19.5473 363.6777,-25.9376 365.8182,-19.2729"/>
</g>
</g>
</svg>
