<?xml version="1.0" encoding="UTF-8" standalone="no"?>
<!DOCTYPE svg PUBLIC "-//W3C//DTD SVG 1.1//EN"
 "http://www.w3.org/Graphics/SVG/1.1/DTD/svg11.dtd">
<!-- Generated by graphviz version 2.40.1 (20161225.0304)
 -->
<!-- Title: Fish::init Pages: 1 -->
<svg width="697pt" height="236pt"
 viewBox="0.00 0.00 697.00 236.29" xmlns="http://www.w3.org/2000/svg" xmlns:xlink="http://www.w3.org/1999/xlink">
<g id="graph0" class="graph" transform="scale(1 1) rotate(0) translate(4 232.2932)">
<title>Fish::init</title>
<!-- Node21 -->
<g id="node1" class="node">
<title>Node21</title>
<polygon fill="#bfbfbf" stroke="#000000" points="0,-137 0,-156 54,-156 54,-137 0,-137"/>
<text text-anchor="middle" x="27" y="-144" font-family="Helvetica,sans-Serif" font-size="10.00" fill="#000000">Fish::init</text>
</g>
<!-- Node22 -->
<g id="node2" class="node">
<title>Node22</title>
<g id="a_node2"><a xlink:href="fish__glue_8cpp.html#a7b6a9b6d94c71377c935b2cfbffdfabc" target="_top" xlink:title="RCPP_MODULE">
<polygon fill="none" stroke="#000000" points="92.5,-175 92.5,-194 185.5,-194 185.5,-175 92.5,-175"/>
<text text-anchor="middle" x="139" y="-182" font-family="Helvetica,sans-Serif" font-size="10.00" fill="#000000">RCPP_MODULE</text>
</a>
</g>
</g>
<!-- Node21&#45;&gt;Node22 -->
<g id="edge1" class="edge">
<title>Node21&#45;&gt;Node22</title>
<path fill="none" stroke="#191970" d="M63.8241,-158.9939C79.1688,-164.2001 96.6982,-170.1476 110.968,-174.9891"/>
<polygon fill="#191970" stroke="#191970" points="64.7064,-155.5973 54.1121,-155.6987 62.4573,-162.2262 64.7064,-155.5973"/>
</g>
<!-- Node23 -->
<g id="node3" class="node">
<title>Node23</title>
<g id="a_node3"><a xlink:href="classPopulation.html#a012ef586a78b4e7c2082634b316072d0" target="_top" xlink:title="Population::init">
<polygon fill="none" stroke="#000000" points="98.5,-137 98.5,-156 179.5,-156 179.5,-137 98.5,-137"/>
<text text-anchor="middle" x="139" y="-144" font-family="Helvetica,sans-Serif" font-size="10.00" fill="#000000">Population::init</text>
</a>
</g>
</g>
<!-- Node21&#45;&gt;Node23 -->
<g id="edge2" class="edge">
<title>Node21&#45;&gt;Node23</title>
<path fill="none" stroke="#191970" d="M64.1639,-146.5C75.0581,-146.5 87.0287,-146.5 98.1396,-146.5"/>
<polygon fill="#191970" stroke="#191970" points="64.1121,-143.0001 54.1121,-146.5 64.112,-150.0001 64.1121,-143.0001"/>
</g>
<!-- Node33 -->
<g id="node13" class="node">
<title>Node33</title>
<g id="a_node13"><a xlink:href="classPopulation.html#a81c19d1c80cfb1d54d3872ecdefd0872" target="_top" xlink:title="Population::update">
<polygon fill="none" stroke="#000000" points="90,-99 90,-118 188,-118 188,-99 90,-99"/>
<text text-anchor="middle" x="139" y="-106" font-family="Helvetica,sans-Serif" font-size="10.00" fill="#000000">Population::update</text>
</a>
</g>
</g>
<!-- Node21&#45;&gt;Node33 -->
<g id="edge16" class="edge">
<title>Node21&#45;&gt;Node33</title>
<path fill="none" stroke="#191970" d="M63.8241,-134.0061C79.1688,-128.7999 96.6982,-122.8524 110.968,-118.0109"/>
<polygon fill="#191970" stroke="#191970" points="62.4573,-130.7738 54.1121,-137.3013 64.7064,-137.4027 62.4573,-130.7738"/>
</g>
<!-- Node24 -->
<g id="node4" class="node">
<title>Node24</title>
<g id="a_node4"><a xlink:href="fish__glue_8cpp.html#ab96ae82277aa9004dc603b77512c7265" target="_top" xlink:title="RCPP_MODULE">
<polygon fill="none" stroke="#000000" points="442.5,-99 442.5,-118 535.5,-118 535.5,-99 442.5,-99"/>
<text text-anchor="middle" x="489" y="-106" font-family="Helvetica,sans-Serif" font-size="10.00" fill="#000000">RCPP_MODULE</text>
</a>
</g>
</g>
<!-- Node23&#45;&gt;Node24 -->
<g id="edge3" class="edge">
<title>Node23&#45;&gt;Node24</title>
<path fill="none" stroke="#191970" d="M179.1972,-160.3578C182.2622,-161.9309 185.2349,-163.6439 188,-165.5 207.3163,-178.4659 202.6287,-194.3075 224,-203.5 288.5079,-231.2469 322.6615,-241.0513 382,-203.5 413.5828,-183.5134 389.2923,-151.4334 418,-127.5 424.9586,-121.6987 433.5187,-117.6538 442.2566,-114.8373"/>
<polygon fill="#191970" stroke="#191970" points="180.389,-157.0536 169.8413,-156.0555 177.4644,-163.4134 180.389,-157.0536"/>
</g>
<!-- Node25 -->
<g id="node5" class="node">
<title>Node25</title>
<g id="a_node5"><a xlink:href="classPopulation.html#aa7eba257f23cbc12aa3673ce012fb2cb" target="_top" xlink:title="Population::noFishingEquilibriate">
<polygon fill="none" stroke="#000000" points="224,-137 224,-156 382,-156 382,-137 224,-137"/>
<text text-anchor="middle" x="303" y="-144" font-family="Helvetica,sans-Serif" font-size="10.00" fill="#000000">Population::noFishingEquilibriate</text>
</a>
</g>
</g>
<!-- Node23&#45;&gt;Node25 -->
<g id="edge4" class="edge">
<title>Node23&#45;&gt;Node25</title>
<path fill="none" stroke="#191970" d="M189.6513,-146.5C200.5059,-146.5 212.2232,-146.5 223.8635,-146.5"/>
<polygon fill="#191970" stroke="#191970" points="189.5394,-143.0001 179.5393,-146.5 189.5393,-150.0001 189.5394,-143.0001"/>
</g>
<!-- Node28 -->
<g id="node8" class="node">
<title>Node28</title>
<g id="a_node8"><a xlink:href="classSimulator.html#a7540919b97662be7deacba9194c0ed60" target="_top" xlink:title="Simulator::simulate\l_multi">
<polygon fill="none" stroke="#000000" points="252.5,-49.5 252.5,-79.5 353.5,-79.5 353.5,-49.5 252.5,-49.5"/>
<text text-anchor="start" x="260.5" y="-67.5" font-family="Helvetica,sans-Serif" font-size="10.00" fill="#000000">Simulator::simulate</text>
<text text-anchor="middle" x="303" y="-56.5" font-family="Helvetica,sans-Serif" font-size="10.00" fill="#000000">_multi</text>
</a>
</g>
</g>
<!-- Node23&#45;&gt;Node28 -->
<g id="edge8" class="edge">
<title>Node23&#45;&gt;Node28</title>
<path fill="none" stroke="#191970" d="M175.0097,-133.1623C179.4221,-131.3449 183.8393,-129.4362 188,-127.5 219.5786,-112.8051 254.4881,-93.172 277.4674,-79.7524"/>
<polygon fill="#191970" stroke="#191970" points="173.4521,-130.0154 165.4596,-136.9702 176.0447,-136.5176 173.4521,-130.0154"/>
</g>
<!-- Node30 -->
<g id="node10" class="node">
<title>Node30</title>
<g id="a_node10"><a xlink:href="classSimulator.html#ab21d1c6b0af00931f9a8fa5e0b6d417f" target="_top" xlink:title="Simulator::simulate\l_multi_2d">
<polygon fill="none" stroke="#000000" points="252.5,-.5 252.5,-30.5 353.5,-30.5 353.5,-.5 252.5,-.5"/>
<text text-anchor="start" x="260.5" y="-18.5" font-family="Helvetica,sans-Serif" font-size="10.00" fill="#000000">Simulator::simulate</text>
<text text-anchor="middle" x="303" y="-7.5" font-family="Helvetica,sans-Serif" font-size="10.00" fill="#000000">_multi_2d</text>
</a>
</g>
</g>
<!-- Node23&#45;&gt;Node30 -->
<g id="edge11" class="edge">
<title>Node23&#45;&gt;Node30</title>
<path fill="none" stroke="#191970" d="M183.2748,-131.504C184.9491,-130.2704 186.5351,-128.9382 188,-127.5 218.1542,-97.8959 192.7575,-67.9532 224,-39.5 231.9484,-32.2612 242.0202,-27.204 252.2889,-23.6713"/>
<polygon fill="#191970" stroke="#191970" points="181.0861,-128.7358 174.317,-136.8863 184.6914,-134.736 181.0861,-128.7358"/>
</g>
<!-- Node32 -->
<g id="node12" class="node">
<title>Node32</title>
<g id="a_node12"><a xlink:href="classSimulator.html#aa6e6cfd73fd8d3200e7f515b473e88f2" target="_top" xlink:title="Simulator::simulate_r">
<polygon fill="none" stroke="#000000" points="248.5,-175 248.5,-194 357.5,-194 357.5,-175 248.5,-175"/>
<text text-anchor="middle" x="303" y="-182" font-family="Helvetica,sans-Serif" font-size="10.00" fill="#000000">Simulator::simulate_r</text>
</a>
</g>
</g>
<!-- Node23&#45;&gt;Node32 -->
<g id="edge14" class="edge">
<title>Node23&#45;&gt;Node32</title>
<path fill="none" stroke="#191970" d="M189.5426,-158.2111C212.7272,-163.5831 239.8665,-169.8715 261.7879,-174.9509"/>
<polygon fill="#191970" stroke="#191970" points="190.0713,-154.7409 179.5393,-155.8933 188.4912,-161.5603 190.0713,-154.7409"/>
</g>
<!-- Node25&#45;&gt;Node24 -->
<g id="edge5" class="edge">
<title>Node25&#45;&gt;Node24</title>
<path fill="none" stroke="#191970" d="M359.8255,-134.8905C386.279,-129.486 417.3583,-123.1365 442.4019,-118.0201"/>
<polygon fill="#191970" stroke="#191970" points="359.0327,-131.4801 349.9357,-136.911 360.4339,-138.3384 359.0327,-131.4801"/>
</g>
<!-- Node26 -->
<g id="node6" class="node">
<title>Node26</title>
<g id="a_node6"><a xlink:href="classSimulator.html#a3dfce52c0bb26ec7ff2632b1eca50240" target="_top" xlink:title="Simulator::equilibriateNatural\lPopulation">
<polygon fill="none" stroke="#000000" points="418,-137.5 418,-167.5 560,-167.5 560,-137.5 418,-137.5"/>
<text text-anchor="start" x="426" y="-155.5" font-family="Helvetica,sans-Serif" font-size="10.00" fill="#000000">Simulator::equilibriateNatural</text>
<text text-anchor="middle" x="489" y="-144.5" font-family="Helvetica,sans-Serif" font-size="10.00" fill="#000000">Population</text>
</a>
</g>
</g>
<!-- Node25&#45;&gt;Node26 -->
<g id="edge6" class="edge">
<title>Node25&#45;&gt;Node26</title>
<path fill="none" stroke="#191970" d="M392.2169,-149.378C400.8241,-149.6556 409.4746,-149.9347 417.8728,-150.2056"/>
<polygon fill="#191970" stroke="#191970" points="392.2581,-145.8776 382.1504,-149.0532 392.0324,-152.8739 392.2581,-145.8776"/>
</g>
<!-- Node27 -->
<g id="node7" class="node">
<title>Node27</title>
<g id="a_node7"><a xlink:href="fish__glue_8cpp.html#addebb0997b0e49067d8784c9954b7b96" target="_top" xlink:title="RCPP_MODULE">
<polygon fill="none" stroke="#000000" points="596,-99 596,-118 689,-118 689,-99 596,-99"/>
<text text-anchor="middle" x="642.5" y="-106" font-family="Helvetica,sans-Serif" font-size="10.00" fill="#000000">RCPP_MODULE</text>
</a>
</g>
</g>
<!-- Node26&#45;&gt;Node27 -->
<g id="edge7" class="edge">
<title>Node26&#45;&gt;Node27</title>
<path fill="none" stroke="#191970" d="M551.2795,-134.6479C571.0552,-128.9793 592.1608,-122.9295 609.0849,-118.0783"/>
<polygon fill="#191970" stroke="#191970" points="550.0451,-131.3607 541.3967,-137.4808 551.974,-138.0897 550.0451,-131.3607"/>
</g>
<!-- Node29 -->
<g id="node9" class="node">
<title>Node29</title>
<g id="a_node9"><a xlink:href="classSimulator.html#a1a5454ee4736819d709398b225d7876d" target="_top" xlink:title="Simulator::simulate\l_multi_r">
<polygon fill="none" stroke="#000000" points="438.5,-49.5 438.5,-79.5 539.5,-79.5 539.5,-49.5 438.5,-49.5"/>
<text text-anchor="start" x="446.5" y="-67.5" font-family="Helvetica,sans-Serif" font-size="10.00" fill="#000000">Simulator::simulate</text>
<text text-anchor="middle" x="489" y="-56.5" font-family="Helvetica,sans-Serif" font-size="10.00" fill="#000000">_multi_r</text>
</a>
</g>
</g>
<!-- Node28&#45;&gt;Node29 -->
<g id="edge9" class="edge">
<title>Node28&#45;&gt;Node29</title>
<path fill="none" stroke="#191970" d="M363.9114,-64.5C387.9637,-64.5 415.2797,-64.5 438.2361,-64.5"/>
<polygon fill="#191970" stroke="#191970" points="363.8254,-61.0001 353.8253,-64.5 363.8253,-68.0001 363.8254,-61.0001"/>
</g>
<!-- Node29&#45;&gt;Node27 -->
<g id="edge10" class="edge">
<title>Node29&#45;&gt;Node27</title>
<path fill="none" stroke="#191970" d="M549.5207,-81.848C569.8675,-87.6803 591.809,-93.9697 609.2652,-98.9734"/>
<polygon fill="#191970" stroke="#191970" points="550.2644,-78.4202 539.6871,-79.0292 548.3355,-85.1492 550.2644,-78.4202"/>
</g>
<!-- Node31 -->
<g id="node11" class="node">
<title>Node31</title>
<g id="a_node11"><a xlink:href="classSimulator.html#af1b0a9562ecf0ad8f98d61576efba28b" target="_top" xlink:title="Simulator::simulate\l_multi_2d_r">
<polygon fill="none" stroke="#000000" points="438.5,-.5 438.5,-30.5 539.5,-30.5 539.5,-.5 438.5,-.5"/>
<text text-anchor="start" x="446.5" y="-18.5" font-family="Helvetica,sans-Serif" font-size="10.00" fill="#000000">Simulator::simulate</text>
<text text-anchor="middle" x="489" y="-7.5" font-family="Helvetica,sans-Serif" font-size="10.00" fill="#000000">_multi_2d_r</text>
</a>
</g>
</g>
<!-- Node30&#45;&gt;Node31 -->
<g id="edge12" class="edge">
<title>Node30&#45;&gt;Node31</title>
<path fill="none" stroke="#191970" d="M363.9114,-15.5C387.9637,-15.5 415.2797,-15.5 438.2361,-15.5"/>
<polygon fill="#191970" stroke="#191970" points="363.8254,-12.0001 353.8253,-15.5 363.8253,-19.0001 363.8254,-12.0001"/>
</g>
<!-- Node31&#45;&gt;Node27 -->
<g id="edge13" class="edge">
<title>Node31&#45;&gt;Node27</title>
<path fill="none" stroke="#191970" d="M549.1143,-34.0186C552.8648,-35.7238 556.5247,-37.5504 560,-39.5 589.6379,-56.1268 618.8326,-83.9872 633.2343,-98.7047"/>
<polygon fill="#191970" stroke="#191970" points="550.2322,-30.6915 539.658,-30.0294 547.5113,-37.1411 550.2322,-30.6915"/>
</g>
<!-- Node32&#45;&gt;Node27 -->
<g id="edge15" class="edge">
<title>Node32&#45;&gt;Node27</title>
<path fill="none" stroke="#191970" d="M367.6429,-193.7729C421.0063,-198.8104 497.7965,-199.9302 560,-176.5 592.3079,-164.3306 621.2195,-133.9481 634.615,-118.2426"/>
<polygon fill="#191970" stroke="#191970" points="367.9299,-190.2842 357.6274,-192.7557 367.2225,-197.2483 367.9299,-190.2842"/>
</g>
<!-- Node33&#45;&gt;Node24 -->
<g id="edge17" class="edge">
<title>Node33&#45;&gt;Node24</title>
<path fill="none" stroke="#191970" d="M198.2817,-108.5C267.1238,-108.5 379.2648,-108.5 442.2523,-108.5"/>
<polygon fill="#191970" stroke="#191970" points="198.0346,-105.0001 188.0345,-108.5 198.0345,-112.0001 198.0346,-105.0001"/>
</g>
<!-- Node33&#45;&gt;Node25 -->
<g id="edge18" class="edge">
<title>Node33&#45;&gt;Node25</title>
<path fill="none" stroke="#191970" d="M190.341,-120.3961C213.3929,-125.7374 240.2211,-131.9537 261.9135,-136.9799"/>
<polygon fill="#191970" stroke="#191970" points="190.9161,-116.9367 180.3841,-118.089 189.336,-123.756 190.9161,-116.9367"/>
</g>
<!-- Node33&#45;&gt;Node28 -->
<g id="edge19" class="edge">
<title>Node33&#45;&gt;Node28</title>
<path fill="none" stroke="#191970" d="M184.2647,-96.3558C205.3466,-90.6997 230.512,-83.948 252.2378,-78.1191"/>
<polygon fill="#191970" stroke="#191970" points="183.337,-92.9808 174.5856,-98.9527 185.151,-99.7417 183.337,-92.9808"/>
</g>
<!-- Node33&#45;&gt;Node30 -->
<g id="edge20" class="edge">
<title>Node33&#45;&gt;Node30</title>
<path fill="none" stroke="#191970" d="M156.1083,-91.2046C172.3162,-75.698 197.9862,-53.3222 224,-39.5 232.7342,-34.8591 242.4993,-30.9765 252.105,-27.7804"/>
<polygon fill="#191970" stroke="#191970" points="153.2439,-89.1105 148.5434,-98.6056 158.1392,-94.1142 153.2439,-89.1105"/>
</g>
<!-- Node33&#45;&gt;Node32 -->
<g id="edge21" class="edge">
<title>Node33&#45;&gt;Node32</title>
<path fill="none" stroke="#191970" d="M179.1972,-122.3578C182.2622,-123.9309 185.2349,-125.6439 188,-127.5 207.3163,-140.4659 203.8596,-153.8552 224,-165.5 231.4494,-169.8071 239.8341,-173.1403 248.2855,-175.7193"/>
<polygon fill="#191970" stroke="#191970" points="180.389,-119.0536 169.8413,-118.0555 177.4644,-125.4134 180.389,-119.0536"/>
</g>
</g>
</svg>
