<?xml version="1.0" encoding="UTF-8" standalone="no"?>
<!DOCTYPE svg PUBLIC "-//W3C//DTD SVG 1.1//EN"
 "http://www.w3.org/Graphics/SVG/1.1/DTD/svg11.dtd">
<!-- Generated by graphviz version 2.40.1 (20161225.0304)
 -->
<!-- Title: Population::noFishingEquilibriate Pages: 1 -->
<svg width="473pt" height="78pt"
 viewBox="0.00 0.00 473.00 77.50" xmlns="http://www.w3.org/2000/svg" xmlns:xlink="http://www.w3.org/1999/xlink">
<g id="graph0" class="graph" transform="scale(1 1) rotate(0) translate(4 73.5)">
<title>Population::noFishingEquilibriate</title>
<!-- Node105 -->
<g id="node1" class="node">
<title>Node105</title>
<polygon fill="#bfbfbf" stroke="#000000" points="0,-28 0,-47 158,-47 158,-28 0,-28"/>
<text text-anchor="middle" x="79" y="-35" font-family="Helvetica,sans-Serif" font-size="10.00" fill="#000000">Population::noFishingEquilibriate</text>
</g>
<!-- Node106 -->
<g id="node2" class="node">
<title>Node106</title>
<g id="a_node2"><a xlink:href="fish__glue_8cpp.html#ab96ae82277aa9004dc603b77512c7265" target="_top" xlink:title="RCPP_MODULE">
<polygon fill="none" stroke="#000000" points="218.5,-50 218.5,-69 311.5,-69 311.5,-50 218.5,-50"/>
<text text-anchor="middle" x="265" y="-57" font-family="Helvetica,sans-Serif" font-size="10.00" fill="#000000">RCPP_MODULE</text>
</a>
</g>
</g>
<!-- Node105&#45;&gt;Node106 -->
<g id="edge1" class="edge">
<title>Node105&#45;&gt;Node106</title>
<path fill="none" stroke="#191970" d="M168.3292,-48.0658C185.6815,-50.1182 203.2045,-52.1909 218.4768,-53.9973"/>
<polygon fill="#191970" stroke="#191970" points="168.4924,-44.5608 158.1504,-46.8619 167.6701,-51.5123 168.4924,-44.5608"/>
</g>
<!-- Node107 -->
<g id="node3" class="node">
<title>Node107</title>
<g id="a_node3"><a xlink:href="classSimulator.html#a3dfce52c0bb26ec7ff2632b1eca50240" target="_top" xlink:title="Simulator::equilibriateNatural\lPopulation">
<polygon fill="none" stroke="#000000" points="194,-.5 194,-30.5 336,-30.5 336,-.5 194,-.5"/>
<text text-anchor="start" x="202" y="-18.5" font-family="Helvetica,sans-Serif" font-size="10.00" fill="#000000">Simulator::equilibriateNatural</text>
<text text-anchor="middle" x="265" y="-7.5" font-family="Helvetica,sans-Serif" font-size="10.00" fill="#000000">Population</text>
</a>
</g>
</g>
<!-- Node105&#45;&gt;Node107 -->
<g id="edge2" class="edge">
<title>Node105&#45;&gt;Node107</title>
<path fill="none" stroke="#191970" d="M168.2169,-26.9475C176.8241,-25.9294 185.4746,-24.9062 193.8728,-23.9129"/>
<polygon fill="#191970" stroke="#191970" points="167.6701,-23.4877 158.1504,-28.1381 168.4924,-30.4392 167.6701,-23.4877"/>
</g>
<!-- Node108 -->
<g id="node4" class="node">
<title>Node108</title>
<g id="a_node4"><a xlink:href="fish__glue_8cpp.html#addebb0997b0e49067d8784c9954b7b96" target="_top" xlink:title="RCPP_MODULE">
<polygon fill="none" stroke="#000000" points="372,-6 372,-25 465,-25 465,-6 372,-6"/>
<text text-anchor="middle" x="418.5" y="-13" font-family="Helvetica,sans-Serif" font-size="10.00" fill="#000000">RCPP_MODULE</text>
</a>
</g>
</g>
<!-- Node107&#45;&gt;Node108 -->
<g id="edge3" class="edge">
<title>Node107&#45;&gt;Node108</title>
<path fill="none" stroke="#191970" d="M346.5462,-15.5C355.2162,-15.5 363.8042,-15.5 371.8654,-15.5"/>
<polygon fill="#191970" stroke="#191970" points="346.3575,-12.0001 336.3575,-15.5 346.3574,-19.0001 346.3575,-12.0001"/>
</g>
</g>
</svg>
