<?xml version="1.0" encoding="UTF-8" standalone="no"?>
<!DOCTYPE svg PUBLIC "-//W3C//DTD SVG 1.1//EN"
 "http://www.w3.org/Graphics/SVG/1.1/DTD/svg11.dtd">
<!-- Generated by graphviz version 2.40.1 (20161225.0304)
 -->
<!-- Title: Population::set_superFishSize Pages: 1 -->
<svg width="601pt" height="119pt"
 viewBox="0.00 0.00 601.00 118.50" xmlns="http://www.w3.org/2000/svg" xmlns:xlink="http://www.w3.org/1999/xlink">
<g id="graph0" class="graph" transform="scale(1 1) rotate(0) translate(4 114.5)">
<title>Population::set_superFishSize</title>
<!-- Node149 -->
<g id="node1" class="node">
<title>Node149</title>
<polygon fill="#bfbfbf" stroke="#000000" points="0,-53 0,-72 149,-72 149,-53 0,-53"/>
<text text-anchor="middle" x="74.5" y="-60" font-family="Helvetica,sans-Serif" font-size="10.00" fill="#000000">Population::set_superFishSize</text>
</g>
<!-- Node150 -->
<g id="node2" class="node">
<title>Node150</title>
<g id="a_node2"><a xlink:href="fish__glue_8cpp.html#ab96ae82277aa9004dc603b77512c7265" target="_top" xlink:title="RCPP_MODULE">
<polygon fill="none" stroke="#000000" points="189,-91 189,-110 282,-110 282,-91 189,-91"/>
<text text-anchor="middle" x="235.5" y="-98" font-family="Helvetica,sans-Serif" font-size="10.00" fill="#000000">RCPP_MODULE</text>
</a>
</g>
</g>
<!-- Node149&#45;&gt;Node150 -->
<g id="edge1" class="edge">
<title>Node149&#45;&gt;Node150</title>
<path fill="none" stroke="#191970" d="M124.9018,-74.3961C147.532,-79.7374 173.8695,-85.9537 195.165,-90.9799"/>
<polygon fill="#191970" stroke="#191970" points="125.6637,-70.9798 115.1271,-72.089 124.0557,-77.7926 125.6637,-70.9798"/>
</g>
<!-- Node151 -->
<g id="node3" class="node">
<title>Node151</title>
<g id="a_node3"><a xlink:href="classSimulator.html#a3dfce52c0bb26ec7ff2632b1eca50240" target="_top" xlink:title="Simulator::equilibriateNatural\lPopulation">
<polygon fill="none" stroke="#000000" points="322,-49.5 322,-79.5 464,-79.5 464,-49.5 322,-49.5"/>
<text text-anchor="start" x="330" y="-67.5" font-family="Helvetica,sans-Serif" font-size="10.00" fill="#000000">Simulator::equilibriateNatural</text>
<text text-anchor="middle" x="393" y="-56.5" font-family="Helvetica,sans-Serif" font-size="10.00" fill="#000000">Population</text>
</a>
</g>
</g>
<!-- Node149&#45;&gt;Node151 -->
<g id="edge2" class="edge">
<title>Node149&#45;&gt;Node151</title>
<path fill="none" stroke="#191970" d="M159.456,-63.0335C210.1406,-63.3517 273.7658,-63.7513 321.802,-64.0529"/>
<polygon fill="#191970" stroke="#191970" points="159.1959,-59.5319 149.1741,-62.9689 159.1519,-66.5317 159.1959,-59.5319"/>
</g>
<!-- Node153 -->
<g id="node5" class="node">
<title>Node153</title>
<g id="a_node5"><a xlink:href="classSimulator.html#a7540919b97662be7deacba9194c0ed60" target="_top" xlink:title="Simulator::simulate\l_multi">
<polygon fill="none" stroke="#000000" points="185,-2.5 185,-32.5 286,-32.5 286,-2.5 185,-2.5"/>
<text text-anchor="start" x="193" y="-20.5" font-family="Helvetica,sans-Serif" font-size="10.00" fill="#000000">Simulator::simulate</text>
<text text-anchor="middle" x="235.5" y="-9.5" font-family="Helvetica,sans-Serif" font-size="10.00" fill="#000000">_multi</text>
</a>
</g>
</g>
<!-- Node149&#45;&gt;Node153 -->
<g id="edge4" class="edge">
<title>Node149&#45;&gt;Node153</title>
<path fill="none" stroke="#191970" d="M118.3793,-50.2356C138.9385,-44.4892 163.5477,-37.6109 184.89,-31.6457"/>
<polygon fill="#191970" stroke="#191970" points="117.3327,-46.8939 108.644,-52.9567 119.217,-53.6355 117.3327,-46.8939"/>
</g>
<!-- Node152 -->
<g id="node4" class="node">
<title>Node152</title>
<g id="a_node4"><a xlink:href="fish__glue_8cpp.html#addebb0997b0e49067d8784c9954b7b96" target="_top" xlink:title="RCPP_MODULE">
<polygon fill="none" stroke="#000000" points="500,-30 500,-49 593,-49 593,-30 500,-30"/>
<text text-anchor="middle" x="546.5" y="-37" font-family="Helvetica,sans-Serif" font-size="10.00" fill="#000000">RCPP_MODULE</text>
</a>
</g>
</g>
<!-- Node151&#45;&gt;Node152 -->
<g id="edge3" class="edge">
<title>Node151&#45;&gt;Node152</title>
<path fill="none" stroke="#191970" d="M474.2635,-51.2649C483.0294,-49.8372 491.7166,-48.4224 499.8654,-47.0952"/>
<polygon fill="#191970" stroke="#191970" points="473.6648,-47.8162 464.3575,-52.8783 474.7901,-54.7252 473.6648,-47.8162"/>
</g>
<!-- Node154 -->
<g id="node6" class="node">
<title>Node154</title>
<g id="a_node6"><a xlink:href="classSimulator.html#a1a5454ee4736819d709398b225d7876d" target="_top" xlink:title="Simulator::simulate\l_multi_r">
<polygon fill="none" stroke="#000000" points="342.5,-.5 342.5,-30.5 443.5,-30.5 443.5,-.5 342.5,-.5"/>
<text text-anchor="start" x="350.5" y="-18.5" font-family="Helvetica,sans-Serif" font-size="10.00" fill="#000000">Simulator::simulate</text>
<text text-anchor="middle" x="393" y="-7.5" font-family="Helvetica,sans-Serif" font-size="10.00" fill="#000000">_multi_r</text>
</a>
</g>
</g>
<!-- Node153&#45;&gt;Node154 -->
<g id="edge5" class="edge">
<title>Node153&#45;&gt;Node154</title>
<path fill="none" stroke="#191970" d="M296.5248,-16.7251C311.6934,-16.5325 327.7875,-16.3281 342.3941,-16.1426"/>
<polygon fill="#191970" stroke="#191970" points="296.1557,-13.2294 286.2009,-16.8562 296.2446,-20.2288 296.1557,-13.2294"/>
</g>
<!-- Node154&#45;&gt;Node152 -->
<g id="edge6" class="edge">
<title>Node154&#45;&gt;Node152</title>
<path fill="none" stroke="#191970" d="M453.6161,-24.9774C468.9646,-27.3772 485.2148,-29.9179 499.7586,-32.1919"/>
<polygon fill="#191970" stroke="#191970" points="454.1077,-21.5119 443.6871,-23.425 453.0263,-28.4278 454.1077,-21.5119"/>
</g>
</g>
</svg>
