<?xml version="1.0" encoding="UTF-8" standalone="no"?>
<!DOCTYPE svg PUBLIC "-//W3C//DTD SVG 1.1//EN"
 "http://www.w3.org/Graphics/SVG/1.1/DTD/svg11.dtd">
<!-- Generated by graphviz version 2.40.1 (20161225.0304)
 -->
<!-- Title: FishParams Pages: 1 -->
<svg width="587pt" height="319pt"
 viewBox="0.00 0.00 587.00 319.42" xmlns="http://www.w3.org/2000/svg" xmlns:xlink="http://www.w3.org/1999/xlink">
<g id="graph0" class="graph" transform="scale(1 1) rotate(0) translate(4 315.4243)">
<title>FishParams</title>
<!-- Node1 -->
<g id="node1" class="node">
<title>Node1</title>
<polygon fill="#bfbfbf" stroke="#000000" points="510,-121.9243 510,-140.9243 579,-140.9243 579,-121.9243 510,-121.9243"/>
<text text-anchor="middle" x="544.5" y="-128.9243" font-family="Helvetica,sans-Serif" font-size="10.00" fill="#000000">FishParams</text>
</g>
<!-- Node2 -->
<g id="node2" class="node">
<title>Node2</title>
<polygon fill="none" stroke="#bfbfbf" points="253,-186.4243 253,-216.4243 363,-216.4243 363,-186.4243 253,-186.4243"/>
<text text-anchor="start" x="261" y="-204.4243" font-family="Helvetica,sans-Serif" font-size="10.00" fill="#000000">std::map&lt; std::string,</text>
<text text-anchor="middle" x="308" y="-193.4243" font-family="Helvetica,sans-Serif" font-size="10.00" fill="#000000"> RecruitmentModel &gt;</text>
</g>
<!-- Node2&#45;&gt;Node1 -->
<g id="edge1" class="edge">
<title>Node2&#45;&gt;Node1</title>
<path fill="none" stroke="#9a32cd" stroke-dasharray="5,2" d="M372.9841,-191.6194C408.8129,-185.062 453.6715,-174.9369 492,-160.4243 505.4384,-155.336 519.6445,-147.3064 529.8854,-140.9853"/>
<polygon fill="#9a32cd" stroke="#9a32cd" points="372.3619,-188.175 363.1309,-193.375 373.5898,-195.0665 372.3619,-188.175"/>
<text text-anchor="middle" x="436.5" y="-192.4243" font-family="Helvetica,sans-Serif" font-size="10.00" fill="#000000"> recruitment_names_map</text>
</g>
<!-- Node3 -->
<g id="node3" class="node">
<title>Node3</title>
<g id="a_node3"><a xlink:title="STL class. ">
<polygon fill="none" stroke="#bfbfbf" points="132,-142.9243 132,-161.9243 192,-161.9243 192,-142.9243 132,-142.9243"/>
<text text-anchor="middle" x="162" y="-149.9243" font-family="Helvetica,sans-Serif" font-size="10.00" fill="#000000">std::string</text>
</a>
</g>
</g>
<!-- Node3&#45;&gt;Node1 -->
<g id="edge4" class="edge">
<title>Node3&#45;&gt;Node1</title>
<path fill="none" stroke="#9a32cd" stroke-dasharray="5,2" d="M176.3893,-169.6416C192.7698,-187.7646 221.3849,-215.1923 253,-226.4243 299.0679,-242.791 314.2854,-230.5485 363,-226.4243 420.9538,-221.5179 442.6646,-235.2258 492,-204.4243 516.7624,-188.9644 533.3616,-157.1388 540.5108,-141.1059"/>
<polygon fill="#9a32cd" stroke="#9a32cd" points="178.976,-167.2827 169.7572,-162.0612 173.7077,-171.892 178.976,-167.2827"/>
<text text-anchor="middle" x="308" y="-303.4243" font-family="Helvetica,sans-Serif" font-size="10.00" fill="#000000"> growth_model_name</text>
<text text-anchor="start" x="261" y="-292.4243" font-family="Helvetica,sans-Serif" font-size="10.00" fill="#000000">recruitment_model</text>
<text text-anchor="middle" x="308" y="-281.4243" font-family="Helvetica,sans-Serif" font-size="10.00" fill="#000000">_name</text>
<text text-anchor="start" x="261" y="-270.4243" font-family="Helvetica,sans-Serif" font-size="10.00" fill="#000000">mortality_model</text>
<text text-anchor="middle" x="308" y="-259.4243" font-family="Helvetica,sans-Serif" font-size="10.00" fill="#000000">_name</text>
<text text-anchor="start" x="261" y="-248.4243" font-family="Helvetica,sans-Serif" font-size="10.00" fill="#000000">maturation_model</text>
<text text-anchor="middle" x="308" y="-237.4243" font-family="Helvetica,sans-Serif" font-size="10.00" fill="#000000">_name</text>
</g>
<!-- Node3&#45;&gt;Node2 -->
<g id="edge2" class="edge">
<title>Node3&#45;&gt;Node2</title>
<path fill="none" stroke="#9a32cd" stroke-dasharray="5,2" d="M200.1666,-165.2336C219.4755,-171.714 243.0315,-179.6198 263.196,-186.3873"/>
<polygon fill="#9a32cd" stroke="#9a32cd" points="201.0908,-161.852 190.4969,-161.9883 198.8635,-168.4882 201.0908,-161.852"/>
<text text-anchor="middle" x="222.5" y="-179.4243" font-family="Helvetica,sans-Serif" font-size="10.00" fill="#000000"> keys</text>
</g>
<!-- Node5 -->
<g id="node5" class="node">
<title>Node5</title>
<polygon fill="none" stroke="#bfbfbf" points="253,-137.4243 253,-167.4243 363,-167.4243 363,-137.4243 253,-137.4243"/>
<text text-anchor="start" x="261" y="-155.4243" font-family="Helvetica,sans-Serif" font-size="10.00" fill="#000000">std::map&lt; std::string,</text>
<text text-anchor="middle" x="308" y="-144.4243" font-family="Helvetica,sans-Serif" font-size="10.00" fill="#000000"> GrowthModel &gt;</text>
</g>
<!-- Node3&#45;&gt;Node5 -->
<g id="edge6" class="edge">
<title>Node3&#45;&gt;Node5</title>
<path fill="none" stroke="#9a32cd" stroke-dasharray="5,2" d="M202.5554,-152.4243C218.0726,-152.4243 236.0451,-152.4243 252.7077,-152.4243"/>
<polygon fill="#9a32cd" stroke="#9a32cd" points="202.2513,-148.9244 192.2513,-152.4243 202.2513,-155.9244 202.2513,-148.9244"/>
<text text-anchor="middle" x="222.5" y="-155.4243" font-family="Helvetica,sans-Serif" font-size="10.00" fill="#000000"> keys</text>
</g>
<!-- Node6 -->
<g id="node6" class="node">
<title>Node6</title>
<polygon fill="none" stroke="#bfbfbf" points="253,-88.4243 253,-118.4243 363,-118.4243 363,-88.4243 253,-88.4243"/>
<text text-anchor="start" x="261" y="-106.4243" font-family="Helvetica,sans-Serif" font-size="10.00" fill="#000000">std::map&lt; std::string,</text>
<text text-anchor="middle" x="308" y="-95.4243" font-family="Helvetica,sans-Serif" font-size="10.00" fill="#000000"> MaturationModel &gt;</text>
</g>
<!-- Node3&#45;&gt;Node6 -->
<g id="edge8" class="edge">
<title>Node3&#45;&gt;Node6</title>
<path fill="none" stroke="#9a32cd" stroke-dasharray="5,2" d="M200.1666,-139.6149C219.4755,-133.1346 243.0315,-125.2288 263.196,-118.4613"/>
<polygon fill="#9a32cd" stroke="#9a32cd" points="198.8635,-136.3603 190.4969,-142.8603 201.0908,-142.9966 198.8635,-136.3603"/>
<text text-anchor="middle" x="222.5" y="-137.4243" font-family="Helvetica,sans-Serif" font-size="10.00" fill="#000000"> keys</text>
</g>
<!-- Node7 -->
<g id="node7" class="node">
<title>Node7</title>
<polygon fill="none" stroke="#bfbfbf" points="253,-39.4243 253,-69.4243 363,-69.4243 363,-39.4243 253,-39.4243"/>
<text text-anchor="start" x="261" y="-57.4243" font-family="Helvetica,sans-Serif" font-size="10.00" fill="#000000">std::map&lt; std::string,</text>
<text text-anchor="middle" x="308" y="-46.4243" font-family="Helvetica,sans-Serif" font-size="10.00" fill="#000000"> MortalityModel &gt;</text>
</g>
<!-- Node3&#45;&gt;Node7 -->
<g id="edge10" class="edge">
<title>Node3&#45;&gt;Node7</title>
<path fill="none" stroke="#9a32cd" stroke-dasharray="5,2" d="M179.6925,-135.7996C197.2846,-119.8787 225.5406,-95.9066 253,-79.4243 258.8455,-75.9156 265.2683,-72.5769 271.5985,-69.5481"/>
<polygon fill="#9a32cd" stroke="#9a32cd" points="176.9594,-133.5577 171.9632,-142.9005 181.6952,-138.7126 176.9594,-133.5577"/>
<text text-anchor="middle" x="222.5" y="-111.4243" font-family="Helvetica,sans-Serif" font-size="10.00" fill="#000000"> keys</text>
</g>
<!-- Node4 -->
<g id="node4" class="node">
<title>Node4</title>
<g id="a_node4"><a xlink:title="STL class. ">
<polygon fill="none" stroke="#bfbfbf" points="0,-137.4243 0,-167.4243 95,-167.4243 95,-137.4243 0,-137.4243"/>
<text text-anchor="start" x="8" y="-155.4243" font-family="Helvetica,sans-Serif" font-size="10.00" fill="#000000">std::basic_string&lt;</text>
<text text-anchor="middle" x="47.5" y="-144.4243" font-family="Helvetica,sans-Serif" font-size="10.00" fill="#000000"> char &gt;</text>
</a>
</g>
</g>
<!-- Node4&#45;&gt;Node3 -->
<g id="edge3" class="edge">
<title>Node4&#45;&gt;Node3</title>
<path fill="none" stroke="#191970" d="M105.3356,-152.4243C114.4701,-152.4243 123.5847,-152.4243 131.7491,-152.4243"/>
<polygon fill="#191970" stroke="#191970" points="105.0636,-148.9244 95.0636,-152.4243 105.0636,-155.9244 105.0636,-148.9244"/>
</g>
<!-- Node5&#45;&gt;Node1 -->
<g id="edge5" class="edge">
<title>Node5&#45;&gt;Node1</title>
<path fill="none" stroke="#9a32cd" stroke-dasharray="5,2" d="M373.2327,-146.632C417.4154,-142.7087 474.0511,-137.6798 509.8199,-134.5037"/>
<polygon fill="#9a32cd" stroke="#9a32cd" points="372.8015,-143.1564 363.1503,-147.5272 373.4207,-150.1289 372.8015,-143.1564"/>
<text text-anchor="middle" x="436.5" y="-148.4243" font-family="Helvetica,sans-Serif" font-size="10.00" fill="#000000"> growth_names_map</text>
</g>
<!-- Node6&#45;&gt;Node1 -->
<g id="edge7" class="edge">
<title>Node6&#45;&gt;Node1</title>
<path fill="none" stroke="#9a32cd" stroke-dasharray="5,2" d="M373.4661,-108.3756C408.6867,-111.405 452.8194,-115.7882 492,-121.4243 497.7859,-122.2566 503.9035,-123.2848 509.8392,-124.3622"/>
<polygon fill="#9a32cd" stroke="#9a32cd" points="373.5689,-104.8719 363.3098,-107.5182 372.9799,-111.8471 373.5689,-104.8719"/>
<text text-anchor="middle" x="436.5" y="-124.4243" font-family="Helvetica,sans-Serif" font-size="10.00" fill="#000000"> maturation_names_map</text>
</g>
<!-- Node7&#45;&gt;Node1 -->
<g id="edge9" class="edge">
<title>Node7&#45;&gt;Node1</title>
<path fill="none" stroke="#9a32cd" stroke-dasharray="5,2" d="M373.3353,-61.5112C409.4586,-67.0742 454.4876,-76.7758 492,-93.4243 508.0435,-100.5446 524.0292,-113.0979 534.07,-121.8186"/>
<polygon fill="#9a32cd" stroke="#9a32cd" points="373.7993,-58.0419 363.3965,-60.0495 372.7808,-64.9674 373.7993,-58.0419"/>
<text text-anchor="middle" x="436.5" y="-96.4243" font-family="Helvetica,sans-Serif" font-size="10.00" fill="#000000"> mortality_names_map</text>
</g>
<!-- Node8 -->
<g id="node8" class="node">
<title>Node8</title>
<polygon fill="none" stroke="#bfbfbf" points="253,-.9243 253,-19.9243 363,-19.9243 363,-.9243 253,-.9243"/>
<text text-anchor="middle" x="308" y="-7.9243" font-family="Helvetica,sans-Serif" font-size="10.00" fill="#000000">std::vector&lt; double &gt;</text>
</g>
<!-- Node8&#45;&gt;Node1 -->
<g id="edge11" class="edge">
<title>Node8&#45;&gt;Node1</title>
<path fill="none" stroke="#9a32cd" stroke-dasharray="5,2" d="M373.7638,-.6918C411.4166,1.4097 457.8176,-2.2322 492,-25.4243 525.988,-48.4844 538.9132,-100.2104 542.9416,-121.737"/>
<polygon fill="#9a32cd" stroke="#9a32cd" points="373.1213,2.7716 363.3932,-1.4253 373.6153,-4.2109 373.1213,2.7716"/>
<text text-anchor="middle" x="436.5" y="-50.4243" font-family="Helvetica,sans-Serif" font-size="10.00" fill="#000000"> mam</text>
<text text-anchor="middle" x="436.5" y="-39.4243" font-family="Helvetica,sans-Serif" font-size="10.00" fill="#000000">ma</text>
<text text-anchor="middle" x="436.5" y="-28.4243" font-family="Helvetica,sans-Serif" font-size="10.00" fill="#000000">mai</text>
</g>
</g>
</svg>
