<?xml version="1.0" encoding="UTF-8" standalone="no"?>
<!DOCTYPE svg PUBLIC "-//W3C//DTD SVG 1.1//EN"
 "http://www.w3.org/Graphics/SVG/1.1/DTD/svg11.dtd">
<!-- Generated by graphviz version 2.40.1 (20161225.0304)
 -->
<!-- Title: Population::set_harvestProp Pages: 1 -->
<svg width="649pt" height="214pt"
 viewBox="0.00 0.00 649.00 214.00" xmlns="http://www.w3.org/2000/svg" xmlns:xlink="http://www.w3.org/1999/xlink">
<g id="graph0" class="graph" transform="scale(1 1) rotate(0) translate(4 210)">
<title>Population::set_harvestProp</title>
<!-- Node131 -->
<g id="node1" class="node">
<title>Node131</title>
<polygon fill="#bfbfbf" stroke="#000000" points="0,-93.5 0,-112.5 140,-112.5 140,-93.5 0,-93.5"/>
<text text-anchor="middle" x="70" y="-100.5" font-family="Helvetica,sans-Serif" font-size="10.00" fill="#000000">Population::set_harvestProp</text>
</g>
<!-- Node132 -->
<g id="node2" class="node">
<title>Node132</title>
<g id="a_node2"><a xlink:href="fish__glue_8cpp.html#ab96ae82277aa9004dc603b77512c7265" target="_top" xlink:title="RCPP_MODULE">
<polygon fill="none" stroke="#000000" points="394.5,-186.5 394.5,-205.5 487.5,-205.5 487.5,-186.5 394.5,-186.5"/>
<text text-anchor="middle" x="441" y="-193.5" font-family="Helvetica,sans-Serif" font-size="10.00" fill="#000000">RCPP_MODULE</text>
</a>
</g>
</g>
<!-- Node131&#45;&gt;Node132 -->
<g id="edge1" class="edge">
<title>Node131&#45;&gt;Node132</title>
<path fill="none" stroke="#191970" d="M88.8829,-119.1367C109.0149,-135.3231 142.5429,-159.457 176,-171 249.1713,-196.2448 340.0388,-199.157 394.1204,-198.1535"/>
<polygon fill="#191970" stroke="#191970" points="91.0606,-116.3961 81.1144,-112.7461 86.6136,-121.802 91.0606,-116.3961"/>
</g>
<!-- Node133 -->
<g id="node3" class="node">
<title>Node133</title>
<g id="a_node3"><a xlink:href="classPopulation.html#aa7eba257f23cbc12aa3673ce012fb2cb" target="_top" xlink:title="Population::noFishingEquilibriate">
<polygon fill="none" stroke="#000000" points="176,-142.5 176,-161.5 334,-161.5 334,-142.5 176,-142.5"/>
<text text-anchor="middle" x="255" y="-149.5" font-family="Helvetica,sans-Serif" font-size="10.00" fill="#000000">Population::noFishingEquilibriate</text>
</a>
</g>
</g>
<!-- Node131&#45;&gt;Node133 -->
<g id="edge2" class="edge">
<title>Node131&#45;&gt;Node133</title>
<path fill="none" stroke="#191970" d="M116.0632,-115.2005C147.8798,-123.6276 189.5934,-134.6761 218.982,-142.4601"/>
<polygon fill="#191970" stroke="#191970" points="116.6719,-111.7411 106.109,-112.564 114.8796,-118.5078 116.6719,-111.7411"/>
</g>
<!-- Node136 -->
<g id="node6" class="node">
<title>Node136</title>
<g id="a_node6"><a xlink:href="classSimulator.html#a7540919b97662be7deacba9194c0ed60" target="_top" xlink:title="Simulator::simulate\l_multi">
<polygon fill="none" stroke="#000000" points="204.5,-88 204.5,-118 305.5,-118 305.5,-88 204.5,-88"/>
<text text-anchor="start" x="212.5" y="-106" font-family="Helvetica,sans-Serif" font-size="10.00" fill="#000000">Simulator::simulate</text>
<text text-anchor="middle" x="255" y="-95" font-family="Helvetica,sans-Serif" font-size="10.00" fill="#000000">_multi</text>
</a>
</g>
</g>
<!-- Node131&#45;&gt;Node136 -->
<g id="edge6" class="edge">
<title>Node131&#45;&gt;Node136</title>
<path fill="none" stroke="#191970" d="M150.3232,-103C168.6917,-103 187.7121,-103 204.4188,-103"/>
<polygon fill="#191970" stroke="#191970" points="150.2044,-99.5001 140.2044,-103 150.2043,-106.5001 150.2044,-99.5001"/>
</g>
<!-- Node138 -->
<g id="node8" class="node">
<title>Node138</title>
<g id="a_node8"><a xlink:href="classSimulator.html#ab21d1c6b0af00931f9a8fa5e0b6d417f" target="_top" xlink:title="Simulator::simulate\l_multi_2d">
<polygon fill="none" stroke="#000000" points="204.5,-39 204.5,-69 305.5,-69 305.5,-39 204.5,-39"/>
<text text-anchor="start" x="212.5" y="-57" font-family="Helvetica,sans-Serif" font-size="10.00" fill="#000000">Simulator::simulate</text>
<text text-anchor="middle" x="255" y="-46" font-family="Helvetica,sans-Serif" font-size="10.00" fill="#000000">_multi_2d</text>
</a>
</g>
</g>
<!-- Node131&#45;&gt;Node138 -->
<g id="edge9" class="edge">
<title>Node131&#45;&gt;Node138</title>
<path fill="none" stroke="#191970" d="M116.0152,-90.8122C142.8347,-83.7086 176.699,-74.7392 204.2855,-67.4325"/>
<polygon fill="#191970" stroke="#191970" points="114.8796,-87.4922 106.109,-93.436 116.6719,-94.2589 114.8796,-87.4922"/>
</g>
<!-- Node140 -->
<g id="node10" class="node">
<title>Node140</title>
<g id="a_node10"><a xlink:href="classSimulator.html#aa6e6cfd73fd8d3200e7f515b473e88f2" target="_top" xlink:title="Simulator::simulate_r">
<polygon fill="none" stroke="#000000" points="200.5,-.5 200.5,-19.5 309.5,-19.5 309.5,-.5 200.5,-.5"/>
<text text-anchor="middle" x="255" y="-7.5" font-family="Helvetica,sans-Serif" font-size="10.00" fill="#000000">Simulator::simulate_r</text>
</a>
</g>
</g>
<!-- Node131&#45;&gt;Node140 -->
<g id="edge12" class="edge">
<title>Node131&#45;&gt;Node140</title>
<path fill="none" stroke="#191970" d="M88.6876,-86.6622C108.8903,-69.8257 142.6887,-43.9856 176,-29 184.4906,-25.1804 193.8542,-22.0674 203.0762,-19.5505"/>
<polygon fill="#191970" stroke="#191970" points="86.2626,-84.1297 80.9027,-93.2688 90.792,-89.4669 86.2626,-84.1297"/>
</g>
<!-- Node133&#45;&gt;Node132 -->
<g id="edge3" class="edge">
<title>Node133&#45;&gt;Node132</title>
<path fill="none" stroke="#191970" d="M305.205,-163.8764C335.1669,-170.9642 372.7075,-179.8448 400.7195,-186.4713"/>
<polygon fill="#191970" stroke="#191970" points="305.8964,-160.4435 295.3592,-161.5473 304.2849,-167.2555 305.8964,-160.4435"/>
</g>
<!-- Node134 -->
<g id="node4" class="node">
<title>Node134</title>
<g id="a_node4"><a xlink:href="classSimulator.html#a3dfce52c0bb26ec7ff2632b1eca50240" target="_top" xlink:title="Simulator::equilibriateNatural\lPopulation">
<polygon fill="none" stroke="#000000" points="370,-137 370,-167 512,-167 512,-137 370,-137"/>
<text text-anchor="start" x="378" y="-155" font-family="Helvetica,sans-Serif" font-size="10.00" fill="#000000">Simulator::equilibriateNatural</text>
<text text-anchor="middle" x="441" y="-144" font-family="Helvetica,sans-Serif" font-size="10.00" fill="#000000">Population</text>
</a>
</g>
</g>
<!-- Node133&#45;&gt;Node134 -->
<g id="edge4" class="edge">
<title>Node133&#45;&gt;Node134</title>
<path fill="none" stroke="#191970" d="M344.2169,-152C352.8241,-152 361.4746,-152 369.8728,-152"/>
<polygon fill="#191970" stroke="#191970" points="344.1505,-148.5001 334.1504,-152 344.1504,-155.5001 344.1505,-148.5001"/>
</g>
<!-- Node135 -->
<g id="node5" class="node">
<title>Node135</title>
<g id="a_node5"><a xlink:href="fish__glue_8cpp.html#addebb0997b0e49067d8784c9954b7b96" target="_top" xlink:title="RCPP_MODULE">
<polygon fill="none" stroke="#000000" points="548,-68.5 548,-87.5 641,-87.5 641,-68.5 548,-68.5"/>
<text text-anchor="middle" x="594.5" y="-75.5" font-family="Helvetica,sans-Serif" font-size="10.00" fill="#000000">RCPP_MODULE</text>
</a>
</g>
</g>
<!-- Node134&#45;&gt;Node135 -->
<g id="edge5" class="edge">
<title>Node134&#45;&gt;Node135</title>
<path fill="none" stroke="#191970" d="M499.485,-133.3837C503.7638,-131.6712 507.9759,-129.872 512,-128 537.3596,-116.2029 564.7409,-98.5197 580.7144,-87.6502"/>
<polygon fill="#191970" stroke="#191970" points="498.1487,-130.1475 490.059,-136.9892 500.6495,-136.6856 498.1487,-130.1475"/>
</g>
<!-- Node137 -->
<g id="node7" class="node">
<title>Node137</title>
<g id="a_node7"><a xlink:href="classSimulator.html#a1a5454ee4736819d709398b225d7876d" target="_top" xlink:title="Simulator::simulate\l_multi_r">
<polygon fill="none" stroke="#000000" points="390.5,-88 390.5,-118 491.5,-118 491.5,-88 390.5,-88"/>
<text text-anchor="start" x="398.5" y="-106" font-family="Helvetica,sans-Serif" font-size="10.00" fill="#000000">Simulator::simulate</text>
<text text-anchor="middle" x="441" y="-95" font-family="Helvetica,sans-Serif" font-size="10.00" fill="#000000">_multi_r</text>
</a>
</g>
</g>
<!-- Node136&#45;&gt;Node137 -->
<g id="edge7" class="edge">
<title>Node136&#45;&gt;Node137</title>
<path fill="none" stroke="#191970" d="M315.9114,-103C339.9637,-103 367.2797,-103 390.2361,-103"/>
<polygon fill="#191970" stroke="#191970" points="315.8254,-99.5001 305.8253,-103 315.8253,-106.5001 315.8254,-99.5001"/>
</g>
<!-- Node137&#45;&gt;Node135 -->
<g id="edge8" class="edge">
<title>Node137&#45;&gt;Node135</title>
<path fill="none" stroke="#191970" d="M501.6161,-93.1277C516.9646,-90.6279 533.2148,-87.9813 547.7586,-85.6126"/>
<polygon fill="#191970" stroke="#191970" points="500.9944,-89.6827 491.6871,-94.7448 502.1197,-96.5917 500.9944,-89.6827"/>
</g>
<!-- Node139 -->
<g id="node9" class="node">
<title>Node139</title>
<g id="a_node9"><a xlink:href="classSimulator.html#af1b0a9562ecf0ad8f98d61576efba28b" target="_top" xlink:title="Simulator::simulate\l_multi_2d_r">
<polygon fill="none" stroke="#000000" points="390.5,-39 390.5,-69 491.5,-69 491.5,-39 390.5,-39"/>
<text text-anchor="start" x="398.5" y="-57" font-family="Helvetica,sans-Serif" font-size="10.00" fill="#000000">Simulator::simulate</text>
<text text-anchor="middle" x="441" y="-46" font-family="Helvetica,sans-Serif" font-size="10.00" fill="#000000">_multi_2d_r</text>
</a>
</g>
</g>
<!-- Node138&#45;&gt;Node139 -->
<g id="edge10" class="edge">
<title>Node138&#45;&gt;Node139</title>
<path fill="none" stroke="#191970" d="M315.9114,-54C339.9637,-54 367.2797,-54 390.2361,-54"/>
<polygon fill="#191970" stroke="#191970" points="315.8254,-50.5001 305.8253,-54 315.8253,-57.5001 315.8254,-50.5001"/>
</g>
<!-- Node139&#45;&gt;Node135 -->
<g id="edge11" class="edge">
<title>Node139&#45;&gt;Node135</title>
<path fill="none" stroke="#191970" d="M501.6161,-63.4774C516.9646,-65.8772 533.2148,-68.4179 547.7586,-70.6919"/>
<polygon fill="#191970" stroke="#191970" points="502.1077,-60.0119 491.6871,-61.925 501.0263,-66.9278 502.1077,-60.0119"/>
</g>
<!-- Node140&#45;&gt;Node135 -->
<g id="edge13" class="edge">
<title>Node140&#45;&gt;Node135</title>
<path fill="none" stroke="#191970" d="M319.7698,-6.6811C372.6824,-5.8739 448.7852,-9.1073 512,-29 539.3317,-37.6009 567.1783,-56.7637 582.5099,-68.4133"/>
<polygon fill="#191970" stroke="#191970" points="319.4328,-3.1872 309.5071,-6.8927 319.5772,-10.1858 319.4328,-3.1872"/>
</g>
</g>
</svg>
