<?xml version="1.0" encoding="UTF-8" standalone="no"?>
<!DOCTYPE svg PUBLIC "-//W3C//DTD SVG 1.1//EN"
 "http://www.w3.org/Graphics/SVG/1.1/DTD/svg11.dtd">
<!-- Generated by graphviz version 2.40.1 (20161225.0304)
 -->
<!-- Title: Fish::grow Pages: 1 -->
<svg width="336pt" height="104pt"
 viewBox="0.00 0.00 336.00 104.00" xmlns="http://www.w3.org/2000/svg" xmlns:xlink="http://www.w3.org/1999/xlink">
<g id="graph0" class="graph" transform="scale(1 1) rotate(0) translate(4 100)">
<title>Fish::grow</title>
<!-- Node6 -->
<g id="node1" class="node">
<title>Node6</title>
<polygon fill="#bfbfbf" stroke="#000000" points="0,-38.5 0,-57.5 62,-57.5 62,-38.5 0,-38.5"/>
<text text-anchor="middle" x="31" y="-45.5" font-family="Helvetica,sans-Serif" font-size="10.00" fill="#000000">Fish::grow</text>
</g>
<!-- Node7 -->
<g id="node2" class="node">
<title>Node7</title>
<g id="a_node2"><a xlink:href="namespacefish.html#a138fecf39fc899d469d340b073a4daec" target="_top" xlink:title="fish::length_adult">
<polygon fill="none" stroke="#000000" points="98,-76.5 98,-95.5 189,-95.5 189,-76.5 98,-76.5"/>
<text text-anchor="middle" x="143.5" y="-83.5" font-family="Helvetica,sans-Serif" font-size="10.00" fill="#000000">fish::length_adult</text>
</a>
</g>
</g>
<!-- Node6&#45;&gt;Node7 -->
<g id="edge1" class="edge">
<title>Node6&#45;&gt;Node7</title>
<path fill="none" stroke="#191970" d="M59.3885,-57.589C73.3782,-62.3144 90.444,-68.0789 105.5383,-73.1774"/>
<polygon fill="#191970" stroke="#191970" points="104.5264,-76.5298 115.1206,-76.4141 106.7665,-69.8979 104.5264,-76.5298"/>
</g>
<!-- Node8 -->
<g id="node3" class="node">
<title>Node8</title>
<g id="a_node3"><a xlink:href="namespacefish.html#a9d32a06cd887d748fca34b49b1e8d3d4" target="_top" xlink:title="fish::length_juvenile">
<polygon fill="none" stroke="#000000" points="225,-57.5 225,-76.5 328,-76.5 328,-57.5 225,-57.5"/>
<text text-anchor="middle" x="276.5" y="-64.5" font-family="Helvetica,sans-Serif" font-size="10.00" fill="#000000">fish::length_juvenile</text>
</a>
</g>
</g>
<!-- Node6&#45;&gt;Node8 -->
<g id="edge3" class="edge">
<title>Node6&#45;&gt;Node8</title>
<path fill="none" stroke="#191970" d="M62.0927,-50.4064C100.2775,-53.3616 165.9551,-58.4446 214.5844,-62.2082"/>
<polygon fill="#191970" stroke="#191970" points="214.4463,-65.7078 224.6866,-62.99 214.9865,-58.7287 214.4463,-65.7078"/>
</g>
<!-- Node9 -->
<g id="node4" class="node">
<title>Node9</title>
<g id="a_node4"><a xlink:href="namespacefish.html#a90c2a586379b7d0521d4ade4e55ee5ec" target="_top" xlink:title="fish::gsi">
<polygon fill="none" stroke="#000000" points="118,-.5 118,-19.5 169,-19.5 169,-.5 118,-.5"/>
<text text-anchor="middle" x="143.5" y="-7.5" font-family="Helvetica,sans-Serif" font-size="10.00" fill="#000000">fish::gsi</text>
</a>
</g>
</g>
<!-- Node6&#45;&gt;Node9 -->
<g id="edge4" class="edge">
<title>Node6&#45;&gt;Node9</title>
<path fill="none" stroke="#191970" d="M59.3885,-38.411C74.1258,-33.4331 92.2766,-27.3021 107.9404,-22.0113"/>
<polygon fill="#191970" stroke="#191970" points="109.4596,-25.1924 117.8136,-18.6763 107.2194,-18.5606 109.4596,-25.1924"/>
</g>
<!-- Node7&#45;&gt;Node8 -->
<g id="edge2" class="edge">
<title>Node7&#45;&gt;Node8</title>
<path fill="none" stroke="#191970" d="M189.2711,-79.4613C197.4802,-78.2885 206.1576,-77.0489 214.7297,-75.8243"/>
<polygon fill="#191970" stroke="#191970" points="215.3053,-79.2777 224.7098,-74.3986 214.3153,-72.3481 215.3053,-79.2777"/>
</g>
</g>
</svg>
