<?xml version="1.0" encoding="UTF-8" standalone="no"?>
<!DOCTYPE svg PUBLIC "-//W3C//DTD SVG 1.1//EN"
 "http://www.w3.org/Graphics/SVG/1.1/DTD/svg11.dtd">
<!-- Generated by graphviz version 2.40.1 (20161225.0304)
 -->
<!-- Title: Population::selectivity Pages: 1 -->
<svg width="932pt" height="237pt"
 viewBox="0.00 0.00 932.00 237.22" xmlns="http://www.w3.org/2000/svg" xmlns:xlink="http://www.w3.org/1999/xlink">
<g id="graph0" class="graph" transform="scale(1 1) rotate(0) translate(4 233.2185)">
<title>Population::selectivity</title>
<!-- Node117 -->
<g id="node1" class="node">
<title>Node117</title>
<polygon fill="#bfbfbf" stroke="#000000" points="0,-145.5 0,-164.5 113,-164.5 113,-145.5 0,-145.5"/>
<text text-anchor="middle" x="56.5" y="-152.5" font-family="Helvetica,sans-Serif" font-size="10.00" fill="#000000">Population::selectivity</text>
</g>
<!-- Node118 -->
<g id="node2" class="node">
<title>Node118</title>
<g id="a_node2"><a xlink:href="fish__glue_8cpp.html#ab96ae82277aa9004dc603b77512c7265" target="_top" xlink:title="RCPP_MODULE">
<polygon fill="none" stroke="#000000" points="677.5,-199.5 677.5,-218.5 770.5,-218.5 770.5,-199.5 677.5,-199.5"/>
<text text-anchor="middle" x="724" y="-206.5" font-family="Helvetica,sans-Serif" font-size="10.00" fill="#000000">RCPP_MODULE</text>
</a>
</g>
</g>
<!-- Node117&#45;&gt;Node118 -->
<g id="edge1" class="edge">
<title>Node117&#45;&gt;Node118</title>
<path fill="none" stroke="#191970" d="M117.7313,-166.3641C128.1607,-168.2679 138.8878,-170.2064 149,-172 355.1125,-208.5579 408.2467,-240.5214 617,-225 636.8551,-223.5237 658.6126,-220.5268 677.293,-217.5217"/>
<polygon fill="#191970" stroke="#191970" points="118.32,-162.9137 107.8531,-164.5551 117.059,-169.7992 118.32,-162.9137"/>
</g>
<!-- Node119 -->
<g id="node3" class="node">
<title>Node119</title>
<g id="a_node3"><a xlink:href="classPopulation.html#a42c4b04852bdda937e50f82952106af1" target="_top" xlink:title="Population::fishableBiomass">
<polygon fill="none" stroke="#000000" points="149,-88.5 149,-107.5 289,-107.5 289,-88.5 149,-88.5"/>
<text text-anchor="middle" x="219" y="-95.5" font-family="Helvetica,sans-Serif" font-size="10.00" fill="#000000">Population::fishableBiomass</text>
</a>
</g>
</g>
<!-- Node117&#45;&gt;Node119 -->
<g id="edge2" class="edge">
<title>Node117&#45;&gt;Node119</title>
<path fill="none" stroke="#191970" d="M86.8639,-141.4052C104.7427,-133.6838 127.9169,-124.1607 149,-117 159.0158,-113.5982 169.9953,-110.3832 180.2278,-107.5987"/>
<polygon fill="#191970" stroke="#191970" points="85.2874,-138.2744 77.523,-145.4831 88.0881,-144.6897 85.2874,-138.2744"/>
</g>
<!-- Node120 -->
<g id="node4" class="node">
<title>Node120</title>
<g id="a_node4"><a xlink:href="classPopulation.html#a81c19d1c80cfb1d54d3872ecdefd0872" target="_top" xlink:title="Population::update">
<polygon fill="none" stroke="#000000" points="325,-126.5 325,-145.5 423,-145.5 423,-126.5 325,-126.5"/>
<text text-anchor="middle" x="374" y="-133.5" font-family="Helvetica,sans-Serif" font-size="10.00" fill="#000000">Population::update</text>
</a>
</g>
</g>
<!-- Node117&#45;&gt;Node120 -->
<g id="edge23" class="edge">
<title>Node117&#45;&gt;Node120</title>
<path fill="none" stroke="#191970" d="M123.3357,-158.8763C169.9172,-160.6314 233.4233,-161.1358 289,-155 305.8334,-153.1416 324.2071,-149.2725 339.5513,-145.5079"/>
<polygon fill="#191970" stroke="#191970" points="123.2019,-155.368 113.068,-158.4589 122.9175,-162.3623 123.2019,-155.368"/>
</g>
<!-- Node129 -->
<g id="node13" class="node">
<title>Node129</title>
<g id="a_node13"><a xlink:href="classPopulation.html#ad1840de2f00982c35d48b91a1d27ae13" target="_top" xlink:title="Population::effort">
<polygon fill="none" stroke="#000000" points="173.5,-126.5 173.5,-145.5 264.5,-145.5 264.5,-126.5 173.5,-126.5"/>
<text text-anchor="middle" x="219" y="-133.5" font-family="Helvetica,sans-Serif" font-size="10.00" fill="#000000">Population::effort</text>
</a>
</g>
</g>
<!-- Node117&#45;&gt;Node129 -->
<g id="edge21" class="edge">
<title>Node117&#45;&gt;Node129</title>
<path fill="none" stroke="#191970" d="M123.641,-147.1497C140.408,-145.1892 158.0019,-143.1321 173.4476,-141.3261"/>
<polygon fill="#191970" stroke="#191970" points="122.8605,-143.717 113.3346,-148.3547 123.6734,-150.6696 122.8605,-143.717"/>
</g>
<!-- Node119&#45;&gt;Node118 -->
<g id="edge3" class="edge">
<title>Node119&#45;&gt;Node118</title>
<path fill="none" stroke="#191970" d="M277.4222,-111.1661C281.4492,-112.8838 285.352,-114.8196 289,-117 308.9693,-128.9358 305.14,-142.8832 325,-155 436.7377,-223.1722 598.4852,-220.5066 677.3027,-214.1582"/>
<polygon fill="#191970" stroke="#191970" points="278.4534,-107.814 267.862,-107.5414 275.9717,-114.3594 278.4534,-107.814"/>
</g>
<!-- Node119&#45;&gt;Node120 -->
<g id="edge4" class="edge">
<title>Node119&#45;&gt;Node120</title>
<path fill="none" stroke="#191970" d="M268.1105,-110.04C289.7647,-115.3488 314.8502,-121.4988 335.1682,-126.4799"/>
<polygon fill="#191970" stroke="#191970" points="268.6588,-106.5708 258.113,-107.589 266.992,-113.3695 268.6588,-106.5708"/>
</g>
<!-- Node124 -->
<g id="node8" class="node">
<title>Node124</title>
<g id="a_node8"><a xlink:href="classSimulator.html#a7540919b97662be7deacba9194c0ed60" target="_top" xlink:title="Simulator::simulate\l_multi">
<polygon fill="none" stroke="#000000" points="487.5,-88 487.5,-118 588.5,-118 588.5,-88 487.5,-88"/>
<text text-anchor="start" x="495.5" y="-106" font-family="Helvetica,sans-Serif" font-size="10.00" fill="#000000">Simulator::simulate</text>
<text text-anchor="middle" x="538" y="-95" font-family="Helvetica,sans-Serif" font-size="10.00" fill="#000000">_multi</text>
</a>
</g>
</g>
<!-- Node119&#45;&gt;Node124 -->
<g id="edge18" class="edge">
<title>Node119&#45;&gt;Node124</title>
<path fill="none" stroke="#191970" d="M299.06,-99.2549C358.1746,-100.1814 436.8393,-101.4144 487.4576,-102.2078"/>
<polygon fill="#191970" stroke="#191970" points="299.0596,-95.7545 289.0059,-99.0973 298.9498,-102.7537 299.0596,-95.7545"/>
</g>
<!-- Node126 -->
<g id="node10" class="node">
<title>Node126</title>
<g id="a_node10"><a xlink:href="classSimulator.html#ab21d1c6b0af00931f9a8fa5e0b6d417f" target="_top" xlink:title="Simulator::simulate\l_multi_2d">
<polygon fill="none" stroke="#000000" points="487.5,-39 487.5,-69 588.5,-69 588.5,-39 487.5,-39"/>
<text text-anchor="start" x="495.5" y="-57" font-family="Helvetica,sans-Serif" font-size="10.00" fill="#000000">Simulator::simulate</text>
<text text-anchor="middle" x="538" y="-46" font-family="Helvetica,sans-Serif" font-size="10.00" fill="#000000">_multi_2d</text>
</a>
</g>
</g>
<!-- Node119&#45;&gt;Node126 -->
<g id="edge19" class="edge">
<title>Node119&#45;&gt;Node126</title>
<path fill="none" stroke="#191970" d="M298.2671,-87.0666C357.3708,-78.9144 436.3486,-68.0209 487.2028,-61.0065"/>
<polygon fill="#191970" stroke="#191970" points="297.6462,-83.619 288.2182,-88.4527 298.6027,-90.5534 297.6462,-83.619"/>
</g>
<!-- Node128 -->
<g id="node12" class="node">
<title>Node128</title>
<g id="a_node12"><a xlink:href="classSimulator.html#aa6e6cfd73fd8d3200e7f515b473e88f2" target="_top" xlink:title="Simulator::simulate_r">
<polygon fill="none" stroke="#000000" points="483.5,-.5 483.5,-19.5 592.5,-19.5 592.5,-.5 483.5,-.5"/>
<text text-anchor="middle" x="538" y="-7.5" font-family="Helvetica,sans-Serif" font-size="10.00" fill="#000000">Simulator::simulate_r</text>
</a>
</g>
</g>
<!-- Node119&#45;&gt;Node128 -->
<g id="edge20" class="edge">
<title>Node119&#45;&gt;Node128</title>
<path fill="none" stroke="#191970" d="M259.9616,-85.5804C307.6069,-71.2841 388.7175,-47.4091 459,-29 471.2814,-25.7831 484.6916,-22.4798 496.9189,-19.5484"/>
<polygon fill="#191970" stroke="#191970" points="258.8869,-82.2487 250.3185,-88.4803 260.9028,-88.9521 258.8869,-82.2487"/>
</g>
<!-- Node120&#45;&gt;Node118 -->
<g id="edge5" class="edge">
<title>Node120&#45;&gt;Node118</title>
<path fill="none" stroke="#191970" d="M407.147,-149.2477C422.6911,-155.0577 441.587,-161.5523 459,-166 534.1895,-185.2052 623.671,-197.618 677.048,-203.9498"/>
<polygon fill="#191970" stroke="#191970" points="408.0565,-145.8488 397.4657,-145.5571 405.563,-152.3897 408.0565,-145.8488"/>
</g>
<!-- Node121 -->
<g id="node5" class="node">
<title>Node121</title>
<g id="a_node5"><a xlink:href="classPopulation.html#aa7eba257f23cbc12aa3673ce012fb2cb" target="_top" xlink:title="Population::noFishingEquilibriate">
<polygon fill="none" stroke="#000000" points="459,-137.5 459,-156.5 617,-156.5 617,-137.5 459,-137.5"/>
<text text-anchor="middle" x="538" y="-144.5" font-family="Helvetica,sans-Serif" font-size="10.00" fill="#000000">Population::noFishingEquilibriate</text>
</a>
</g>
</g>
<!-- Node120&#45;&gt;Node121 -->
<g id="edge6" class="edge">
<title>Node120&#45;&gt;Node121</title>
<path fill="none" stroke="#191970" d="M433.4369,-139.9866C441.6755,-140.5392 450.2435,-141.1139 458.7716,-141.6859"/>
<polygon fill="#191970" stroke="#191970" points="433.4173,-136.4775 423.2054,-139.3004 432.9487,-143.4618 433.4173,-136.4775"/>
</g>
<!-- Node120&#45;&gt;Node124 -->
<g id="edge10" class="edge">
<title>Node120&#45;&gt;Node124</title>
<path fill="none" stroke="#191970" d="M431.3382,-124.4624C449.5405,-120.7998 469.5304,-116.7774 487.236,-113.2147"/>
<polygon fill="#191970" stroke="#191970" points="430.5486,-121.0511 421.4356,-126.455 431.9296,-127.9135 430.5486,-121.0511"/>
</g>
<!-- Node120&#45;&gt;Node126 -->
<g id="edge13" class="edge">
<title>Node120&#45;&gt;Node126</title>
<path fill="none" stroke="#191970" d="M393.5461,-120.1074C410.1307,-107.2695 434.991,-89.5048 459,-78 467.9194,-73.7259 477.7699,-70.0123 487.4014,-66.8675"/>
<polygon fill="#191970" stroke="#191970" points="391.3618,-117.3725 385.6761,-126.3125 395.6959,-122.8694 391.3618,-117.3725"/>
</g>
<!-- Node120&#45;&gt;Node128 -->
<g id="edge16" class="edge">
<title>Node120&#45;&gt;Node128</title>
<path fill="none" stroke="#191970" d="M383.6533,-117.3072C397.1584,-93.0825 424.0154,-51.3133 459,-29 466.3738,-24.297 474.8097,-20.7575 483.3606,-18.0939"/>
<polygon fill="#191970" stroke="#191970" points="380.5107,-115.7611 378.8453,-126.2242 386.6721,-119.0834 380.5107,-115.7611"/>
</g>
<!-- Node121&#45;&gt;Node118 -->
<g id="edge7" class="edge">
<title>Node121&#45;&gt;Node118</title>
<path fill="none" stroke="#191970" d="M580.4582,-159.5041C592.3202,-163.1045 605.1931,-167.1123 617,-171 644.899,-180.1864 676.5692,-191.5521 698.1696,-199.4484"/>
<polygon fill="#191970" stroke="#191970" points="581.3622,-156.1211 570.7776,-156.5872 579.3426,-162.8235 581.3622,-156.1211"/>
</g>
<!-- Node122 -->
<g id="node6" class="node">
<title>Node122</title>
<g id="a_node6"><a xlink:href="classSimulator.html#a3dfce52c0bb26ec7ff2632b1eca50240" target="_top" xlink:title="Simulator::equilibriateNatural\lPopulation">
<polygon fill="none" stroke="#000000" points="653,-137 653,-167 795,-167 795,-137 653,-137"/>
<text text-anchor="start" x="661" y="-155" font-family="Helvetica,sans-Serif" font-size="10.00" fill="#000000">Simulator::equilibriateNatural</text>
<text text-anchor="middle" x="724" y="-144" font-family="Helvetica,sans-Serif" font-size="10.00" fill="#000000">Population</text>
</a>
</g>
</g>
<!-- Node121&#45;&gt;Node122 -->
<g id="edge8" class="edge">
<title>Node121&#45;&gt;Node122</title>
<path fill="none" stroke="#191970" d="M627.2169,-149.3983C635.8241,-149.6297 644.4746,-149.8622 652.8728,-150.088"/>
<polygon fill="#191970" stroke="#191970" points="627.2409,-145.8978 617.1504,-149.1277 627.0528,-152.8953 627.2409,-145.8978"/>
</g>
<!-- Node123 -->
<g id="node7" class="node">
<title>Node123</title>
<g id="a_node7"><a xlink:href="fish__glue_8cpp.html#addebb0997b0e49067d8784c9954b7b96" target="_top" xlink:title="RCPP_MODULE">
<polygon fill="none" stroke="#000000" points="831,-68.5 831,-87.5 924,-87.5 924,-68.5 831,-68.5"/>
<text text-anchor="middle" x="877.5" y="-75.5" font-family="Helvetica,sans-Serif" font-size="10.00" fill="#000000">RCPP_MODULE</text>
</a>
</g>
</g>
<!-- Node122&#45;&gt;Node123 -->
<g id="edge9" class="edge">
<title>Node122&#45;&gt;Node123</title>
<path fill="none" stroke="#191970" d="M780.6062,-133.2159C785.5248,-131.239 790.3829,-129.1582 795,-127 820.0518,-115.29 847.3034,-98.1633 863.3684,-87.5684"/>
<polygon fill="#191970" stroke="#191970" points="779.1858,-130.0125 771.1204,-136.8827 781.7098,-136.5417 779.1858,-130.0125"/>
</g>
<!-- Node125 -->
<g id="node9" class="node">
<title>Node125</title>
<g id="a_node9"><a xlink:href="classSimulator.html#a1a5454ee4736819d709398b225d7876d" target="_top" xlink:title="Simulator::simulate\l_multi_r">
<polygon fill="none" stroke="#000000" points="673.5,-88 673.5,-118 774.5,-118 774.5,-88 673.5,-88"/>
<text text-anchor="start" x="681.5" y="-106" font-family="Helvetica,sans-Serif" font-size="10.00" fill="#000000">Simulator::simulate</text>
<text text-anchor="middle" x="724" y="-95" font-family="Helvetica,sans-Serif" font-size="10.00" fill="#000000">_multi_r</text>
</a>
</g>
</g>
<!-- Node124&#45;&gt;Node125 -->
<g id="edge11" class="edge">
<title>Node124&#45;&gt;Node125</title>
<path fill="none" stroke="#191970" d="M598.9114,-103C622.9637,-103 650.2797,-103 673.2361,-103"/>
<polygon fill="#191970" stroke="#191970" points="598.8254,-99.5001 588.8253,-103 598.8253,-106.5001 598.8254,-99.5001"/>
</g>
<!-- Node125&#45;&gt;Node123 -->
<g id="edge12" class="edge">
<title>Node125&#45;&gt;Node123</title>
<path fill="none" stroke="#191970" d="M784.6161,-93.1277C799.9646,-90.6279 816.2148,-87.9813 830.7586,-85.6126"/>
<polygon fill="#191970" stroke="#191970" points="783.9944,-89.6827 774.6871,-94.7448 785.1197,-96.5917 783.9944,-89.6827"/>
</g>
<!-- Node127 -->
<g id="node11" class="node">
<title>Node127</title>
<g id="a_node11"><a xlink:href="classSimulator.html#af1b0a9562ecf0ad8f98d61576efba28b" target="_top" xlink:title="Simulator::simulate\l_multi_2d_r">
<polygon fill="none" stroke="#000000" points="673.5,-39 673.5,-69 774.5,-69 774.5,-39 673.5,-39"/>
<text text-anchor="start" x="681.5" y="-57" font-family="Helvetica,sans-Serif" font-size="10.00" fill="#000000">Simulator::simulate</text>
<text text-anchor="middle" x="724" y="-46" font-family="Helvetica,sans-Serif" font-size="10.00" fill="#000000">_multi_2d_r</text>
</a>
</g>
</g>
<!-- Node126&#45;&gt;Node127 -->
<g id="edge14" class="edge">
<title>Node126&#45;&gt;Node127</title>
<path fill="none" stroke="#191970" d="M598.9114,-54C622.9637,-54 650.2797,-54 673.2361,-54"/>
<polygon fill="#191970" stroke="#191970" points="598.8254,-50.5001 588.8253,-54 598.8253,-57.5001 598.8254,-50.5001"/>
</g>
<!-- Node127&#45;&gt;Node123 -->
<g id="edge15" class="edge">
<title>Node127&#45;&gt;Node123</title>
<path fill="none" stroke="#191970" d="M784.6161,-63.4774C799.9646,-65.8772 816.2148,-68.4179 830.7586,-70.6919"/>
<polygon fill="#191970" stroke="#191970" points="785.1077,-60.0119 774.6871,-61.925 784.0263,-66.9278 785.1077,-60.0119"/>
</g>
<!-- Node128&#45;&gt;Node123 -->
<g id="edge17" class="edge">
<title>Node128&#45;&gt;Node123</title>
<path fill="none" stroke="#191970" d="M602.7698,-6.6811C655.6824,-5.8739 731.7852,-9.1073 795,-29 822.3317,-37.6009 850.1783,-56.7637 865.5099,-68.4133"/>
<polygon fill="#191970" stroke="#191970" points="602.4328,-3.1872 592.5071,-6.8927 602.5772,-10.1858 602.4328,-3.1872"/>
</g>
<!-- Node129&#45;&gt;Node120 -->
<g id="edge22" class="edge">
<title>Node129&#45;&gt;Node120</title>
<path fill="none" stroke="#191970" d="M274.6707,-136C291.08,-136 308.9108,-136 324.8772,-136"/>
<polygon fill="#191970" stroke="#191970" points="274.6668,-132.5001 264.6668,-136 274.6667,-139.5001 274.6668,-132.5001"/>
</g>
</g>
</svg>
