<?xml version="1.0" encoding="UTF-8" standalone="no"?>
<!DOCTYPE svg PUBLIC "-//W3C//DTD SVG 1.1//EN"
 "http://www.w3.org/Graphics/SVG/1.1/DTD/svg11.dtd">
<!-- Generated by graphviz version 2.40.1 (20161225.0304)
 -->
<!-- Title: Population::print_summary Pages: 1 -->
<svg width="415pt" height="165pt"
 viewBox="0.00 0.00 415.00 164.50" xmlns="http://www.w3.org/2000/svg" xmlns:xlink="http://www.w3.org/1999/xlink">
<g id="graph0" class="graph" transform="scale(1 1) rotate(0) translate(4 160.5)">
<title>Population::print_summary</title>
<!-- Node33 -->
<g id="node1" class="node">
<title>Node33</title>
<polygon fill="#bfbfbf" stroke="#000000" points="0,-77 0,-96 133,-96 133,-77 0,-77"/>
<text text-anchor="middle" x="66.5" y="-84" font-family="Helvetica,sans-Serif" font-size="10.00" fill="#000000">Population::print_summary</text>
</g>
<!-- Node34 -->
<g id="node2" class="node">
<title>Node34</title>
<g id="a_node2"><a xlink:href="fish__glue_8cpp.html#ab96ae82277aa9004dc603b77512c7265" target="_top" xlink:title="RCPP_MODULE">
<polygon fill="none" stroke="#000000" points="177,-137 177,-156 270,-156 270,-137 177,-137"/>
<text text-anchor="middle" x="223.5" y="-144" font-family="Helvetica,sans-Serif" font-size="10.00" fill="#000000">RCPP_MODULE</text>
</a>
</g>
</g>
<!-- Node33&#45;&gt;Node34 -->
<g id="edge1" class="edge">
<title>Node33&#45;&gt;Node34</title>
<path fill="none" stroke="#191970" d="M98.9064,-99.8965C119.0007,-108.095 145.3973,-118.6703 169,-127.5 177.5404,-130.6949 186.8957,-134.0193 195.4073,-136.9773"/>
<polygon fill="#191970" stroke="#191970" points="100.1687,-96.6314 89.5881,-96.0808 97.516,-103.1093 100.1687,-96.6314"/>
</g>
<!-- Node35 -->
<g id="node3" class="node">
<title>Node35</title>
<g id="a_node3"><a xlink:href="classSimulator.html#a16eef6e60e97dabc2a1205b58b10182c" target="_top" xlink:title="Simulator::simulate_r">
<polygon fill="none" stroke="#000000" points="169,-99 169,-118 278,-118 278,-99 169,-99"/>
<text text-anchor="middle" x="223.5" y="-106" font-family="Helvetica,sans-Serif" font-size="10.00" fill="#000000">Simulator::simulate_r</text>
</a>
</g>
</g>
<!-- Node33&#45;&gt;Node35 -->
<g id="edge2" class="edge">
<title>Node33&#45;&gt;Node35</title>
<path fill="none" stroke="#191970" d="M143.1588,-97.242C151.7755,-98.4494 160.4218,-99.661 168.682,-100.8185"/>
<polygon fill="#191970" stroke="#191970" points="143.4711,-93.7516 133.0821,-95.83 142.4996,-100.6839 143.4711,-93.7516"/>
</g>
<!-- Node37 -->
<g id="node5" class="node">
<title>Node37</title>
<g id="a_node5"><a xlink:href="classSimulator.html#a3e61a52f336d592216770c0c43cfd388" target="_top" xlink:title="Simulator::simulate\l_multi">
<polygon fill="none" stroke="#000000" points="173,-49.5 173,-79.5 274,-79.5 274,-49.5 173,-49.5"/>
<text text-anchor="start" x="181" y="-67.5" font-family="Helvetica,sans-Serif" font-size="10.00" fill="#000000">Simulator::simulate</text>
<text text-anchor="middle" x="223.5" y="-56.5" font-family="Helvetica,sans-Serif" font-size="10.00" fill="#000000">_multi</text>
</a>
</g>
</g>
<!-- Node33&#45;&gt;Node37 -->
<g id="edge4" class="edge">
<title>Node33&#45;&gt;Node37</title>
<path fill="none" stroke="#191970" d="M143.048,-75.7735C153.0521,-74.3717 163.0985,-72.9639 172.5368,-71.6413"/>
<polygon fill="#191970" stroke="#191970" points="142.4996,-72.3161 133.0821,-77.17 143.4711,-79.2484 142.4996,-72.3161"/>
</g>
<!-- Node38 -->
<g id="node6" class="node">
<title>Node38</title>
<g id="a_node6"><a xlink:href="classSimulator.html#a636e7a83b462c3e48769a85ae350e742" target="_top" xlink:title="Simulator::simulate\l_multi_2d">
<polygon fill="none" stroke="#000000" points="173,-.5 173,-30.5 274,-30.5 274,-.5 173,-.5"/>
<text text-anchor="start" x="181" y="-18.5" font-family="Helvetica,sans-Serif" font-size="10.00" fill="#000000">Simulator::simulate</text>
<text text-anchor="middle" x="223.5" y="-7.5" font-family="Helvetica,sans-Serif" font-size="10.00" fill="#000000">_multi_2d</text>
</a>
</g>
</g>
<!-- Node33&#45;&gt;Node38 -->
<g id="edge6" class="edge">
<title>Node33&#45;&gt;Node38</title>
<path fill="none" stroke="#191970" d="M96.9307,-72.7383C123.6587,-60.6512 162.4752,-43.0972 190.0632,-30.6211"/>
<polygon fill="#191970" stroke="#191970" points="95.3431,-69.615 87.6737,-76.9246 98.2275,-75.9931 95.3431,-69.615"/>
</g>
<!-- Node36 -->
<g id="node4" class="node">
<title>Node36</title>
<g id="a_node4"><a xlink:href="fish__glue_8cpp.html#addebb0997b0e49067d8784c9954b7b96" target="_top" xlink:title="RCPP_MODULE">
<polygon fill="none" stroke="#000000" points="314,-55 314,-74 407,-74 407,-55 314,-55"/>
<text text-anchor="middle" x="360.5" y="-62" font-family="Helvetica,sans-Serif" font-size="10.00" fill="#000000">RCPP_MODULE</text>
</a>
</g>
</g>
<!-- Node35&#45;&gt;Node36 -->
<g id="edge3" class="edge">
<title>Node35&#45;&gt;Node36</title>
<path fill="none" stroke="#191970" d="M262.8015,-95.8776C284.4627,-88.9207 310.9162,-80.4247 330.8311,-74.0287"/>
<polygon fill="#191970" stroke="#191970" points="261.6777,-92.5624 253.227,-98.9527 263.8182,-99.2271 261.6777,-92.5624"/>
</g>
<!-- Node37&#45;&gt;Node36 -->
<g id="edge5" class="edge">
<title>Node37&#45;&gt;Node36</title>
<path fill="none" stroke="#191970" d="M284.2947,-64.5C294.1625,-64.5 304.2464,-64.5 313.7131,-64.5"/>
<polygon fill="#191970" stroke="#191970" points="284.1245,-61.0001 274.1245,-64.5 284.1245,-68.0001 284.1245,-61.0001"/>
</g>
<!-- Node38&#45;&gt;Node36 -->
<g id="edge7" class="edge">
<title>Node38&#45;&gt;Node36</title>
<path fill="none" stroke="#191970" d="M275.3007,-34.0272C295.2049,-41.1463 317.1124,-48.9818 333.728,-54.9246"/>
<polygon fill="#191970" stroke="#191970" points="276.317,-30.6737 265.7224,-30.6014 273.9595,-37.2648 276.317,-30.6737"/>
</g>
</g>
</svg>
