<?xml version="1.0" encoding="UTF-8" standalone="no"?>
<!DOCTYPE svg PUBLIC "-//W3C//DTD SVG 1.1//EN"
 "http://www.w3.org/Graphics/SVG/1.1/DTD/svg11.dtd">
<!-- Generated by graphviz version 2.40.1 (20161225.0304)
 -->
<!-- Title: Fish Pages: 1 -->
<svg width="118pt" height="184pt"
 viewBox="0.00 0.00 118.00 184.00" xmlns="http://www.w3.org/2000/svg" xmlns:xlink="http://www.w3.org/1999/xlink">
<g id="graph0" class="graph" transform="scale(1 1) rotate(0) translate(4 180)">
<title>Fish</title>
<!-- Node1 -->
<g id="node1" class="node">
<title>Node1</title>
<polygon fill="#bfbfbf" stroke="#000000" points="37.5,-.5 37.5,-19.5 72.5,-19.5 72.5,-.5 37.5,-.5"/>
<text text-anchor="middle" x="55" y="-7.5" font-family="Helvetica,sans-Serif" font-size="10.00" fill="#000000">Fish</text>
</g>
<!-- Node2 -->
<g id="node2" class="node">
<title>Node2</title>
<g id="a_node2"><a xlink:href="structFishParams.html" target="_top" xlink:title="FishParams">
<polygon fill="none" stroke="#000000" points="20.5,-67.5 20.5,-86.5 89.5,-86.5 89.5,-67.5 20.5,-67.5"/>
<text text-anchor="middle" x="55" y="-74.5" font-family="Helvetica,sans-Serif" font-size="10.00" fill="#000000">FishParams</text>
</a>
</g>
</g>
<!-- Node2&#45;&gt;Node1 -->
<g id="edge1" class="edge">
<title>Node2&#45;&gt;Node1</title>
<path fill="none" stroke="#9a32cd" stroke-dasharray="5,2" d="M55,-57.1079C55,-44.714 55,-29.3263 55,-19.5817"/>
<polygon fill="#9a32cd" stroke="#9a32cd" points="51.5001,-57.4005 55,-67.4005 58.5001,-57.4006 51.5001,-57.4005"/>
<text text-anchor="middle" x="63.5" y="-41" font-family="Helvetica,sans-Serif" font-size="10.00" fill="#000000"> par</text>
</g>
<!-- Node3 -->
<g id="node3" class="node">
<title>Node3</title>
<polygon fill="none" stroke="#bfbfbf" points="0,-156.5 0,-175.5 110,-175.5 110,-156.5 0,-156.5"/>
<text text-anchor="middle" x="55" y="-163.5" font-family="Helvetica,sans-Serif" font-size="10.00" fill="#000000">std::vector&lt; double &gt;</text>
</g>
<!-- Node3&#45;&gt;Node2 -->
<g id="edge2" class="edge">
<title>Node3&#45;&gt;Node2</title>
<path fill="none" stroke="#9a32cd" stroke-dasharray="5,2" d="M55,-146.2379C55,-127.7654 55,-100.957 55,-86.7259"/>
<polygon fill="#9a32cd" stroke="#9a32cd" points="51.5001,-146.4754 55,-156.4754 58.5001,-146.4755 51.5001,-146.4754"/>
<text text-anchor="middle" x="67.5" y="-130" font-family="Helvetica,sans-Serif" font-size="10.00" fill="#000000"> mam</text>
<text text-anchor="middle" x="67.5" y="-119" font-family="Helvetica,sans-Serif" font-size="10.00" fill="#000000">ma</text>
<text text-anchor="middle" x="67.5" y="-108" font-family="Helvetica,sans-Serif" font-size="10.00" fill="#000000">mai</text>
</g>
</g>
</svg>
