<?xml version="1.0" encoding="UTF-8" standalone="no"?>
<!DOCTYPE svg PUBLIC "-//W3C//DTD SVG 1.1//EN"
 "http://www.w3.org/Graphics/SVG/1.1/DTD/svg11.dtd">
<!-- Generated by graphviz version 2.40.1 (20161225.0304)
 -->
<!-- Title: Population::noFishingEquilibriate Pages: 1 -->
<svg width="676pt" height="351pt"
 viewBox="0.00 0.00 676.00 351.00" xmlns="http://www.w3.org/2000/svg" xmlns:xlink="http://www.w3.org/1999/xlink">
<g id="graph0" class="graph" transform="scale(1 1) rotate(0) translate(4 347)">
<title>Population::noFishingEquilibriate</title>
<!-- Node89 -->
<g id="node1" class="node">
<title>Node89</title>
<polygon fill="#bfbfbf" stroke="#000000" points="0,-256.5 0,-275.5 158,-275.5 158,-256.5 0,-256.5"/>
<text text-anchor="middle" x="79" y="-263.5" font-family="Helvetica,sans-Serif" font-size="10.00" fill="#000000">Population::noFishingEquilibriate</text>
</g>
<!-- Node90 -->
<g id="node2" class="node">
<title>Node90</title>
<g id="a_node2"><a xlink:href="classPopulation.html#a20696fa511c914e7c8837acb2a254b33" target="_top" xlink:title="Population::set_harvestProp">
<polygon fill="none" stroke="#000000" points="194,-294.5 194,-313.5 334,-313.5 334,-294.5 194,-294.5"/>
<text text-anchor="middle" x="264" y="-301.5" font-family="Helvetica,sans-Serif" font-size="10.00" fill="#000000">Population::set_harvestProp</text>
</a>
</g>
</g>
<!-- Node89&#45;&gt;Node90 -->
<g id="edge1" class="edge">
<title>Node89&#45;&gt;Node90</title>
<path fill="none" stroke="#191970" d="M125.6833,-275.589C150.6459,-280.7165 181.5642,-287.0672 207.834,-292.4632"/>
<polygon fill="#191970" stroke="#191970" points="207.1526,-295.8962 217.6524,-294.4799 208.5611,-289.0394 207.1526,-295.8962"/>
</g>
<!-- Node91 -->
<g id="node3" class="node">
<title>Node91</title>
<g id="a_node3"><a xlink:href="classPopulation.html#a012ef586a78b4e7c2082634b316072d0" target="_top" xlink:title="Population::init">
<polygon fill="none" stroke="#000000" points="223.5,-256.5 223.5,-275.5 304.5,-275.5 304.5,-256.5 223.5,-256.5"/>
<text text-anchor="middle" x="264" y="-263.5" font-family="Helvetica,sans-Serif" font-size="10.00" fill="#000000">Population::init</text>
</a>
</g>
</g>
<!-- Node89&#45;&gt;Node91 -->
<g id="edge2" class="edge">
<title>Node89&#45;&gt;Node91</title>
<path fill="none" stroke="#191970" d="M158.2617,-266C176.8599,-266 196.1871,-266 213.1518,-266"/>
<polygon fill="#191970" stroke="#191970" points="213.3818,-269.5001 223.3817,-266 213.3817,-262.5001 213.3818,-269.5001"/>
</g>
<!-- Node95 -->
<g id="node7" class="node">
<title>Node95</title>
<g id="a_node7"><a xlink:href="classPopulation.html#a81c19d1c80cfb1d54d3872ecdefd0872" target="_top" xlink:title="Population::update">
<polygon fill="none" stroke="#000000" points="215,-171.5 215,-190.5 313,-190.5 313,-171.5 215,-171.5"/>
<text text-anchor="middle" x="264" y="-178.5" font-family="Helvetica,sans-Serif" font-size="10.00" fill="#000000">Population::update</text>
</a>
</g>
</g>
<!-- Node89&#45;&gt;Node95 -->
<g id="edge6" class="edge">
<title>Node89&#45;&gt;Node95</title>
<path fill="none" stroke="#191970" d="M99.8622,-256.4146C132.565,-241.389 196.0491,-212.2207 233.7616,-194.8933"/>
<polygon fill="#191970" stroke="#191970" points="235.5885,-197.9058 243.214,-190.5503 232.666,-191.545 235.5885,-197.9058"/>
</g>
<!-- Node92 -->
<g id="node4" class="node">
<title>Node92</title>
<g id="a_node4"><a xlink:href="classFish.html#adf85bf269f1651352506e371ffd2cecc" target="_top" xlink:title="Initializes the fish, i.e., initializes parameters and sets the initial state (age = 1...">
<polygon fill="none" stroke="#000000" points="413,-304.5 413,-323.5 467,-323.5 467,-304.5 413,-304.5"/>
<text text-anchor="middle" x="440" y="-311.5" font-family="Helvetica,sans-Serif" font-size="10.00" fill="#000000">Fish::init</text>
</a>
</g>
</g>
<!-- Node91&#45;&gt;Node92 -->
<g id="edge3" class="edge">
<title>Node91&#45;&gt;Node92</title>
<path fill="none" stroke="#191970" d="M299.2628,-275.5278C310.381,-278.5435 322.707,-281.8989 334,-285 350.0131,-289.3972 353.9869,-290.6028 370,-295 380.6744,-297.9312 392.2719,-301.0897 402.8998,-303.9737"/>
<polygon fill="#191970" stroke="#191970" points="402.1632,-307.4003 412.7306,-306.6384 403.9946,-300.6441 402.1632,-307.4003"/>
</g>
<!-- Node93 -->
<g id="node5" class="node">
<title>Node93</title>
<g id="a_node5"><a xlink:href="namespacefish.html#a0ab1c4842d702a0a40bd04f26793ce12" target="_top" xlink:title="Compute the nonlinear growth increment , as follows . ">
<polygon fill="none" stroke="#000000" points="568.5,-323.5 568.5,-342.5 645.5,-342.5 645.5,-323.5 568.5,-323.5"/>
<text text-anchor="middle" x="607" y="-330.5" font-family="Helvetica,sans-Serif" font-size="10.00" fill="#000000">fish::dl_power</text>
</a>
</g>
</g>
<!-- Node92&#45;&gt;Node93 -->
<g id="edge4" class="edge">
<title>Node92&#45;&gt;Node93</title>
<path fill="none" stroke="#191970" d="M467.2031,-317.095C491.7581,-319.8886 528.4711,-324.0656 558.1129,-327.438"/>
<polygon fill="#191970" stroke="#191970" points="557.9396,-330.9408 568.2712,-328.5937 558.731,-323.9856 557.9396,-330.9408"/>
</g>
<!-- Node94 -->
<g id="node6" class="node">
<title>Node94</title>
<g id="a_node6"><a xlink:href="namespacefish.html#a1d06e0358aca1be4446ed148b7ce3d84" target="_top" xlink:title="Compute the new length after growth assuming no allocation to reproduction . ">
<polygon fill="none" stroke="#000000" points="555.5,-285.5 555.5,-304.5 658.5,-304.5 658.5,-285.5 555.5,-285.5"/>
<text text-anchor="middle" x="607" y="-292.5" font-family="Helvetica,sans-Serif" font-size="10.00" fill="#000000">fish::length_juvenile</text>
</a>
</g>
</g>
<!-- Node92&#45;&gt;Node94 -->
<g id="edge5" class="edge">
<title>Node92&#45;&gt;Node94</title>
<path fill="none" stroke="#191970" d="M467.2031,-310.905C488.2655,-308.5087 518.2731,-305.0947 545.0905,-302.0436"/>
<polygon fill="#191970" stroke="#191970" points="545.6468,-305.503 555.1871,-300.8949 544.8555,-298.5478 545.6468,-305.503"/>
</g>
<!-- Node95&#45;&gt;Node92 -->
<g id="edge10" class="edge">
<title>Node95&#45;&gt;Node92</title>
<path fill="none" stroke="#191970" d="M275.4817,-190.7346C289.8401,-203.1469 314.8598,-225.5758 334,-247 351.7663,-266.8864 347.9335,-280.0273 370,-295 379.7331,-301.6042 391.6826,-305.9185 402.9354,-308.7347"/>
<polygon fill="#191970" stroke="#191970" points="402.4746,-312.2163 412.9902,-310.9226 403.963,-305.3764 402.4746,-312.2163"/>
</g>
<!-- Node96 -->
<g id="node8" class="node">
<title>Node96</title>
<g id="a_node8"><a xlink:href="classPopulation.html#ae942ef70cc9f4dfc40b5d843baf40b1e" target="_top" xlink:title="Population::calcTSB">
<polygon fill="none" stroke="#000000" points="387,-266.5 387,-285.5 493,-285.5 493,-266.5 387,-266.5"/>
<text text-anchor="middle" x="440" y="-273.5" font-family="Helvetica,sans-Serif" font-size="10.00" fill="#000000">Population::calcTSB</text>
</a>
</g>
</g>
<!-- Node95&#45;&gt;Node96 -->
<g id="edge7" class="edge">
<title>Node95&#45;&gt;Node96</title>
<path fill="none" stroke="#191970" d="M274.615,-190.6269C292.8224,-206.6519 331.7528,-238.8284 370,-257 374.9761,-259.3642 380.2959,-261.4753 385.6965,-263.3506"/>
<polygon fill="#191970" stroke="#191970" points="384.857,-266.7569 395.4481,-266.4755 386.9932,-260.0908 384.857,-266.7569"/>
</g>
<!-- Node97 -->
<g id="node9" class="node">
<title>Node97</title>
<g id="a_node9"><a xlink:href="classPopulation.html#af15e7ba23b161c710d4013204b542cb6" target="_top" xlink:title="Population::calcSSB">
<polygon fill="none" stroke="#000000" points="386.5,-228.5 386.5,-247.5 493.5,-247.5 493.5,-228.5 386.5,-228.5"/>
<text text-anchor="middle" x="440" y="-235.5" font-family="Helvetica,sans-Serif" font-size="10.00" fill="#000000">Population::calcSSB</text>
</a>
</g>
</g>
<!-- Node95&#45;&gt;Node97 -->
<g id="edge8" class="edge">
<title>Node95&#45;&gt;Node97</title>
<path fill="none" stroke="#191970" d="M289.0822,-190.6259C310.4417,-198.6699 342.0258,-210.2044 370,-219 377.4329,-221.337 385.362,-223.6543 393.1133,-225.8248"/>
<polygon fill="#191970" stroke="#191970" points="392.2155,-229.2078 402.7857,-228.4861 394.0725,-222.4586 392.2155,-229.2078"/>
</g>
<!-- Node98 -->
<g id="node10" class="node">
<title>Node98</title>
<g id="a_node10"><a xlink:href="classFish.html#aaa3e67187a587efc7a99485b4a6ee248" target="_top" xlink:title="Fish::set_traits">
<polygon fill="none" stroke="#000000" points="399,-190.5 399,-209.5 481,-209.5 481,-190.5 399,-190.5"/>
<text text-anchor="middle" x="440" y="-197.5" font-family="Helvetica,sans-Serif" font-size="10.00" fill="#000000">Fish::set_traits</text>
</a>
</g>
</g>
<!-- Node95&#45;&gt;Node98 -->
<g id="edge9" class="edge">
<title>Node95&#45;&gt;Node98</title>
<path fill="none" stroke="#191970" d="M313.0258,-186.2926C336.6995,-188.8482 365.089,-191.913 389.0146,-194.4959"/>
<polygon fill="#191970" stroke="#191970" points="388.6504,-197.9768 398.9683,-195.5704 389.4018,-191.0173 388.6504,-197.9768"/>
</g>
<!-- Node99 -->
<g id="node11" class="node">
<title>Node99</title>
<g id="a_node11"><a xlink:href="classPopulation.html#a42c4b04852bdda937e50f82952106af1" target="_top" xlink:title="Population::fishableBiomass">
<polygon fill="none" stroke="#000000" points="370,-152.5 370,-171.5 510,-171.5 510,-152.5 370,-152.5"/>
<text text-anchor="middle" x="440" y="-159.5" font-family="Helvetica,sans-Serif" font-size="10.00" fill="#000000">Population::fishableBiomass</text>
</a>
</g>
</g>
<!-- Node95&#45;&gt;Node99 -->
<g id="edge11" class="edge">
<title>Node95&#45;&gt;Node99</title>
<path fill="none" stroke="#191970" d="M313.0258,-175.7074C327.4603,-174.1492 343.648,-172.4016 359.508,-170.6895"/>
<polygon fill="#191970" stroke="#191970" points="360.2947,-174.125 369.8613,-169.5718 359.5434,-167.1654 360.2947,-174.125"/>
</g>
<!-- Node100 -->
<g id="node12" class="node">
<title>Node100</title>
<g id="a_node12"><a xlink:href="classPopulation.html#ac8ed845bbda25c937a2fd76b3788e987" target="_top" xlink:title="Population::selectivity">
<polygon fill="none" stroke="#000000" points="550.5,-114.5 550.5,-133.5 663.5,-133.5 663.5,-114.5 550.5,-114.5"/>
<text text-anchor="middle" x="607" y="-121.5" font-family="Helvetica,sans-Serif" font-size="10.00" fill="#000000">Population::selectivity</text>
</a>
</g>
</g>
<!-- Node95&#45;&gt;Node100 -->
<g id="edge17" class="edge">
<title>Node95&#45;&gt;Node100</title>
<path fill="none" stroke="#191970" d="M285.4331,-171.4162C306.5036,-162.4536 339.8039,-149.5026 370,-143 426.5794,-130.8158 492.2763,-126.2786 540.1307,-124.6669"/>
<polygon fill="#191970" stroke="#191970" points="540.4762,-128.1582 550.3659,-124.3575 540.2646,-121.1614 540.4762,-128.1582"/>
</g>
<!-- Node101 -->
<g id="node13" class="node">
<title>Node101</title>
<g id="a_node13"><a xlink:href="classPopulation.html#ad1840de2f00982c35d48b91a1d27ae13" target="_top" xlink:title="Population::effort">
<polygon fill="none" stroke="#000000" points="394.5,-76.5 394.5,-95.5 485.5,-95.5 485.5,-76.5 394.5,-76.5"/>
<text text-anchor="middle" x="440" y="-83.5" font-family="Helvetica,sans-Serif" font-size="10.00" fill="#000000">Population::effort</text>
</a>
</g>
</g>
<!-- Node95&#45;&gt;Node101 -->
<g id="edge13" class="edge">
<title>Node95&#45;&gt;Node101</title>
<path fill="none" stroke="#191970" d="M276.0832,-171.3645C295.1224,-156.5487 333.684,-128.0034 370,-110 378.453,-105.8095 387.8166,-102.0482 396.8729,-98.8147"/>
<polygon fill="#191970" stroke="#191970" points="398.1904,-102.0633 406.5216,-95.5179 395.927,-95.4393 398.1904,-102.0633"/>
</g>
<!-- Node102 -->
<g id="node14" class="node">
<title>Node102</title>
<g id="a_node14"><a xlink:href="namespacepn.html#ad42003887dcc42a4758c69775f83a8d9" target="_top" xlink:title="pn::zero">
<polygon fill="none" stroke="#000000" points="414,-38.5 414,-57.5 466,-57.5 466,-38.5 414,-38.5"/>
<text text-anchor="middle" x="440" y="-45.5" font-family="Helvetica,sans-Serif" font-size="10.00" fill="#000000">pn::zero</text>
</a>
</g>
</g>
<!-- Node95&#45;&gt;Node102 -->
<g id="edge15" class="edge">
<title>Node95&#45;&gt;Node102</title>
<path fill="none" stroke="#191970" d="M270.1373,-171.3643C284.6751,-149.346 323.5034,-95.0864 370,-67 380.1505,-60.8686 392.3055,-56.6771 403.6167,-53.828"/>
<polygon fill="#191970" stroke="#191970" points="404.6929,-57.1737 413.6856,-51.5717 403.1622,-50.3431 404.6929,-57.1737"/>
</g>
<!-- Node104 -->
<g id="node16" class="node">
<title>Node104</title>
<g id="a_node16"><a xlink:href="classPopulation.html#ac62fc3480d60b055cd1886649809c6a6" target="_top" xlink:title="Population::nfish">
<polygon fill="none" stroke="#000000" points="395.5,-.5 395.5,-19.5 484.5,-19.5 484.5,-.5 395.5,-.5"/>
<text text-anchor="middle" x="440" y="-7.5" font-family="Helvetica,sans-Serif" font-size="10.00" fill="#000000">Population::nfish</text>
</a>
</g>
</g>
<!-- Node95&#45;&gt;Node104 -->
<g id="edge18" class="edge">
<title>Node95&#45;&gt;Node104</title>
<path fill="none" stroke="#191970" d="M267.8472,-171.4252C279.1611,-144.5243 315.0202,-67.7087 370,-29 374.8152,-25.6098 380.2072,-22.8242 385.8045,-20.5354"/>
<polygon fill="#191970" stroke="#191970" points="387.1072,-23.7868 395.3525,-17.1336 384.7579,-17.1929 387.1072,-23.7868"/>
</g>
<!-- Node99&#45;&gt;Node100 -->
<g id="edge12" class="edge">
<title>Node99&#45;&gt;Node100</title>
<path fill="none" stroke="#191970" d="M482.1412,-152.411C504.3771,-147.3513 531.8482,-141.1004 555.3564,-135.7512"/>
<polygon fill="#191970" stroke="#191970" points="556.1877,-139.1516 565.1619,-133.5201 554.6345,-132.3261 556.1877,-139.1516"/>
</g>
<!-- Node101&#45;&gt;Node100 -->
<g id="edge14" class="edge">
<title>Node101&#45;&gt;Node100</title>
<path fill="none" stroke="#191970" d="M482.1412,-95.589C504.3771,-100.6487 531.8482,-106.8996 555.3564,-112.2488"/>
<polygon fill="#191970" stroke="#191970" points="554.6345,-115.6739 565.1619,-114.4799 556.1877,-108.8484 554.6345,-115.6739"/>
</g>
<!-- Node103 -->
<g id="node15" class="node">
<title>Node103</title>
<g id="a_node15"><a xlink:href="structpn_1_1BrentRes.html#a4fa42a440c4b9dc765ea7f0d7fd3a412" target="_top" xlink:title="pn::BrentRes::BrentRes">
<polygon fill="none" stroke="#000000" points="546,-38.5 546,-57.5 668,-57.5 668,-38.5 546,-38.5"/>
<text text-anchor="middle" x="607" y="-45.5" font-family="Helvetica,sans-Serif" font-size="10.00" fill="#000000">pn::BrentRes::BrentRes</text>
</a>
</g>
</g>
<!-- Node102&#45;&gt;Node103 -->
<g id="edge16" class="edge">
<title>Node102&#45;&gt;Node103</title>
<path fill="none" stroke="#191970" d="M466.0938,-48C484.7993,-48 510.9543,-48 535.6585,-48"/>
<polygon fill="#191970" stroke="#191970" points="535.7637,-51.5001 545.7636,-48 535.7636,-44.5001 535.7637,-51.5001"/>
</g>
</g>
</svg>
