<?xml version="1.0" encoding="UTF-8" standalone="no"?>
<!DOCTYPE svg PUBLIC "-//W3C//DTD SVG 1.1//EN"
 "http://www.w3.org/Graphics/SVG/1.1/DTD/svg11.dtd">
<!-- Generated by graphviz version 2.40.1 (20161225.0304)
 -->
<!-- Title: Fish::set_traits Pages: 1 -->
<svg width="725pt" height="214pt"
 viewBox="0.00 0.00 725.00 214.00" xmlns="http://www.w3.org/2000/svg" xmlns:xlink="http://www.w3.org/1999/xlink">
<g id="graph0" class="graph" transform="scale(1 1) rotate(0) translate(4 210)">
<title>Fish::set_traits</title>
<!-- Node63 -->
<g id="node1" class="node">
<title>Node63</title>
<polygon fill="#bfbfbf" stroke="#000000" points="0,-93.5 0,-112.5 82,-112.5 82,-93.5 0,-93.5"/>
<text text-anchor="middle" x="41" y="-100.5" font-family="Helvetica,sans-Serif" font-size="10.00" fill="#000000">Fish::set_traits</text>
</g>
<!-- Node64 -->
<g id="node2" class="node">
<title>Node64</title>
<g id="a_node2"><a xlink:href="classPopulation.html#a81c19d1c80cfb1d54d3872ecdefd0872" target="_top" xlink:title="Population::update">
<polygon fill="none" stroke="#000000" points="118,-93.5 118,-112.5 216,-112.5 216,-93.5 118,-93.5"/>
<text text-anchor="middle" x="167" y="-100.5" font-family="Helvetica,sans-Serif" font-size="10.00" fill="#000000">Population::update</text>
</a>
</g>
</g>
<!-- Node63&#45;&gt;Node64 -->
<g id="edge1" class="edge">
<title>Node63&#45;&gt;Node64</title>
<path fill="none" stroke="#191970" d="M92.3174,-103C100.7162,-103 109.4021,-103 117.7494,-103"/>
<polygon fill="#191970" stroke="#191970" points="92.2571,-99.5001 82.2571,-103 92.2571,-106.5001 92.2571,-99.5001"/>
</g>
<!-- Node65 -->
<g id="node3" class="node">
<title>Node65</title>
<g id="a_node3"><a xlink:href="fish__glue_8cpp.html#ab96ae82277aa9004dc603b77512c7265" target="_top" xlink:title="RCPP_MODULE">
<polygon fill="none" stroke="#000000" points="470.5,-186.5 470.5,-205.5 563.5,-205.5 563.5,-186.5 470.5,-186.5"/>
<text text-anchor="middle" x="517" y="-193.5" font-family="Helvetica,sans-Serif" font-size="10.00" fill="#000000">RCPP_MODULE</text>
</a>
</g>
</g>
<!-- Node64&#45;&gt;Node65 -->
<g id="edge2" class="edge">
<title>Node64&#45;&gt;Node65</title>
<path fill="none" stroke="#191970" d="M182.5463,-120.2231C198.3013,-136.4093 224.2516,-159.7751 252,-171 323.9693,-200.1134 415.6049,-201.7821 470.1001,-199.4891"/>
<polygon fill="#191970" stroke="#191970" points="184.6873,-117.3918 175.2813,-112.5156 179.5935,-122.1932 184.6873,-117.3918"/>
</g>
<!-- Node66 -->
<g id="node4" class="node">
<title>Node66</title>
<g id="a_node4"><a xlink:href="classPopulation.html#aa7eba257f23cbc12aa3673ce012fb2cb" target="_top" xlink:title="Population::noFishingEquilibriate">
<polygon fill="none" stroke="#000000" points="252,-142.5 252,-161.5 410,-161.5 410,-142.5 252,-142.5"/>
<text text-anchor="middle" x="331" y="-149.5" font-family="Helvetica,sans-Serif" font-size="10.00" fill="#000000">Population::noFishingEquilibriate</text>
</a>
</g>
</g>
<!-- Node64&#45;&gt;Node66 -->
<g id="edge3" class="edge">
<title>Node64&#45;&gt;Node66</title>
<path fill="none" stroke="#191970" d="M208.9377,-115.5302C236.998,-123.914 273.3562,-134.7772 299.0706,-142.4601"/>
<polygon fill="#191970" stroke="#191970" points="209.5936,-112.0733 199.0102,-112.564 207.5897,-118.7804 209.5936,-112.0733"/>
</g>
<!-- Node69 -->
<g id="node7" class="node">
<title>Node69</title>
<g id="a_node7"><a xlink:href="classSimulator.html#a7540919b97662be7deacba9194c0ed60" target="_top" xlink:title="Simulator::simulate\l_multi">
<polygon fill="none" stroke="#000000" points="280.5,-88 280.5,-118 381.5,-118 381.5,-88 280.5,-88"/>
<text text-anchor="start" x="288.5" y="-106" font-family="Helvetica,sans-Serif" font-size="10.00" fill="#000000">Simulator::simulate</text>
<text text-anchor="middle" x="331" y="-95" font-family="Helvetica,sans-Serif" font-size="10.00" fill="#000000">_multi</text>
</a>
</g>
</g>
<!-- Node64&#45;&gt;Node69 -->
<g id="edge7" class="edge">
<title>Node64&#45;&gt;Node69</title>
<path fill="none" stroke="#191970" d="M226.4207,-103C244.1162,-103 263.3331,-103 280.4092,-103"/>
<polygon fill="#191970" stroke="#191970" points="226.2054,-99.5001 216.2054,-103 226.2054,-106.5001 226.2054,-99.5001"/>
</g>
<!-- Node71 -->
<g id="node9" class="node">
<title>Node71</title>
<g id="a_node9"><a xlink:href="classSimulator.html#ab21d1c6b0af00931f9a8fa5e0b6d417f" target="_top" xlink:title="Simulator::simulate\l_multi_2d">
<polygon fill="none" stroke="#000000" points="280.5,-39 280.5,-69 381.5,-69 381.5,-39 280.5,-39"/>
<text text-anchor="start" x="288.5" y="-57" font-family="Helvetica,sans-Serif" font-size="10.00" fill="#000000">Simulator::simulate</text>
<text text-anchor="middle" x="331" y="-46" font-family="Helvetica,sans-Serif" font-size="10.00" fill="#000000">_multi_2d</text>
</a>
</g>
</g>
<!-- Node64&#45;&gt;Node71 -->
<g id="edge10" class="edge">
<title>Node64&#45;&gt;Node71</title>
<path fill="none" stroke="#191970" d="M208.683,-90.5459C230.5892,-84.0008 257.6061,-75.9287 280.6722,-69.037"/>
<polygon fill="#191970" stroke="#191970" points="207.5897,-87.2196 199.0102,-93.436 209.5936,-93.9267 207.5897,-87.2196"/>
</g>
<!-- Node73 -->
<g id="node11" class="node">
<title>Node73</title>
<g id="a_node11"><a xlink:href="classSimulator.html#aa6e6cfd73fd8d3200e7f515b473e88f2" target="_top" xlink:title="Simulator::simulate_r">
<polygon fill="none" stroke="#000000" points="276.5,-.5 276.5,-19.5 385.5,-19.5 385.5,-.5 276.5,-.5"/>
<text text-anchor="middle" x="331" y="-7.5" font-family="Helvetica,sans-Serif" font-size="10.00" fill="#000000">Simulator::simulate_r</text>
</a>
</g>
</g>
<!-- Node64&#45;&gt;Node73 -->
<g id="edge13" class="edge">
<title>Node64&#45;&gt;Node73</title>
<path fill="none" stroke="#191970" d="M181.9495,-85.863C197.6992,-68.8913 224.0551,-43.4128 252,-29 259.5223,-25.1203 267.8581,-22.0156 276.2128,-19.5356"/>
<polygon fill="#191970" stroke="#191970" points="179.2217,-83.6612 175.1093,-93.4254 184.4131,-88.3569 179.2217,-83.6612"/>
</g>
<!-- Node66&#45;&gt;Node65 -->
<g id="edge4" class="edge">
<title>Node66&#45;&gt;Node65</title>
<path fill="none" stroke="#191970" d="M381.205,-163.8764C411.1669,-170.9642 448.7075,-179.8448 476.7195,-186.4713"/>
<polygon fill="#191970" stroke="#191970" points="381.8964,-160.4435 371.3592,-161.5473 380.2849,-167.2555 381.8964,-160.4435"/>
</g>
<!-- Node67 -->
<g id="node5" class="node">
<title>Node67</title>
<g id="a_node5"><a xlink:href="classSimulator.html#a3dfce52c0bb26ec7ff2632b1eca50240" target="_top" xlink:title="Simulator::equilibriateNatural\lPopulation">
<polygon fill="none" stroke="#000000" points="446,-137 446,-167 588,-167 588,-137 446,-137"/>
<text text-anchor="start" x="454" y="-155" font-family="Helvetica,sans-Serif" font-size="10.00" fill="#000000">Simulator::equilibriateNatural</text>
<text text-anchor="middle" x="517" y="-144" font-family="Helvetica,sans-Serif" font-size="10.00" fill="#000000">Population</text>
</a>
</g>
</g>
<!-- Node66&#45;&gt;Node67 -->
<g id="edge5" class="edge">
<title>Node66&#45;&gt;Node67</title>
<path fill="none" stroke="#191970" d="M420.2169,-152C428.8241,-152 437.4746,-152 445.8728,-152"/>
<polygon fill="#191970" stroke="#191970" points="420.1505,-148.5001 410.1504,-152 420.1504,-155.5001 420.1505,-148.5001"/>
</g>
<!-- Node68 -->
<g id="node6" class="node">
<title>Node68</title>
<g id="a_node6"><a xlink:href="fish__glue_8cpp.html#addebb0997b0e49067d8784c9954b7b96" target="_top" xlink:title="RCPP_MODULE">
<polygon fill="none" stroke="#000000" points="624,-68.5 624,-87.5 717,-87.5 717,-68.5 624,-68.5"/>
<text text-anchor="middle" x="670.5" y="-75.5" font-family="Helvetica,sans-Serif" font-size="10.00" fill="#000000">RCPP_MODULE</text>
</a>
</g>
</g>
<!-- Node67&#45;&gt;Node68 -->
<g id="edge6" class="edge">
<title>Node67&#45;&gt;Node68</title>
<path fill="none" stroke="#191970" d="M575.485,-133.3837C579.7638,-131.6712 583.9759,-129.872 588,-128 613.3596,-116.2029 640.7409,-98.5197 656.7144,-87.6502"/>
<polygon fill="#191970" stroke="#191970" points="574.1487,-130.1475 566.059,-136.9892 576.6495,-136.6856 574.1487,-130.1475"/>
</g>
<!-- Node70 -->
<g id="node8" class="node">
<title>Node70</title>
<g id="a_node8"><a xlink:href="classSimulator.html#a1a5454ee4736819d709398b225d7876d" target="_top" xlink:title="Simulator::simulate\l_multi_r">
<polygon fill="none" stroke="#000000" points="466.5,-88 466.5,-118 567.5,-118 567.5,-88 466.5,-88"/>
<text text-anchor="start" x="474.5" y="-106" font-family="Helvetica,sans-Serif" font-size="10.00" fill="#000000">Simulator::simulate</text>
<text text-anchor="middle" x="517" y="-95" font-family="Helvetica,sans-Serif" font-size="10.00" fill="#000000">_multi_r</text>
</a>
</g>
</g>
<!-- Node69&#45;&gt;Node70 -->
<g id="edge8" class="edge">
<title>Node69&#45;&gt;Node70</title>
<path fill="none" stroke="#191970" d="M391.9114,-103C415.9637,-103 443.2797,-103 466.2361,-103"/>
<polygon fill="#191970" stroke="#191970" points="391.8254,-99.5001 381.8253,-103 391.8253,-106.5001 391.8254,-99.5001"/>
</g>
<!-- Node70&#45;&gt;Node68 -->
<g id="edge9" class="edge">
<title>Node70&#45;&gt;Node68</title>
<path fill="none" stroke="#191970" d="M577.6161,-93.1277C592.9646,-90.6279 609.2148,-87.9813 623.7586,-85.6126"/>
<polygon fill="#191970" stroke="#191970" points="576.9944,-89.6827 567.6871,-94.7448 578.1197,-96.5917 576.9944,-89.6827"/>
</g>
<!-- Node72 -->
<g id="node10" class="node">
<title>Node72</title>
<g id="a_node10"><a xlink:href="classSimulator.html#af1b0a9562ecf0ad8f98d61576efba28b" target="_top" xlink:title="Simulator::simulate\l_multi_2d_r">
<polygon fill="none" stroke="#000000" points="466.5,-39 466.5,-69 567.5,-69 567.5,-39 466.5,-39"/>
<text text-anchor="start" x="474.5" y="-57" font-family="Helvetica,sans-Serif" font-size="10.00" fill="#000000">Simulator::simulate</text>
<text text-anchor="middle" x="517" y="-46" font-family="Helvetica,sans-Serif" font-size="10.00" fill="#000000">_multi_2d_r</text>
</a>
</g>
</g>
<!-- Node71&#45;&gt;Node72 -->
<g id="edge11" class="edge">
<title>Node71&#45;&gt;Node72</title>
<path fill="none" stroke="#191970" d="M391.9114,-54C415.9637,-54 443.2797,-54 466.2361,-54"/>
<polygon fill="#191970" stroke="#191970" points="391.8254,-50.5001 381.8253,-54 391.8253,-57.5001 391.8254,-50.5001"/>
</g>
<!-- Node72&#45;&gt;Node68 -->
<g id="edge12" class="edge">
<title>Node72&#45;&gt;Node68</title>
<path fill="none" stroke="#191970" d="M577.6161,-63.4774C592.9646,-65.8772 609.2148,-68.4179 623.7586,-70.6919"/>
<polygon fill="#191970" stroke="#191970" points="578.1077,-60.0119 567.6871,-61.925 577.0263,-66.9278 578.1077,-60.0119"/>
</g>
<!-- Node73&#45;&gt;Node68 -->
<g id="edge14" class="edge">
<title>Node73&#45;&gt;Node68</title>
<path fill="none" stroke="#191970" d="M395.7698,-6.6811C448.6824,-5.8739 524.7852,-9.1073 588,-29 615.3317,-37.6009 643.1783,-56.7637 658.5099,-68.4133"/>
<polygon fill="#191970" stroke="#191970" points="395.4328,-3.1872 385.5071,-6.8927 395.5772,-10.1858 395.4328,-3.1872"/>
</g>
</g>
</svg>
