<?xml version="1.0" encoding="UTF-8" standalone="no"?>
<!DOCTYPE svg PUBLIC "-//W3C//DTD SVG 1.1//EN"
 "http://www.w3.org/Graphics/SVG/1.1/DTD/svg11.dtd">
<!-- Generated by graphviz version 2.40.1 (20161225.0304)
 -->
<!-- Title: Population::calcTSB Pages: 1 -->
<svg width="749pt" height="214pt"
 viewBox="0.00 0.00 749.00 214.00" xmlns="http://www.w3.org/2000/svg" xmlns:xlink="http://www.w3.org/1999/xlink">
<g id="graph0" class="graph" transform="scale(1 1) rotate(0) translate(4 210)">
<title>Population::calcTSB</title>
<!-- Node19 -->
<g id="node1" class="node">
<title>Node19</title>
<polygon fill="#bfbfbf" stroke="#000000" points="0,-93.5 0,-112.5 106,-112.5 106,-93.5 0,-93.5"/>
<text text-anchor="middle" x="53" y="-100.5" font-family="Helvetica,sans-Serif" font-size="10.00" fill="#000000">Population::calcTSB</text>
</g>
<!-- Node20 -->
<g id="node2" class="node">
<title>Node20</title>
<g id="a_node2"><a xlink:href="classPopulation.html#a81c19d1c80cfb1d54d3872ecdefd0872" target="_top" xlink:title="Population::update">
<polygon fill="none" stroke="#000000" points="142,-93.5 142,-112.5 240,-112.5 240,-93.5 142,-93.5"/>
<text text-anchor="middle" x="191" y="-100.5" font-family="Helvetica,sans-Serif" font-size="10.00" fill="#000000">Population::update</text>
</a>
</g>
</g>
<!-- Node19&#45;&gt;Node20 -->
<g id="edge1" class="edge">
<title>Node19&#45;&gt;Node20</title>
<path fill="none" stroke="#191970" d="M116.607,-103C125.0851,-103 133.6725,-103 141.853,-103"/>
<polygon fill="#191970" stroke="#191970" points="116.3544,-99.5001 106.3544,-103 116.3544,-106.5001 116.3544,-99.5001"/>
</g>
<!-- Node21 -->
<g id="node3" class="node">
<title>Node21</title>
<g id="a_node3"><a xlink:href="fish__glue_8cpp.html#ab96ae82277aa9004dc603b77512c7265" target="_top" xlink:title="RCPP_MODULE">
<polygon fill="none" stroke="#000000" points="494.5,-186.5 494.5,-205.5 587.5,-205.5 587.5,-186.5 494.5,-186.5"/>
<text text-anchor="middle" x="541" y="-193.5" font-family="Helvetica,sans-Serif" font-size="10.00" fill="#000000">RCPP_MODULE</text>
</a>
</g>
</g>
<!-- Node20&#45;&gt;Node21 -->
<g id="edge2" class="edge">
<title>Node20&#45;&gt;Node21</title>
<path fill="none" stroke="#191970" d="M206.5463,-120.2231C222.3013,-136.4093 248.2516,-159.7751 276,-171 347.9693,-200.1134 439.6049,-201.7821 494.1001,-199.4891"/>
<polygon fill="#191970" stroke="#191970" points="208.6873,-117.3918 199.2813,-112.5156 203.5935,-122.1932 208.6873,-117.3918"/>
</g>
<!-- Node22 -->
<g id="node4" class="node">
<title>Node22</title>
<g id="a_node4"><a xlink:href="classPopulation.html#aa7eba257f23cbc12aa3673ce012fb2cb" target="_top" xlink:title="Population::noFishingEquilibriate">
<polygon fill="none" stroke="#000000" points="276,-142.5 276,-161.5 434,-161.5 434,-142.5 276,-142.5"/>
<text text-anchor="middle" x="355" y="-149.5" font-family="Helvetica,sans-Serif" font-size="10.00" fill="#000000">Population::noFishingEquilibriate</text>
</a>
</g>
</g>
<!-- Node20&#45;&gt;Node22 -->
<g id="edge3" class="edge">
<title>Node20&#45;&gt;Node22</title>
<path fill="none" stroke="#191970" d="M232.9377,-115.5302C260.998,-123.914 297.3562,-134.7772 323.0706,-142.4601"/>
<polygon fill="#191970" stroke="#191970" points="233.5936,-112.0733 223.0102,-112.564 231.5897,-118.7804 233.5936,-112.0733"/>
</g>
<!-- Node25 -->
<g id="node7" class="node">
<title>Node25</title>
<g id="a_node7"><a xlink:href="classSimulator.html#a7540919b97662be7deacba9194c0ed60" target="_top" xlink:title="Simulator::simulate\l_multi">
<polygon fill="none" stroke="#000000" points="304.5,-88 304.5,-118 405.5,-118 405.5,-88 304.5,-88"/>
<text text-anchor="start" x="312.5" y="-106" font-family="Helvetica,sans-Serif" font-size="10.00" fill="#000000">Simulator::simulate</text>
<text text-anchor="middle" x="355" y="-95" font-family="Helvetica,sans-Serif" font-size="10.00" fill="#000000">_multi</text>
</a>
</g>
</g>
<!-- Node20&#45;&gt;Node25 -->
<g id="edge7" class="edge">
<title>Node20&#45;&gt;Node25</title>
<path fill="none" stroke="#191970" d="M250.4207,-103C268.1162,-103 287.3331,-103 304.4092,-103"/>
<polygon fill="#191970" stroke="#191970" points="250.2054,-99.5001 240.2054,-103 250.2054,-106.5001 250.2054,-99.5001"/>
</g>
<!-- Node27 -->
<g id="node9" class="node">
<title>Node27</title>
<g id="a_node9"><a xlink:href="classSimulator.html#ab21d1c6b0af00931f9a8fa5e0b6d417f" target="_top" xlink:title="Simulator::simulate\l_multi_2d">
<polygon fill="none" stroke="#000000" points="304.5,-39 304.5,-69 405.5,-69 405.5,-39 304.5,-39"/>
<text text-anchor="start" x="312.5" y="-57" font-family="Helvetica,sans-Serif" font-size="10.00" fill="#000000">Simulator::simulate</text>
<text text-anchor="middle" x="355" y="-46" font-family="Helvetica,sans-Serif" font-size="10.00" fill="#000000">_multi_2d</text>
</a>
</g>
</g>
<!-- Node20&#45;&gt;Node27 -->
<g id="edge10" class="edge">
<title>Node20&#45;&gt;Node27</title>
<path fill="none" stroke="#191970" d="M232.683,-90.5459C254.5892,-84.0008 281.6061,-75.9287 304.6722,-69.037"/>
<polygon fill="#191970" stroke="#191970" points="231.5897,-87.2196 223.0102,-93.436 233.5936,-93.9267 231.5897,-87.2196"/>
</g>
<!-- Node29 -->
<g id="node11" class="node">
<title>Node29</title>
<g id="a_node11"><a xlink:href="classSimulator.html#aa6e6cfd73fd8d3200e7f515b473e88f2" target="_top" xlink:title="Simulator::simulate_r">
<polygon fill="none" stroke="#000000" points="300.5,-.5 300.5,-19.5 409.5,-19.5 409.5,-.5 300.5,-.5"/>
<text text-anchor="middle" x="355" y="-7.5" font-family="Helvetica,sans-Serif" font-size="10.00" fill="#000000">Simulator::simulate_r</text>
</a>
</g>
</g>
<!-- Node20&#45;&gt;Node29 -->
<g id="edge13" class="edge">
<title>Node20&#45;&gt;Node29</title>
<path fill="none" stroke="#191970" d="M205.9495,-85.863C221.6992,-68.8913 248.0551,-43.4128 276,-29 283.5223,-25.1203 291.8581,-22.0156 300.2128,-19.5356"/>
<polygon fill="#191970" stroke="#191970" points="203.2217,-83.6612 199.1093,-93.4254 208.4131,-88.3569 203.2217,-83.6612"/>
</g>
<!-- Node22&#45;&gt;Node21 -->
<g id="edge4" class="edge">
<title>Node22&#45;&gt;Node21</title>
<path fill="none" stroke="#191970" d="M405.205,-163.8764C435.1669,-170.9642 472.7075,-179.8448 500.7195,-186.4713"/>
<polygon fill="#191970" stroke="#191970" points="405.8964,-160.4435 395.3592,-161.5473 404.2849,-167.2555 405.8964,-160.4435"/>
</g>
<!-- Node23 -->
<g id="node5" class="node">
<title>Node23</title>
<g id="a_node5"><a xlink:href="classSimulator.html#a3dfce52c0bb26ec7ff2632b1eca50240" target="_top" xlink:title="Simulator::equilibriateNatural\lPopulation">
<polygon fill="none" stroke="#000000" points="470,-137 470,-167 612,-167 612,-137 470,-137"/>
<text text-anchor="start" x="478" y="-155" font-family="Helvetica,sans-Serif" font-size="10.00" fill="#000000">Simulator::equilibriateNatural</text>
<text text-anchor="middle" x="541" y="-144" font-family="Helvetica,sans-Serif" font-size="10.00" fill="#000000">Population</text>
</a>
</g>
</g>
<!-- Node22&#45;&gt;Node23 -->
<g id="edge5" class="edge">
<title>Node22&#45;&gt;Node23</title>
<path fill="none" stroke="#191970" d="M444.2169,-152C452.8241,-152 461.4746,-152 469.8728,-152"/>
<polygon fill="#191970" stroke="#191970" points="444.1505,-148.5001 434.1504,-152 444.1504,-155.5001 444.1505,-148.5001"/>
</g>
<!-- Node24 -->
<g id="node6" class="node">
<title>Node24</title>
<g id="a_node6"><a xlink:href="fish__glue_8cpp.html#addebb0997b0e49067d8784c9954b7b96" target="_top" xlink:title="RCPP_MODULE">
<polygon fill="none" stroke="#000000" points="648,-68.5 648,-87.5 741,-87.5 741,-68.5 648,-68.5"/>
<text text-anchor="middle" x="694.5" y="-75.5" font-family="Helvetica,sans-Serif" font-size="10.00" fill="#000000">RCPP_MODULE</text>
</a>
</g>
</g>
<!-- Node23&#45;&gt;Node24 -->
<g id="edge6" class="edge">
<title>Node23&#45;&gt;Node24</title>
<path fill="none" stroke="#191970" d="M599.485,-133.3837C603.7638,-131.6712 607.9759,-129.872 612,-128 637.3596,-116.2029 664.7409,-98.5197 680.7144,-87.6502"/>
<polygon fill="#191970" stroke="#191970" points="598.1487,-130.1475 590.059,-136.9892 600.6495,-136.6856 598.1487,-130.1475"/>
</g>
<!-- Node26 -->
<g id="node8" class="node">
<title>Node26</title>
<g id="a_node8"><a xlink:href="classSimulator.html#a1a5454ee4736819d709398b225d7876d" target="_top" xlink:title="Simulator::simulate\l_multi_r">
<polygon fill="none" stroke="#000000" points="490.5,-88 490.5,-118 591.5,-118 591.5,-88 490.5,-88"/>
<text text-anchor="start" x="498.5" y="-106" font-family="Helvetica,sans-Serif" font-size="10.00" fill="#000000">Simulator::simulate</text>
<text text-anchor="middle" x="541" y="-95" font-family="Helvetica,sans-Serif" font-size="10.00" fill="#000000">_multi_r</text>
</a>
</g>
</g>
<!-- Node25&#45;&gt;Node26 -->
<g id="edge8" class="edge">
<title>Node25&#45;&gt;Node26</title>
<path fill="none" stroke="#191970" d="M415.9114,-103C439.9637,-103 467.2797,-103 490.2361,-103"/>
<polygon fill="#191970" stroke="#191970" points="415.8254,-99.5001 405.8253,-103 415.8253,-106.5001 415.8254,-99.5001"/>
</g>
<!-- Node26&#45;&gt;Node24 -->
<g id="edge9" class="edge">
<title>Node26&#45;&gt;Node24</title>
<path fill="none" stroke="#191970" d="M601.6161,-93.1277C616.9646,-90.6279 633.2148,-87.9813 647.7586,-85.6126"/>
<polygon fill="#191970" stroke="#191970" points="600.9944,-89.6827 591.6871,-94.7448 602.1197,-96.5917 600.9944,-89.6827"/>
</g>
<!-- Node28 -->
<g id="node10" class="node">
<title>Node28</title>
<g id="a_node10"><a xlink:href="classSimulator.html#af1b0a9562ecf0ad8f98d61576efba28b" target="_top" xlink:title="Simulator::simulate\l_multi_2d_r">
<polygon fill="none" stroke="#000000" points="490.5,-39 490.5,-69 591.5,-69 591.5,-39 490.5,-39"/>
<text text-anchor="start" x="498.5" y="-57" font-family="Helvetica,sans-Serif" font-size="10.00" fill="#000000">Simulator::simulate</text>
<text text-anchor="middle" x="541" y="-46" font-family="Helvetica,sans-Serif" font-size="10.00" fill="#000000">_multi_2d_r</text>
</a>
</g>
</g>
<!-- Node27&#45;&gt;Node28 -->
<g id="edge11" class="edge">
<title>Node27&#45;&gt;Node28</title>
<path fill="none" stroke="#191970" d="M415.9114,-54C439.9637,-54 467.2797,-54 490.2361,-54"/>
<polygon fill="#191970" stroke="#191970" points="415.8254,-50.5001 405.8253,-54 415.8253,-57.5001 415.8254,-50.5001"/>
</g>
<!-- Node28&#45;&gt;Node24 -->
<g id="edge12" class="edge">
<title>Node28&#45;&gt;Node24</title>
<path fill="none" stroke="#191970" d="M601.6161,-63.4774C616.9646,-65.8772 633.2148,-68.4179 647.7586,-70.6919"/>
<polygon fill="#191970" stroke="#191970" points="602.1077,-60.0119 591.6871,-61.925 601.0263,-66.9278 602.1077,-60.0119"/>
</g>
<!-- Node29&#45;&gt;Node24 -->
<g id="edge14" class="edge">
<title>Node29&#45;&gt;Node24</title>
<path fill="none" stroke="#191970" d="M419.7698,-6.6811C472.6824,-5.8739 548.7852,-9.1073 612,-29 639.3317,-37.6009 667.1783,-56.7637 682.5099,-68.4133"/>
<polygon fill="#191970" stroke="#191970" points="419.4328,-3.1872 409.5071,-6.8927 419.5772,-10.1858 419.4328,-3.1872"/>
</g>
</g>
</svg>
