<?xml version="1.0" encoding="UTF-8" standalone="no"?>
<!DOCTYPE svg PUBLIC "-//W3C//DTD SVG 1.1//EN"
 "http://www.w3.org/Graphics/SVG/1.1/DTD/svg11.dtd">
<!-- Generated by graphviz version 2.40.1 (20161225.0304)
 -->
<!-- Title: Simulator::simulate_multi_r Pages: 1 -->
<svg width="668pt" height="180pt"
 viewBox="0.00 0.00 668.00 180.00" xmlns="http://www.w3.org/2000/svg" xmlns:xlink="http://www.w3.org/1999/xlink">
<g id="graph0" class="graph" transform="scale(1 1) rotate(0) translate(4 176)">
<title>Simulator::simulate_multi_r</title>
<!-- Node47 -->
<g id="node1" class="node">
<title>Node47</title>
<polygon fill="#bfbfbf" stroke="#000000" points="0,-49 0,-79 101,-79 101,-49 0,-49"/>
<text text-anchor="start" x="8" y="-67" font-family="Helvetica,sans-Serif" font-size="10.00" fill="#000000">Simulator::simulate</text>
<text text-anchor="middle" x="50.5" y="-56" font-family="Helvetica,sans-Serif" font-size="10.00" fill="#000000">_multi_r</text>
</g>
<!-- Node48 -->
<g id="node2" class="node">
<title>Node48</title>
<g id="a_node2"><a xlink:href="classSimulator.html#a4734ed6f01bdac62f74ebd20dd761f2b" target="_top" xlink:title="Simulator::simulate\l_multi">
<polygon fill="none" stroke="#000000" points="137,-71 137,-101 238,-101 238,-71 137,-71"/>
<text text-anchor="start" x="145" y="-89" font-family="Helvetica,sans-Serif" font-size="10.00" fill="#000000">Simulator::simulate</text>
<text text-anchor="middle" x="187.5" y="-78" font-family="Helvetica,sans-Serif" font-size="10.00" fill="#000000">_multi</text>
</a>
</g>
</g>
<!-- Node47&#45;&gt;Node48 -->
<g id="edge1" class="edge">
<title>Node47&#45;&gt;Node48</title>
<path fill="none" stroke="#191970" d="M101.1245,-72.1295C109.4519,-73.4667 118.1582,-74.8648 126.7026,-76.2369"/>
<polygon fill="#191970" stroke="#191970" points="126.1977,-79.7006 136.6262,-77.8305 127.3077,-72.7891 126.1977,-79.7006"/>
</g>
<!-- Node56 -->
<g id="node10" class="node">
<title>Node56</title>
<g id="a_node10"><a xlink:href="simulator_8cpp.html#a2a2aec343c151304395503fd8b1d6a78" target="_top" xlink:title="tensor2array">
<polygon fill="none" stroke="#000000" points="152,-32.5 152,-51.5 223,-51.5 223,-32.5 152,-32.5"/>
<text text-anchor="middle" x="187.5" y="-39.5" font-family="Helvetica,sans-Serif" font-size="10.00" fill="#000000">tensor2array</text>
</a>
</g>
</g>
<!-- Node47&#45;&gt;Node56 -->
<g id="edge9" class="edge">
<title>Node47&#45;&gt;Node56</title>
<path fill="none" stroke="#191970" d="M101.1245,-55.8705C114.3563,-53.7457 128.545,-51.4672 141.5205,-49.3836"/>
<polygon fill="#191970" stroke="#191970" points="142.3066,-52.8023 151.6251,-47.7609 141.1967,-45.8908 142.3066,-52.8023"/>
</g>
<!-- Node49 -->
<g id="node3" class="node">
<title>Node49</title>
<g id="a_node3"><a xlink:href="classPopulation.html#a20696fa511c914e7c8837acb2a254b33" target="_top" xlink:title="Population::set_harvestProp">
<polygon fill="none" stroke="#000000" points="274,-152.5 274,-171.5 414,-171.5 414,-152.5 274,-152.5"/>
<text text-anchor="middle" x="344" y="-159.5" font-family="Helvetica,sans-Serif" font-size="10.00" fill="#000000">Population::set_harvestProp</text>
</a>
</g>
</g>
<!-- Node48&#45;&gt;Node49 -->
<g id="edge2" class="edge">
<title>Node48&#45;&gt;Node49</title>
<path fill="none" stroke="#191970" d="M206.3913,-101.0118C223.2597,-113.7706 249.0822,-131.7573 274,-143 279.2943,-145.3888 284.9533,-147.5335 290.6736,-149.4447"/>
<polygon fill="#191970" stroke="#191970" points="289.7164,-152.8123 300.3048,-152.4423 291.7967,-146.1286 289.7164,-152.8123"/>
</g>
<!-- Node50 -->
<g id="node4" class="node">
<title>Node50</title>
<g id="a_node4"><a xlink:href="classPopulation.html#a42c4b04852bdda937e50f82952106af1" target="_top" xlink:title="Population::fishableBiomass">
<polygon fill="none" stroke="#000000" points="274,-114.5 274,-133.5 414,-133.5 414,-114.5 274,-114.5"/>
<text text-anchor="middle" x="344" y="-121.5" font-family="Helvetica,sans-Serif" font-size="10.00" fill="#000000">Population::fishableBiomass</text>
</a>
</g>
</g>
<!-- Node48&#45;&gt;Node50 -->
<g id="edge3" class="edge">
<title>Node48&#45;&gt;Node50</title>
<path fill="none" stroke="#191970" d="M238.3111,-98.3375C256.5352,-102.7625 277.0329,-107.7396 295.0922,-112.1246"/>
<polygon fill="#191970" stroke="#191970" points="294.3009,-115.5341 304.8444,-114.4926 295.9526,-108.7318 294.3009,-115.5341"/>
</g>
<!-- Node51 -->
<g id="node5" class="node">
<title>Node51</title>
<g id="a_node5"><a xlink:href="classPopulation.html#a5440cd360f9b6af954085b442327633b" target="_top" xlink:title="Population::init">
<polygon fill="none" stroke="#000000" points="303.5,-76.5 303.5,-95.5 384.5,-95.5 384.5,-76.5 303.5,-76.5"/>
<text text-anchor="middle" x="344" y="-83.5" font-family="Helvetica,sans-Serif" font-size="10.00" fill="#000000">Population::init</text>
</a>
</g>
</g>
<!-- Node48&#45;&gt;Node51 -->
<g id="edge4" class="edge">
<title>Node48&#45;&gt;Node51</title>
<path fill="none" stroke="#191970" d="M238.3111,-86C255.9188,-86 275.6489,-86 293.2516,-86"/>
<polygon fill="#191970" stroke="#191970" points="293.3378,-89.5001 303.3378,-86 293.3378,-82.5001 293.3378,-89.5001"/>
</g>
<!-- Node52 -->
<g id="node6" class="node">
<title>Node52</title>
<g id="a_node6"><a xlink:href="classPopulation.html#a345497aa32fe22f73153a59f469c6a19" target="_top" xlink:title="Population::print_summary">
<polygon fill="none" stroke="#000000" points="277.5,-38.5 277.5,-57.5 410.5,-57.5 410.5,-38.5 277.5,-38.5"/>
<text text-anchor="middle" x="344" y="-45.5" font-family="Helvetica,sans-Serif" font-size="10.00" fill="#000000">Population::print_summary</text>
</a>
</g>
</g>
<!-- Node48&#45;&gt;Node52 -->
<g id="edge5" class="edge">
<title>Node48&#45;&gt;Node52</title>
<path fill="none" stroke="#191970" d="M238.3111,-73.6625C256.5352,-69.2375 277.0329,-64.2604 295.0922,-59.8754"/>
<polygon fill="#191970" stroke="#191970" points="295.9526,-63.2682 304.8444,-57.5074 294.3009,-56.4659 295.9526,-63.2682"/>
</g>
<!-- Node53 -->
<g id="node7" class="node">
<title>Node53</title>
<g id="a_node7"><a xlink:href="classPopulation.html#aa404f725dcde475806cdb26704b9fbcf" target="_top" xlink:title="Population::update">
<polygon fill="none" stroke="#000000" points="295,-.5 295,-19.5 393,-19.5 393,-.5 295,-.5"/>
<text text-anchor="middle" x="344" y="-7.5" font-family="Helvetica,sans-Serif" font-size="10.00" fill="#000000">Population::update</text>
</a>
</g>
</g>
<!-- Node48&#45;&gt;Node53 -->
<g id="edge6" class="edge">
<title>Node48&#45;&gt;Node53</title>
<path fill="none" stroke="#191970" d="M221.0812,-70.9526C226.8766,-67.9157 232.7274,-64.5545 238,-61 255.7504,-49.0337 255.1708,-39.185 274,-29 278.2089,-26.7234 282.7106,-24.704 287.3255,-22.9156"/>
<polygon fill="#191970" stroke="#191970" points="288.6196,-26.1708 296.8995,-19.5608 286.3047,-19.5647 288.6196,-26.1708"/>
</g>
<!-- Node54 -->
<g id="node8" class="node">
<title>Node54</title>
<g id="a_node8"><a xlink:href="namespacepn.html#ad42003887dcc42a4758c69775f83a8d9" target="_top" xlink:title="pn::zero">
<polygon fill="none" stroke="#000000" points="450,-.5 450,-19.5 502,-19.5 502,-.5 450,-.5"/>
<text text-anchor="middle" x="476" y="-7.5" font-family="Helvetica,sans-Serif" font-size="10.00" fill="#000000">pn::zero</text>
</a>
</g>
</g>
<!-- Node53&#45;&gt;Node54 -->
<g id="edge7" class="edge">
<title>Node53&#45;&gt;Node54</title>
<path fill="none" stroke="#191970" d="M393.1519,-10C408.6056,-10 425.3799,-10 439.767,-10"/>
<polygon fill="#191970" stroke="#191970" points="439.7682,-13.5001 449.7682,-10 439.7681,-6.5001 439.7682,-13.5001"/>
</g>
<!-- Node55 -->
<g id="node9" class="node">
<title>Node55</title>
<g id="a_node9"><a xlink:href="structpn_1_1BrentRes.html#a4fa42a440c4b9dc765ea7f0d7fd3a412" target="_top" xlink:title="pn::BrentRes::BrentRes">
<polygon fill="none" stroke="#000000" points="538,-.5 538,-19.5 660,-19.5 660,-.5 538,-.5"/>
<text text-anchor="middle" x="599" y="-7.5" font-family="Helvetica,sans-Serif" font-size="10.00" fill="#000000">pn::BrentRes::BrentRes</text>
</a>
</g>
</g>
<!-- Node54&#45;&gt;Node55 -->
<g id="edge8" class="edge">
<title>Node54&#45;&gt;Node55</title>
<path fill="none" stroke="#191970" d="M502.0851,-10C509.7193,-10 518.458,-10 527.4927,-10"/>
<polygon fill="#191970" stroke="#191970" points="527.7759,-13.5001 537.7759,-10 527.7759,-6.5001 527.7759,-13.5001"/>
</g>
</g>
</svg>
