<?xml version="1.0" encoding="UTF-8" standalone="no"?>
<!DOCTYPE svg PUBLIC "-//W3C//DTD SVG 1.1//EN"
 "http://www.w3.org/Graphics/SVG/1.1/DTD/svg11.dtd">
<!-- Generated by graphviz version 2.40.1 (20161225.0304)
 -->
<!-- Title: Simulator::simulate_r Pages: 1 -->
<svg width="630pt" height="370pt"
 viewBox="0.00 0.00 630.00 370.00" xmlns="http://www.w3.org/2000/svg" xmlns:xlink="http://www.w3.org/1999/xlink">
<g id="graph0" class="graph" transform="scale(1 1) rotate(0) translate(4 366)">
<title>Simulator::simulate_r</title>
<!-- Node127 -->
<g id="node1" class="node">
<title>Node127</title>
<polygon fill="#bfbfbf" stroke="#000000" points="0,-190.5 0,-209.5 109,-209.5 109,-190.5 0,-190.5"/>
<text text-anchor="middle" x="54.5" y="-197.5" font-family="Helvetica,sans-Serif" font-size="10.00" fill="#000000">Simulator::simulate_r</text>
</g>
<!-- Node128 -->
<g id="node2" class="node">
<title>Node128</title>
<g id="a_node2"><a xlink:href="classPopulation.html#a20696fa511c914e7c8837acb2a254b33" target="_top" xlink:title="Population::set_harvestProp">
<polygon fill="none" stroke="#000000" points="146.5,-266.5 146.5,-285.5 286.5,-285.5 286.5,-266.5 146.5,-266.5"/>
<text text-anchor="middle" x="216.5" y="-273.5" font-family="Helvetica,sans-Serif" font-size="10.00" fill="#000000">Population::set_harvestProp</text>
</a>
</g>
</g>
<!-- Node127&#45;&gt;Node128 -->
<g id="edge1" class="edge">
<title>Node127&#45;&gt;Node128</title>
<path fill="none" stroke="#191970" d="M67.0001,-209.6099C83.8578,-222.1503 115.21,-244.0204 145,-257 150.5066,-259.3992 156.3874,-261.5559 162.3219,-263.4787"/>
<polygon fill="#191970" stroke="#191970" points="161.7183,-266.9526 172.3033,-266.4951 163.7434,-260.2519 161.7183,-266.9526"/>
</g>
<!-- Node129 -->
<g id="node3" class="node">
<title>Node129</title>
<g id="a_node3"><a xlink:href="classPopulation.html#a343a346cae1413da400c042868c15859" target="_top" xlink:title="Population::set_minSizeLimit">
<polygon fill="none" stroke="#000000" points="145,-228.5 145,-247.5 288,-247.5 288,-228.5 145,-228.5"/>
<text text-anchor="middle" x="216.5" y="-235.5" font-family="Helvetica,sans-Serif" font-size="10.00" fill="#000000">Population::set_minSizeLimit</text>
</a>
</g>
</g>
<!-- Node127&#45;&gt;Node129 -->
<g id="edge2" class="edge">
<title>Node127&#45;&gt;Node129</title>
<path fill="none" stroke="#191970" d="M95.3794,-209.589C116.8534,-214.6261 143.3605,-220.8438 166.097,-226.1771"/>
<polygon fill="#191970" stroke="#191970" points="165.3795,-229.6037 175.9145,-228.4799 166.9781,-222.7887 165.3795,-229.6037"/>
</g>
<!-- Node130 -->
<g id="node4" class="node">
<title>Node130</title>
<g id="a_node4"><a xlink:href="classPopulation.html#a42c4b04852bdda937e50f82952106af1" target="_top" xlink:title="Population::fishableBiomass">
<polygon fill="none" stroke="#000000" points="324,-.5 324,-19.5 464,-19.5 464,-.5 324,-.5"/>
<text text-anchor="middle" x="394" y="-7.5" font-family="Helvetica,sans-Serif" font-size="10.00" fill="#000000">Population::fishableBiomass</text>
</a>
</g>
</g>
<!-- Node127&#45;&gt;Node130 -->
<g id="edge3" class="edge">
<title>Node127&#45;&gt;Node130</title>
<path fill="none" stroke="#191970" d="M66.6372,-190.3784C103.3072,-161.7479 217.016,-76.1647 324,-29 329.3885,-26.6244 335.1443,-24.4827 340.9534,-22.5687"/>
<polygon fill="#191970" stroke="#191970" points="342.1964,-25.8482 350.7244,-19.5615 340.1373,-19.1579 342.1964,-25.8482"/>
</g>
<!-- Node132 -->
<g id="node6" class="node">
<title>Node132</title>
<g id="a_node6"><a xlink:href="classPopulation.html#a012ef586a78b4e7c2082634b316072d0" target="_top" xlink:title="Population::init">
<polygon fill="none" stroke="#000000" points="176,-190.5 176,-209.5 257,-209.5 257,-190.5 176,-190.5"/>
<text text-anchor="middle" x="216.5" y="-197.5" font-family="Helvetica,sans-Serif" font-size="10.00" fill="#000000">Population::init</text>
</a>
</g>
</g>
<!-- Node127&#45;&gt;Node132 -->
<g id="edge5" class="edge">
<title>Node127&#45;&gt;Node132</title>
<path fill="none" stroke="#191970" d="M109.3458,-200C127.5314,-200 147.6872,-200 165.5657,-200"/>
<polygon fill="#191970" stroke="#191970" points="165.797,-203.5001 175.797,-200 165.797,-196.5001 165.797,-203.5001"/>
</g>
<!-- Node136 -->
<g id="node10" class="node">
<title>Node136</title>
<g id="a_node10"><a xlink:href="classPopulation.html#a81c19d1c80cfb1d54d3872ecdefd0872" target="_top" xlink:title="Population::update">
<polygon fill="none" stroke="#000000" points="167.5,-152.5 167.5,-171.5 265.5,-171.5 265.5,-152.5 167.5,-152.5"/>
<text text-anchor="middle" x="216.5" y="-159.5" font-family="Helvetica,sans-Serif" font-size="10.00" fill="#000000">Population::update</text>
</a>
</g>
</g>
<!-- Node127&#45;&gt;Node136 -->
<g id="edge9" class="edge">
<title>Node127&#45;&gt;Node136</title>
<path fill="none" stroke="#191970" d="M95.3794,-190.411C116.8534,-185.3739 143.3605,-179.1562 166.097,-173.8229"/>
<polygon fill="#191970" stroke="#191970" points="166.9781,-177.2113 175.9145,-171.5201 165.3795,-170.3963 166.9781,-177.2113"/>
</g>
<!-- Node131 -->
<g id="node5" class="node">
<title>Node131</title>
<g id="a_node5"><a xlink:href="classPopulation.html#ac8ed845bbda25c937a2fd76b3788e987" target="_top" xlink:title="Population::selectivity">
<polygon fill="none" stroke="#000000" points="504.5,-190.5 504.5,-209.5 617.5,-209.5 617.5,-190.5 504.5,-190.5"/>
<text text-anchor="middle" x="561" y="-197.5" font-family="Helvetica,sans-Serif" font-size="10.00" fill="#000000">Population::selectivity</text>
</a>
</g>
</g>
<!-- Node130&#45;&gt;Node131 -->
<g id="edge4" class="edge">
<title>Node130&#45;&gt;Node131</title>
<path fill="none" stroke="#191970" d="M447.3694,-19.6105C453.3242,-22.0631 459.0257,-25.14 464,-29 515.5622,-69.0114 544.2152,-144.6562 555.4148,-180.3782"/>
<polygon fill="#191970" stroke="#191970" points="552.106,-181.5295 558.3362,-190.099 558.8098,-179.5147 552.106,-181.5295"/>
</g>
<!-- Node133 -->
<g id="node7" class="node">
<title>Node133</title>
<g id="a_node7"><a xlink:href="classFish.html#adf85bf269f1651352506e371ffd2cecc" target="_top" xlink:title="Initializes the fish, i.e., initializes parameters and sets the initial state (age = 1...">
<polygon fill="none" stroke="#000000" points="367,-304.5 367,-323.5 421,-323.5 421,-304.5 367,-304.5"/>
<text text-anchor="middle" x="394" y="-311.5" font-family="Helvetica,sans-Serif" font-size="10.00" fill="#000000">Fish::init</text>
</a>
</g>
</g>
<!-- Node132&#45;&gt;Node133 -->
<g id="edge6" class="edge">
<title>Node132&#45;&gt;Node133</title>
<path fill="none" stroke="#191970" d="M257.2378,-204.467C268.1486,-207.2654 279.3122,-211.7699 288,-219 316.7286,-242.9083 295.335,-271.0155 324,-295 333.2624,-302.75 345.4093,-307.3598 356.9794,-310.0946"/>
<polygon fill="#191970" stroke="#191970" points="356.4244,-313.5524 366.9117,-312.047 357.7746,-306.6838 356.4244,-313.5524"/>
</g>
<!-- Node134 -->
<g id="node8" class="node">
<title>Node134</title>
<g id="a_node8"><a xlink:href="namespacefish.html#a0ab1c4842d702a0a40bd04f26793ce12" target="_top" xlink:title="Compute the nonlinear growth increment , as follows . ">
<polygon fill="none" stroke="#000000" points="522.5,-342.5 522.5,-361.5 599.5,-361.5 599.5,-342.5 522.5,-342.5"/>
<text text-anchor="middle" x="561" y="-349.5" font-family="Helvetica,sans-Serif" font-size="10.00" fill="#000000">fish::dl_power</text>
</a>
</g>
</g>
<!-- Node133&#45;&gt;Node134 -->
<g id="edge7" class="edge">
<title>Node133&#45;&gt;Node134</title>
<path fill="none" stroke="#191970" d="M421.2031,-320.1899C445.8653,-325.8017 482.7919,-334.2042 512.5008,-340.9643"/>
<polygon fill="#191970" stroke="#191970" points="511.7439,-344.3814 522.2712,-343.1875 513.297,-337.5559 511.7439,-344.3814"/>
</g>
<!-- Node135 -->
<g id="node9" class="node">
<title>Node135</title>
<g id="a_node9"><a xlink:href="namespacefish.html#a1d06e0358aca1be4446ed148b7ce3d84" target="_top" xlink:title="Compute the new length after growth assuming no allocation to reproduction . ">
<polygon fill="none" stroke="#000000" points="509.5,-304.5 509.5,-323.5 612.5,-323.5 612.5,-304.5 509.5,-304.5"/>
<text text-anchor="middle" x="561" y="-311.5" font-family="Helvetica,sans-Serif" font-size="10.00" fill="#000000">fish::length_juvenile</text>
</a>
</g>
</g>
<!-- Node133&#45;&gt;Node135 -->
<g id="edge8" class="edge">
<title>Node133&#45;&gt;Node135</title>
<path fill="none" stroke="#191970" d="M421.2031,-314C442.2655,-314 472.2731,-314 499.0905,-314"/>
<polygon fill="#191970" stroke="#191970" points="499.1871,-317.5001 509.1871,-314 499.187,-310.5001 499.1871,-317.5001"/>
</g>
<!-- Node136&#45;&gt;Node130 -->
<g id="edge14" class="edge">
<title>Node136&#45;&gt;Node130</title>
<path fill="none" stroke="#191970" d="M225.6929,-152.3459C239.693,-137.4786 266.9516,-107.8776 288,-81 305.3309,-58.8694 301.0436,-45.2212 324,-29 326.7253,-27.0743 329.6365,-25.3437 332.6658,-23.7884"/>
<polygon fill="#191970" stroke="#191970" points="334.3195,-26.8837 342.0407,-19.6287 331.4805,-20.4853 334.3195,-26.8837"/>
</g>
<!-- Node136&#45;&gt;Node131 -->
<g id="edge19" class="edge">
<title>Node136&#45;&gt;Node131</title>
<path fill="none" stroke="#191970" d="M264.7804,-171.5396C283.2477,-174.9234 304.5433,-178.5064 324,-181 381.2162,-188.333 446.5889,-193.3218 494.1634,-196.3407"/>
<polygon fill="#191970" stroke="#191970" points="494.14,-199.8459 504.338,-196.9735 494.5746,-192.8594 494.14,-199.8459"/>
</g>
<!-- Node136&#45;&gt;Node133 -->
<g id="edge13" class="edge">
<title>Node136&#45;&gt;Node133</title>
<path fill="none" stroke="#191970" d="M265.694,-168.0591C273.9127,-170.9234 281.7762,-175.057 288,-181 326.4275,-217.6939 285.6701,-258.2042 324,-295 332.7826,-303.431 344.9152,-308.2039 356.615,-310.8791"/>
<polygon fill="#191970" stroke="#191970" points="356.2223,-314.3655 366.6901,-312.7293 357.4867,-307.4806 356.2223,-314.3655"/>
</g>
<!-- Node137 -->
<g id="node11" class="node">
<title>Node137</title>
<g id="a_node11"><a xlink:href="classPopulation.html#ae942ef70cc9f4dfc40b5d843baf40b1e" target="_top" xlink:title="Population::calcTSB">
<polygon fill="none" stroke="#000000" points="341,-114.5 341,-133.5 447,-133.5 447,-114.5 341,-114.5"/>
<text text-anchor="middle" x="394" y="-121.5" font-family="Helvetica,sans-Serif" font-size="10.00" fill="#000000">Population::calcTSB</text>
</a>
</g>
</g>
<!-- Node136&#45;&gt;Node137 -->
<g id="edge10" class="edge">
<title>Node136&#45;&gt;Node137</title>
<path fill="none" stroke="#191970" d="M261.2907,-152.411C285.0303,-147.3287 314.3839,-141.0446 339.4437,-135.6797"/>
<polygon fill="#191970" stroke="#191970" points="340.4856,-139.036 349.5313,-133.5201 339.0202,-132.1911 340.4856,-139.036"/>
</g>
<!-- Node138 -->
<g id="node12" class="node">
<title>Node138</title>
<g id="a_node12"><a xlink:href="classPopulation.html#af15e7ba23b161c710d4013204b542cb6" target="_top" xlink:title="Population::calcSSB">
<polygon fill="none" stroke="#000000" points="340.5,-76.5 340.5,-95.5 447.5,-95.5 447.5,-76.5 340.5,-76.5"/>
<text text-anchor="middle" x="394" y="-83.5" font-family="Helvetica,sans-Serif" font-size="10.00" fill="#000000">Population::calcSSB</text>
</a>
</g>
</g>
<!-- Node136&#45;&gt;Node138 -->
<g id="edge11" class="edge">
<title>Node136&#45;&gt;Node138</title>
<path fill="none" stroke="#191970" d="M232.0007,-152.3594C252.438,-139.9855 289.8152,-118.5071 324,-105 329.9948,-102.6313 336.3909,-100.4503 342.7881,-98.4765"/>
<polygon fill="#191970" stroke="#191970" points="344.1716,-101.7184 352.7844,-95.5483 342.2037,-95.0007 344.1716,-101.7184"/>
</g>
<!-- Node139 -->
<g id="node13" class="node">
<title>Node139</title>
<g id="a_node13"><a xlink:href="classFish.html#aaa3e67187a587efc7a99485b4a6ee248" target="_top" xlink:title="Fish::set_traits">
<polygon fill="none" stroke="#000000" points="353,-38.5 353,-57.5 435,-57.5 435,-38.5 353,-38.5"/>
<text text-anchor="middle" x="394" y="-45.5" font-family="Helvetica,sans-Serif" font-size="10.00" fill="#000000">Fish::set_traits</text>
</a>
</g>
</g>
<!-- Node136&#45;&gt;Node139 -->
<g id="edge12" class="edge">
<title>Node136&#45;&gt;Node139</title>
<path fill="none" stroke="#191970" d="M224.62,-152.3142C241.2528,-133.103 281.248,-90.0454 324,-67 329.958,-63.7884 336.4999,-61.0878 343.118,-58.8252"/>
<polygon fill="#191970" stroke="#191970" points="344.2976,-62.1238 352.8095,-55.8152 342.2213,-55.4388 344.2976,-62.1238"/>
</g>
<!-- Node140 -->
<g id="node14" class="node">
<title>Node140</title>
<g id="a_node14"><a xlink:href="classPopulation.html#ad1840de2f00982c35d48b91a1d27ae13" target="_top" xlink:title="Population::effort">
<polygon fill="none" stroke="#000000" points="348.5,-228.5 348.5,-247.5 439.5,-247.5 439.5,-228.5 348.5,-228.5"/>
<text text-anchor="middle" x="394" y="-235.5" font-family="Helvetica,sans-Serif" font-size="10.00" fill="#000000">Population::effort</text>
</a>
</g>
</g>
<!-- Node136&#45;&gt;Node140 -->
<g id="edge15" class="edge">
<title>Node136&#45;&gt;Node140</title>
<path fill="none" stroke="#191970" d="M265.4155,-171.6089C273.2192,-174.0903 281.0148,-177.1763 288,-181 307.0393,-191.422 305.3402,-202.9129 324,-214 331.1454,-218.2456 339.1499,-221.8781 347.1229,-224.9362"/>
<polygon fill="#191970" stroke="#191970" points="346.1781,-228.3153 356.7727,-228.3842 348.5335,-221.7235 346.1781,-228.3153"/>
</g>
<!-- Node141 -->
<g id="node15" class="node">
<title>Node141</title>
<g id="a_node15"><a xlink:href="namespacepn.html#ad42003887dcc42a4758c69775f83a8d9" target="_top" xlink:title="pn::zero">
<polygon fill="none" stroke="#000000" points="368,-266.5 368,-285.5 420,-285.5 420,-266.5 368,-266.5"/>
<text text-anchor="middle" x="394" y="-273.5" font-family="Helvetica,sans-Serif" font-size="10.00" fill="#000000">pn::zero</text>
</a>
</g>
</g>
<!-- Node136&#45;&gt;Node141 -->
<g id="edge17" class="edge">
<title>Node136&#45;&gt;Node141</title>
<path fill="none" stroke="#191970" d="M265.7959,-169.029C273.815,-171.8062 281.5829,-175.6596 288,-181 316.7286,-204.9083 295.335,-233.0155 324,-257 333.4865,-264.9375 345.9987,-269.581 357.8182,-272.2898"/>
<polygon fill="#191970" stroke="#191970" points="357.4563,-275.7835 367.9331,-274.2064 358.7595,-268.9058 357.4563,-275.7835"/>
</g>
<!-- Node143 -->
<g id="node17" class="node">
<title>Node143</title>
<g id="a_node17"><a xlink:href="classPopulation.html#ac62fc3480d60b055cd1886649809c6a6" target="_top" xlink:title="Population::nfish">
<polygon fill="none" stroke="#000000" points="349.5,-152.5 349.5,-171.5 438.5,-171.5 438.5,-152.5 349.5,-152.5"/>
<text text-anchor="middle" x="394" y="-159.5" font-family="Helvetica,sans-Serif" font-size="10.00" fill="#000000">Population::nfish</text>
</a>
</g>
</g>
<!-- Node136&#45;&gt;Node143 -->
<g id="edge20" class="edge">
<title>Node136&#45;&gt;Node143</title>
<path fill="none" stroke="#191970" d="M265.9436,-162C288.7296,-162 315.8474,-162 339.2495,-162"/>
<polygon fill="#191970" stroke="#191970" points="339.3686,-165.5001 349.3686,-162 339.3686,-158.5001 339.3686,-165.5001"/>
</g>
<!-- Node140&#45;&gt;Node131 -->
<g id="edge16" class="edge">
<title>Node140&#45;&gt;Node131</title>
<path fill="none" stroke="#191970" d="M436.1412,-228.411C458.3771,-223.3513 485.8482,-217.1004 509.3564,-211.7512"/>
<polygon fill="#191970" stroke="#191970" points="510.1877,-215.1516 519.1619,-209.5201 508.6345,-208.3261 510.1877,-215.1516"/>
</g>
<!-- Node142 -->
<g id="node16" class="node">
<title>Node142</title>
<g id="a_node16"><a xlink:href="structpn_1_1BrentRes.html#a4fa42a440c4b9dc765ea7f0d7fd3a412" target="_top" xlink:title="pn::BrentRes::BrentRes">
<polygon fill="none" stroke="#000000" points="500,-266.5 500,-285.5 622,-285.5 622,-266.5 500,-266.5"/>
<text text-anchor="middle" x="561" y="-273.5" font-family="Helvetica,sans-Serif" font-size="10.00" fill="#000000">pn::BrentRes::BrentRes</text>
</a>
</g>
</g>
<!-- Node141&#45;&gt;Node142 -->
<g id="edge18" class="edge">
<title>Node141&#45;&gt;Node142</title>
<path fill="none" stroke="#191970" d="M420.0938,-276C438.7993,-276 464.9543,-276 489.6585,-276"/>
<polygon fill="#191970" stroke="#191970" points="489.7637,-279.5001 499.7636,-276 489.7636,-272.5001 489.7637,-279.5001"/>
</g>
</g>
</svg>
