<?xml version="1.0" encoding="UTF-8" standalone="no"?>
<!DOCTYPE svg PUBLIC "-//W3C//DTD SVG 1.1//EN"
 "http://www.w3.org/Graphics/SVG/1.1/DTD/svg11.dtd">
<!-- Generated by graphviz version 2.40.1 (20161225.0304)
 -->
<!-- Title: Fish::matureNow Pages: 1 -->
<svg width="270pt" height="66pt"
 viewBox="0.00 0.00 270.00 66.00" xmlns="http://www.w3.org/2000/svg" xmlns:xlink="http://www.w3.org/1999/xlink">
<g id="graph0" class="graph" transform="scale(1 1) rotate(0) translate(4 62)">
<title>Fish::matureNow</title>
<!-- Node12 -->
<g id="node1" class="node">
<title>Node12</title>
<polygon fill="#bfbfbf" stroke="#000000" points="0,-19.5 0,-38.5 92,-38.5 92,-19.5 0,-19.5"/>
<text text-anchor="middle" x="46" y="-26.5" font-family="Helvetica,sans-Serif" font-size="10.00" fill="#000000">Fish::matureNow</text>
</g>
<!-- Node13 -->
<g id="node2" class="node">
<title>Node13</title>
<g id="a_node2"><a xlink:href="population_8cpp.html#a448644b6a3a0fa7cd89a6ce52b9bd3aa" target="_top" xlink:title="runif">
<polygon fill="none" stroke="#000000" points="177.5,-38.5 177.5,-57.5 212.5,-57.5 212.5,-38.5 177.5,-38.5"/>
<text text-anchor="middle" x="195" y="-45.5" font-family="Helvetica,sans-Serif" font-size="10.00" fill="#000000">runif</text>
</a>
</g>
</g>
<!-- Node12&#45;&gt;Node13 -->
<g id="edge1" class="edge">
<title>Node12&#45;&gt;Node13</title>
<path fill="none" stroke="#191970" d="M92.3278,-34.9076C116.9164,-38.043 146.3067,-41.7908 167.3293,-44.4715"/>
<polygon fill="#191970" stroke="#191970" points="167.1279,-47.9741 177.4903,-45.7672 168.0134,-41.0303 167.1279,-47.9741"/>
</g>
<!-- Node14 -->
<g id="node3" class="node">
<title>Node14</title>
<g id="a_node3"><a xlink:href="namespacefish.html#a708b4fb0fc8a7424ecebdd40f7dbcc4e" target="_top" xlink:title="fish::maturation_probability">
<polygon fill="none" stroke="#000000" points="128,-.5 128,-19.5 262,-19.5 262,-.5 128,-.5"/>
<text text-anchor="middle" x="195" y="-7.5" font-family="Helvetica,sans-Serif" font-size="10.00" fill="#000000">fish::maturation_probability</text>
</a>
</g>
</g>
<!-- Node12&#45;&gt;Node14 -->
<g id="edge2" class="edge">
<title>Node12&#45;&gt;Node14</title>
<path fill="none" stroke="#191970" d="M92.3278,-23.0924C100.4328,-22.0589 109.0595,-20.9589 117.7363,-19.8524"/>
<polygon fill="#191970" stroke="#191970" points="118.4399,-23.2911 127.9168,-18.5542 117.5544,-16.3474 118.4399,-23.2911"/>
</g>
</g>
</svg>
