<?xml version="1.0" encoding="UTF-8" standalone="no"?>
<!DOCTYPE svg PUBLIC "-//W3C//DTD SVG 1.1//EN"
 "http://www.w3.org/Graphics/SVG/1.1/DTD/svg11.dtd">
<!-- Generated by graphviz version 2.40.1 (20161225.0304)
 -->
<!-- Title: Population::update Pages: 1 -->
<svg width="380pt" height="165pt"
 viewBox="0.00 0.00 380.00 164.50" xmlns="http://www.w3.org/2000/svg" xmlns:xlink="http://www.w3.org/1999/xlink">
<g id="graph0" class="graph" transform="scale(1 1) rotate(0) translate(4 160.5)">
<title>Population::update</title>
<!-- Node64 -->
<g id="node1" class="node">
<title>Node64</title>
<polygon fill="#bfbfbf" stroke="#000000" points="0,-77 0,-96 98,-96 98,-77 0,-77"/>
<text text-anchor="middle" x="49" y="-84" font-family="Helvetica,sans-Serif" font-size="10.00" fill="#000000">Population::update</text>
</g>
<!-- Node65 -->
<g id="node2" class="node">
<title>Node65</title>
<g id="a_node2"><a xlink:href="fish__glue_8cpp.html#ab96ae82277aa9004dc603b77512c7265" target="_top" xlink:title="RCPP_MODULE">
<polygon fill="none" stroke="#000000" points="142,-137 142,-156 235,-156 235,-137 142,-137"/>
<text text-anchor="middle" x="188.5" y="-144" font-family="Helvetica,sans-Serif" font-size="10.00" fill="#000000">RCPP_MODULE</text>
</a>
</g>
</g>
<!-- Node64&#45;&gt;Node65 -->
<g id="edge1" class="edge">
<title>Node64&#45;&gt;Node65</title>
<path fill="none" stroke="#191970" d="M76.3655,-100.6822C92.8511,-108.9778 114.3851,-119.3812 134,-127.5 142.0549,-130.834 150.9295,-134.0963 159.1362,-136.9506"/>
<polygon fill="#191970" stroke="#191970" points="77.7959,-97.4831 67.2951,-96.0746 74.6256,-103.7241 77.7959,-97.4831"/>
</g>
<!-- Node66 -->
<g id="node3" class="node">
<title>Node66</title>
<g id="a_node3"><a xlink:href="classSimulator.html#a16eef6e60e97dabc2a1205b58b10182c" target="_top" xlink:title="Simulator::simulate_r">
<polygon fill="none" stroke="#000000" points="134,-99 134,-118 243,-118 243,-99 134,-99"/>
<text text-anchor="middle" x="188.5" y="-106" font-family="Helvetica,sans-Serif" font-size="10.00" fill="#000000">Simulator::simulate_r</text>
</a>
</g>
</g>
<!-- Node64&#45;&gt;Node66 -->
<g id="edge2" class="edge">
<title>Node64&#45;&gt;Node66</title>
<path fill="none" stroke="#191970" d="M108.2841,-95.8495C116.6773,-97.1731 125.2775,-98.5294 133.5834,-99.8393"/>
<polygon fill="#191970" stroke="#191970" points="108.6057,-92.357 98.1825,-94.2564 107.5151,-99.2715 108.6057,-92.357"/>
</g>
<!-- Node68 -->
<g id="node5" class="node">
<title>Node68</title>
<g id="a_node5"><a xlink:href="classSimulator.html#a3e61a52f336d592216770c0c43cfd388" target="_top" xlink:title="Simulator::simulate\l_multi">
<polygon fill="none" stroke="#000000" points="138,-49.5 138,-79.5 239,-79.5 239,-49.5 138,-49.5"/>
<text text-anchor="start" x="146" y="-67.5" font-family="Helvetica,sans-Serif" font-size="10.00" fill="#000000">Simulator::simulate</text>
<text text-anchor="middle" x="188.5" y="-56.5" font-family="Helvetica,sans-Serif" font-size="10.00" fill="#000000">_multi</text>
</a>
</g>
</g>
<!-- Node64&#45;&gt;Node68 -->
<g id="edge4" class="edge">
<title>Node64&#45;&gt;Node68</title>
<path fill="none" stroke="#191970" d="M108.303,-77.1475C118.1459,-75.5953 128.2726,-73.9982 137.8753,-72.4838"/>
<polygon fill="#191970" stroke="#191970" points="107.5151,-73.7285 98.1825,-78.7436 108.6057,-80.643 107.5151,-73.7285"/>
</g>
<!-- Node69 -->
<g id="node6" class="node">
<title>Node69</title>
<g id="a_node6"><a xlink:href="classSimulator.html#a636e7a83b462c3e48769a85ae350e742" target="_top" xlink:title="Simulator::simulate\l_multi_2d">
<polygon fill="none" stroke="#000000" points="138,-.5 138,-30.5 239,-30.5 239,-.5 138,-.5"/>
<text text-anchor="start" x="146" y="-18.5" font-family="Helvetica,sans-Serif" font-size="10.00" fill="#000000">Simulator::simulate</text>
<text text-anchor="middle" x="188.5" y="-7.5" font-family="Helvetica,sans-Serif" font-size="10.00" fill="#000000">_multi_2d</text>
</a>
</g>
</g>
<!-- Node64&#45;&gt;Node69 -->
<g id="edge6" class="edge">
<title>Node64&#45;&gt;Node69</title>
<path fill="none" stroke="#191970" d="M75.2157,-71.7327C91.8997,-62.4796 114.0466,-50.4621 134,-40.5 140.6126,-37.1985 147.7494,-33.8054 154.611,-30.6253"/>
<polygon fill="#191970" stroke="#191970" points="73.1116,-68.8985 66.0816,-76.825 76.5203,-75.0126 73.1116,-68.8985"/>
</g>
<!-- Node67 -->
<g id="node4" class="node">
<title>Node67</title>
<g id="a_node4"><a xlink:href="fish__glue_8cpp.html#addebb0997b0e49067d8784c9954b7b96" target="_top" xlink:title="RCPP_MODULE">
<polygon fill="none" stroke="#000000" points="279,-55 279,-74 372,-74 372,-55 279,-55"/>
<text text-anchor="middle" x="325.5" y="-62" font-family="Helvetica,sans-Serif" font-size="10.00" fill="#000000">RCPP_MODULE</text>
</a>
</g>
</g>
<!-- Node66&#45;&gt;Node67 -->
<g id="edge3" class="edge">
<title>Node66&#45;&gt;Node67</title>
<path fill="none" stroke="#191970" d="M227.8015,-95.8776C249.4627,-88.9207 275.9162,-80.4247 295.8311,-74.0287"/>
<polygon fill="#191970" stroke="#191970" points="226.6777,-92.5624 218.227,-98.9527 228.8182,-99.2271 226.6777,-92.5624"/>
</g>
<!-- Node68&#45;&gt;Node67 -->
<g id="edge5" class="edge">
<title>Node68&#45;&gt;Node67</title>
<path fill="none" stroke="#191970" d="M249.2947,-64.5C259.1625,-64.5 269.2464,-64.5 278.7131,-64.5"/>
<polygon fill="#191970" stroke="#191970" points="249.1245,-61.0001 239.1245,-64.5 249.1245,-68.0001 249.1245,-61.0001"/>
</g>
<!-- Node69&#45;&gt;Node67 -->
<g id="edge7" class="edge">
<title>Node69&#45;&gt;Node67</title>
<path fill="none" stroke="#191970" d="M240.3007,-34.0272C260.2049,-41.1463 282.1124,-48.9818 298.728,-54.9246"/>
<polygon fill="#191970" stroke="#191970" points="241.317,-30.6737 230.7224,-30.6014 238.9595,-37.2648 241.317,-30.6737"/>
</g>
</g>
</svg>
