<?xml version="1.0" encoding="UTF-8" standalone="no"?>
<!DOCTYPE svg PUBLIC "-//W3C//DTD SVG 1.1//EN"
 "http://www.w3.org/Graphics/SVG/1.1/DTD/svg11.dtd">
<!-- Generated by graphviz version 2.40.1 (20161225.0304)
 -->
<!-- Title: Population::calcSSB Pages: 1 -->
<svg width="750pt" height="214pt"
 viewBox="0.00 0.00 750.00 214.00" xmlns="http://www.w3.org/2000/svg" xmlns:xlink="http://www.w3.org/1999/xlink">
<g id="graph0" class="graph" transform="scale(1 1) rotate(0) translate(4 210)">
<title>Population::calcSSB</title>
<!-- Node7 -->
<g id="node1" class="node">
<title>Node7</title>
<polygon fill="#bfbfbf" stroke="#000000" points="0,-153.5 0,-172.5 107,-172.5 107,-153.5 0,-153.5"/>
<text text-anchor="middle" x="53.5" y="-160.5" font-family="Helvetica,sans-Serif" font-size="10.00" fill="#000000">Population::calcSSB</text>
</g>
<!-- Node8 -->
<g id="node2" class="node">
<title>Node8</title>
<g id="a_node2"><a xlink:href="fish__glue_8cpp.html#ab96ae82277aa9004dc603b77512c7265" target="_top" xlink:title="RCPP_MODULE">
<polygon fill="none" stroke="#000000" points="495.5,-186.5 495.5,-205.5 588.5,-205.5 588.5,-186.5 495.5,-186.5"/>
<text text-anchor="middle" x="542" y="-193.5" font-family="Helvetica,sans-Serif" font-size="10.00" fill="#000000">RCPP_MODULE</text>
</a>
</g>
</g>
<!-- Node7&#45;&gt;Node8 -->
<g id="edge1" class="edge">
<title>Node7&#45;&gt;Node8</title>
<path fill="none" stroke="#191970" d="M117.1808,-173.2255C161.7923,-179.9069 222.8727,-188.0926 277,-192 353.4115,-197.516 442.5254,-197.5489 495.4961,-196.8977"/>
<polygon fill="#191970" stroke="#191970" points="117.4779,-169.7307 107.0666,-171.6943 116.43,-176.6518 117.4779,-169.7307"/>
</g>
<!-- Node9 -->
<g id="node3" class="node">
<title>Node9</title>
<g id="a_node3"><a xlink:href="classPopulation.html#a81c19d1c80cfb1d54d3872ecdefd0872" target="_top" xlink:title="Population::update">
<polygon fill="none" stroke="#000000" points="143,-115.5 143,-134.5 241,-134.5 241,-115.5 143,-115.5"/>
<text text-anchor="middle" x="192" y="-122.5" font-family="Helvetica,sans-Serif" font-size="10.00" fill="#000000">Population::update</text>
</a>
</g>
</g>
<!-- Node7&#45;&gt;Node9 -->
<g id="edge2" class="edge">
<title>Node7&#45;&gt;Node9</title>
<path fill="none" stroke="#191970" d="M98.1342,-150.7538C117.2247,-145.516 139.1845,-139.4909 157.0618,-134.5859"/>
<polygon fill="#191970" stroke="#191970" points="97.1669,-147.3898 88.4494,-153.411 99.0191,-154.1403 97.1669,-147.3898"/>
</g>
<!-- Node9&#45;&gt;Node8 -->
<g id="edge3" class="edge">
<title>Node9&#45;&gt;Node8</title>
<path fill="none" stroke="#191970" d="M216.6204,-139.6228C233.1335,-148.7291 255.6832,-159.8454 277,-166 351.288,-187.4486 441.4247,-193.6801 495.1191,-195.4205"/>
<polygon fill="#191970" stroke="#191970" points="218.0771,-136.4256 207.6503,-134.5461 214.6292,-142.5176 218.0771,-136.4256"/>
</g>
<!-- Node10 -->
<g id="node4" class="node">
<title>Node10</title>
<g id="a_node4"><a xlink:href="classPopulation.html#aa7eba257f23cbc12aa3673ce012fb2cb" target="_top" xlink:title="Population::noFishingEquilibriate">
<polygon fill="none" stroke="#000000" points="277,-137.5 277,-156.5 435,-156.5 435,-137.5 277,-137.5"/>
<text text-anchor="middle" x="356" y="-144.5" font-family="Helvetica,sans-Serif" font-size="10.00" fill="#000000">Population::noFishingEquilibriate</text>
</a>
</g>
</g>
<!-- Node9&#45;&gt;Node10 -->
<g id="edge4" class="edge">
<title>Node9&#45;&gt;Node10</title>
<path fill="none" stroke="#191970" d="M251.4461,-132.9745C262.3404,-134.4359 273.8107,-135.9746 285.0024,-137.4759"/>
<polygon fill="#191970" stroke="#191970" points="251.582,-129.4614 241.2054,-131.6007 250.6513,-136.3993 251.582,-129.4614"/>
</g>
<!-- Node13 -->
<g id="node7" class="node">
<title>Node13</title>
<g id="a_node7"><a xlink:href="classSimulator.html#a7540919b97662be7deacba9194c0ed60" target="_top" xlink:title="Simulator::simulate\l_multi">
<polygon fill="none" stroke="#000000" points="305.5,-88 305.5,-118 406.5,-118 406.5,-88 305.5,-88"/>
<text text-anchor="start" x="313.5" y="-106" font-family="Helvetica,sans-Serif" font-size="10.00" fill="#000000">Simulator::simulate</text>
<text text-anchor="middle" x="356" y="-95" font-family="Helvetica,sans-Serif" font-size="10.00" fill="#000000">_multi</text>
</a>
</g>
</g>
<!-- Node9&#45;&gt;Node13 -->
<g id="edge8" class="edge">
<title>Node9&#45;&gt;Node13</title>
<path fill="none" stroke="#191970" d="M251.4207,-117.0289C269.1162,-114.6551 288.3331,-112.0773 305.4092,-109.7866"/>
<polygon fill="#191970" stroke="#191970" points="250.6513,-113.6007 241.2054,-118.3993 251.582,-120.5386 250.6513,-113.6007"/>
</g>
<!-- Node15 -->
<g id="node9" class="node">
<title>Node15</title>
<g id="a_node9"><a xlink:href="classSimulator.html#ab21d1c6b0af00931f9a8fa5e0b6d417f" target="_top" xlink:title="Simulator::simulate\l_multi_2d">
<polygon fill="none" stroke="#000000" points="305.5,-39 305.5,-69 406.5,-69 406.5,-39 305.5,-39"/>
<text text-anchor="start" x="313.5" y="-57" font-family="Helvetica,sans-Serif" font-size="10.00" fill="#000000">Simulator::simulate</text>
<text text-anchor="middle" x="356" y="-46" font-family="Helvetica,sans-Serif" font-size="10.00" fill="#000000">_multi_2d</text>
</a>
</g>
</g>
<!-- Node9&#45;&gt;Node15 -->
<g id="edge11" class="edge">
<title>Node9&#45;&gt;Node15</title>
<path fill="none" stroke="#191970" d="M216.5787,-110.0838C233.2305,-100.3855 255.9529,-87.9299 277,-79 286.0052,-75.1792 295.8004,-71.6243 305.3305,-68.4636"/>
<polygon fill="#191970" stroke="#191970" points="214.3633,-107.3275 207.5344,-115.4279 217.9243,-113.354 214.3633,-107.3275"/>
</g>
<!-- Node17 -->
<g id="node11" class="node">
<title>Node17</title>
<g id="a_node11"><a xlink:href="classSimulator.html#aa6e6cfd73fd8d3200e7f515b473e88f2" target="_top" xlink:title="Simulator::simulate_r">
<polygon fill="none" stroke="#000000" points="301.5,-.5 301.5,-19.5 410.5,-19.5 410.5,-.5 301.5,-.5"/>
<text text-anchor="middle" x="356" y="-7.5" font-family="Helvetica,sans-Serif" font-size="10.00" fill="#000000">Simulator::simulate_r</text>
</a>
</g>
</g>
<!-- Node9&#45;&gt;Node17 -->
<g id="edge14" class="edge">
<title>Node9&#45;&gt;Node17</title>
<path fill="none" stroke="#191970" d="M203.1649,-106.6597C217.4907,-84.7404 244.4219,-48.5753 277,-29 284.3758,-24.5681 292.722,-21.1695 301.1574,-18.5634"/>
<polygon fill="#191970" stroke="#191970" points="200.0513,-105.0344 197.6557,-115.3549 205.9644,-108.7809 200.0513,-105.0344"/>
</g>
<!-- Node10&#45;&gt;Node8 -->
<g id="edge5" class="edge">
<title>Node10&#45;&gt;Node8</title>
<path fill="none" stroke="#191970" d="M402.3122,-159.2005C434.3007,-167.6276 476.2398,-178.6761 505.7873,-186.4601"/>
<polygon fill="#191970" stroke="#191970" points="402.8659,-155.7271 392.3042,-156.564 401.0826,-162.4961 402.8659,-155.7271"/>
</g>
<!-- Node11 -->
<g id="node5" class="node">
<title>Node11</title>
<g id="a_node5"><a xlink:href="classSimulator.html#a3dfce52c0bb26ec7ff2632b1eca50240" target="_top" xlink:title="Simulator::equilibriateNatural\lPopulation">
<polygon fill="none" stroke="#000000" points="471,-137 471,-167 613,-167 613,-137 471,-137"/>
<text text-anchor="start" x="479" y="-155" font-family="Helvetica,sans-Serif" font-size="10.00" fill="#000000">Simulator::equilibriateNatural</text>
<text text-anchor="middle" x="542" y="-144" font-family="Helvetica,sans-Serif" font-size="10.00" fill="#000000">Population</text>
</a>
</g>
</g>
<!-- Node10&#45;&gt;Node11 -->
<g id="edge6" class="edge">
<title>Node10&#45;&gt;Node11</title>
<path fill="none" stroke="#191970" d="M445.2169,-149.3983C453.8241,-149.6297 462.4746,-149.8622 470.8728,-150.088"/>
<polygon fill="#191970" stroke="#191970" points="445.2409,-145.8978 435.1504,-149.1277 445.0528,-152.8953 445.2409,-145.8978"/>
</g>
<!-- Node12 -->
<g id="node6" class="node">
<title>Node12</title>
<g id="a_node6"><a xlink:href="fish__glue_8cpp.html#addebb0997b0e49067d8784c9954b7b96" target="_top" xlink:title="RCPP_MODULE">
<polygon fill="none" stroke="#000000" points="649,-68.5 649,-87.5 742,-87.5 742,-68.5 649,-68.5"/>
<text text-anchor="middle" x="695.5" y="-75.5" font-family="Helvetica,sans-Serif" font-size="10.00" fill="#000000">RCPP_MODULE</text>
</a>
</g>
</g>
<!-- Node11&#45;&gt;Node12 -->
<g id="edge7" class="edge">
<title>Node11&#45;&gt;Node12</title>
<path fill="none" stroke="#191970" d="M600.485,-133.3837C604.7638,-131.6712 608.9759,-129.872 613,-128 638.3596,-116.2029 665.7409,-98.5197 681.7144,-87.6502"/>
<polygon fill="#191970" stroke="#191970" points="599.1487,-130.1475 591.059,-136.9892 601.6495,-136.6856 599.1487,-130.1475"/>
</g>
<!-- Node14 -->
<g id="node8" class="node">
<title>Node14</title>
<g id="a_node8"><a xlink:href="classSimulator.html#a1a5454ee4736819d709398b225d7876d" target="_top" xlink:title="Simulator::simulate\l_multi_r">
<polygon fill="none" stroke="#000000" points="491.5,-88 491.5,-118 592.5,-118 592.5,-88 491.5,-88"/>
<text text-anchor="start" x="499.5" y="-106" font-family="Helvetica,sans-Serif" font-size="10.00" fill="#000000">Simulator::simulate</text>
<text text-anchor="middle" x="542" y="-95" font-family="Helvetica,sans-Serif" font-size="10.00" fill="#000000">_multi_r</text>
</a>
</g>
</g>
<!-- Node13&#45;&gt;Node14 -->
<g id="edge9" class="edge">
<title>Node13&#45;&gt;Node14</title>
<path fill="none" stroke="#191970" d="M416.9114,-103C440.9637,-103 468.2797,-103 491.2361,-103"/>
<polygon fill="#191970" stroke="#191970" points="416.8254,-99.5001 406.8253,-103 416.8253,-106.5001 416.8254,-99.5001"/>
</g>
<!-- Node14&#45;&gt;Node12 -->
<g id="edge10" class="edge">
<title>Node14&#45;&gt;Node12</title>
<path fill="none" stroke="#191970" d="M602.6161,-93.1277C617.9646,-90.6279 634.2148,-87.9813 648.7586,-85.6126"/>
<polygon fill="#191970" stroke="#191970" points="601.9944,-89.6827 592.6871,-94.7448 603.1197,-96.5917 601.9944,-89.6827"/>
</g>
<!-- Node16 -->
<g id="node10" class="node">
<title>Node16</title>
<g id="a_node10"><a xlink:href="classSimulator.html#af1b0a9562ecf0ad8f98d61576efba28b" target="_top" xlink:title="Simulator::simulate\l_multi_2d_r">
<polygon fill="none" stroke="#000000" points="491.5,-39 491.5,-69 592.5,-69 592.5,-39 491.5,-39"/>
<text text-anchor="start" x="499.5" y="-57" font-family="Helvetica,sans-Serif" font-size="10.00" fill="#000000">Simulator::simulate</text>
<text text-anchor="middle" x="542" y="-46" font-family="Helvetica,sans-Serif" font-size="10.00" fill="#000000">_multi_2d_r</text>
</a>
</g>
</g>
<!-- Node15&#45;&gt;Node16 -->
<g id="edge12" class="edge">
<title>Node15&#45;&gt;Node16</title>
<path fill="none" stroke="#191970" d="M416.9114,-54C440.9637,-54 468.2797,-54 491.2361,-54"/>
<polygon fill="#191970" stroke="#191970" points="416.8254,-50.5001 406.8253,-54 416.8253,-57.5001 416.8254,-50.5001"/>
</g>
<!-- Node16&#45;&gt;Node12 -->
<g id="edge13" class="edge">
<title>Node16&#45;&gt;Node12</title>
<path fill="none" stroke="#191970" d="M602.6161,-63.4774C617.9646,-65.8772 634.2148,-68.4179 648.7586,-70.6919"/>
<polygon fill="#191970" stroke="#191970" points="603.1077,-60.0119 592.6871,-61.925 602.0263,-66.9278 603.1077,-60.0119"/>
</g>
<!-- Node17&#45;&gt;Node12 -->
<g id="edge15" class="edge">
<title>Node17&#45;&gt;Node12</title>
<path fill="none" stroke="#191970" d="M420.7698,-6.6811C473.6824,-5.8739 549.7852,-9.1073 613,-29 640.3317,-37.6009 668.1783,-56.7637 683.5099,-68.4133"/>
<polygon fill="#191970" stroke="#191970" points="420.4328,-3.1872 410.5071,-6.8927 420.5772,-10.1858 420.4328,-3.1872"/>
</g>
</g>
</svg>
