<?xml version="1.0" encoding="UTF-8" standalone="no"?>
<!DOCTYPE svg PUBLIC "-//W3C//DTD SVG 1.1//EN"
 "http://www.w3.org/Graphics/SVG/1.1/DTD/svg11.dtd">
<!-- Generated by graphviz version 2.40.1 (20161225.0304)
 -->
<!-- Title: Population::update Pages: 1 -->
<svg width="607pt" height="214pt"
 viewBox="0.00 0.00 607.00 214.00" xmlns="http://www.w3.org/2000/svg" xmlns:xlink="http://www.w3.org/1999/xlink">
<g id="graph0" class="graph" transform="scale(1 1) rotate(0) translate(4 210)">
<title>Population::update</title>
<!-- Node172 -->
<g id="node1" class="node">
<title>Node172</title>
<polygon fill="#bfbfbf" stroke="#000000" points="0,-93.5 0,-112.5 98,-112.5 98,-93.5 0,-93.5"/>
<text text-anchor="middle" x="49" y="-100.5" font-family="Helvetica,sans-Serif" font-size="10.00" fill="#000000">Population::update</text>
</g>
<!-- Node173 -->
<g id="node2" class="node">
<title>Node173</title>
<g id="a_node2"><a xlink:href="fish__glue_8cpp.html#ab96ae82277aa9004dc603b77512c7265" target="_top" xlink:title="RCPP_MODULE">
<polygon fill="none" stroke="#000000" points="352.5,-186.5 352.5,-205.5 445.5,-205.5 445.5,-186.5 352.5,-186.5"/>
<text text-anchor="middle" x="399" y="-193.5" font-family="Helvetica,sans-Serif" font-size="10.00" fill="#000000">RCPP_MODULE</text>
</a>
</g>
</g>
<!-- Node172&#45;&gt;Node173 -->
<g id="edge1" class="edge">
<title>Node172&#45;&gt;Node173</title>
<path fill="none" stroke="#191970" d="M64.5463,-120.2231C80.3013,-136.4093 106.2516,-159.7751 134,-171 205.9693,-200.1134 297.6049,-201.7821 352.1001,-199.4891"/>
<polygon fill="#191970" stroke="#191970" points="66.6873,-117.3918 57.2813,-112.5156 61.5935,-122.1932 66.6873,-117.3918"/>
</g>
<!-- Node174 -->
<g id="node3" class="node">
<title>Node174</title>
<g id="a_node3"><a xlink:href="classPopulation.html#aa7eba257f23cbc12aa3673ce012fb2cb" target="_top" xlink:title="Population::noFishingEquilibriate">
<polygon fill="none" stroke="#000000" points="134,-142.5 134,-161.5 292,-161.5 292,-142.5 134,-142.5"/>
<text text-anchor="middle" x="213" y="-149.5" font-family="Helvetica,sans-Serif" font-size="10.00" fill="#000000">Population::noFishingEquilibriate</text>
</a>
</g>
</g>
<!-- Node172&#45;&gt;Node174 -->
<g id="edge2" class="edge">
<title>Node172&#45;&gt;Node174</title>
<path fill="none" stroke="#191970" d="M90.9377,-115.5302C118.998,-123.914 155.3562,-134.7772 181.0706,-142.4601"/>
<polygon fill="#191970" stroke="#191970" points="91.5936,-112.0733 81.0102,-112.564 89.5897,-118.7804 91.5936,-112.0733"/>
</g>
<!-- Node177 -->
<g id="node6" class="node">
<title>Node177</title>
<g id="a_node6"><a xlink:href="classSimulator.html#a7540919b97662be7deacba9194c0ed60" target="_top" xlink:title="Simulator::simulate\l_multi">
<polygon fill="none" stroke="#000000" points="162.5,-88 162.5,-118 263.5,-118 263.5,-88 162.5,-88"/>
<text text-anchor="start" x="170.5" y="-106" font-family="Helvetica,sans-Serif" font-size="10.00" fill="#000000">Simulator::simulate</text>
<text text-anchor="middle" x="213" y="-95" font-family="Helvetica,sans-Serif" font-size="10.00" fill="#000000">_multi</text>
</a>
</g>
</g>
<!-- Node172&#45;&gt;Node177 -->
<g id="edge6" class="edge">
<title>Node172&#45;&gt;Node177</title>
<path fill="none" stroke="#191970" d="M108.4207,-103C126.1162,-103 145.3331,-103 162.4092,-103"/>
<polygon fill="#191970" stroke="#191970" points="108.2054,-99.5001 98.2054,-103 108.2054,-106.5001 108.2054,-99.5001"/>
</g>
<!-- Node179 -->
<g id="node8" class="node">
<title>Node179</title>
<g id="a_node8"><a xlink:href="classSimulator.html#ab21d1c6b0af00931f9a8fa5e0b6d417f" target="_top" xlink:title="Simulator::simulate\l_multi_2d">
<polygon fill="none" stroke="#000000" points="162.5,-39 162.5,-69 263.5,-69 263.5,-39 162.5,-39"/>
<text text-anchor="start" x="170.5" y="-57" font-family="Helvetica,sans-Serif" font-size="10.00" fill="#000000">Simulator::simulate</text>
<text text-anchor="middle" x="213" y="-46" font-family="Helvetica,sans-Serif" font-size="10.00" fill="#000000">_multi_2d</text>
</a>
</g>
</g>
<!-- Node172&#45;&gt;Node179 -->
<g id="edge9" class="edge">
<title>Node172&#45;&gt;Node179</title>
<path fill="none" stroke="#191970" d="M90.683,-90.5459C112.5892,-84.0008 139.6061,-75.9287 162.6722,-69.037"/>
<polygon fill="#191970" stroke="#191970" points="89.5897,-87.2196 81.0102,-93.436 91.5936,-93.9267 89.5897,-87.2196"/>
</g>
<!-- Node181 -->
<g id="node10" class="node">
<title>Node181</title>
<g id="a_node10"><a xlink:href="classSimulator.html#aa6e6cfd73fd8d3200e7f515b473e88f2" target="_top" xlink:title="Simulator::simulate_r">
<polygon fill="none" stroke="#000000" points="158.5,-.5 158.5,-19.5 267.5,-19.5 267.5,-.5 158.5,-.5"/>
<text text-anchor="middle" x="213" y="-7.5" font-family="Helvetica,sans-Serif" font-size="10.00" fill="#000000">Simulator::simulate_r</text>
</a>
</g>
</g>
<!-- Node172&#45;&gt;Node181 -->
<g id="edge12" class="edge">
<title>Node172&#45;&gt;Node181</title>
<path fill="none" stroke="#191970" d="M63.9495,-85.863C79.6992,-68.8913 106.0551,-43.4128 134,-29 141.5223,-25.1203 149.8581,-22.0156 158.2128,-19.5356"/>
<polygon fill="#191970" stroke="#191970" points="61.2217,-83.6612 57.1093,-93.4254 66.4131,-88.3569 61.2217,-83.6612"/>
</g>
<!-- Node174&#45;&gt;Node173 -->
<g id="edge3" class="edge">
<title>Node174&#45;&gt;Node173</title>
<path fill="none" stroke="#191970" d="M263.205,-163.8764C293.1669,-170.9642 330.7075,-179.8448 358.7195,-186.4713"/>
<polygon fill="#191970" stroke="#191970" points="263.8964,-160.4435 253.3592,-161.5473 262.2849,-167.2555 263.8964,-160.4435"/>
</g>
<!-- Node175 -->
<g id="node4" class="node">
<title>Node175</title>
<g id="a_node4"><a xlink:href="classSimulator.html#a3dfce52c0bb26ec7ff2632b1eca50240" target="_top" xlink:title="Simulator::equilibriateNatural\lPopulation">
<polygon fill="none" stroke="#000000" points="328,-137 328,-167 470,-167 470,-137 328,-137"/>
<text text-anchor="start" x="336" y="-155" font-family="Helvetica,sans-Serif" font-size="10.00" fill="#000000">Simulator::equilibriateNatural</text>
<text text-anchor="middle" x="399" y="-144" font-family="Helvetica,sans-Serif" font-size="10.00" fill="#000000">Population</text>
</a>
</g>
</g>
<!-- Node174&#45;&gt;Node175 -->
<g id="edge4" class="edge">
<title>Node174&#45;&gt;Node175</title>
<path fill="none" stroke="#191970" d="M302.2169,-152C310.8241,-152 319.4746,-152 327.8728,-152"/>
<polygon fill="#191970" stroke="#191970" points="302.1505,-148.5001 292.1504,-152 302.1504,-155.5001 302.1505,-148.5001"/>
</g>
<!-- Node176 -->
<g id="node5" class="node">
<title>Node176</title>
<g id="a_node5"><a xlink:href="fish__glue_8cpp.html#addebb0997b0e49067d8784c9954b7b96" target="_top" xlink:title="RCPP_MODULE">
<polygon fill="none" stroke="#000000" points="506,-68.5 506,-87.5 599,-87.5 599,-68.5 506,-68.5"/>
<text text-anchor="middle" x="552.5" y="-75.5" font-family="Helvetica,sans-Serif" font-size="10.00" fill="#000000">RCPP_MODULE</text>
</a>
</g>
</g>
<!-- Node175&#45;&gt;Node176 -->
<g id="edge5" class="edge">
<title>Node175&#45;&gt;Node176</title>
<path fill="none" stroke="#191970" d="M457.485,-133.3837C461.7638,-131.6712 465.9759,-129.872 470,-128 495.3596,-116.2029 522.7409,-98.5197 538.7144,-87.6502"/>
<polygon fill="#191970" stroke="#191970" points="456.1487,-130.1475 448.059,-136.9892 458.6495,-136.6856 456.1487,-130.1475"/>
</g>
<!-- Node178 -->
<g id="node7" class="node">
<title>Node178</title>
<g id="a_node7"><a xlink:href="classSimulator.html#a1a5454ee4736819d709398b225d7876d" target="_top" xlink:title="Simulator::simulate\l_multi_r">
<polygon fill="none" stroke="#000000" points="348.5,-88 348.5,-118 449.5,-118 449.5,-88 348.5,-88"/>
<text text-anchor="start" x="356.5" y="-106" font-family="Helvetica,sans-Serif" font-size="10.00" fill="#000000">Simulator::simulate</text>
<text text-anchor="middle" x="399" y="-95" font-family="Helvetica,sans-Serif" font-size="10.00" fill="#000000">_multi_r</text>
</a>
</g>
</g>
<!-- Node177&#45;&gt;Node178 -->
<g id="edge7" class="edge">
<title>Node177&#45;&gt;Node178</title>
<path fill="none" stroke="#191970" d="M273.9114,-103C297.9637,-103 325.2797,-103 348.2361,-103"/>
<polygon fill="#191970" stroke="#191970" points="273.8254,-99.5001 263.8253,-103 273.8253,-106.5001 273.8254,-99.5001"/>
</g>
<!-- Node178&#45;&gt;Node176 -->
<g id="edge8" class="edge">
<title>Node178&#45;&gt;Node176</title>
<path fill="none" stroke="#191970" d="M459.6161,-93.1277C474.9646,-90.6279 491.2148,-87.9813 505.7586,-85.6126"/>
<polygon fill="#191970" stroke="#191970" points="458.9944,-89.6827 449.6871,-94.7448 460.1197,-96.5917 458.9944,-89.6827"/>
</g>
<!-- Node180 -->
<g id="node9" class="node">
<title>Node180</title>
<g id="a_node9"><a xlink:href="classSimulator.html#af1b0a9562ecf0ad8f98d61576efba28b" target="_top" xlink:title="Simulator::simulate\l_multi_2d_r">
<polygon fill="none" stroke="#000000" points="348.5,-39 348.5,-69 449.5,-69 449.5,-39 348.5,-39"/>
<text text-anchor="start" x="356.5" y="-57" font-family="Helvetica,sans-Serif" font-size="10.00" fill="#000000">Simulator::simulate</text>
<text text-anchor="middle" x="399" y="-46" font-family="Helvetica,sans-Serif" font-size="10.00" fill="#000000">_multi_2d_r</text>
</a>
</g>
</g>
<!-- Node179&#45;&gt;Node180 -->
<g id="edge10" class="edge">
<title>Node179&#45;&gt;Node180</title>
<path fill="none" stroke="#191970" d="M273.9114,-54C297.9637,-54 325.2797,-54 348.2361,-54"/>
<polygon fill="#191970" stroke="#191970" points="273.8254,-50.5001 263.8253,-54 273.8253,-57.5001 273.8254,-50.5001"/>
</g>
<!-- Node180&#45;&gt;Node176 -->
<g id="edge11" class="edge">
<title>Node180&#45;&gt;Node176</title>
<path fill="none" stroke="#191970" d="M459.6161,-63.4774C474.9646,-65.8772 491.2148,-68.4179 505.7586,-70.6919"/>
<polygon fill="#191970" stroke="#191970" points="460.1077,-60.0119 449.6871,-61.925 459.0263,-66.9278 460.1077,-60.0119"/>
</g>
<!-- Node181&#45;&gt;Node176 -->
<g id="edge13" class="edge">
<title>Node181&#45;&gt;Node176</title>
<path fill="none" stroke="#191970" d="M277.7698,-6.6811C330.6824,-5.8739 406.7852,-9.1073 470,-29 497.3317,-37.6009 525.1783,-56.7637 540.5099,-68.4133"/>
<polygon fill="#191970" stroke="#191970" points="277.4328,-3.1872 267.5071,-6.8927 277.5772,-10.1858 277.4328,-3.1872"/>
</g>
</g>
</svg>
