<?xml version="1.0" encoding="UTF-8" standalone="no"?>
<!DOCTYPE svg PUBLIC "-//W3C//DTD SVG 1.1//EN"
 "http://www.w3.org/Graphics/SVG/1.1/DTD/svg11.dtd">
<!-- Generated by graphviz version 2.40.1 (20161225.0304)
 -->
<!-- Title: Simulator::simulate_multi_r Pages: 1 -->
<svg width="765pt" height="370pt"
 viewBox="0.00 0.00 765.00 370.00" xmlns="http://www.w3.org/2000/svg" xmlns:xlink="http://www.w3.org/1999/xlink">
<g id="graph0" class="graph" transform="scale(1 1) rotate(0) translate(4 366)">
<title>Simulator::simulate_multi_r</title>
<!-- Node106 -->
<g id="node1" class="node">
<title>Node106</title>
<polygon fill="#bfbfbf" stroke="#000000" points="0,-163 0,-193 101,-193 101,-163 0,-163"/>
<text text-anchor="start" x="8" y="-181" font-family="Helvetica,sans-Serif" font-size="10.00" fill="#000000">Simulator::simulate</text>
<text text-anchor="middle" x="50.5" y="-170" font-family="Helvetica,sans-Serif" font-size="10.00" fill="#000000">_multi_r</text>
</g>
<!-- Node107 -->
<g id="node2" class="node">
<title>Node107</title>
<g id="a_node2"><a xlink:href="classSimulator.html#a7540919b97662be7deacba9194c0ed60" target="_top" xlink:title="Simulator::simulate\l_multi">
<polygon fill="none" stroke="#000000" points="137,-185 137,-215 238,-215 238,-185 137,-185"/>
<text text-anchor="start" x="145" y="-203" font-family="Helvetica,sans-Serif" font-size="10.00" fill="#000000">Simulator::simulate</text>
<text text-anchor="middle" x="187.5" y="-192" font-family="Helvetica,sans-Serif" font-size="10.00" fill="#000000">_multi</text>
</a>
</g>
</g>
<!-- Node106&#45;&gt;Node107 -->
<g id="edge1" class="edge">
<title>Node106&#45;&gt;Node107</title>
<path fill="none" stroke="#191970" d="M101.1245,-186.1295C109.4519,-187.4667 118.1582,-188.8648 126.7026,-190.2369"/>
<polygon fill="#191970" stroke="#191970" points="126.1977,-193.7006 136.6262,-191.8305 127.3077,-186.7891 126.1977,-193.7006"/>
</g>
<!-- Node124 -->
<g id="node19" class="node">
<title>Node124</title>
<g id="a_node19"><a xlink:href="simulator_8cpp.html#a2a2aec343c151304395503fd8b1d6a78" target="_top" xlink:title="tensor2array">
<polygon fill="none" stroke="#000000" points="152,-146.5 152,-165.5 223,-165.5 223,-146.5 152,-146.5"/>
<text text-anchor="middle" x="187.5" y="-153.5" font-family="Helvetica,sans-Serif" font-size="10.00" fill="#000000">tensor2array</text>
</a>
</g>
</g>
<!-- Node106&#45;&gt;Node124 -->
<g id="edge22" class="edge">
<title>Node106&#45;&gt;Node124</title>
<path fill="none" stroke="#191970" d="M101.1245,-169.8705C114.3563,-167.7457 128.545,-165.4672 141.5205,-163.3836"/>
<polygon fill="#191970" stroke="#191970" points="142.3066,-166.8023 151.6251,-161.7609 141.1967,-159.8908 142.3066,-166.8023"/>
</g>
<!-- Node108 -->
<g id="node3" class="node">
<title>Node108</title>
<g id="a_node3"><a xlink:href="classPopulation.html#a20696fa511c914e7c8837acb2a254b33" target="_top" xlink:title="Population::set_harvestProp">
<polygon fill="none" stroke="#000000" points="278.5,-266.5 278.5,-285.5 418.5,-285.5 418.5,-266.5 278.5,-266.5"/>
<text text-anchor="middle" x="348.5" y="-273.5" font-family="Helvetica,sans-Serif" font-size="10.00" fill="#000000">Population::set_harvestProp</text>
</a>
</g>
</g>
<!-- Node107&#45;&gt;Node108 -->
<g id="edge2" class="edge">
<title>Node107&#45;&gt;Node108</title>
<path fill="none" stroke="#191970" d="M206.3489,-215.1066C223.1902,-227.926 248.9967,-245.9486 274,-257 279.4748,-259.4199 285.3176,-261.5749 291.2314,-263.4838"/>
<polygon fill="#191970" stroke="#191970" points="290.615,-266.9526 301.1987,-266.467 292.6221,-260.2465 290.615,-266.9526"/>
</g>
<!-- Node109 -->
<g id="node4" class="node">
<title>Node109</title>
<g id="a_node4"><a xlink:href="classPopulation.html#a42c4b04852bdda937e50f82952106af1" target="_top" xlink:title="Population::fishableBiomass">
<polygon fill="none" stroke="#000000" points="459,-.5 459,-19.5 599,-19.5 599,-.5 459,-.5"/>
<text text-anchor="middle" x="529" y="-7.5" font-family="Helvetica,sans-Serif" font-size="10.00" fill="#000000">Population::fishableBiomass</text>
</a>
</g>
</g>
<!-- Node107&#45;&gt;Node109 -->
<g id="edge3" class="edge">
<title>Node107&#45;&gt;Node109</title>
<path fill="none" stroke="#191970" d="M221.0812,-184.9526C226.8766,-181.9157 232.7274,-178.5545 238,-175 255.7504,-163.0337 256.8223,-155.7749 274,-143 351.4977,-85.3658 370.373,-67.3779 459,-29 464.4781,-26.6278 470.3277,-24.4827 476.2235,-22.5618"/>
<polygon fill="#191970" stroke="#191970" points="477.5874,-25.8051 486.1316,-19.5404 475.5455,-19.1095 477.5874,-25.8051"/>
</g>
<!-- Node111 -->
<g id="node6" class="node">
<title>Node111</title>
<g id="a_node6"><a xlink:href="classPopulation.html#ae8a6455aa45e65bf8bd41312f9caa328" target="_top" xlink:title="Population::set_superFishSize">
<polygon fill="none" stroke="#000000" points="274,-190.5 274,-209.5 423,-209.5 423,-190.5 274,-190.5"/>
<text text-anchor="middle" x="348.5" y="-197.5" font-family="Helvetica,sans-Serif" font-size="10.00" fill="#000000">Population::set_superFishSize</text>
</a>
</g>
</g>
<!-- Node107&#45;&gt;Node111 -->
<g id="edge5" class="edge">
<title>Node107&#45;&gt;Node111</title>
<path fill="none" stroke="#191970" d="M238.4414,-200C246.5196,-200 255.059,-200 263.6646,-200"/>
<polygon fill="#191970" stroke="#191970" points="263.7737,-203.5001 273.7737,-200 263.7736,-196.5001 263.7737,-203.5001"/>
</g>
<!-- Node112 -->
<g id="node7" class="node">
<title>Node112</title>
<g id="a_node7"><a xlink:href="classPopulation.html#a012ef586a78b4e7c2082634b316072d0" target="_top" xlink:title="Population::init">
<polygon fill="none" stroke="#000000" points="308,-228.5 308,-247.5 389,-247.5 389,-228.5 308,-228.5"/>
<text text-anchor="middle" x="348.5" y="-235.5" font-family="Helvetica,sans-Serif" font-size="10.00" fill="#000000">Population::init</text>
</a>
</g>
</g>
<!-- Node107&#45;&gt;Node112 -->
<g id="edge6" class="edge">
<title>Node107&#45;&gt;Node112</title>
<path fill="none" stroke="#191970" d="M238.4414,-212.0234C257.4954,-216.5207 279.1152,-221.6235 298.1184,-226.1087"/>
<polygon fill="#191970" stroke="#191970" points="297.5441,-229.5692 308.0807,-228.46 299.1522,-222.7564 297.5441,-229.5692"/>
</g>
<!-- Node116 -->
<g id="node11" class="node">
<title>Node116</title>
<g id="a_node11"><a xlink:href="classPopulation.html#a81c19d1c80cfb1d54d3872ecdefd0872" target="_top" xlink:title="Population::update">
<polygon fill="none" stroke="#000000" points="299.5,-152.5 299.5,-171.5 397.5,-171.5 397.5,-152.5 299.5,-152.5"/>
<text text-anchor="middle" x="348.5" y="-159.5" font-family="Helvetica,sans-Serif" font-size="10.00" fill="#000000">Population::update</text>
</a>
</g>
</g>
<!-- Node107&#45;&gt;Node116 -->
<g id="edge10" class="edge">
<title>Node107&#45;&gt;Node116</title>
<path fill="none" stroke="#191970" d="M238.4414,-187.9766C257.4954,-183.4793 279.1152,-178.3765 298.1184,-173.8913"/>
<polygon fill="#191970" stroke="#191970" points="299.1522,-177.2436 308.0807,-171.54 297.5441,-170.4308 299.1522,-177.2436"/>
</g>
<!-- Node110 -->
<g id="node5" class="node">
<title>Node110</title>
<g id="a_node5"><a xlink:href="classPopulation.html#ac8ed845bbda25c937a2fd76b3788e987" target="_top" xlink:title="Population::selectivity">
<polygon fill="none" stroke="#000000" points="639.5,-190.5 639.5,-209.5 752.5,-209.5 752.5,-190.5 639.5,-190.5"/>
<text text-anchor="middle" x="696" y="-197.5" font-family="Helvetica,sans-Serif" font-size="10.00" fill="#000000">Population::selectivity</text>
</a>
</g>
</g>
<!-- Node109&#45;&gt;Node110 -->
<g id="edge4" class="edge">
<title>Node109&#45;&gt;Node110</title>
<path fill="none" stroke="#191970" d="M582.3694,-19.6105C588.3242,-22.0631 594.0257,-25.14 599,-29 650.5622,-69.0114 679.2152,-144.6562 690.4148,-180.3782"/>
<polygon fill="#191970" stroke="#191970" points="687.106,-181.5295 693.3362,-190.099 693.8098,-179.5147 687.106,-181.5295"/>
</g>
<!-- Node113 -->
<g id="node8" class="node">
<title>Node113</title>
<g id="a_node8"><a xlink:href="classFish.html#adf85bf269f1651352506e371ffd2cecc" target="_top" xlink:title="Initializes the fish, i.e., initializes parameters and sets the initial state (age = 1...">
<polygon fill="none" stroke="#000000" points="502,-304.5 502,-323.5 556,-323.5 556,-304.5 502,-304.5"/>
<text text-anchor="middle" x="529" y="-311.5" font-family="Helvetica,sans-Serif" font-size="10.00" fill="#000000">Fish::init</text>
</a>
</g>
</g>
<!-- Node112&#45;&gt;Node113 -->
<g id="edge7" class="edge">
<title>Node112&#45;&gt;Node113</title>
<path fill="none" stroke="#191970" d="M389.1701,-244.0264C400.631,-246.8539 412.7565,-250.9835 423,-257 443.0602,-268.7823 439.0307,-283.0642 459,-295 468.9307,-300.9356 480.7494,-305.058 491.8218,-307.9041"/>
<polygon fill="#191970" stroke="#191970" points="491.1752,-311.3467 501.705,-310.1745 492.7425,-304.5244 491.1752,-311.3467"/>
</g>
<!-- Node114 -->
<g id="node9" class="node">
<title>Node114</title>
<g id="a_node9"><a xlink:href="namespacefish.html#a0ab1c4842d702a0a40bd04f26793ce12" target="_top" xlink:title="Compute the nonlinear growth increment , as follows . ">
<polygon fill="none" stroke="#000000" points="657.5,-342.5 657.5,-361.5 734.5,-361.5 734.5,-342.5 657.5,-342.5"/>
<text text-anchor="middle" x="696" y="-349.5" font-family="Helvetica,sans-Serif" font-size="10.00" fill="#000000">fish::dl_power</text>
</a>
</g>
</g>
<!-- Node113&#45;&gt;Node114 -->
<g id="edge8" class="edge">
<title>Node113&#45;&gt;Node114</title>
<path fill="none" stroke="#191970" d="M556.2031,-320.1899C580.8653,-325.8017 617.7919,-334.2042 647.5008,-340.9643"/>
<polygon fill="#191970" stroke="#191970" points="646.7439,-344.3814 657.2712,-343.1875 648.297,-337.5559 646.7439,-344.3814"/>
</g>
<!-- Node115 -->
<g id="node10" class="node">
<title>Node115</title>
<g id="a_node10"><a xlink:href="namespacefish.html#a1d06e0358aca1be4446ed148b7ce3d84" target="_top" xlink:title="Compute the new length after growth assuming no allocation to reproduction . ">
<polygon fill="none" stroke="#000000" points="644.5,-304.5 644.5,-323.5 747.5,-323.5 747.5,-304.5 644.5,-304.5"/>
<text text-anchor="middle" x="696" y="-311.5" font-family="Helvetica,sans-Serif" font-size="10.00" fill="#000000">fish::length_juvenile</text>
</a>
</g>
</g>
<!-- Node113&#45;&gt;Node115 -->
<g id="edge9" class="edge">
<title>Node113&#45;&gt;Node115</title>
<path fill="none" stroke="#191970" d="M556.2031,-314C577.2655,-314 607.2731,-314 634.0905,-314"/>
<polygon fill="#191970" stroke="#191970" points="634.1871,-317.5001 644.1871,-314 634.187,-310.5001 634.1871,-317.5001"/>
</g>
<!-- Node116&#45;&gt;Node109 -->
<g id="edge15" class="edge">
<title>Node116&#45;&gt;Node109</title>
<path fill="none" stroke="#191970" d="M358.132,-152.4158C372.7894,-137.6399 401.2817,-108.1567 423,-81 440.5562,-59.0477 436.0436,-45.2212 459,-29 461.7253,-27.0743 464.6365,-25.3437 467.6658,-23.7884"/>
<polygon fill="#191970" stroke="#191970" points="469.3195,-26.8837 477.0407,-19.6287 466.4805,-20.4853 469.3195,-26.8837"/>
</g>
<!-- Node116&#45;&gt;Node110 -->
<g id="edge20" class="edge">
<title>Node116&#45;&gt;Node110</title>
<path fill="none" stroke="#191970" d="M397.5893,-171.4193C416.6996,-174.829 438.8176,-178.4611 459,-181 516.2331,-188.1997 581.6043,-193.2008 629.1739,-196.2582"/>
<polygon fill="#191970" stroke="#191970" points="629.1469,-199.7634 639.3474,-196.8999 629.5876,-192.7773 629.1469,-199.7634"/>
</g>
<!-- Node116&#45;&gt;Node113 -->
<g id="edge14" class="edge">
<title>Node116&#45;&gt;Node113</title>
<path fill="none" stroke="#191970" d="M397.812,-167.1045C407.0676,-170.0064 416.0161,-174.3978 423,-181 461.6109,-217.5009 420.6701,-258.2042 459,-295 467.7826,-303.431 479.9152,-308.2039 491.615,-310.8791"/>
<polygon fill="#191970" stroke="#191970" points="491.2223,-314.3655 501.6901,-312.7293 492.4867,-307.4806 491.2223,-314.3655"/>
</g>
<!-- Node117 -->
<g id="node12" class="node">
<title>Node117</title>
<g id="a_node12"><a xlink:href="classPopulation.html#ae942ef70cc9f4dfc40b5d843baf40b1e" target="_top" xlink:title="Population::calcTSB">
<polygon fill="none" stroke="#000000" points="476,-114.5 476,-133.5 582,-133.5 582,-114.5 476,-114.5"/>
<text text-anchor="middle" x="529" y="-121.5" font-family="Helvetica,sans-Serif" font-size="10.00" fill="#000000">Population::calcTSB</text>
</a>
</g>
</g>
<!-- Node116&#45;&gt;Node117 -->
<g id="edge11" class="edge">
<title>Node116&#45;&gt;Node117</title>
<path fill="none" stroke="#191970" d="M394.0478,-152.411C418.2959,-147.3061 448.3037,-140.9887 473.8612,-135.6082"/>
<polygon fill="#191970" stroke="#191970" points="474.7153,-139.0052 483.7798,-133.5201 473.2732,-132.1553 474.7153,-139.0052"/>
</g>
<!-- Node118 -->
<g id="node13" class="node">
<title>Node118</title>
<g id="a_node13"><a xlink:href="classPopulation.html#af15e7ba23b161c710d4013204b542cb6" target="_top" xlink:title="Population::calcSSB">
<polygon fill="none" stroke="#000000" points="475.5,-76.5 475.5,-95.5 582.5,-95.5 582.5,-76.5 475.5,-76.5"/>
<text text-anchor="middle" x="529" y="-83.5" font-family="Helvetica,sans-Serif" font-size="10.00" fill="#000000">Population::calcSSB</text>
</a>
</g>
</g>
<!-- Node116&#45;&gt;Node118 -->
<g id="edge12" class="edge">
<title>Node116&#45;&gt;Node118</title>
<path fill="none" stroke="#191970" d="M364.4731,-152.3894C385.524,-140.048 423.9909,-118.6045 459,-105 465.23,-102.579 471.8858,-100.3452 478.5229,-98.325"/>
<polygon fill="#191970" stroke="#191970" points="479.5543,-101.6701 488.1821,-95.521 477.6028,-94.9476 479.5543,-101.6701"/>
</g>
<!-- Node119 -->
<g id="node14" class="node">
<title>Node119</title>
<g id="a_node14"><a xlink:href="classFish.html#aaa3e67187a587efc7a99485b4a6ee248" target="_top" xlink:title="Fish::set_traits">
<polygon fill="none" stroke="#000000" points="488,-38.5 488,-57.5 570,-57.5 570,-38.5 488,-38.5"/>
<text text-anchor="middle" x="529" y="-45.5" font-family="Helvetica,sans-Serif" font-size="10.00" fill="#000000">Fish::set_traits</text>
</a>
</g>
</g>
<!-- Node116&#45;&gt;Node119 -->
<g id="edge13" class="edge">
<title>Node116&#45;&gt;Node119</title>
<path fill="none" stroke="#191970" d="M356.908,-152.3256C374.1154,-133.1348 415.4155,-90.1121 459,-67 464.9797,-63.8291 471.5343,-61.1521 478.1587,-58.9014"/>
<polygon fill="#191970" stroke="#191970" points="479.3368,-62.2007 487.8554,-55.9011 477.2676,-55.5135 479.3368,-62.2007"/>
</g>
<!-- Node120 -->
<g id="node15" class="node">
<title>Node120</title>
<g id="a_node15"><a xlink:href="classPopulation.html#ad1840de2f00982c35d48b91a1d27ae13" target="_top" xlink:title="Population::effort">
<polygon fill="none" stroke="#000000" points="483.5,-228.5 483.5,-247.5 574.5,-247.5 574.5,-228.5 483.5,-228.5"/>
<text text-anchor="middle" x="529" y="-235.5" font-family="Helvetica,sans-Serif" font-size="10.00" fill="#000000">Population::effort</text>
</a>
</g>
</g>
<!-- Node116&#45;&gt;Node120 -->
<g id="edge16" class="edge">
<title>Node116&#45;&gt;Node120</title>
<path fill="none" stroke="#191970" d="M397.8928,-170.9363C406.5461,-173.5156 415.2512,-176.8087 423,-181 442.0913,-191.3264 440.3402,-202.9129 459,-214 466.1454,-218.2456 474.1499,-221.8781 482.1229,-224.9362"/>
<polygon fill="#191970" stroke="#191970" points="481.1781,-228.3153 491.7727,-228.3842 483.5335,-221.7235 481.1781,-228.3153"/>
</g>
<!-- Node121 -->
<g id="node16" class="node">
<title>Node121</title>
<g id="a_node16"><a xlink:href="namespacepn.html#ad42003887dcc42a4758c69775f83a8d9" target="_top" xlink:title="pn::zero">
<polygon fill="none" stroke="#000000" points="503,-266.5 503,-285.5 555,-285.5 555,-266.5 503,-266.5"/>
<text text-anchor="middle" x="529" y="-273.5" font-family="Helvetica,sans-Serif" font-size="10.00" fill="#000000">pn::zero</text>
</a>
</g>
</g>
<!-- Node116&#45;&gt;Node121 -->
<g id="edge18" class="edge">
<title>Node116&#45;&gt;Node121</title>
<path fill="none" stroke="#191970" d="M397.527,-167.9858C406.6973,-170.8295 415.6852,-174.9743 423,-181 451.848,-204.7641 430.335,-233.0155 459,-257 468.4865,-264.9375 480.9987,-269.581 492.8182,-272.2898"/>
<polygon fill="#191970" stroke="#191970" points="492.4563,-275.7835 502.9331,-274.2064 493.7595,-268.9058 492.4563,-275.7835"/>
</g>
<!-- Node123 -->
<g id="node18" class="node">
<title>Node123</title>
<g id="a_node18"><a xlink:href="classPopulation.html#ac62fc3480d60b055cd1886649809c6a6" target="_top" xlink:title="Population::nfish">
<polygon fill="none" stroke="#000000" points="484.5,-152.5 484.5,-171.5 573.5,-171.5 573.5,-152.5 484.5,-152.5"/>
<text text-anchor="middle" x="529" y="-159.5" font-family="Helvetica,sans-Serif" font-size="10.00" fill="#000000">Population::nfish</text>
</a>
</g>
</g>
<!-- Node116&#45;&gt;Node123 -->
<g id="edge21" class="edge">
<title>Node116&#45;&gt;Node123</title>
<path fill="none" stroke="#191970" d="M397.8224,-162C421.4776,-162 449.8921,-162 474.2182,-162"/>
<polygon fill="#191970" stroke="#191970" points="474.3676,-165.5001 484.3675,-162 474.3675,-158.5001 474.3676,-165.5001"/>
</g>
<!-- Node120&#45;&gt;Node110 -->
<g id="edge17" class="edge">
<title>Node120&#45;&gt;Node110</title>
<path fill="none" stroke="#191970" d="M571.1412,-228.411C593.3771,-223.3513 620.8482,-217.1004 644.3564,-211.7512"/>
<polygon fill="#191970" stroke="#191970" points="645.1877,-215.1516 654.1619,-209.5201 643.6345,-208.3261 645.1877,-215.1516"/>
</g>
<!-- Node122 -->
<g id="node17" class="node">
<title>Node122</title>
<g id="a_node17"><a xlink:href="structpn_1_1BrentRes.html#a4fa42a440c4b9dc765ea7f0d7fd3a412" target="_top" xlink:title="pn::BrentRes::BrentRes">
<polygon fill="none" stroke="#000000" points="635,-266.5 635,-285.5 757,-285.5 757,-266.5 635,-266.5"/>
<text text-anchor="middle" x="696" y="-273.5" font-family="Helvetica,sans-Serif" font-size="10.00" fill="#000000">pn::BrentRes::BrentRes</text>
</a>
</g>
</g>
<!-- Node121&#45;&gt;Node122 -->
<g id="edge19" class="edge">
<title>Node121&#45;&gt;Node122</title>
<path fill="none" stroke="#191970" d="M555.0938,-276C573.7993,-276 599.9543,-276 624.6585,-276"/>
<polygon fill="#191970" stroke="#191970" points="624.7637,-279.5001 634.7636,-276 624.7636,-272.5001 624.7637,-279.5001"/>
</g>
</g>
</svg>
