<?xml version="1.0" encoding="UTF-8" standalone="no"?>
<!DOCTYPE svg PUBLIC "-//W3C//DTD SVG 1.1//EN"
 "http://www.w3.org/Graphics/SVG/1.1/DTD/svg11.dtd">
<!-- Generated by graphviz version 2.40.1 (20161225.0304)
 -->
<!-- Title: Population::update Pages: 1 -->
<svg width="440pt" height="332pt"
 viewBox="0.00 0.00 440.00 332.00" xmlns="http://www.w3.org/2000/svg" xmlns:xlink="http://www.w3.org/1999/xlink">
<g id="graph0" class="graph" transform="scale(1 1) rotate(0) translate(4 328)">
<title>Population::update</title>
<!-- Node159 -->
<g id="node1" class="node">
<title>Node159</title>
<polygon fill="#bfbfbf" stroke="#000000" points="0,-152.5 0,-171.5 98,-171.5 98,-152.5 0,-152.5"/>
<text text-anchor="middle" x="49" y="-159.5" font-family="Helvetica,sans-Serif" font-size="10.00" fill="#000000">Population::update</text>
</g>
<!-- Node160 -->
<g id="node2" class="node">
<title>Node160</title>
<g id="a_node2"><a xlink:href="classPopulation.html#ae942ef70cc9f4dfc40b5d843baf40b1e" target="_top" xlink:title="Population::calcTSB">
<polygon fill="none" stroke="#000000" points="151,-304.5 151,-323.5 257,-323.5 257,-304.5 151,-304.5"/>
<text text-anchor="middle" x="204" y="-311.5" font-family="Helvetica,sans-Serif" font-size="10.00" fill="#000000">Population::calcTSB</text>
</a>
</g>
</g>
<!-- Node159&#45;&gt;Node160 -->
<g id="edge1" class="edge">
<title>Node159&#45;&gt;Node160</title>
<path fill="none" stroke="#191970" d="M52.3859,-171.7725C61.4552,-196.4623 88.7269,-261.7416 134,-295 136.6386,-296.9384 139.4633,-298.679 142.409,-300.242"/>
<polygon fill="#191970" stroke="#191970" points="140.9945,-303.4437 151.5444,-304.4186 143.9051,-297.0775 140.9945,-303.4437"/>
</g>
<!-- Node161 -->
<g id="node3" class="node">
<title>Node161</title>
<g id="a_node3"><a xlink:href="classPopulation.html#af15e7ba23b161c710d4013204b542cb6" target="_top" xlink:title="Population::calcSSB">
<polygon fill="none" stroke="#000000" points="150.5,-266.5 150.5,-285.5 257.5,-285.5 257.5,-266.5 150.5,-266.5"/>
<text text-anchor="middle" x="204" y="-273.5" font-family="Helvetica,sans-Serif" font-size="10.00" fill="#000000">Population::calcSSB</text>
</a>
</g>
</g>
<!-- Node159&#45;&gt;Node161 -->
<g id="edge2" class="edge">
<title>Node159&#45;&gt;Node161</title>
<path fill="none" stroke="#191970" d="M54.9231,-171.7504C67.1803,-191.0777 97.2758,-234.3339 134,-257 137.5563,-259.195 141.367,-261.1401 145.3063,-262.8634"/>
<polygon fill="#191970" stroke="#191970" points="144.0833,-266.143 154.6724,-266.4947 146.6138,-259.6164 144.0833,-266.143"/>
</g>
<!-- Node162 -->
<g id="node4" class="node">
<title>Node162</title>
<g id="a_node4"><a xlink:href="classFish.html#aaa3e67187a587efc7a99485b4a6ee248" target="_top" xlink:title="Fish::set_traits">
<polygon fill="none" stroke="#000000" points="163,-228.5 163,-247.5 245,-247.5 245,-228.5 163,-228.5"/>
<text text-anchor="middle" x="204" y="-235.5" font-family="Helvetica,sans-Serif" font-size="10.00" fill="#000000">Fish::set_traits</text>
</a>
</g>
</g>
<!-- Node159&#45;&gt;Node162 -->
<g id="edge3" class="edge">
<title>Node159&#45;&gt;Node162</title>
<path fill="none" stroke="#191970" d="M60.6471,-171.6332C76.3769,-184.1993 105.7095,-206.098 134,-219 140.0813,-221.7734 146.65,-224.2135 153.2427,-226.3394"/>
<polygon fill="#191970" stroke="#191970" points="152.2805,-229.7048 162.8647,-229.2313 154.2953,-223.001 152.2805,-229.7048"/>
</g>
<!-- Node163 -->
<g id="node5" class="node">
<title>Node163</title>
<g id="a_node5"><a xlink:href="classFish.html#adf85bf269f1651352506e371ffd2cecc" target="_top" xlink:title="Initializes the fish, i.e., initializes parameters and sets the initial state (age = 1...">
<polygon fill="none" stroke="#000000" points="177,-190.5 177,-209.5 231,-209.5 231,-190.5 177,-190.5"/>
<text text-anchor="middle" x="204" y="-197.5" font-family="Helvetica,sans-Serif" font-size="10.00" fill="#000000">Fish::init</text>
</a>
</g>
</g>
<!-- Node159&#45;&gt;Node163 -->
<g id="edge4" class="edge">
<title>Node159&#45;&gt;Node163</title>
<path fill="none" stroke="#191970" d="M88.113,-171.589C112.2825,-177.5144 143.1159,-185.0736 166.9014,-190.9048"/>
<polygon fill="#191970" stroke="#191970" points="166.0779,-194.3065 176.6237,-193.2884 167.7447,-187.5079 166.0779,-194.3065"/>
</g>
<!-- Node166 -->
<g id="node8" class="node">
<title>Node166</title>
<g id="a_node8"><a xlink:href="classPopulation.html#a42c4b04852bdda937e50f82952106af1" target="_top" xlink:title="Population::fishableBiomass">
<polygon fill="none" stroke="#000000" points="134,-152.5 134,-171.5 274,-171.5 274,-152.5 134,-152.5"/>
<text text-anchor="middle" x="204" y="-159.5" font-family="Helvetica,sans-Serif" font-size="10.00" fill="#000000">Population::fishableBiomass</text>
</a>
</g>
</g>
<!-- Node159&#45;&gt;Node166 -->
<g id="edge7" class="edge">
<title>Node159&#45;&gt;Node166</title>
<path fill="none" stroke="#191970" d="M98.043,-162C106.2026,-162 114.851,-162 123.549,-162"/>
<polygon fill="#191970" stroke="#191970" points="123.7562,-165.5001 133.7562,-162 123.7561,-158.5001 123.7562,-165.5001"/>
</g>
<!-- Node167 -->
<g id="node9" class="node">
<title>Node167</title>
<g id="a_node9"><a xlink:href="classPopulation.html#ac8ed845bbda25c937a2fd76b3788e987" target="_top" xlink:title="Population::selectivity">
<polygon fill="none" stroke="#000000" points="314.5,-114.5 314.5,-133.5 427.5,-133.5 427.5,-114.5 314.5,-114.5"/>
<text text-anchor="middle" x="371" y="-121.5" font-family="Helvetica,sans-Serif" font-size="10.00" fill="#000000">Population::selectivity</text>
</a>
</g>
</g>
<!-- Node159&#45;&gt;Node167 -->
<g id="edge13" class="edge">
<title>Node159&#45;&gt;Node167</title>
<path fill="none" stroke="#191970" d="M86.446,-152.4427C101.1807,-148.9945 118.301,-145.372 134,-143 191.0368,-134.3823 256.426,-129.5113 304.0524,-126.8645"/>
<polygon fill="#191970" stroke="#191970" points="304.4412,-130.3488 314.239,-126.3172 304.0656,-123.3589 304.4412,-130.3488"/>
</g>
<!-- Node168 -->
<g id="node10" class="node">
<title>Node168</title>
<g id="a_node10"><a xlink:href="classPopulation.html#ad1840de2f00982c35d48b91a1d27ae13" target="_top" xlink:title="Population::effort">
<polygon fill="none" stroke="#000000" points="158.5,-76.5 158.5,-95.5 249.5,-95.5 249.5,-76.5 158.5,-76.5"/>
<text text-anchor="middle" x="204" y="-83.5" font-family="Helvetica,sans-Serif" font-size="10.00" fill="#000000">Population::effort</text>
</a>
</g>
</g>
<!-- Node159&#45;&gt;Node168 -->
<g id="edge9" class="edge">
<title>Node159&#45;&gt;Node168</title>
<path fill="none" stroke="#191970" d="M62.6121,-152.3765C78.975,-141.1198 107.5445,-122.4438 134,-110 142.8008,-105.8604 152.5179,-102.0703 161.8397,-98.7851"/>
<polygon fill="#191970" stroke="#191970" points="163.0141,-102.0826 171.3559,-95.5508 160.7615,-95.455 163.0141,-102.0826"/>
</g>
<!-- Node169 -->
<g id="node11" class="node">
<title>Node169</title>
<g id="a_node11"><a xlink:href="namespacepn.html#ad42003887dcc42a4758c69775f83a8d9" target="_top" xlink:title="pn::zero">
<polygon fill="none" stroke="#000000" points="178,-38.5 178,-57.5 230,-57.5 230,-38.5 178,-38.5"/>
<text text-anchor="middle" x="204" y="-45.5" font-family="Helvetica,sans-Serif" font-size="10.00" fill="#000000">pn::zero</text>
</a>
</g>
</g>
<!-- Node159&#45;&gt;Node169 -->
<g id="edge11" class="edge">
<title>Node159&#45;&gt;Node169</title>
<path fill="none" stroke="#191970" d="M54.9231,-152.2496C67.1803,-132.9223 97.2758,-89.6661 134,-67 144.2771,-60.657 156.6785,-56.3999 168.17,-53.5561"/>
<polygon fill="#191970" stroke="#191970" points="168.9431,-56.9698 177.9582,-51.4039 167.4399,-50.1331 168.9431,-56.9698"/>
</g>
<!-- Node171 -->
<g id="node13" class="node">
<title>Node171</title>
<g id="a_node13"><a xlink:href="classPopulation.html#ac62fc3480d60b055cd1886649809c6a6" target="_top" xlink:title="Population::nfish">
<polygon fill="none" stroke="#000000" points="159.5,-.5 159.5,-19.5 248.5,-19.5 248.5,-.5 159.5,-.5"/>
<text text-anchor="middle" x="204" y="-7.5" font-family="Helvetica,sans-Serif" font-size="10.00" fill="#000000">Population::nfish</text>
</a>
</g>
</g>
<!-- Node159&#45;&gt;Node171 -->
<g id="edge14" class="edge">
<title>Node159&#45;&gt;Node171</title>
<path fill="none" stroke="#191970" d="M52.3859,-152.2275C61.4552,-127.5377 88.7269,-62.2584 134,-29 138.746,-25.5135 144.094,-22.6668 149.6657,-20.3424"/>
<polygon fill="#191970" stroke="#191970" points="150.9707,-23.5924 159.1868,-16.9031 148.5925,-17.0088 150.9707,-23.5924"/>
</g>
<!-- Node164 -->
<g id="node6" class="node">
<title>Node164</title>
<g id="a_node6"><a xlink:href="namespacefish.html#a0ab1c4842d702a0a40bd04f26793ce12" target="_top" xlink:title="Compute the nonlinear growth increment , as follows . ">
<polygon fill="none" stroke="#000000" points="332.5,-209.5 332.5,-228.5 409.5,-228.5 409.5,-209.5 332.5,-209.5"/>
<text text-anchor="middle" x="371" y="-216.5" font-family="Helvetica,sans-Serif" font-size="10.00" fill="#000000">fish::dl_power</text>
</a>
</g>
</g>
<!-- Node163&#45;&gt;Node164 -->
<g id="edge5" class="edge">
<title>Node163&#45;&gt;Node164</title>
<path fill="none" stroke="#191970" d="M231.2031,-203.095C255.7581,-205.8886 292.4711,-210.0656 322.1129,-213.438"/>
<polygon fill="#191970" stroke="#191970" points="321.9396,-216.9408 332.2712,-214.5937 322.731,-209.9856 321.9396,-216.9408"/>
</g>
<!-- Node165 -->
<g id="node7" class="node">
<title>Node165</title>
<g id="a_node7"><a xlink:href="namespacefish.html#a1d06e0358aca1be4446ed148b7ce3d84" target="_top" xlink:title="Compute the new length after growth assuming no allocation to reproduction . ">
<polygon fill="none" stroke="#000000" points="319.5,-171.5 319.5,-190.5 422.5,-190.5 422.5,-171.5 319.5,-171.5"/>
<text text-anchor="middle" x="371" y="-178.5" font-family="Helvetica,sans-Serif" font-size="10.00" fill="#000000">fish::length_juvenile</text>
</a>
</g>
</g>
<!-- Node163&#45;&gt;Node165 -->
<g id="edge6" class="edge">
<title>Node163&#45;&gt;Node165</title>
<path fill="none" stroke="#191970" d="M231.2031,-196.905C252.2655,-194.5087 282.2731,-191.0947 309.0905,-188.0436"/>
<polygon fill="#191970" stroke="#191970" points="309.6468,-191.503 319.1871,-186.8949 308.8555,-184.5478 309.6468,-191.503"/>
</g>
<!-- Node166&#45;&gt;Node167 -->
<g id="edge8" class="edge">
<title>Node166&#45;&gt;Node167</title>
<path fill="none" stroke="#191970" d="M246.1412,-152.411C268.3771,-147.3513 295.8482,-141.1004 319.3564,-135.7512"/>
<polygon fill="#191970" stroke="#191970" points="320.1877,-139.1516 329.1619,-133.5201 318.6345,-132.3261 320.1877,-139.1516"/>
</g>
<!-- Node168&#45;&gt;Node167 -->
<g id="edge10" class="edge">
<title>Node168&#45;&gt;Node167</title>
<path fill="none" stroke="#191970" d="M246.1412,-95.589C268.3771,-100.6487 295.8482,-106.8996 319.3564,-112.2488"/>
<polygon fill="#191970" stroke="#191970" points="318.6345,-115.6739 329.1619,-114.4799 320.1877,-108.8484 318.6345,-115.6739"/>
</g>
<!-- Node170 -->
<g id="node12" class="node">
<title>Node170</title>
<g id="a_node12"><a xlink:href="structpn_1_1BrentRes.html#a4fa42a440c4b9dc765ea7f0d7fd3a412" target="_top" xlink:title="pn::BrentRes::BrentRes">
<polygon fill="none" stroke="#000000" points="310,-38.5 310,-57.5 432,-57.5 432,-38.5 310,-38.5"/>
<text text-anchor="middle" x="371" y="-45.5" font-family="Helvetica,sans-Serif" font-size="10.00" fill="#000000">pn::BrentRes::BrentRes</text>
</a>
</g>
</g>
<!-- Node169&#45;&gt;Node170 -->
<g id="edge12" class="edge">
<title>Node169&#45;&gt;Node170</title>
<path fill="none" stroke="#191970" d="M230.0938,-48C248.7993,-48 274.9543,-48 299.6585,-48"/>
<polygon fill="#191970" stroke="#191970" points="299.7637,-51.5001 309.7636,-48 299.7636,-44.5001 299.7637,-51.5001"/>
</g>
</g>
</svg>
