<?xml version="1.0" encoding="UTF-8" standalone="no"?>
<!DOCTYPE svg PUBLIC "-//W3C//DTD SVG 1.1//EN"
 "http://www.w3.org/Graphics/SVG/1.1/DTD/svg11.dtd">
<!-- Generated by graphviz version 2.40.1 (20161225.0304)
 -->
<!-- Title: Population::effort Pages: 1 -->
<svg width="734pt" height="214pt"
 viewBox="0.00 0.00 734.00 214.00" xmlns="http://www.w3.org/2000/svg" xmlns:xlink="http://www.w3.org/1999/xlink">
<g id="graph0" class="graph" transform="scale(1 1) rotate(0) translate(4 210)">
<title>Population::effort</title>
<!-- Node32 -->
<g id="node1" class="node">
<title>Node32</title>
<polygon fill="#bfbfbf" stroke="#000000" points="0,-93.5 0,-112.5 91,-112.5 91,-93.5 0,-93.5"/>
<text text-anchor="middle" x="45.5" y="-100.5" font-family="Helvetica,sans-Serif" font-size="10.00" fill="#000000">Population::effort</text>
</g>
<!-- Node33 -->
<g id="node2" class="node">
<title>Node33</title>
<g id="a_node2"><a xlink:href="classPopulation.html#a81c19d1c80cfb1d54d3872ecdefd0872" target="_top" xlink:title="Population::update">
<polygon fill="none" stroke="#000000" points="127,-93.5 127,-112.5 225,-112.5 225,-93.5 127,-93.5"/>
<text text-anchor="middle" x="176" y="-100.5" font-family="Helvetica,sans-Serif" font-size="10.00" fill="#000000">Population::update</text>
</a>
</g>
</g>
<!-- Node32&#45;&gt;Node33 -->
<g id="edge1" class="edge">
<title>Node32&#45;&gt;Node33</title>
<path fill="none" stroke="#191970" d="M101.2703,-103C109.6925,-103 118.3301,-103 126.6054,-103"/>
<polygon fill="#191970" stroke="#191970" points="101.1426,-99.5001 91.1426,-103 101.1425,-106.5001 101.1426,-99.5001"/>
</g>
<!-- Node34 -->
<g id="node3" class="node">
<title>Node34</title>
<g id="a_node3"><a xlink:href="fish__glue_8cpp.html#ab96ae82277aa9004dc603b77512c7265" target="_top" xlink:title="RCPP_MODULE">
<polygon fill="none" stroke="#000000" points="479.5,-186.5 479.5,-205.5 572.5,-205.5 572.5,-186.5 479.5,-186.5"/>
<text text-anchor="middle" x="526" y="-193.5" font-family="Helvetica,sans-Serif" font-size="10.00" fill="#000000">RCPP_MODULE</text>
</a>
</g>
</g>
<!-- Node33&#45;&gt;Node34 -->
<g id="edge2" class="edge">
<title>Node33&#45;&gt;Node34</title>
<path fill="none" stroke="#191970" d="M191.5463,-120.2231C207.3013,-136.4093 233.2516,-159.7751 261,-171 332.9693,-200.1134 424.6049,-201.7821 479.1001,-199.4891"/>
<polygon fill="#191970" stroke="#191970" points="193.6873,-117.3918 184.2813,-112.5156 188.5935,-122.1932 193.6873,-117.3918"/>
</g>
<!-- Node35 -->
<g id="node4" class="node">
<title>Node35</title>
<g id="a_node4"><a xlink:href="classPopulation.html#aa7eba257f23cbc12aa3673ce012fb2cb" target="_top" xlink:title="Population::noFishingEquilibriate">
<polygon fill="none" stroke="#000000" points="261,-142.5 261,-161.5 419,-161.5 419,-142.5 261,-142.5"/>
<text text-anchor="middle" x="340" y="-149.5" font-family="Helvetica,sans-Serif" font-size="10.00" fill="#000000">Population::noFishingEquilibriate</text>
</a>
</g>
</g>
<!-- Node33&#45;&gt;Node35 -->
<g id="edge3" class="edge">
<title>Node33&#45;&gt;Node35</title>
<path fill="none" stroke="#191970" d="M217.9377,-115.5302C245.998,-123.914 282.3562,-134.7772 308.0706,-142.4601"/>
<polygon fill="#191970" stroke="#191970" points="218.5936,-112.0733 208.0102,-112.564 216.5897,-118.7804 218.5936,-112.0733"/>
</g>
<!-- Node38 -->
<g id="node7" class="node">
<title>Node38</title>
<g id="a_node7"><a xlink:href="classSimulator.html#a7540919b97662be7deacba9194c0ed60" target="_top" xlink:title="Simulator::simulate\l_multi">
<polygon fill="none" stroke="#000000" points="289.5,-88 289.5,-118 390.5,-118 390.5,-88 289.5,-88"/>
<text text-anchor="start" x="297.5" y="-106" font-family="Helvetica,sans-Serif" font-size="10.00" fill="#000000">Simulator::simulate</text>
<text text-anchor="middle" x="340" y="-95" font-family="Helvetica,sans-Serif" font-size="10.00" fill="#000000">_multi</text>
</a>
</g>
</g>
<!-- Node33&#45;&gt;Node38 -->
<g id="edge7" class="edge">
<title>Node33&#45;&gt;Node38</title>
<path fill="none" stroke="#191970" d="M235.4207,-103C253.1162,-103 272.3331,-103 289.4092,-103"/>
<polygon fill="#191970" stroke="#191970" points="235.2054,-99.5001 225.2054,-103 235.2054,-106.5001 235.2054,-99.5001"/>
</g>
<!-- Node40 -->
<g id="node9" class="node">
<title>Node40</title>
<g id="a_node9"><a xlink:href="classSimulator.html#ab21d1c6b0af00931f9a8fa5e0b6d417f" target="_top" xlink:title="Simulator::simulate\l_multi_2d">
<polygon fill="none" stroke="#000000" points="289.5,-39 289.5,-69 390.5,-69 390.5,-39 289.5,-39"/>
<text text-anchor="start" x="297.5" y="-57" font-family="Helvetica,sans-Serif" font-size="10.00" fill="#000000">Simulator::simulate</text>
<text text-anchor="middle" x="340" y="-46" font-family="Helvetica,sans-Serif" font-size="10.00" fill="#000000">_multi_2d</text>
</a>
</g>
</g>
<!-- Node33&#45;&gt;Node40 -->
<g id="edge10" class="edge">
<title>Node33&#45;&gt;Node40</title>
<path fill="none" stroke="#191970" d="M217.683,-90.5459C239.5892,-84.0008 266.6061,-75.9287 289.6722,-69.037"/>
<polygon fill="#191970" stroke="#191970" points="216.5897,-87.2196 208.0102,-93.436 218.5936,-93.9267 216.5897,-87.2196"/>
</g>
<!-- Node42 -->
<g id="node11" class="node">
<title>Node42</title>
<g id="a_node11"><a xlink:href="classSimulator.html#aa6e6cfd73fd8d3200e7f515b473e88f2" target="_top" xlink:title="Simulator::simulate_r">
<polygon fill="none" stroke="#000000" points="285.5,-.5 285.5,-19.5 394.5,-19.5 394.5,-.5 285.5,-.5"/>
<text text-anchor="middle" x="340" y="-7.5" font-family="Helvetica,sans-Serif" font-size="10.00" fill="#000000">Simulator::simulate_r</text>
</a>
</g>
</g>
<!-- Node33&#45;&gt;Node42 -->
<g id="edge13" class="edge">
<title>Node33&#45;&gt;Node42</title>
<path fill="none" stroke="#191970" d="M190.9495,-85.863C206.6992,-68.8913 233.0551,-43.4128 261,-29 268.5223,-25.1203 276.8581,-22.0156 285.2128,-19.5356"/>
<polygon fill="#191970" stroke="#191970" points="188.2217,-83.6612 184.1093,-93.4254 193.4131,-88.3569 188.2217,-83.6612"/>
</g>
<!-- Node35&#45;&gt;Node34 -->
<g id="edge4" class="edge">
<title>Node35&#45;&gt;Node34</title>
<path fill="none" stroke="#191970" d="M390.205,-163.8764C420.1669,-170.9642 457.7075,-179.8448 485.7195,-186.4713"/>
<polygon fill="#191970" stroke="#191970" points="390.8964,-160.4435 380.3592,-161.5473 389.2849,-167.2555 390.8964,-160.4435"/>
</g>
<!-- Node36 -->
<g id="node5" class="node">
<title>Node36</title>
<g id="a_node5"><a xlink:href="classSimulator.html#a3dfce52c0bb26ec7ff2632b1eca50240" target="_top" xlink:title="Simulator::equilibriateNatural\lPopulation">
<polygon fill="none" stroke="#000000" points="455,-137 455,-167 597,-167 597,-137 455,-137"/>
<text text-anchor="start" x="463" y="-155" font-family="Helvetica,sans-Serif" font-size="10.00" fill="#000000">Simulator::equilibriateNatural</text>
<text text-anchor="middle" x="526" y="-144" font-family="Helvetica,sans-Serif" font-size="10.00" fill="#000000">Population</text>
</a>
</g>
</g>
<!-- Node35&#45;&gt;Node36 -->
<g id="edge5" class="edge">
<title>Node35&#45;&gt;Node36</title>
<path fill="none" stroke="#191970" d="M429.2169,-152C437.8241,-152 446.4746,-152 454.8728,-152"/>
<polygon fill="#191970" stroke="#191970" points="429.1505,-148.5001 419.1504,-152 429.1504,-155.5001 429.1505,-148.5001"/>
</g>
<!-- Node37 -->
<g id="node6" class="node">
<title>Node37</title>
<g id="a_node6"><a xlink:href="fish__glue_8cpp.html#addebb0997b0e49067d8784c9954b7b96" target="_top" xlink:title="RCPP_MODULE">
<polygon fill="none" stroke="#000000" points="633,-68.5 633,-87.5 726,-87.5 726,-68.5 633,-68.5"/>
<text text-anchor="middle" x="679.5" y="-75.5" font-family="Helvetica,sans-Serif" font-size="10.00" fill="#000000">RCPP_MODULE</text>
</a>
</g>
</g>
<!-- Node36&#45;&gt;Node37 -->
<g id="edge6" class="edge">
<title>Node36&#45;&gt;Node37</title>
<path fill="none" stroke="#191970" d="M584.485,-133.3837C588.7638,-131.6712 592.9759,-129.872 597,-128 622.3596,-116.2029 649.7409,-98.5197 665.7144,-87.6502"/>
<polygon fill="#191970" stroke="#191970" points="583.1487,-130.1475 575.059,-136.9892 585.6495,-136.6856 583.1487,-130.1475"/>
</g>
<!-- Node39 -->
<g id="node8" class="node">
<title>Node39</title>
<g id="a_node8"><a xlink:href="classSimulator.html#a1a5454ee4736819d709398b225d7876d" target="_top" xlink:title="Simulator::simulate\l_multi_r">
<polygon fill="none" stroke="#000000" points="475.5,-88 475.5,-118 576.5,-118 576.5,-88 475.5,-88"/>
<text text-anchor="start" x="483.5" y="-106" font-family="Helvetica,sans-Serif" font-size="10.00" fill="#000000">Simulator::simulate</text>
<text text-anchor="middle" x="526" y="-95" font-family="Helvetica,sans-Serif" font-size="10.00" fill="#000000">_multi_r</text>
</a>
</g>
</g>
<!-- Node38&#45;&gt;Node39 -->
<g id="edge8" class="edge">
<title>Node38&#45;&gt;Node39</title>
<path fill="none" stroke="#191970" d="M400.9114,-103C424.9637,-103 452.2797,-103 475.2361,-103"/>
<polygon fill="#191970" stroke="#191970" points="400.8254,-99.5001 390.8253,-103 400.8253,-106.5001 400.8254,-99.5001"/>
</g>
<!-- Node39&#45;&gt;Node37 -->
<g id="edge9" class="edge">
<title>Node39&#45;&gt;Node37</title>
<path fill="none" stroke="#191970" d="M586.6161,-93.1277C601.9646,-90.6279 618.2148,-87.9813 632.7586,-85.6126"/>
<polygon fill="#191970" stroke="#191970" points="585.9944,-89.6827 576.6871,-94.7448 587.1197,-96.5917 585.9944,-89.6827"/>
</g>
<!-- Node41 -->
<g id="node10" class="node">
<title>Node41</title>
<g id="a_node10"><a xlink:href="classSimulator.html#af1b0a9562ecf0ad8f98d61576efba28b" target="_top" xlink:title="Simulator::simulate\l_multi_2d_r">
<polygon fill="none" stroke="#000000" points="475.5,-39 475.5,-69 576.5,-69 576.5,-39 475.5,-39"/>
<text text-anchor="start" x="483.5" y="-57" font-family="Helvetica,sans-Serif" font-size="10.00" fill="#000000">Simulator::simulate</text>
<text text-anchor="middle" x="526" y="-46" font-family="Helvetica,sans-Serif" font-size="10.00" fill="#000000">_multi_2d_r</text>
</a>
</g>
</g>
<!-- Node40&#45;&gt;Node41 -->
<g id="edge11" class="edge">
<title>Node40&#45;&gt;Node41</title>
<path fill="none" stroke="#191970" d="M400.9114,-54C424.9637,-54 452.2797,-54 475.2361,-54"/>
<polygon fill="#191970" stroke="#191970" points="400.8254,-50.5001 390.8253,-54 400.8253,-57.5001 400.8254,-50.5001"/>
</g>
<!-- Node41&#45;&gt;Node37 -->
<g id="edge12" class="edge">
<title>Node41&#45;&gt;Node37</title>
<path fill="none" stroke="#191970" d="M586.6161,-63.4774C601.9646,-65.8772 618.2148,-68.4179 632.7586,-70.6919"/>
<polygon fill="#191970" stroke="#191970" points="587.1077,-60.0119 576.6871,-61.925 586.0263,-66.9278 587.1077,-60.0119"/>
</g>
<!-- Node42&#45;&gt;Node37 -->
<g id="edge14" class="edge">
<title>Node42&#45;&gt;Node37</title>
<path fill="none" stroke="#191970" d="M404.7698,-6.6811C457.6824,-5.8739 533.7852,-9.1073 597,-29 624.3317,-37.6009 652.1783,-56.7637 667.5099,-68.4133"/>
<polygon fill="#191970" stroke="#191970" points="404.4328,-3.1872 394.5071,-6.8927 404.5772,-10.1858 404.4328,-3.1872"/>
</g>
</g>
</svg>
