<?xml version="1.0" encoding="UTF-8" standalone="no"?>
<!DOCTYPE svg PUBLIC "-//W3C//DTD SVG 1.1//EN"
 "http://www.w3.org/Graphics/SVG/1.1/DTD/svg11.dtd">
<!-- Generated by graphviz version 2.40.1 (20161225.0304)
 -->
<!-- Title: Population::init Pages: 1 -->
<svg width="363pt" height="165pt"
 viewBox="0.00 0.00 363.00 164.50" xmlns="http://www.w3.org/2000/svg" xmlns:xlink="http://www.w3.org/1999/xlink">
<g id="graph0" class="graph" transform="scale(1 1) rotate(0) translate(4 160.5)">
<title>Population::init</title>
<!-- Node20 -->
<g id="node1" class="node">
<title>Node20</title>
<polygon fill="#bfbfbf" stroke="#000000" points="0,-77 0,-96 81,-96 81,-77 0,-77"/>
<text text-anchor="middle" x="40.5" y="-84" font-family="Helvetica,sans-Serif" font-size="10.00" fill="#000000">Population::init</text>
</g>
<!-- Node21 -->
<g id="node2" class="node">
<title>Node21</title>
<g id="a_node2"><a xlink:href="fish__glue_8cpp.html#ab96ae82277aa9004dc603b77512c7265" target="_top" xlink:title="RCPP_MODULE">
<polygon fill="none" stroke="#000000" points="125,-137 125,-156 218,-156 218,-137 125,-137"/>
<text text-anchor="middle" x="171.5" y="-144" font-family="Helvetica,sans-Serif" font-size="10.00" fill="#000000">RCPP_MODULE</text>
</a>
</g>
</g>
<!-- Node20&#45;&gt;Node21 -->
<g id="edge1" class="edge">
<title>Node20&#45;&gt;Node21</title>
<path fill="none" stroke="#191970" d="M65.5155,-101.1906C80.224,-109.501 99.344,-119.7479 117,-127.5 124.7987,-130.9241 133.4269,-134.169 141.474,-136.9763"/>
<polygon fill="#191970" stroke="#191970" points="66.9639,-97.9868 56.5467,-96.0548 63.4854,-104.0614 66.9639,-97.9868"/>
</g>
<!-- Node22 -->
<g id="node3" class="node">
<title>Node22</title>
<g id="a_node3"><a xlink:href="classSimulator.html#a16eef6e60e97dabc2a1205b58b10182c" target="_top" xlink:title="Simulator::simulate_r">
<polygon fill="none" stroke="#000000" points="117,-99 117,-118 226,-118 226,-99 117,-99"/>
<text text-anchor="middle" x="171.5" y="-106" font-family="Helvetica,sans-Serif" font-size="10.00" fill="#000000">Simulator::simulate_r</text>
</a>
</g>
</g>
<!-- Node20&#45;&gt;Node22 -->
<g id="edge2" class="edge">
<title>Node20&#45;&gt;Node22</title>
<path fill="none" stroke="#191970" d="M91.2489,-95.0227C99.6323,-96.4306 108.3559,-97.8956 116.8306,-99.3189"/>
<polygon fill="#191970" stroke="#191970" points="91.6727,-91.545 81.2311,-93.3403 90.5133,-98.4483 91.6727,-91.545"/>
</g>
<!-- Node24 -->
<g id="node5" class="node">
<title>Node24</title>
<g id="a_node5"><a xlink:href="classSimulator.html#a3e61a52f336d592216770c0c43cfd388" target="_top" xlink:title="Simulator::simulate\l_multi">
<polygon fill="none" stroke="#000000" points="121,-49.5 121,-79.5 222,-79.5 222,-49.5 121,-49.5"/>
<text text-anchor="start" x="129" y="-67.5" font-family="Helvetica,sans-Serif" font-size="10.00" fill="#000000">Simulator::simulate</text>
<text text-anchor="middle" x="171.5" y="-56.5" font-family="Helvetica,sans-Serif" font-size="10.00" fill="#000000">_multi</text>
</a>
</g>
</g>
<!-- Node20&#45;&gt;Node24 -->
<g id="edge4" class="edge">
<title>Node20&#45;&gt;Node24</title>
<path fill="none" stroke="#191970" d="M91.1162,-77.9996C100.7976,-76.3737 110.937,-74.6709 120.6264,-73.0437"/>
<polygon fill="#191970" stroke="#191970" points="90.5133,-74.5517 81.2311,-79.6597 91.6727,-81.455 90.5133,-74.5517"/>
</g>
<!-- Node25 -->
<g id="node6" class="node">
<title>Node25</title>
<g id="a_node6"><a xlink:href="classSimulator.html#a636e7a83b462c3e48769a85ae350e742" target="_top" xlink:title="Simulator::simulate\l_multi_2d">
<polygon fill="none" stroke="#000000" points="121,-.5 121,-30.5 222,-30.5 222,-.5 121,-.5"/>
<text text-anchor="start" x="129" y="-18.5" font-family="Helvetica,sans-Serif" font-size="10.00" fill="#000000">Simulator::simulate</text>
<text text-anchor="middle" x="171.5" y="-7.5" font-family="Helvetica,sans-Serif" font-size="10.00" fill="#000000">_multi_2d</text>
</a>
</g>
</g>
<!-- Node20&#45;&gt;Node25 -->
<g id="edge6" class="edge">
<title>Node20&#45;&gt;Node25</title>
<path fill="none" stroke="#191970" d="M64.0553,-71.4055C78.9861,-62.0722 98.841,-50.0864 117,-40.5 123.444,-37.0981 130.4388,-33.6874 137.2014,-30.5271"/>
<polygon fill="#191970" stroke="#191970" points="62.0463,-68.5346 55.4543,-76.8289 65.7799,-74.4557 62.0463,-68.5346"/>
</g>
<!-- Node23 -->
<g id="node4" class="node">
<title>Node23</title>
<g id="a_node4"><a xlink:href="fish__glue_8cpp.html#addebb0997b0e49067d8784c9954b7b96" target="_top" xlink:title="RCPP_MODULE">
<polygon fill="none" stroke="#000000" points="262,-55 262,-74 355,-74 355,-55 262,-55"/>
<text text-anchor="middle" x="308.5" y="-62" font-family="Helvetica,sans-Serif" font-size="10.00" fill="#000000">RCPP_MODULE</text>
</a>
</g>
</g>
<!-- Node22&#45;&gt;Node23 -->
<g id="edge3" class="edge">
<title>Node22&#45;&gt;Node23</title>
<path fill="none" stroke="#191970" d="M210.8015,-95.8776C232.4627,-88.9207 258.9162,-80.4247 278.8311,-74.0287"/>
<polygon fill="#191970" stroke="#191970" points="209.6777,-92.5624 201.227,-98.9527 211.8182,-99.2271 209.6777,-92.5624"/>
</g>
<!-- Node24&#45;&gt;Node23 -->
<g id="edge5" class="edge">
<title>Node24&#45;&gt;Node23</title>
<path fill="none" stroke="#191970" d="M232.2947,-64.5C242.1625,-64.5 252.2464,-64.5 261.7131,-64.5"/>
<polygon fill="#191970" stroke="#191970" points="232.1245,-61.0001 222.1245,-64.5 232.1245,-68.0001 232.1245,-61.0001"/>
</g>
<!-- Node25&#45;&gt;Node23 -->
<g id="edge7" class="edge">
<title>Node25&#45;&gt;Node23</title>
<path fill="none" stroke="#191970" d="M223.3007,-34.0272C243.2049,-41.1463 265.1124,-48.9818 281.728,-54.9246"/>
<polygon fill="#191970" stroke="#191970" points="224.317,-30.6737 213.7224,-30.6014 221.9595,-37.2648 224.317,-30.6737"/>
</g>
</g>
</svg>
