<?xml version="1.0" encoding="UTF-8" standalone="no"?>
<!DOCTYPE svg PUBLIC "-//W3C//DTD SVG 1.1//EN"
 "http://www.w3.org/Graphics/SVG/1.1/DTD/svg11.dtd">
<!-- Generated by graphviz version 2.40.1 (20161225.0304)
 -->
<!-- Title: Tensor::max_dim Pages: 1 -->
<svg width="379pt" height="88pt"
 viewBox="0.00 0.00 379.00 88.00" xmlns="http://www.w3.org/2000/svg" xmlns:xlink="http://www.w3.org/1999/xlink">
<g id="graph0" class="graph" transform="scale(1 1) rotate(0) translate(4 84)">
<title>Tensor::max_dim</title>
<!-- Node62 -->
<g id="node1" class="node">
<title>Node62</title>
<polygon fill="#bfbfbf" stroke="#000000" points="0,-30 0,-49 92,-49 92,-30 0,-30"/>
<text text-anchor="middle" x="46" y="-37" font-family="Helvetica,sans-Serif" font-size="10.00" fill="#000000">Tensor::max_dim</text>
</g>
<!-- Node63 -->
<g id="node2" class="node">
<title>Node63</title>
<g id="a_node2"><a xlink:href="classSimulator.html#a1b66b7260ff50758884d1f7361a1b988" target="_top" xlink:title="Simulator::stakeholder\l_satisfaction">
<polygon fill="none" stroke="#000000" points="128,-49.5 128,-79.5 242,-79.5 242,-49.5 128,-49.5"/>
<text text-anchor="start" x="136" y="-67.5" font-family="Helvetica,sans-Serif" font-size="10.00" fill="#000000">Simulator::stakeholder</text>
<text text-anchor="middle" x="185" y="-56.5" font-family="Helvetica,sans-Serif" font-size="10.00" fill="#000000">_satisfaction</text>
</a>
</g>
</g>
<!-- Node62&#45;&gt;Node63 -->
<g id="edge1" class="edge">
<title>Node62&#45;&gt;Node63</title>
<path fill="none" stroke="#191970" d="M102.3474,-49.6344C110.7328,-51.1426 119.3833,-52.6984 127.7864,-54.2098"/>
<polygon fill="#191970" stroke="#191970" points="102.7467,-46.1501 92.285,-47.8246 101.5075,-53.0396 102.7467,-46.1501"/>
</g>
<!-- Node65 -->
<g id="node4" class="node">
<title>Node65</title>
<g id="a_node4"><a xlink:href="classSimulator.html#aac842e5498b4c9731910ce9a93fa555d" target="_top" xlink:title="Simulator::stakeholder\l_satisfaction_2d">
<polygon fill="none" stroke="#000000" points="128,-.5 128,-30.5 242,-30.5 242,-.5 128,-.5"/>
<text text-anchor="start" x="136" y="-18.5" font-family="Helvetica,sans-Serif" font-size="10.00" fill="#000000">Simulator::stakeholder</text>
<text text-anchor="middle" x="185" y="-7.5" font-family="Helvetica,sans-Serif" font-size="10.00" fill="#000000">_satisfaction_2d</text>
</a>
</g>
</g>
<!-- Node62&#45;&gt;Node65 -->
<g id="edge3" class="edge">
<title>Node62&#45;&gt;Node65</title>
<path fill="none" stroke="#191970" d="M102.3474,-29.771C110.7328,-28.3231 119.3833,-26.8295 127.7864,-25.3786"/>
<polygon fill="#191970" stroke="#191970" points="101.5436,-26.3579 92.285,-31.5083 102.7347,-33.2558 101.5436,-26.3579"/>
</g>
<!-- Node64 -->
<g id="node3" class="node">
<title>Node64</title>
<g id="a_node3"><a xlink:href="fish__glue_8cpp.html#addebb0997b0e49067d8784c9954b7b96" target="_top" xlink:title="RCPP_MODULE">
<polygon fill="none" stroke="#000000" points="278,-30 278,-49 371,-49 371,-30 278,-30"/>
<text text-anchor="middle" x="324.5" y="-37" font-family="Helvetica,sans-Serif" font-size="10.00" fill="#000000">RCPP_MODULE</text>
</a>
</g>
</g>
<!-- Node63&#45;&gt;Node64 -->
<g id="edge2" class="edge">
<title>Node63&#45;&gt;Node64</title>
<path fill="none" stroke="#191970" d="M252.2613,-52.446C260.9284,-50.8928 269.6468,-49.3303 277.8803,-47.8548"/>
<polygon fill="#191970" stroke="#191970" points="251.3682,-49.0502 242.1425,-54.2594 252.6031,-55.9404 251.3682,-49.0502"/>
</g>
<!-- Node65&#45;&gt;Node64 -->
<g id="edge4" class="edge">
<title>Node65&#45;&gt;Node64</title>
<path fill="none" stroke="#191970" d="M252.2613,-27.0718C260.9284,-28.5629 269.6468,-30.0629 277.8803,-31.4794"/>
<polygon fill="#191970" stroke="#191970" points="252.5912,-23.5772 242.1425,-25.331 251.4042,-30.4759 252.5912,-23.5772"/>
</g>
</g>
</svg>
