<?xml version="1.0" encoding="UTF-8" standalone="no"?>
<!DOCTYPE svg PUBLIC "-//W3C//DTD SVG 1.1//EN"
 "http://www.w3.org/Graphics/SVG/1.1/DTD/svg11.dtd">
<!-- Generated by graphviz version 2.40.1 (20161225.0304)
 -->
<!-- Title: Tensor::transform_dim Pages: 1 -->
<svg width="532pt" height="186pt"
 viewBox="0.00 0.00 532.00 186.00" xmlns="http://www.w3.org/2000/svg" xmlns:xlink="http://www.w3.org/1999/xlink">
<g id="graph0" class="graph" transform="scale(1 1) rotate(0) translate(4 182)">
<title>Tensor::transform_dim</title>
<!-- Node119 -->
<g id="node1" class="node">
<title>Node119</title>
<polygon fill="#bfbfbf" stroke="#000000" points="0,-79 0,-98 115,-98 115,-79 0,-79"/>
<text text-anchor="middle" x="57.5" y="-86" font-family="Helvetica,sans-Serif" font-size="10.00" fill="#000000">Tensor::transform_dim</text>
</g>
<!-- Node120 -->
<g id="node2" class="node">
<title>Node120</title>
<g id="a_node2"><a xlink:href="classTensor.html#a3986d7a50faef0249a8d2da5b1f67a89" target="_top" xlink:title="Tensor::transform">
<polygon fill="none" stroke="#000000" points="151,-79 151,-98 245,-98 245,-79 151,-79"/>
<text text-anchor="middle" x="198" y="-86" font-family="Helvetica,sans-Serif" font-size="10.00" fill="#000000">Tensor::transform</text>
</a>
</g>
</g>
<!-- Node119&#45;&gt;Node120 -->
<g id="edge1" class="edge">
<title>Node119&#45;&gt;Node120</title>
<path fill="none" stroke="#191970" d="M125.1137,-88.5C133.7319,-88.5 142.4032,-88.5 150.6076,-88.5"/>
<polygon fill="#191970" stroke="#191970" points="125.0522,-85.0001 115.0521,-88.5 125.0521,-92.0001 125.0522,-85.0001"/>
</g>
<!-- Node121 -->
<g id="node3" class="node">
<title>Node121</title>
<g id="a_node3"><a xlink:href="classSimulator.html#addbc3da16a6f9c352eefbdc423419bca" target="_top" xlink:title="Simulator::max_avg\l_utils">
<polygon fill="none" stroke="#000000" points="286,-147.5 286,-177.5 390,-177.5 390,-147.5 286,-147.5"/>
<text text-anchor="start" x="294" y="-165.5" font-family="Helvetica,sans-Serif" font-size="10.00" fill="#000000">Simulator::max_avg</text>
<text text-anchor="middle" x="338" y="-154.5" font-family="Helvetica,sans-Serif" font-size="10.00" fill="#000000">_utils</text>
</a>
</g>
</g>
<!-- Node120&#45;&gt;Node121 -->
<g id="edge2" class="edge">
<title>Node120&#45;&gt;Node121</title>
<path fill="none" stroke="#191970" d="M221.185,-103.6974C237.5542,-114.1193 260.1913,-127.9206 281,-138.5 287.0299,-141.5657 293.544,-144.576 299.9388,-147.3725"/>
<polygon fill="#191970" stroke="#191970" points="222.636,-100.4692 212.3325,-98.0016 218.8484,-106.356 222.636,-100.4692"/>
</g>
<!-- Node123 -->
<g id="node5" class="node">
<title>Node123</title>
<g id="a_node5"><a xlink:href="classSimulator.html#a1b66b7260ff50758884d1f7361a1b988" target="_top" xlink:title="Simulator::stakeholder\l_satisfaction">
<polygon fill="none" stroke="#000000" points="281,-98.5 281,-128.5 395,-128.5 395,-98.5 281,-98.5"/>
<text text-anchor="start" x="289" y="-116.5" font-family="Helvetica,sans-Serif" font-size="10.00" fill="#000000">Simulator::stakeholder</text>
<text text-anchor="middle" x="338" y="-105.5" font-family="Helvetica,sans-Serif" font-size="10.00" fill="#000000">_satisfaction</text>
</a>
</g>
</g>
<!-- Node120&#45;&gt;Node123 -->
<g id="edge4" class="edge">
<title>Node120&#45;&gt;Node123</title>
<path fill="none" stroke="#191970" d="M255.1237,-98.7007C263.5502,-100.2054 272.2345,-101.7562 280.6653,-103.2617"/>
<polygon fill="#191970" stroke="#191970" points="255.467,-95.2067 245.0074,-96.8942 254.2364,-102.0977 255.467,-95.2067"/>
</g>
<!-- Node124 -->
<g id="node6" class="node">
<title>Node124</title>
<g id="a_node6"><a xlink:href="classSimulator.html#a32eeba843e7526dceb75a2c6aebe240e" target="_top" xlink:title="Simulator::max_avg\l_utils_2d">
<polygon fill="none" stroke="#000000" points="286,-49.5 286,-79.5 390,-79.5 390,-49.5 286,-49.5"/>
<text text-anchor="start" x="294" y="-67.5" font-family="Helvetica,sans-Serif" font-size="10.00" fill="#000000">Simulator::max_avg</text>
<text text-anchor="middle" x="338" y="-56.5" font-family="Helvetica,sans-Serif" font-size="10.00" fill="#000000">_utils_2d</text>
</a>
</g>
</g>
<!-- Node120&#45;&gt;Node124 -->
<g id="edge6" class="edge">
<title>Node120&#45;&gt;Node124</title>
<path fill="none" stroke="#191970" d="M254.9694,-78.7338C265.0897,-76.9989 275.5868,-75.1994 285.5736,-73.4874"/>
<polygon fill="#191970" stroke="#191970" points="254.2723,-75.3022 245.0074,-80.4416 255.4551,-82.2015 254.2723,-75.3022"/>
</g>
<!-- Node125 -->
<g id="node7" class="node">
<title>Node125</title>
<g id="a_node7"><a xlink:href="classSimulator.html#aac842e5498b4c9731910ce9a93fa555d" target="_top" xlink:title="Simulator::stakeholder\l_satisfaction_2d">
<polygon fill="none" stroke="#000000" points="281,-.5 281,-30.5 395,-30.5 395,-.5 281,-.5"/>
<text text-anchor="start" x="289" y="-18.5" font-family="Helvetica,sans-Serif" font-size="10.00" fill="#000000">Simulator::stakeholder</text>
<text text-anchor="middle" x="338" y="-7.5" font-family="Helvetica,sans-Serif" font-size="10.00" fill="#000000">_satisfaction_2d</text>
</a>
</g>
</g>
<!-- Node120&#45;&gt;Node125 -->
<g id="edge8" class="edge">
<title>Node120&#45;&gt;Node125</title>
<path fill="none" stroke="#191970" d="M222.209,-73.5458C238.5577,-63.6854 260.766,-50.7483 281,-40.5 287.7479,-37.0823 295.0673,-33.6644 302.1412,-30.502"/>
<polygon fill="#191970" stroke="#191970" points="220.0447,-70.7655 213.3195,-78.9522 223.6821,-76.7463 220.0447,-70.7655"/>
</g>
<!-- Node122 -->
<g id="node4" class="node">
<title>Node122</title>
<g id="a_node4"><a xlink:href="fish__glue_8cpp.html#addebb0997b0e49067d8784c9954b7b96" target="_top" xlink:title="RCPP_MODULE">
<polygon fill="none" stroke="#000000" points="431,-79 431,-98 524,-98 524,-79 431,-79"/>
<text text-anchor="middle" x="477.5" y="-86" font-family="Helvetica,sans-Serif" font-size="10.00" fill="#000000">RCPP_MODULE</text>
</a>
</g>
</g>
<!-- Node121&#45;&gt;Node122 -->
<g id="edge3" class="edge">
<title>Node121&#45;&gt;Node122</title>
<path fill="none" stroke="#191970" d="M385.3739,-143.1858C388.6566,-141.654 391.893,-140.0849 395,-138.5 419.7659,-125.867 447.1024,-108.5939 463.2624,-98.0101"/>
<polygon fill="#191970" stroke="#191970" points="383.7428,-140.082 376.0682,-147.3862 386.6227,-146.4621 383.7428,-140.082"/>
</g>
<!-- Node123&#45;&gt;Node122 -->
<g id="edge5" class="edge">
<title>Node123&#45;&gt;Node122</title>
<path fill="none" stroke="#191970" d="M405.2613,-101.446C413.9284,-99.8928 422.6468,-98.3303 430.8803,-96.8548"/>
<polygon fill="#191970" stroke="#191970" points="404.3682,-98.0502 395.1425,-103.2594 405.6031,-104.9404 404.3682,-98.0502"/>
</g>
<!-- Node124&#45;&gt;Node122 -->
<g id="edge7" class="edge">
<title>Node124&#45;&gt;Node122</title>
<path fill="none" stroke="#191970" d="M400.451,-75.2442C410.6636,-77.0013 421.0873,-78.7946 430.8333,-80.4713"/>
<polygon fill="#191970" stroke="#191970" points="400.7902,-71.7513 390.3415,-73.505 399.6033,-78.6499 400.7902,-71.7513"/>
</g>
<!-- Node125&#45;&gt;Node122 -->
<g id="edge9" class="edge">
<title>Node125&#45;&gt;Node122</title>
<path fill="none" stroke="#191970" d="M383.3931,-34.8478C387.3456,-36.7016 391.261,-38.6001 395,-40.5 419.0799,-52.7359 445.9419,-68.8499 462.281,-78.9429"/>
<polygon fill="#191970" stroke="#191970" points="384.7185,-31.6053 374.1692,-30.6237 381.8039,-37.9696 384.7185,-31.6053"/>
</g>
</g>
</svg>
