<?xml version="1.0" encoding="UTF-8" standalone="no"?>
<!DOCTYPE svg PUBLIC "-//W3C//DTD SVG 1.1//EN"
 "http://www.w3.org/Graphics/SVG/1.1/DTD/svg11.dtd">
<!-- Generated by graphviz version 2.40.1 (20161225.0304)
 -->
<!-- Title: io::Initializer::get_section Pages: 1 -->
<svg width="638pt" height="78pt"
 viewBox="0.00 0.00 638.00 77.50" xmlns="http://www.w3.org/2000/svg" xmlns:xlink="http://www.w3.org/1999/xlink">
<g id="graph0" class="graph" transform="scale(1 1) rotate(0) translate(4 73.5)">
<title>io::Initializer::get_section</title>
<!-- Node9 -->
<g id="node1" class="node">
<title>Node9</title>
<polygon fill="#bfbfbf" stroke="#000000" points="0,-22.5 0,-52.5 89,-52.5 89,-22.5 0,-22.5"/>
<text text-anchor="start" x="8" y="-40.5" font-family="Helvetica,sans-Serif" font-size="10.00" fill="#000000">io::Initializer::get</text>
<text text-anchor="middle" x="44.5" y="-29.5" font-family="Helvetica,sans-Serif" font-size="10.00" fill="#000000">_section</text>
</g>
<!-- Node10 -->
<g id="node2" class="node">
<title>Node10</title>
<g id="a_node2"><a xlink:href="classio_1_1Initializer.html#a06fe79d6d19f76180836e03e3ad6b7fb" target="_top" xlink:title="io::Initializer::get\l_value">
<polygon fill="none" stroke="#000000" points="125,-22.5 125,-52.5 214,-52.5 214,-22.5 125,-22.5"/>
<text text-anchor="start" x="133" y="-40.5" font-family="Helvetica,sans-Serif" font-size="10.00" fill="#000000">io::Initializer::get</text>
<text text-anchor="middle" x="169.5" y="-29.5" font-family="Helvetica,sans-Serif" font-size="10.00" fill="#000000">_value</text>
</a>
</g>
</g>
<!-- Node9&#45;&gt;Node10 -->
<g id="edge1" class="edge">
<title>Node9&#45;&gt;Node10</title>
<path fill="none" stroke="#191970" d="M99.4141,-37.5C107.8368,-37.5 116.446,-37.5 124.6177,-37.5"/>
<polygon fill="#191970" stroke="#191970" points="99.2748,-34.0001 89.2748,-37.5 99.2748,-41.0001 99.2748,-34.0001"/>
</g>
<!-- Node11 -->
<g id="node3" class="node">
<title>Node11</title>
<g id="a_node3"><a xlink:href="classio_1_1Initializer.html#a098a8511a950a4449925c8315af36bdb" target="_top" xlink:title="io::Initializer::get">
<polygon fill="none" stroke="#000000" points="250,-50 250,-69 339,-69 339,-50 250,-50"/>
<text text-anchor="middle" x="294.5" y="-57" font-family="Helvetica,sans-Serif" font-size="10.00" fill="#000000">io::Initializer::get</text>
</a>
</g>
</g>
<!-- Node10&#45;&gt;Node11 -->
<g id="edge2" class="edge">
<title>Node10&#45;&gt;Node11</title>
<path fill="none" stroke="#191970" d="M224.1365,-47.116C232.6475,-48.614 241.3562,-50.1467 249.6177,-51.6007"/>
<polygon fill="#191970" stroke="#191970" points="224.7301,-43.6668 214.2748,-45.3804 223.5167,-50.5608 224.7301,-43.6668"/>
</g>
<!-- Node14 -->
<g id="node6" class="node">
<title>Node14</title>
<g id="a_node6"><a xlink:href="classio_1_1Initializer.html#a92f49c1ad4e16a85f3f0f12201cb9707" target="_top" xlink:title="io::Initializer::get\l_vector">
<polygon fill="none" stroke="#000000" points="250,-.5 250,-30.5 339,-30.5 339,-.5 250,-.5"/>
<text text-anchor="start" x="258" y="-18.5" font-family="Helvetica,sans-Serif" font-size="10.00" fill="#000000">io::Initializer::get</text>
<text text-anchor="middle" x="294.5" y="-7.5" font-family="Helvetica,sans-Serif" font-size="10.00" fill="#000000">_vector</text>
</a>
</g>
</g>
<!-- Node10&#45;&gt;Node14 -->
<g id="edge5" class="edge">
<title>Node10&#45;&gt;Node14</title>
<path fill="none" stroke="#191970" d="M224.1365,-27.884C232.6475,-26.386 241.3562,-24.8533 249.6177,-23.3993"/>
<polygon fill="#191970" stroke="#191970" points="223.5167,-24.4392 214.2748,-29.6196 224.7301,-31.3332 223.5167,-24.4392"/>
</g>
<!-- Node12 -->
<g id="node4" class="node">
<title>Node12</title>
<g id="a_node4"><a xlink:href="classFishParams.html#a6a7122ea93777817165dfb09c1d840ac" target="_top" xlink:title="FishParams::initFromFile">
<polygon fill="none" stroke="#000000" points="375,-50 375,-69 501,-69 501,-50 375,-50"/>
<text text-anchor="middle" x="438" y="-57" font-family="Helvetica,sans-Serif" font-size="10.00" fill="#000000">FishParams::initFromFile</text>
</a>
</g>
</g>
<!-- Node11&#45;&gt;Node12 -->
<g id="edge3" class="edge">
<title>Node11&#45;&gt;Node12</title>
<path fill="none" stroke="#191970" d="M349.1964,-59.5C357.6222,-59.5 366.3811,-59.5 374.9707,-59.5"/>
<polygon fill="#191970" stroke="#191970" points="349.1177,-56.0001 339.1177,-59.5 349.1177,-63.0001 349.1177,-56.0001"/>
</g>
<!-- Node13 -->
<g id="node5" class="node">
<title>Node13</title>
<g id="a_node5"><a xlink:href="fish__glue_8cpp.html#a7b6a9b6d94c71377c935b2cfbffdfabc" target="_top" xlink:title="RCPP_MODULE">
<polygon fill="none" stroke="#000000" points="537,-50 537,-69 630,-69 630,-50 537,-50"/>
<text text-anchor="middle" x="583.5" y="-57" font-family="Helvetica,sans-Serif" font-size="10.00" fill="#000000">RCPP_MODULE</text>
</a>
</g>
</g>
<!-- Node12&#45;&gt;Node13 -->
<g id="edge4" class="edge">
<title>Node12&#45;&gt;Node13</title>
<path fill="none" stroke="#191970" d="M511.527,-59.5C520.177,-59.5 528.8124,-59.5 536.9439,-59.5"/>
<polygon fill="#191970" stroke="#191970" points="511.3952,-56.0001 501.3952,-59.5 511.3951,-63.0001 511.3952,-56.0001"/>
</g>
</g>
</svg>
