<?xml version="1.0" encoding="UTF-8" standalone="no"?>
<!DOCTYPE svg PUBLIC "-//W3C//DTD SVG 1.1//EN"
 "http://www.w3.org/Graphics/SVG/1.1/DTD/svg11.dtd">
<!-- Generated by graphviz version 2.40.1 (20161225.0304)
 -->
<!-- Title: Population::init Pages: 1 -->
<svg width="318pt" height="66pt"
 viewBox="0.00 0.00 318.00 66.00" xmlns="http://www.w3.org/2000/svg" xmlns:xlink="http://www.w3.org/1999/xlink">
<g id="graph0" class="graph" transform="scale(1 1) rotate(0) translate(4 62)">
<title>Population::init</title>
<!-- Node63 -->
<g id="node1" class="node">
<title>Node63</title>
<polygon fill="#bfbfbf" stroke="#000000" points="0,-19.5 0,-38.5 81,-38.5 81,-19.5 0,-19.5"/>
<text text-anchor="middle" x="40.5" y="-26.5" font-family="Helvetica,sans-Serif" font-size="10.00" fill="#000000">Population::init</text>
</g>
<!-- Node64 -->
<g id="node2" class="node">
<title>Node64</title>
<g id="a_node2"><a xlink:href="classFish.html#adf85bf269f1651352506e371ffd2cecc" target="_top" xlink:title="Initializes the fish, i.e., initializes parameters and sets the initial state (age = 1...">
<polygon fill="none" stroke="#000000" points="117,-19.5 117,-38.5 171,-38.5 171,-19.5 117,-19.5"/>
<text text-anchor="middle" x="144" y="-26.5" font-family="Helvetica,sans-Serif" font-size="10.00" fill="#000000">Fish::init</text>
</a>
</g>
</g>
<!-- Node63&#45;&gt;Node64 -->
<g id="edge1" class="edge">
<title>Node63&#45;&gt;Node64</title>
<path fill="none" stroke="#191970" d="M81.1089,-29C89.5507,-29 98.4078,-29 106.7229,-29"/>
<polygon fill="#191970" stroke="#191970" points="106.8933,-32.5001 116.8932,-29 106.8932,-25.5001 106.8933,-32.5001"/>
</g>
<!-- Node65 -->
<g id="node3" class="node">
<title>Node65</title>
<g id="a_node3"><a xlink:href="namespacefish.html#a0ab1c4842d702a0a40bd04f26793ce12" target="_top" xlink:title="Compute the nonlinear growth increment , as follows . ">
<polygon fill="none" stroke="#000000" points="220,-38.5 220,-57.5 297,-57.5 297,-38.5 220,-38.5"/>
<text text-anchor="middle" x="258.5" y="-45.5" font-family="Helvetica,sans-Serif" font-size="10.00" fill="#000000">fish::dl_power</text>
</a>
</g>
</g>
<!-- Node64&#45;&gt;Node65 -->
<g id="edge2" class="edge">
<title>Node64&#45;&gt;Node65</title>
<path fill="none" stroke="#191970" d="M171.1349,-33.5027C182.7285,-35.4266 196.6256,-37.7326 209.8894,-39.9336"/>
<polygon fill="#191970" stroke="#191970" points="209.4222,-43.4039 219.8602,-41.5882 210.5681,-36.4983 209.4222,-43.4039"/>
</g>
<!-- Node66 -->
<g id="node4" class="node">
<title>Node66</title>
<g id="a_node4"><a xlink:href="namespacefish.html#a1d06e0358aca1be4446ed148b7ce3d84" target="_top" xlink:title="Compute the new length after growth assuming no allocation to reproduction . ">
<polygon fill="none" stroke="#000000" points="207,-.5 207,-19.5 310,-19.5 310,-.5 207,-.5"/>
<text text-anchor="middle" x="258.5" y="-7.5" font-family="Helvetica,sans-Serif" font-size="10.00" fill="#000000">fish::length_juvenile</text>
</a>
</g>
</g>
<!-- Node64&#45;&gt;Node66 -->
<g id="edge3" class="edge">
<title>Node64&#45;&gt;Node66</title>
<path fill="none" stroke="#191970" d="M171.1349,-24.4973C178.9188,-23.2056 187.7409,-21.7417 196.7126,-20.2529"/>
<polygon fill="#191970" stroke="#191970" points="197.566,-23.6593 206.8581,-18.5694 196.4201,-16.7537 197.566,-23.6593"/>
</g>
</g>
</svg>
