<?xml version="1.0" encoding="UTF-8" standalone="no"?>
<!DOCTYPE svg PUBLIC "-//W3C//DTD SVG 1.1//EN"
 "http://www.w3.org/Graphics/SVG/1.1/DTD/svg11.dtd">
<!-- Generated by graphviz version 2.40.1 (20161225.0304)
 -->
<!-- Title: Tensor::avg_dim Pages: 1 -->
<svg width="376pt" height="186pt"
 viewBox="0.00 0.00 376.00 186.00" xmlns="http://www.w3.org/2000/svg" xmlns:xlink="http://www.w3.org/1999/xlink">
<g id="graph0" class="graph" transform="scale(1 1) rotate(0) translate(4 182)">
<title>Tensor::avg_dim</title>
<!-- Node29 -->
<g id="node1" class="node">
<title>Node29</title>
<polygon fill="#bfbfbf" stroke="#000000" points="0,-79 0,-98 89,-98 89,-79 0,-79"/>
<text text-anchor="middle" x="44.5" y="-86" font-family="Helvetica,sans-Serif" font-size="10.00" fill="#000000">Tensor::avg_dim</text>
</g>
<!-- Node30 -->
<g id="node2" class="node">
<title>Node30</title>
<g id="a_node2"><a xlink:href="classSimulator.html#addbc3da16a6f9c352eefbdc423419bca" target="_top" xlink:title="Simulator::max_avg\l_utils">
<polygon fill="none" stroke="#000000" points="130,-147.5 130,-177.5 234,-177.5 234,-147.5 130,-147.5"/>
<text text-anchor="start" x="138" y="-165.5" font-family="Helvetica,sans-Serif" font-size="10.00" fill="#000000">Simulator::max_avg</text>
<text text-anchor="middle" x="182" y="-154.5" font-family="Helvetica,sans-Serif" font-size="10.00" fill="#000000">_utils</text>
</a>
</g>
</g>
<!-- Node29&#45;&gt;Node30 -->
<g id="edge1" class="edge">
<title>Node29&#45;&gt;Node30</title>
<path fill="none" stroke="#191970" d="M66.9251,-103.7569C82.7732,-114.2059 104.7202,-128.0151 125,-138.5 131.0089,-141.6067 137.5123,-144.6377 143.903,-147.4423"/>
<polygon fill="#191970" stroke="#191970" points="68.6191,-100.6798 58.3574,-98.0436 64.7354,-106.5036 68.6191,-100.6798"/>
</g>
<!-- Node32 -->
<g id="node4" class="node">
<title>Node32</title>
<g id="a_node4"><a xlink:href="classSimulator.html#a1b66b7260ff50758884d1f7361a1b988" target="_top" xlink:title="Simulator::stakeholder\l_satisfaction">
<polygon fill="none" stroke="#000000" points="125,-98.5 125,-128.5 239,-128.5 239,-98.5 125,-98.5"/>
<text text-anchor="start" x="133" y="-116.5" font-family="Helvetica,sans-Serif" font-size="10.00" fill="#000000">Simulator::stakeholder</text>
<text text-anchor="middle" x="182" y="-105.5" font-family="Helvetica,sans-Serif" font-size="10.00" fill="#000000">_satisfaction</text>
</a>
</g>
</g>
<!-- Node29&#45;&gt;Node32 -->
<g id="edge3" class="edge">
<title>Node29&#45;&gt;Node32</title>
<path fill="none" stroke="#191970" d="M99.1485,-98.4361C107.4984,-99.9543 116.1384,-101.5252 124.5465,-103.0539"/>
<polygon fill="#191970" stroke="#191970" points="99.6071,-94.9622 89.1423,-96.6168 98.3549,-101.8493 99.6071,-94.9622"/>
</g>
<!-- Node33 -->
<g id="node5" class="node">
<title>Node33</title>
<g id="a_node5"><a xlink:href="classSimulator.html#a32eeba843e7526dceb75a2c6aebe240e" target="_top" xlink:title="Simulator::max_avg\l_utils_2d">
<polygon fill="none" stroke="#000000" points="130,-49.5 130,-79.5 234,-79.5 234,-49.5 130,-49.5"/>
<text text-anchor="start" x="138" y="-67.5" font-family="Helvetica,sans-Serif" font-size="10.00" fill="#000000">Simulator::max_avg</text>
<text text-anchor="middle" x="182" y="-56.5" font-family="Helvetica,sans-Serif" font-size="10.00" fill="#000000">_utils_2d</text>
</a>
</g>
</g>
<!-- Node29&#45;&gt;Node33 -->
<g id="edge5" class="edge">
<title>Node29&#45;&gt;Node33</title>
<path fill="none" stroke="#191970" d="M99.1179,-78.9667C109.2716,-77.1944 119.855,-75.3471 129.9299,-73.5886"/>
<polygon fill="#191970" stroke="#191970" points="98.3915,-75.5405 89.1423,-80.7079 99.5952,-82.4362 98.3915,-75.5405"/>
</g>
<!-- Node34 -->
<g id="node6" class="node">
<title>Node34</title>
<g id="a_node6"><a xlink:href="classSimulator.html#aac842e5498b4c9731910ce9a93fa555d" target="_top" xlink:title="Simulator::stakeholder\l_satisfaction_2d">
<polygon fill="none" stroke="#000000" points="125,-.5 125,-30.5 239,-30.5 239,-.5 125,-.5"/>
<text text-anchor="start" x="133" y="-18.5" font-family="Helvetica,sans-Serif" font-size="10.00" fill="#000000">Simulator::stakeholder</text>
<text text-anchor="middle" x="182" y="-7.5" font-family="Helvetica,sans-Serif" font-size="10.00" fill="#000000">_satisfaction_2d</text>
</a>
</g>
</g>
<!-- Node29&#45;&gt;Node34 -->
<g id="edge7" class="edge">
<title>Node29&#45;&gt;Node34</title>
<path fill="none" stroke="#191970" d="M67.9226,-73.481C83.7545,-63.5932 105.2883,-50.6497 125,-40.5 131.6289,-37.0867 138.8252,-33.6973 145.8016,-30.5667"/>
<polygon fill="#191970" stroke="#191970" points="65.9101,-70.6123 59.3167,-78.9056 69.6428,-76.534 65.9101,-70.6123"/>
</g>
<!-- Node31 -->
<g id="node3" class="node">
<title>Node31</title>
<g id="a_node3"><a xlink:href="fish__glue_8cpp.html#addebb0997b0e49067d8784c9954b7b96" target="_top" xlink:title="RCPP_MODULE">
<polygon fill="none" stroke="#000000" points="275,-79 275,-98 368,-98 368,-79 275,-79"/>
<text text-anchor="middle" x="321.5" y="-86" font-family="Helvetica,sans-Serif" font-size="10.00" fill="#000000">RCPP_MODULE</text>
</a>
</g>
</g>
<!-- Node30&#45;&gt;Node31 -->
<g id="edge2" class="edge">
<title>Node30&#45;&gt;Node31</title>
<path fill="none" stroke="#191970" d="M229.3739,-143.1858C232.6566,-141.654 235.893,-140.0849 239,-138.5 263.7659,-125.867 291.1024,-108.5939 307.2624,-98.0101"/>
<polygon fill="#191970" stroke="#191970" points="227.7428,-140.082 220.0682,-147.3862 230.6227,-146.4621 227.7428,-140.082"/>
</g>
<!-- Node32&#45;&gt;Node31 -->
<g id="edge4" class="edge">
<title>Node32&#45;&gt;Node31</title>
<path fill="none" stroke="#191970" d="M249.2613,-101.446C257.9284,-99.8928 266.6468,-98.3303 274.8803,-96.8548"/>
<polygon fill="#191970" stroke="#191970" points="248.3682,-98.0502 239.1425,-103.2594 249.6031,-104.9404 248.3682,-98.0502"/>
</g>
<!-- Node33&#45;&gt;Node31 -->
<g id="edge6" class="edge">
<title>Node33&#45;&gt;Node31</title>
<path fill="none" stroke="#191970" d="M244.451,-75.2442C254.6636,-77.0013 265.0873,-78.7946 274.8333,-80.4713"/>
<polygon fill="#191970" stroke="#191970" points="244.7902,-71.7513 234.3415,-73.505 243.6033,-78.6499 244.7902,-71.7513"/>
</g>
<!-- Node34&#45;&gt;Node31 -->
<g id="edge8" class="edge">
<title>Node34&#45;&gt;Node31</title>
<path fill="none" stroke="#191970" d="M227.3931,-34.8478C231.3456,-36.7016 235.261,-38.6001 239,-40.5 263.0799,-52.7359 289.9419,-68.8499 306.281,-78.9429"/>
<polygon fill="#191970" stroke="#191970" points="228.7185,-31.6053 218.1692,-30.6237 225.8039,-37.9696 228.7185,-31.6053"/>
</g>
</g>
</svg>
