<?xml version="1.0" encoding="UTF-8" standalone="no"?>
<!DOCTYPE svg PUBLIC "-//W3C//DTD SVG 1.1//EN"
 "http://www.w3.org/Graphics/SVG/1.1/DTD/svg11.dtd">
<!-- Generated by graphviz version 2.40.1 (20161225.0304)
 -->
<!-- Title: Population::set_harvestProp Pages: 1 -->
<svg width="422pt" height="165pt"
 viewBox="0.00 0.00 422.00 164.50" xmlns="http://www.w3.org/2000/svg" xmlns:xlink="http://www.w3.org/1999/xlink">
<g id="graph0" class="graph" transform="scale(1 1) rotate(0) translate(4 160.5)">
<title>Population::set_harvestProp</title>
<!-- Node43 -->
<g id="node1" class="node">
<title>Node43</title>
<polygon fill="#bfbfbf" stroke="#000000" points="0,-77 0,-96 140,-96 140,-77 0,-77"/>
<text text-anchor="middle" x="70" y="-84" font-family="Helvetica,sans-Serif" font-size="10.00" fill="#000000">Population::set_harvestProp</text>
</g>
<!-- Node44 -->
<g id="node2" class="node">
<title>Node44</title>
<g id="a_node2"><a xlink:href="fish__glue_8cpp.html#ab96ae82277aa9004dc603b77512c7265" target="_top" xlink:title="RCPP_MODULE">
<polygon fill="none" stroke="#000000" points="184,-137 184,-156 277,-156 277,-137 184,-137"/>
<text text-anchor="middle" x="230.5" y="-144" font-family="Helvetica,sans-Serif" font-size="10.00" fill="#000000">RCPP_MODULE</text>
</a>
</g>
</g>
<!-- Node43&#45;&gt;Node44 -->
<g id="edge1" class="edge">
<title>Node43&#45;&gt;Node44</title>
<path fill="none" stroke="#191970" d="M103.271,-99.6991C124.1016,-107.8808 151.5386,-118.5082 176,-127.5 184.5586,-130.646 193.919,-133.9563 202.4299,-136.9164"/>
<polygon fill="#191970" stroke="#191970" points="104.4963,-96.4201 93.9093,-96.0122 101.9311,-102.9332 104.4963,-96.4201"/>
</g>
<!-- Node45 -->
<g id="node3" class="node">
<title>Node45</title>
<g id="a_node3"><a xlink:href="classSimulator.html#a16eef6e60e97dabc2a1205b58b10182c" target="_top" xlink:title="Simulator::simulate_r">
<polygon fill="none" stroke="#000000" points="176,-99 176,-118 285,-118 285,-99 176,-99"/>
<text text-anchor="middle" x="230.5" y="-106" font-family="Helvetica,sans-Serif" font-size="10.00" fill="#000000">Simulator::simulate_r</text>
</a>
</g>
</g>
<!-- Node43&#45;&gt;Node45 -->
<g id="edge2" class="edge">
<title>Node43&#45;&gt;Node45</title>
<path fill="none" stroke="#191970" d="M149.5241,-97.4005C158.4598,-98.6253 167.4076,-99.8518 175.9241,-101.0192"/>
<polygon fill="#191970" stroke="#191970" points="149.8469,-93.9121 139.4642,-96.0216 148.8962,-100.8472 149.8469,-93.9121"/>
</g>
<!-- Node47 -->
<g id="node5" class="node">
<title>Node47</title>
<g id="a_node5"><a xlink:href="classSimulator.html#a3e61a52f336d592216770c0c43cfd388" target="_top" xlink:title="Simulator::simulate\l_multi">
<polygon fill="none" stroke="#000000" points="180,-49.5 180,-79.5 281,-79.5 281,-49.5 180,-49.5"/>
<text text-anchor="start" x="188" y="-67.5" font-family="Helvetica,sans-Serif" font-size="10.00" fill="#000000">Simulator::simulate</text>
<text text-anchor="middle" x="230.5" y="-56.5" font-family="Helvetica,sans-Serif" font-size="10.00" fill="#000000">_multi</text>
</a>
</g>
</g>
<!-- Node43&#45;&gt;Node47 -->
<g id="edge4" class="edge">
<title>Node43&#45;&gt;Node47</title>
<path fill="none" stroke="#191970" d="M149.6843,-75.5775C159.9333,-74.1727 170.1946,-72.7662 179.7994,-71.4496"/>
<polygon fill="#191970" stroke="#191970" points="148.8962,-72.1528 139.4642,-76.9784 149.8469,-79.0879 148.8962,-72.1528"/>
</g>
<!-- Node48 -->
<g id="node6" class="node">
<title>Node48</title>
<g id="a_node6"><a xlink:href="classSimulator.html#a636e7a83b462c3e48769a85ae350e742" target="_top" xlink:title="Simulator::simulate\l_multi_2d">
<polygon fill="none" stroke="#000000" points="180,-.5 180,-30.5 281,-30.5 281,-.5 180,-.5"/>
<text text-anchor="start" x="188" y="-18.5" font-family="Helvetica,sans-Serif" font-size="10.00" fill="#000000">Simulator::simulate</text>
<text text-anchor="middle" x="230.5" y="-7.5" font-family="Helvetica,sans-Serif" font-size="10.00" fill="#000000">_multi_2d</text>
</a>
</g>
</g>
<!-- Node43&#45;&gt;Node48 -->
<g id="edge6" class="edge">
<title>Node43&#45;&gt;Node48</title>
<path fill="none" stroke="#191970" d="M101.1091,-72.7383C128.4329,-60.6512 168.1147,-43.0972 196.3178,-30.6211"/>
<polygon fill="#191970" stroke="#191970" points="99.375,-69.6782 91.6457,-76.9246 102.2069,-76.0799 99.375,-69.6782"/>
</g>
<!-- Node46 -->
<g id="node4" class="node">
<title>Node46</title>
<g id="a_node4"><a xlink:href="fish__glue_8cpp.html#addebb0997b0e49067d8784c9954b7b96" target="_top" xlink:title="RCPP_MODULE">
<polygon fill="none" stroke="#000000" points="321,-55 321,-74 414,-74 414,-55 321,-55"/>
<text text-anchor="middle" x="367.5" y="-62" font-family="Helvetica,sans-Serif" font-size="10.00" fill="#000000">RCPP_MODULE</text>
</a>
</g>
</g>
<!-- Node45&#45;&gt;Node46 -->
<g id="edge3" class="edge">
<title>Node45&#45;&gt;Node46</title>
<path fill="none" stroke="#191970" d="M269.8015,-95.8776C291.4627,-88.9207 317.9162,-80.4247 337.8311,-74.0287"/>
<polygon fill="#191970" stroke="#191970" points="268.6777,-92.5624 260.227,-98.9527 270.8182,-99.2271 268.6777,-92.5624"/>
</g>
<!-- Node47&#45;&gt;Node46 -->
<g id="edge5" class="edge">
<title>Node47&#45;&gt;Node46</title>
<path fill="none" stroke="#191970" d="M291.2947,-64.5C301.1625,-64.5 311.2464,-64.5 320.7131,-64.5"/>
<polygon fill="#191970" stroke="#191970" points="291.1245,-61.0001 281.1245,-64.5 291.1245,-68.0001 291.1245,-61.0001"/>
</g>
<!-- Node48&#45;&gt;Node46 -->
<g id="edge7" class="edge">
<title>Node48&#45;&gt;Node46</title>
<path fill="none" stroke="#191970" d="M282.3007,-34.0272C302.2049,-41.1463 324.1124,-48.9818 340.728,-54.9246"/>
<polygon fill="#191970" stroke="#191970" points="283.317,-30.6737 272.7224,-30.6014 280.9595,-37.2648 283.317,-30.6737"/>
</g>
</g>
</svg>
