<?xml version="1.0" encoding="UTF-8" standalone="no"?>
<!DOCTYPE svg PUBLIC "-//W3C//DTD SVG 1.1//EN"
 "http://www.w3.org/Graphics/SVG/1.1/DTD/svg11.dtd">
<!-- Generated by graphviz version 2.40.1 (20161225.0304)
 -->
<!-- Title: Tensor::repeat_outer Pages: 1 -->
<svg width="394pt" height="88pt"
 viewBox="0.00 0.00 394.00 88.00" xmlns="http://www.w3.org/2000/svg" xmlns:xlink="http://www.w3.org/1999/xlink">
<g id="graph0" class="graph" transform="scale(1 1) rotate(0) translate(4 84)">
<title>Tensor::repeat_outer</title>
<!-- Node104 -->
<g id="node1" class="node">
<title>Node104</title>
<polygon fill="#bfbfbf" stroke="#000000" points="0,-30 0,-49 107,-49 107,-30 0,-30"/>
<text text-anchor="middle" x="53.5" y="-37" font-family="Helvetica,sans-Serif" font-size="10.00" fill="#000000">Tensor::repeat_outer</text>
</g>
<!-- Node105 -->
<g id="node2" class="node">
<title>Node105</title>
<g id="a_node2"><a xlink:href="classSimulator.html#a1b66b7260ff50758884d1f7361a1b988" target="_top" xlink:title="Simulator::stakeholder\l_satisfaction">
<polygon fill="none" stroke="#000000" points="143,-49.5 143,-79.5 257,-79.5 257,-49.5 143,-49.5"/>
<text text-anchor="start" x="151" y="-67.5" font-family="Helvetica,sans-Serif" font-size="10.00" fill="#000000">Simulator::stakeholder</text>
<text text-anchor="middle" x="200" y="-56.5" font-family="Helvetica,sans-Serif" font-size="10.00" fill="#000000">_satisfaction</text>
</a>
</g>
</g>
<!-- Node104&#45;&gt;Node105 -->
<g id="edge1" class="edge">
<title>Node104&#45;&gt;Node105</title>
<path fill="none" stroke="#191970" d="M117.1421,-50.3604C125.6886,-51.8189 134.4127,-53.3076 142.8381,-54.7454"/>
<polygon fill="#191970" stroke="#191970" points="117.6656,-46.8992 107.2193,-48.6671 116.488,-53.7995 117.6656,-46.8992"/>
</g>
<!-- Node107 -->
<g id="node4" class="node">
<title>Node107</title>
<g id="a_node4"><a xlink:href="classSimulator.html#aac842e5498b4c9731910ce9a93fa555d" target="_top" xlink:title="Simulator::stakeholder\l_satisfaction_2d">
<polygon fill="none" stroke="#000000" points="143,-.5 143,-30.5 257,-30.5 257,-.5 143,-.5"/>
<text text-anchor="start" x="151" y="-18.5" font-family="Helvetica,sans-Serif" font-size="10.00" fill="#000000">Simulator::stakeholder</text>
<text text-anchor="middle" x="200" y="-7.5" font-family="Helvetica,sans-Serif" font-size="10.00" fill="#000000">_satisfaction_2d</text>
</a>
</g>
</g>
<!-- Node104&#45;&gt;Node107 -->
<g id="edge3" class="edge">
<title>Node104&#45;&gt;Node107</title>
<path fill="none" stroke="#191970" d="M117.1421,-29.074C125.6886,-27.6739 134.4127,-26.2447 142.8381,-24.8644"/>
<polygon fill="#191970" stroke="#191970" points="116.5219,-25.6288 107.2193,-30.6996 117.6536,-32.5368 116.5219,-25.6288"/>
</g>
<!-- Node106 -->
<g id="node3" class="node">
<title>Node106</title>
<g id="a_node3"><a xlink:href="fish__glue_8cpp.html#addebb0997b0e49067d8784c9954b7b96" target="_top" xlink:title="RCPP_MODULE">
<polygon fill="none" stroke="#000000" points="293,-30 293,-49 386,-49 386,-30 293,-30"/>
<text text-anchor="middle" x="339.5" y="-37" font-family="Helvetica,sans-Serif" font-size="10.00" fill="#000000">RCPP_MODULE</text>
</a>
</g>
</g>
<!-- Node105&#45;&gt;Node106 -->
<g id="edge2" class="edge">
<title>Node105&#45;&gt;Node106</title>
<path fill="none" stroke="#191970" d="M267.2613,-52.446C275.9284,-50.8928 284.6468,-49.3303 292.8803,-47.8548"/>
<polygon fill="#191970" stroke="#191970" points="266.3682,-49.0502 257.1425,-54.2594 267.6031,-55.9404 266.3682,-49.0502"/>
</g>
<!-- Node107&#45;&gt;Node106 -->
<g id="edge4" class="edge">
<title>Node107&#45;&gt;Node106</title>
<path fill="none" stroke="#191970" d="M267.2613,-27.0718C275.9284,-28.5629 284.6468,-30.0629 292.8803,-31.4794"/>
<polygon fill="#191970" stroke="#191970" points="267.5912,-23.5772 257.1425,-25.331 266.4042,-30.4759 267.5912,-23.5772"/>
</g>
</g>
</svg>
