<?xml version="1.0" encoding="UTF-8" standalone="no"?>
<!DOCTYPE svg PUBLIC "-//W3C//DTD SVG 1.1//EN"
 "http://www.w3.org/Graphics/SVG/1.1/DTD/svg11.dtd">
<!-- Generated by graphviz version 2.40.1 (20161225.0304)
 -->
<!-- Title: FishParams::initFromFile Pages: 1 -->
<svg width="519pt" height="110pt"
 viewBox="0.00 0.00 519.00 109.50" xmlns="http://www.w3.org/2000/svg" xmlns:xlink="http://www.w3.org/1999/xlink">
<g id="graph0" class="graph" transform="scale(1 1) rotate(0) translate(4 105.5)">
<title>FishParams::initFromFile</title>
<!-- Node5 -->
<g id="node1" class="node">
<title>Node5</title>
<polygon fill="#bfbfbf" stroke="#000000" points="0,-44 0,-63 126,-63 126,-44 0,-44"/>
<text text-anchor="middle" x="63" y="-51" font-family="Helvetica,sans-Serif" font-size="10.00" fill="#000000">FishParams::initFromFile</text>
</g>
<!-- Node6 -->
<g id="node2" class="node">
<title>Node6</title>
<g id="a_node2"><a xlink:href="classio_1_1Initializer.html#a6c174190ba99677aac35c5c7e92b69b8" target="_top" xlink:title="io::Initializer::parse">
<polygon fill="none" stroke="#000000" points="162,-82 162,-101 261,-101 261,-82 162,-82"/>
<text text-anchor="middle" x="211.5" y="-89" font-family="Helvetica,sans-Serif" font-size="10.00" fill="#000000">io::Initializer::parse</text>
</a>
</g>
</g>
<!-- Node5&#45;&gt;Node6 -->
<g id="edge1" class="edge">
<title>Node5&#45;&gt;Node6</title>
<path fill="none" stroke="#191970" d="M100.4728,-63.089C119.8925,-68.0583 143.8025,-74.1767 164.4542,-79.4613"/>
<polygon fill="#191970" stroke="#191970" points="163.7411,-82.8916 174.2966,-81.9799 165.4765,-76.1101 163.7411,-82.8916"/>
</g>
<!-- Node7 -->
<g id="node3" class="node">
<title>Node7</title>
<g id="a_node3"><a xlink:href="namespacefish.html#a7f532daff6b69774cc75d40ed18aad31" target="_top" xlink:title="Calculate effective GSI, given the initial and final body lengths. . ">
<polygon fill="none" stroke="#000000" points="186,-44 186,-63 237,-63 237,-44 186,-44"/>
<text text-anchor="middle" x="211.5" y="-51" font-family="Helvetica,sans-Serif" font-size="10.00" fill="#000000">fish::gsi</text>
</a>
</g>
</g>
<!-- Node5&#45;&gt;Node7 -->
<g id="edge2" class="edge">
<title>Node5&#45;&gt;Node7</title>
<path fill="none" stroke="#191970" d="M126.4081,-53.5C143.2818,-53.5 160.9189,-53.5 175.7321,-53.5"/>
<polygon fill="#191970" stroke="#191970" points="175.968,-57.0001 185.968,-53.5 175.9679,-50.0001 175.968,-57.0001"/>
</g>
<!-- Node8 -->
<g id="node4" class="node">
<title>Node8</title>
<g id="a_node4"><a xlink:href="classio_1_1Initializer.html#a098a8511a950a4449925c8315af36bdb" target="_top" xlink:title="io::Initializer::get">
<polygon fill="none" stroke="#000000" points="167,-6 167,-25 256,-25 256,-6 167,-6"/>
<text text-anchor="middle" x="211.5" y="-13" font-family="Helvetica,sans-Serif" font-size="10.00" fill="#000000">io::Initializer::get</text>
</a>
</g>
</g>
<!-- Node5&#45;&gt;Node8 -->
<g id="edge3" class="edge">
<title>Node5&#45;&gt;Node8</title>
<path fill="none" stroke="#191970" d="M100.4728,-43.911C119.8925,-38.9417 143.8025,-32.8233 164.4542,-27.5387"/>
<polygon fill="#191970" stroke="#191970" points="165.4765,-30.8899 174.2966,-25.0201 163.7411,-24.1084 165.4765,-30.8899"/>
</g>
<!-- Node9 -->
<g id="node5" class="node">
<title>Node9</title>
<g id="a_node5"><a xlink:href="classio_1_1Initializer.html#a06fe79d6d19f76180836e03e3ad6b7fb" target="_top" xlink:title="io::Initializer::get\l_value">
<polygon fill="none" stroke="#000000" points="297,-.5 297,-30.5 386,-30.5 386,-.5 297,-.5"/>
<text text-anchor="start" x="305" y="-18.5" font-family="Helvetica,sans-Serif" font-size="10.00" fill="#000000">io::Initializer::get</text>
<text text-anchor="middle" x="341.5" y="-7.5" font-family="Helvetica,sans-Serif" font-size="10.00" fill="#000000">_value</text>
</a>
</g>
</g>
<!-- Node8&#45;&gt;Node9 -->
<g id="edge4" class="edge">
<title>Node8&#45;&gt;Node9</title>
<path fill="none" stroke="#191970" d="M256.2386,-15.5C265.9415,-15.5 276.3137,-15.5 286.3638,-15.5"/>
<polygon fill="#191970" stroke="#191970" points="286.6789,-19.0001 296.6789,-15.5 286.6789,-12.0001 286.6789,-19.0001"/>
</g>
<!-- Node10 -->
<g id="node6" class="node">
<title>Node10</title>
<g id="a_node6"><a xlink:href="classio_1_1Initializer.html#a310526fc5b0c2c257bee66d6f48fa4ae" target="_top" xlink:title="io::Initializer::get\l_section">
<polygon fill="none" stroke="#000000" points="422,-.5 422,-30.5 511,-30.5 511,-.5 422,-.5"/>
<text text-anchor="start" x="430" y="-18.5" font-family="Helvetica,sans-Serif" font-size="10.00" fill="#000000">io::Initializer::get</text>
<text text-anchor="middle" x="466.5" y="-7.5" font-family="Helvetica,sans-Serif" font-size="10.00" fill="#000000">_section</text>
</a>
</g>
</g>
<!-- Node9&#45;&gt;Node10 -->
<g id="edge5" class="edge">
<title>Node9&#45;&gt;Node10</title>
<path fill="none" stroke="#191970" d="M386.2748,-15.5C394.4426,-15.5 403.0507,-15.5 411.475,-15.5"/>
<polygon fill="#191970" stroke="#191970" points="411.6177,-19.0001 421.6177,-15.5 411.6176,-12.0001 411.6177,-19.0001"/>
</g>
</g>
</svg>
