<?xml version="1.0" encoding="UTF-8" standalone="no"?>
<!DOCTYPE svg PUBLIC "-//W3C//DTD SVG 1.1//EN"
 "http://www.w3.org/Graphics/SVG/1.1/DTD/svg11.dtd">
<!-- Generated by graphviz version 2.40.1 (20161225.0304)
 -->
<!-- Title: Simulator::simulate_multi_2d Pages: 1 -->
<svg width="534pt" height="218pt"
 viewBox="0.00 0.00 534.00 218.00" xmlns="http://www.w3.org/2000/svg" xmlns:xlink="http://www.w3.org/1999/xlink">
<g id="graph0" class="graph" transform="scale(1 1) rotate(0) translate(4 214)">
<title>Simulator::simulate_multi_2d</title>
<!-- Node35 -->
<g id="node1" class="node">
<title>Node35</title>
<polygon fill="#bfbfbf" stroke="#000000" points="0,-90 0,-120 101,-120 101,-90 0,-90"/>
<text text-anchor="start" x="8" y="-108" font-family="Helvetica,sans-Serif" font-size="10.00" fill="#000000">Simulator::simulate</text>
<text text-anchor="middle" x="50.5" y="-97" font-family="Helvetica,sans-Serif" font-size="10.00" fill="#000000">_multi_2d</text>
</g>
<!-- Node36 -->
<g id="node2" class="node">
<title>Node36</title>
<g id="a_node2"><a xlink:href="classPopulation.html#a20696fa511c914e7c8837acb2a254b33" target="_top" xlink:title="Population::set_harvestProp">
<polygon fill="none" stroke="#000000" points="138.5,-190.5 138.5,-209.5 278.5,-209.5 278.5,-190.5 138.5,-190.5"/>
<text text-anchor="middle" x="208.5" y="-197.5" font-family="Helvetica,sans-Serif" font-size="10.00" fill="#000000">Population::set_harvestProp</text>
</a>
</g>
</g>
<!-- Node35&#45;&gt;Node36 -->
<g id="edge1" class="edge">
<title>Node35&#45;&gt;Node36</title>
<path fill="none" stroke="#191970" d="M63.6339,-120.1613C79.3788,-137.3972 107.3727,-165.1856 137,-181 141.2384,-183.2624 145.7648,-185.2693 150.4045,-187.047"/>
<polygon fill="#191970" stroke="#191970" points="149.4364,-190.4157 160.0312,-190.3828 151.7284,-183.8015 149.4364,-190.4157"/>
</g>
<!-- Node37 -->
<g id="node3" class="node">
<title>Node37</title>
<g id="a_node3"><a xlink:href="classPopulation.html#a343a346cae1413da400c042868c15859" target="_top" xlink:title="Population::set_minSizeLimit">
<polygon fill="none" stroke="#000000" points="137,-152.5 137,-171.5 280,-171.5 280,-152.5 137,-152.5"/>
<text text-anchor="middle" x="208.5" y="-159.5" font-family="Helvetica,sans-Serif" font-size="10.00" fill="#000000">Population::set_minSizeLimit</text>
</a>
</g>
</g>
<!-- Node35&#45;&gt;Node37 -->
<g id="edge2" class="edge">
<title>Node35&#45;&gt;Node37</title>
<path fill="none" stroke="#191970" d="M81.6668,-120.0847C97.9193,-127.5925 118.2681,-136.4406 137,-143 143.8339,-145.3931 151.1253,-147.6535 158.3414,-149.7238"/>
<polygon fill="#191970" stroke="#191970" points="157.5131,-153.1261 168.0846,-152.4235 159.3823,-146.3803 157.5131,-153.1261"/>
</g>
<!-- Node38 -->
<g id="node4" class="node">
<title>Node38</title>
<g id="a_node4"><a xlink:href="classPopulation.html#a42c4b04852bdda937e50f82952106af1" target="_top" xlink:title="Population::fishableBiomass">
<polygon fill="none" stroke="#000000" points="138.5,-114.5 138.5,-133.5 278.5,-133.5 278.5,-114.5 138.5,-114.5"/>
<text text-anchor="middle" x="208.5" y="-121.5" font-family="Helvetica,sans-Serif" font-size="10.00" fill="#000000">Population::fishableBiomass</text>
</a>
</g>
</g>
<!-- Node35&#45;&gt;Node38 -->
<g id="edge3" class="edge">
<title>Node35&#45;&gt;Node38</title>
<path fill="none" stroke="#191970" d="M101.3619,-111.1163C110.0406,-112.1599 119.2404,-113.2662 128.4591,-114.3748"/>
<polygon fill="#191970" stroke="#191970" points="128.0996,-117.8567 138.446,-115.5758 128.9354,-110.9068 128.0996,-117.8567"/>
</g>
<!-- Node39 -->
<g id="node5" class="node">
<title>Node39</title>
<g id="a_node5"><a xlink:href="classPopulation.html#a5440cd360f9b6af954085b442327633b" target="_top" xlink:title="Population::init">
<polygon fill="none" stroke="#000000" points="168,-76.5 168,-95.5 249,-95.5 249,-76.5 168,-76.5"/>
<text text-anchor="middle" x="208.5" y="-83.5" font-family="Helvetica,sans-Serif" font-size="10.00" fill="#000000">Population::init</text>
</a>
</g>
</g>
<!-- Node35&#45;&gt;Node39 -->
<g id="edge4" class="edge">
<title>Node35&#45;&gt;Node39</title>
<path fill="none" stroke="#191970" d="M101.3619,-98.8837C119.4694,-96.7062 139.8457,-94.2559 157.9288,-92.0813"/>
<polygon fill="#191970" stroke="#191970" points="158.4817,-95.5402 167.9922,-90.8712 157.6458,-88.5902 158.4817,-95.5402"/>
</g>
<!-- Node40 -->
<g id="node6" class="node">
<title>Node40</title>
<g id="a_node6"><a xlink:href="classPopulation.html#a345497aa32fe22f73153a59f469c6a19" target="_top" xlink:title="Population::print_summary">
<polygon fill="none" stroke="#000000" points="142,-38.5 142,-57.5 275,-57.5 275,-38.5 142,-38.5"/>
<text text-anchor="middle" x="208.5" y="-45.5" font-family="Helvetica,sans-Serif" font-size="10.00" fill="#000000">Population::print_summary</text>
</a>
</g>
</g>
<!-- Node35&#45;&gt;Node40 -->
<g id="edge5" class="edge">
<title>Node35&#45;&gt;Node40</title>
<path fill="none" stroke="#191970" d="M81.6668,-89.9153C97.9193,-82.4075 118.2681,-73.5594 137,-67 143.8339,-64.6069 151.1253,-62.3465 158.3414,-60.2762"/>
<polygon fill="#191970" stroke="#191970" points="159.3823,-63.6197 168.0846,-57.5765 157.5131,-56.8739 159.3823,-63.6197"/>
</g>
<!-- Node41 -->
<g id="node7" class="node">
<title>Node41</title>
<g id="a_node7"><a xlink:href="classPopulation.html#aa404f725dcde475806cdb26704b9fbcf" target="_top" xlink:title="Population::update">
<polygon fill="none" stroke="#000000" points="159.5,-.5 159.5,-19.5 257.5,-19.5 257.5,-.5 159.5,-.5"/>
<text text-anchor="middle" x="208.5" y="-7.5" font-family="Helvetica,sans-Serif" font-size="10.00" fill="#000000">Population::update</text>
</a>
</g>
</g>
<!-- Node35&#45;&gt;Node41 -->
<g id="edge6" class="edge">
<title>Node35&#45;&gt;Node41</title>
<path fill="none" stroke="#191970" d="M63.6339,-89.8387C79.3788,-72.6028 107.3727,-44.8144 137,-29 141.2384,-26.7376 145.7648,-24.7307 150.4045,-22.953"/>
<polygon fill="#191970" stroke="#191970" points="151.7284,-26.1985 160.0312,-19.6172 149.4364,-19.5843 151.7284,-26.1985"/>
</g>
<!-- Node42 -->
<g id="node8" class="node">
<title>Node42</title>
<g id="a_node8"><a xlink:href="namespacepn.html#ad42003887dcc42a4758c69775f83a8d9" target="_top" xlink:title="pn::zero">
<polygon fill="none" stroke="#000000" points="316,-.5 316,-19.5 368,-19.5 368,-.5 316,-.5"/>
<text text-anchor="middle" x="342" y="-7.5" font-family="Helvetica,sans-Serif" font-size="10.00" fill="#000000">pn::zero</text>
</a>
</g>
</g>
<!-- Node41&#45;&gt;Node42 -->
<g id="edge7" class="edge">
<title>Node41&#45;&gt;Node42</title>
<path fill="none" stroke="#191970" d="M257.8312,-10C273.6101,-10 290.7853,-10 305.4817,-10"/>
<polygon fill="#191970" stroke="#191970" points="305.6895,-13.5001 315.6894,-10 305.6894,-6.5001 305.6895,-13.5001"/>
</g>
<!-- Node43 -->
<g id="node9" class="node">
<title>Node43</title>
<g id="a_node9"><a xlink:href="structpn_1_1BrentRes.html#a4fa42a440c4b9dc765ea7f0d7fd3a412" target="_top" xlink:title="pn::BrentRes::BrentRes">
<polygon fill="none" stroke="#000000" points="404,-.5 404,-19.5 526,-19.5 526,-.5 404,-.5"/>
<text text-anchor="middle" x="465" y="-7.5" font-family="Helvetica,sans-Serif" font-size="10.00" fill="#000000">pn::BrentRes::BrentRes</text>
</a>
</g>
</g>
<!-- Node42&#45;&gt;Node43 -->
<g id="edge8" class="edge">
<title>Node42&#45;&gt;Node43</title>
<path fill="none" stroke="#191970" d="M368.0851,-10C375.7193,-10 384.458,-10 393.4927,-10"/>
<polygon fill="#191970" stroke="#191970" points="393.7759,-13.5001 403.7759,-10 393.7759,-6.5001 393.7759,-13.5001"/>
</g>
</g>
</svg>
