<?xml version="1.0" encoding="UTF-8" standalone="no"?>
<!DOCTYPE svg PUBLIC "-//W3C//DTD SVG 1.1//EN"
 "http://www.w3.org/Graphics/SVG/1.1/DTD/svg11.dtd">
<!-- Generated by graphviz version 2.40.1 (20161225.0304)
 -->
<!-- Title: io::Initializer Pages: 1 -->
<svg width="345pt" height="376pt"
 viewBox="0.00 0.00 345.00 376.00" xmlns="http://www.w3.org/2000/svg" xmlns:xlink="http://www.w3.org/1999/xlink">
<g id="graph0" class="graph" transform="scale(1 1) rotate(0) translate(4 372)">
<title>io::Initializer</title>
<!-- Node1 -->
<g id="node1" class="node">
<title>Node1</title>
<polygon fill="#bfbfbf" stroke="#000000" points="80.5,-.5 80.5,-19.5 149.5,-19.5 149.5,-.5 80.5,-.5"/>
<text text-anchor="middle" x="115" y="-7.5" font-family="Helvetica,sans-Serif" font-size="10.00" fill="#000000">io::Initializer</text>
</g>
<!-- Node2 -->
<g id="node2" class="node">
<title>Node2</title>
<g id="a_node2"><a xlink:title="STL class. ">
<polygon fill="none" stroke="#bfbfbf" points="24.5,-73 24.5,-92 95.5,-92 95.5,-73 24.5,-73"/>
<text text-anchor="middle" x="60" y="-80" font-family="Helvetica,sans-Serif" font-size="10.00" fill="#000000">std::ifstream</text>
</a>
</g>
</g>
<!-- Node2&#45;&gt;Node1 -->
<g id="edge1" class="edge">
<title>Node2&#45;&gt;Node1</title>
<path fill="none" stroke="#9a32cd" stroke-dasharray="5,2" d="M73.5411,-64.6503C84.3273,-50.4322 99.0122,-31.0748 107.7,-19.6228"/>
<polygon fill="#9a32cd" stroke="#9a32cd" points="70.673,-62.64 67.4175,-72.7223 76.2499,-66.8708 70.673,-62.64"/>
<text text-anchor="middle" x="100" y="-41" font-family="Helvetica,sans-Serif" font-size="10.00" fill="#000000"> fin</text>
</g>
<!-- Node3 -->
<g id="node3" class="node">
<title>Node3</title>
<g id="a_node3"><a xlink:title="STL class. ">
<polygon fill="none" stroke="#bfbfbf" points="9,-145.5 9,-175.5 109,-175.5 109,-145.5 9,-145.5"/>
<text text-anchor="start" x="17" y="-163.5" font-family="Helvetica,sans-Serif" font-size="10.00" fill="#000000">std::basic_ifstream</text>
<text text-anchor="middle" x="59" y="-152.5" font-family="Helvetica,sans-Serif" font-size="10.00" fill="#000000">&lt; char &gt;</text>
</a>
</g>
</g>
<!-- Node3&#45;&gt;Node2 -->
<g id="edge2" class="edge">
<title>Node3&#45;&gt;Node2</title>
<path fill="none" stroke="#191970" d="M59.3218,-135.3962C59.5111,-120.6331 59.7396,-102.8138 59.8771,-92.0839"/>
<polygon fill="#191970" stroke="#191970" points="55.8214,-135.4167 59.1928,-145.4608 62.8208,-135.5065 55.8214,-135.4167"/>
</g>
<!-- Node4 -->
<g id="node4" class="node">
<title>Node4</title>
<g id="a_node4"><a xlink:title="STL class. ">
<polygon fill="none" stroke="#bfbfbf" points="9.5,-223.5 9.5,-253.5 106.5,-253.5 106.5,-223.5 9.5,-223.5"/>
<text text-anchor="start" x="17.5" y="-241.5" font-family="Helvetica,sans-Serif" font-size="10.00" fill="#000000">std::basic_istream</text>
<text text-anchor="middle" x="58" y="-230.5" font-family="Helvetica,sans-Serif" font-size="10.00" fill="#000000">&lt; Char &gt;</text>
</a>
</g>
</g>
<!-- Node4&#45;&gt;Node3 -->
<g id="edge3" class="edge">
<title>Node4&#45;&gt;Node3</title>
<path fill="none" stroke="#191970" d="M58.3232,-213.2875C58.4818,-200.9187 58.6676,-186.4264 58.8044,-175.7592"/>
<polygon fill="#191970" stroke="#191970" points="54.8214,-213.4167 58.1928,-223.4608 61.8208,-213.5065 54.8214,-213.4167"/>
</g>
<!-- Node5 -->
<g id="node5" class="node">
<title>Node5</title>
<g id="a_node5"><a xlink:title="STL class. ">
<polygon fill="none" stroke="#bfbfbf" points="0,-291.5 0,-310.5 116,-310.5 116,-291.5 0,-291.5"/>
<text text-anchor="middle" x="58" y="-298.5" font-family="Helvetica,sans-Serif" font-size="10.00" fill="#000000">std::basic_ios&lt; Char &gt;</text>
</a>
</g>
</g>
<!-- Node5&#45;&gt;Node4 -->
<g id="edge4" class="edge">
<title>Node5&#45;&gt;Node4</title>
<path fill="none" stroke="#191970" d="M58,-281.0501C58,-272.2205 58,-262.0001 58,-253.7892"/>
<polygon fill="#191970" stroke="#191970" points="54.5001,-281.2343 58,-291.2344 61.5001,-281.2344 54.5001,-281.2343"/>
</g>
<!-- Node6 -->
<g id="node6" class="node">
<title>Node6</title>
<g id="a_node6"><a xlink:title="STL class. ">
<polygon fill="none" stroke="#bfbfbf" points="20.5,-348.5 20.5,-367.5 95.5,-367.5 95.5,-348.5 20.5,-348.5"/>
<text text-anchor="middle" x="58" y="-355.5" font-family="Helvetica,sans-Serif" font-size="10.00" fill="#000000">std::ios_base</text>
</a>
</g>
</g>
<!-- Node6&#45;&gt;Node5 -->
<g id="edge5" class="edge">
<title>Node6&#45;&gt;Node5</title>
<path fill="none" stroke="#191970" d="M58,-338.2342C58,-328.8491 58,-318.0651 58,-310.5265"/>
<polygon fill="#191970" stroke="#191970" points="54.5001,-338.3307 58,-348.3307 61.5001,-338.3308 54.5001,-338.3307"/>
</g>
<!-- Node7 -->
<g id="node7" class="node">
<title>Node7</title>
<polygon fill="none" stroke="#bfbfbf" points="114,-67.5 114,-97.5 230,-97.5 230,-67.5 114,-67.5"/>
<text text-anchor="start" x="122" y="-85.5" font-family="Helvetica,sans-Serif" font-size="10.00" fill="#000000">std::unordered_map</text>
<text text-anchor="middle" x="172" y="-74.5" font-family="Helvetica,sans-Serif" font-size="10.00" fill="#000000">&lt; std::string, section &gt;</text>
</g>
<!-- Node7&#45;&gt;Node1 -->
<g id="edge6" class="edge">
<title>Node7&#45;&gt;Node1</title>
<path fill="none" stroke="#9a32cd" stroke-dasharray="5,2" d="M153.9956,-59.5997C143.4891,-46.2361 130.7705,-30.0589 122.78,-19.8957"/>
<polygon fill="#9a32cd" stroke="#9a32cd" points="151.2575,-61.7799 160.1896,-67.478 156.7604,-57.4534 151.2575,-61.7799"/>
<text text-anchor="middle" x="166" y="-41" font-family="Helvetica,sans-Serif" font-size="10.00" fill="#000000"> sections</text>
</g>
<!-- Node8 -->
<g id="node8" class="node">
<title>Node8</title>
<g id="a_node8"><a xlink:title="STL class. ">
<polygon fill="none" stroke="#bfbfbf" points="142,-151 142,-170 202,-170 202,-151 142,-151"/>
<text text-anchor="middle" x="172" y="-158" font-family="Helvetica,sans-Serif" font-size="10.00" fill="#000000">std::string</text>
</a>
</g>
</g>
<!-- Node8&#45;&gt;Node7 -->
<g id="edge7" class="edge">
<title>Node8&#45;&gt;Node7</title>
<path fill="none" stroke="#9a32cd" stroke-dasharray="5,2" d="M172,-140.8751C172,-127.5215 172,-110.1052 172,-97.7824"/>
<polygon fill="#9a32cd" stroke="#9a32cd" points="168.5001,-140.9356 172,-150.9357 175.5001,-140.9357 168.5001,-140.9356"/>
<text text-anchor="middle" x="184.5" y="-119" font-family="Helvetica,sans-Serif" font-size="10.00" fill="#000000"> keys</text>
</g>
<!-- Node9 -->
<g id="node9" class="node">
<title>Node9</title>
<g id="a_node9"><a xlink:title="STL class. ">
<polygon fill="none" stroke="#bfbfbf" points="124.5,-223.5 124.5,-253.5 219.5,-253.5 219.5,-223.5 124.5,-223.5"/>
<text text-anchor="start" x="132.5" y="-241.5" font-family="Helvetica,sans-Serif" font-size="10.00" fill="#000000">std::basic_string&lt;</text>
<text text-anchor="middle" x="172" y="-230.5" font-family="Helvetica,sans-Serif" font-size="10.00" fill="#000000"> char &gt;</text>
</a>
</g>
</g>
<!-- Node9&#45;&gt;Node8 -->
<g id="edge8" class="edge">
<title>Node9&#45;&gt;Node8</title>
<path fill="none" stroke="#191970" d="M172,-213.3962C172,-198.6331 172,-180.8138 172,-170.0839"/>
<polygon fill="#191970" stroke="#191970" points="168.5001,-213.4608 172,-223.4608 175.5001,-213.4609 168.5001,-213.4608"/>
</g>
<!-- Node10 -->
<g id="node10" class="node">
<title>Node10</title>
<g id="a_node10"><a xlink:title="STL class. ">
<polygon fill="none" stroke="#bfbfbf" points="220.5,-145.5 220.5,-175.5 323.5,-175.5 323.5,-145.5 220.5,-145.5"/>
<text text-anchor="start" x="228.5" y="-163.5" font-family="Helvetica,sans-Serif" font-size="10.00" fill="#000000">std::unordered_map</text>
<text text-anchor="middle" x="272" y="-152.5" font-family="Helvetica,sans-Serif" font-size="10.00" fill="#000000">&lt; K, T &gt;</text>
</a>
</g>
</g>
<!-- Node10&#45;&gt;Node7 -->
<g id="edge9" class="edge">
<title>Node10&#45;&gt;Node7</title>
<path fill="none" stroke="#9a32cd" stroke-dasharray="5,2" d="M244.3903,-138.9644C227.6224,-125.8854 206.6204,-109.5039 191.563,-97.7592"/>
<polygon fill="#9a32cd" stroke="#9a32cd" points="242.6813,-142.0702 252.719,-145.4608 246.9866,-136.5507 242.6813,-142.0702"/>
<text text-anchor="middle" x="249.5" y="-119" font-family="Helvetica,sans-Serif" font-size="10.00" fill="#000000"> elements</text>
</g>
<!-- Node11 -->
<g id="node11" class="node">
<title>Node11</title>
<polygon fill="none" stroke="#bfbfbf" points="247.5,-229 247.5,-248 276.5,-248 276.5,-229 247.5,-229"/>
<text text-anchor="middle" x="262" y="-236" font-family="Helvetica,sans-Serif" font-size="10.00" fill="#000000">K</text>
</g>
<!-- Node11&#45;&gt;Node10 -->
<g id="edge10" class="edge">
<title>Node11&#45;&gt;Node10</title>
<path fill="none" stroke="#9a32cd" stroke-dasharray="5,2" d="M261.4311,-218.6592C261.4741,-210.9293 261.85,-202.0175 263,-194 263.8721,-187.9196 265.4781,-181.3663 267.0946,-175.6822"/>
<polygon fill="#9a32cd" stroke="#9a32cd" points="257.9341,-218.94 261.555,-228.8968 264.9336,-218.8552 257.9341,-218.94"/>
<text text-anchor="middle" x="275.5" y="-197" font-family="Helvetica,sans-Serif" font-size="10.00" fill="#000000"> keys</text>
</g>
<!-- Node12 -->
<g id="node12" class="node">
<title>Node12</title>
<polygon fill="none" stroke="#bfbfbf" points="295.5,-229 295.5,-248 324.5,-248 324.5,-229 295.5,-229"/>
<text text-anchor="middle" x="310" y="-236" font-family="Helvetica,sans-Serif" font-size="10.00" fill="#000000">T</text>
</g>
<!-- Node12&#45;&gt;Node10 -->
<g id="edge11" class="edge">
<title>Node12&#45;&gt;Node10</title>
<path fill="none" stroke="#9a32cd" stroke-dasharray="5,2" d="M300.8271,-219.6714C294.2739,-206.2202 285.5688,-188.3517 279.4453,-175.7824"/>
<polygon fill="#9a32cd" stroke="#9a32cd" points="297.8142,-221.4787 305.3405,-228.9357 304.1072,-218.4128 297.8142,-221.4787"/>
<text text-anchor="middle" x="315.5" y="-197" font-family="Helvetica,sans-Serif" font-size="10.00" fill="#000000"> elements</text>
</g>
</g>
</svg>
