<?xml version="1.0" encoding="UTF-8" standalone="no"?>
<!DOCTYPE svg PUBLIC "-//W3C//DTD SVG 1.1//EN"
 "http://www.w3.org/Graphics/SVG/1.1/DTD/svg11.dtd">
<!-- Generated by graphviz version 2.40.1 (20161225.0304)
 -->
<!-- Title: Tensor::accumulate_dim Pages: 1 -->
<svg width="678pt" height="186pt"
 viewBox="0.00 0.00 678.00 186.00" xmlns="http://www.w3.org/2000/svg" xmlns:xlink="http://www.w3.org/1999/xlink">
<g id="graph0" class="graph" transform="scale(1 1) rotate(0) translate(4 182)">
<title>Tensor::accumulate_dim</title>
<!-- Node15 -->
<g id="node1" class="node">
<title>Node15</title>
<polygon fill="#bfbfbf" stroke="#000000" points="0,-117 0,-136 124,-136 124,-117 0,-117"/>
<text text-anchor="middle" x="62" y="-124" font-family="Helvetica,sans-Serif" font-size="10.00" fill="#000000">Tensor::accumulate_dim</text>
</g>
<!-- Node16 -->
<g id="node2" class="node">
<title>Node16</title>
<g id="a_node2"><a xlink:href="classTensor.html#a447f65c9ada7c9357091fba66ad73d10" target="_top" xlink:title="Tensor::accumulate">
<polygon fill="none" stroke="#000000" points="160,-117 160,-136 263,-136 263,-117 160,-117"/>
<text text-anchor="middle" x="211.5" y="-124" font-family="Helvetica,sans-Serif" font-size="10.00" fill="#000000">Tensor::accumulate</text>
</a>
</g>
</g>
<!-- Node15&#45;&gt;Node16 -->
<g id="edge1" class="edge">
<title>Node15&#45;&gt;Node16</title>
<path fill="none" stroke="#191970" d="M134.197,-126.5C142.8374,-126.5 151.5232,-126.5 159.7922,-126.5"/>
<polygon fill="#191970" stroke="#191970" points="134.1027,-123.0001 124.1027,-126.5 134.1026,-130.0001 134.1027,-123.0001"/>
</g>
<!-- Node17 -->
<g id="node3" class="node">
<title>Node17</title>
<g id="a_node3"><a xlink:href="classTensor.html#abf7346c2dbd5e6b195cfe9b66e5049e8" target="_top" xlink:title="Tensor::max_dim">
<polygon fill="none" stroke="#000000" points="299,-136 299,-155 391,-155 391,-136 299,-136"/>
<text text-anchor="middle" x="345" y="-143" font-family="Helvetica,sans-Serif" font-size="10.00" fill="#000000">Tensor::max_dim</text>
</a>
</g>
</g>
<!-- Node16&#45;&gt;Node17 -->
<g id="edge2" class="edge">
<title>Node16&#45;&gt;Node17</title>
<path fill="none" stroke="#191970" d="M273.1417,-135.273C281.7575,-136.4992 290.4875,-137.7417 298.753,-138.918"/>
<polygon fill="#191970" stroke="#191970" points="273.508,-131.7899 263.1146,-133.8459 272.5216,-138.7201 273.508,-131.7899"/>
</g>
<!-- Node18 -->
<g id="node4" class="node">
<title>Node18</title>
<g id="a_node4"><a xlink:href="classSimulator.html#a1b66b7260ff50758884d1f7361a1b988" target="_top" xlink:title="Simulator::stakeholder\l_satisfaction">
<polygon fill="none" stroke="#000000" points="427,-147.5 427,-177.5 541,-177.5 541,-147.5 427,-147.5"/>
<text text-anchor="start" x="435" y="-165.5" font-family="Helvetica,sans-Serif" font-size="10.00" fill="#000000">Simulator::stakeholder</text>
<text text-anchor="middle" x="484" y="-154.5" font-family="Helvetica,sans-Serif" font-size="10.00" fill="#000000">_satisfaction</text>
</a>
</g>
</g>
<!-- Node16&#45;&gt;Node18 -->
<g id="edge14" class="edge">
<title>Node16&#45;&gt;Node18</title>
<path fill="none" stroke="#191970" d="M237.1497,-140.9751C254.1153,-149.6963 277.1764,-159.9657 299,-164.5 341.1408,-173.2556 389.853,-172.2972 426.7111,-169.3952"/>
<polygon fill="#191970" stroke="#191970" points="238.3939,-137.673 227.9204,-136.0742 235.1109,-143.8554 238.3939,-137.673"/>
</g>
<!-- Node20 -->
<g id="node6" class="node">
<title>Node20</title>
<g id="a_node6"><a xlink:href="classSimulator.html#aac842e5498b4c9731910ce9a93fa555d" target="_top" xlink:title="Simulator::stakeholder\l_satisfaction_2d">
<polygon fill="none" stroke="#000000" points="427,-98.5 427,-128.5 541,-128.5 541,-98.5 427,-98.5"/>
<text text-anchor="start" x="435" y="-116.5" font-family="Helvetica,sans-Serif" font-size="10.00" fill="#000000">Simulator::stakeholder</text>
<text text-anchor="middle" x="484" y="-105.5" font-family="Helvetica,sans-Serif" font-size="10.00" fill="#000000">_satisfaction_2d</text>
</a>
</g>
</g>
<!-- Node16&#45;&gt;Node20 -->
<g id="edge15" class="edge">
<title>Node16&#45;&gt;Node20</title>
<path fill="none" stroke="#191970" d="M273.2494,-123.5542C319.4004,-121.3525 382.0184,-118.3652 426.9872,-116.2199"/>
<polygon fill="#191970" stroke="#191970" points="272.8974,-120.0669 263.0755,-124.0395 273.231,-127.0589 272.8974,-120.0669"/>
</g>
<!-- Node21 -->
<g id="node7" class="node">
<title>Node21</title>
<g id="a_node7"><a xlink:href="classTensor.html#a6c8465a488ce260e6e05f1a3ceb8ab26" target="_top" xlink:title="Tensor::avg_dim">
<polygon fill="none" stroke="#000000" points="300.5,-60 300.5,-79 389.5,-79 389.5,-60 300.5,-60"/>
<text text-anchor="middle" x="345" y="-67" font-family="Helvetica,sans-Serif" font-size="10.00" fill="#000000">Tensor::avg_dim</text>
</a>
</g>
</g>
<!-- Node16&#45;&gt;Node21 -->
<g id="edge7" class="edge">
<title>Node16&#45;&gt;Node21</title>
<path fill="none" stroke="#191970" d="M243.0699,-113.0207C267.5251,-102.5792 300.8011,-88.3715 322.5822,-79.0716"/>
<polygon fill="#191970" stroke="#191970" points="241.6673,-109.8138 233.8449,-116.9595 244.4161,-116.2516 241.6673,-109.8138"/>
</g>
<!-- Node17&#45;&gt;Node18 -->
<g id="edge3" class="edge">
<title>Node17&#45;&gt;Node18</title>
<path fill="none" stroke="#191970" d="M401.3474,-152.3914C409.7328,-153.417 418.3833,-154.4749 426.7864,-155.5026"/>
<polygon fill="#191970" stroke="#191970" points="401.6359,-148.9007 391.285,-151.1608 400.7861,-155.8489 401.6359,-148.9007"/>
</g>
<!-- Node17&#45;&gt;Node20 -->
<g id="edge5" class="edge">
<title>Node17&#45;&gt;Node20</title>
<path fill="none" stroke="#191970" d="M396.1218,-133.7309C406.132,-131.4265 416.6901,-128.9958 426.8812,-126.6496"/>
<polygon fill="#191970" stroke="#191970" points="395.2881,-130.3312 386.3282,-135.9856 396.8586,-137.1528 395.2881,-130.3312"/>
</g>
<!-- Node19 -->
<g id="node5" class="node">
<title>Node19</title>
<g id="a_node5"><a xlink:href="fish__glue_8cpp.html#addebb0997b0e49067d8784c9954b7b96" target="_top" xlink:title="RCPP_MODULE">
<polygon fill="none" stroke="#000000" points="577,-79 577,-98 670,-98 670,-79 577,-79"/>
<text text-anchor="middle" x="623.5" y="-86" font-family="Helvetica,sans-Serif" font-size="10.00" fill="#000000">RCPP_MODULE</text>
</a>
</g>
</g>
<!-- Node18&#45;&gt;Node19 -->
<g id="edge4" class="edge">
<title>Node18&#45;&gt;Node19</title>
<path fill="none" stroke="#191970" d="M531.3739,-143.1858C534.6566,-141.654 537.893,-140.0849 541,-138.5 565.7659,-125.867 593.1024,-108.5939 609.2624,-98.0101"/>
<polygon fill="#191970" stroke="#191970" points="529.7428,-140.082 522.0682,-147.3862 532.6227,-146.4621 529.7428,-140.082"/>
</g>
<!-- Node20&#45;&gt;Node19 -->
<g id="edge6" class="edge">
<title>Node20&#45;&gt;Node19</title>
<path fill="none" stroke="#191970" d="M551.2613,-101.446C559.9284,-99.8928 568.6468,-98.3303 576.8803,-96.8548"/>
<polygon fill="#191970" stroke="#191970" points="550.3682,-98.0502 541.1425,-103.2594 551.6031,-104.9404 550.3682,-98.0502"/>
</g>
<!-- Node21&#45;&gt;Node18 -->
<g id="edge10" class="edge">
<title>Node21&#45;&gt;Node18</title>
<path fill="none" stroke="#191970" d="M361.737,-86.2229C377.5332,-101.3346 402.4021,-123.452 427,-138.5 432.3124,-141.7499 438.1434,-144.7591 443.9854,-147.4699"/>
<polygon fill="#191970" stroke="#191970" points="363.9596,-83.5019 354.3531,-79.0336 359.0764,-88.5173 363.9596,-83.5019"/>
</g>
<!-- Node21&#45;&gt;Node20 -->
<g id="edge13" class="edge">
<title>Node21&#45;&gt;Node20</title>
<path fill="none" stroke="#191970" d="M384.802,-82.0992C400.8941,-87.1931 419.6023,-93.1151 436.4071,-98.4346"/>
<polygon fill="#191970" stroke="#191970" points="385.751,-78.7285 375.1609,-79.0473 383.6384,-85.4021 385.751,-78.7285"/>
</g>
<!-- Node22 -->
<g id="node8" class="node">
<title>Node22</title>
<g id="a_node8"><a xlink:href="classSimulator.html#addbc3da16a6f9c352eefbdc423419bca" target="_top" xlink:title="Simulator::max_avg\l_utils">
<polygon fill="none" stroke="#000000" points="432,-49.5 432,-79.5 536,-79.5 536,-49.5 432,-49.5"/>
<text text-anchor="start" x="440" y="-67.5" font-family="Helvetica,sans-Serif" font-size="10.00" fill="#000000">Simulator::max_avg</text>
<text text-anchor="middle" x="484" y="-56.5" font-family="Helvetica,sans-Serif" font-size="10.00" fill="#000000">_utils</text>
</a>
</g>
</g>
<!-- Node21&#45;&gt;Node22 -->
<g id="edge8" class="edge">
<title>Node21&#45;&gt;Node22</title>
<path fill="none" stroke="#191970" d="M399.9708,-67.5226C410.3846,-67.148 421.254,-66.7571 431.5862,-66.3854"/>
<polygon fill="#191970" stroke="#191970" points="399.6133,-64.0331 389.7456,-67.8904 399.865,-71.0286 399.6133,-64.0331"/>
</g>
<!-- Node23 -->
<g id="node9" class="node">
<title>Node23</title>
<g id="a_node9"><a xlink:href="classSimulator.html#a32eeba843e7526dceb75a2c6aebe240e" target="_top" xlink:title="Simulator::max_avg\l_utils_2d">
<polygon fill="none" stroke="#000000" points="432,-.5 432,-30.5 536,-30.5 536,-.5 432,-.5"/>
<text text-anchor="start" x="440" y="-18.5" font-family="Helvetica,sans-Serif" font-size="10.00" fill="#000000">Simulator::max_avg</text>
<text text-anchor="middle" x="484" y="-7.5" font-family="Helvetica,sans-Serif" font-size="10.00" fill="#000000">_utils_2d</text>
</a>
</g>
</g>
<!-- Node21&#45;&gt;Node23 -->
<g id="edge11" class="edge">
<title>Node21&#45;&gt;Node23</title>
<path fill="none" stroke="#191970" d="M378.8987,-56.3307C398.9591,-48.5375 424.4403,-38.6383 445.2887,-30.5389"/>
<polygon fill="#191970" stroke="#191970" points="377.5843,-53.0864 369.5304,-59.9702 380.1192,-59.6114 377.5843,-53.0864"/>
</g>
<!-- Node22&#45;&gt;Node19 -->
<g id="edge9" class="edge">
<title>Node22&#45;&gt;Node19</title>
<path fill="none" stroke="#191970" d="M546.451,-75.2442C556.6636,-77.0013 567.0873,-78.7946 576.8333,-80.4713"/>
<polygon fill="#191970" stroke="#191970" points="546.7902,-71.7513 536.3415,-73.505 545.6033,-78.6499 546.7902,-71.7513"/>
</g>
<!-- Node23&#45;&gt;Node19 -->
<g id="edge12" class="edge">
<title>Node23&#45;&gt;Node19</title>
<path fill="none" stroke="#191970" d="M529.3931,-34.8478C533.3456,-36.7016 537.261,-38.6001 541,-40.5 565.0799,-52.7359 591.9419,-68.8499 608.281,-78.9429"/>
<polygon fill="#191970" stroke="#191970" points="530.7185,-31.6053 520.1692,-30.6237 527.8039,-37.9696 530.7185,-31.6053"/>
</g>
</g>
</svg>
