<?xml version="1.0" encoding="UTF-8" standalone="no"?>
<!DOCTYPE svg PUBLIC "-//W3C//DTD SVG 1.1//EN"
 "http://www.w3.org/Graphics/SVG/1.1/DTD/svg11.dtd">
<!-- Generated by graphviz version 2.40.1 (20161225.0304)
 -->
<!-- Title: Tensor::transform Pages: 1 -->
<svg width="381pt" height="186pt"
 viewBox="0.00 0.00 381.00 186.00" xmlns="http://www.w3.org/2000/svg" xmlns:xlink="http://www.w3.org/1999/xlink">
<g id="graph0" class="graph" transform="scale(1 1) rotate(0) translate(4 182)">
<title>Tensor::transform</title>
<!-- Node112 -->
<g id="node1" class="node">
<title>Node112</title>
<polygon fill="#bfbfbf" stroke="#000000" points="0,-79 0,-98 94,-98 94,-79 0,-79"/>
<text text-anchor="middle" x="47" y="-86" font-family="Helvetica,sans-Serif" font-size="10.00" fill="#000000">Tensor::transform</text>
</g>
<!-- Node113 -->
<g id="node2" class="node">
<title>Node113</title>
<g id="a_node2"><a xlink:href="classSimulator.html#addbc3da16a6f9c352eefbdc423419bca" target="_top" xlink:title="Simulator::max_avg\l_utils">
<polygon fill="none" stroke="#000000" points="135,-147.5 135,-177.5 239,-177.5 239,-147.5 135,-147.5"/>
<text text-anchor="start" x="143" y="-165.5" font-family="Helvetica,sans-Serif" font-size="10.00" fill="#000000">Simulator::max_avg</text>
<text text-anchor="middle" x="187" y="-154.5" font-family="Helvetica,sans-Serif" font-size="10.00" fill="#000000">_utils</text>
</a>
</g>
</g>
<!-- Node112&#45;&gt;Node113 -->
<g id="edge1" class="edge">
<title>Node112&#45;&gt;Node113</title>
<path fill="none" stroke="#191970" d="M70.185,-103.6974C86.5542,-114.1193 109.1913,-127.9206 130,-138.5 136.0299,-141.5657 142.544,-144.576 148.9388,-147.3725"/>
<polygon fill="#191970" stroke="#191970" points="71.636,-100.4692 61.3325,-98.0016 67.8484,-106.356 71.636,-100.4692"/>
</g>
<!-- Node115 -->
<g id="node4" class="node">
<title>Node115</title>
<g id="a_node4"><a xlink:href="classSimulator.html#a1b66b7260ff50758884d1f7361a1b988" target="_top" xlink:title="Simulator::stakeholder\l_satisfaction">
<polygon fill="none" stroke="#000000" points="130,-98.5 130,-128.5 244,-128.5 244,-98.5 130,-98.5"/>
<text text-anchor="start" x="138" y="-116.5" font-family="Helvetica,sans-Serif" font-size="10.00" fill="#000000">Simulator::stakeholder</text>
<text text-anchor="middle" x="187" y="-105.5" font-family="Helvetica,sans-Serif" font-size="10.00" fill="#000000">_satisfaction</text>
</a>
</g>
</g>
<!-- Node112&#45;&gt;Node115 -->
<g id="edge3" class="edge">
<title>Node112&#45;&gt;Node115</title>
<path fill="none" stroke="#191970" d="M104.1237,-98.7007C112.5502,-100.2054 121.2345,-101.7562 129.6653,-103.2617"/>
<polygon fill="#191970" stroke="#191970" points="104.467,-95.2067 94.0074,-96.8942 103.2364,-102.0977 104.467,-95.2067"/>
</g>
<!-- Node116 -->
<g id="node5" class="node">
<title>Node116</title>
<g id="a_node5"><a xlink:href="classSimulator.html#a32eeba843e7526dceb75a2c6aebe240e" target="_top" xlink:title="Simulator::max_avg\l_utils_2d">
<polygon fill="none" stroke="#000000" points="135,-49.5 135,-79.5 239,-79.5 239,-49.5 135,-49.5"/>
<text text-anchor="start" x="143" y="-67.5" font-family="Helvetica,sans-Serif" font-size="10.00" fill="#000000">Simulator::max_avg</text>
<text text-anchor="middle" x="187" y="-56.5" font-family="Helvetica,sans-Serif" font-size="10.00" fill="#000000">_utils_2d</text>
</a>
</g>
</g>
<!-- Node112&#45;&gt;Node116 -->
<g id="edge5" class="edge">
<title>Node112&#45;&gt;Node116</title>
<path fill="none" stroke="#191970" d="M103.9694,-78.7338C114.0897,-76.9989 124.5868,-75.1994 134.5736,-73.4874"/>
<polygon fill="#191970" stroke="#191970" points="103.2723,-75.3022 94.0074,-80.4416 104.4551,-82.2015 103.2723,-75.3022"/>
</g>
<!-- Node117 -->
<g id="node6" class="node">
<title>Node117</title>
<g id="a_node6"><a xlink:href="classSimulator.html#aac842e5498b4c9731910ce9a93fa555d" target="_top" xlink:title="Simulator::stakeholder\l_satisfaction_2d">
<polygon fill="none" stroke="#000000" points="130,-.5 130,-30.5 244,-30.5 244,-.5 130,-.5"/>
<text text-anchor="start" x="138" y="-18.5" font-family="Helvetica,sans-Serif" font-size="10.00" fill="#000000">Simulator::stakeholder</text>
<text text-anchor="middle" x="187" y="-7.5" font-family="Helvetica,sans-Serif" font-size="10.00" fill="#000000">_satisfaction_2d</text>
</a>
</g>
</g>
<!-- Node112&#45;&gt;Node117 -->
<g id="edge7" class="edge">
<title>Node112&#45;&gt;Node117</title>
<path fill="none" stroke="#191970" d="M71.209,-73.5458C87.5577,-63.6854 109.766,-50.7483 130,-40.5 136.7479,-37.0823 144.0673,-33.6644 151.1412,-30.502"/>
<polygon fill="#191970" stroke="#191970" points="69.0447,-70.7655 62.3195,-78.9522 72.6821,-76.7463 69.0447,-70.7655"/>
</g>
<!-- Node114 -->
<g id="node3" class="node">
<title>Node114</title>
<g id="a_node3"><a xlink:href="fish__glue_8cpp.html#addebb0997b0e49067d8784c9954b7b96" target="_top" xlink:title="RCPP_MODULE">
<polygon fill="none" stroke="#000000" points="280,-79 280,-98 373,-98 373,-79 280,-79"/>
<text text-anchor="middle" x="326.5" y="-86" font-family="Helvetica,sans-Serif" font-size="10.00" fill="#000000">RCPP_MODULE</text>
</a>
</g>
</g>
<!-- Node113&#45;&gt;Node114 -->
<g id="edge2" class="edge">
<title>Node113&#45;&gt;Node114</title>
<path fill="none" stroke="#191970" d="M234.3739,-143.1858C237.6566,-141.654 240.893,-140.0849 244,-138.5 268.7659,-125.867 296.1024,-108.5939 312.2624,-98.0101"/>
<polygon fill="#191970" stroke="#191970" points="232.7428,-140.082 225.0682,-147.3862 235.6227,-146.4621 232.7428,-140.082"/>
</g>
<!-- Node115&#45;&gt;Node114 -->
<g id="edge4" class="edge">
<title>Node115&#45;&gt;Node114</title>
<path fill="none" stroke="#191970" d="M254.2613,-101.446C262.9284,-99.8928 271.6468,-98.3303 279.8803,-96.8548"/>
<polygon fill="#191970" stroke="#191970" points="253.3682,-98.0502 244.1425,-103.2594 254.6031,-104.9404 253.3682,-98.0502"/>
</g>
<!-- Node116&#45;&gt;Node114 -->
<g id="edge6" class="edge">
<title>Node116&#45;&gt;Node114</title>
<path fill="none" stroke="#191970" d="M249.451,-75.2442C259.6636,-77.0013 270.0873,-78.7946 279.8333,-80.4713"/>
<polygon fill="#191970" stroke="#191970" points="249.7902,-71.7513 239.3415,-73.505 248.6033,-78.6499 249.7902,-71.7513"/>
</g>
<!-- Node117&#45;&gt;Node114 -->
<g id="edge8" class="edge">
<title>Node117&#45;&gt;Node114</title>
<path fill="none" stroke="#191970" d="M232.3931,-34.8478C236.3456,-36.7016 240.261,-38.6001 244,-40.5 268.0799,-52.7359 294.9419,-68.8499 311.281,-78.9429"/>
<polygon fill="#191970" stroke="#191970" points="233.7185,-31.6053 223.1692,-30.6237 230.8039,-37.9696 233.7185,-31.6053"/>
</g>
</g>
</svg>
