<?xml version="1.0" encoding="UTF-8" standalone="no"?>
<!DOCTYPE svg PUBLIC "-//W3C//DTD SVG 1.1//EN"
 "http://www.w3.org/Graphics/SVG/1.1/DTD/svg11.dtd">
<!-- Generated by graphviz version 2.40.1 (20161225.0304)
 -->
<!-- Title: Tensor::plane Pages: 1 -->
<svg width="632pt" height="192pt"
 viewBox="0.00 0.00 632.00 191.63" xmlns="http://www.w3.org/2000/svg" xmlns:xlink="http://www.w3.org/1999/xlink">
<g id="graph0" class="graph" transform="scale(1 1) rotate(0) translate(4 187.6272)">
<title>Tensor::plane</title>
<!-- Node85 -->
<g id="node1" class="node">
<title>Node85</title>
<polygon fill="#bfbfbf" stroke="#000000" points="0,-74.6272 0,-93.6272 76,-93.6272 76,-74.6272 0,-74.6272"/>
<text text-anchor="middle" x="38" y="-81.6272" font-family="Helvetica,sans-Serif" font-size="10.00" fill="#000000">Tensor::plane</text>
</g>
<!-- Node86 -->
<g id="node2" class="node">
<title>Node86</title>
<g id="a_node2"><a xlink:href="classTensor.html#a3986d7a50faef0249a8d2da5b1f67a89" target="_top" xlink:title="Tensor::transform">
<polygon fill="none" stroke="#000000" points="251,-131.6272 251,-150.6272 345,-150.6272 345,-131.6272 251,-131.6272"/>
<text text-anchor="middle" x="298" y="-138.6272" font-family="Helvetica,sans-Serif" font-size="10.00" fill="#000000">Tensor::transform</text>
</a>
</g>
</g>
<!-- Node85&#45;&gt;Node86 -->
<g id="edge1" class="edge">
<title>Node85&#45;&gt;Node86</title>
<path fill="none" stroke="#191970" d="M85.9794,-94.6458C134.252,-105.2286 208.0319,-121.4035 254.6059,-131.6139"/>
<polygon fill="#191970" stroke="#191970" points="86.6022,-91.1993 76.0847,-92.4766 85.1032,-98.0369 86.6022,-91.1993"/>
</g>
<!-- Node92 -->
<g id="node8" class="node">
<title>Node92</title>
<g id="a_node8"><a xlink:href="classTensor.html#a447f65c9ada7c9357091fba66ad73d10" target="_top" xlink:title="Tensor::accumulate">
<polygon fill="none" stroke="#000000" points="112,-55.6272 112,-74.6272 215,-74.6272 215,-55.6272 112,-55.6272"/>
<text text-anchor="middle" x="163.5" y="-62.6272" font-family="Helvetica,sans-Serif" font-size="10.00" fill="#000000">Tensor::accumulate</text>
</a>
</g>
</g>
<!-- Node85&#45;&gt;Node92 -->
<g id="edge10" class="edge">
<title>Node85&#45;&gt;Node92</title>
<path fill="none" stroke="#191970" d="M86.3549,-76.8066C94.752,-75.5353 103.5127,-74.209 111.9903,-72.9255"/>
<polygon fill="#191970" stroke="#191970" points="85.6995,-73.3658 76.3361,-78.3234 86.7473,-80.2869 85.6995,-73.3658"/>
</g>
<!-- Node87 -->
<g id="node3" class="node">
<title>Node87</title>
<g id="a_node3"><a xlink:href="classSimulator.html#addbc3da16a6f9c352eefbdc423419bca" target="_top" xlink:title="Simulator::max_avg\l_utils">
<polygon fill="none" stroke="#000000" points="386,-153.1272 386,-183.1272 490,-183.1272 490,-153.1272 386,-153.1272"/>
<text text-anchor="start" x="394" y="-171.1272" font-family="Helvetica,sans-Serif" font-size="10.00" fill="#000000">Simulator::max_avg</text>
<text text-anchor="middle" x="438" y="-160.1272" font-family="Helvetica,sans-Serif" font-size="10.00" fill="#000000">_utils</text>
</a>
</g>
</g>
<!-- Node86&#45;&gt;Node87 -->
<g id="edge2" class="edge">
<title>Node86&#45;&gt;Node87</title>
<path fill="none" stroke="#191970" d="M354.9694,-152.1142C365.0897,-154.066 375.5868,-156.0904 385.5736,-158.0164"/>
<polygon fill="#191970" stroke="#191970" points="355.4893,-148.65 345.0074,-150.1929 354.1637,-155.5234 355.4893,-148.65"/>
</g>
<!-- Node89 -->
<g id="node5" class="node">
<title>Node89</title>
<g id="a_node5"><a xlink:href="classSimulator.html#a1b66b7260ff50758884d1f7361a1b988" target="_top" xlink:title="Simulator::stakeholder\l_satisfaction">
<polygon fill="none" stroke="#000000" points="381,-6.1272 381,-36.1272 495,-36.1272 495,-6.1272 381,-6.1272"/>
<text text-anchor="start" x="389" y="-24.1272" font-family="Helvetica,sans-Serif" font-size="10.00" fill="#000000">Simulator::stakeholder</text>
<text text-anchor="middle" x="438" y="-13.1272" font-family="Helvetica,sans-Serif" font-size="10.00" fill="#000000">_satisfaction</text>
</a>
</g>
</g>
<!-- Node86&#45;&gt;Node89 -->
<g id="edge4" class="edge">
<title>Node86&#45;&gt;Node89</title>
<path fill="none" stroke="#191970" d="M340.2251,-126.0604C341.9123,-124.8441 343.5151,-123.5352 345,-122.1272 372.4135,-96.1338 353.7737,-71.3167 381,-45.1272 384.5596,-41.7032 388.6804,-38.7347 393.0457,-36.1687"/>
<polygon fill="#191970" stroke="#191970" points="338.0508,-123.2811 331.243,-131.3993 341.6275,-129.2984 338.0508,-123.2811"/>
</g>
<!-- Node90 -->
<g id="node6" class="node">
<title>Node90</title>
<g id="a_node6"><a xlink:href="classSimulator.html#a32eeba843e7526dceb75a2c6aebe240e" target="_top" xlink:title="Simulator::max_avg\l_utils_2d">
<polygon fill="none" stroke="#000000" points="386,-104.1272 386,-134.1272 490,-134.1272 490,-104.1272 386,-104.1272"/>
<text text-anchor="start" x="394" y="-122.1272" font-family="Helvetica,sans-Serif" font-size="10.00" fill="#000000">Simulator::max_avg</text>
<text text-anchor="middle" x="438" y="-111.1272" font-family="Helvetica,sans-Serif" font-size="10.00" fill="#000000">_utils_2d</text>
</a>
</g>
</g>
<!-- Node86&#45;&gt;Node90 -->
<g id="edge6" class="edge">
<title>Node86&#45;&gt;Node90</title>
<path fill="none" stroke="#191970" d="M354.9694,-132.1749C365.0897,-130.5845 375.5868,-128.935 385.5736,-127.3657"/>
<polygon fill="#191970" stroke="#191970" points="354.3428,-128.7303 345.0074,-133.7403 355.4296,-135.6454 354.3428,-128.7303"/>
</g>
<!-- Node91 -->
<g id="node7" class="node">
<title>Node91</title>
<g id="a_node7"><a xlink:href="classSimulator.html#aac842e5498b4c9731910ce9a93fa555d" target="_top" xlink:title="Simulator::stakeholder\l_satisfaction_2d">
<polygon fill="none" stroke="#000000" points="381,-55.1272 381,-85.1272 495,-85.1272 495,-55.1272 381,-55.1272"/>
<text text-anchor="start" x="389" y="-73.1272" font-family="Helvetica,sans-Serif" font-size="10.00" fill="#000000">Simulator::stakeholder</text>
<text text-anchor="middle" x="438" y="-62.1272" font-family="Helvetica,sans-Serif" font-size="10.00" fill="#000000">_satisfaction_2d</text>
</a>
</g>
</g>
<!-- Node86&#45;&gt;Node91 -->
<g id="edge8" class="edge">
<title>Node86&#45;&gt;Node91</title>
<path fill="none" stroke="#191970" d="M334.7469,-127.3606C338.2712,-125.7175 341.7425,-123.9658 345,-122.1272 362.4173,-112.2968 363.7279,-105.2105 381,-95.1272 387.0658,-91.5861 393.726,-88.2315 400.2877,-85.1969"/>
<polygon fill="#191970" stroke="#191970" points="333.1675,-124.2311 325.4045,-131.4413 335.9694,-130.6459 333.1675,-124.2311"/>
</g>
<!-- Node88 -->
<g id="node4" class="node">
<title>Node88</title>
<g id="a_node4"><a xlink:href="fish__glue_8cpp.html#addebb0997b0e49067d8784c9954b7b96" target="_top" xlink:title="RCPP_MODULE">
<polygon fill="none" stroke="#000000" points="531,-84.6272 531,-103.6272 624,-103.6272 624,-84.6272 531,-84.6272"/>
<text text-anchor="middle" x="577.5" y="-91.6272" font-family="Helvetica,sans-Serif" font-size="10.00" fill="#000000">RCPP_MODULE</text>
</a>
</g>
</g>
<!-- Node87&#45;&gt;Node88 -->
<g id="edge3" class="edge">
<title>Node87&#45;&gt;Node88</title>
<path fill="none" stroke="#191970" d="M485.3739,-148.813C488.6566,-147.2812 491.893,-145.7121 495,-144.1272 519.7659,-131.4942 547.1024,-114.2211 563.2624,-103.6373"/>
<polygon fill="#191970" stroke="#191970" points="483.7428,-145.7092 476.0682,-153.0134 486.6227,-152.0894 483.7428,-145.7092"/>
</g>
<!-- Node89&#45;&gt;Node88 -->
<g id="edge5" class="edge">
<title>Node89&#45;&gt;Node88</title>
<path fill="none" stroke="#191970" d="M484.8975,-40.26C488.3416,-41.852 491.7406,-43.4829 495,-45.1272 519.3921,-57.4329 546.3898,-74.0815 562.6442,-84.4585"/>
<polygon fill="#191970" stroke="#191970" points="486.2972,-37.0519 475.7404,-36.154 483.4331,-43.4392 486.2972,-37.0519"/>
</g>
<!-- Node90&#45;&gt;Node88 -->
<g id="edge7" class="edge">
<title>Node90&#45;&gt;Node88</title>
<path fill="none" stroke="#191970" d="M500.451,-107.9353C510.6636,-106.1051 521.0873,-104.237 530.8333,-102.4904"/>
<polygon fill="#191970" stroke="#191970" points="499.5673,-104.5378 490.3415,-109.747 500.8022,-111.428 499.5673,-104.5378"/>
</g>
<!-- Node91&#45;&gt;Node88 -->
<g id="edge9" class="edge">
<title>Node91&#45;&gt;Node88</title>
<path fill="none" stroke="#191970" d="M505.2613,-81.699C513.9284,-83.1902 522.6468,-84.6901 530.8803,-86.1066"/>
<polygon fill="#191970" stroke="#191970" points="505.5912,-78.2045 495.1425,-79.9582 504.4042,-85.1031 505.5912,-78.2045"/>
</g>
<!-- Node92&#45;&gt;Node89 -->
<g id="edge19" class="edge">
<title>Node92&#45;&gt;Node89</title>
<path fill="none" stroke="#191970" d="M181.5902,-48.7822C198.2525,-34.9111 224.3603,-16.0388 251,-8.1272 293.2718,4.4269 343.184,.0493 380.8058,-6.8533"/>
<polygon fill="#191970" stroke="#191970" points="179.0842,-46.3211 173.785,-55.4955 183.6488,-51.6281 179.0842,-46.3211"/>
</g>
<!-- Node92&#45;&gt;Node91 -->
<g id="edge20" class="edge">
<title>Node92&#45;&gt;Node91</title>
<path fill="none" stroke="#191970" d="M225.409,-66.2549C272.0448,-67.1044 335.4965,-68.2601 380.9151,-69.0874"/>
<polygon fill="#191970" stroke="#191970" points="225.1935,-62.7505 215.1314,-66.0677 225.0659,-69.7493 225.1935,-62.7505"/>
</g>
<!-- Node93 -->
<g id="node9" class="node">
<title>Node93</title>
<g id="a_node9"><a xlink:href="classTensor.html#abf7346c2dbd5e6b195cfe9b66e5049e8" target="_top" xlink:title="Tensor::max_dim">
<polygon fill="none" stroke="#000000" points="252,-17.6272 252,-36.6272 344,-36.6272 344,-17.6272 252,-17.6272"/>
<text text-anchor="middle" x="298" y="-24.6272" font-family="Helvetica,sans-Serif" font-size="10.00" fill="#000000">Tensor::max_dim</text>
</a>
</g>
</g>
<!-- Node92&#45;&gt;Node93 -->
<g id="edge11" class="edge">
<title>Node92&#45;&gt;Node93</title>
<path fill="none" stroke="#191970" d="M207.1004,-52.8089C225.5798,-47.5879 246.7895,-41.5956 264.0708,-36.7132"/>
<polygon fill="#191970" stroke="#191970" points="206.1117,-49.4511 197.44,-55.5382 208.015,-56.1874 206.1117,-49.4511"/>
</g>
<!-- Node94 -->
<g id="node10" class="node">
<title>Node94</title>
<g id="a_node10"><a xlink:href="classTensor.html#a6c8465a488ce260e6e05f1a3ceb8ab26" target="_top" xlink:title="Tensor::avg_dim">
<polygon fill="none" stroke="#000000" points="253.5,-93.6272 253.5,-112.6272 342.5,-112.6272 342.5,-93.6272 253.5,-93.6272"/>
<text text-anchor="middle" x="298" y="-100.6272" font-family="Helvetica,sans-Serif" font-size="10.00" fill="#000000">Tensor::avg_dim</text>
</a>
</g>
</g>
<!-- Node92&#45;&gt;Node94 -->
<g id="edge14" class="edge">
<title>Node92&#45;&gt;Node94</title>
<path fill="none" stroke="#191970" d="M207.1004,-77.4455C225.5798,-82.6665 246.7895,-88.6588 264.0708,-93.5413"/>
<polygon fill="#191970" stroke="#191970" points="208.015,-74.067 197.44,-74.7162 206.1117,-80.8033 208.015,-74.067"/>
</g>
<!-- Node93&#45;&gt;Node89 -->
<g id="edge12" class="edge">
<title>Node93&#45;&gt;Node89</title>
<path fill="none" stroke="#191970" d="M354.2427,-24.7168C362.9161,-24.3451 371.8829,-23.9608 380.5816,-23.588"/>
<polygon fill="#191970" stroke="#191970" points="354.0702,-21.2209 344.2292,-25.146 354.37,-28.2145 354.0702,-21.2209"/>
</g>
<!-- Node93&#45;&gt;Node91 -->
<g id="edge13" class="edge">
<title>Node93&#45;&gt;Node91</title>
<path fill="none" stroke="#191970" d="M339.0065,-39.7221C354.7093,-44.5451 372.7766,-50.0943 389.1423,-55.1209"/>
<polygon fill="#191970" stroke="#191970" points="339.6575,-36.2607 329.0705,-36.6703 337.6022,-42.9522 339.6575,-36.2607"/>
</g>
<!-- Node94&#45;&gt;Node87 -->
<g id="edge15" class="edge">
<title>Node94&#45;&gt;Node87</title>
<path fill="none" stroke="#191970" d="M333.095,-116.5706C337.1531,-118.3435 341.1971,-120.2128 345,-122.1272 361.7487,-130.5584 364.3122,-135.576 381,-144.1272 387.0201,-147.2121 393.5292,-150.2321 399.9221,-153.0323"/>
<polygon fill="#191970" stroke="#191970" points="334.2827,-113.2734 323.7072,-112.6328 331.575,-119.7285 334.2827,-113.2734"/>
</g>
<!-- Node94&#45;&gt;Node89 -->
<g id="edge16" class="edge">
<title>Node94&#45;&gt;Node89</title>
<path fill="none" stroke="#191970" d="M318.3673,-87.0643C334.7022,-74.6408 358.533,-57.5244 381,-45.1272 386.7346,-41.9629 392.9727,-38.9439 399.1487,-36.1806"/>
<polygon fill="#191970" stroke="#191970" points="315.9019,-84.5456 310.1198,-93.4236 320.1762,-90.0891 315.9019,-84.5456"/>
</g>
<!-- Node94&#45;&gt;Node90 -->
<g id="edge17" class="edge">
<title>Node94&#45;&gt;Node90</title>
<path fill="none" stroke="#191970" d="M352.9113,-109.4028C363.7818,-110.6451 375.1619,-111.9457 385.9345,-113.1769"/>
<polygon fill="#191970" stroke="#191970" points="353.0146,-105.8919 342.6818,-108.2337 352.2197,-112.8466 353.0146,-105.8919"/>
</g>
<!-- Node94&#45;&gt;Node91 -->
<g id="edge18" class="edge">
<title>Node94&#45;&gt;Node91</title>
<path fill="none" stroke="#191970" d="M348.385,-91.2508C358.9451,-88.7616 370.1531,-86.1197 380.9368,-83.5778"/>
<polygon fill="#191970" stroke="#191970" points="347.424,-87.8813 338.4938,-93.5823 349.0301,-94.6945 347.424,-87.8813"/>
</g>
</g>
</svg>
