<?xml version="1.0" encoding="UTF-8" standalone="no"?>
<!DOCTYPE svg PUBLIC "-//W3C//DTD SVG 1.1//EN"
 "http://www.w3.org/Graphics/SVG/1.1/DTD/svg11.dtd">
<!-- Generated by graphviz version 2.40.1 (20161225.0304)
 -->
<!-- Title: Population::fishableBiomass Pages: 1 -->
<svg width="783pt" height="242pt"
 viewBox="0.00 0.00 783.00 241.50" xmlns="http://www.w3.org/2000/svg" xmlns:xlink="http://www.w3.org/1999/xlink">
<g id="graph0" class="graph" transform="scale(1 1) rotate(0) translate(4 237.5)">
<title>Population::fishableBiomass</title>
<!-- Node45 -->
<g id="node1" class="node">
<title>Node45</title>
<polygon fill="#bfbfbf" stroke="#000000" points="0,-88.5 0,-107.5 140,-107.5 140,-88.5 0,-88.5"/>
<text text-anchor="middle" x="70" y="-95.5" font-family="Helvetica,sans-Serif" font-size="10.00" fill="#000000">Population::fishableBiomass</text>
</g>
<!-- Node46 -->
<g id="node2" class="node">
<title>Node46</title>
<g id="a_node2"><a xlink:href="fish__glue_8cpp.html#ab96ae82277aa9004dc603b77512c7265" target="_top" xlink:title="RCPP_MODULE">
<polygon fill="none" stroke="#000000" points="528.5,-137.5 528.5,-156.5 621.5,-156.5 621.5,-137.5 528.5,-137.5"/>
<text text-anchor="middle" x="575" y="-144.5" font-family="Helvetica,sans-Serif" font-size="10.00" fill="#000000">RCPP_MODULE</text>
</a>
</g>
</g>
<!-- Node45&#45;&gt;Node46 -->
<g id="edge1" class="edge">
<title>Node45&#45;&gt;Node46</title>
<path fill="none" stroke="#191970" d="M133.2039,-109.3305C147.2906,-111.8553 162.1539,-114.5191 176,-117 235.5548,-127.6707 249.7986,-134.9639 310,-141 386.2389,-148.6441 475.4048,-148.883 528.4328,-148.1157"/>
<polygon fill="#191970" stroke="#191970" points="133.5702,-105.8404 123.1096,-107.5211 132.3351,-112.7306 133.5702,-105.8404"/>
</g>
<!-- Node47 -->
<g id="node3" class="node">
<title>Node47</title>
<g id="a_node3"><a xlink:href="classPopulation.html#a81c19d1c80cfb1d54d3872ecdefd0872" target="_top" xlink:title="Population::update">
<polygon fill="none" stroke="#000000" points="176,-88.5 176,-107.5 274,-107.5 274,-88.5 176,-88.5"/>
<text text-anchor="middle" x="225" y="-95.5" font-family="Helvetica,sans-Serif" font-size="10.00" fill="#000000">Population::update</text>
</a>
</g>
</g>
<!-- Node45&#45;&gt;Node47 -->
<g id="edge2" class="edge">
<title>Node45&#45;&gt;Node47</title>
<path fill="none" stroke="#191970" d="M150.4111,-98C159.0753,-98 167.6909,-98 175.824,-98"/>
<polygon fill="#191970" stroke="#191970" points="150.2439,-94.5001 140.2438,-98 150.2438,-101.5001 150.2439,-94.5001"/>
</g>
<!-- Node51 -->
<g id="node7" class="node">
<title>Node51</title>
<g id="a_node7"><a xlink:href="classSimulator.html#a7540919b97662be7deacba9194c0ed60" target="_top" xlink:title="Simulator::simulate\l_multi">
<polygon fill="none" stroke="#000000" points="338.5,-203 338.5,-233 439.5,-233 439.5,-203 338.5,-203"/>
<text text-anchor="start" x="346.5" y="-221" font-family="Helvetica,sans-Serif" font-size="10.00" fill="#000000">Simulator::simulate</text>
<text text-anchor="middle" x="389" y="-210" font-family="Helvetica,sans-Serif" font-size="10.00" fill="#000000">_multi</text>
</a>
</g>
</g>
<!-- Node45&#45;&gt;Node51 -->
<g id="edge16" class="edge">
<title>Node45&#45;&gt;Node51</title>
<path fill="none" stroke="#191970" d="M84.4641,-115.164C103.2301,-136.1531 138.0859,-170.9805 176,-188 227.9552,-211.3225 293.5963,-217.5043 338.1809,-218.6906"/>
<polygon fill="#191970" stroke="#191970" points="87.0845,-112.8435 77.8719,-107.611 81.8106,-117.4465 87.0845,-112.8435"/>
</g>
<!-- Node53 -->
<g id="node9" class="node">
<title>Node53</title>
<g id="a_node9"><a xlink:href="classSimulator.html#ab21d1c6b0af00931f9a8fa5e0b6d417f" target="_top" xlink:title="Simulator::simulate\l_multi_2d">
<polygon fill="none" stroke="#000000" points="338.5,-39 338.5,-69 439.5,-69 439.5,-39 338.5,-39"/>
<text text-anchor="start" x="346.5" y="-57" font-family="Helvetica,sans-Serif" font-size="10.00" fill="#000000">Simulator::simulate</text>
<text text-anchor="middle" x="389" y="-46" font-family="Helvetica,sans-Serif" font-size="10.00" fill="#000000">_multi_2d</text>
</a>
</g>
</g>
<!-- Node45&#45;&gt;Node53 -->
<g id="edge17" class="edge">
<title>Node45&#45;&gt;Node53</title>
<path fill="none" stroke="#191970" d="M129.7395,-86.6392C144.8077,-83.9536 160.9735,-81.2265 176,-79 231.2464,-70.8142 294.8786,-63.6381 338.1023,-59.0988"/>
<polygon fill="#191970" stroke="#191970" points="128.7299,-83.2648 119.5105,-88.4852 129.9731,-90.1535 128.7299,-83.2648"/>
</g>
<!-- Node55 -->
<g id="node11" class="node">
<title>Node55</title>
<g id="a_node11"><a xlink:href="classSimulator.html#aa6e6cfd73fd8d3200e7f515b473e88f2" target="_top" xlink:title="Simulator::simulate_r">
<polygon fill="none" stroke="#000000" points="334.5,-.5 334.5,-19.5 443.5,-19.5 443.5,-.5 334.5,-.5"/>
<text text-anchor="middle" x="389" y="-7.5" font-family="Helvetica,sans-Serif" font-size="10.00" fill="#000000">Simulator::simulate_r</text>
</a>
</g>
</g>
<!-- Node45&#45;&gt;Node55 -->
<g id="edge18" class="edge">
<title>Node45&#45;&gt;Node55</title>
<path fill="none" stroke="#191970" d="M105.4836,-85.0972C125.9589,-77.8666 152.2741,-68.9365 176,-62 234.8706,-44.7887 250.4048,-43.5046 310,-29 322.7468,-25.8976 336.6582,-22.5418 349.2057,-19.5261"/>
<polygon fill="#191970" stroke="#191970" points="104.1859,-81.8439 95.9382,-88.4941 106.5329,-88.4388 104.1859,-81.8439"/>
</g>
<!-- Node47&#45;&gt;Node46 -->
<g id="edge3" class="edge">
<title>Node47&#45;&gt;Node46</title>
<path fill="none" stroke="#191970" d="M273.866,-109.8632C285.6496,-112.463 298.2355,-115.0251 310,-117 386.027,-129.7628 475.2566,-138.6142 528.3551,-143.2434"/>
<polygon fill="#191970" stroke="#191970" points="274.283,-106.3694 263.7579,-107.5826 272.7424,-113.1977 274.283,-106.3694"/>
</g>
<!-- Node48 -->
<g id="node4" class="node">
<title>Node48</title>
<g id="a_node4"><a xlink:href="classPopulation.html#aa7eba257f23cbc12aa3673ce012fb2cb" target="_top" xlink:title="Population::noFishingEquilibriate">
<polygon fill="none" stroke="#000000" points="310,-88.5 310,-107.5 468,-107.5 468,-88.5 310,-88.5"/>
<text text-anchor="middle" x="389" y="-95.5" font-family="Helvetica,sans-Serif" font-size="10.00" fill="#000000">Population::noFishingEquilibriate</text>
</a>
</g>
</g>
<!-- Node47&#45;&gt;Node48 -->
<g id="edge4" class="edge">
<title>Node47&#45;&gt;Node48</title>
<path fill="none" stroke="#191970" d="M284.4369,-98C292.6755,-98 301.2435,-98 309.7716,-98"/>
<polygon fill="#191970" stroke="#191970" points="284.2054,-94.5001 274.2054,-98 284.2054,-101.5001 284.2054,-94.5001"/>
</g>
<!-- Node47&#45;&gt;Node51 -->
<g id="edge8" class="edge">
<title>Node47&#45;&gt;Node51</title>
<path fill="none" stroke="#191970" d="M246.3139,-113.5955C278.0314,-136.8034 337.2601,-180.1415 368.4995,-202.9996"/>
<polygon fill="#191970" stroke="#191970" points="248.2807,-110.6978 238.1436,-107.6173 244.1471,-116.347 248.2807,-110.6978"/>
</g>
<!-- Node47&#45;&gt;Node53 -->
<g id="edge11" class="edge">
<title>Node47&#45;&gt;Node53</title>
<path fill="none" stroke="#191970" d="M270.2647,-85.8558C291.3466,-80.1997 316.512,-73.448 338.2378,-67.6191"/>
<polygon fill="#191970" stroke="#191970" points="269.337,-82.4808 260.5856,-88.4527 271.151,-89.2417 269.337,-82.4808"/>
</g>
<!-- Node47&#45;&gt;Node55 -->
<g id="edge14" class="edge">
<title>Node47&#45;&gt;Node55</title>
<path fill="none" stroke="#191970" d="M241.3968,-80.8608C257.4416,-65.0852 283.3002,-42.1934 310,-29 317.8409,-25.1255 326.5176,-22.0133 335.1653,-19.5213"/>
<polygon fill="#191970" stroke="#191970" points="238.504,-78.8073 233.9484,-88.3727 243.4748,-83.736 238.504,-78.8073"/>
</g>
<!-- Node48&#45;&gt;Node46 -->
<g id="edge5" class="edge">
<title>Node48&#45;&gt;Node46</title>
<path fill="none" stroke="#191970" d="M435.3122,-110.2005C467.3007,-118.6276 509.2398,-129.6761 538.7873,-137.4601"/>
<polygon fill="#191970" stroke="#191970" points="435.8659,-106.7271 425.3042,-107.564 434.0826,-113.4961 435.8659,-106.7271"/>
</g>
<!-- Node49 -->
<g id="node5" class="node">
<title>Node49</title>
<g id="a_node5"><a xlink:href="classSimulator.html#a3dfce52c0bb26ec7ff2632b1eca50240" target="_top" xlink:title="Simulator::equilibriateNatural\lPopulation">
<polygon fill="none" stroke="#000000" points="504,-88 504,-118 646,-118 646,-88 504,-88"/>
<text text-anchor="start" x="512" y="-106" font-family="Helvetica,sans-Serif" font-size="10.00" fill="#000000">Simulator::equilibriateNatural</text>
<text text-anchor="middle" x="575" y="-95" font-family="Helvetica,sans-Serif" font-size="10.00" fill="#000000">Population</text>
</a>
</g>
</g>
<!-- Node48&#45;&gt;Node49 -->
<g id="edge6" class="edge">
<title>Node48&#45;&gt;Node49</title>
<path fill="none" stroke="#191970" d="M478.2169,-100.3983C486.8241,-100.6297 495.4746,-100.8622 503.8728,-101.088"/>
<polygon fill="#191970" stroke="#191970" points="478.2409,-96.8978 468.1504,-100.1277 478.0528,-103.8953 478.2409,-96.8978"/>
</g>
<!-- Node50 -->
<g id="node6" class="node">
<title>Node50</title>
<g id="a_node6"><a xlink:href="fish__glue_8cpp.html#addebb0997b0e49067d8784c9954b7b96" target="_top" xlink:title="RCPP_MODULE">
<polygon fill="none" stroke="#000000" points="682,-68.5 682,-87.5 775,-87.5 775,-68.5 682,-68.5"/>
<text text-anchor="middle" x="728.5" y="-75.5" font-family="Helvetica,sans-Serif" font-size="10.00" fill="#000000">RCPP_MODULE</text>
</a>
</g>
</g>
<!-- Node49&#45;&gt;Node50 -->
<g id="edge7" class="edge">
<title>Node49&#45;&gt;Node50</title>
<path fill="none" stroke="#191970" d="M656.2635,-89.7649C665.0294,-88.3372 673.7166,-86.9224 681.8654,-85.5952"/>
<polygon fill="#191970" stroke="#191970" points="655.6648,-86.3162 646.3575,-91.3783 656.7901,-93.2252 655.6648,-86.3162"/>
</g>
<!-- Node52 -->
<g id="node8" class="node">
<title>Node52</title>
<g id="a_node8"><a xlink:href="classSimulator.html#a1a5454ee4736819d709398b225d7876d" target="_top" xlink:title="Simulator::simulate\l_multi_r">
<polygon fill="none" stroke="#000000" points="524.5,-189 524.5,-219 625.5,-219 625.5,-189 524.5,-189"/>
<text text-anchor="start" x="532.5" y="-207" font-family="Helvetica,sans-Serif" font-size="10.00" fill="#000000">Simulator::simulate</text>
<text text-anchor="middle" x="575" y="-196" font-family="Helvetica,sans-Serif" font-size="10.00" fill="#000000">_multi_r</text>
</a>
</g>
</g>
<!-- Node51&#45;&gt;Node52 -->
<g id="edge9" class="edge">
<title>Node51&#45;&gt;Node52</title>
<path fill="none" stroke="#191970" d="M449.9114,-213.4153C473.9637,-211.6049 501.2797,-209.5488 524.2361,-207.8209"/>
<polygon fill="#191970" stroke="#191970" points="449.5344,-209.9337 439.8253,-214.1744 450.0598,-216.9139 449.5344,-209.9337"/>
</g>
<!-- Node52&#45;&gt;Node50 -->
<g id="edge10" class="edge">
<title>Node52&#45;&gt;Node50</title>
<path fill="none" stroke="#191970" d="M617.3752,-184.2372C627.1581,-178.8947 637.2534,-172.712 646,-166 677.5662,-141.7768 707.7208,-105.0358 721.1712,-87.7013"/>
<polygon fill="#191970" stroke="#191970" points="615.7425,-181.1413 608.5262,-188.8986 619.005,-187.3346 615.7425,-181.1413"/>
</g>
<!-- Node54 -->
<g id="node10" class="node">
<title>Node54</title>
<g id="a_node10"><a xlink:href="classSimulator.html#af1b0a9562ecf0ad8f98d61576efba28b" target="_top" xlink:title="Simulator::simulate\l_multi_2d_r">
<polygon fill="none" stroke="#000000" points="524.5,-39 524.5,-69 625.5,-69 625.5,-39 524.5,-39"/>
<text text-anchor="start" x="532.5" y="-57" font-family="Helvetica,sans-Serif" font-size="10.00" fill="#000000">Simulator::simulate</text>
<text text-anchor="middle" x="575" y="-46" font-family="Helvetica,sans-Serif" font-size="10.00" fill="#000000">_multi_2d_r</text>
</a>
</g>
</g>
<!-- Node53&#45;&gt;Node54 -->
<g id="edge12" class="edge">
<title>Node53&#45;&gt;Node54</title>
<path fill="none" stroke="#191970" d="M449.9114,-54C473.9637,-54 501.2797,-54 524.2361,-54"/>
<polygon fill="#191970" stroke="#191970" points="449.8254,-50.5001 439.8253,-54 449.8253,-57.5001 449.8254,-50.5001"/>
</g>
<!-- Node54&#45;&gt;Node50 -->
<g id="edge13" class="edge">
<title>Node54&#45;&gt;Node50</title>
<path fill="none" stroke="#191970" d="M635.6161,-63.4774C650.9646,-65.8772 667.2148,-68.4179 681.7586,-70.6919"/>
<polygon fill="#191970" stroke="#191970" points="636.1077,-60.0119 625.6871,-61.925 635.0263,-66.9278 636.1077,-60.0119"/>
</g>
<!-- Node55&#45;&gt;Node50 -->
<g id="edge15" class="edge">
<title>Node55&#45;&gt;Node50</title>
<path fill="none" stroke="#191970" d="M453.7698,-6.6811C506.6824,-5.8739 582.7852,-9.1073 646,-29 673.3317,-37.6009 701.1783,-56.7637 716.5099,-68.4133"/>
<polygon fill="#191970" stroke="#191970" points="453.4328,-3.1872 443.5071,-6.8927 453.5772,-10.1858 453.4328,-3.1872"/>
</g>
</g>
</svg>
