<?xml version="1.0" encoding="UTF-8" standalone="no"?>
<!DOCTYPE svg PUBLIC "-//W3C//DTD SVG 1.1//EN"
 "http://www.w3.org/Graphics/SVG/1.1/DTD/svg11.dtd">
<!-- Generated by graphviz version 2.40.1 (20161225.0304)
 -->
<!-- Title: Simulator::simulate_multi_2d Pages: 1 -->
<svg width="622pt" height="370pt"
 viewBox="0.00 0.00 622.00 370.00" xmlns="http://www.w3.org/2000/svg" xmlns:xlink="http://www.w3.org/1999/xlink">
<g id="graph0" class="graph" transform="scale(1 1) rotate(0) translate(4 366)">
<title>Simulator::simulate_multi_2d</title>
<!-- Node65 -->
<g id="node1" class="node">
<title>Node65</title>
<polygon fill="#bfbfbf" stroke="#000000" points="0,-185 0,-215 101,-215 101,-185 0,-185"/>
<text text-anchor="start" x="8" y="-203" font-family="Helvetica,sans-Serif" font-size="10.00" fill="#000000">Simulator::simulate</text>
<text text-anchor="middle" x="50.5" y="-192" font-family="Helvetica,sans-Serif" font-size="10.00" fill="#000000">_multi_2d</text>
</g>
<!-- Node66 -->
<g id="node2" class="node">
<title>Node66</title>
<g id="a_node2"><a xlink:href="classPopulation.html#a20696fa511c914e7c8837acb2a254b33" target="_top" xlink:title="Population::set_harvestProp">
<polygon fill="none" stroke="#000000" points="138.5,-266.5 138.5,-285.5 278.5,-285.5 278.5,-266.5 138.5,-266.5"/>
<text text-anchor="middle" x="208.5" y="-273.5" font-family="Helvetica,sans-Serif" font-size="10.00" fill="#000000">Population::set_harvestProp</text>
</a>
</g>
</g>
<!-- Node65&#45;&gt;Node66 -->
<g id="edge1" class="edge">
<title>Node65&#45;&gt;Node66</title>
<path fill="none" stroke="#191970" d="M69.3765,-215.0446C86.2355,-227.8244 112.0524,-245.8235 137,-257 142.3314,-259.3885 148.0255,-261.528 153.7849,-263.4317"/>
<polygon fill="#191970" stroke="#191970" points="152.9,-266.8212 163.487,-266.415 154.9574,-260.1304 152.9,-266.8212"/>
</g>
<!-- Node67 -->
<g id="node3" class="node">
<title>Node67</title>
<g id="a_node3"><a xlink:href="classPopulation.html#a343a346cae1413da400c042868c15859" target="_top" xlink:title="Population::set_minSizeLimit">
<polygon fill="none" stroke="#000000" points="137,-228.5 137,-247.5 280,-247.5 280,-228.5 137,-228.5"/>
<text text-anchor="middle" x="208.5" y="-235.5" font-family="Helvetica,sans-Serif" font-size="10.00" fill="#000000">Population::set_minSizeLimit</text>
</a>
</g>
</g>
<!-- Node65&#45;&gt;Node67 -->
<g id="edge2" class="edge">
<title>Node65&#45;&gt;Node67</title>
<path fill="none" stroke="#191970" d="M101.3619,-212.2326C119.782,-216.6628 140.5498,-221.6576 158.8632,-226.062"/>
<polygon fill="#191970" stroke="#191970" points="158.213,-229.5054 168.7542,-228.4409 159.8499,-222.6995 158.213,-229.5054"/>
</g>
<!-- Node68 -->
<g id="node4" class="node">
<title>Node68</title>
<g id="a_node4"><a xlink:href="classPopulation.html#a42c4b04852bdda937e50f82952106af1" target="_top" xlink:title="Population::fishableBiomass">
<polygon fill="none" stroke="#000000" points="316,-.5 316,-19.5 456,-19.5 456,-.5 316,-.5"/>
<text text-anchor="middle" x="386" y="-7.5" font-family="Helvetica,sans-Serif" font-size="10.00" fill="#000000">Population::fishableBiomass</text>
</a>
</g>
</g>
<!-- Node65&#45;&gt;Node68 -->
<g id="edge3" class="edge">
<title>Node65&#45;&gt;Node68</title>
<path fill="none" stroke="#191970" d="M69.2832,-184.9011C111.1272,-151.9658 216.2029,-73.0967 316,-29 321.3865,-26.6199 327.1411,-24.4753 332.9494,-22.5596"/>
<polygon fill="#191970" stroke="#191970" points="334.1928,-25.839 342.7197,-19.5506 332.1324,-19.1491 334.1928,-25.839"/>
</g>
<!-- Node70 -->
<g id="node6" class="node">
<title>Node70</title>
<g id="a_node6"><a xlink:href="classPopulation.html#a012ef586a78b4e7c2082634b316072d0" target="_top" xlink:title="Population::init">
<polygon fill="none" stroke="#000000" points="168,-190.5 168,-209.5 249,-209.5 249,-190.5 168,-190.5"/>
<text text-anchor="middle" x="208.5" y="-197.5" font-family="Helvetica,sans-Serif" font-size="10.00" fill="#000000">Population::init</text>
</a>
</g>
</g>
<!-- Node65&#45;&gt;Node70 -->
<g id="edge5" class="edge">
<title>Node65&#45;&gt;Node70</title>
<path fill="none" stroke="#191970" d="M101.3619,-200C119.4694,-200 139.8457,-200 157.9288,-200"/>
<polygon fill="#191970" stroke="#191970" points="157.9923,-203.5001 167.9922,-200 157.9922,-196.5001 157.9923,-203.5001"/>
</g>
<!-- Node74 -->
<g id="node10" class="node">
<title>Node74</title>
<g id="a_node10"><a xlink:href="classPopulation.html#a81c19d1c80cfb1d54d3872ecdefd0872" target="_top" xlink:title="Population::update">
<polygon fill="none" stroke="#000000" points="159.5,-152.5 159.5,-171.5 257.5,-171.5 257.5,-152.5 159.5,-152.5"/>
<text text-anchor="middle" x="208.5" y="-159.5" font-family="Helvetica,sans-Serif" font-size="10.00" fill="#000000">Population::update</text>
</a>
</g>
</g>
<!-- Node65&#45;&gt;Node74 -->
<g id="edge9" class="edge">
<title>Node65&#45;&gt;Node74</title>
<path fill="none" stroke="#191970" d="M101.3619,-187.7674C119.782,-183.3372 140.5498,-178.3424 158.8632,-173.938"/>
<polygon fill="#191970" stroke="#191970" points="159.8499,-177.3005 168.7542,-171.5591 158.213,-170.4946 159.8499,-177.3005"/>
</g>
<!-- Node69 -->
<g id="node5" class="node">
<title>Node69</title>
<g id="a_node5"><a xlink:href="classPopulation.html#ac8ed845bbda25c937a2fd76b3788e987" target="_top" xlink:title="Population::selectivity">
<polygon fill="none" stroke="#000000" points="496.5,-190.5 496.5,-209.5 609.5,-209.5 609.5,-190.5 496.5,-190.5"/>
<text text-anchor="middle" x="553" y="-197.5" font-family="Helvetica,sans-Serif" font-size="10.00" fill="#000000">Population::selectivity</text>
</a>
</g>
</g>
<!-- Node68&#45;&gt;Node69 -->
<g id="edge4" class="edge">
<title>Node68&#45;&gt;Node69</title>
<path fill="none" stroke="#191970" d="M439.3694,-19.6105C445.3242,-22.0631 451.0257,-25.14 456,-29 507.5622,-69.0114 536.2152,-144.6562 547.4148,-180.3782"/>
<polygon fill="#191970" stroke="#191970" points="544.106,-181.5295 550.3362,-190.099 550.8098,-179.5147 544.106,-181.5295"/>
</g>
<!-- Node71 -->
<g id="node7" class="node">
<title>Node71</title>
<g id="a_node7"><a xlink:href="classFish.html#adf85bf269f1651352506e371ffd2cecc" target="_top" xlink:title="Initializes the fish, i.e., initializes parameters and sets the initial state (age = 1...">
<polygon fill="none" stroke="#000000" points="359,-304.5 359,-323.5 413,-323.5 413,-304.5 359,-304.5"/>
<text text-anchor="middle" x="386" y="-311.5" font-family="Helvetica,sans-Serif" font-size="10.00" fill="#000000">Fish::init</text>
</a>
</g>
</g>
<!-- Node70&#45;&gt;Node71 -->
<g id="edge6" class="edge">
<title>Node70&#45;&gt;Node71</title>
<path fill="none" stroke="#191970" d="M249.2378,-204.467C260.1486,-207.2654 271.3122,-211.7699 280,-219 308.7286,-242.9083 287.335,-271.0155 316,-295 325.2624,-302.75 337.4093,-307.3598 348.9794,-310.0946"/>
<polygon fill="#191970" stroke="#191970" points="348.4244,-313.5524 358.9117,-312.047 349.7746,-306.6838 348.4244,-313.5524"/>
</g>
<!-- Node72 -->
<g id="node8" class="node">
<title>Node72</title>
<g id="a_node8"><a xlink:href="namespacefish.html#a0ab1c4842d702a0a40bd04f26793ce12" target="_top" xlink:title="Compute the nonlinear growth increment , as follows . ">
<polygon fill="none" stroke="#000000" points="514.5,-342.5 514.5,-361.5 591.5,-361.5 591.5,-342.5 514.5,-342.5"/>
<text text-anchor="middle" x="553" y="-349.5" font-family="Helvetica,sans-Serif" font-size="10.00" fill="#000000">fish::dl_power</text>
</a>
</g>
</g>
<!-- Node71&#45;&gt;Node72 -->
<g id="edge7" class="edge">
<title>Node71&#45;&gt;Node72</title>
<path fill="none" stroke="#191970" d="M413.2031,-320.1899C437.8653,-325.8017 474.7919,-334.2042 504.5008,-340.9643"/>
<polygon fill="#191970" stroke="#191970" points="503.7439,-344.3814 514.2712,-343.1875 505.297,-337.5559 503.7439,-344.3814"/>
</g>
<!-- Node73 -->
<g id="node9" class="node">
<title>Node73</title>
<g id="a_node9"><a xlink:href="namespacefish.html#a1d06e0358aca1be4446ed148b7ce3d84" target="_top" xlink:title="Compute the new length after growth assuming no allocation to reproduction . ">
<polygon fill="none" stroke="#000000" points="501.5,-304.5 501.5,-323.5 604.5,-323.5 604.5,-304.5 501.5,-304.5"/>
<text text-anchor="middle" x="553" y="-311.5" font-family="Helvetica,sans-Serif" font-size="10.00" fill="#000000">fish::length_juvenile</text>
</a>
</g>
</g>
<!-- Node71&#45;&gt;Node73 -->
<g id="edge8" class="edge">
<title>Node71&#45;&gt;Node73</title>
<path fill="none" stroke="#191970" d="M413.2031,-314C434.2655,-314 464.2731,-314 491.0905,-314"/>
<polygon fill="#191970" stroke="#191970" points="491.1871,-317.5001 501.1871,-314 491.187,-310.5001 491.1871,-317.5001"/>
</g>
<!-- Node74&#45;&gt;Node68 -->
<g id="edge14" class="edge">
<title>Node74&#45;&gt;Node68</title>
<path fill="none" stroke="#191970" d="M217.6929,-152.3459C231.693,-137.4786 258.9516,-107.8776 280,-81 297.3309,-58.8694 293.0436,-45.2212 316,-29 318.7253,-27.0743 321.6365,-25.3437 324.6658,-23.7884"/>
<polygon fill="#191970" stroke="#191970" points="326.3195,-26.8837 334.0407,-19.6287 323.4805,-20.4853 326.3195,-26.8837"/>
</g>
<!-- Node74&#45;&gt;Node69 -->
<g id="edge19" class="edge">
<title>Node74&#45;&gt;Node69</title>
<path fill="none" stroke="#191970" d="M256.7804,-171.5396C275.2477,-174.9234 296.5433,-178.5064 316,-181 373.2162,-188.333 438.5889,-193.3218 486.1634,-196.3407"/>
<polygon fill="#191970" stroke="#191970" points="486.14,-199.8459 496.338,-196.9735 486.5746,-192.8594 486.14,-199.8459"/>
</g>
<!-- Node74&#45;&gt;Node71 -->
<g id="edge13" class="edge">
<title>Node74&#45;&gt;Node71</title>
<path fill="none" stroke="#191970" d="M257.694,-168.0591C265.9127,-170.9234 273.7762,-175.057 280,-181 318.4275,-217.6939 277.6701,-258.2042 316,-295 324.7826,-303.431 336.9152,-308.2039 348.615,-310.8791"/>
<polygon fill="#191970" stroke="#191970" points="348.2223,-314.3655 358.6901,-312.7293 349.4867,-307.4806 348.2223,-314.3655"/>
</g>
<!-- Node75 -->
<g id="node11" class="node">
<title>Node75</title>
<g id="a_node11"><a xlink:href="classPopulation.html#ae942ef70cc9f4dfc40b5d843baf40b1e" target="_top" xlink:title="Population::calcTSB">
<polygon fill="none" stroke="#000000" points="333,-114.5 333,-133.5 439,-133.5 439,-114.5 333,-114.5"/>
<text text-anchor="middle" x="386" y="-121.5" font-family="Helvetica,sans-Serif" font-size="10.00" fill="#000000">Population::calcTSB</text>
</a>
</g>
</g>
<!-- Node74&#45;&gt;Node75 -->
<g id="edge10" class="edge">
<title>Node74&#45;&gt;Node75</title>
<path fill="none" stroke="#191970" d="M253.2907,-152.411C277.0303,-147.3287 306.3839,-141.0446 331.4437,-135.6797"/>
<polygon fill="#191970" stroke="#191970" points="332.4856,-139.036 341.5313,-133.5201 331.0202,-132.1911 332.4856,-139.036"/>
</g>
<!-- Node76 -->
<g id="node12" class="node">
<title>Node76</title>
<g id="a_node12"><a xlink:href="classPopulation.html#af15e7ba23b161c710d4013204b542cb6" target="_top" xlink:title="Population::calcSSB">
<polygon fill="none" stroke="#000000" points="332.5,-76.5 332.5,-95.5 439.5,-95.5 439.5,-76.5 332.5,-76.5"/>
<text text-anchor="middle" x="386" y="-83.5" font-family="Helvetica,sans-Serif" font-size="10.00" fill="#000000">Population::calcSSB</text>
</a>
</g>
</g>
<!-- Node74&#45;&gt;Node76 -->
<g id="edge11" class="edge">
<title>Node74&#45;&gt;Node76</title>
<path fill="none" stroke="#191970" d="M224.0007,-152.3594C244.438,-139.9855 281.8152,-118.5071 316,-105 321.9948,-102.6313 328.3909,-100.4503 334.7881,-98.4765"/>
<polygon fill="#191970" stroke="#191970" points="336.1716,-101.7184 344.7844,-95.5483 334.2037,-95.0007 336.1716,-101.7184"/>
</g>
<!-- Node77 -->
<g id="node13" class="node">
<title>Node77</title>
<g id="a_node13"><a xlink:href="classFish.html#aaa3e67187a587efc7a99485b4a6ee248" target="_top" xlink:title="Fish::set_traits">
<polygon fill="none" stroke="#000000" points="345,-38.5 345,-57.5 427,-57.5 427,-38.5 345,-38.5"/>
<text text-anchor="middle" x="386" y="-45.5" font-family="Helvetica,sans-Serif" font-size="10.00" fill="#000000">Fish::set_traits</text>
</a>
</g>
</g>
<!-- Node74&#45;&gt;Node77 -->
<g id="edge12" class="edge">
<title>Node74&#45;&gt;Node77</title>
<path fill="none" stroke="#191970" d="M216.62,-152.3142C233.2528,-133.103 273.248,-90.0454 316,-67 321.958,-63.7884 328.4999,-61.0878 335.118,-58.8252"/>
<polygon fill="#191970" stroke="#191970" points="336.2976,-62.1238 344.8095,-55.8152 334.2213,-55.4388 336.2976,-62.1238"/>
</g>
<!-- Node78 -->
<g id="node14" class="node">
<title>Node78</title>
<g id="a_node14"><a xlink:href="classPopulation.html#ad1840de2f00982c35d48b91a1d27ae13" target="_top" xlink:title="Population::effort">
<polygon fill="none" stroke="#000000" points="340.5,-228.5 340.5,-247.5 431.5,-247.5 431.5,-228.5 340.5,-228.5"/>
<text text-anchor="middle" x="386" y="-235.5" font-family="Helvetica,sans-Serif" font-size="10.00" fill="#000000">Population::effort</text>
</a>
</g>
</g>
<!-- Node74&#45;&gt;Node78 -->
<g id="edge15" class="edge">
<title>Node74&#45;&gt;Node78</title>
<path fill="none" stroke="#191970" d="M257.4155,-171.6089C265.2192,-174.0903 273.0148,-177.1763 280,-181 299.0393,-191.422 297.3402,-202.9129 316,-214 323.1454,-218.2456 331.1499,-221.8781 339.1229,-224.9362"/>
<polygon fill="#191970" stroke="#191970" points="338.1781,-228.3153 348.7727,-228.3842 340.5335,-221.7235 338.1781,-228.3153"/>
</g>
<!-- Node79 -->
<g id="node15" class="node">
<title>Node79</title>
<g id="a_node15"><a xlink:href="namespacepn.html#ad42003887dcc42a4758c69775f83a8d9" target="_top" xlink:title="pn::zero">
<polygon fill="none" stroke="#000000" points="360,-266.5 360,-285.5 412,-285.5 412,-266.5 360,-266.5"/>
<text text-anchor="middle" x="386" y="-273.5" font-family="Helvetica,sans-Serif" font-size="10.00" fill="#000000">pn::zero</text>
</a>
</g>
</g>
<!-- Node74&#45;&gt;Node79 -->
<g id="edge17" class="edge">
<title>Node74&#45;&gt;Node79</title>
<path fill="none" stroke="#191970" d="M257.7959,-169.029C265.815,-171.8062 273.5829,-175.6596 280,-181 308.7286,-204.9083 287.335,-233.0155 316,-257 325.4865,-264.9375 337.9987,-269.581 349.8182,-272.2898"/>
<polygon fill="#191970" stroke="#191970" points="349.4563,-275.7835 359.9331,-274.2064 350.7595,-268.9058 349.4563,-275.7835"/>
</g>
<!-- Node81 -->
<g id="node17" class="node">
<title>Node81</title>
<g id="a_node17"><a xlink:href="classPopulation.html#ac62fc3480d60b055cd1886649809c6a6" target="_top" xlink:title="Population::nfish">
<polygon fill="none" stroke="#000000" points="341.5,-152.5 341.5,-171.5 430.5,-171.5 430.5,-152.5 341.5,-152.5"/>
<text text-anchor="middle" x="386" y="-159.5" font-family="Helvetica,sans-Serif" font-size="10.00" fill="#000000">Population::nfish</text>
</a>
</g>
</g>
<!-- Node74&#45;&gt;Node81 -->
<g id="edge20" class="edge">
<title>Node74&#45;&gt;Node81</title>
<path fill="none" stroke="#191970" d="M257.9436,-162C280.7296,-162 307.8474,-162 331.2495,-162"/>
<polygon fill="#191970" stroke="#191970" points="331.3686,-165.5001 341.3686,-162 331.3686,-158.5001 331.3686,-165.5001"/>
</g>
<!-- Node78&#45;&gt;Node69 -->
<g id="edge16" class="edge">
<title>Node78&#45;&gt;Node69</title>
<path fill="none" stroke="#191970" d="M428.1412,-228.411C450.3771,-223.3513 477.8482,-217.1004 501.3564,-211.7512"/>
<polygon fill="#191970" stroke="#191970" points="502.1877,-215.1516 511.1619,-209.5201 500.6345,-208.3261 502.1877,-215.1516"/>
</g>
<!-- Node80 -->
<g id="node16" class="node">
<title>Node80</title>
<g id="a_node16"><a xlink:href="structpn_1_1BrentRes.html#a4fa42a440c4b9dc765ea7f0d7fd3a412" target="_top" xlink:title="pn::BrentRes::BrentRes">
<polygon fill="none" stroke="#000000" points="492,-266.5 492,-285.5 614,-285.5 614,-266.5 492,-266.5"/>
<text text-anchor="middle" x="553" y="-273.5" font-family="Helvetica,sans-Serif" font-size="10.00" fill="#000000">pn::BrentRes::BrentRes</text>
</a>
</g>
</g>
<!-- Node79&#45;&gt;Node80 -->
<g id="edge18" class="edge">
<title>Node79&#45;&gt;Node80</title>
<path fill="none" stroke="#191970" d="M412.0938,-276C430.7993,-276 456.9543,-276 481.6585,-276"/>
<polygon fill="#191970" stroke="#191970" points="481.7637,-279.5001 491.7636,-276 481.7636,-272.5001 481.7637,-279.5001"/>
</g>
</g>
</svg>
