<?xml version="1.0" encoding="UTF-8" standalone="no"?>
<!DOCTYPE svg PUBLIC "-//W3C//DTD SVG 1.1//EN"
 "http://www.w3.org/Graphics/SVG/1.1/DTD/svg11.dtd">
<!-- Generated by graphviz version 2.40.1 (20161225.0304)
 -->
<!-- Title: RCPP_MODULE Pages: 1 -->
<svg width="583pt" height="722pt"
 viewBox="0.00 0.00 583.00 722.27" xmlns="http://www.w3.org/2000/svg" xmlns:xlink="http://www.w3.org/1999/xlink">
<g id="graph0" class="graph" transform="scale(1 1) rotate(0) translate(4 718.2682)">
<title>RCPP_MODULE</title>
<!-- Node9 -->
<g id="node1" class="node">
<title>Node9</title>
<polygon fill="#bfbfbf" stroke="#000000" points="0,-342.5 0,-361.5 93,-361.5 93,-342.5 0,-342.5"/>
<text text-anchor="middle" x="46.5" y="-349.5" font-family="Helvetica,sans-Serif" font-size="10.00" fill="#000000">RCPP_MODULE</text>
</g>
<!-- Node10 -->
<g id="node2" class="node">
<title>Node10</title>
<g id="a_node2"><a xlink:href="namespacefish.html#a9d32a06cd887d748fca34b49b1e8d3d4" target="_top" xlink:title="fish::length_juvenile">
<polygon fill="none" stroke="#000000" points="472,-646.5 472,-665.5 575,-665.5 575,-646.5 472,-646.5"/>
<text text-anchor="middle" x="523.5" y="-653.5" font-family="Helvetica,sans-Serif" font-size="10.00" fill="#000000">fish::length_juvenile</text>
</a>
</g>
</g>
<!-- Node9&#45;&gt;Node10 -->
<g id="edge1" class="edge">
<title>Node9&#45;&gt;Node10</title>
<path fill="none" stroke="#191970" d="M47.5066,-361.6928C52.7765,-410.3941 78.8761,-627.638 129,-668 236.2958,-754.3993 418.3707,-697.6942 491.5989,-669.3665"/>
<polygon fill="#191970" stroke="#191970" points="493.1768,-672.5064 501.1902,-665.5755 490.6037,-665.9964 493.1768,-672.5064"/>
</g>
<!-- Node11 -->
<g id="node3" class="node">
<title>Node11</title>
<g id="a_node3"><a xlink:href="namespacefish.html#a138fecf39fc899d469d340b073a4daec" target="_top" xlink:title="fish::length_adult">
<polygon fill="none" stroke="#000000" points="323.5,-646.5 323.5,-665.5 414.5,-665.5 414.5,-646.5 323.5,-646.5"/>
<text text-anchor="middle" x="369" y="-653.5" font-family="Helvetica,sans-Serif" font-size="10.00" fill="#000000">fish::length_adult</text>
</a>
</g>
</g>
<!-- Node9&#45;&gt;Node11 -->
<g id="edge2" class="edge">
<title>Node9&#45;&gt;Node11</title>
<path fill="none" stroke="#191970" d="M47.8173,-361.6095C54.2614,-407.1198 83.987,-600.2999 129,-637 181.9536,-680.1742 265.1361,-675.9587 318.3526,-667.2703"/>
<polygon fill="#191970" stroke="#191970" points="319.0011,-670.7101 328.2523,-665.5461 317.8,-663.8139 319.0011,-670.7101"/>
</g>
<!-- Node12 -->
<g id="node4" class="node">
<title>Node12</title>
<g id="a_node4"><a xlink:href="namespacefish.html#a79ee7b63f43f9e9bda95cc04deb3a082" target="_top" xlink:title="fish::maturation_steepness">
<polygon fill="none" stroke="#000000" points="130.5,-456.5 130.5,-475.5 264.5,-475.5 264.5,-456.5 130.5,-456.5"/>
<text text-anchor="middle" x="197.5" y="-463.5" font-family="Helvetica,sans-Serif" font-size="10.00" fill="#000000">fish::maturation_steepness</text>
</a>
</g>
</g>
<!-- Node9&#45;&gt;Node12 -->
<g id="edge4" class="edge">
<title>Node9&#45;&gt;Node12</title>
<path fill="none" stroke="#191970" d="M52.8248,-361.5776C65.2993,-379.7627 94.8468,-419.4809 129,-442 135.5094,-446.292 142.8738,-449.9113 150.2996,-452.9323"/>
<polygon fill="#191970" stroke="#191970" points="149.0865,-456.2153 159.6789,-456.4446 151.5414,-449.6599 149.0865,-456.2153"/>
</g>
<!-- Node13 -->
<g id="node5" class="node">
<title>Node13</title>
<g id="a_node5"><a xlink:href="namespacefish.html#a708b4fb0fc8a7424ecebdd40f7dbcc4e" target="_top" xlink:title="fish::maturation_probability">
<polygon fill="none" stroke="#000000" points="302,-418.5 302,-437.5 436,-437.5 436,-418.5 302,-418.5"/>
<text text-anchor="middle" x="369" y="-425.5" font-family="Helvetica,sans-Serif" font-size="10.00" fill="#000000">fish::maturation_probability</text>
</a>
</g>
</g>
<!-- Node9&#45;&gt;Node13 -->
<g id="edge5" class="edge">
<title>Node9&#45;&gt;Node13</title>
<path fill="none" stroke="#191970" d="M56.6784,-361.7574C71.3236,-375.1134 99.8045,-398.6133 129,-409 181.2051,-427.5727 243.7023,-432.0048 291.832,-431.9611"/>
<polygon fill="#191970" stroke="#191970" points="291.9014,-435.4608 301.8754,-431.8874 291.8499,-428.461 291.9014,-435.4608"/>
</g>
<!-- Node14 -->
<g id="node6" class="node">
<title>Node14</title>
<g id="a_node6"><a xlink:href="namespacefish.html#a8eda92863da99cec25dc0a2f09571998" target="_top" xlink:title="fish::weight_fish">
<polygon fill="none" stroke="#000000" points="325,-513.5 325,-532.5 413,-532.5 413,-513.5 325,-513.5"/>
<text text-anchor="middle" x="369" y="-520.5" font-family="Helvetica,sans-Serif" font-size="10.00" fill="#000000">fish::weight_fish</text>
</a>
</g>
</g>
<!-- Node9&#45;&gt;Node14 -->
<g id="edge6" class="edge">
<title>Node9&#45;&gt;Node14</title>
<path fill="none" stroke="#191970" d="M49.3761,-361.6946C57.3663,-386.782 82.3743,-454.0303 129,-485 158.6475,-504.6925 253.4815,-514.9344 314.6881,-519.6286"/>
<polygon fill="#191970" stroke="#191970" points="314.7229,-523.1406 324.954,-520.3883 315.2396,-516.1597 314.7229,-523.1406"/>
</g>
<!-- Node15 -->
<g id="node7" class="node">
<title>Node15</title>
<g id="a_node7"><a xlink:href="namespacefish.html#a30a5cb4380aecc75b3cf0bf2774a6a4f" target="_top" xlink:title="fish::fecundity">
<polygon fill="none" stroke="#000000" points="158.5,-532.5 158.5,-551.5 236.5,-551.5 236.5,-532.5 158.5,-532.5"/>
<text text-anchor="middle" x="197.5" y="-539.5" font-family="Helvetica,sans-Serif" font-size="10.00" fill="#000000">fish::fecundity</text>
</a>
</g>
</g>
<!-- Node9&#45;&gt;Node15 -->
<g id="edge7" class="edge">
<title>Node9&#45;&gt;Node15</title>
<path fill="none" stroke="#191970" d="M48.6266,-361.8204C55.2778,-390.2218 78.3372,-473.2703 129,-518 134.715,-523.0457 141.5546,-527.047 148.668,-530.2156"/>
<polygon fill="#191970" stroke="#191970" points="147.8699,-533.6614 158.4579,-534.0404 150.4172,-527.1413 147.8699,-533.6614"/>
</g>
<!-- Node16 -->
<g id="node8" class="node">
<title>Node16</title>
<g id="a_node8"><a xlink:href="namespacefish.html#a90c2a586379b7d0521d4ade4e55ee5ec" target="_top" xlink:title="fish::gsi">
<polygon fill="none" stroke="#000000" points="343.5,-570.5 343.5,-589.5 394.5,-589.5 394.5,-570.5 343.5,-570.5"/>
<text text-anchor="middle" x="369" y="-577.5" font-family="Helvetica,sans-Serif" font-size="10.00" fill="#000000">fish::gsi</text>
</a>
</g>
</g>
<!-- Node9&#45;&gt;Node16 -->
<g id="edge10" class="edge">
<title>Node9&#45;&gt;Node16</title>
<path fill="none" stroke="#191970" d="M46.9225,-361.5687C48.9871,-395.4901 60.947,-510.6567 129,-561 189.2004,-605.5341 282.6842,-597.0409 333.3817,-587.9296"/>
<polygon fill="#191970" stroke="#191970" points="334.0571,-591.364 343.2258,-586.0548 332.7475,-584.4876 334.0571,-591.364"/>
</g>
<!-- Node17 -->
<g id="node9" class="node">
<title>Node17</title>
<g id="a_node9"><a xlink:href="namespacefish.html#a645c2b636a1dc9e837a5c267f7514027" target="_top" xlink:title="fish::natural_mortality">
<polygon fill="none" stroke="#000000" points="314,-304.5 314,-323.5 424,-323.5 424,-304.5 314,-304.5"/>
<text text-anchor="middle" x="369" y="-311.5" font-family="Helvetica,sans-Serif" font-size="10.00" fill="#000000">fish::natural_mortality</text>
</a>
</g>
</g>
<!-- Node9&#45;&gt;Node17 -->
<g id="edge11" class="edge">
<title>Node9&#45;&gt;Node17</title>
<path fill="none" stroke="#191970" d="M93.3165,-349.2551C137.8546,-346.335 206.6782,-341.02 266,-333 281.1534,-330.9513 297.4657,-328.1984 312.5403,-325.4249"/>
<polygon fill="#191970" stroke="#191970" points="313.5661,-328.7936 322.7494,-323.5099 312.2755,-321.9136 313.5661,-328.7936"/>
</g>
<!-- Node18 -->
<g id="node10" class="node">
<title>Node18</title>
<g id="a_node10"><a xlink:href="namespacefish.html#ab0499480bb6eb74da282054a5885d04c" target="_top" xlink:title="fish::survival_probability">
<polygon fill="none" stroke="#000000" points="136.5,-304.5 136.5,-323.5 258.5,-323.5 258.5,-304.5 136.5,-304.5"/>
<text text-anchor="middle" x="197.5" y="-311.5" font-family="Helvetica,sans-Serif" font-size="10.00" fill="#000000">fish::survival_probability</text>
</a>
</g>
</g>
<!-- Node9&#45;&gt;Node18 -->
<g id="edge12" class="edge">
<title>Node9&#45;&gt;Node18</title>
<path fill="none" stroke="#191970" d="M84.6037,-342.411C104.44,-337.4191 128.8839,-331.2676 149.9483,-325.9666"/>
<polygon fill="#191970" stroke="#191970" points="150.8269,-329.3548 159.6703,-323.5201 149.1185,-322.5664 150.8269,-329.3548"/>
</g>
<!-- Node19 -->
<g id="node11" class="node">
<title>Node19</title>
<g id="a_node11"><a xlink:href="classFish.html#a7734c4cfe4ae06e89474e86dae63235e" target="_top" xlink:title="Fish::print">
<polygon fill="none" stroke="#000000" points="167.5,-228.5 167.5,-247.5 227.5,-247.5 227.5,-228.5 167.5,-228.5"/>
<text text-anchor="middle" x="197.5" y="-235.5" font-family="Helvetica,sans-Serif" font-size="10.00" fill="#000000">Fish::print</text>
</a>
</g>
</g>
<!-- Node9&#45;&gt;Node19 -->
<g id="edge14" class="edge">
<title>Node9&#45;&gt;Node19</title>
<path fill="none" stroke="#191970" d="M52.1851,-342.2621C63.9671,-322.9573 92.9814,-279.7396 129,-257 137.5197,-251.6212 147.5721,-247.7408 157.313,-244.9501"/>
<polygon fill="#191970" stroke="#191970" points="158.444,-248.274 167.2741,-242.4191 156.7201,-241.4896 158.444,-248.274"/>
</g>
<!-- Node20 -->
<g id="node12" class="node">
<title>Node20</title>
<g id="a_node12"><a xlink:href="classFish.html#a530deb5c81c40050e692af241fb5610b" target="_top" xlink:title="Fish::print_line">
<polygon fill="none" stroke="#000000" points="157.5,-190.5 157.5,-209.5 237.5,-209.5 237.5,-190.5 157.5,-190.5"/>
<text text-anchor="middle" x="197.5" y="-197.5" font-family="Helvetica,sans-Serif" font-size="10.00" fill="#000000">Fish::print_line</text>
</a>
</g>
</g>
<!-- Node9&#45;&gt;Node20 -->
<g id="edge15" class="edge">
<title>Node9&#45;&gt;Node20</title>
<path fill="none" stroke="#191970" d="M49.7108,-342.2446C58.3361,-317.5951 84.4241,-252.4024 129,-219 134.5075,-214.873 140.8661,-211.6424 147.4435,-209.1135"/>
<polygon fill="#191970" stroke="#191970" points="148.7746,-212.3596 157.1632,-205.8879 146.5697,-205.7159 148.7746,-212.3596"/>
</g>
<!-- Node21 -->
<g id="node13" class="node">
<title>Node21</title>
<g id="a_node13"><a xlink:href="classFish.html#aa60ee2a3e2c8e6dc37daac44262b586e" target="_top" xlink:title="Fish::print_header">
<polygon fill="none" stroke="#000000" points="150,-152.5 150,-171.5 245,-171.5 245,-152.5 150,-152.5"/>
<text text-anchor="middle" x="197.5" y="-159.5" font-family="Helvetica,sans-Serif" font-size="10.00" fill="#000000">Fish::print_header</text>
</a>
</g>
</g>
<!-- Node9&#45;&gt;Node21 -->
<g id="edge16" class="edge">
<title>Node9&#45;&gt;Node21</title>
<path fill="none" stroke="#191970" d="M48.3035,-342.1395C54.1895,-312.8421 75.6233,-225.5882 129,-181 132.5045,-178.0726 136.4268,-175.5944 140.5731,-173.4969"/>
<polygon fill="#191970" stroke="#191970" points="142.1193,-176.6422 149.9323,-169.4863 139.3621,-170.2081 142.1193,-176.6422"/>
</g>
<!-- Node22 -->
<g id="node14" class="node">
<title>Node22</title>
<g id="a_node14"><a xlink:href="classFish.html#ab9b673887514b9d446232e0019c6034a" target="_top" xlink:title="Fish::set_age">
<polygon fill="none" stroke="#000000" points="159.5,-114.5 159.5,-133.5 235.5,-133.5 235.5,-114.5 159.5,-114.5"/>
<text text-anchor="middle" x="197.5" y="-121.5" font-family="Helvetica,sans-Serif" font-size="10.00" fill="#000000">Fish::set_age</text>
</a>
</g>
</g>
<!-- Node9&#45;&gt;Node22 -->
<g id="edge17" class="edge">
<title>Node9&#45;&gt;Node22</title>
<path fill="none" stroke="#191970" d="M47.3254,-342.4149C50.6932,-309.4025 66.3636,-199.36 129,-143 134.87,-137.7182 142.0849,-133.8897 149.6057,-131.118"/>
<polygon fill="#191970" stroke="#191970" points="150.6997,-134.4433 159.2175,-128.1425 148.6297,-127.7563 150.6997,-134.4433"/>
</g>
<!-- Node23 -->
<g id="node15" class="node">
<title>Node23</title>
<g id="a_node15"><a xlink:href="classFish.html#acf6d815ee242fd3b3ee2412dbe11a2ed" target="_top" xlink:title="Fish::matureNow">
<polygon fill="none" stroke="#000000" points="151.5,-380.5 151.5,-399.5 243.5,-399.5 243.5,-380.5 151.5,-380.5"/>
<text text-anchor="middle" x="197.5" y="-387.5" font-family="Helvetica,sans-Serif" font-size="10.00" fill="#000000">Fish::matureNow</text>
</a>
</g>
</g>
<!-- Node9&#45;&gt;Node23 -->
<g id="edge18" class="edge">
<title>Node9&#45;&gt;Node23</title>
<path fill="none" stroke="#191970" d="M84.6037,-361.589C104.44,-366.5809 128.8839,-372.7324 149.9483,-378.0334"/>
<polygon fill="#191970" stroke="#191970" points="149.1185,-381.4336 159.6703,-380.4799 150.8269,-374.6452 149.1185,-381.4336"/>
</g>
<!-- Node25 -->
<g id="node17" class="node">
<title>Node25</title>
<g id="a_node17"><a xlink:href="classFish.html#a9f59c976d73c231f73b873184262eedc" target="_top" xlink:title="Fish::updateMaturity">
<polygon fill="none" stroke="#000000" points="144.5,-76.5 144.5,-95.5 250.5,-95.5 250.5,-76.5 144.5,-76.5"/>
<text text-anchor="middle" x="197.5" y="-83.5" font-family="Helvetica,sans-Serif" font-size="10.00" fill="#000000">Fish::updateMaturity</text>
</a>
</g>
</g>
<!-- Node9&#45;&gt;Node25 -->
<g id="edge21" class="edge">
<title>Node9&#45;&gt;Node25</title>
<path fill="none" stroke="#191970" d="M48.4369,-342.4754C56.974,-301.3734 92.4439,-139.7104 129,-105 130.9186,-103.1783 132.9962,-101.5284 135.1927,-100.0344"/>
<polygon fill="#191970" stroke="#191970" points="137.1525,-102.9486 144.1698,-95.0108 133.734,-96.84 137.1525,-102.9486"/>
</g>
<!-- Node26 -->
<g id="node18" class="node">
<title>Node26</title>
<g id="a_node18"><a xlink:href="classFish.html#ab95285bebae6447ce00fabcd2f0aa6d0" target="_top" xlink:title="Fish::grow">
<polygon fill="none" stroke="#000000" points="166.5,-608.5 166.5,-627.5 228.5,-627.5 228.5,-608.5 166.5,-608.5"/>
<text text-anchor="middle" x="197.5" y="-615.5" font-family="Helvetica,sans-Serif" font-size="10.00" fill="#000000">Fish::grow</text>
</a>
</g>
</g>
<!-- Node9&#45;&gt;Node26 -->
<g id="edge22" class="edge">
<title>Node9&#45;&gt;Node26</title>
<path fill="none" stroke="#191970" d="M46.9099,-361.8715C48.947,-398.1126 60.8655,-525.2875 129,-594 136.5307,-601.5945 146.5974,-606.7914 156.6909,-610.3455"/>
<polygon fill="#191970" stroke="#191970" points="155.7082,-613.7049 166.2943,-613.2745 157.7503,-607.0094 155.7082,-613.7049"/>
</g>
<!-- Node27 -->
<g id="node19" class="node">
<title>Node27</title>
<g id="a_node19"><a xlink:href="classFish.html#a78cda076a02648a86822064657256027" target="_top" xlink:title="Fish::naturalMortalityRate">
<polygon fill="none" stroke="#000000" points="133,-266.5 133,-285.5 262,-285.5 262,-266.5 133,-266.5"/>
<text text-anchor="middle" x="197.5" y="-273.5" font-family="Helvetica,sans-Serif" font-size="10.00" fill="#000000">Fish::naturalMortalityRate</text>
</a>
</g>
</g>
<!-- Node9&#45;&gt;Node27 -->
<g id="edge26" class="edge">
<title>Node9&#45;&gt;Node27</title>
<path fill="none" stroke="#191970" d="M57.7634,-342.3692C72.9851,-329.8057 101.4048,-307.9099 129,-295 134.0303,-292.6466 139.4088,-290.5336 144.8575,-288.649"/>
<polygon fill="#191970" stroke="#191970" points="146.2262,-291.8858 154.6812,-285.501 144.0901,-285.2197 146.2262,-291.8858"/>
</g>
<!-- Node28 -->
<g id="node20" class="node">
<title>Node28</title>
<g id="a_node20"><a xlink:href="classFish.html#aa5c5cb34e7f19c6a4ca93858adf3e16a" target="_top" xlink:title="Fish::get_state">
<polygon fill="none" stroke="#000000" points="156.5,-38.5 156.5,-57.5 238.5,-57.5 238.5,-38.5 156.5,-38.5"/>
<text text-anchor="middle" x="197.5" y="-45.5" font-family="Helvetica,sans-Serif" font-size="10.00" fill="#000000">Fish::get_state</text>
</a>
</g>
</g>
<!-- Node9&#45;&gt;Node28 -->
<g id="edge28" class="edge">
<title>Node9&#45;&gt;Node28</title>
<path fill="none" stroke="#191970" d="M48.0236,-342.2671C55.2913,-297.0239 87.7948,-107.7462 129,-67 133.9526,-62.1026 140.0508,-58.441 146.5487,-55.7085"/>
<polygon fill="#191970" stroke="#191970" points="147.9692,-58.9204 156.2681,-52.3341 145.6733,-52.3076 147.9692,-58.9204"/>
</g>
<!-- Node29 -->
<g id="node21" class="node">
<title>Node29</title>
<g id="a_node21"><a xlink:href="fish__glue_8cpp.html#a98419b0e357e28499fdbf638fbe73e50" target="_top" xlink:title="RCPP_EXPOSED_CLASS">
<polygon fill="none" stroke="#000000" points="129,-.5 129,-19.5 266,-19.5 266,-.5 129,-.5"/>
<text text-anchor="middle" x="197.5" y="-7.5" font-family="Helvetica,sans-Serif" font-size="10.00" fill="#000000">RCPP_EXPOSED_CLASS</text>
</a>
</g>
</g>
<!-- Node9&#45;&gt;Node29 -->
<g id="edge29" class="edge">
<title>Node9&#45;&gt;Node29</title>
<path fill="none" stroke="#191970" d="M47.6664,-342.3107C53.7173,-293.5964 83.0287,-75.9235 129,-29 130.4251,-27.5454 131.951,-26.1994 133.5589,-24.954"/>
<polygon fill="#191970" stroke="#191970" points="135.5882,-27.8126 142.1935,-19.5288 131.864,-21.8854 135.5882,-27.8126"/>
</g>
<!-- Node11&#45;&gt;Node10 -->
<g id="edge3" class="edge">
<title>Node11&#45;&gt;Node10</title>
<path fill="none" stroke="#191970" d="M414.5195,-656C429.2689,-656 445.8862,-656 461.6174,-656"/>
<polygon fill="#191970" stroke="#191970" points="461.7987,-659.5001 471.7986,-656 461.7986,-652.5001 461.7987,-659.5001"/>
</g>
<!-- Node15&#45;&gt;Node14 -->
<g id="edge8" class="edge">
<title>Node15&#45;&gt;Node14</title>
<path fill="none" stroke="#191970" d="M236.8456,-537.641C259.8785,-535.0893 289.3035,-531.8293 314.5387,-529.0336"/>
<polygon fill="#191970" stroke="#191970" points="315.1492,-532.4875 324.703,-527.9075 314.3784,-525.53 315.1492,-532.4875"/>
</g>
<!-- Node15&#45;&gt;Node16 -->
<g id="edge9" class="edge">
<title>Node15&#45;&gt;Node16</title>
<path fill="none" stroke="#191970" d="M236.8456,-550.718C265.9986,-557.1775 305.3919,-565.9061 333.5685,-572.1493"/>
<polygon fill="#191970" stroke="#191970" points="332.8818,-575.5819 343.4022,-574.3282 334.3961,-568.7477 332.8818,-575.5819"/>
</g>
<!-- Node18&#45;&gt;Node17 -->
<g id="edge13" class="edge">
<title>Node18&#45;&gt;Node17</title>
<path fill="none" stroke="#191970" d="M258.931,-314C273.5343,-314 289.1633,-314 303.9234,-314"/>
<polygon fill="#191970" stroke="#191970" points="303.9798,-317.5001 313.9798,-314 303.9797,-310.5001 303.9798,-317.5001"/>
</g>
<!-- Node23&#45;&gt;Node13 -->
<g id="edge20" class="edge">
<title>Node23&#45;&gt;Node13</title>
<path fill="none" stroke="#191970" d="M240.7767,-399.589C263.6119,-404.6487 291.8232,-410.8996 315.9648,-416.2488"/>
<polygon fill="#191970" stroke="#191970" points="315.5141,-419.7337 326.0345,-418.4799 317.0285,-412.8995 315.5141,-419.7337"/>
</g>
<!-- Node24 -->
<g id="node16" class="node">
<title>Node24</title>
<g id="a_node16"><a xlink:href="population_8cpp.html#a448644b6a3a0fa7cd89a6ce52b9bd3aa" target="_top" xlink:title="runif">
<polygon fill="none" stroke="#000000" points="351.5,-380.5 351.5,-399.5 386.5,-399.5 386.5,-380.5 351.5,-380.5"/>
<text text-anchor="middle" x="369" y="-387.5" font-family="Helvetica,sans-Serif" font-size="10.00" fill="#000000">runif</text>
</a>
</g>
</g>
<!-- Node23&#45;&gt;Node24 -->
<g id="edge19" class="edge">
<title>Node23&#45;&gt;Node24</title>
<path fill="none" stroke="#191970" d="M243.9104,-390C275.1235,-390 315.2152,-390 341.4846,-390"/>
<polygon fill="#191970" stroke="#191970" points="341.4961,-393.5001 351.4961,-390 341.4961,-386.5001 341.4961,-393.5001"/>
</g>
<!-- Node26&#45;&gt;Node10 -->
<g id="edge24" class="edge">
<title>Node26&#45;&gt;Node10</title>
<path fill="none" stroke="#191970" d="M228.5231,-619.1405C274.1727,-621.1193 362.0353,-626.0739 436,-637 448.741,-638.8821 462.4,-641.5361 475.0482,-644.2651"/>
<polygon fill="#191970" stroke="#191970" points="474.4179,-647.7103 484.9383,-646.4566 475.9323,-640.8761 474.4179,-647.7103"/>
</g>
<!-- Node26&#45;&gt;Node11 -->
<g id="edge23" class="edge">
<title>Node26&#45;&gt;Node11</title>
<path fill="none" stroke="#191970" d="M228.5574,-624.8815C252.9069,-630.2768 287.3545,-637.9095 316.039,-644.2652"/>
<polygon fill="#191970" stroke="#191970" points="315.3984,-647.7081 325.9188,-646.4543 316.9127,-640.8738 315.3984,-647.7081"/>
</g>
<!-- Node26&#45;&gt;Node16 -->
<g id="edge25" class="edge">
<title>Node26&#45;&gt;Node16</title>
<path fill="none" stroke="#191970" d="M228.5574,-611.1185C258.1299,-604.566 302.5972,-594.7132 333.5455,-587.8558"/>
<polygon fill="#191970" stroke="#191970" points="334.4757,-591.2347 343.4817,-585.6542 332.9613,-584.4004 334.4757,-591.2347"/>
</g>
<!-- Node27&#45;&gt;Node17 -->
<g id="edge27" class="edge">
<title>Node27&#45;&gt;Node17</title>
<path fill="none" stroke="#191970" d="M240.7767,-285.589C263.6119,-290.6487 291.8232,-296.8996 315.9648,-302.2488"/>
<polygon fill="#191970" stroke="#191970" points="315.5141,-305.7337 326.0345,-304.4799 317.0285,-298.8995 315.5141,-305.7337"/>
</g>
</g>
</svg>
