<?xml version="1.0" encoding="UTF-8" standalone="no"?>
<!DOCTYPE svg PUBLIC "-//W3C//DTD SVG 1.1//EN"
 "http://www.w3.org/Graphics/SVG/1.1/DTD/svg11.dtd">
<!-- Generated by graphviz version 2.40.1 (20161225.0304)
 -->
<!-- Title: RCPP_MODULE Pages: 1 -->
<svg width="805pt" height="655pt"
 viewBox="0.00 0.00 805.00 655.00" xmlns="http://www.w3.org/2000/svg" xmlns:xlink="http://www.w3.org/1999/xlink">
<g id="graph0" class="graph" transform="scale(1 1) rotate(0) translate(4 651)">
<title>RCPP_MODULE</title>
<!-- Node42 -->
<g id="node1" class="node">
<title>Node42</title>
<polygon fill="#bfbfbf" stroke="#000000" points="0,-304.5 0,-323.5 93,-323.5 93,-304.5 0,-304.5"/>
<text text-anchor="middle" x="46.5" y="-311.5" font-family="Helvetica,sans-Serif" font-size="10.00" fill="#000000">RCPP_MODULE</text>
</g>
<!-- Node43 -->
<g id="node2" class="node">
<title>Node43</title>
<g id="a_node2"><a xlink:href="classPopulation.html#ae8a6455aa45e65bf8bd41312f9caa328" target="_top" xlink:title="Population::set_superFishSize">
<polygon fill="none" stroke="#000000" points="133.5,-608.5 133.5,-627.5 282.5,-627.5 282.5,-608.5 133.5,-608.5"/>
<text text-anchor="middle" x="208" y="-615.5" font-family="Helvetica,sans-Serif" font-size="10.00" fill="#000000">Population::set_superFishSize</text>
</a>
</g>
</g>
<!-- Node42&#45;&gt;Node43 -->
<g id="edge1" class="edge">
<title>Node42&#45;&gt;Node43</title>
<path fill="none" stroke="#191970" d="M48.0703,-323.5423C55.5484,-367.9023 88.8562,-553.5175 129,-594 132.9111,-597.9441 137.4482,-601.2441 142.3322,-604.0046"/>
<polygon fill="#191970" stroke="#191970" points="140.9121,-607.2056 151.4378,-608.4134 143.9626,-600.9052 140.9121,-607.2056"/>
</g>
<!-- Node44 -->
<g id="node3" class="node">
<title>Node44</title>
<g id="a_node3"><a xlink:href="classPopulation.html#a20696fa511c914e7c8837acb2a254b33" target="_top" xlink:title="Population::set_harvestProp">
<polygon fill="none" stroke="#000000" points="323,-570.5 323,-589.5 463,-589.5 463,-570.5 323,-570.5"/>
<text text-anchor="middle" x="393" y="-577.5" font-family="Helvetica,sans-Serif" font-size="10.00" fill="#000000">Population::set_harvestProp</text>
</a>
</g>
</g>
<!-- Node42&#45;&gt;Node44 -->
<g id="edge2" class="edge">
<title>Node42&#45;&gt;Node44</title>
<path fill="none" stroke="#191970" d="M48.3838,-323.7357C56.5679,-364.9745 90.3664,-524.537 129,-555 187.6589,-601.2532 278.0155,-598.9172 336.3236,-591.0044"/>
<polygon fill="#191970" stroke="#191970" points="337.0744,-594.4321 346.4659,-589.5281 336.0661,-587.5051 337.0744,-594.4321"/>
</g>
<!-- Node45 -->
<g id="node4" class="node">
<title>Node45</title>
<g id="a_node4"><a xlink:href="classPopulation.html#a343a346cae1413da400c042868c15859" target="_top" xlink:title="Population::set_minSizeLimit">
<polygon fill="none" stroke="#000000" points="136.5,-266.5 136.5,-285.5 279.5,-285.5 279.5,-266.5 136.5,-266.5"/>
<text text-anchor="middle" x="208" y="-273.5" font-family="Helvetica,sans-Serif" font-size="10.00" fill="#000000">Population::set_minSizeLimit</text>
</a>
</g>
</g>
<!-- Node42&#45;&gt;Node45 -->
<g id="edge3" class="edge">
<title>Node42&#45;&gt;Node45</title>
<path fill="none" stroke="#191970" d="M87.2533,-304.411C108.6609,-299.3739 135.0862,-293.1562 157.7525,-287.8229"/>
<polygon fill="#191970" stroke="#191970" points="158.6073,-291.2175 167.5398,-285.5201 157.0039,-284.4036 158.6073,-291.2175"/>
</g>
<!-- Node46 -->
<g id="node5" class="node">
<title>Node46</title>
<g id="a_node5"><a xlink:href="classPopulation.html#ac8ed845bbda25c937a2fd76b3788e987" target="_top" xlink:title="Population::selectivity">
<polygon fill="none" stroke="#000000" points="679.5,-437.5 679.5,-456.5 792.5,-456.5 792.5,-437.5 679.5,-437.5"/>
<text text-anchor="middle" x="736" y="-444.5" font-family="Helvetica,sans-Serif" font-size="10.00" fill="#000000">Population::selectivity</text>
</a>
</g>
</g>
<!-- Node42&#45;&gt;Node46 -->
<g id="edge4" class="edge">
<title>Node42&#45;&gt;Node46</title>
<path fill="none" stroke="#191970" d="M93.4695,-315.1847C232.6054,-318.7349 633.3111,-329.2709 639,-333 670.2584,-353.4902 650.1304,-381.0994 675,-409 683.4118,-418.437 694.7204,-426.3565 705.3151,-432.4814"/>
<polygon fill="#191970" stroke="#191970" points="703.8939,-435.6925 714.3511,-437.3949 707.238,-429.5429 703.8939,-435.6925"/>
</g>
<!-- Node47 -->
<g id="node6" class="node">
<title>Node47</title>
<g id="a_node6"><a xlink:href="classPopulation.html#a012ef586a78b4e7c2082634b316072d0" target="_top" xlink:title="Population::init">
<polygon fill="none" stroke="#000000" points="352.5,-532.5 352.5,-551.5 433.5,-551.5 433.5,-532.5 352.5,-532.5"/>
<text text-anchor="middle" x="393" y="-539.5" font-family="Helvetica,sans-Serif" font-size="10.00" fill="#000000">Population::init</text>
</a>
</g>
</g>
<!-- Node42&#45;&gt;Node47 -->
<g id="edge5" class="edge">
<title>Node42&#45;&gt;Node47</title>
<path fill="none" stroke="#191970" d="M46.91,-323.5857C48.9323,-357.5644 60.7673,-472.9005 129,-523 191.0217,-568.539 284.8553,-562.6338 342.3506,-553.0995"/>
<polygon fill="#191970" stroke="#191970" points="343.0548,-556.5295 352.2991,-551.3532 341.8446,-549.6349 343.0548,-556.5295"/>
</g>
<!-- Node51 -->
<g id="node10" class="node">
<title>Node51</title>
<g id="a_node10"><a xlink:href="classPopulation.html#a81c19d1c80cfb1d54d3872ecdefd0872" target="_top" xlink:title="Population::update">
<polygon fill="none" stroke="#000000" points="344,-418.5 344,-437.5 442,-437.5 442,-418.5 344,-418.5"/>
<text text-anchor="middle" x="393" y="-425.5" font-family="Helvetica,sans-Serif" font-size="10.00" fill="#000000">Population::update</text>
</a>
</g>
</g>
<!-- Node42&#45;&gt;Node51 -->
<g id="edge9" class="edge">
<title>Node42&#45;&gt;Node51</title>
<path fill="none" stroke="#191970" d="M52.0109,-323.7708C63.4799,-343.0402 91.959,-385.6594 129,-404 193.6467,-436.0094 278.1001,-437.8186 333.8703,-434.4097"/>
<polygon fill="#191970" stroke="#191970" points="334.202,-437.8952 343.9388,-433.7185 333.7225,-430.9117 334.202,-437.8952"/>
</g>
<!-- Node53 -->
<g id="node12" class="node">
<title>Node53</title>
<g id="a_node12"><a xlink:href="classPopulation.html#af15e7ba23b161c710d4013204b542cb6" target="_top" xlink:title="Population::calcSSB">
<polygon fill="none" stroke="#000000" points="515.5,-342.5 515.5,-361.5 622.5,-361.5 622.5,-342.5 515.5,-342.5"/>
<text text-anchor="middle" x="569" y="-349.5" font-family="Helvetica,sans-Serif" font-size="10.00" fill="#000000">Population::calcSSB</text>
</a>
</g>
</g>
<!-- Node42&#45;&gt;Node53 -->
<g id="edge22" class="edge">
<title>Node42&#45;&gt;Node53</title>
<path fill="none" stroke="#191970" d="M93.0539,-322.85C104.7519,-324.8116 117.3054,-326.6931 129,-328 262.3331,-342.9007 419.4734,-348.649 505.2319,-350.7918"/>
<polygon fill="#191970" stroke="#191970" points="505.2484,-354.2931 515.33,-351.0356 505.4174,-347.2951 505.2484,-354.2931"/>
</g>
<!-- Node55 -->
<g id="node14" class="node">
<title>Node55</title>
<g id="a_node14"><a xlink:href="classPopulation.html#a42c4b04852bdda937e50f82952106af1" target="_top" xlink:title="Population::fishableBiomass">
<polygon fill="none" stroke="#000000" points="499,-570.5 499,-589.5 639,-589.5 639,-570.5 499,-570.5"/>
<text text-anchor="middle" x="569" y="-577.5" font-family="Helvetica,sans-Serif" font-size="10.00" fill="#000000">Population::fishableBiomass</text>
</a>
</g>
</g>
<!-- Node42&#45;&gt;Node55 -->
<g id="edge23" class="edge">
<title>Node42&#45;&gt;Node55</title>
<path fill="none" stroke="#191970" d="M50.4231,-323.746C60.1225,-346.5672 87.4915,-403.7471 129,-433 254.6674,-521.5634 330.9641,-444.2456 463,-523 482.9802,-534.9174 479.0307,-549.0642 499,-561 502.648,-563.1804 506.5508,-565.1162 510.5778,-566.8339"/>
<polygon fill="#191970" stroke="#191970" points="509.5466,-570.186 520.138,-570.4586 512.0283,-563.6406 509.5466,-570.186"/>
</g>
<!-- Node59 -->
<g id="node18" class="node">
<title>Node59</title>
<g id="a_node18"><a xlink:href="classPopulation.html#ac62fc3480d60b055cd1886649809c6a6" target="_top" xlink:title="Population::nfish">
<polygon fill="none" stroke="#000000" points="524.5,-266.5 524.5,-285.5 613.5,-285.5 613.5,-266.5 524.5,-266.5"/>
<text text-anchor="middle" x="569" y="-273.5" font-family="Helvetica,sans-Serif" font-size="10.00" fill="#000000">Population::nfish</text>
</a>
</g>
</g>
<!-- Node42&#45;&gt;Node59 -->
<g id="edge34" class="edge">
<title>Node42&#45;&gt;Node59</title>
<path fill="none" stroke="#191970" d="M93.3282,-310.5943C189.9532,-303.567 410.9919,-287.4915 514.1236,-279.991"/>
<polygon fill="#191970" stroke="#191970" points="514.6025,-283.4655 524.3223,-279.2493 514.0947,-276.484 514.6025,-283.4655"/>
</g>
<!-- Node60 -->
<g id="node19" class="node">
<title>Node60</title>
<g id="a_node19"><a xlink:href="classPopulation.html#aa7eba257f23cbc12aa3673ce012fb2cb" target="_top" xlink:title="Population::noFishingEquilibriate">
<polygon fill="none" stroke="#000000" points="129,-494.5 129,-513.5 287,-513.5 287,-494.5 129,-494.5"/>
<text text-anchor="middle" x="208" y="-501.5" font-family="Helvetica,sans-Serif" font-size="10.00" fill="#000000">Population::noFishingEquilibriate</text>
</a>
</g>
</g>
<!-- Node42&#45;&gt;Node60 -->
<g id="edge24" class="edge">
<title>Node42&#45;&gt;Node60</title>
<path fill="none" stroke="#191970" d="M48.4461,-323.5186C54.7304,-351.8098 77.162,-436.1378 129,-480 133.8831,-484.1318 139.4644,-487.5524 145.3519,-490.3842"/>
<polygon fill="#191970" stroke="#191970" points="144.2254,-493.7075 154.7997,-494.3671 146.9446,-487.2573 144.2254,-493.7075"/>
</g>
<!-- Node61 -->
<g id="node20" class="node">
<title>Node61</title>
<g id="a_node20"><a xlink:href="classPopulation.html#a62f07e15a6d75f0e37e6e24e6a2eaec2" target="_top" xlink:title="Population::get_state">
<polygon fill="none" stroke="#000000" points="153.5,-228.5 153.5,-247.5 262.5,-247.5 262.5,-228.5 153.5,-228.5"/>
<text text-anchor="middle" x="208" y="-235.5" font-family="Helvetica,sans-Serif" font-size="10.00" fill="#000000">Population::get_state</text>
</a>
</g>
</g>
<!-- Node42&#45;&gt;Node61 -->
<g id="edge28" class="edge">
<title>Node42&#45;&gt;Node61</title>
<path fill="none" stroke="#191970" d="M57.4393,-304.4426C72.5227,-291.7554 101.027,-269.5024 129,-257 134.4452,-254.5663 140.2467,-252.4182 146.1383,-250.5278"/>
<polygon fill="#191970" stroke="#191970" points="147.4944,-253.7766 156.0915,-247.5846 145.5095,-247.064 147.4944,-253.7766"/>
</g>
<!-- Node62 -->
<g id="node21" class="node">
<title>Node62</title>
<g id="a_node21"><a xlink:href="classPopulation.html#a29fa674d9ce3986f71b07f11d2374fde" target="_top" xlink:title="Population::get_traits">
<polygon fill="none" stroke="#000000" points="153.5,-190.5 153.5,-209.5 262.5,-209.5 262.5,-190.5 153.5,-190.5"/>
<text text-anchor="middle" x="208" y="-197.5" font-family="Helvetica,sans-Serif" font-size="10.00" fill="#000000">Population::get_traits</text>
</a>
</g>
</g>
<!-- Node42&#45;&gt;Node62 -->
<g id="edge29" class="edge">
<title>Node42&#45;&gt;Node62</title>
<path fill="none" stroke="#191970" d="M51.941,-304.4536C63.4872,-285.1064 92.4073,-241.2275 129,-219 133.4816,-216.2777 138.3273,-213.9455 143.337,-211.9473"/>
<polygon fill="#191970" stroke="#191970" points="144.8507,-215.125 153.1202,-208.5018 142.5254,-208.5224 144.8507,-215.125"/>
</g>
<!-- Node64 -->
<g id="node23" class="node">
<title>Node64</title>
<g id="a_node23"><a xlink:href="classPopulation.html#af069291adb3fb7b451a36cf0a179398b" target="_top" xlink:title="Population::summarize">
<polygon fill="none" stroke="#000000" points="335,-133.5 335,-152.5 451,-152.5 451,-133.5 335,-133.5"/>
<text text-anchor="middle" x="393" y="-140.5" font-family="Helvetica,sans-Serif" font-size="10.00" fill="#000000">Population::summarize</text>
</a>
</g>
</g>
<!-- Node42&#45;&gt;Node64 -->
<g id="edge31" class="edge">
<title>Node42&#45;&gt;Node64</title>
<path fill="none" stroke="#191970" d="M47.6681,-304.307C51.912,-273.9205 69.5389,-180.3322 129,-143 197.8826,-99.7526 298.1216,-116.462 353.1472,-130.7866"/>
<polygon fill="#191970" stroke="#191970" points="352.3107,-134.186 362.8777,-133.4185 354.1385,-127.4288 352.3107,-134.186"/>
</g>
<!-- Node65 -->
<g id="node24" class="node">
<title>Node65</title>
<g id="a_node24"><a xlink:href="classPopulation.html#a345497aa32fe22f73153a59f469c6a19" target="_top" xlink:title="Population::print_summary">
<polygon fill="none" stroke="#000000" points="141.5,-152.5 141.5,-171.5 274.5,-171.5 274.5,-152.5 141.5,-152.5"/>
<text text-anchor="middle" x="208" y="-159.5" font-family="Helvetica,sans-Serif" font-size="10.00" fill="#000000">Population::print_summary</text>
</a>
</g>
</g>
<!-- Node42&#45;&gt;Node65 -->
<g id="edge32" class="edge">
<title>Node42&#45;&gt;Node65</title>
<path fill="none" stroke="#191970" d="M49.6429,-304.1524C58.1089,-279.2863 83.8538,-213.6275 129,-181 131.6868,-179.0582 134.546,-177.3129 137.5233,-175.7442"/>
<polygon fill="#191970" stroke="#191970" points="139.0996,-178.8724 146.7555,-171.5486 136.2034,-172.4996 139.0996,-178.8724"/>
</g>
<!-- Node66 -->
<g id="node25" class="node">
<title>Node66</title>
<g id="a_node25"><a xlink:href="classPopulation.html#a2cbbf4e1d4fdfe6fc3f67b96a5aa698d" target="_top" xlink:title="Population::readEnvironmentFile">
<polygon fill="none" stroke="#000000" points="129,-76.5 129,-95.5 287,-95.5 287,-76.5 129,-76.5"/>
<text text-anchor="middle" x="208" y="-83.5" font-family="Helvetica,sans-Serif" font-size="10.00" fill="#000000">Population::readEnvironmentFile</text>
</a>
</g>
</g>
<!-- Node42&#45;&gt;Node66 -->
<g id="edge35" class="edge">
<title>Node42&#45;&gt;Node66</title>
<path fill="none" stroke="#191970" d="M47.5062,-304.2434C51.3936,-271.6429 68.3841,-165.4273 129,-110 133.4049,-105.9721 138.467,-102.6196 143.856,-99.8293"/>
<polygon fill="#191970" stroke="#191970" points="145.4869,-102.9337 153.1754,-95.6442 142.6192,-96.548 145.4869,-102.9337"/>
</g>
<!-- Node67 -->
<g id="node26" class="node">
<title>Node67</title>
<g id="a_node26"><a xlink:href="classPopulation.html#a59c8a171470f0cca4453940e07c3c1df" target="_top" xlink:title="Population::updateEnv">
<polygon fill="none" stroke="#000000" points="150.5,-38.5 150.5,-57.5 265.5,-57.5 265.5,-38.5 150.5,-38.5"/>
<text text-anchor="middle" x="208" y="-45.5" font-family="Helvetica,sans-Serif" font-size="10.00" fill="#000000">Population::updateEnv</text>
</a>
</g>
</g>
<!-- Node42&#45;&gt;Node67 -->
<g id="edge36" class="edge">
<title>Node42&#45;&gt;Node67</title>
<path fill="none" stroke="#191970" d="M48.4073,-304.4437C56.8209,-263.2093 91.8498,-101.0738 129,-67 132.5801,-63.7164 136.6265,-60.9724 140.9491,-58.6822"/>
<polygon fill="#191970" stroke="#191970" points="142.4335,-61.8527 150.1487,-54.5913 139.5892,-55.4566 142.4335,-61.8527"/>
</g>
<!-- Node68 -->
<g id="node27" class="node">
<title>Node68</title>
<g id="a_node27"><a xlink:href="fish__glue_8cpp.html#a98419b0e357e28499fdbf638fbe73e50" target="_top" xlink:title="RCPP_EXPOSED_CLASS">
<polygon fill="none" stroke="#000000" points="139.5,-.5 139.5,-19.5 276.5,-19.5 276.5,-.5 139.5,-.5"/>
<text text-anchor="middle" x="208" y="-7.5" font-family="Helvetica,sans-Serif" font-size="10.00" fill="#000000">RCPP_EXPOSED_CLASS</text>
</a>
</g>
</g>
<!-- Node42&#45;&gt;Node68 -->
<g id="edge37" class="edge">
<title>Node42&#45;&gt;Node68</title>
<path fill="none" stroke="#191970" d="M47.9929,-304.2356C55.1224,-258.8501 87.0971,-69.0284 129,-29 130.4918,-27.5749 132.071,-26.2507 133.7227,-25.0204"/>
<polygon fill="#191970" stroke="#191970" points="135.8269,-27.8355 142.5168,-19.62 132.1638,-21.8705 135.8269,-27.8355"/>
</g>
<!-- Node48 -->
<g id="node7" class="node">
<title>Node48</title>
<g id="a_node7"><a xlink:href="classFish.html#adf85bf269f1651352506e371ffd2cecc" target="_top" xlink:title="Initializes the fish, i.e., initializes parameters and sets the initial state (age = 1...">
<polygon fill="none" stroke="#000000" points="542,-608.5 542,-627.5 596,-627.5 596,-608.5 542,-608.5"/>
<text text-anchor="middle" x="569" y="-615.5" font-family="Helvetica,sans-Serif" font-size="10.00" fill="#000000">Fish::init</text>
</a>
</g>
</g>
<!-- Node47&#45;&gt;Node48 -->
<g id="edge6" class="edge">
<title>Node47&#45;&gt;Node48</title>
<path fill="none" stroke="#191970" d="M433.7711,-549.0585C443.7694,-551.8491 454.1367,-555.7024 463,-561 482.9693,-572.9358 479.0307,-587.0642 499,-599 508.9307,-604.9356 520.7494,-609.058 531.8218,-611.9041"/>
<polygon fill="#191970" stroke="#191970" points="531.1752,-615.3467 541.705,-614.1745 532.7425,-608.5244 531.1752,-615.3467"/>
</g>
<!-- Node49 -->
<g id="node8" class="node">
<title>Node49</title>
<g id="a_node8"><a xlink:href="namespacefish.html#a0ab1c4842d702a0a40bd04f26793ce12" target="_top" xlink:title="Compute the nonlinear growth increment , as follows . ">
<polygon fill="none" stroke="#000000" points="697.5,-627.5 697.5,-646.5 774.5,-646.5 774.5,-627.5 697.5,-627.5"/>
<text text-anchor="middle" x="736" y="-634.5" font-family="Helvetica,sans-Serif" font-size="10.00" fill="#000000">fish::dl_power</text>
</a>
</g>
</g>
<!-- Node48&#45;&gt;Node49 -->
<g id="edge7" class="edge">
<title>Node48&#45;&gt;Node49</title>
<path fill="none" stroke="#191970" d="M596.2031,-621.095C620.7581,-623.8886 657.4711,-628.0656 687.1129,-631.438"/>
<polygon fill="#191970" stroke="#191970" points="686.9396,-634.9408 697.2712,-632.5937 687.731,-627.9856 686.9396,-634.9408"/>
</g>
<!-- Node50 -->
<g id="node9" class="node">
<title>Node50</title>
<g id="a_node9"><a xlink:href="namespacefish.html#a1d06e0358aca1be4446ed148b7ce3d84" target="_top" xlink:title="Compute the new length after growth assuming no allocation to reproduction . ">
<polygon fill="none" stroke="#000000" points="684.5,-589.5 684.5,-608.5 787.5,-608.5 787.5,-589.5 684.5,-589.5"/>
<text text-anchor="middle" x="736" y="-596.5" font-family="Helvetica,sans-Serif" font-size="10.00" fill="#000000">fish::length_juvenile</text>
</a>
</g>
</g>
<!-- Node48&#45;&gt;Node50 -->
<g id="edge8" class="edge">
<title>Node48&#45;&gt;Node50</title>
<path fill="none" stroke="#191970" d="M596.2031,-614.905C617.2655,-612.5087 647.2731,-609.0947 674.0905,-606.0436"/>
<polygon fill="#191970" stroke="#191970" points="674.6468,-609.503 684.1871,-604.8949 673.8555,-602.5478 674.6468,-609.503"/>
</g>
<!-- Node51&#45;&gt;Node46 -->
<g id="edge20" class="edge">
<title>Node51&#45;&gt;Node46</title>
<path fill="none" stroke="#191970" d="M436.0876,-437.5116C455.2465,-441.277 478.1427,-445.1455 499,-447 556.2737,-452.0924 621.6412,-451.6251 669.199,-450.1505"/>
<polygon fill="#191970" stroke="#191970" points="669.492,-453.6428 679.3698,-449.8115 669.2587,-446.6467 669.492,-453.6428"/>
</g>
<!-- Node51&#45;&gt;Node48 -->
<g id="edge13" class="edge">
<title>Node51&#45;&gt;Node48</title>
<path fill="none" stroke="#191970" d="M401.0107,-437.5498C414.7515,-454.2024 443.2409,-489.9394 463,-523 482.1745,-555.0824 470.335,-575.0155 499,-599 508.2624,-606.75 520.4093,-611.3598 531.9794,-614.0946"/>
<polygon fill="#191970" stroke="#191970" points="531.4244,-617.5524 541.9117,-616.047 532.7746,-610.6838 531.4244,-617.5524"/>
</g>
<!-- Node52 -->
<g id="node11" class="node">
<title>Node52</title>
<g id="a_node11"><a xlink:href="classPopulation.html#ae942ef70cc9f4dfc40b5d843baf40b1e" target="_top" xlink:title="Population::calcTSB">
<polygon fill="none" stroke="#000000" points="516,-532.5 516,-551.5 622,-551.5 622,-532.5 516,-532.5"/>
<text text-anchor="middle" x="569" y="-539.5" font-family="Helvetica,sans-Serif" font-size="10.00" fill="#000000">Population::calcTSB</text>
</a>
</g>
</g>
<!-- Node51&#45;&gt;Node52 -->
<g id="edge10" class="edge">
<title>Node51&#45;&gt;Node52</title>
<path fill="none" stroke="#191970" d="M437.5935,-437.5435C446.7118,-440.9978 455.7301,-445.6762 463,-452 489.6941,-475.2202 471.5627,-500.6629 499,-523 501.4124,-524.964 504.011,-526.7258 506.7375,-528.3062"/>
<polygon fill="#191970" stroke="#191970" points="505.2899,-531.4946 515.8086,-532.7618 508.376,-525.2116 505.2899,-531.4946"/>
</g>
<!-- Node51&#45;&gt;Node53 -->
<g id="edge11" class="edge">
<title>Node51&#45;&gt;Node53</title>
<path fill="none" stroke="#191970" d="M430.2273,-418.3842C441.199,-414.7306 452.9493,-409.9718 463,-404 481.6598,-392.9129 479.9885,-381.4725 499,-371 503.0173,-368.7871 507.3083,-366.8193 511.714,-365.0716"/>
<polygon fill="#191970" stroke="#191970" points="513.2375,-368.2442 521.48,-361.5876 510.8853,-361.6512 513.2375,-368.2442"/>
</g>
<!-- Node54 -->
<g id="node13" class="node">
<title>Node54</title>
<g id="a_node13"><a xlink:href="classFish.html#aaa3e67187a587efc7a99485b4a6ee248" target="_top" xlink:title="Fish::set_traits">
<polygon fill="none" stroke="#000000" points="528,-494.5 528,-513.5 610,-513.5 610,-494.5 528,-494.5"/>
<text text-anchor="middle" x="569" y="-501.5" font-family="Helvetica,sans-Serif" font-size="10.00" fill="#000000">Fish::set_traits</text>
</a>
</g>
</g>
<!-- Node51&#45;&gt;Node54 -->
<g id="edge12" class="edge">
<title>Node51&#45;&gt;Node54</title>
<path fill="none" stroke="#191970" d="M428.1379,-437.532C439.595,-441.2925 452.151,-446.134 463,-452 480.8303,-461.6407 481.1697,-470.3593 499,-480 506.8825,-484.262 515.6661,-487.9832 524.2746,-491.1419"/>
<polygon fill="#191970" stroke="#191970" points="523.2673,-494.497 533.8621,-494.468 525.5617,-487.8837 523.2673,-494.497"/>
</g>
<!-- Node51&#45;&gt;Node55 -->
<g id="edge14" class="edge">
<title>Node51&#45;&gt;Node55</title>
<path fill="none" stroke="#191970" d="M440.5084,-437.6189C448.8091,-441.0474 456.7673,-445.6965 463,-452 498.8709,-488.2786 461.9647,-525.9108 499,-561 500.6711,-562.5833 502.4605,-564.0374 504.3428,-565.3726"/>
<polygon fill="#191970" stroke="#191970" points="502.7121,-568.4734 513.1118,-570.4977 506.2444,-562.4299 502.7121,-568.4734"/>
</g>
<!-- Node56 -->
<g id="node15" class="node">
<title>Node56</title>
<g id="a_node15"><a xlink:href="classPopulation.html#ad1840de2f00982c35d48b91a1d27ae13" target="_top" xlink:title="Population::effort">
<polygon fill="none" stroke="#000000" points="523.5,-418.5 523.5,-437.5 614.5,-437.5 614.5,-418.5 523.5,-418.5"/>
<text text-anchor="middle" x="569" y="-425.5" font-family="Helvetica,sans-Serif" font-size="10.00" fill="#000000">Population::effort</text>
</a>
</g>
</g>
<!-- Node51&#45;&gt;Node56 -->
<g id="edge16" class="edge">
<title>Node51&#45;&gt;Node56</title>
<path fill="none" stroke="#191970" d="M442.0258,-428C464.0768,-428 490.2194,-428 513.0349,-428"/>
<polygon fill="#191970" stroke="#191970" points="513.257,-431.5001 523.2569,-428 513.2569,-424.5001 513.257,-431.5001"/>
</g>
<!-- Node57 -->
<g id="node16" class="node">
<title>Node57</title>
<g id="a_node16"><a xlink:href="namespacepn.html#ad42003887dcc42a4758c69775f83a8d9" target="_top" xlink:title="pn::zero">
<polygon fill="none" stroke="#000000" points="543,-380.5 543,-399.5 595,-399.5 595,-380.5 543,-380.5"/>
<text text-anchor="middle" x="569" y="-387.5" font-family="Helvetica,sans-Serif" font-size="10.00" fill="#000000">pn::zero</text>
</a>
</g>
</g>
<!-- Node51&#45;&gt;Node57 -->
<g id="edge18" class="edge">
<title>Node51&#45;&gt;Node57</title>
<path fill="none" stroke="#191970" d="M437.4122,-418.411C466.9395,-412.0358 505.2258,-403.7694 532.8803,-397.7986"/>
<polygon fill="#191970" stroke="#191970" points="533.882,-401.163 542.9181,-395.6313 532.4047,-394.3207 533.882,-401.163"/>
</g>
<!-- Node51&#45;&gt;Node59 -->
<g id="edge21" class="edge">
<title>Node51&#45;&gt;Node59</title>
<path fill="none" stroke="#191970" d="M403.3857,-418.3946C422.2044,-401.0569 463.3029,-363.5006 499,-333 515.577,-318.8362 534.8104,-303.2325 548.917,-291.9372"/>
<polygon fill="#191970" stroke="#191970" points="551.3349,-294.4856 556.9682,-285.5124 546.9688,-289.0141 551.3349,-294.4856"/>
</g>
<!-- Node55&#45;&gt;Node46 -->
<g id="edge15" class="edge">
<title>Node55&#45;&gt;Node46</title>
<path fill="none" stroke="#191970" d="M619.1478,-570.3776C626.1073,-567.9206 632.9394,-564.8456 639,-561 678.1077,-536.1853 709.7779,-490.666 725.4108,-465.2997"/>
<polygon fill="#191970" stroke="#191970" points="728.4568,-467.0258 730.5991,-456.6498 722.4538,-463.4251 728.4568,-467.0258"/>
</g>
<!-- Node56&#45;&gt;Node46 -->
<g id="edge17" class="edge">
<title>Node56&#45;&gt;Node46</title>
<path fill="none" stroke="#191970" d="M614.6335,-433.1918C631.5006,-435.1109 650.9832,-437.3274 669.334,-439.4152"/>
<polygon fill="#191970" stroke="#191970" points="669.057,-442.9062 679.3886,-440.5592 669.8484,-435.9511 669.057,-442.9062"/>
</g>
<!-- Node58 -->
<g id="node17" class="node">
<title>Node58</title>
<g id="a_node17"><a xlink:href="structpn_1_1BrentRes.html#a4fa42a440c4b9dc765ea7f0d7fd3a412" target="_top" xlink:title="pn::BrentRes::BrentRes">
<polygon fill="none" stroke="#000000" points="675,-380.5 675,-399.5 797,-399.5 797,-380.5 675,-380.5"/>
<text text-anchor="middle" x="736" y="-387.5" font-family="Helvetica,sans-Serif" font-size="10.00" fill="#000000">pn::BrentRes::BrentRes</text>
</a>
</g>
</g>
<!-- Node57&#45;&gt;Node58 -->
<g id="edge19" class="edge">
<title>Node57&#45;&gt;Node58</title>
<path fill="none" stroke="#191970" d="M595.0938,-390C613.7993,-390 639.9543,-390 664.6585,-390"/>
<polygon fill="#191970" stroke="#191970" points="664.7637,-393.5001 674.7636,-390 664.7636,-386.5001 664.7637,-393.5001"/>
</g>
<!-- Node60&#45;&gt;Node44 -->
<g id="edge25" class="edge">
<title>Node60&#45;&gt;Node44</title>
<path fill="none" stroke="#191970" d="M224.68,-513.5649C246.6492,-525.8569 286.7484,-547.247 323,-561 329.3284,-563.4008 336.0851,-565.6311 342.8115,-567.6566"/>
<polygon fill="#191970" stroke="#191970" points="342.013,-571.0688 352.5911,-570.4736 343.9507,-564.3423 342.013,-571.0688"/>
</g>
<!-- Node60&#45;&gt;Node47 -->
<g id="edge26" class="edge">
<title>Node60&#45;&gt;Node47</title>
<path fill="none" stroke="#191970" d="M254.6833,-513.589C281.3544,-519.0674 314.8243,-525.9423 342.159,-531.557"/>
<polygon fill="#191970" stroke="#191970" points="341.8082,-535.0579 352.308,-533.6416 343.2167,-528.2011 341.8082,-535.0579"/>
</g>
<!-- Node60&#45;&gt;Node51 -->
<g id="edge27" class="edge">
<title>Node60&#45;&gt;Node51</title>
<path fill="none" stroke="#191970" d="M231.4304,-494.3745C264.0968,-480.9548 323.4641,-456.5661 360.4235,-441.3828"/>
<polygon fill="#191970" stroke="#191970" points="361.84,-444.5848 369.7599,-437.5473 359.18,-438.1098 361.84,-444.5848"/>
</g>
<!-- Node63 -->
<g id="node22" class="node">
<title>Node63</title>
<g id="a_node22"><a xlink:href="classFish.html#ada02edec02f9bed880911ea21b6d1a60" target="_top" xlink:title="Fish::get_traits">
<polygon fill="none" stroke="#000000" points="352,-190.5 352,-209.5 434,-209.5 434,-190.5 352,-190.5"/>
<text text-anchor="middle" x="393" y="-197.5" font-family="Helvetica,sans-Serif" font-size="10.00" fill="#000000">Fish::get_traits</text>
</a>
</g>
</g>
<!-- Node62&#45;&gt;Node63 -->
<g id="edge30" class="edge">
<title>Node62&#45;&gt;Node63</title>
<path fill="none" stroke="#191970" d="M262.5055,-200C287.4992,-200 316.9722,-200 341.5785,-200"/>
<polygon fill="#191970" stroke="#191970" points="341.7989,-203.5001 351.7989,-200 341.7989,-196.5001 341.7989,-203.5001"/>
</g>
<!-- Node65&#45;&gt;Node64 -->
<g id="edge33" class="edge">
<title>Node65&#45;&gt;Node64</title>
<path fill="none" stroke="#191970" d="M274.5279,-155.1674C290.827,-153.4934 308.2969,-151.6992 324.6786,-150.0168"/>
<polygon fill="#191970" stroke="#191970" points="325.1277,-153.4892 334.7178,-148.9857 324.4125,-146.5258 325.1277,-153.4892"/>
</g>
</g>
</svg>
