<?xml version="1.0" encoding="UTF-8" standalone="no"?>
<!DOCTYPE svg PUBLIC "-//W3C//DTD SVG 1.1//EN"
 "http://www.w3.org/Graphics/SVG/1.1/DTD/svg11.dtd">
<!-- Generated by graphviz version 2.40.1 (20161225.0304)
 -->
<!-- Title: src/fish_glue.cpp Pages: 1 -->
<svg width="509pt" height="308pt"
 viewBox="0.00 0.00 509.04 308.00" xmlns="http://www.w3.org/2000/svg" xmlns:xlink="http://www.w3.org/1999/xlink">
<g id="graph0" class="graph" transform="scale(1 1) rotate(0) translate(4 304)">
<title>src/fish_glue.cpp</title>
<!-- Node0 -->
<g id="node1" class="node">
<title>Node0</title>
<polygon fill="#bfbfbf" stroke="#000000" points="87,-280.5 87,-299.5 178,-299.5 178,-280.5 87,-280.5"/>
<text text-anchor="middle" x="132.5" y="-287.5" font-family="Helvetica,sans-Serif" font-size="10.00" fill="#000000">src/fish_glue.cpp</text>
</g>
<!-- Node1 -->
<g id="node2" class="node">
<title>Node1</title>
<polygon fill="none" stroke="#bfbfbf" points="440.5,-.5 440.5,-19.5 488.5,-19.5 488.5,-.5 440.5,-.5"/>
<text text-anchor="middle" x="464.5" y="-7.5" font-family="Helvetica,sans-Serif" font-size="10.00" fill="#000000">Rcpp.h</text>
</g>
<!-- Node0&#45;&gt;Node1 -->
<g id="edge1" class="edge">
<title>Node0&#45;&gt;Node1</title>
<path fill="none" stroke="#191970" d="M178.0273,-285.1526C272.9993,-273.7748 483.5,-241.4049 483.5,-178 483.5,-178 483.5,-178 483.5,-122 483.5,-89.2688 475.5148,-51.9052 469.8978,-29.6716"/>
<polygon fill="#191970" stroke="#191970" points="473.2289,-28.5763 467.3035,-19.7934 466.4585,-30.3545 473.2289,-28.5763"/>
</g>
<!-- Node2 -->
<g id="node3" class="node">
<title>Node2</title>
<g id="a_node3"><a xlink:href="fish_8h.html" target="_top" xlink:title="fish.h">
<polygon fill="none" stroke="#000000" points="61,-112.5 61,-131.5 102,-131.5 102,-112.5 61,-112.5"/>
<text text-anchor="middle" x="81.5" y="-119.5" font-family="Helvetica,sans-Serif" font-size="10.00" fill="#000000">fish.h</text>
</a>
</g>
</g>
<!-- Node0&#45;&gt;Node2 -->
<g id="edge2" class="edge">
<title>Node0&#45;&gt;Node2</title>
<path fill="none" stroke="#191970" d="M127.0877,-280.2244C117.5297,-262.4619 97.7948,-223.4444 88.5,-188 84.5213,-172.8279 82.7947,-155.1297 82.05,-141.8818"/>
<polygon fill="#191970" stroke="#191970" points="85.5331,-141.4049 81.6165,-131.5606 78.5393,-141.6987 85.5331,-141.4049"/>
</g>
<!-- Node4 -->
<g id="node5" class="node">
<title>Node4</title>
<g id="a_node5"><a xlink:href="functions_8h.html" target="_top" xlink:title="functions.h">
<polygon fill="none" stroke="#000000" points="0,-56.5 0,-75.5 65,-75.5 65,-56.5 0,-56.5"/>
<text text-anchor="middle" x="32.5" y="-63.5" font-family="Helvetica,sans-Serif" font-size="10.00" fill="#000000">functions.h</text>
</a>
</g>
</g>
<!-- Node0&#45;&gt;Node4 -->
<g id="edge9" class="edge">
<title>Node0&#45;&gt;Node4</title>
<path fill="none" stroke="#191970" d="M123.9162,-280.2983C116.2854,-271.333 105.1796,-257.4106 97.5,-244 66.8017,-190.3924 46.1667,-119.6607 37.3483,-85.7669"/>
<polygon fill="#191970" stroke="#191970" points="40.6624,-84.5966 34.8132,-75.7627 33.8769,-86.3161 40.6624,-84.5966"/>
</g>
<!-- Node8 -->
<g id="node9" class="node">
<title>Node8</title>
<g id="a_node9"><a xlink:href="population_8h.html" target="_top" xlink:title="population.h">
<polygon fill="none" stroke="#000000" points="98,-168.5 98,-187.5 167,-187.5 167,-168.5 98,-168.5"/>
<text text-anchor="middle" x="132.5" y="-175.5" font-family="Helvetica,sans-Serif" font-size="10.00" fill="#000000">population.h</text>
</a>
</g>
</g>
<!-- Node0&#45;&gt;Node8 -->
<g id="edge10" class="edge">
<title>Node0&#45;&gt;Node8</title>
<path fill="none" stroke="#191970" d="M132.5,-280.4509C132.5,-262.184 132.5,-221.9553 132.5,-197.6976"/>
<polygon fill="#191970" stroke="#191970" points="136.0001,-197.5249 132.5,-187.5249 129.0001,-197.5249 136.0001,-197.5249"/>
</g>
<!-- Node9 -->
<g id="node10" class="node">
<title>Node9</title>
<g id="a_node10"><a xlink:href="simulator_8h.html" target="_top" xlink:title="simulator.h">
<polygon fill="none" stroke="#000000" points="163,-224.5 163,-243.5 228,-243.5 228,-224.5 163,-224.5"/>
<text text-anchor="middle" x="195.5" y="-231.5" font-family="Helvetica,sans-Serif" font-size="10.00" fill="#000000">simulator.h</text>
</a>
</g>
</g>
<!-- Node0&#45;&gt;Node9 -->
<g id="edge14" class="edge">
<title>Node0&#45;&gt;Node9</title>
<path fill="none" stroke="#191970" d="M143.4738,-280.2455C152.6882,-272.0549 166.0532,-260.1749 176.9297,-250.5069"/>
<polygon fill="#191970" stroke="#191970" points="179.5032,-252.9023 184.652,-243.6427 174.8526,-247.6704 179.5032,-252.9023"/>
</g>
<!-- Node3 -->
<g id="node4" class="node">
<title>Node3</title>
<polygon fill="none" stroke="#bfbfbf" points="83.5,-56.5 83.5,-75.5 127.5,-75.5 127.5,-56.5 83.5,-56.5"/>
<text text-anchor="middle" x="105.5" y="-63.5" font-family="Helvetica,sans-Serif" font-size="10.00" fill="#000000">vector</text>
</g>
<!-- Node2&#45;&gt;Node3 -->
<g id="edge3" class="edge">
<title>Node2&#45;&gt;Node3</title>
<path fill="none" stroke="#191970" d="M85.6805,-112.2455C88.881,-104.7776 93.396,-94.2427 97.3084,-85.1137"/>
<polygon fill="#191970" stroke="#191970" points="100.6452,-86.2129 101.3674,-75.6427 94.2112,-83.4554 100.6452,-86.2129"/>
</g>
<!-- Node2&#45;&gt;Node4 -->
<g id="edge4" class="edge">
<title>Node2&#45;&gt;Node4</title>
<path fill="none" stroke="#191970" d="M72.9649,-112.2455C66.0088,-104.2958 56.0117,-92.8706 47.6949,-83.3656"/>
<polygon fill="#191970" stroke="#191970" points="50.1564,-80.8637 40.9373,-75.6427 44.8884,-85.4732 50.1564,-80.8637"/>
</g>
<!-- Node4&#45;&gt;Node1 -->
<g id="edge8" class="edge">
<title>Node4&#45;&gt;Node1</title>
<path fill="none" stroke="#191970" d="M65.4393,-57.7746C68.4929,-57.1279 71.5479,-56.5237 74.5,-56 204.8087,-32.8831 361.7362,-18.3753 429.9919,-12.712"/>
<polygon fill="#191970" stroke="#191970" points="430.4864,-16.1833 440.1675,-11.8791 429.9153,-9.2067 430.4864,-16.1833"/>
</g>
<!-- Node5 -->
<g id="node6" class="node">
<title>Node5</title>
<polygon fill="none" stroke="#bfbfbf" points="10.5,-.5 10.5,-19.5 54.5,-19.5 54.5,-.5 10.5,-.5"/>
<text text-anchor="middle" x="32.5" y="-7.5" font-family="Helvetica,sans-Serif" font-size="10.00" fill="#000000">cmath</text>
</g>
<!-- Node4&#45;&gt;Node5 -->
<g id="edge5" class="edge">
<title>Node4&#45;&gt;Node5</title>
<path fill="none" stroke="#191970" d="M32.5,-56.2455C32.5,-48.9382 32.5,-38.6944 32.5,-29.7046"/>
<polygon fill="#191970" stroke="#191970" points="36.0001,-29.6426 32.5,-19.6427 29.0001,-29.6427 36.0001,-29.6426"/>
</g>
<!-- Node6 -->
<g id="node7" class="node">
<title>Node6</title>
<polygon fill="none" stroke="#bfbfbf" points="77.5,-.5 77.5,-19.5 133.5,-19.5 133.5,-.5 77.5,-.5"/>
<text text-anchor="middle" x="105.5" y="-7.5" font-family="Helvetica,sans-Serif" font-size="10.00" fill="#000000">algorithm</text>
</g>
<!-- Node4&#45;&gt;Node6 -->
<g id="edge6" class="edge">
<title>Node4&#45;&gt;Node6</title>
<path fill="none" stroke="#191970" d="M45.2156,-56.2455C56.102,-47.8943 71.9883,-35.7076 84.72,-25.9408"/>
<polygon fill="#191970" stroke="#191970" points="87.1261,-28.5063 92.9301,-19.6427 82.8654,-22.9523 87.1261,-28.5063"/>
</g>
<!-- Node7 -->
<g id="node8" class="node">
<title>Node7</title>
<polygon fill="none" stroke="#bfbfbf" points="156.5,-.5 156.5,-19.5 210.5,-19.5 210.5,-.5 156.5,-.5"/>
<text text-anchor="middle" x="183.5" y="-7.5" font-family="Helvetica,sans-Serif" font-size="10.00" fill="#000000">iostream</text>
</g>
<!-- Node4&#45;&gt;Node7 -->
<g id="edge7" class="edge">
<title>Node4&#45;&gt;Node7</title>
<path fill="none" stroke="#191970" d="M58.4578,-56.3733C83.2407,-47.1822 120.7746,-33.2624 148.254,-23.0713"/>
<polygon fill="#191970" stroke="#191970" points="149.7219,-26.26 157.8809,-19.5011 147.2879,-19.6968 149.7219,-26.26"/>
</g>
<!-- Node8&#45;&gt;Node1 -->
<g id="edge13" class="edge">
<title>Node8&#45;&gt;Node1</title>
<path fill="none" stroke="#191970" d="M167.4183,-174.2602C227.0525,-166.215 349.5281,-142.2696 426.5,-76 441.0131,-63.5048 451.2681,-44.0208 457.4373,-29.4565"/>
<polygon fill="#191970" stroke="#191970" points="460.7968,-30.478 461.2099,-19.8912 454.285,-27.9097 460.7968,-30.478"/>
</g>
<!-- Node8&#45;&gt;Node2 -->
<g id="edge11" class="edge">
<title>Node8&#45;&gt;Node2</title>
<path fill="none" stroke="#191970" d="M123.6165,-168.2455C116.3034,-160.2155 105.7609,-148.6394 97.0533,-139.0781"/>
<polygon fill="#191970" stroke="#191970" points="99.6028,-136.6795 90.2817,-131.6427 94.4273,-141.3928 99.6028,-136.6795"/>
</g>
<!-- Node8&#45;&gt;Node3 -->
<g id="edge12" class="edge">
<title>Node8&#45;&gt;Node3</title>
<path fill="none" stroke="#191970" d="M130.198,-168.4509C125.7744,-150.1013 116.0085,-109.5908 110.1694,-85.3693"/>
<polygon fill="#191970" stroke="#191970" points="113.5424,-84.4261 107.7962,-75.5249 106.7373,-86.0667 113.5424,-84.4261"/>
</g>
<!-- Node9&#45;&gt;Node1 -->
<g id="edge17" class="edge">
<title>Node9&#45;&gt;Node1</title>
<path fill="none" stroke="#191970" d="M228.0904,-228.2786C293.0577,-214.9188 437.5886,-174.9599 497.5,-76 507.2612,-59.8767 494.9033,-40.4867 482.6262,-26.9102"/>
<polygon fill="#191970" stroke="#191970" points="485.055,-24.3874 475.5748,-19.6569 480.0359,-29.2668 485.055,-24.3874"/>
</g>
<!-- Node9&#45;&gt;Node3 -->
<g id="edge16" class="edge">
<title>Node9&#45;&gt;Node3</title>
<path fill="none" stroke="#191970" d="M193.7353,-224.2439C191.1168,-211.0385 185.5182,-186.9492 176.5,-168 161.2351,-135.9251 136.2392,-102.9192 120.3419,-83.4457"/>
<polygon fill="#191970" stroke="#191970" points="123.0231,-81.1959 113.9432,-75.7365 117.6368,-85.6667 123.0231,-81.1959"/>
</g>
<!-- Node9&#45;&gt;Node8 -->
<g id="edge15" class="edge">
<title>Node9&#45;&gt;Node8</title>
<path fill="none" stroke="#191970" d="M184.5262,-224.2455C175.3118,-216.0549 161.9468,-204.1749 151.0703,-194.5069"/>
<polygon fill="#191970" stroke="#191970" points="153.1474,-191.6704 143.348,-187.6427 148.4968,-196.9023 153.1474,-191.6704"/>
</g>
<!-- Node10 -->
<g id="node11" class="node">
<title>Node10</title>
<g id="a_node11"><a xlink:href="tensor_8h.html" target="_top" xlink:title="tensor.h">
<polygon fill="none" stroke="#000000" points="222.5,-112.5 222.5,-131.5 274.5,-131.5 274.5,-112.5 222.5,-112.5"/>
<text text-anchor="middle" x="248.5" y="-119.5" font-family="Helvetica,sans-Serif" font-size="10.00" fill="#000000">tensor.h</text>
</a>
</g>
</g>
<!-- Node9&#45;&gt;Node10 -->
<g id="edge18" class="edge">
<title>Node9&#45;&gt;Node10</title>
<path fill="none" stroke="#191970" d="M200.0188,-224.4509C208.7803,-205.936 228.2185,-164.8591 239.6421,-140.7187"/>
<polygon fill="#191970" stroke="#191970" points="242.8789,-142.061 243.9927,-131.5249 236.5516,-139.0668 242.8789,-142.061"/>
</g>
<!-- Node10&#45;&gt;Node3 -->
<g id="edge21" class="edge">
<title>Node10&#45;&gt;Node3</title>
<path fill="none" stroke="#191970" d="M223.9174,-112.3733C199.984,-103.0007 163.4934,-88.7107 137.348,-78.472"/>
<polygon fill="#191970" stroke="#191970" points="138.4696,-75.1524 127.8818,-74.7649 135.917,-81.6704 138.4696,-75.1524"/>
</g>
<!-- Node10&#45;&gt;Node6 -->
<g id="edge23" class="edge">
<title>Node10&#45;&gt;Node6</title>
<path fill="none" stroke="#191970" d="M236.3079,-112.4509C211.7185,-93.1921 155.9609,-49.5218 125.7926,-25.8935"/>
<polygon fill="#191970" stroke="#191970" points="127.6921,-22.9355 117.6612,-19.5249 123.3759,-28.4464 127.6921,-22.9355"/>
</g>
<!-- Node10&#45;&gt;Node7 -->
<g id="edge19" class="edge">
<title>Node10&#45;&gt;Node7</title>
<path fill="none" stroke="#191970" d="M240.0334,-112.2297C232.4816,-103.2182 221.4258,-89.2666 213.5,-76 204.5353,-60.9944 196.4684,-42.8465 190.9634,-29.3815"/>
<polygon fill="#191970" stroke="#191970" points="194.0758,-27.7362 187.1295,-19.7362 187.5709,-30.3219 194.0758,-27.7362"/>
</g>
<!-- Node11 -->
<g id="node12" class="node">
<title>Node11</title>
<polygon fill="none" stroke="#bfbfbf" points="291,-56.5 291,-75.5 340,-75.5 340,-56.5 291,-56.5"/>
<text text-anchor="middle" x="315.5" y="-63.5" font-family="Helvetica,sans-Serif" font-size="10.00" fill="#000000">cassert</text>
</g>
<!-- Node10&#45;&gt;Node11 -->
<g id="edge20" class="edge">
<title>Node10&#45;&gt;Node11</title>
<path fill="none" stroke="#191970" d="M260.1705,-112.2455C270.0661,-103.9746 284.4627,-91.9416 296.0901,-82.2232"/>
<polygon fill="#191970" stroke="#191970" points="298.535,-84.7413 303.9632,-75.6427 294.0458,-79.3703 298.535,-84.7413"/>
</g>
<!-- Node12 -->
<g id="node13" class="node">
<title>Node12</title>
<polygon fill="none" stroke="#bfbfbf" points="358,-56.5 358,-75.5 417,-75.5 417,-56.5 358,-56.5"/>
<text text-anchor="middle" x="387.5" y="-63.5" font-family="Helvetica,sans-Serif" font-size="10.00" fill="#000000">functional</text>
</g>
<!-- Node10&#45;&gt;Node12 -->
<g id="edge22" class="edge">
<title>Node10&#45;&gt;Node12</title>
<path fill="none" stroke="#191970" d="M272.395,-112.3733C295.0082,-103.2629 329.1542,-89.5062 354.3873,-79.3404"/>
<polygon fill="#191970" stroke="#191970" points="355.9493,-82.4845 363.9169,-75.5011 353.3334,-75.9917 355.9493,-82.4845"/>
</g>
<!-- Node13 -->
<g id="node14" class="node">
<title>Node13</title>
<polygon fill="none" stroke="#bfbfbf" points="222,-56.5 222,-75.5 273,-75.5 273,-56.5 222,-56.5"/>
<text text-anchor="middle" x="247.5" y="-63.5" font-family="Helvetica,sans-Serif" font-size="10.00" fill="#000000">numeric</text>
</g>
<!-- Node10&#45;&gt;Node13 -->
<g id="edge24" class="edge">
<title>Node10&#45;&gt;Node13</title>
<path fill="none" stroke="#191970" d="M248.3258,-112.2455C248.1953,-104.9382 248.0124,-94.6944 247.8519,-85.7046"/>
<polygon fill="#191970" stroke="#191970" points="251.3503,-85.5786 247.6722,-75.6427 244.3514,-85.7036 251.3503,-85.5786"/>
</g>
</g>
</svg>
