<?xml version="1.0" encoding="UTF-8" standalone="no"?>
<!DOCTYPE svg PUBLIC "-//W3C//DTD SVG 1.1//EN"
 "http://www.w3.org/Graphics/SVG/1.1/DTD/svg11.dtd">
<!-- Generated by graphviz version 2.40.1 (20161225.0304)
 -->
<!-- Title: src/fish.cpp Pages: 1 -->
<svg width="762pt" height="196pt"
 viewBox="0.00 0.00 762.00 196.00" xmlns="http://www.w3.org/2000/svg" xmlns:xlink="http://www.w3.org/1999/xlink">
<g id="graph0" class="graph" transform="scale(1 1) rotate(0) translate(4 192)">
<title>src/fish.cpp</title>
<!-- Node0 -->
<g id="node1" class="node">
<title>Node0</title>
<polygon fill="#bfbfbf" stroke="#000000" points="470,-168.5 470,-187.5 538,-187.5 538,-168.5 470,-168.5"/>
<text text-anchor="middle" x="504" y="-175.5" font-family="Helvetica,sans-Serif" font-size="10.00" fill="#000000">src/fish.cpp</text>
</g>
<!-- Node1 -->
<g id="node2" class="node">
<title>Node1</title>
<g id="a_node2"><a xlink:href="fish_8h.html" target="_top" xlink:title="fish.h">
<polygon fill="none" stroke="#000000" points="414.5,-112.5 414.5,-131.5 455.5,-131.5 455.5,-112.5 414.5,-112.5"/>
<text text-anchor="middle" x="435" y="-119.5" font-family="Helvetica,sans-Serif" font-size="10.00" fill="#000000">fish.h</text>
</a>
</g>
</g>
<!-- Node0&#45;&gt;Node1 -->
<g id="edge1" class="edge">
<title>Node0&#45;&gt;Node1</title>
<path fill="none" stroke="#191970" d="M491.9811,-168.2455C481.7902,-159.9746 466.9638,-147.9416 454.9893,-138.2232"/>
<polygon fill="#191970" stroke="#191970" points="456.8514,-135.2268 446.8812,-131.6427 452.4402,-140.662 456.8514,-135.2268"/>
</g>
<!-- Node5 -->
<g id="node6" class="node">
<title>Node5</title>
<polygon fill="none" stroke="#bfbfbf" points="710,-.5 710,-19.5 754,-19.5 754,-.5 710,-.5"/>
<text text-anchor="middle" x="732" y="-7.5" font-family="Helvetica,sans-Serif" font-size="10.00" fill="#000000">cmath</text>
</g>
<!-- Node0&#45;&gt;Node5 -->
<g id="edge19" class="edge">
<title>Node0&#45;&gt;Node5</title>
<path fill="none" stroke="#191970" d="M516.9115,-168.4862C554.5238,-140.772 664.2738,-59.9036 710.78,-25.6358"/>
<polygon fill="#191970" stroke="#191970" points="712.9731,-28.3674 718.9475,-19.6177 708.8207,-22.732 712.9731,-28.3674"/>
</g>
<!-- Node7 -->
<g id="node8" class="node">
<title>Node7</title>
<polygon fill="none" stroke="#bfbfbf" points="498,-.5 498,-19.5 552,-19.5 552,-.5 498,-.5"/>
<text text-anchor="middle" x="525" y="-7.5" font-family="Helvetica,sans-Serif" font-size="10.00" fill="#000000">iostream</text>
</g>
<!-- Node0&#45;&gt;Node7 -->
<g id="edge18" class="edge">
<title>Node0&#45;&gt;Node7</title>
<path fill="none" stroke="#191970" d="M505.1892,-168.4862C508.5088,-141.9293 517.9294,-66.5651 522.4793,-30.1655"/>
<polygon fill="#191970" stroke="#191970" points="526.0041,-30.1848 523.7715,-19.8279 519.0581,-29.3165 526.0041,-30.1848"/>
</g>
<!-- Node14 -->
<g id="node15" class="node">
<title>Node14</title>
<polygon fill="none" stroke="#bfbfbf" points="420.5,-.5 420.5,-19.5 479.5,-19.5 479.5,-.5 420.5,-.5"/>
<text text-anchor="middle" x="450" y="-7.5" font-family="Helvetica,sans-Serif" font-size="10.00" fill="#000000">stdexcept</text>
</g>
<!-- Node0&#45;&gt;Node14 -->
<g id="edge20" class="edge">
<title>Node0&#45;&gt;Node14</title>
<path fill="none" stroke="#191970" d="M500.942,-168.4862C492.3689,-141.8144 467.9716,-65.9117 456.3305,-29.695"/>
<polygon fill="#191970" stroke="#191970" points="459.5512,-28.2771 453.159,-19.8279 452.887,-30.4192 459.5512,-28.2771"/>
</g>
<!-- Node2 -->
<g id="node3" class="node">
<title>Node2</title>
<polygon fill="none" stroke="#bfbfbf" points="358,-.5 358,-19.5 402,-19.5 402,-.5 358,-.5"/>
<text text-anchor="middle" x="380" y="-7.5" font-family="Helvetica,sans-Serif" font-size="10.00" fill="#000000">vector</text>
</g>
<!-- Node1&#45;&gt;Node2 -->
<g id="edge2" class="edge">
<title>Node1&#45;&gt;Node2</title>
<path fill="none" stroke="#191970" d="M428.8303,-112.3342C423.097,-103.164 414.4908,-88.9055 408,-76 400.2333,-60.5576 392.6532,-42.4468 387.3428,-29.1071"/>
<polygon fill="#191970" stroke="#191970" points="390.5154,-27.6098 383.6105,-19.574 383.9971,-30.1618 390.5154,-27.6098"/>
</g>
<!-- Node3 -->
<g id="node4" class="node">
<title>Node3</title>
<polygon fill="none" stroke="#bfbfbf" points="417.5,-56.5 417.5,-75.5 452.5,-75.5 452.5,-56.5 417.5,-56.5"/>
<text text-anchor="middle" x="435" y="-63.5" font-family="Helvetica,sans-Serif" font-size="10.00" fill="#000000">map</text>
</g>
<!-- Node1&#45;&gt;Node3 -->
<g id="edge3" class="edge">
<title>Node1&#45;&gt;Node3</title>
<path fill="none" stroke="#191970" d="M435,-112.2455C435,-104.9382 435,-94.6944 435,-85.7046"/>
<polygon fill="#191970" stroke="#191970" points="438.5001,-85.6426 435,-75.6427 431.5001,-85.6427 438.5001,-85.6426"/>
</g>
<!-- Node4 -->
<g id="node5" class="node">
<title>Node4</title>
<g id="a_node5"><a xlink:href="functions_8h.html" target="_top" xlink:title="functions.h">
<polygon fill="none" stroke="#000000" points="561.5,-56.5 561.5,-75.5 626.5,-75.5 626.5,-56.5 561.5,-56.5"/>
<text text-anchor="middle" x="594" y="-63.5" font-family="Helvetica,sans-Serif" font-size="10.00" fill="#000000">functions.h</text>
</a>
</g>
</g>
<!-- Node1&#45;&gt;Node4 -->
<g id="edge4" class="edge">
<title>Node1&#45;&gt;Node4</title>
<path fill="none" stroke="#191970" d="M455.7865,-114.679C481.4599,-105.6368 525.5909,-90.0938 557.0795,-79.0035"/>
<polygon fill="#191970" stroke="#191970" points="558.55,-82.1963 566.8194,-75.573 556.2246,-75.5939 558.55,-82.1963"/>
</g>
<!-- Node9 -->
<g id="node10" class="node">
<title>Node9</title>
<g id="a_node10"><a xlink:href="initializer__v2_8h.html" target="_top" xlink:title="initializer_v2.h">
<polygon fill="none" stroke="#000000" points="279.5,-56.5 279.5,-75.5 358.5,-75.5 358.5,-56.5 279.5,-56.5"/>
<text text-anchor="middle" x="319" y="-63.5" font-family="Helvetica,sans-Serif" font-size="10.00" fill="#000000">initializer_v2.h</text>
</a>
</g>
</g>
<!-- Node1&#45;&gt;Node9 -->
<g id="edge9" class="edge">
<title>Node1&#45;&gt;Node9</title>
<path fill="none" stroke="#191970" d="M415.0589,-112.3733C396.5214,-103.4241 368.6972,-89.9917 347.7587,-79.8835"/>
<polygon fill="#191970" stroke="#191970" points="349.2081,-76.6967 338.6809,-75.5011 346.1648,-83.0006 349.2081,-76.6967"/>
</g>
<!-- Node4&#45;&gt;Node5 -->
<g id="edge5" class="edge">
<title>Node4&#45;&gt;Node5</title>
<path fill="none" stroke="#191970" d="M617.723,-56.3733C640.5818,-47.0972 675.3104,-33.0045 700.483,-22.7895"/>
<polygon fill="#191970" stroke="#191970" points="702.0022,-25.9503 709.9522,-18.9469 699.37,-19.464 702.0022,-25.9503"/>
</g>
<!-- Node6 -->
<g id="node7" class="node">
<title>Node6</title>
<polygon fill="none" stroke="#bfbfbf" points="636,-.5 636,-19.5 692,-19.5 692,-.5 636,-.5"/>
<text text-anchor="middle" x="664" y="-7.5" font-family="Helvetica,sans-Serif" font-size="10.00" fill="#000000">algorithm</text>
</g>
<!-- Node4&#45;&gt;Node6 -->
<g id="edge6" class="edge">
<title>Node4&#45;&gt;Node6</title>
<path fill="none" stroke="#191970" d="M606.1931,-56.2455C616.6321,-47.8943 631.8655,-35.7076 644.074,-25.9408"/>
<polygon fill="#191970" stroke="#191970" points="646.3244,-28.6227 651.9467,-19.6427 641.9515,-23.1566 646.3244,-28.6227"/>
</g>
<!-- Node4&#45;&gt;Node7 -->
<g id="edge7" class="edge">
<title>Node4&#45;&gt;Node7</title>
<path fill="none" stroke="#191970" d="M581.9811,-56.2455C571.7902,-47.9746 556.9638,-35.9416 544.9893,-26.2232"/>
<polygon fill="#191970" stroke="#191970" points="546.8514,-23.2268 536.8812,-19.6427 542.4402,-28.662 546.8514,-23.2268"/>
</g>
<!-- Node8 -->
<g id="node9" class="node">
<title>Node8</title>
<polygon fill="none" stroke="#bfbfbf" points="570,-.5 570,-19.5 618,-19.5 618,-.5 570,-.5"/>
<text text-anchor="middle" x="594" y="-7.5" font-family="Helvetica,sans-Serif" font-size="10.00" fill="#000000">Rcpp.h</text>
</g>
<!-- Node4&#45;&gt;Node8 -->
<g id="edge8" class="edge">
<title>Node4&#45;&gt;Node8</title>
<path fill="none" stroke="#191970" d="M594,-56.2455C594,-48.9382 594,-38.6944 594,-29.7046"/>
<polygon fill="#191970" stroke="#191970" points="597.5001,-29.6426 594,-19.6427 590.5001,-29.6427 597.5001,-29.6426"/>
</g>
<!-- Node9&#45;&gt;Node2 -->
<g id="edge14" class="edge">
<title>Node9&#45;&gt;Node2</title>
<path fill="none" stroke="#191970" d="M329.6254,-56.2455C338.5473,-48.0549 351.488,-36.1749 362.0192,-26.5069"/>
<polygon fill="#191970" stroke="#191970" points="364.4968,-28.9837 369.4964,-19.6427 359.7629,-23.8271 364.4968,-28.9837"/>
</g>
<!-- Node9&#45;&gt;Node7 -->
<g id="edge10" class="edge">
<title>Node9&#45;&gt;Node7</title>
<path fill="none" stroke="#191970" d="M354.4127,-56.3733C391.6358,-46.2543 449.9439,-30.4036 487.8189,-20.1075"/>
<polygon fill="#191970" stroke="#191970" points="489.1935,-23.3609 497.9252,-17.3601 487.3572,-16.606 489.1935,-23.3609"/>
</g>
<!-- Node10 -->
<g id="node11" class="node">
<title>Node10</title>
<polygon fill="none" stroke="#bfbfbf" points="239.5,-.5 239.5,-19.5 280.5,-19.5 280.5,-.5 239.5,-.5"/>
<text text-anchor="middle" x="260" y="-7.5" font-family="Helvetica,sans-Serif" font-size="10.00" fill="#000000">regex</text>
</g>
<!-- Node9&#45;&gt;Node10 -->
<g id="edge11" class="edge">
<title>Node9&#45;&gt;Node10</title>
<path fill="none" stroke="#191970" d="M308.723,-56.2455C300.1782,-48.1352 287.8222,-36.4075 277.6915,-26.7919"/>
<polygon fill="#191970" stroke="#191970" points="279.8218,-23.9884 270.1592,-19.6427 275.0028,-29.0655 279.8218,-23.9884"/>
</g>
<!-- Node11 -->
<g id="node12" class="node">
<title>Node11</title>
<polygon fill="none" stroke="#bfbfbf" points="298.5,-.5 298.5,-19.5 339.5,-19.5 339.5,-.5 298.5,-.5"/>
<text text-anchor="middle" x="319" y="-7.5" font-family="Helvetica,sans-Serif" font-size="10.00" fill="#000000">string</text>
</g>
<!-- Node9&#45;&gt;Node11 -->
<g id="edge12" class="edge">
<title>Node9&#45;&gt;Node11</title>
<path fill="none" stroke="#191970" d="M319,-56.2455C319,-48.9382 319,-38.6944 319,-29.7046"/>
<polygon fill="#191970" stroke="#191970" points="322.5001,-29.6426 319,-19.6427 315.5001,-29.6427 322.5001,-29.6426"/>
</g>
<!-- Node12 -->
<g id="node13" class="node">
<title>Node12</title>
<polygon fill="none" stroke="#bfbfbf" points="0,-.5 0,-19.5 50,-19.5 50,-.5 0,-.5"/>
<text text-anchor="middle" x="25" y="-7.5" font-family="Helvetica,sans-Serif" font-size="10.00" fill="#000000">fstream</text>
</g>
<!-- Node9&#45;&gt;Node12 -->
<g id="edge13" class="edge">
<title>Node9&#45;&gt;Node12</title>
<path fill="none" stroke="#191970" d="M279.0769,-60.3447C229.7519,-53.0486 143.1227,-39.2288 60.0201,-20.0443"/>
<polygon fill="#191970" stroke="#191970" points="60.7024,-16.6095 50.1681,-17.7404 59.1084,-23.4256 60.7024,-16.6095"/>
</g>
<!-- Node13 -->
<g id="node14" class="node">
<title>Node13</title>
<polygon fill="none" stroke="#bfbfbf" points="68,-.5 68,-19.5 120,-19.5 120,-.5 68,-.5"/>
<text text-anchor="middle" x="94" y="-7.5" font-family="Helvetica,sans-Serif" font-size="10.00" fill="#000000">sstream</text>
</g>
<!-- Node9&#45;&gt;Node13 -->
<g id="edge15" class="edge">
<title>Node9&#45;&gt;Node13</title>
<path fill="none" stroke="#191970" d="M279.2158,-56.8659C242.7983,-48.3938 187.1848,-35.1792 130.2353,-20.2569"/>
<polygon fill="#191970" stroke="#191970" points="130.9033,-16.8136 120.3416,-17.6506 129.12,-23.5826 130.9033,-16.8136"/>
</g>
<!-- Node9&#45;&gt;Node14 -->
<g id="edge16" class="edge">
<title>Node9&#45;&gt;Node14</title>
<path fill="none" stroke="#191970" d="M341.5197,-56.3733C362.7372,-47.3032 394.7276,-33.6279 418.4769,-23.4755"/>
<polygon fill="#191970" stroke="#191970" points="419.9548,-26.6502 427.7742,-19.5011 417.2033,-20.2136 419.9548,-26.6502"/>
</g>
<!-- Node15 -->
<g id="node16" class="node">
<title>Node15</title>
<polygon fill="none" stroke="#bfbfbf" points="138.5,-.5 138.5,-19.5 221.5,-19.5 221.5,-.5 138.5,-.5"/>
<text text-anchor="middle" x="180" y="-7.5" font-family="Helvetica,sans-Serif" font-size="10.00" fill="#000000">unordered_map</text>
</g>
<!-- Node9&#45;&gt;Node15 -->
<g id="edge17" class="edge">
<title>Node9&#45;&gt;Node15</title>
<path fill="none" stroke="#191970" d="M295.105,-56.3733C272.4918,-47.2629 238.3458,-33.5062 213.1127,-23.3404"/>
<polygon fill="#191970" stroke="#191970" points="214.1666,-19.9917 203.5831,-19.5011 211.5507,-26.4845 214.1666,-19.9917"/>
</g>
</g>
</svg>
