<?xml version="1.0" encoding="UTF-8" standalone="no"?>
<!DOCTYPE svg PUBLIC "-//W3C//DTD SVG 1.1//EN"
 "http://www.w3.org/Graphics/SVG/1.1/DTD/svg11.dtd">
<!-- Generated by graphviz version 2.40.1 (20161225.0304)
 -->
<!-- Title: inst/include/fish.h Pages: 1 -->
<svg width="412pt" height="196pt"
 viewBox="0.00 0.00 411.93 196.00" xmlns="http://www.w3.org/2000/svg" xmlns:xlink="http://www.w3.org/1999/xlink">
<g id="graph0" class="graph" transform="scale(1 1) rotate(0) translate(4 192)">
<title>inst/include/fish.h</title>
<!-- Node7 -->
<g id="node1" class="node">
<title>Node7</title>
<polygon fill="#bfbfbf" stroke="#000000" points="131,-168.5 131,-187.5 224,-187.5 224,-168.5 131,-168.5"/>
<text text-anchor="middle" x="177.5" y="-175.5" font-family="Helvetica,sans-Serif" font-size="10.00" fill="#000000">inst/include/fish.h</text>
</g>
<!-- Node8 -->
<g id="node2" class="node">
<title>Node8</title>
<g id="a_node2"><a xlink:href="fish_8cpp.html" target="_top" xlink:title="src/fish.cpp">
<polygon fill="none" stroke="#000000" points="37.5,-112.5 37.5,-131.5 105.5,-131.5 105.5,-112.5 37.5,-112.5"/>
<text text-anchor="middle" x="71.5" y="-119.5" font-family="Helvetica,sans-Serif" font-size="10.00" fill="#000000">src/fish.cpp</text>
</a>
</g>
</g>
<!-- Node7&#45;&gt;Node8 -->
<g id="edge1" class="edge">
<title>Node7&#45;&gt;Node8</title>
<path fill="none" stroke="#191970" d="M149.9778,-163.46C131.0092,-153.4388 106.3273,-140.3993 89.7522,-131.6427"/>
<polygon fill="#191970" stroke="#191970" points="148.5593,-166.669 159.0362,-168.2455 151.8292,-160.4796 148.5593,-166.669"/>
</g>
<!-- Node9 -->
<g id="node3" class="node">
<title>Node9</title>
<g id="a_node3"><a xlink:href="fish__glue_8cpp.html" target="_top" xlink:title="src/fish_glue.cpp">
<polygon fill="none" stroke="#000000" points="241,-.5 241,-19.5 332,-19.5 332,-.5 241,-.5"/>
<text text-anchor="middle" x="286.5" y="-7.5" font-family="Helvetica,sans-Serif" font-size="10.00" fill="#000000">src/fish_glue.cpp</text>
</a>
</g>
</g>
<!-- Node7&#45;&gt;Node9 -->
<g id="edge2" class="edge">
<title>Node7&#45;&gt;Node9</title>
<path fill="none" stroke="#191970" d="M234.1573,-169.9663C287.6225,-158.9941 364.6283,-133.6094 399.5,-76 418.0295,-45.3885 370.987,-27.4616 332.0432,-18.1982"/>
<polygon fill="#191970" stroke="#191970" points="233.2805,-166.5711 224.1308,-171.9129 234.6146,-173.4428 233.2805,-166.5711"/>
</g>
<!-- Node10 -->
<g id="node4" class="node">
<title>Node10</title>
<g id="a_node4"><a xlink:href="rfish_8h.html" target="_top" xlink:title="inst/include/rfish.h">
<polygon fill="none" stroke="#000000" points="6.5,-56.5 6.5,-75.5 102.5,-75.5 102.5,-56.5 6.5,-56.5"/>
<text text-anchor="middle" x="54.5" y="-63.5" font-family="Helvetica,sans-Serif" font-size="10.00" fill="#000000">inst/include/rfish.h</text>
</a>
</g>
</g>
<!-- Node7&#45;&gt;Node10 -->
<g id="edge3" class="edge">
<title>Node7&#45;&gt;Node10</title>
<path fill="none" stroke="#191970" d="M162.0712,-160.4001C149.7214,-146.675 131.6832,-127.4199 114.5,-112 99.4558,-98.4996 80.799,-84.5955 68.3202,-75.6589"/>
<polygon fill="#191970" stroke="#191970" points="159.7041,-163.0049 168.9672,-168.1475 164.9328,-158.3508 159.7041,-163.0049"/>
</g>
<!-- Node12 -->
<g id="node6" class="node">
<title>Node12</title>
<g id="a_node6"><a xlink:href="population_8h.html" target="_top" xlink:title="inst/include/population.h">
<polygon fill="none" stroke="#000000" points="161.5,-112.5 161.5,-131.5 283.5,-131.5 283.5,-112.5 161.5,-112.5"/>
<text text-anchor="middle" x="222.5" y="-119.5" font-family="Helvetica,sans-Serif" font-size="10.00" fill="#000000">inst/include/population.h</text>
</a>
</g>
</g>
<!-- Node7&#45;&gt;Node12 -->
<g id="edge5" class="edge">
<title>Node7&#45;&gt;Node12</title>
<path fill="none" stroke="#191970" d="M191.7946,-160.2112C199.3996,-150.7472 208.4538,-139.4797 214.7514,-131.6427"/>
<polygon fill="#191970" stroke="#191970" points="188.8741,-158.2581 185.3384,-168.2455 194.3306,-162.6428 188.8741,-158.2581"/>
</g>
<!-- Node11 -->
<g id="node5" class="node">
<title>Node11</title>
<g id="a_node5"><a xlink:href="RcppExports_8cpp.html" target="_top" xlink:title="src/RcppExports.cpp">
<polygon fill="none" stroke="#000000" points="0,-.5 0,-19.5 109,-19.5 109,-.5 0,-.5"/>
<text text-anchor="middle" x="54.5" y="-7.5" font-family="Helvetica,sans-Serif" font-size="10.00" fill="#000000">src/RcppExports.cpp</text>
</a>
</g>
</g>
<!-- Node10&#45;&gt;Node11 -->
<g id="edge4" class="edge">
<title>Node10&#45;&gt;Node11</title>
<path fill="none" stroke="#191970" d="M54.5,-46.1575C54.5,-37.155 54.5,-26.9199 54.5,-19.6427"/>
<polygon fill="#191970" stroke="#191970" points="51.0001,-46.2455 54.5,-56.2455 58.0001,-46.2456 51.0001,-46.2455"/>
</g>
<!-- Node12&#45;&gt;Node9 -->
<g id="edge6" class="edge">
<title>Node12&#45;&gt;Node9</title>
<path fill="none" stroke="#191970" d="M233.0301,-103.5723C246.8075,-79.4618 270.4413,-38.1028 281.0572,-19.5249"/>
<polygon fill="#191970" stroke="#191970" points="229.8792,-102.032 227.9566,-112.4509 235.9569,-105.505 229.8792,-102.032"/>
</g>
<!-- Node12&#45;&gt;Node10 -->
<g id="edge8" class="edge">
<title>Node12&#45;&gt;Node10</title>
<path fill="none" stroke="#191970" d="M184.0714,-109.1905C153.2927,-98.9309 110.8074,-84.7691 83.0034,-75.5011"/>
<polygon fill="#191970" stroke="#191970" points="183.0261,-112.5313 193.6198,-112.3733 185.2398,-105.8905 183.0261,-112.5313"/>
</g>
<!-- Node13 -->
<g id="node7" class="node">
<title>Node13</title>
<g id="a_node7"><a xlink:href="population_8cpp.html" target="_top" xlink:title="src/population.cpp">
<polygon fill="none" stroke="#000000" points="294.5,-56.5 294.5,-75.5 390.5,-75.5 390.5,-56.5 294.5,-56.5"/>
<text text-anchor="middle" x="342.5" y="-63.5" font-family="Helvetica,sans-Serif" font-size="10.00" fill="#000000">src/population.cpp</text>
</a>
</g>
</g>
<!-- Node12&#45;&gt;Node13 -->
<g id="edge7" class="edge">
<title>Node12&#45;&gt;Node13</title>
<path fill="none" stroke="#191970" d="M252.2624,-108.1109C274.0232,-97.9559 302.9682,-84.4482 322.1405,-75.5011"/>
<polygon fill="#191970" stroke="#191970" points="250.7105,-104.9727 243.1287,-112.3733 253.6707,-111.316 250.7105,-104.9727"/>
</g>
<!-- Node14 -->
<g id="node8" class="node">
<title>Node14</title>
<g id="a_node8"><a xlink:href="simulator_8h.html" target="_top" xlink:title="inst/include/simulator.h">
<polygon fill="none" stroke="#000000" points="121,-56.5 121,-75.5 238,-75.5 238,-56.5 121,-56.5"/>
<text text-anchor="middle" x="179.5" y="-63.5" font-family="Helvetica,sans-Serif" font-size="10.00" fill="#000000">inst/include/simulator.h</text>
</a>
</g>
</g>
<!-- Node12&#45;&gt;Node14 -->
<g id="edge9" class="edge">
<title>Node12&#45;&gt;Node14</title>
<path fill="none" stroke="#191970" d="M208.8408,-104.2112C201.5737,-94.7472 192.9219,-83.4797 186.9042,-75.6427"/>
<polygon fill="#191970" stroke="#191970" points="206.1436,-106.4456 215.01,-112.2455 211.6957,-102.1824 206.1436,-106.4456"/>
</g>
<!-- Node14&#45;&gt;Node9 -->
<g id="edge10" class="edge">
<title>Node14&#45;&gt;Node9</title>
<path fill="none" stroke="#191970" d="M207.0199,-51.5971C226.2017,-41.558 251.2678,-28.4393 268.0756,-19.6427"/>
<polygon fill="#191970" stroke="#191970" points="205.375,-48.5075 198.138,-56.2455 208.6209,-54.7095 205.375,-48.5075"/>
</g>
<!-- Node15 -->
<g id="node9" class="node">
<title>Node15</title>
<g id="a_node9"><a xlink:href="simulator_8cpp.html" target="_top" xlink:title="src/simulator.cpp">
<polygon fill="none" stroke="#000000" points="130.5,-.5 130.5,-19.5 222.5,-19.5 222.5,-.5 130.5,-.5"/>
<text text-anchor="middle" x="176.5" y="-7.5" font-family="Helvetica,sans-Serif" font-size="10.00" fill="#000000">src/simulator.cpp</text>
</a>
</g>
</g>
<!-- Node14&#45;&gt;Node15 -->
<g id="edge11" class="edge">
<title>Node14&#45;&gt;Node15</title>
<path fill="none" stroke="#191970" d="M178.437,-46.1575C177.9547,-37.155 177.4064,-26.9199 177.0166,-19.6427"/>
<polygon fill="#191970" stroke="#191970" points="174.9474,-46.4471 178.9774,-56.2455 181.9374,-46.0726 174.9474,-46.4471"/>
</g>
</g>
</svg>
