<?xml version="1.0" encoding="UTF-8" standalone="no"?>
<!DOCTYPE svg PUBLIC "-//W3C//DTD SVG 1.1//EN"
 "http://www.w3.org/Graphics/SVG/1.1/DTD/svg11.dtd">
<!-- Generated by graphviz version 2.40.1 (20161225.0304)
 -->
<!-- Title: src/fish_glue.cpp Pages: 1 -->
<svg width="976pt" height="308pt"
 viewBox="0.00 0.00 976.00 308.00" xmlns="http://www.w3.org/2000/svg" xmlns:xlink="http://www.w3.org/1999/xlink">
<g id="graph0" class="graph" transform="scale(1 1) rotate(0) translate(4 304)">
<title>src/fish_glue.cpp</title>
<!-- Node0 -->
<g id="node1" class="node">
<title>Node0</title>
<polygon fill="#bfbfbf" stroke="#000000" points="207.5,-280.5 207.5,-299.5 298.5,-299.5 298.5,-280.5 207.5,-280.5"/>
<text text-anchor="middle" x="253" y="-287.5" font-family="Helvetica,sans-Serif" font-size="10.00" fill="#000000">src/fish_glue.cpp</text>
</g>
<!-- Node1 -->
<g id="node2" class="node">
<title>Node1</title>
<polygon fill="none" stroke="#bfbfbf" points="0,-.5 0,-19.5 48,-19.5 48,-.5 0,-.5"/>
<text text-anchor="middle" x="24" y="-7.5" font-family="Helvetica,sans-Serif" font-size="10.00" fill="#000000">Rcpp.h</text>
</g>
<!-- Node0&#45;&gt;Node1 -->
<g id="edge1" class="edge">
<title>Node0&#45;&gt;Node1</title>
<path fill="none" stroke="#191970" d="M207.3454,-284.5493C148.5938,-274.6983 54,-247.9727 54,-178 54,-178 54,-178 54,-122 54,-88.4397 41.2764,-51.0899 32.4016,-29.12"/>
<polygon fill="#191970" stroke="#191970" points="35.5255,-27.5191 28.4266,-19.6542 29.0714,-30.2294 35.5255,-27.5191"/>
</g>
<!-- Node2 -->
<g id="node3" class="node">
<title>Node2</title>
<g id="a_node3"><a xlink:href="fish_8h.html" target="_top" xlink:title="fish.h">
<polygon fill="none" stroke="#000000" points="446.5,-112.5 446.5,-131.5 487.5,-131.5 487.5,-112.5 446.5,-112.5"/>
<text text-anchor="middle" x="467" y="-119.5" font-family="Helvetica,sans-Serif" font-size="10.00" fill="#000000">fish.h</text>
</a>
</g>
</g>
<!-- Node0&#45;&gt;Node2 -->
<g id="edge2" class="edge">
<title>Node0&#45;&gt;Node2</title>
<path fill="none" stroke="#191970" d="M267.524,-280.4095C293.7031,-262.9405 350.2441,-224.3725 395,-188 414.3608,-172.2657 435.2488,-152.8176 449.5139,-139.1213"/>
<polygon fill="#191970" stroke="#191970" points="452.3341,-141.2627 457.0861,-131.7933 447.4661,-136.2325 452.3341,-141.2627"/>
</g>
<!-- Node5 -->
<g id="node6" class="node">
<title>Node5</title>
<g id="a_node6"><a xlink:href="functions_8h.html" target="_top" xlink:title="functions.h">
<polygon fill="none" stroke="#000000" points="188.5,-56.5 188.5,-75.5 253.5,-75.5 253.5,-56.5 188.5,-56.5"/>
<text text-anchor="middle" x="221" y="-63.5" font-family="Helvetica,sans-Serif" font-size="10.00" fill="#000000">functions.h</text>
</a>
</g>
</g>
<!-- Node0&#45;&gt;Node5 -->
<g id="edge19" class="edge">
<title>Node0&#45;&gt;Node5</title>
<path fill="none" stroke="#191970" d="M240.2752,-280.2466C230.4593,-271.8582 217.6367,-258.7955 212,-244 191.3153,-189.7053 205.8167,-119.2945 215.0154,-85.6206"/>
<polygon fill="#191970" stroke="#191970" points="218.4724,-86.2633 217.8732,-75.6854 211.7452,-84.3282 218.4724,-86.2633"/>
</g>
<!-- Node16 -->
<g id="node17" class="node">
<title>Node16</title>
<g id="a_node17"><a xlink:href="population_8h.html" target="_top" xlink:title="population.h">
<polygon fill="none" stroke="#000000" points="316.5,-168.5 316.5,-187.5 385.5,-187.5 385.5,-168.5 316.5,-168.5"/>
<text text-anchor="middle" x="351" y="-175.5" font-family="Helvetica,sans-Serif" font-size="10.00" fill="#000000">population.h</text>
</a>
</g>
</g>
<!-- Node0&#45;&gt;Node16 -->
<g id="edge20" class="edge">
<title>Node0&#45;&gt;Node16</title>
<path fill="none" stroke="#191970" d="M262.1168,-280.2232C270.6955,-270.9746 283.8534,-256.6631 295,-244 309.172,-227.9 324.9493,-209.236 336.1361,-195.8721"/>
<polygon fill="#191970" stroke="#191970" points="339.0398,-197.8553 342.7616,-187.9357 333.6662,-193.3693 339.0398,-197.8553"/>
</g>
<!-- Node18 -->
<g id="node19" class="node">
<title>Node18</title>
<g id="a_node19"><a xlink:href="simulator_8h.html" target="_top" xlink:title="simulator.h">
<polygon fill="none" stroke="#000000" points="220.5,-224.5 220.5,-243.5 285.5,-243.5 285.5,-224.5 220.5,-224.5"/>
<text text-anchor="middle" x="253" y="-231.5" font-family="Helvetica,sans-Serif" font-size="10.00" fill="#000000">simulator.h</text>
</a>
</g>
</g>
<!-- Node0&#45;&gt;Node18 -->
<g id="edge25" class="edge">
<title>Node0&#45;&gt;Node18</title>
<path fill="none" stroke="#191970" d="M253,-280.2455C253,-272.9382 253,-262.6944 253,-253.7046"/>
<polygon fill="#191970" stroke="#191970" points="256.5001,-253.6426 253,-243.6427 249.5001,-253.6427 256.5001,-253.6426"/>
</g>
<!-- Node3 -->
<g id="node4" class="node">
<title>Node3</title>
<polygon fill="none" stroke="#bfbfbf" points="489,-.5 489,-19.5 533,-19.5 533,-.5 489,-.5"/>
<text text-anchor="middle" x="511" y="-7.5" font-family="Helvetica,sans-Serif" font-size="10.00" fill="#000000">vector</text>
</g>
<!-- Node2&#45;&gt;Node3 -->
<g id="edge3" class="edge">
<title>Node2&#45;&gt;Node3</title>
<path fill="none" stroke="#191970" d="M473.0018,-112.4322C478.5146,-103.3313 486.6215,-89.1197 492,-76 498.219,-60.8302 503.2387,-42.916 506.5533,-29.5817"/>
<polygon fill="#191970" stroke="#191970" points="510.0139,-30.1577 508.9254,-19.6189 503.2042,-28.5363 510.0139,-30.1577"/>
</g>
<!-- Node4 -->
<g id="node5" class="node">
<title>Node4</title>
<polygon fill="none" stroke="#bfbfbf" points="447.5,-56.5 447.5,-75.5 482.5,-75.5 482.5,-56.5 447.5,-56.5"/>
<text text-anchor="middle" x="465" y="-63.5" font-family="Helvetica,sans-Serif" font-size="10.00" fill="#000000">map</text>
</g>
<!-- Node2&#45;&gt;Node4 -->
<g id="edge4" class="edge">
<title>Node2&#45;&gt;Node4</title>
<path fill="none" stroke="#191970" d="M466.6516,-112.2455C466.3907,-104.9382 466.0248,-94.6944 465.7037,-85.7046"/>
<polygon fill="#191970" stroke="#191970" points="469.1992,-85.5113 465.3444,-75.6427 462.2036,-85.7613 469.1992,-85.5113"/>
</g>
<!-- Node2&#45;&gt;Node5 -->
<g id="edge5" class="edge">
<title>Node2&#45;&gt;Node5</title>
<path fill="none" stroke="#191970" d="M446.4227,-117.4454C411.1838,-109.6274 336.7827,-93.0418 263.4216,-76.0772"/>
<polygon fill="#191970" stroke="#191970" points="264.0822,-72.6376 253.5503,-73.7906 262.5025,-79.4571 264.0822,-72.6376"/>
</g>
<!-- Node9 -->
<g id="node10" class="node">
<title>Node9</title>
<g id="a_node10"><a xlink:href="initializer__v2_8h.html" target="_top" xlink:title="initializer_v2.h">
<polygon fill="none" stroke="#000000" points="611.5,-56.5 611.5,-75.5 690.5,-75.5 690.5,-56.5 611.5,-56.5"/>
<text text-anchor="middle" x="651" y="-63.5" font-family="Helvetica,sans-Serif" font-size="10.00" fill="#000000">initializer_v2.h</text>
</a>
</g>
</g>
<!-- Node2&#45;&gt;Node9 -->
<g id="edge10" class="edge">
<title>Node2&#45;&gt;Node9</title>
<path fill="none" stroke="#191970" d="M487.7495,-115.6849C517.2558,-106.7047 571.9565,-90.0567 609.8606,-78.5207"/>
<polygon fill="#191970" stroke="#191970" points="611.0421,-81.8197 619.5898,-75.5596 609.0039,-75.123 611.0421,-81.8197"/>
</g>
<!-- Node5&#45;&gt;Node1 -->
<g id="edge9" class="edge">
<title>Node5&#45;&gt;Node1</title>
<path fill="none" stroke="#191970" d="M188.2711,-57.0353C157.1345,-48.4592 108.7312,-35.0048 57.9727,-20.2453"/>
<polygon fill="#191970" stroke="#191970" points="58.7133,-16.8155 48.1333,-17.3762 56.7538,-23.5357 58.7133,-16.8155"/>
</g>
<!-- Node6 -->
<g id="node7" class="node">
<title>Node6</title>
<polygon fill="none" stroke="#bfbfbf" points="66,-.5 66,-19.5 110,-19.5 110,-.5 66,-.5"/>
<text text-anchor="middle" x="88" y="-7.5" font-family="Helvetica,sans-Serif" font-size="10.00" fill="#000000">cmath</text>
</g>
<!-- Node5&#45;&gt;Node6 -->
<g id="edge6" class="edge">
<title>Node5&#45;&gt;Node6</title>
<path fill="none" stroke="#191970" d="M198.1365,-56.3733C176.4645,-47.2482 143.7221,-33.462 119.5669,-23.2913"/>
<polygon fill="#191970" stroke="#191970" points="120.6978,-19.9699 110.1232,-19.315 117.9814,-26.4214 120.6978,-19.9699"/>
</g>
<!-- Node7 -->
<g id="node8" class="node">
<title>Node7</title>
<polygon fill="none" stroke="#bfbfbf" points="128,-.5 128,-19.5 184,-19.5 184,-.5 128,-.5"/>
<text text-anchor="middle" x="156" y="-7.5" font-family="Helvetica,sans-Serif" font-size="10.00" fill="#000000">algorithm</text>
</g>
<!-- Node5&#45;&gt;Node7 -->
<g id="edge7" class="edge">
<title>Node5&#45;&gt;Node7</title>
<path fill="none" stroke="#191970" d="M209.6779,-56.2455C200.0777,-47.9746 186.1108,-35.9416 174.8305,-26.2232"/>
<polygon fill="#191970" stroke="#191970" points="177.053,-23.5182 167.1924,-19.6427 172.484,-28.8214 177.053,-23.5182"/>
</g>
<!-- Node8 -->
<g id="node9" class="node">
<title>Node8</title>
<polygon fill="none" stroke="#bfbfbf" points="280,-.5 280,-19.5 334,-19.5 334,-.5 280,-.5"/>
<text text-anchor="middle" x="307" y="-7.5" font-family="Helvetica,sans-Serif" font-size="10.00" fill="#000000">iostream</text>
</g>
<!-- Node5&#45;&gt;Node8 -->
<g id="edge8" class="edge">
<title>Node5&#45;&gt;Node8</title>
<path fill="none" stroke="#191970" d="M235.9801,-56.2455C249.1751,-47.6534 268.6051,-35.0014 283.8079,-25.1018"/>
<polygon fill="#191970" stroke="#191970" points="285.7215,-28.0325 292.1916,-19.6427 281.9017,-22.1665 285.7215,-28.0325"/>
</g>
<!-- Node9&#45;&gt;Node3 -->
<g id="edge15" class="edge">
<title>Node9&#45;&gt;Node3</title>
<path fill="none" stroke="#191970" d="M626.9331,-56.3733C603.7431,-47.0972 568.5112,-33.0045 542.9737,-22.7895"/>
<polygon fill="#191970" stroke="#191970" points="543.952,-19.4112 533.3673,-18.9469 541.3522,-25.9106 543.952,-19.4112"/>
</g>
<!-- Node9&#45;&gt;Node8 -->
<g id="edge11" class="edge">
<title>Node9&#45;&gt;Node8</title>
<path fill="none" stroke="#191970" d="M611.4876,-61.5576C554.6166,-54.841 446.2587,-40.8416 344.2447,-19.8358"/>
<polygon fill="#191970" stroke="#191970" points="344.8981,-16.3969 334.3941,-17.7811 343.4687,-23.2494 344.8981,-16.3969"/>
</g>
<!-- Node10 -->
<g id="node11" class="node">
<title>Node10</title>
<polygon fill="none" stroke="#bfbfbf" points="799.5,-.5 799.5,-19.5 840.5,-19.5 840.5,-.5 799.5,-.5"/>
<text text-anchor="middle" x="820" y="-7.5" font-family="Helvetica,sans-Serif" font-size="10.00" fill="#000000">regex</text>
</g>
<!-- Node9&#45;&gt;Node10 -->
<g id="edge12" class="edge">
<title>Node9&#45;&gt;Node10</title>
<path fill="none" stroke="#191970" d="M680.539,-56.4328C706.9626,-47.8441 746.9861,-34.7606 789.9232,-20.3348"/>
<polygon fill="#191970" stroke="#191970" points="791.0567,-23.6463 799.4176,-17.1389 788.8235,-17.0121 791.0567,-23.6463"/>
</g>
<!-- Node11 -->
<g id="node12" class="node">
<title>Node11</title>
<polygon fill="none" stroke="#bfbfbf" points="858.5,-.5 858.5,-19.5 899.5,-19.5 899.5,-.5 858.5,-.5"/>
<text text-anchor="middle" x="879" y="-7.5" font-family="Helvetica,sans-Serif" font-size="10.00" fill="#000000">string</text>
</g>
<!-- Node9&#45;&gt;Node11 -->
<g id="edge13" class="edge">
<title>Node9&#45;&gt;Node11</title>
<path fill="none" stroke="#191970" d="M690.5811,-58.129C728.9152,-50.223 788.8257,-37.1234 848.8573,-20.1308"/>
<polygon fill="#191970" stroke="#191970" points="849.8409,-23.4899 858.4897,-17.3704 847.9124,-16.7608 849.8409,-23.4899"/>
</g>
<!-- Node12 -->
<g id="node13" class="node">
<title>Node12</title>
<polygon fill="none" stroke="#bfbfbf" points="918,-.5 918,-19.5 968,-19.5 968,-.5 918,-.5"/>
<text text-anchor="middle" x="943" y="-7.5" font-family="Helvetica,sans-Serif" font-size="10.00" fill="#000000">fstream</text>
</g>
<!-- Node9&#45;&gt;Node12 -->
<g id="edge14" class="edge">
<title>Node9&#45;&gt;Node12</title>
<path fill="none" stroke="#191970" d="M690.614,-60.3182C739.5577,-52.995 825.5185,-39.1468 908.0468,-20.0318"/>
<polygon fill="#191970" stroke="#191970" points="908.8947,-23.428 917.831,-17.7366 907.2959,-16.613 908.8947,-23.428"/>
</g>
<!-- Node13 -->
<g id="node14" class="node">
<title>Node13</title>
<polygon fill="none" stroke="#bfbfbf" points="551,-.5 551,-19.5 603,-19.5 603,-.5 551,-.5"/>
<text text-anchor="middle" x="577" y="-7.5" font-family="Helvetica,sans-Serif" font-size="10.00" fill="#000000">sstream</text>
</g>
<!-- Node9&#45;&gt;Node13 -->
<g id="edge16" class="edge">
<title>Node9&#45;&gt;Node13</title>
<path fill="none" stroke="#191970" d="M638.1102,-56.2455C627.0746,-47.8943 610.9708,-35.7076 598.0647,-25.9408"/>
<polygon fill="#191970" stroke="#191970" points="599.8283,-22.8862 589.7421,-19.6427 595.6041,-28.4681 599.8283,-22.8862"/>
</g>
<!-- Node14 -->
<g id="node15" class="node">
<title>Node14</title>
<polygon fill="none" stroke="#bfbfbf" points="621.5,-.5 621.5,-19.5 680.5,-19.5 680.5,-.5 621.5,-.5"/>
<text text-anchor="middle" x="651" y="-7.5" font-family="Helvetica,sans-Serif" font-size="10.00" fill="#000000">stdexcept</text>
</g>
<!-- Node9&#45;&gt;Node14 -->
<g id="edge17" class="edge">
<title>Node9&#45;&gt;Node14</title>
<path fill="none" stroke="#191970" d="M651,-56.2455C651,-48.9382 651,-38.6944 651,-29.7046"/>
<polygon fill="#191970" stroke="#191970" points="654.5001,-29.6426 651,-19.6427 647.5001,-29.6427 654.5001,-29.6426"/>
</g>
<!-- Node15 -->
<g id="node16" class="node">
<title>Node15</title>
<polygon fill="none" stroke="#bfbfbf" points="698.5,-.5 698.5,-19.5 781.5,-19.5 781.5,-.5 698.5,-.5"/>
<text text-anchor="middle" x="740" y="-7.5" font-family="Helvetica,sans-Serif" font-size="10.00" fill="#000000">unordered_map</text>
</g>
<!-- Node9&#45;&gt;Node15 -->
<g id="edge18" class="edge">
<title>Node9&#45;&gt;Node15</title>
<path fill="none" stroke="#191970" d="M666.5026,-56.2455C680.158,-47.6534 700.2657,-35.0014 715.9989,-25.1018"/>
<polygon fill="#191970" stroke="#191970" points="718.0751,-27.9307 724.675,-19.6427 714.3471,-22.006 718.0751,-27.9307"/>
</g>
<!-- Node16&#45;&gt;Node1 -->
<g id="edge23" class="edge">
<title>Node16&#45;&gt;Node1</title>
<path fill="none" stroke="#191970" d="M335.7163,-168.4324C300.9917,-146.8956 213.1797,-93.5606 136,-56 110.3152,-43.5001 80.34,-31.3091 57.8665,-22.6212"/>
<polygon fill="#191970" stroke="#191970" points="59.011,-19.3117 48.4206,-19.0048 56.5081,-25.849 59.011,-19.3117"/>
</g>
<!-- Node16&#45;&gt;Node2 -->
<g id="edge24" class="edge">
<title>Node16&#45;&gt;Node2</title>
<path fill="none" stroke="#191970" d="M370.9411,-168.3733C389.4786,-159.4241 417.3028,-145.9917 438.2413,-135.8835"/>
<polygon fill="#191970" stroke="#191970" points="439.8352,-139.0006 447.3191,-131.5011 436.7919,-132.6967 439.8352,-139.0006"/>
</g>
<!-- Node16&#45;&gt;Node3 -->
<g id="edge21" class="edge">
<title>Node16&#45;&gt;Node3</title>
<path fill="none" stroke="#191970" d="M363.1029,-168.3312C373.5017,-159.6027 388.4444,-146.0135 399,-132 421.9656,-101.5112 413.1671,-84.1007 439,-56 450.9407,-43.011 467.3289,-32.1616 481.4538,-24.2677"/>
<polygon fill="#191970" stroke="#191970" points="483.173,-27.3174 490.3396,-19.5143 479.8711,-21.1451 483.173,-27.3174"/>
</g>
<!-- Node17 -->
<g id="node18" class="node">
<title>Node17</title>
<polygon fill="none" stroke="#bfbfbf" points="340.5,-112.5 340.5,-131.5 389.5,-131.5 389.5,-112.5 340.5,-112.5"/>
<text text-anchor="middle" x="365" y="-119.5" font-family="Helvetica,sans-Serif" font-size="10.00" fill="#000000">random</text>
</g>
<!-- Node16&#45;&gt;Node17 -->
<g id="edge22" class="edge">
<title>Node16&#45;&gt;Node17</title>
<path fill="none" stroke="#191970" d="M353.4386,-168.2455C355.2855,-160.8579 357.8828,-150.4689 360.1478,-141.4087"/>
<polygon fill="#191970" stroke="#191970" points="363.5594,-142.193 362.5893,-131.6427 356.7684,-140.4952 363.5594,-142.193"/>
</g>
<!-- Node18&#45;&gt;Node1 -->
<g id="edge35" class="edge">
<title>Node18&#45;&gt;Node1</title>
<path fill="none" stroke="#191970" d="M243.1602,-224.375C207.7063,-189.6953 86.2212,-70.8627 41.0745,-26.7017"/>
<polygon fill="#191970" stroke="#191970" points="43.3993,-24.0797 33.8032,-19.5891 38.5045,-29.0838 43.3993,-24.0797"/>
</g>
<!-- Node18&#45;&gt;Node3 -->
<g id="edge26" class="edge">
<title>Node18&#45;&gt;Node3</title>
<path fill="none" stroke="#191970" d="M257.3868,-224.4724C267.8277,-202.5585 295.9945,-147.7216 332,-112 375.3539,-68.9879 440.503,-37.9772 479.0887,-22.0923"/>
<polygon fill="#191970" stroke="#191970" points="480.7925,-25.1795 488.7621,-18.1984 478.1785,-18.6859 480.7925,-25.1795"/>
</g>
<!-- Node18&#45;&gt;Node16 -->
<g id="edge27" class="edge">
<title>Node18&#45;&gt;Node16</title>
<path fill="none" stroke="#191970" d="M270.0703,-224.2455C285.247,-215.5731 307.6621,-202.7645 325.0563,-192.825"/>
<polygon fill="#191970" stroke="#191970" points="327.1794,-195.643 334.1253,-187.6427 323.7064,-189.5653 327.1794,-195.643"/>
</g>
<!-- Node19 -->
<g id="node20" class="node">
<title>Node19</title>
<g id="a_node20"><a xlink:href="tensor_8h.html" target="_top" xlink:title="tensor.h">
<polygon fill="none" stroke="#000000" points="272,-56.5 272,-75.5 324,-75.5 324,-56.5 272,-56.5"/>
<text text-anchor="middle" x="298" y="-63.5" font-family="Helvetica,sans-Serif" font-size="10.00" fill="#000000">tensor.h</text>
</a>
</g>
</g>
<!-- Node18&#45;&gt;Node19 -->
<g id="edge28" class="edge">
<title>Node18&#45;&gt;Node19</title>
<path fill="none" stroke="#191970" d="M251.5932,-224.3939C248.9036,-203.2218 244.5805,-151.302 260,-112 264.2562,-101.1516 272.1101,-90.9544 279.5778,-82.9312"/>
<polygon fill="#191970" stroke="#191970" points="282.2066,-85.2511 286.7691,-75.689 277.2394,-80.3188 282.2066,-85.2511"/>
</g>
<!-- Node19&#45;&gt;Node3 -->
<g id="edge31" class="edge">
<title>Node19&#45;&gt;Node3</title>
<path fill="none" stroke="#191970" d="M324.2689,-59.4081C366.7655,-48.7382 448.339,-28.2313 478.9603,-20.0632"/>
<polygon fill="#191970" stroke="#191970" points="479.9886,-23.4104 488.7016,-17.3828 478.1314,-16.6613 479.9886,-23.4104"/>
</g>
<!-- Node19&#45;&gt;Node7 -->
<g id="edge33" class="edge">
<title>Node19&#45;&gt;Node7</title>
<path fill="none" stroke="#191970" d="M273.5893,-56.3733C250.3858,-47.2226 215.2962,-33.3844 189.4858,-23.2057"/>
<polygon fill="#191970" stroke="#191970" points="190.6789,-19.9139 180.0921,-19.5011 188.1108,-26.4258 190.6789,-19.9139"/>
</g>
<!-- Node19&#45;&gt;Node8 -->
<g id="edge29" class="edge">
<title>Node19&#45;&gt;Node8</title>
<path fill="none" stroke="#191970" d="M299.5677,-56.2455C300.7421,-48.9382 302.3884,-38.6944 303.8332,-29.7046"/>
<polygon fill="#191970" stroke="#191970" points="307.3191,-30.0714 305.4503,-19.6427 300.4078,-28.9606 307.3191,-30.0714"/>
</g>
<!-- Node20 -->
<g id="node21" class="node">
<title>Node20</title>
<polygon fill="none" stroke="#bfbfbf" points="421.5,-.5 421.5,-19.5 470.5,-19.5 470.5,-.5 421.5,-.5"/>
<text text-anchor="middle" x="446" y="-7.5" font-family="Helvetica,sans-Serif" font-size="10.00" fill="#000000">cassert</text>
</g>
<!-- Node19&#45;&gt;Node20 -->
<g id="edge30" class="edge">
<title>Node19&#45;&gt;Node20</title>
<path fill="none" stroke="#191970" d="M323.4421,-56.3733C347.8799,-47.1265 384.9672,-33.0935 411.9429,-22.8865"/>
<polygon fill="#191970" stroke="#191970" points="413.2675,-26.1275 421.3817,-19.315 410.7902,-19.5805 413.2675,-26.1275"/>
</g>
<!-- Node21 -->
<g id="node22" class="node">
<title>Node21</title>
<polygon fill="none" stroke="#bfbfbf" points="202.5,-.5 202.5,-19.5 261.5,-19.5 261.5,-.5 202.5,-.5"/>
<text text-anchor="middle" x="232" y="-7.5" font-family="Helvetica,sans-Serif" font-size="10.00" fill="#000000">functional</text>
</g>
<!-- Node19&#45;&gt;Node21 -->
<g id="edge32" class="edge">
<title>Node19&#45;&gt;Node21</title>
<path fill="none" stroke="#191970" d="M286.5037,-56.2455C276.7558,-47.9746 262.5741,-35.9416 251.1202,-26.2232"/>
<polygon fill="#191970" stroke="#191970" points="253.2541,-23.4437 243.3646,-19.6427 248.7253,-28.7813 253.2541,-23.4437"/>
</g>
<!-- Node22 -->
<g id="node23" class="node">
<title>Node22</title>
<polygon fill="none" stroke="#bfbfbf" points="352.5,-.5 352.5,-19.5 403.5,-19.5 403.5,-.5 352.5,-.5"/>
<text text-anchor="middle" x="378" y="-7.5" font-family="Helvetica,sans-Serif" font-size="10.00" fill="#000000">numeric</text>
</g>
<!-- Node19&#45;&gt;Node22 -->
<g id="edge34" class="edge">
<title>Node19&#45;&gt;Node22</title>
<path fill="none" stroke="#191970" d="M311.9349,-56.2455C324.0947,-47.7337 341.9464,-35.2375 356.0285,-25.3801"/>
<polygon fill="#191970" stroke="#191970" points="358.0395,-28.2447 364.2248,-19.6427 354.0253,-22.51 358.0395,-28.2447"/>
</g>
</g>
</svg>
