<?xml version="1.0" encoding="UTF-8" standalone="no"?>
<!DOCTYPE svg PUBLIC "-//W3C//DTD SVG 1.1//EN"
 "http://www.w3.org/Graphics/SVG/1.1/DTD/svg11.dtd">
<!-- Generated by graphviz version 2.40.1 (20161225.0304)
 -->
<!-- Title: RCPP_MODULE Pages: 1 -->
<svg width="541pt" height="522pt"
 viewBox="0.00 0.00 541.00 522.00" xmlns="http://www.w3.org/2000/svg" xmlns:xlink="http://www.w3.org/1999/xlink">
<g id="graph0" class="graph" transform="scale(1 1) rotate(0) translate(4 518)">
<title>RCPP_MODULE</title>
<!-- Node31 -->
<g id="node1" class="node">
<title>Node31</title>
<polygon fill="#bfbfbf" stroke="#000000" points="0,-247.5 0,-266.5 93,-266.5 93,-247.5 0,-247.5"/>
<text text-anchor="middle" x="46.5" y="-254.5" font-family="Helvetica,sans-Serif" font-size="10.00" fill="#000000">RCPP_MODULE</text>
</g>
<!-- Node32 -->
<g id="node2" class="node">
<title>Node32</title>
<g id="a_node2"><a xlink:href="classPopulation.html#ae8a6455aa45e65bf8bd41312f9caa328" target="_top" xlink:title="Population::set_superFishSize">
<polygon fill="none" stroke="#000000" points="133.5,-494.5 133.5,-513.5 282.5,-513.5 282.5,-494.5 133.5,-494.5"/>
<text text-anchor="middle" x="208" y="-501.5" font-family="Helvetica,sans-Serif" font-size="10.00" fill="#000000">Population::set_superFishSize</text>
</a>
</g>
</g>
<!-- Node31&#45;&gt;Node32 -->
<g id="edge1" class="edge">
<title>Node31&#45;&gt;Node32</title>
<path fill="none" stroke="#191970" d="M46.8928,-266.5353C48.8701,-301.4998 60.6064,-423.8158 129,-485 130.7511,-486.5666 132.6088,-488.0097 134.5518,-489.3388"/>
<polygon fill="#191970" stroke="#191970" points="133.1296,-492.5567 143.5511,-494.4656 136.5946,-486.4744 133.1296,-492.5567"/>
</g>
<!-- Node33 -->
<g id="node3" class="node">
<title>Node33</title>
<g id="a_node3"><a xlink:href="classPopulation.html#a20696fa511c914e7c8837acb2a254b33" target="_top" xlink:title="Population::set_harvestProp">
<polygon fill="none" stroke="#000000" points="138,-456.5 138,-475.5 278,-475.5 278,-456.5 138,-456.5"/>
<text text-anchor="middle" x="208" y="-463.5" font-family="Helvetica,sans-Serif" font-size="10.00" fill="#000000">Population::set_harvestProp</text>
</a>
</g>
</g>
<!-- Node31&#45;&gt;Node33 -->
<g id="edge2" class="edge">
<title>Node31&#45;&gt;Node33</title>
<path fill="none" stroke="#191970" d="M47.6746,-266.6677C52.0132,-297.9893 70.0696,-397.5058 129,-447 130.9849,-448.667 133.0918,-450.1927 135.2931,-451.5886"/>
<polygon fill="#191970" stroke="#191970" points="133.7245,-454.7188 144.1924,-456.3544 137.0292,-448.548 133.7245,-454.7188"/>
</g>
<!-- Node34 -->
<g id="node4" class="node">
<title>Node34</title>
<g id="a_node4"><a xlink:href="classPopulation.html#a343a346cae1413da400c042868c15859" target="_top" xlink:title="Population::set_minSizeLimit">
<polygon fill="none" stroke="#000000" points="136.5,-418.5 136.5,-437.5 279.5,-437.5 279.5,-418.5 136.5,-418.5"/>
<text text-anchor="middle" x="208" y="-425.5" font-family="Helvetica,sans-Serif" font-size="10.00" fill="#000000">Population::set_minSizeLimit</text>
</a>
</g>
</g>
<!-- Node31&#45;&gt;Node34 -->
<g id="edge3" class="edge">
<title>Node31&#45;&gt;Node34</title>
<path fill="none" stroke="#191970" d="M48.7881,-266.6247C55.7355,-293.6569 79.2253,-370.7847 129,-409 131.3602,-410.8121 133.8678,-412.4545 136.4824,-413.943"/>
<polygon fill="#191970" stroke="#191970" points="135.2021,-417.2121 145.7263,-418.4332 138.2607,-410.9156 135.2021,-417.2121"/>
</g>
<!-- Node35 -->
<g id="node5" class="node">
<title>Node35</title>
<g id="a_node5"><a xlink:href="classPopulation.html#ac8ed845bbda25c937a2fd76b3788e987" target="_top" xlink:title="Population::selectivity">
<polygon fill="none" stroke="#000000" points="151.5,-380.5 151.5,-399.5 264.5,-399.5 264.5,-380.5 151.5,-380.5"/>
<text text-anchor="middle" x="208" y="-387.5" font-family="Helvetica,sans-Serif" font-size="10.00" fill="#000000">Population::selectivity</text>
</a>
</g>
</g>
<!-- Node31&#45;&gt;Node35 -->
<g id="edge4" class="edge">
<title>Node31&#45;&gt;Node35</title>
<path fill="none" stroke="#191970" d="M50.6383,-266.7408C60.6105,-288.9798 88.2013,-343.6719 129,-371 132.9665,-373.6569 137.265,-375.9433 141.7383,-377.9109"/>
<polygon fill="#191970" stroke="#191970" points="140.5258,-381.1944 151.1157,-381.5181 143.039,-374.6611 140.5258,-381.1944"/>
</g>
<!-- Node36 -->
<g id="node6" class="node">
<title>Node36</title>
<g id="a_node6"><a xlink:href="classPopulation.html#a5440cd360f9b6af954085b442327633b" target="_top" xlink:title="Population::init">
<polygon fill="none" stroke="#000000" points="167.5,-342.5 167.5,-361.5 248.5,-361.5 248.5,-342.5 167.5,-342.5"/>
<text text-anchor="middle" x="208" y="-349.5" font-family="Helvetica,sans-Serif" font-size="10.00" fill="#000000">Population::init</text>
</a>
</g>
</g>
<!-- Node31&#45;&gt;Node36 -->
<g id="edge5" class="edge">
<title>Node31&#45;&gt;Node36</title>
<path fill="none" stroke="#191970" d="M54.0336,-266.5896C67.3481,-282.8554 96.7004,-315.7628 129,-333 137.6824,-337.6335 147.4997,-341.1526 157.1885,-343.8207"/>
<polygon fill="#191970" stroke="#191970" points="156.6369,-347.29 167.1858,-346.304 158.3245,-340.4964 156.6369,-347.29"/>
</g>
<!-- Node37 -->
<g id="node7" class="node">
<title>Node37</title>
<g id="a_node7"><a xlink:href="classPopulation.html#aa404f725dcde475806cdb26704b9fbcf" target="_top" xlink:title="Population::update">
<polygon fill="none" stroke="#000000" points="159,-304.5 159,-323.5 257,-323.5 257,-304.5 159,-304.5"/>
<text text-anchor="middle" x="208" y="-311.5" font-family="Helvetica,sans-Serif" font-size="10.00" fill="#000000">Population::update</text>
</a>
</g>
</g>
<!-- Node31&#45;&gt;Node37 -->
<g id="edge6" class="edge">
<title>Node31&#45;&gt;Node37</title>
<path fill="none" stroke="#191970" d="M64.4273,-266.5009C80.8616,-274.9077 106.056,-287.0428 129,-295 136.3094,-297.535 144.1127,-299.8558 151.8629,-301.9379"/>
<polygon fill="#191970" stroke="#191970" points="151.0534,-305.3436 161.6101,-304.4458 152.7976,-298.5644 151.0534,-305.3436"/>
</g>
<!-- Node40 -->
<g id="node10" class="node">
<title>Node40</title>
<g id="a_node10"><a xlink:href="classPopulation.html#af15e7ba23b161c710d4013204b542cb6" target="_top" xlink:title="Population::calcSSB">
<polygon fill="none" stroke="#000000" points="154.5,-266.5 154.5,-285.5 261.5,-285.5 261.5,-266.5 154.5,-266.5"/>
<text text-anchor="middle" x="208" y="-273.5" font-family="Helvetica,sans-Serif" font-size="10.00" fill="#000000">Population::calcSSB</text>
</a>
</g>
</g>
<!-- Node31&#45;&gt;Node40 -->
<g id="edge9" class="edge">
<title>Node31&#45;&gt;Node40</title>
<path fill="none" stroke="#191970" d="M93.2125,-262.4956C109.0276,-264.3562 126.9748,-266.4676 143.9015,-268.459"/>
<polygon fill="#191970" stroke="#191970" points="143.9402,-271.9876 154.2807,-269.6801 144.7582,-265.0356 143.9402,-271.9876"/>
</g>
<!-- Node41 -->
<g id="node11" class="node">
<title>Node41</title>
<g id="a_node11"><a xlink:href="classPopulation.html#a42c4b04852bdda937e50f82952106af1" target="_top" xlink:title="Population::fishableBiomass">
<polygon fill="none" stroke="#000000" points="138,-228.5 138,-247.5 278,-247.5 278,-228.5 138,-228.5"/>
<text text-anchor="middle" x="208" y="-235.5" font-family="Helvetica,sans-Serif" font-size="10.00" fill="#000000">Population::fishableBiomass</text>
</a>
</g>
</g>
<!-- Node31&#45;&gt;Node41 -->
<g id="edge10" class="edge">
<title>Node31&#45;&gt;Node41</title>
<path fill="none" stroke="#191970" d="M93.2125,-251.5044C104.1295,-250.2201 116.0624,-248.8162 127.9744,-247.4148"/>
<polygon fill="#191970" stroke="#191970" points="128.4302,-250.8854 137.9527,-246.2409 127.6122,-243.9333 128.4302,-250.8854"/>
</g>
<!-- Node42 -->
<g id="node12" class="node">
<title>Node42</title>
<g id="a_node12"><a xlink:href="classPopulation.html#a650981877120084dbc53323e34ddfd5e" target="_top" xlink:title="Population::noFishingEquilibriate">
<polygon fill="none" stroke="#000000" points="129,-190.5 129,-209.5 287,-209.5 287,-190.5 129,-190.5"/>
<text text-anchor="middle" x="208" y="-197.5" font-family="Helvetica,sans-Serif" font-size="10.00" fill="#000000">Population::noFishingEquilibriate</text>
</a>
</g>
</g>
<!-- Node31&#45;&gt;Node42 -->
<g id="edge11" class="edge">
<title>Node31&#45;&gt;Node42</title>
<path fill="none" stroke="#191970" d="M64.4273,-247.4991C80.8616,-239.0923 106.056,-226.9572 129,-219 136.3094,-216.465 144.1127,-214.1442 151.8629,-212.0621"/>
<polygon fill="#191970" stroke="#191970" points="152.7976,-215.4356 161.6101,-209.5542 151.0534,-208.6564 152.7976,-215.4356"/>
</g>
<!-- Node43 -->
<g id="node13" class="node">
<title>Node43</title>
<g id="a_node13"><a xlink:href="classPopulation.html#a62f07e15a6d75f0e37e6e24e6a2eaec2" target="_top" xlink:title="Population::get_state">
<polygon fill="none" stroke="#000000" points="153.5,-152.5 153.5,-171.5 262.5,-171.5 262.5,-152.5 153.5,-152.5"/>
<text text-anchor="middle" x="208" y="-159.5" font-family="Helvetica,sans-Serif" font-size="10.00" fill="#000000">Population::get_state</text>
</a>
</g>
</g>
<!-- Node31&#45;&gt;Node43 -->
<g id="edge12" class="edge">
<title>Node31&#45;&gt;Node43</title>
<path fill="none" stroke="#191970" d="M54.0336,-247.4104C67.3481,-231.1446 96.7004,-198.2372 129,-181 133.5502,-178.5717 138.4122,-176.4494 143.404,-174.5954"/>
<polygon fill="#191970" stroke="#191970" points="144.7403,-177.8391 153.1157,-171.3505 142.522,-171.1999 144.7403,-177.8391"/>
</g>
<!-- Node44 -->
<g id="node14" class="node">
<title>Node44</title>
<g id="a_node14"><a xlink:href="classPopulation.html#af069291adb3fb7b451a36cf0a179398b" target="_top" xlink:title="Population::summarize">
<polygon fill="none" stroke="#000000" points="150,-114.5 150,-133.5 266,-133.5 266,-114.5 150,-114.5"/>
<text text-anchor="middle" x="208" y="-121.5" font-family="Helvetica,sans-Serif" font-size="10.00" fill="#000000">Population::summarize</text>
</a>
</g>
</g>
<!-- Node31&#45;&gt;Node44 -->
<g id="edge13" class="edge">
<title>Node31&#45;&gt;Node44</title>
<path fill="none" stroke="#191970" d="M50.6383,-247.2592C60.6105,-225.0202 88.2013,-170.3281 129,-143 132.56,-140.6154 136.3873,-138.5292 140.3685,-136.7042"/>
<polygon fill="#191970" stroke="#191970" points="141.8963,-139.8629 149.8837,-132.9022 139.2989,-133.3626 141.8963,-139.8629"/>
</g>
<!-- Node45 -->
<g id="node15" class="node">
<title>Node45</title>
<g id="a_node15"><a xlink:href="classPopulation.html#a345497aa32fe22f73153a59f469c6a19" target="_top" xlink:title="Population::print_summary">
<polygon fill="none" stroke="#000000" points="141.5,-76.5 141.5,-95.5 274.5,-95.5 274.5,-76.5 141.5,-76.5"/>
<text text-anchor="middle" x="208" y="-83.5" font-family="Helvetica,sans-Serif" font-size="10.00" fill="#000000">Population::print_summary</text>
</a>
</g>
</g>
<!-- Node31&#45;&gt;Node45 -->
<g id="edge14" class="edge">
<title>Node31&#45;&gt;Node45</title>
<path fill="none" stroke="#191970" d="M48.7881,-247.3753C55.7355,-220.3431 79.2253,-143.2153 129,-105 131.3602,-103.1879 133.8678,-101.5455 136.4824,-100.057"/>
<polygon fill="#191970" stroke="#191970" points="138.2607,-103.0844 145.7263,-95.5668 135.2021,-96.7879 138.2607,-103.0844"/>
</g>
<!-- Node46 -->
<g id="node16" class="node">
<title>Node46</title>
<g id="a_node16"><a xlink:href="classPopulation.html#ac62fc3480d60b055cd1886649809c6a6" target="_top" xlink:title="Population::nfish">
<polygon fill="none" stroke="#000000" points="163.5,-38.5 163.5,-57.5 252.5,-57.5 252.5,-38.5 163.5,-38.5"/>
<text text-anchor="middle" x="208" y="-45.5" font-family="Helvetica,sans-Serif" font-size="10.00" fill="#000000">Population::nfish</text>
</a>
</g>
</g>
<!-- Node31&#45;&gt;Node46 -->
<g id="edge15" class="edge">
<title>Node31&#45;&gt;Node46</title>
<path fill="none" stroke="#191970" d="M47.6746,-247.3323C52.0132,-216.0107 70.0696,-116.4942 129,-67 136.0601,-61.0704 144.6647,-56.9301 153.5648,-54.0519"/>
<polygon fill="#191970" stroke="#191970" points="154.5545,-57.4099 163.2794,-51.3992 152.7106,-50.6571 154.5545,-57.4099"/>
</g>
<!-- Node47 -->
<g id="node17" class="node">
<title>Node47</title>
<g id="a_node17"><a xlink:href="fish__glue_8cpp.html#a98419b0e357e28499fdbf638fbe73e50" target="_top" xlink:title="RCPP_EXPOSED_CLASS">
<polygon fill="none" stroke="#000000" points="139.5,-.5 139.5,-19.5 276.5,-19.5 276.5,-.5 139.5,-.5"/>
<text text-anchor="middle" x="208" y="-7.5" font-family="Helvetica,sans-Serif" font-size="10.00" fill="#000000">RCPP_EXPOSED_CLASS</text>
</a>
</g>
</g>
<!-- Node31&#45;&gt;Node47 -->
<g id="edge16" class="edge">
<title>Node31&#45;&gt;Node47</title>
<path fill="none" stroke="#191970" d="M46.8928,-247.4647C48.8701,-212.5002 60.6064,-90.1842 129,-29 130.7511,-27.4334 132.6088,-25.9903 134.5518,-24.6612"/>
<polygon fill="#191970" stroke="#191970" points="136.5946,-27.5256 143.5511,-19.5344 133.1296,-21.4433 136.5946,-27.5256"/>
</g>
<!-- Node38 -->
<g id="node8" class="node">
<title>Node38</title>
<g id="a_node8"><a xlink:href="namespacepn.html#ad42003887dcc42a4758c69775f83a8d9" target="_top" xlink:title="pn::zero">
<polygon fill="none" stroke="#000000" points="323,-304.5 323,-323.5 375,-323.5 375,-304.5 323,-304.5"/>
<text text-anchor="middle" x="349" y="-311.5" font-family="Helvetica,sans-Serif" font-size="10.00" fill="#000000">pn::zero</text>
</a>
</g>
</g>
<!-- Node37&#45;&gt;Node38 -->
<g id="edge7" class="edge">
<title>Node37&#45;&gt;Node38</title>
<path fill="none" stroke="#191970" d="M257.315,-314C275.5977,-314 295.9759,-314 312.8688,-314"/>
<polygon fill="#191970" stroke="#191970" points="312.8867,-317.5001 322.8867,-314 312.8866,-310.5001 312.8867,-317.5001"/>
</g>
<!-- Node39 -->
<g id="node9" class="node">
<title>Node39</title>
<g id="a_node9"><a xlink:href="structpn_1_1BrentRes.html#a4fa42a440c4b9dc765ea7f0d7fd3a412" target="_top" xlink:title="pn::BrentRes::BrentRes">
<polygon fill="none" stroke="#000000" points="411,-304.5 411,-323.5 533,-323.5 533,-304.5 411,-304.5"/>
<text text-anchor="middle" x="472" y="-311.5" font-family="Helvetica,sans-Serif" font-size="10.00" fill="#000000">pn::BrentRes::BrentRes</text>
</a>
</g>
</g>
<!-- Node38&#45;&gt;Node39 -->
<g id="edge8" class="edge">
<title>Node38&#45;&gt;Node39</title>
<path fill="none" stroke="#191970" d="M375.0851,-314C382.7193,-314 391.458,-314 400.4927,-314"/>
<polygon fill="#191970" stroke="#191970" points="400.7759,-317.5001 410.7759,-314 400.7759,-310.5001 400.7759,-317.5001"/>
</g>
</g>
</svg>
