<?xml version="1.0" encoding="UTF-8" standalone="no"?>
<!DOCTYPE svg PUBLIC "-//W3C//DTD SVG 1.1//EN"
 "http://www.w3.org/Graphics/SVG/1.1/DTD/svg11.dtd">
<!-- Generated by graphviz version 2.40.1 (20161225.0304)
 -->
<!-- Title: RCPP_MODULE Pages: 1 -->
<svg width="1005pt" height="614pt"
 viewBox="0.00 0.00 1005.00 613.76" xmlns="http://www.w3.org/2000/svg" xmlns:xlink="http://www.w3.org/1999/xlink">
<g id="graph0" class="graph" transform="scale(1 1) rotate(0) translate(4 609.7638)">
<title>RCPP_MODULE</title>
<!-- Node70 -->
<g id="node1" class="node">
<title>Node70</title>
<polygon fill="#bfbfbf" stroke="#000000" points="0,-277.2638 0,-296.2638 93,-296.2638 93,-277.2638 0,-277.2638"/>
<text text-anchor="middle" x="46.5" y="-284.2638" font-family="Helvetica,sans-Serif" font-size="10.00" fill="#000000">RCPP_MODULE</text>
</g>
<!-- Node71 -->
<g id="node2" class="node">
<title>Node71</title>
<g id="a_node2"><a xlink:href="classSimulator.html#a1e385d56b6ae6694463f127b5f1d98d5" target="_top" xlink:title="Simulator::setNaturalPopulation">
<polygon fill="none" stroke="#000000" points="129,-463.2638 129,-482.2638 284,-482.2638 284,-463.2638 129,-463.2638"/>
<text text-anchor="middle" x="206.5" y="-470.2638" font-family="Helvetica,sans-Serif" font-size="10.00" fill="#000000">Simulator::setNaturalPopulation</text>
</a>
</g>
</g>
<!-- Node70&#45;&gt;Node71 -->
<g id="edge1" class="edge">
<title>Node70&#45;&gt;Node71</title>
<path fill="none" stroke="#191970" d="M48.318,-296.4718C54.2448,-325.3023 75.7805,-411.062 129,-453.7638 131.08,-455.4327 133.2854,-456.9581 135.5855,-458.352"/>
<polygon fill="#191970" stroke="#191970" points="134.3664,-461.6599 144.8626,-463.1029 137.5572,-455.4294 134.3664,-461.6599"/>
</g>
<!-- Node72 -->
<g id="node3" class="node">
<title>Node72</title>
<g id="a_node3"><a xlink:href="classSimulator.html#a3dfce52c0bb26ec7ff2632b1eca50240" target="_top" xlink:title="Simulator::equilibriateNatural\lPopulation">
<polygon fill="none" stroke="#000000" points="135.5,-413.7638 135.5,-443.7638 277.5,-443.7638 277.5,-413.7638 135.5,-413.7638"/>
<text text-anchor="start" x="143.5" y="-431.7638" font-family="Helvetica,sans-Serif" font-size="10.00" fill="#000000">Simulator::equilibriateNatural</text>
<text text-anchor="middle" x="206.5" y="-420.7638" font-family="Helvetica,sans-Serif" font-size="10.00" fill="#000000">Population</text>
</a>
</g>
</g>
<!-- Node70&#45;&gt;Node72 -->
<g id="edge2" class="edge">
<title>Node70&#45;&gt;Node72</title>
<path fill="none" stroke="#191970" d="M50.5196,-296.3265C60.4275,-318.7367 88.2144,-374.9967 129,-404.7638 130.895,-406.1469 132.8716,-407.4516 134.9109,-408.6822"/>
<polygon fill="#191970" stroke="#191970" points="133.7245,-412.0152 144.1975,-413.6174 137.0094,-405.8339 133.7245,-412.0152"/>
</g>
<!-- Node90 -->
<g id="node21" class="node">
<title>Node90</title>
<g id="a_node21"><a xlink:href="classSimulator.html#aa6e6cfd73fd8d3200e7f515b473e88f2" target="_top" xlink:title="Simulator::simulate_r">
<polygon fill="none" stroke="#000000" points="344.5,-277.2638 344.5,-296.2638 453.5,-296.2638 453.5,-277.2638 344.5,-277.2638"/>
<text text-anchor="middle" x="399" y="-284.2638" font-family="Helvetica,sans-Serif" font-size="10.00" fill="#000000">Simulator::simulate_r</text>
</a>
</g>
</g>
<!-- Node70&#45;&gt;Node90 -->
<g id="edge23" class="edge">
<title>Node70&#45;&gt;Node90</title>
<path fill="none" stroke="#191970" d="M93.3093,-286.7638C155.122,-286.7638 264.2744,-286.7638 334.0451,-286.7638"/>
<polygon fill="#191970" stroke="#191970" points="334.467,-290.2639 344.467,-286.7638 334.4669,-283.2639 334.467,-290.2639"/>
</g>
<!-- Node92 -->
<g id="node23" class="node">
<title>Node92</title>
<g id="a_node23"><a xlink:href="classSimulator.html#a1a5454ee4736819d709398b225d7876d" target="_top" xlink:title="Simulator::simulate\l_multi_r">
<polygon fill="none" stroke="#000000" points="156,-364.7638 156,-394.7638 257,-394.7638 257,-364.7638 156,-364.7638"/>
<text text-anchor="start" x="164" y="-382.7638" font-family="Helvetica,sans-Serif" font-size="10.00" fill="#000000">Simulator::simulate</text>
<text text-anchor="middle" x="206.5" y="-371.7638" font-family="Helvetica,sans-Serif" font-size="10.00" fill="#000000">_multi_r</text>
</a>
</g>
</g>
<!-- Node70&#45;&gt;Node92 -->
<g id="edge29" class="edge">
<title>Node70&#45;&gt;Node92</title>
<path fill="none" stroke="#191970" d="M55.7129,-296.6548C70.0455,-311.4972 99.1512,-339.5186 129,-355.7638 134.4397,-358.7243 140.2969,-361.3759 146.2679,-363.7373"/>
<polygon fill="#191970" stroke="#191970" points="145.1074,-367.0396 155.7008,-367.2118 147.5269,-360.471 145.1074,-367.0396"/>
</g>
<!-- Node95 -->
<g id="node26" class="node">
<title>Node95</title>
<g id="a_node26"><a xlink:href="classSimulator.html#addbc3da16a6f9c352eefbdc423419bca" target="_top" xlink:title="Simulator::max_avg\l_utils">
<polygon fill="none" stroke="#000000" points="154.5,-227.7638 154.5,-257.7638 258.5,-257.7638 258.5,-227.7638 154.5,-227.7638"/>
<text text-anchor="start" x="162.5" y="-245.7638" font-family="Helvetica,sans-Serif" font-size="10.00" fill="#000000">Simulator::max_avg</text>
<text text-anchor="middle" x="206.5" y="-234.7638" font-family="Helvetica,sans-Serif" font-size="10.00" fill="#000000">_utils</text>
</a>
</g>
</g>
<!-- Node70&#45;&gt;Node95 -->
<g id="edge37" class="edge">
<title>Node70&#45;&gt;Node95</title>
<path fill="none" stroke="#191970" d="M81.2176,-277.2165C99.7085,-272.1315 123.0119,-265.723 144.4906,-259.8164"/>
<polygon fill="#191970" stroke="#191970" points="145.4929,-263.1708 154.2069,-257.1444 143.6368,-256.4213 145.4929,-263.1708"/>
</g>
<!-- Node103 -->
<g id="node34" class="node">
<title>Node103</title>
<g id="a_node34"><a xlink:href="classSimulator.html#a1b66b7260ff50758884d1f7361a1b988" target="_top" xlink:title="Simulator::stakeholder\l_satisfaction">
<polygon fill="none" stroke="#000000" points="149.5,-129.7638 149.5,-159.7638 263.5,-159.7638 263.5,-129.7638 149.5,-129.7638"/>
<text text-anchor="start" x="157.5" y="-147.7638" font-family="Helvetica,sans-Serif" font-size="10.00" fill="#000000">Simulator::stakeholder</text>
<text text-anchor="middle" x="206.5" y="-136.7638" font-family="Helvetica,sans-Serif" font-size="10.00" fill="#000000">_satisfaction</text>
</a>
</g>
</g>
<!-- Node70&#45;&gt;Node103 -->
<g id="edge46" class="edge">
<title>Node70&#45;&gt;Node103</title>
<path fill="none" stroke="#191970" d="M50.5196,-277.2011C60.4275,-254.7909 88.2144,-198.5309 129,-168.7638 132.4559,-166.2416 136.1827,-163.98 140.0676,-161.9527"/>
<polygon fill="#191970" stroke="#191970" points="141.77,-165.0212 149.3659,-157.6353 138.8219,-158.6722 141.77,-165.0212"/>
</g>
<!-- Node107 -->
<g id="node38" class="node">
<title>Node107</title>
<g id="a_node38"><a xlink:href="classSimulator.html#af1b0a9562ecf0ad8f98d61576efba28b" target="_top" xlink:title="Simulator::simulate\l_multi_2d_r">
<polygon fill="none" stroke="#000000" points="156,-315.7638 156,-345.7638 257,-345.7638 257,-315.7638 156,-315.7638"/>
<text text-anchor="start" x="164" y="-333.7638" font-family="Helvetica,sans-Serif" font-size="10.00" fill="#000000">Simulator::simulate</text>
<text text-anchor="middle" x="206.5" y="-322.7638" font-family="Helvetica,sans-Serif" font-size="10.00" fill="#000000">_multi_2d_r</text>
</a>
</g>
</g>
<!-- Node70&#45;&gt;Node107 -->
<g id="edge54" class="edge">
<title>Node70&#45;&gt;Node107</title>
<path fill="none" stroke="#191970" d="M81.2176,-296.3111C100.107,-301.5057 124.0186,-308.0814 145.8767,-314.0924"/>
<polygon fill="#191970" stroke="#191970" points="145.1795,-317.5305 155.7497,-316.8075 147.0357,-310.7811 145.1795,-317.5305"/>
</g>
<!-- Node109 -->
<g id="node40" class="node">
<title>Node109</title>
<g id="a_node40"><a xlink:href="classSimulator.html#a32eeba843e7526dceb75a2c6aebe240e" target="_top" xlink:title="Simulator::max_avg\l_utils_2d">
<polygon fill="none" stroke="#000000" points="154.5,-178.7638 154.5,-208.7638 258.5,-208.7638 258.5,-178.7638 154.5,-178.7638"/>
<text text-anchor="start" x="162.5" y="-196.7638" font-family="Helvetica,sans-Serif" font-size="10.00" fill="#000000">Simulator::max_avg</text>
<text text-anchor="middle" x="206.5" y="-185.7638" font-family="Helvetica,sans-Serif" font-size="10.00" fill="#000000">_utils_2d</text>
</a>
</g>
</g>
<!-- Node70&#45;&gt;Node109 -->
<g id="edge62" class="edge">
<title>Node70&#45;&gt;Node109</title>
<path fill="none" stroke="#191970" d="M55.7666,-277.0679C70.1693,-262.5082 99.3654,-234.9801 129,-218.7638 133.8834,-216.0916 139.0979,-213.65 144.4263,-211.4312"/>
<polygon fill="#191970" stroke="#191970" points="146.039,-214.5597 154.0934,-207.6765 143.5046,-208.0346 146.039,-214.5597"/>
</g>
<!-- Node110 -->
<g id="node41" class="node">
<title>Node110</title>
<g id="a_node41"><a xlink:href="classSimulator.html#aac842e5498b4c9731910ce9a93fa555d" target="_top" xlink:title="Simulator::stakeholder\l_satisfaction_2d">
<polygon fill="none" stroke="#000000" points="149.5,-80.7638 149.5,-110.7638 263.5,-110.7638 263.5,-80.7638 149.5,-80.7638"/>
<text text-anchor="start" x="157.5" y="-98.7638" font-family="Helvetica,sans-Serif" font-size="10.00" fill="#000000">Simulator::stakeholder</text>
<text text-anchor="middle" x="206.5" y="-87.7638" font-family="Helvetica,sans-Serif" font-size="10.00" fill="#000000">_satisfaction_2d</text>
</a>
</g>
</g>
<!-- Node70&#45;&gt;Node110 -->
<g id="edge65" class="edge">
<title>Node70&#45;&gt;Node110</title>
<path fill="none" stroke="#191970" d="M48.4388,-277.2018C54.7026,-248.7788 77.0829,-164.0399 129,-119.7638 132.4697,-116.8048 136.3013,-114.2103 140.3477,-111.9356"/>
<polygon fill="#191970" stroke="#191970" points="142.0563,-114.9959 149.4923,-107.449 138.9729,-108.7116 142.0563,-114.9959"/>
</g>
<!-- Node73 -->
<g id="node4" class="node">
<title>Node73</title>
<g id="a_node4"><a xlink:href="classPopulation.html#ae8a6455aa45e65bf8bd41312f9caa328" target="_top" xlink:title="Population::set_superFishSize">
<polygon fill="none" stroke="#000000" points="514,-491.2638 514,-510.2638 663,-510.2638 663,-491.2638 514,-491.2638"/>
<text text-anchor="middle" x="588.5" y="-498.2638" font-family="Helvetica,sans-Serif" font-size="10.00" fill="#000000">Population::set_superFishSize</text>
</a>
</g>
</g>
<!-- Node72&#45;&gt;Node73 -->
<g id="edge3" class="edge">
<title>Node72&#45;&gt;Node73</title>
<path fill="none" stroke="#191970" d="M261.2716,-443.7671C269.0834,-446.6665 276.8767,-449.9959 284,-453.7638 301.9176,-463.2414 301.0716,-474.5125 320,-481.7638 378.5224,-504.1831 449.4131,-508.3276 503.6539,-507.1915"/>
<polygon fill="#191970" stroke="#191970" points="504.0258,-510.6827 513.9259,-506.9095 503.8336,-503.6853 504.0258,-510.6827"/>
</g>
<!-- Node74 -->
<g id="node5" class="node">
<title>Node74</title>
<g id="a_node5"><a xlink:href="classPopulation.html#aa7eba257f23cbc12aa3673ce012fb2cb" target="_top" xlink:title="Population::noFishingEquilibriate">
<polygon fill="none" stroke="#000000" points="320,-403.2638 320,-422.2638 478,-422.2638 478,-403.2638 320,-403.2638"/>
<text text-anchor="middle" x="399" y="-410.2638" font-family="Helvetica,sans-Serif" font-size="10.00" fill="#000000">Population::noFishingEquilibriate</text>
</a>
</g>
</g>
<!-- Node72&#45;&gt;Node74 -->
<g id="edge4" class="edge">
<title>Node72&#45;&gt;Node74</title>
<path fill="none" stroke="#191970" d="M277.633,-422.8515C288.0218,-421.988 298.8305,-421.0896 309.5269,-420.2005"/>
<polygon fill="#191970" stroke="#191970" points="310.0548,-423.6688 319.7305,-419.3524 309.475,-416.6929 310.0548,-423.6688"/>
</g>
<!-- Node75 -->
<g id="node6" class="node">
<title>Node75</title>
<g id="a_node6"><a xlink:href="classPopulation.html#a20696fa511c914e7c8837acb2a254b33" target="_top" xlink:title="Population::set_harvestProp">
<polygon fill="none" stroke="#000000" points="518.5,-339.2638 518.5,-358.2638 658.5,-358.2638 658.5,-339.2638 518.5,-339.2638"/>
<text text-anchor="middle" x="588.5" y="-346.2638" font-family="Helvetica,sans-Serif" font-size="10.00" fill="#000000">Population::set_harvestProp</text>
</a>
</g>
</g>
<!-- Node74&#45;&gt;Node75 -->
<g id="edge5" class="edge">
<title>Node74&#45;&gt;Node75</title>
<path fill="none" stroke="#191970" d="M448.5807,-403.1876C458.4914,-400.6221 468.7066,-397.4978 478,-393.7638 495.1878,-386.8579 497.0856,-380.3145 514,-372.7638 523.3993,-368.5679 533.7591,-364.7537 543.6879,-361.4628"/>
<polygon fill="#191970" stroke="#191970" points="544.962,-364.7301 553.4216,-358.3516 542.8307,-358.0624 544.962,-364.7301"/>
</g>
<!-- Node76 -->
<g id="node7" class="node">
<title>Node76</title>
<g id="a_node7"><a xlink:href="classPopulation.html#a012ef586a78b4e7c2082634b316072d0" target="_top" xlink:title="Population::init">
<polygon fill="none" stroke="#000000" points="548,-453.2638 548,-472.2638 629,-472.2638 629,-453.2638 548,-453.2638"/>
<text text-anchor="middle" x="588.5" y="-460.2638" font-family="Helvetica,sans-Serif" font-size="10.00" fill="#000000">Population::init</text>
</a>
</g>
</g>
<!-- Node74&#45;&gt;Node76 -->
<g id="edge6" class="edge">
<title>Node74&#45;&gt;Node76</title>
<path fill="none" stroke="#191970" d="M438.4797,-422.3583C451.137,-425.5412 465.1907,-429.1877 478,-432.7638 494.114,-437.2626 497.8899,-439.2509 514,-443.7638 522.3144,-446.0929 531.1838,-448.4581 539.7968,-450.6924"/>
<polygon fill="#191970" stroke="#191970" points="539.1851,-454.1488 549.7414,-453.2452 540.9257,-447.3687 539.1851,-454.1488"/>
</g>
<!-- Node80 -->
<g id="node11" class="node">
<title>Node80</title>
<g id="a_node11"><a xlink:href="classPopulation.html#a81c19d1c80cfb1d54d3872ecdefd0872" target="_top" xlink:title="Population::update">
<polygon fill="none" stroke="#000000" points="539.5,-415.2638 539.5,-434.2638 637.5,-434.2638 637.5,-415.2638 539.5,-415.2638"/>
<text text-anchor="middle" x="588.5" y="-422.2638" font-family="Helvetica,sans-Serif" font-size="10.00" fill="#000000">Population::update</text>
</a>
</g>
</g>
<!-- Node74&#45;&gt;Node80 -->
<g id="edge10" class="edge">
<title>Node74&#45;&gt;Node80</title>
<path fill="none" stroke="#191970" d="M478.2671,-417.7834C495.2394,-418.8581 512.8929,-419.976 528.9693,-420.994"/>
<polygon fill="#191970" stroke="#191970" points="529.0817,-424.5081 539.283,-421.6472 529.5242,-417.5221 529.0817,-424.5081"/>
</g>
<!-- Node77 -->
<g id="node8" class="node">
<title>Node77</title>
<g id="a_node8"><a xlink:href="classFish.html#adf85bf269f1651352506e371ffd2cecc" target="_top" xlink:title="Initializes the fish, i.e., initializes parameters and sets the initial state (age = 1...">
<polygon fill="none" stroke="#000000" points="742,-567.2638 742,-586.2638 796,-586.2638 796,-567.2638 742,-567.2638"/>
<text text-anchor="middle" x="769" y="-574.2638" font-family="Helvetica,sans-Serif" font-size="10.00" fill="#000000">Fish::init</text>
</a>
</g>
</g>
<!-- Node76&#45;&gt;Node77 -->
<g id="edge7" class="edge">
<title>Node76&#45;&gt;Node77</title>
<path fill="none" stroke="#191970" d="M629.3807,-466.5528C641.2342,-469.306 653.5217,-473.9559 663,-481.7638 691.848,-505.5279 670.335,-533.7793 699,-557.7638 708.2624,-565.5138 720.4093,-570.1236 731.9794,-572.8584"/>
<polygon fill="#191970" stroke="#191970" points="731.4244,-576.3162 741.9117,-574.8108 732.7746,-569.4476 731.4244,-576.3162"/>
</g>
<!-- Node78 -->
<g id="node9" class="node">
<title>Node78</title>
<g id="a_node9"><a xlink:href="namespacefish.html#a0ab1c4842d702a0a40bd04f26793ce12" target="_top" xlink:title="Compute the nonlinear growth increment , as follows . ">
<polygon fill="none" stroke="#000000" points="897.5,-586.2638 897.5,-605.2638 974.5,-605.2638 974.5,-586.2638 897.5,-586.2638"/>
<text text-anchor="middle" x="936" y="-593.2638" font-family="Helvetica,sans-Serif" font-size="10.00" fill="#000000">fish::dl_power</text>
</a>
</g>
</g>
<!-- Node77&#45;&gt;Node78 -->
<g id="edge8" class="edge">
<title>Node77&#45;&gt;Node78</title>
<path fill="none" stroke="#191970" d="M796.2031,-579.8588C820.7581,-582.6524 857.4711,-586.8294 887.1129,-590.2018"/>
<polygon fill="#191970" stroke="#191970" points="886.9396,-593.7046 897.2712,-591.3575 887.731,-586.7494 886.9396,-593.7046"/>
</g>
<!-- Node79 -->
<g id="node10" class="node">
<title>Node79</title>
<g id="a_node10"><a xlink:href="namespacefish.html#a1d06e0358aca1be4446ed148b7ce3d84" target="_top" xlink:title="Compute the new length after growth assuming no allocation to reproduction . ">
<polygon fill="none" stroke="#000000" points="884.5,-548.2638 884.5,-567.2638 987.5,-567.2638 987.5,-548.2638 884.5,-548.2638"/>
<text text-anchor="middle" x="936" y="-555.2638" font-family="Helvetica,sans-Serif" font-size="10.00" fill="#000000">fish::length_juvenile</text>
</a>
</g>
</g>
<!-- Node77&#45;&gt;Node79 -->
<g id="edge9" class="edge">
<title>Node77&#45;&gt;Node79</title>
<path fill="none" stroke="#191970" d="M796.2031,-573.6688C817.2655,-571.2725 847.2731,-567.8585 874.0905,-564.8074"/>
<polygon fill="#191970" stroke="#191970" points="874.6468,-568.2668 884.1871,-563.6587 873.8555,-561.3116 874.6468,-568.2668"/>
</g>
<!-- Node80&#45;&gt;Node77 -->
<g id="edge14" class="edge">
<title>Node80&#45;&gt;Node77</title>
<path fill="none" stroke="#191970" d="M637.812,-429.8683C647.0676,-432.7702 656.0161,-437.1616 663,-443.7638 701.6109,-480.2647 660.6701,-520.968 699,-557.7638 707.7826,-566.1948 719.9152,-570.9677 731.615,-573.6429"/>
<polygon fill="#191970" stroke="#191970" points="731.2223,-577.1293 741.6901,-575.4931 732.4867,-570.2444 731.2223,-577.1293"/>
</g>
<!-- Node81 -->
<g id="node12" class="node">
<title>Node81</title>
<g id="a_node12"><a xlink:href="classPopulation.html#ae942ef70cc9f4dfc40b5d843baf40b1e" target="_top" xlink:title="Population::calcTSB">
<polygon fill="none" stroke="#000000" points="716,-339.2638 716,-358.2638 822,-358.2638 822,-339.2638 716,-339.2638"/>
<text text-anchor="middle" x="769" y="-346.2638" font-family="Helvetica,sans-Serif" font-size="10.00" fill="#000000">Population::calcTSB</text>
</a>
</g>
</g>
<!-- Node80&#45;&gt;Node81 -->
<g id="edge11" class="edge">
<title>Node80&#45;&gt;Node81</title>
<path fill="none" stroke="#191970" d="M628.9012,-415.2117C640.3561,-411.5976 652.5458,-406.8442 663,-400.7638 681.7623,-389.8512 679.9885,-378.2363 699,-367.7638 703.0173,-365.5509 707.3083,-363.5831 711.714,-361.8354"/>
<polygon fill="#191970" stroke="#191970" points="713.2375,-365.008 721.48,-358.3514 710.8853,-358.415 713.2375,-365.008"/>
</g>
<!-- Node82 -->
<g id="node13" class="node">
<title>Node82</title>
<g id="a_node13"><a xlink:href="classPopulation.html#af15e7ba23b161c710d4013204b542cb6" target="_top" xlink:title="Population::calcSSB">
<polygon fill="none" stroke="#000000" points="715.5,-529.2638 715.5,-548.2638 822.5,-548.2638 822.5,-529.2638 715.5,-529.2638"/>
<text text-anchor="middle" x="769" y="-536.2638" font-family="Helvetica,sans-Serif" font-size="10.00" fill="#000000">Population::calcSSB</text>
</a>
</g>
</g>
<!-- Node80&#45;&gt;Node82 -->
<g id="edge12" class="edge">
<title>Node80&#45;&gt;Node82</title>
<path fill="none" stroke="#191970" d="M637.527,-430.7496C646.6973,-433.5933 655.6852,-437.7381 663,-443.7638 691.848,-467.5279 670.335,-495.7793 699,-519.7638 701.2635,-521.6577 703.6993,-523.3641 706.2569,-524.9015"/>
<polygon fill="#191970" stroke="#191970" points="704.8454,-528.1098 715.3482,-529.5038 708.0071,-521.8645 704.8454,-528.1098"/>
</g>
<!-- Node83 -->
<g id="node14" class="node">
<title>Node83</title>
<g id="a_node14"><a xlink:href="classFish.html#aaa3e67187a587efc7a99485b4a6ee248" target="_top" xlink:title="Fish::set_traits">
<polygon fill="none" stroke="#000000" points="728,-491.2638 728,-510.2638 810,-510.2638 810,-491.2638 728,-491.2638"/>
<text text-anchor="middle" x="769" y="-498.2638" font-family="Helvetica,sans-Serif" font-size="10.00" fill="#000000">Fish::set_traits</text>
</a>
</g>
</g>
<!-- Node80&#45;&gt;Node83 -->
<g id="edge13" class="edge">
<title>Node80&#45;&gt;Node83</title>
<path fill="none" stroke="#191970" d="M637.7525,-433.1345C646.5106,-435.7746 655.2886,-439.2345 663,-443.7638 683.0602,-455.5461 679.0307,-469.828 699,-481.7638 704.8824,-485.2797 711.4273,-488.1595 718.0871,-490.5146"/>
<polygon fill="#191970" stroke="#191970" points="717.2731,-493.9279 727.863,-493.6027 719.3817,-487.253 717.2731,-493.9279"/>
</g>
<!-- Node84 -->
<g id="node15" class="node">
<title>Node84</title>
<g id="a_node15"><a xlink:href="classPopulation.html#a42c4b04852bdda937e50f82952106af1" target="_top" xlink:title="Population::fishableBiomass">
<polygon fill="none" stroke="#000000" points="699,-263.2638 699,-282.2638 839,-282.2638 839,-263.2638 699,-263.2638"/>
<text text-anchor="middle" x="769" y="-270.2638" font-family="Helvetica,sans-Serif" font-size="10.00" fill="#000000">Population::fishableBiomass</text>
</a>
</g>
</g>
<!-- Node80&#45;&gt;Node84 -->
<g id="edge15" class="edge">
<title>Node80&#45;&gt;Node84</title>
<path fill="none" stroke="#191970" d="M637.7987,-415.9967C647.0552,-412.4992 656.0075,-407.6069 663,-400.7638 697.9582,-366.5524 664.3623,-331.2996 699,-296.7638 702.9803,-292.7953 707.6445,-289.4822 712.6427,-286.7165"/>
<polygon fill="#191970" stroke="#191970" points="714.3946,-289.7592 721.9246,-282.306 711.3903,-283.4366 714.3946,-289.7592"/>
</g>
<!-- Node85 -->
<g id="node16" class="node">
<title>Node85</title>
<g id="a_node16"><a xlink:href="classPopulation.html#ac8ed845bbda25c937a2fd76b3788e987" target="_top" xlink:title="Population::selectivity">
<polygon fill="none" stroke="#000000" points="879.5,-301.2638 879.5,-320.2638 992.5,-320.2638 992.5,-301.2638 879.5,-301.2638"/>
<text text-anchor="middle" x="936" y="-308.2638" font-family="Helvetica,sans-Serif" font-size="10.00" fill="#000000">Population::selectivity</text>
</a>
</g>
</g>
<!-- Node80&#45;&gt;Node85 -->
<g id="edge21" class="edge">
<title>Node80&#45;&gt;Node85</title>
<path fill="none" stroke="#191970" d="M637.103,-415.2357C646.41,-411.7933 655.5586,-407.1159 663,-400.7638 689.9094,-377.7935 669.6163,-349.4704 699,-329.7638 750.4228,-295.2764 822.952,-294.6808 874.1989,-300.1003"/>
<polygon fill="#191970" stroke="#191970" points="873.815,-303.5792 884.152,-301.2562 874.6225,-296.6259 873.815,-303.5792"/>
</g>
<!-- Node86 -->
<g id="node17" class="node">
<title>Node86</title>
<g id="a_node17"><a xlink:href="classPopulation.html#ad1840de2f00982c35d48b91a1d27ae13" target="_top" xlink:title="Population::effort">
<polygon fill="none" stroke="#000000" points="723.5,-415.2638 723.5,-434.2638 814.5,-434.2638 814.5,-415.2638 723.5,-415.2638"/>
<text text-anchor="middle" x="769" y="-422.2638" font-family="Helvetica,sans-Serif" font-size="10.00" fill="#000000">Population::effort</text>
</a>
</g>
</g>
<!-- Node80&#45;&gt;Node86 -->
<g id="edge17" class="edge">
<title>Node80&#45;&gt;Node86</title>
<path fill="none" stroke="#191970" d="M637.8224,-424.7638C661.2036,-424.7638 689.2345,-424.7638 713.3712,-424.7638"/>
<polygon fill="#191970" stroke="#191970" points="713.4523,-428.2639 723.4522,-424.7638 713.4522,-421.2639 713.4523,-428.2639"/>
</g>
<!-- Node87 -->
<g id="node18" class="node">
<title>Node87</title>
<g id="a_node18"><a xlink:href="namespacepn.html#ad42003887dcc42a4758c69775f83a8d9" target="_top" xlink:title="pn::zero">
<polygon fill="none" stroke="#000000" points="743,-453.2638 743,-472.2638 795,-472.2638 795,-453.2638 743,-453.2638"/>
<text text-anchor="middle" x="769" y="-460.2638" font-family="Helvetica,sans-Serif" font-size="10.00" fill="#000000">pn::zero</text>
</a>
</g>
</g>
<!-- Node80&#45;&gt;Node87 -->
<g id="edge19" class="edge">
<title>Node80&#45;&gt;Node87</title>
<path fill="none" stroke="#191970" d="M634.0478,-434.3528C664.6494,-440.7953 704.4246,-449.169 732.8506,-455.1534"/>
<polygon fill="#191970" stroke="#191970" points="732.2653,-458.6068 742.7718,-457.2421 733.7074,-451.757 732.2653,-458.6068"/>
</g>
<!-- Node89 -->
<g id="node20" class="node">
<title>Node89</title>
<g id="a_node20"><a xlink:href="classPopulation.html#ac62fc3480d60b055cd1886649809c6a6" target="_top" xlink:title="Population::nfish">
<polygon fill="none" stroke="#000000" points="724.5,-377.2638 724.5,-396.2638 813.5,-396.2638 813.5,-377.2638 724.5,-377.2638"/>
<text text-anchor="middle" x="769" y="-384.2638" font-family="Helvetica,sans-Serif" font-size="10.00" fill="#000000">Population::nfish</text>
</a>
</g>
</g>
<!-- Node80&#45;&gt;Node89 -->
<g id="edge22" class="edge">
<title>Node80&#45;&gt;Node89</title>
<path fill="none" stroke="#191970" d="M634.0478,-415.1748C658.4803,-410.0311 688.7605,-403.6563 714.4435,-398.2494"/>
<polygon fill="#191970" stroke="#191970" points="715.3393,-401.6376 724.4037,-396.1525 713.8972,-394.7877 715.3393,-401.6376"/>
</g>
<!-- Node84&#45;&gt;Node85 -->
<g id="edge16" class="edge">
<title>Node84&#45;&gt;Node85</title>
<path fill="none" stroke="#191970" d="M811.1412,-282.3528C833.3771,-287.4125 860.8482,-293.6634 884.3564,-299.0126"/>
<polygon fill="#191970" stroke="#191970" points="883.6345,-302.4377 894.1619,-301.2438 885.1877,-295.6122 883.6345,-302.4377"/>
</g>
<!-- Node86&#45;&gt;Node85 -->
<g id="edge18" class="edge">
<title>Node86&#45;&gt;Node85</title>
<path fill="none" stroke="#191970" d="M814.7842,-415.9573C823.1468,-413.3537 831.569,-410.0186 839,-405.7638 874.0583,-385.6902 905.6506,-349.9151 922.7046,-328.4592"/>
<polygon fill="#191970" stroke="#191970" points="925.528,-330.5297 928.8966,-320.4847 919.9991,-326.2366 925.528,-330.5297"/>
</g>
<!-- Node88 -->
<g id="node19" class="node">
<title>Node88</title>
<g id="a_node19"><a xlink:href="structpn_1_1BrentRes.html#a4fa42a440c4b9dc765ea7f0d7fd3a412" target="_top" xlink:title="pn::BrentRes::BrentRes">
<polygon fill="none" stroke="#000000" points="875,-453.2638 875,-472.2638 997,-472.2638 997,-453.2638 875,-453.2638"/>
<text text-anchor="middle" x="936" y="-460.2638" font-family="Helvetica,sans-Serif" font-size="10.00" fill="#000000">pn::BrentRes::BrentRes</text>
</a>
</g>
</g>
<!-- Node87&#45;&gt;Node88 -->
<g id="edge20" class="edge">
<title>Node87&#45;&gt;Node88</title>
<path fill="none" stroke="#191970" d="M795.0938,-462.7638C813.7993,-462.7638 839.9543,-462.7638 864.6585,-462.7638"/>
<polygon fill="#191970" stroke="#191970" points="864.7637,-466.2639 874.7636,-462.7638 864.7636,-459.2639 864.7637,-466.2639"/>
</g>
<!-- Node90&#45;&gt;Node75 -->
<g id="edge24" class="edge">
<title>Node90&#45;&gt;Node75</title>
<path fill="none" stroke="#191970" d="M440.6636,-296.3563C452.7846,-299.404 465.9917,-302.9755 478,-306.7638 504.6472,-315.1703 534.205,-326.5145 556.0406,-335.294"/>
<polygon fill="#191970" stroke="#191970" points="554.9092,-338.6121 565.4915,-339.1276 557.5404,-332.1254 554.9092,-338.6121"/>
</g>
<!-- Node90&#45;&gt;Node76 -->
<g id="edge27" class="edge">
<title>Node90&#45;&gt;Node76</title>
<path fill="none" stroke="#191970" d="M453.5893,-292.4603C462.6472,-295.5415 471.2671,-300.0913 478,-306.7638 522.7167,-351.0794 469.3222,-399.4089 514,-443.7638 520.6087,-450.3247 529.1483,-454.7207 538.0756,-457.6445"/>
<polygon fill="#191970" stroke="#191970" points="537.2759,-461.0538 547.8418,-460.2722 539.0946,-454.2941 537.2759,-461.0538"/>
</g>
<!-- Node90&#45;&gt;Node80 -->
<g id="edge28" class="edge">
<title>Node90&#45;&gt;Node80</title>
<path fill="none" stroke="#191970" d="M453.8367,-294.6159C462.4583,-297.4964 470.8657,-301.4209 478,-306.7638 503.1976,-325.6343 493.1142,-344.2097 514,-367.7638 528.5416,-384.1632 548.3843,-399.0735 563.9351,-409.5279"/>
<polygon fill="#191970" stroke="#191970" points="562.2383,-412.6002 572.5228,-415.1459 566.0705,-406.7423 562.2383,-412.6002"/>
</g>
<!-- Node90&#45;&gt;Node84 -->
<g id="edge26" class="edge">
<title>Node90&#45;&gt;Node84</title>
<path fill="none" stroke="#191970" d="M424.5854,-277.1857C447.5993,-269.1127 482.53,-258.1897 514,-253.7638 579.5769,-244.5411 597.038,-247.8988 663,-253.7638 680.2725,-255.2996 698.9432,-258.2165 715.7317,-261.3123"/>
<polygon fill="#191970" stroke="#191970" points="715.434,-264.8184 725.9124,-263.2522 716.7443,-257.9422 715.434,-264.8184"/>
</g>
<!-- Node91 -->
<g id="node22" class="node">
<title>Node91</title>
<g id="a_node22"><a xlink:href="classPopulation.html#a343a346cae1413da400c042868c15859" target="_top" xlink:title="Population::set_minSizeLimit">
<polygon fill="none" stroke="#000000" points="517,-263.2638 517,-282.2638 660,-282.2638 660,-263.2638 517,-263.2638"/>
<text text-anchor="middle" x="588.5" y="-270.2638" font-family="Helvetica,sans-Serif" font-size="10.00" fill="#000000">Population::set_minSizeLimit</text>
</a>
</g>
</g>
<!-- Node90&#45;&gt;Node91 -->
<g id="edge25" class="edge">
<title>Node90&#45;&gt;Node91</title>
<path fill="none" stroke="#191970" d="M453.557,-282.7332C470.0861,-281.5121 488.6185,-280.1429 506.5302,-278.8196"/>
<polygon fill="#191970" stroke="#191970" points="506.9765,-282.2963 516.6914,-278.0689 506.4607,-275.3153 506.9765,-282.2963"/>
</g>
<!-- Node93 -->
<g id="node24" class="node">
<title>Node93</title>
<g id="a_node24"><a xlink:href="classSimulator.html#a7540919b97662be7deacba9194c0ed60" target="_top" xlink:title="Simulator::simulate\l_multi">
<polygon fill="none" stroke="#000000" points="348.5,-441.7638 348.5,-471.7638 449.5,-471.7638 449.5,-441.7638 348.5,-441.7638"/>
<text text-anchor="start" x="356.5" y="-459.7638" font-family="Helvetica,sans-Serif" font-size="10.00" fill="#000000">Simulator::simulate</text>
<text text-anchor="middle" x="399" y="-448.7638" font-family="Helvetica,sans-Serif" font-size="10.00" fill="#000000">_multi</text>
</a>
</g>
</g>
<!-- Node92&#45;&gt;Node93 -->
<g id="edge30" class="edge">
<title>Node92&#45;&gt;Node93</title>
<path fill="none" stroke="#191970" d="M257.0989,-393.4012C266.2714,-396.6205 275.5885,-400.4085 284,-404.7638 301.7604,-413.9598 302.2141,-422.6172 320,-431.7638 325.9308,-434.8138 332.3043,-437.579 338.7657,-440.0625"/>
<polygon fill="#191970" stroke="#191970" points="337.6596,-443.3844 348.2539,-443.5 340.0441,-436.803 337.6596,-443.3844"/>
</g>
<!-- Node94 -->
<g id="node25" class="node">
<title>Node94</title>
<g id="a_node25"><a xlink:href="simulator_8cpp.html#a2a2aec343c151304395503fd8b1d6a78" target="_top" xlink:title="tensor2array">
<polygon fill="none" stroke="#000000" points="363.5,-365.2638 363.5,-384.2638 434.5,-384.2638 434.5,-365.2638 363.5,-365.2638"/>
<text text-anchor="middle" x="399" y="-372.2638" font-family="Helvetica,sans-Serif" font-size="10.00" fill="#000000">tensor2array</text>
</a>
</g>
</g>
<!-- Node92&#45;&gt;Node94 -->
<g id="edge36" class="edge">
<title>Node92&#45;&gt;Node94</title>
<path fill="none" stroke="#191970" d="M257.0771,-378.4501C286.8406,-377.677 324.1894,-376.7069 353.1014,-375.956"/>
<polygon fill="#191970" stroke="#191970" points="353.4361,-379.4486 363.3418,-375.69 353.2543,-372.4509 353.4361,-379.4486"/>
</g>
<!-- Node93&#45;&gt;Node73 -->
<g id="edge33" class="edge">
<title>Node93&#45;&gt;Node73</title>
<path fill="none" stroke="#191970" d="M449.7825,-468.555C476.9052,-474.8526 510.204,-482.5842 537.3779,-488.8938"/>
<polygon fill="#191970" stroke="#191970" points="536.9345,-492.3839 547.467,-491.2364 538.5178,-485.5652 536.9345,-492.3839"/>
</g>
<!-- Node93&#45;&gt;Node75 -->
<g id="edge31" class="edge">
<title>Node93&#45;&gt;Node75</title>
<path fill="none" stroke="#191970" d="M449.7208,-446.6333C459.7588,-443.0577 469.7343,-438.2415 478,-431.7638 502.1782,-412.8159 489.8709,-391.7741 514,-372.7638 519.3786,-368.5262 525.5263,-365.027 531.932,-362.1396"/>
<polygon fill="#191970" stroke="#191970" points="533.4591,-365.2984 541.442,-358.3324 530.8575,-358.7998 533.4591,-365.2984"/>
</g>
<!-- Node93&#45;&gt;Node76 -->
<g id="edge34" class="edge">
<title>Node93&#45;&gt;Node76</title>
<path fill="none" stroke="#191970" d="M449.7825,-458.3717C477.0024,-459.2335 510.4427,-460.2923 537.6699,-461.1544"/>
<polygon fill="#191970" stroke="#191970" points="537.669,-464.656 547.7748,-461.4743 537.8906,-457.6595 537.669,-464.656"/>
</g>
<!-- Node93&#45;&gt;Node80 -->
<g id="edge35" class="edge">
<title>Node93&#45;&gt;Node80</title>
<path fill="none" stroke="#191970" d="M449.7825,-448.1884C474.2693,-444.0534 503.79,-439.0684 529.293,-434.7618"/>
<polygon fill="#191970" stroke="#191970" points="529.9378,-438.2026 539.2154,-433.0863 528.7722,-431.3003 529.9378,-438.2026"/>
</g>
<!-- Node93&#45;&gt;Node84 -->
<g id="edge32" class="edge">
<title>Node93&#45;&gt;Node84</title>
<path fill="none" stroke="#191970" d="M449.6813,-443.3724C459.3056,-440.0955 469.1322,-436.2236 478,-431.7638 495.6322,-422.8961 496.1232,-414.1275 514,-405.7638 575.9022,-376.8029 610.1394,-411.0809 663,-367.7638 691.5988,-344.3283 670.7391,-316.6057 699,-292.7638 701.56,-290.6041 704.3401,-288.6772 707.2673,-286.958"/>
<polygon fill="#191970" stroke="#191970" points="709.0277,-289.9913 716.4171,-282.3988 705.9058,-283.7261 709.0277,-289.9913"/>
</g>
<!-- Node96 -->
<g id="node27" class="node">
<title>Node96</title>
<g id="a_node27"><a xlink:href="classTensor.html#a6c8465a488ce260e6e05f1a3ceb8ab26" target="_top" xlink:title="Tensor::avg_dim">
<polygon fill="none" stroke="#000000" points="354.5,-179.2638 354.5,-198.2638 443.5,-198.2638 443.5,-179.2638 354.5,-179.2638"/>
<text text-anchor="middle" x="399" y="-186.2638" font-family="Helvetica,sans-Serif" font-size="10.00" fill="#000000">Tensor::avg_dim</text>
</a>
</g>
</g>
<!-- Node95&#45;&gt;Node96 -->
<g id="edge38" class="edge">
<title>Node95&#45;&gt;Node96</title>
<path fill="none" stroke="#191970" d="M255.0669,-227.7117C284.3283,-218.6555 316.5944,-208.6974 320,-207.7638 328.7918,-205.3536 338.1793,-202.9494 347.3012,-200.7019"/>
<polygon fill="#191970" stroke="#191970" points="348.164,-204.0941 357.0547,-198.3316 346.511,-197.2921 348.164,-204.0941"/>
</g>
<!-- Node101 -->
<g id="node32" class="node">
<title>Node101</title>
<g id="a_node32"><a xlink:href="classTensor.html#a3986d7a50faef0249a8d2da5b1f67a89" target="_top" xlink:title="Tensor::transform">
<polygon fill="none" stroke="#000000" points="352,-217.2638 352,-236.2638 446,-236.2638 446,-217.2638 352,-217.2638"/>
<text text-anchor="middle" x="399" y="-224.2638" font-family="Helvetica,sans-Serif" font-size="10.00" fill="#000000">Tensor::transform</text>
</a>
</g>
</g>
<!-- Node95&#45;&gt;Node101 -->
<g id="edge43" class="edge">
<title>Node95&#45;&gt;Node101</title>
<path fill="none" stroke="#191970" d="M258.5933,-238.434C284.2492,-236.3015 315.2492,-233.7249 341.5874,-231.5358"/>
<polygon fill="#191970" stroke="#191970" points="342.1305,-235.0028 351.8062,-230.6864 341.5506,-228.0268 342.1305,-235.0028"/>
</g>
<!-- Node97 -->
<g id="node28" class="node">
<title>Node97</title>
<g id="a_node28"><a xlink:href="classTensor.html#a447f65c9ada7c9357091fba66ad73d10" target="_top" xlink:title="Tensor::accumulate">
<polygon fill="none" stroke="#000000" points="537,-111.2638 537,-130.2638 640,-130.2638 640,-111.2638 537,-111.2638"/>
<text text-anchor="middle" x="588.5" y="-118.2638" font-family="Helvetica,sans-Serif" font-size="10.00" fill="#000000">Tensor::accumulate</text>
</a>
</g>
</g>
<!-- Node96&#45;&gt;Node97 -->
<g id="edge39" class="edge">
<title>Node96&#45;&gt;Node97</title>
<path fill="none" stroke="#191970" d="M439.2991,-179.1499C452.0003,-175.432 465.8729,-170.6363 478,-164.7638 495.5322,-156.2739 496.2803,-147.8551 514,-139.7638 519.2894,-137.3485 524.9359,-135.2051 530.6648,-133.3109"/>
<polygon fill="#191970" stroke="#191970" points="531.7956,-136.6252 540.3354,-130.3544 529.7491,-129.931 531.7956,-136.6252"/>
</g>
<!-- Node98 -->
<g id="node29" class="node">
<title>Node98</title>
<g id="a_node29"><a xlink:href="classTensor.html#a862952dc137707abdccd06cf9cd5855b" target="_top" xlink:title="Tensor::plane">
<polygon fill="none" stroke="#000000" points="731,-168.2638 731,-187.2638 807,-187.2638 807,-168.2638 731,-168.2638"/>
<text text-anchor="middle" x="769" y="-175.2638" font-family="Helvetica,sans-Serif" font-size="10.00" fill="#000000">Tensor::plane</text>
</a>
</g>
</g>
<!-- Node97&#45;&gt;Node98 -->
<g id="edge40" class="edge">
<title>Node97&#45;&gt;Node98</title>
<path fill="none" stroke="#191970" d="M628.9043,-130.3279C640.0138,-133.1583 652.0232,-136.4047 663,-139.7638 687.2582,-147.1871 714.1597,-156.8486 734.7917,-164.5719"/>
<polygon fill="#191970" stroke="#191970" points="733.7858,-167.9331 744.3775,-168.1893 736.2573,-161.3839 733.7858,-167.9331"/>
</g>
<!-- Node100 -->
<g id="node31" class="node">
<title>Node100</title>
<g id="a_node31"><a xlink:href="classTensor.html#abbfd4d8d3390394254f1d42fcb845bd2" target="_top" xlink:title="Tensor::accumulate_dim">
<polygon fill="none" stroke="#000000" points="707,-111.2638 707,-130.2638 831,-130.2638 831,-111.2638 707,-111.2638"/>
<text text-anchor="middle" x="769" y="-118.2638" font-family="Helvetica,sans-Serif" font-size="10.00" fill="#000000">Tensor::accumulate_dim</text>
</a>
</g>
</g>
<!-- Node97&#45;&gt;Node100 -->
<g id="edge42" class="edge">
<title>Node97&#45;&gt;Node100</title>
<path fill="none" stroke="#191970" d="M640.2241,-120.7638C657.7966,-120.7638 677.7681,-120.7638 696.6504,-120.7638"/>
<polygon fill="#191970" stroke="#191970" points="696.7055,-124.2639 706.7054,-120.7638 696.7054,-117.2639 696.7055,-124.2639"/>
</g>
<!-- Node99 -->
<g id="node30" class="node">
<title>Node99</title>
<g id="a_node30"><a xlink:href="classTensor.html#a90a6b28226bcd1be7090fd2f8782d0b1" target="_top" xlink:title="Tensor::index">
<polygon fill="none" stroke="#000000" points="898,-168.2638 898,-187.2638 974,-187.2638 974,-168.2638 898,-168.2638"/>
<text text-anchor="middle" x="936" y="-175.2638" font-family="Helvetica,sans-Serif" font-size="10.00" fill="#000000">Tensor::index</text>
</a>
</g>
</g>
<!-- Node98&#45;&gt;Node99 -->
<g id="edge41" class="edge">
<title>Node98&#45;&gt;Node99</title>
<path fill="none" stroke="#191970" d="M807.3132,-177.7638C831.1806,-177.7638 862.0965,-177.7638 887.6438,-177.7638"/>
<polygon fill="#191970" stroke="#191970" points="887.8651,-181.2639 897.8651,-177.7638 887.8651,-174.2639 887.8651,-181.2639"/>
</g>
<!-- Node101&#45;&gt;Node98 -->
<g id="edge44" class="edge">
<title>Node101&#45;&gt;Node98</title>
<path fill="none" stroke="#191970" d="M446.2366,-220.5081C516.8905,-211.1513 649.3918,-193.6038 720.6749,-184.1636"/>
<polygon fill="#191970" stroke="#191970" points="721.2793,-187.6142 730.7332,-182.8316 720.3603,-180.6748 721.2793,-187.6142"/>
</g>
<!-- Node102 -->
<g id="node33" class="node">
<title>Node102</title>
<g id="a_node33"><a xlink:href="classTensor.html#a1a9aea97717d687b7d501842efb546d4" target="_top" xlink:title="Tensor::transform_dim">
<polygon fill="none" stroke="#000000" points="531,-149.2638 531,-168.2638 646,-168.2638 646,-149.2638 531,-149.2638"/>
<text text-anchor="middle" x="588.5" y="-156.2638" font-family="Helvetica,sans-Serif" font-size="10.00" fill="#000000">Tensor::transform_dim</text>
</a>
</g>
</g>
<!-- Node101&#45;&gt;Node102 -->
<g id="edge45" class="edge">
<title>Node101&#45;&gt;Node102</title>
<path fill="none" stroke="#191970" d="M446.3212,-218.4046C456.9927,-215.6974 468.0888,-212.2078 478,-207.7638 495.7747,-199.794 496.5393,-191.3999 514,-182.7638 522.7688,-178.4267 532.4975,-174.631 541.9527,-171.4151"/>
<polygon fill="#191970" stroke="#191970" points="543.2187,-174.6842 551.6553,-168.2753 541.0634,-168.0242 543.2187,-174.6842"/>
</g>
<!-- Node103&#45;&gt;Node96 -->
<g id="edge47" class="edge">
<title>Node103&#45;&gt;Node96</title>
<path fill="none" stroke="#191970" d="M263.7352,-157.8461C290.2498,-163.9066 321.5193,-171.0539 347.3109,-176.9491"/>
<polygon fill="#191970" stroke="#191970" points="346.7399,-180.4088 357.2684,-179.2251 348.2997,-173.5848 346.7399,-180.4088"/>
</g>
<!-- Node103&#45;&gt;Node97 -->
<g id="edge51" class="edge">
<title>Node103&#45;&gt;Node97</title>
<path fill="none" stroke="#191970" d="M263.7558,-142.877C318.738,-140.8631 404.1128,-137.2068 478,-131.7638 493.7719,-130.6019 510.7821,-129.0552 526.6175,-127.4896"/>
<polygon fill="#191970" stroke="#191970" points="527.2299,-130.9457 536.8291,-126.4619 526.5289,-123.9809 527.2299,-130.9457"/>
</g>
<!-- Node103&#45;&gt;Node101 -->
<g id="edge48" class="edge">
<title>Node103&#45;&gt;Node101</title>
<path fill="none" stroke="#191970" d="M263.5,-158.5894C270.6652,-161.4177 277.6864,-164.7804 284,-168.7638 303.9502,-181.3508 299.6555,-195.8245 320,-207.7638 326.7579,-211.7297 334.3025,-214.8691 341.9742,-217.3539"/>
<polygon fill="#191970" stroke="#191970" points="341.1316,-220.7536 351.71,-220.1643 343.073,-214.0281 341.1316,-220.7536"/>
</g>
<!-- Node104 -->
<g id="node35" class="node">
<title>Node104</title>
<g id="a_node35"><a xlink:href="classTensor.html#ae4622cf6280102eb5103cfe4c88c1ad8" target="_top" xlink:title="Tensor::repeat_inner">
<polygon fill="none" stroke="#000000" points="346,-103.2638 346,-122.2638 452,-122.2638 452,-103.2638 346,-103.2638"/>
<text text-anchor="middle" x="399" y="-110.2638" font-family="Helvetica,sans-Serif" font-size="10.00" fill="#000000">Tensor::repeat_inner</text>
</a>
</g>
</g>
<!-- Node103&#45;&gt;Node104 -->
<g id="edge49" class="edge">
<title>Node103&#45;&gt;Node104</title>
<path fill="none" stroke="#191970" d="M263.7352,-135.2494C286.4224,-131.478 312.5908,-127.1279 335.83,-123.2648"/>
<polygon fill="#191970" stroke="#191970" points="336.6431,-126.6777 345.9338,-121.5852 335.4952,-119.7725 336.6431,-126.6777"/>
</g>
<!-- Node105 -->
<g id="node36" class="node">
<title>Node105</title>
<g id="a_node36"><a xlink:href="classTensor.html#aedee003837348391c5f8d0bc788bf20f" target="_top" xlink:title="Tensor::repeat_outer">
<polygon fill="none" stroke="#000000" points="345.5,-65.2638 345.5,-84.2638 452.5,-84.2638 452.5,-65.2638 345.5,-65.2638"/>
<text text-anchor="middle" x="399" y="-72.2638" font-family="Helvetica,sans-Serif" font-size="10.00" fill="#000000">Tensor::repeat_outer</text>
</a>
</g>
</g>
<!-- Node103&#45;&gt;Node105 -->
<g id="edge50" class="edge">
<title>Node103&#45;&gt;Node105</title>
<path fill="none" stroke="#191970" d="M260.7401,-129.6803C268.7061,-126.7775 276.6847,-123.4683 284,-119.7638 301.6075,-110.8472 302.0664,-102.0049 320,-93.7638 325.3374,-91.3111 331.0286,-89.1536 336.8173,-87.2601"/>
<polygon fill="#191970" stroke="#191970" points="338.0372,-90.5482 346.6061,-84.3174 336.0219,-83.8446 338.0372,-90.5482"/>
</g>
<!-- Node106 -->
<g id="node37" class="node">
<title>Node106</title>
<g id="a_node37"><a xlink:href="classTensor.html#abf7346c2dbd5e6b195cfe9b66e5049e8" target="_top" xlink:title="Tensor::max_dim">
<polygon fill="none" stroke="#000000" points="353,-27.2638 353,-46.2638 445,-46.2638 445,-27.2638 353,-27.2638"/>
<text text-anchor="middle" x="399" y="-34.2638" font-family="Helvetica,sans-Serif" font-size="10.00" fill="#000000">Tensor::max_dim</text>
</a>
</g>
</g>
<!-- Node103&#45;&gt;Node106 -->
<g id="edge52" class="edge">
<title>Node103&#45;&gt;Node106</title>
<path fill="none" stroke="#191970" d="M263.671,-131.8304C270.9687,-128.645 277.9795,-124.6846 284,-119.7638 309.269,-99.1104 293.9644,-75.442 320,-55.7638 326.7944,-50.6285 334.778,-46.8586 343.012,-44.0958"/>
<polygon fill="#191970" stroke="#191970" points="344.0969,-47.4256 352.7368,-41.2935 342.1586,-40.6993 344.0969,-47.4256"/>
</g>
<!-- Node106&#45;&gt;Node97 -->
<g id="edge53" class="edge">
<title>Node106&#45;&gt;Node97</title>
<path fill="none" stroke="#191970" d="M445.2549,-45.4669C456.1883,-48.1831 467.667,-51.5902 478,-55.7638 510.684,-68.9653 545.2197,-90.71 566.8068,-105.3748"/>
<polygon fill="#191970" stroke="#191970" points="565.0037,-108.3829 575.2225,-111.1806 568.9788,-102.621 565.0037,-108.3829"/>
</g>
<!-- Node107&#45;&gt;Node94 -->
<g id="edge61" class="edge">
<title>Node107&#45;&gt;Node94</title>
<path fill="none" stroke="#191970" d="M257.0771,-342.3243C286.9711,-349.1572 324.5172,-357.7392 353.4813,-364.3595"/>
<polygon fill="#191970" stroke="#191970" points="352.8133,-367.797 363.3418,-366.6134 354.3731,-360.973 352.8133,-367.797"/>
</g>
<!-- Node108 -->
<g id="node39" class="node">
<title>Node108</title>
<g id="a_node39"><a xlink:href="classSimulator.html#ab21d1c6b0af00931f9a8fa5e0b6d417f" target="_top" xlink:title="Simulator::simulate\l_multi_2d">
<polygon fill="none" stroke="#000000" points="348.5,-315.7638 348.5,-345.7638 449.5,-345.7638 449.5,-315.7638 348.5,-315.7638"/>
<text text-anchor="start" x="356.5" y="-333.7638" font-family="Helvetica,sans-Serif" font-size="10.00" fill="#000000">Simulator::simulate</text>
<text text-anchor="middle" x="399" y="-322.7638" font-family="Helvetica,sans-Serif" font-size="10.00" fill="#000000">_multi_2d</text>
</a>
</g>
</g>
<!-- Node107&#45;&gt;Node108 -->
<g id="edge55" class="edge">
<title>Node107&#45;&gt;Node108</title>
<path fill="none" stroke="#191970" d="M257.0771,-330.7638C281.9574,-330.7638 312.1384,-330.7638 338.2606,-330.7638"/>
<polygon fill="#191970" stroke="#191970" points="338.4269,-334.2639 348.4268,-330.7638 338.4268,-327.2639 338.4269,-334.2639"/>
</g>
<!-- Node108&#45;&gt;Node75 -->
<g id="edge56" class="edge">
<title>Node108&#45;&gt;Node75</title>
<path fill="none" stroke="#191970" d="M449.7825,-335.5875C467.7898,-337.2979 488.5194,-339.267 508.3715,-341.1527"/>
<polygon fill="#191970" stroke="#191970" points="508.0549,-344.6382 518.3411,-342.0996 508.7169,-337.6696 508.0549,-344.6382"/>
</g>
<!-- Node108&#45;&gt;Node76 -->
<g id="edge59" class="edge">
<title>Node108&#45;&gt;Node76</title>
<path fill="none" stroke="#191970" d="M449.7314,-339.6201C459.999,-343.2803 470.0652,-348.4531 478,-355.7638 509.0777,-384.3969 482.1221,-416.0243 514,-443.7638 520.8039,-449.6845 529.2064,-453.8033 537.8895,-456.6591"/>
<polygon fill="#191970" stroke="#191970" points="537.1714,-460.0916 547.7419,-459.3753 539.0318,-453.3434 537.1714,-460.0916"/>
</g>
<!-- Node108&#45;&gt;Node80 -->
<g id="edge60" class="edge">
<title>Node108&#45;&gt;Node80</title>
<path fill="none" stroke="#191970" d="M449.8686,-344.7777C459.3804,-347.9799 469.1178,-351.6651 478,-355.7638 510.7035,-370.855 545.4796,-393.8716 567.0944,-409.1135"/>
<polygon fill="#191970" stroke="#191970" points="565.3362,-412.1588 575.5076,-415.124 569.4053,-406.463 565.3362,-412.1588"/>
</g>
<!-- Node108&#45;&gt;Node84 -->
<g id="edge58" class="edge">
<title>Node108&#45;&gt;Node84</title>
<path fill="none" stroke="#191970" d="M449.6822,-323.7476C502.8835,-316.2725 588.9271,-303.8708 663,-291.7638 677.4669,-289.3992 693.0154,-286.7008 707.6258,-284.0948"/>
<polygon fill="#191970" stroke="#191970" points="708.3417,-287.5223 717.566,-282.3107 707.105,-280.6324 708.3417,-287.5223"/>
</g>
<!-- Node108&#45;&gt;Node91 -->
<g id="edge57" class="edge">
<title>Node108&#45;&gt;Node91</title>
<path fill="none" stroke="#191970" d="M448.2942,-315.6764C479.0969,-306.2486 518.2995,-294.25 547.4151,-285.3386"/>
<polygon fill="#191970" stroke="#191970" points="548.7249,-288.5981 557.2627,-282.3246 546.6762,-281.9046 548.7249,-288.5981"/>
</g>
<!-- Node109&#45;&gt;Node96 -->
<g id="edge63" class="edge">
<title>Node109&#45;&gt;Node96</title>
<path fill="none" stroke="#191970" d="M258.5933,-192.4107C285.1526,-191.7209 317.439,-190.8823 344.3519,-190.1832"/>
<polygon fill="#191970" stroke="#191970" points="344.4745,-193.6813 354.3802,-189.9228 344.2927,-186.6837 344.4745,-193.6813"/>
</g>
<!-- Node109&#45;&gt;Node101 -->
<g id="edge64" class="edge">
<title>Node109&#45;&gt;Node101</title>
<path fill="none" stroke="#191970" d="M258.5933,-202.6941C284.3627,-207.1117 315.5237,-212.4536 341.9367,-216.9815"/>
<polygon fill="#191970" stroke="#191970" points="341.3586,-220.4334 351.8062,-218.6734 342.5414,-213.534 341.3586,-220.4334"/>
</g>
<!-- Node110&#45;&gt;Node96 -->
<g id="edge66" class="edge">
<title>Node110&#45;&gt;Node96</title>
<path fill="none" stroke="#191970" d="M260.8975,-110.7847C268.7626,-113.4802 276.6704,-116.4874 284,-119.7638 318.0017,-134.9629 354.4116,-158.1078 376.9448,-173.3343"/>
<polygon fill="#191970" stroke="#191970" points="375.1958,-176.3784 385.4256,-179.1355 379.1479,-170.6008 375.1958,-176.3784"/>
</g>
<!-- Node110&#45;&gt;Node97 -->
<g id="edge70" class="edge">
<title>Node110&#45;&gt;Node97</title>
<path fill="none" stroke="#191970" d="M221.7459,-80.6792C242.113,-61.7006 280.2687,-30.0999 320,-17.7638 387.064,3.0587 412.6613,7.9659 478,-17.7638 521.4916,-34.8904 557.9851,-78.0948 576.1439,-102.7642"/>
<polygon fill="#191970" stroke="#191970" points="573.5219,-105.1151 582.1821,-111.2184 579.2182,-101.0466 573.5219,-105.1151"/>
</g>
<!-- Node110&#45;&gt;Node101 -->
<g id="edge67" class="edge">
<title>Node110&#45;&gt;Node101</title>
<path fill="none" stroke="#191970" d="M263.845,-107.0674C271.2018,-110.2924 278.1826,-114.4371 284,-119.7638 315.1659,-148.3009 287.933,-180.2431 320,-207.7638 326.3166,-213.1848 333.9185,-217.1163 341.8776,-219.9567"/>
<polygon fill="#191970" stroke="#191970" points="341.1165,-223.3826 351.7007,-222.9073 343.1302,-216.6785 341.1165,-223.3826"/>
</g>
<!-- Node110&#45;&gt;Node104 -->
<g id="edge68" class="edge">
<title>Node110&#45;&gt;Node104</title>
<path fill="none" stroke="#191970" d="M263.7352,-100.8183C286.4224,-102.8219 312.5908,-105.1329 335.83,-107.1852"/>
<polygon fill="#191970" stroke="#191970" points="335.6646,-110.6841 345.9338,-108.0774 336.2805,-103.7112 335.6646,-110.6841"/>
</g>
<!-- Node110&#45;&gt;Node105 -->
<g id="edge69" class="edge">
<title>Node110&#45;&gt;Node105</title>
<path fill="none" stroke="#191970" d="M263.7352,-89.52C286.2293,-87.0661 312.1456,-84.2388 335.236,-81.7199"/>
<polygon fill="#191970" stroke="#191970" points="335.7196,-85.188 345.2811,-80.624 334.9604,-78.2293 335.7196,-85.188"/>
</g>
<!-- Node110&#45;&gt;Node106 -->
<g id="edge71" class="edge">
<title>Node110&#45;&gt;Node106</title>
<path fill="none" stroke="#191970" d="M246.0934,-80.6845C267.7501,-72.7224 295.1558,-63.1081 320,-55.7638 328.3544,-53.2941 337.2755,-50.9103 346.0038,-48.7146"/>
<polygon fill="#191970" stroke="#191970" points="346.8611,-52.1081 355.7358,-46.3209 345.1892,-45.3107 346.8611,-52.1081"/>
</g>
</g>
</svg>
