<?xml version="1.0" encoding="UTF-8" standalone="no"?>
<!DOCTYPE svg PUBLIC "-//W3C//DTD SVG 1.1//EN"
 "http://www.w3.org/Graphics/SVG/1.1/DTD/svg11.dtd">
<!-- Generated by graphviz version 2.40.1 (20161225.0304)
 -->
<!-- Title: RCPP_MODULE Pages: 1 -->
<svg width="894pt" height="474pt"
 viewBox="0.00 0.00 894.00 473.71" xmlns="http://www.w3.org/2000/svg" xmlns:xlink="http://www.w3.org/1999/xlink">
<g id="graph0" class="graph" transform="scale(1 1) rotate(0) translate(4 469.7053)">
<title>RCPP_MODULE</title>
<!-- Node49 -->
<g id="node1" class="node">
<title>Node49</title>
<polygon fill="#bfbfbf" stroke="#000000" points="0,-258.2053 0,-277.2053 93,-277.2053 93,-258.2053 0,-258.2053"/>
<text text-anchor="middle" x="46.5" y="-265.2053" font-family="Helvetica,sans-Serif" font-size="10.00" fill="#000000">RCPP_MODULE</text>
</g>
<!-- Node50 -->
<g id="node2" class="node">
<title>Node50</title>
<g id="a_node2"><a xlink:href="classSimulator.html#a1e385d56b6ae6694463f127b5f1d98d5" target="_top" xlink:title="Simulator::setNaturalPopulation">
<polygon fill="none" stroke="#000000" points="129,-414.2053 129,-433.2053 284,-433.2053 284,-414.2053 129,-414.2053"/>
<text text-anchor="middle" x="206.5" y="-421.2053" font-family="Helvetica,sans-Serif" font-size="10.00" fill="#000000">Simulator::setNaturalPopulation</text>
</a>
</g>
</g>
<!-- Node49&#45;&gt;Node50 -->
<g id="edge1" class="edge">
<title>Node49&#45;&gt;Node50</title>
<path fill="none" stroke="#191970" d="M49.4409,-277.4618C57.5874,-302.7496 82.9405,-370.7975 129,-404.7053 131.5398,-406.575 134.2407,-408.2625 137.0541,-409.7853"/>
<polygon fill="#191970" stroke="#191970" points="135.8184,-413.0704 146.3622,-414.1099 138.7679,-406.7222 135.8184,-413.0704"/>
</g>
<!-- Node51 -->
<g id="node3" class="node">
<title>Node51</title>
<g id="a_node3"><a xlink:href="classSimulator.html#a16eef6e60e97dabc2a1205b58b10182c" target="_top" xlink:title="Simulator::simulate_r">
<polygon fill="none" stroke="#000000" points="152,-376.2053 152,-395.2053 261,-395.2053 261,-376.2053 152,-376.2053"/>
<text text-anchor="middle" x="206.5" y="-383.2053" font-family="Helvetica,sans-Serif" font-size="10.00" fill="#000000">Simulator::simulate_r</text>
</a>
</g>
</g>
<!-- Node49&#45;&gt;Node51 -->
<g id="edge2" class="edge">
<title>Node49&#45;&gt;Node51</title>
<path fill="none" stroke="#191970" d="M51.6693,-277.3367C62.9136,-297.3185 91.616,-343.3591 129,-366.7053 133.1163,-369.2759 137.5572,-371.4988 142.1568,-373.4209"/>
<polygon fill="#191970" stroke="#191970" points="141.1746,-376.7889 151.7681,-376.9591 143.5929,-370.2199 141.1746,-376.7889"/>
</g>
<!-- Node60 -->
<g id="node12" class="node">
<title>Node60</title>
<g id="a_node12"><a xlink:href="classSimulator.html#a3e61a52f336d592216770c0c43cfd388" target="_top" xlink:title="Simulator::simulate\l_multi">
<polygon fill="none" stroke="#000000" points="156,-277.7053 156,-307.7053 257,-307.7053 257,-277.7053 156,-277.7053"/>
<text text-anchor="start" x="164" y="-295.7053" font-family="Helvetica,sans-Serif" font-size="10.00" fill="#000000">Simulator::simulate</text>
<text text-anchor="middle" x="206.5" y="-284.7053" font-family="Helvetica,sans-Serif" font-size="10.00" fill="#000000">_multi</text>
</a>
</g>
</g>
<!-- Node49&#45;&gt;Node60 -->
<g id="edge11" class="edge">
<title>Node49&#45;&gt;Node60</title>
<path fill="none" stroke="#191970" d="M93.2087,-275.0036C109.6323,-277.5697 128.3341,-280.4919 145.7435,-283.2121"/>
<polygon fill="#191970" stroke="#191970" points="145.397,-286.7004 155.8175,-284.7862 146.4777,-279.7843 145.397,-286.7004"/>
</g>
<!-- Node61 -->
<g id="node13" class="node">
<title>Node61</title>
<g id="a_node13"><a xlink:href="classSimulator.html#addbc3da16a6f9c352eefbdc423419bca" target="_top" xlink:title="Simulator::max_avg\l_utils">
<polygon fill="none" stroke="#000000" points="154.5,-228.7053 154.5,-258.7053 258.5,-258.7053 258.5,-228.7053 154.5,-228.7053"/>
<text text-anchor="start" x="162.5" y="-246.7053" font-family="Helvetica,sans-Serif" font-size="10.00" fill="#000000">Simulator::max_avg</text>
<text text-anchor="middle" x="206.5" y="-235.7053" font-family="Helvetica,sans-Serif" font-size="10.00" fill="#000000">_utils</text>
</a>
</g>
</g>
<!-- Node49&#45;&gt;Node61 -->
<g id="edge17" class="edge">
<title>Node49&#45;&gt;Node61</title>
<path fill="none" stroke="#191970" d="M93.2087,-260.699C109.0968,-258.3158 127.1172,-255.6127 144.0368,-253.0748"/>
<polygon fill="#191970" stroke="#191970" points="145.0304,-256.465 154.4005,-251.5202 143.992,-249.5424 145.0304,-256.465"/>
</g>
<!-- Node69 -->
<g id="node21" class="node">
<title>Node69</title>
<g id="a_node21"><a xlink:href="classSimulator.html#a1b66b7260ff50758884d1f7361a1b988" target="_top" xlink:title="Simulator::stakeholder\l_satisfaction">
<polygon fill="none" stroke="#000000" points="149.5,-81.7053 149.5,-111.7053 263.5,-111.7053 263.5,-81.7053 149.5,-81.7053"/>
<text text-anchor="start" x="157.5" y="-99.7053" font-family="Helvetica,sans-Serif" font-size="10.00" fill="#000000">Simulator::stakeholder</text>
<text text-anchor="middle" x="206.5" y="-88.7053" font-family="Helvetica,sans-Serif" font-size="10.00" fill="#000000">_satisfaction</text>
</a>
</g>
</g>
<!-- Node49&#45;&gt;Node69 -->
<g id="edge26" class="edge">
<title>Node49&#45;&gt;Node69</title>
<path fill="none" stroke="#191970" d="M49.1208,-258.1755C56.7853,-232.0989 81.6617,-158.9737 129,-120.7053 132.4829,-117.8897 136.2963,-115.4033 140.3042,-113.2077"/>
<polygon fill="#191970" stroke="#191970" points="141.8502,-116.3479 149.3364,-108.8509 138.8089,-110.0431 141.8502,-116.3479"/>
</g>
<!-- Node73 -->
<g id="node25" class="node">
<title>Node73</title>
<g id="a_node25"><a xlink:href="classSimulator.html#a636e7a83b462c3e48769a85ae350e742" target="_top" xlink:title="Simulator::simulate\l_multi_2d">
<polygon fill="none" stroke="#000000" points="156,-326.7053 156,-356.7053 257,-356.7053 257,-326.7053 156,-326.7053"/>
<text text-anchor="start" x="164" y="-344.7053" font-family="Helvetica,sans-Serif" font-size="10.00" fill="#000000">Simulator::simulate</text>
<text text-anchor="middle" x="206.5" y="-333.7053" font-family="Helvetica,sans-Serif" font-size="10.00" fill="#000000">_multi_2d</text>
</a>
</g>
</g>
<!-- Node49&#45;&gt;Node73 -->
<g id="edge34" class="edge">
<title>Node49&#45;&gt;Node73</title>
<path fill="none" stroke="#191970" d="M59.9467,-277.2774C75.8279,-288.2387 103.3384,-306.1658 129,-317.7053 134.4315,-320.1478 140.183,-322.4381 146.0005,-324.5599"/>
<polygon fill="#191970" stroke="#191970" points="145.2137,-327.9918 155.8085,-327.9689 147.5118,-321.3798 145.2137,-327.9918"/>
</g>
<!-- Node74 -->
<g id="node26" class="node">
<title>Node74</title>
<g id="a_node26"><a xlink:href="classSimulator.html#a32eeba843e7526dceb75a2c6aebe240e" target="_top" xlink:title="Simulator::max_avg\l_utils_2d">
<polygon fill="none" stroke="#000000" points="154.5,-179.7053 154.5,-209.7053 258.5,-209.7053 258.5,-179.7053 154.5,-179.7053"/>
<text text-anchor="start" x="162.5" y="-197.7053" font-family="Helvetica,sans-Serif" font-size="10.00" fill="#000000">Simulator::max_avg</text>
<text text-anchor="middle" x="206.5" y="-186.7053" font-family="Helvetica,sans-Serif" font-size="10.00" fill="#000000">_utils_2d</text>
</a>
</g>
</g>
<!-- Node49&#45;&gt;Node74 -->
<g id="edge41" class="edge">
<title>Node49&#45;&gt;Node74</title>
<path fill="none" stroke="#191970" d="M60.8965,-258.0432C76.9749,-247.5627 104.0289,-230.8415 129,-219.7053 134.084,-217.438 139.4375,-215.2768 144.8574,-213.2426"/>
<polygon fill="#191970" stroke="#191970" points="146.4161,-216.4015 154.6408,-209.7227 144.0464,-209.8148 146.4161,-216.4015"/>
</g>
<!-- Node75 -->
<g id="node27" class="node">
<title>Node75</title>
<g id="a_node27"><a xlink:href="classSimulator.html#aac842e5498b4c9731910ce9a93fa555d" target="_top" xlink:title="Simulator::stakeholder\l_satisfaction_2d">
<polygon fill="none" stroke="#000000" points="149.5,-130.7053 149.5,-160.7053 263.5,-160.7053 263.5,-130.7053 149.5,-130.7053"/>
<text text-anchor="start" x="157.5" y="-148.7053" font-family="Helvetica,sans-Serif" font-size="10.00" fill="#000000">Simulator::stakeholder</text>
<text text-anchor="middle" x="206.5" y="-137.7053" font-family="Helvetica,sans-Serif" font-size="10.00" fill="#000000">_satisfaction_2d</text>
</a>
</g>
</g>
<!-- Node49&#45;&gt;Node75 -->
<g id="edge44" class="edge">
<title>Node49&#45;&gt;Node75</title>
<path fill="none" stroke="#191970" d="M51.985,-258.0497C63.6125,-238.4459 92.6746,-193.8008 129,-169.7053 132.4993,-167.3841 136.2346,-165.2781 140.1035,-163.3686"/>
<polygon fill="#191970" stroke="#191970" points="141.6146,-166.5271 149.3252,-159.2609 138.7663,-160.1327 141.6146,-166.5271"/>
</g>
<!-- Node52 -->
<g id="node4" class="node">
<title>Node52</title>
<g id="a_node4"><a xlink:href="classPopulation.html#a20696fa511c914e7c8837acb2a254b33" target="_top" xlink:title="Population::set_harvestProp">
<polygon fill="none" stroke="#000000" points="321.5,-408.2053 321.5,-427.2053 461.5,-427.2053 461.5,-408.2053 321.5,-408.2053"/>
<text text-anchor="middle" x="391.5" y="-415.2053" font-family="Helvetica,sans-Serif" font-size="10.00" fill="#000000">Population::set_harvestProp</text>
</a>
</g>
</g>
<!-- Node51&#45;&gt;Node52 -->
<g id="edge3" class="edge">
<title>Node51&#45;&gt;Node52</title>
<path fill="none" stroke="#191970" d="M261.0055,-395.1333C281.524,-398.6824 305.0613,-402.7538 326.4465,-406.4528"/>
<polygon fill="#191970" stroke="#191970" points="325.9742,-409.923 336.4244,-408.1787 327.1673,-403.0254 325.9742,-409.923"/>
</g>
<!-- Node53 -->
<g id="node5" class="node">
<title>Node53</title>
<g id="a_node5"><a xlink:href="classPopulation.html#a343a346cae1413da400c042868c15859" target="_top" xlink:title="Population::set_minSizeLimit">
<polygon fill="none" stroke="#000000" points="320,-446.2053 320,-465.2053 463,-465.2053 463,-446.2053 320,-446.2053"/>
<text text-anchor="middle" x="391.5" y="-453.2053" font-family="Helvetica,sans-Serif" font-size="10.00" fill="#000000">Population::set_minSizeLimit</text>
</a>
</g>
</g>
<!-- Node51&#45;&gt;Node53 -->
<g id="edge4" class="edge">
<title>Node51&#45;&gt;Node53</title>
<path fill="none" stroke="#191970" d="M260.2827,-395.2679C268.4742,-397.7444 276.6409,-400.841 284,-404.7053 302.9531,-414.6577 301.1439,-426.5703 320,-436.7053 324.2319,-438.9799 328.7537,-440.9955 333.3902,-442.7791"/>
<polygon fill="#191970" stroke="#191970" points="332.4176,-446.1464 343.0124,-446.1232 334.7156,-439.5343 332.4176,-446.1464"/>
</g>
<!-- Node54 -->
<g id="node6" class="node">
<title>Node54</title>
<g id="a_node6"><a xlink:href="classPopulation.html#a42c4b04852bdda937e50f82952106af1" target="_top" xlink:title="Population::fishableBiomass">
<polygon fill="none" stroke="#000000" points="321.5,-370.2053 321.5,-389.2053 461.5,-389.2053 461.5,-370.2053 321.5,-370.2053"/>
<text text-anchor="middle" x="391.5" y="-377.2053" font-family="Helvetica,sans-Serif" font-size="10.00" fill="#000000">Population::fishableBiomass</text>
</a>
</g>
</g>
<!-- Node51&#45;&gt;Node54 -->
<g id="edge5" class="edge">
<title>Node51&#45;&gt;Node54</title>
<path fill="none" stroke="#191970" d="M261.0055,-383.9376C276.6282,-383.4309 294.0011,-382.8674 310.8415,-382.3213"/>
<polygon fill="#191970" stroke="#191970" points="311.3567,-385.8065 321.2379,-381.9841 311.1297,-378.8102 311.3567,-385.8065"/>
</g>
<!-- Node55 -->
<g id="node7" class="node">
<title>Node55</title>
<g id="a_node7"><a xlink:href="classPopulation.html#a5440cd360f9b6af954085b442327633b" target="_top" xlink:title="Population::init">
<polygon fill="none" stroke="#000000" points="351,-332.2053 351,-351.2053 432,-351.2053 432,-332.2053 351,-332.2053"/>
<text text-anchor="middle" x="391.5" y="-339.2053" font-family="Helvetica,sans-Serif" font-size="10.00" fill="#000000">Population::init</text>
</a>
</g>
</g>
<!-- Node51&#45;&gt;Node55 -->
<g id="edge6" class="edge">
<title>Node51&#45;&gt;Node55</title>
<path fill="none" stroke="#191970" d="M246.6422,-376.158C274.5214,-369.5273 311.862,-360.6462 341.6487,-353.5618"/>
<polygon fill="#191970" stroke="#191970" points="342.5173,-356.953 351.4361,-351.234 340.8976,-350.1429 342.5173,-356.953"/>
</g>
<!-- Node56 -->
<g id="node8" class="node">
<title>Node56</title>
<g id="a_node8"><a xlink:href="classPopulation.html#a345497aa32fe22f73153a59f469c6a19" target="_top" xlink:title="Population::print_summary">
<polygon fill="none" stroke="#000000" points="325,-294.2053 325,-313.2053 458,-313.2053 458,-294.2053 325,-294.2053"/>
<text text-anchor="middle" x="391.5" y="-301.2053" font-family="Helvetica,sans-Serif" font-size="10.00" fill="#000000">Population::print_summary</text>
</a>
</g>
</g>
<!-- Node51&#45;&gt;Node56 -->
<g id="edge7" class="edge">
<title>Node51&#45;&gt;Node56</title>
<path fill="none" stroke="#191970" d="M261.2667,-377.0145C269.2439,-374.4258 277.0869,-371.0659 284,-366.7053 305.3707,-353.2252 298.7605,-336.3912 320,-322.7053 323.3065,-320.5747 326.8451,-318.682 330.513,-317.0007"/>
<polygon fill="#191970" stroke="#191970" points="331.8718,-320.2268 339.8382,-313.2419 329.2548,-313.7343 331.8718,-320.2268"/>
</g>
<!-- Node57 -->
<g id="node9" class="node">
<title>Node57</title>
<g id="a_node9"><a xlink:href="classPopulation.html#aa404f725dcde475806cdb26704b9fbcf" target="_top" xlink:title="Population::update">
<polygon fill="none" stroke="#000000" points="342.5,-256.2053 342.5,-275.2053 440.5,-275.2053 440.5,-256.2053 342.5,-256.2053"/>
<text text-anchor="middle" x="391.5" y="-263.2053" font-family="Helvetica,sans-Serif" font-size="10.00" fill="#000000">Population::update</text>
</a>
</g>
</g>
<!-- Node51&#45;&gt;Node57 -->
<g id="edge8" class="edge">
<title>Node51&#45;&gt;Node57</title>
<path fill="none" stroke="#191970" d="M261.235,-379.0277C269.4873,-376.1937 277.4239,-372.2304 284,-366.7053 314.4739,-341.1018 289.7747,-310.6018 320,-284.7053 323.9228,-281.3443 328.3777,-278.5705 333.1008,-276.2821"/>
<polygon fill="#191970" stroke="#191970" points="334.5185,-279.4838 342.4447,-272.4534 331.8643,-273.0064 334.5185,-279.4838"/>
</g>
<!-- Node58 -->
<g id="node10" class="node">
<title>Node58</title>
<g id="a_node10"><a xlink:href="namespacepn.html#ad42003887dcc42a4758c69775f83a8d9" target="_top" xlink:title="pn::zero">
<polygon fill="none" stroke="#000000" points="530.5,-256.2053 530.5,-275.2053 582.5,-275.2053 582.5,-256.2053 530.5,-256.2053"/>
<text text-anchor="middle" x="556.5" y="-263.2053" font-family="Helvetica,sans-Serif" font-size="10.00" fill="#000000">pn::zero</text>
</a>
</g>
</g>
<!-- Node57&#45;&gt;Node58 -->
<g id="edge9" class="edge">
<title>Node57&#45;&gt;Node58</title>
<path fill="none" stroke="#191970" d="M440.5587,-265.7053C466.0961,-265.7053 496.7794,-265.7053 520.1647,-265.7053"/>
<polygon fill="#191970" stroke="#191970" points="520.351,-269.2054 530.351,-265.7053 520.351,-262.2054 520.351,-269.2054"/>
</g>
<!-- Node59 -->
<g id="node11" class="node">
<title>Node59</title>
<g id="a_node11"><a xlink:href="structpn_1_1BrentRes.html#a4fa42a440c4b9dc765ea7f0d7fd3a412" target="_top" xlink:title="pn::BrentRes::BrentRes">
<polygon fill="none" stroke="#000000" points="651,-256.2053 651,-275.2053 773,-275.2053 773,-256.2053 651,-256.2053"/>
<text text-anchor="middle" x="712" y="-263.2053" font-family="Helvetica,sans-Serif" font-size="10.00" fill="#000000">pn::BrentRes::BrentRes</text>
</a>
</g>
</g>
<!-- Node58&#45;&gt;Node59 -->
<g id="edge10" class="edge">
<title>Node58&#45;&gt;Node59</title>
<path fill="none" stroke="#191970" d="M582.5272,-265.7053C598.5762,-265.7053 620.0062,-265.7053 640.806,-265.7053"/>
<polygon fill="#191970" stroke="#191970" points="640.9398,-269.2054 650.9398,-265.7053 640.9398,-262.2054 640.9398,-269.2054"/>
</g>
<!-- Node60&#45;&gt;Node52 -->
<g id="edge12" class="edge">
<title>Node60&#45;&gt;Node52</title>
<path fill="none" stroke="#191970" d="M257.326,-302.3377C266.9885,-305.9447 276.4305,-310.8997 284,-317.7053 313.2958,-344.0446 290.0254,-373.1412 320,-398.7053 321.9667,-400.3827 324.0661,-401.9137 326.2651,-403.3111"/>
<polygon fill="#191970" stroke="#191970" points="324.701,-406.4435 335.171,-408.0649 327.9973,-400.2682 324.701,-406.4435"/>
</g>
<!-- Node60&#45;&gt;Node54 -->
<g id="edge13" class="edge">
<title>Node60&#45;&gt;Node54</title>
<path fill="none" stroke="#191970" d="M257.1945,-304.5104C266.5509,-307.9258 275.91,-312.2545 284,-317.7053 304.6704,-331.6326 298.9724,-347.3234 320,-360.7053 323.3185,-362.8172 326.8662,-364.6957 330.5409,-366.3664"/>
<polygon fill="#191970" stroke="#191970" points="329.2938,-369.6372 339.8783,-370.1061 331.8964,-363.139 329.2938,-369.6372"/>
</g>
<!-- Node60&#45;&gt;Node55 -->
<g id="edge14" class="edge">
<title>Node60&#45;&gt;Node55</title>
<path fill="none" stroke="#191970" d="M257.0521,-306.0948C284.6573,-313.4064 318.5864,-322.3931 345.4537,-329.5093"/>
<polygon fill="#191970" stroke="#191970" points="344.8144,-332.9606 355.3772,-332.1377 346.6067,-326.1939 344.8144,-332.9606"/>
</g>
<!-- Node60&#45;&gt;Node56 -->
<g id="edge15" class="edge">
<title>Node60&#45;&gt;Node56</title>
<path fill="none" stroke="#191970" d="M257.0521,-295.7111C274.817,-296.7674 295.2009,-297.9794 314.6363,-299.135"/>
<polygon fill="#191970" stroke="#191970" points="314.5043,-302.6333 324.6944,-299.7331 314.9198,-295.6456 314.5043,-302.6333"/>
</g>
<!-- Node60&#45;&gt;Node57 -->
<g id="edge16" class="edge">
<title>Node60&#45;&gt;Node57</title>
<path fill="none" stroke="#191970" d="M257.0521,-285.3274C280.2673,-281.9393 307.9549,-277.8984 332.1537,-274.3667"/>
<polygon fill="#191970" stroke="#191970" points="332.8981,-277.7952 342.2878,-272.8876 331.8871,-270.8686 332.8981,-277.7952"/>
</g>
<!-- Node62 -->
<g id="node14" class="node">
<title>Node62</title>
<g id="a_node14"><a xlink:href="classTensor.html#a6c8465a488ce260e6e05f1a3ceb8ab26" target="_top" xlink:title="Tensor::avg_dim">
<polygon fill="none" stroke="#000000" points="347,-180.2053 347,-199.2053 436,-199.2053 436,-180.2053 347,-180.2053"/>
<text text-anchor="middle" x="391.5" y="-187.2053" font-family="Helvetica,sans-Serif" font-size="10.00" fill="#000000">Tensor::avg_dim</text>
</a>
</g>
</g>
<!-- Node61&#45;&gt;Node62 -->
<g id="edge18" class="edge">
<title>Node61&#45;&gt;Node62</title>
<path fill="none" stroke="#191970" d="M255.0742,-228.6793C284.3389,-219.6345 316.6057,-209.6792 320,-208.7053 327.8994,-206.4387 336.3166,-204.1182 344.4994,-201.9124"/>
<polygon fill="#191970" stroke="#191970" points="345.5562,-205.2529 354.3137,-199.2899 343.7491,-198.4901 345.5562,-205.2529"/>
</g>
<!-- Node67 -->
<g id="node19" class="node">
<title>Node67</title>
<g id="a_node19"><a xlink:href="classTensor.html#a3986d7a50faef0249a8d2da5b1f67a89" target="_top" xlink:title="Tensor::transform">
<polygon fill="none" stroke="#000000" points="344.5,-218.2053 344.5,-237.2053 438.5,-237.2053 438.5,-218.2053 344.5,-218.2053"/>
<text text-anchor="middle" x="391.5" y="-225.2053" font-family="Helvetica,sans-Serif" font-size="10.00" fill="#000000">Tensor::transform</text>
</a>
</g>
</g>
<!-- Node61&#45;&gt;Node67 -->
<g id="edge23" class="edge">
<title>Node61&#45;&gt;Node67</title>
<path fill="none" stroke="#191970" d="M258.5251,-239.2058C282.0904,-237.1678 310.0213,-234.7521 334.1869,-232.6621"/>
<polygon fill="#191970" stroke="#191970" points="334.6281,-236.1371 344.2893,-231.7884 334.0249,-229.1632 334.6281,-236.1371"/>
</g>
<!-- Node63 -->
<g id="node15" class="node">
<title>Node63</title>
<g id="a_node15"><a xlink:href="classTensor.html#a447f65c9ada7c9357091fba66ad73d10" target="_top" xlink:title="Tensor::accumulate">
<polygon fill="none" stroke="#000000" points="505,-142.2053 505,-161.2053 608,-161.2053 608,-142.2053 505,-142.2053"/>
<text text-anchor="middle" x="556.5" y="-149.2053" font-family="Helvetica,sans-Serif" font-size="10.00" fill="#000000">Tensor::accumulate</text>
</a>
</g>
</g>
<!-- Node62&#45;&gt;Node63 -->
<g id="edge19" class="edge">
<title>Node62&#45;&gt;Node63</title>
<path fill="none" stroke="#191970" d="M433.1365,-180.1163C455.0081,-175.0792 482.006,-168.8615 505.1636,-163.5282"/>
<polygon fill="#191970" stroke="#191970" points="506.2036,-166.8804 515.1629,-161.2254 504.6325,-160.059 506.2036,-166.8804"/>
</g>
<!-- Node64 -->
<g id="node16" class="node">
<title>Node64</title>
<g id="a_node16"><a xlink:href="classTensor.html#a862952dc137707abdccd06cf9cd5855b" target="_top" xlink:title="Tensor::plane">
<polygon fill="none" stroke="#000000" points="674,-199.2053 674,-218.2053 750,-218.2053 750,-199.2053 674,-199.2053"/>
<text text-anchor="middle" x="712" y="-206.2053" font-family="Helvetica,sans-Serif" font-size="10.00" fill="#000000">Tensor::plane</text>
</a>
</g>
</g>
<!-- Node63&#45;&gt;Node64 -->
<g id="edge20" class="edge">
<title>Node63&#45;&gt;Node64</title>
<path fill="none" stroke="#191970" d="M586.4423,-161.2802C595.3431,-164.2124 605.0939,-167.5095 614,-170.7053 635.7932,-178.5255 660.0576,-187.9286 678.99,-195.4245"/>
<polygon fill="#191970" stroke="#191970" points="677.7774,-198.7089 688.363,-199.152 680.3642,-192.2044 677.7774,-198.7089"/>
</g>
<!-- Node66 -->
<g id="node18" class="node">
<title>Node66</title>
<g id="a_node18"><a xlink:href="classTensor.html#abbfd4d8d3390394254f1d42fcb845bd2" target="_top" xlink:title="Tensor::accumulate_dim">
<polygon fill="none" stroke="#000000" points="650,-142.2053 650,-161.2053 774,-161.2053 774,-142.2053 650,-142.2053"/>
<text text-anchor="middle" x="712" y="-149.2053" font-family="Helvetica,sans-Serif" font-size="10.00" fill="#000000">Tensor::accumulate_dim</text>
</a>
</g>
</g>
<!-- Node63&#45;&gt;Node66 -->
<g id="edge22" class="edge">
<title>Node63&#45;&gt;Node66</title>
<path fill="none" stroke="#191970" d="M608.2792,-151.7053C618.3891,-151.7053 629.1608,-151.7053 639.7935,-151.7053"/>
<polygon fill="#191970" stroke="#191970" points="639.9191,-155.2054 649.9191,-151.7053 639.919,-148.2054 639.9191,-155.2054"/>
</g>
<!-- Node65 -->
<g id="node17" class="node">
<title>Node65</title>
<g id="a_node17"><a xlink:href="classTensor.html#a90a6b28226bcd1be7090fd2f8782d0b1" target="_top" xlink:title="Tensor::index">
<polygon fill="none" stroke="#000000" points="810,-199.2053 810,-218.2053 886,-218.2053 886,-199.2053 810,-199.2053"/>
<text text-anchor="middle" x="848" y="-206.2053" font-family="Helvetica,sans-Serif" font-size="10.00" fill="#000000">Tensor::index</text>
</a>
</g>
</g>
<!-- Node64&#45;&gt;Node65 -->
<g id="edge21" class="edge">
<title>Node64&#45;&gt;Node65</title>
<path fill="none" stroke="#191970" d="M750.2455,-208.7053C765.4552,-208.7053 783.1389,-208.7053 799.2511,-208.7053"/>
<polygon fill="#191970" stroke="#191970" points="799.5704,-212.2054 809.5703,-208.7053 799.5703,-205.2054 799.5704,-212.2054"/>
</g>
<!-- Node67&#45;&gt;Node64 -->
<g id="edge24" class="edge">
<title>Node67&#45;&gt;Node64</title>
<path fill="none" stroke="#191970" d="M438.7909,-224.9018C499.0357,-221.3303 602.6175,-215.1898 663.4562,-211.5831"/>
<polygon fill="#191970" stroke="#191970" points="663.7938,-215.0693 673.5691,-210.9836 663.3795,-208.0816 663.7938,-215.0693"/>
</g>
<!-- Node68 -->
<g id="node20" class="node">
<title>Node68</title>
<g id="a_node20"><a xlink:href="classTensor.html#a1a9aea97717d687b7d501842efb546d4" target="_top" xlink:title="Tensor::transform_dim">
<polygon fill="none" stroke="#000000" points="499,-180.2053 499,-199.2053 614,-199.2053 614,-180.2053 499,-180.2053"/>
<text text-anchor="middle" x="556.5" y="-187.2053" font-family="Helvetica,sans-Serif" font-size="10.00" fill="#000000">Tensor::transform_dim</text>
</a>
</g>
</g>
<!-- Node67&#45;&gt;Node68 -->
<g id="edge25" class="edge">
<title>Node67&#45;&gt;Node68</title>
<path fill="none" stroke="#191970" d="M433.1365,-218.1163C455.0081,-213.0792 482.006,-206.8615 505.1636,-201.5282"/>
<polygon fill="#191970" stroke="#191970" points="506.2036,-204.8804 515.1629,-199.2254 504.6325,-198.059 506.2036,-204.8804"/>
</g>
<!-- Node69&#45;&gt;Node62 -->
<g id="edge27" class="edge">
<title>Node69&#45;&gt;Node62</title>
<path fill="none" stroke="#191970" d="M261.8154,-111.8142C269.3931,-114.4659 276.9761,-117.4374 284,-120.7053 316.0207,-135.6033 349.8025,-158.6671 370.7634,-173.9722"/>
<polygon fill="#191970" stroke="#191970" points="368.7994,-176.873 378.9191,-180.0101 372.9645,-171.2469 368.7994,-176.873"/>
</g>
<!-- Node69&#45;&gt;Node63 -->
<g id="edge31" class="edge">
<title>Node69&#45;&gt;Node63</title>
<path fill="none" stroke="#191970" d="M221.7459,-81.6207C242.113,-62.6422 280.2687,-31.0414 320,-18.7053 380.6972,.1404 406.598,10.5885 463,-18.7053 509.3813,-42.7946 537.5837,-101.6188 549.6394,-132.3264"/>
<polygon fill="#191970" stroke="#191970" points="546.4456,-133.7778 553.2336,-141.9125 553,-131.3203 546.4456,-133.7778"/>
</g>
<!-- Node69&#45;&gt;Node67 -->
<g id="edge28" class="edge">
<title>Node69&#45;&gt;Node67</title>
<path fill="none" stroke="#191970" d="M263.845,-108.0089C271.2018,-111.2339 278.1826,-115.3786 284,-120.7053 315.1659,-149.2424 288.2615,-180.8064 320,-208.7053 324.2808,-212.4682 329.2258,-215.4975 334.4763,-217.9344"/>
<polygon fill="#191970" stroke="#191970" points="333.5908,-221.3455 344.1793,-221.7116 336.1302,-214.8223 333.5908,-221.3455"/>
</g>
<!-- Node70 -->
<g id="node22" class="node">
<title>Node70</title>
<g id="a_node22"><a xlink:href="classTensor.html#ae4622cf6280102eb5103cfe4c88c1ad8" target="_top" xlink:title="Tensor::repeat_inner">
<polygon fill="none" stroke="#000000" points="338.5,-104.2053 338.5,-123.2053 444.5,-123.2053 444.5,-104.2053 338.5,-104.2053"/>
<text text-anchor="middle" x="391.5" y="-111.2053" font-family="Helvetica,sans-Serif" font-size="10.00" fill="#000000">Tensor::repeat_inner</text>
</a>
</g>
</g>
<!-- Node69&#45;&gt;Node70 -->
<g id="edge29" class="edge">
<title>Node69&#45;&gt;Node70</title>
<path fill="none" stroke="#191970" d="M263.5156,-101.9446C284.044,-103.831 307.3206,-105.9699 328.3419,-107.9016"/>
<polygon fill="#191970" stroke="#191970" points="328.18,-111.4014 338.4584,-108.8312 328.8206,-104.4307 328.18,-111.4014"/>
</g>
<!-- Node71 -->
<g id="node23" class="node">
<title>Node71</title>
<g id="a_node23"><a xlink:href="classTensor.html#aedee003837348391c5f8d0bc788bf20f" target="_top" xlink:title="Tensor::repeat_outer">
<polygon fill="none" stroke="#000000" points="338,-28.2053 338,-47.2053 445,-47.2053 445,-28.2053 338,-28.2053"/>
<text text-anchor="middle" x="391.5" y="-35.2053" font-family="Helvetica,sans-Serif" font-size="10.00" fill="#000000">Tensor::repeat_outer</text>
</a>
</g>
</g>
<!-- Node69&#45;&gt;Node71 -->
<g id="edge30" class="edge">
<title>Node69&#45;&gt;Node71</title>
<path fill="none" stroke="#191970" d="M246.6898,-81.6692C268.2835,-73.812 295.4442,-64.282 320,-56.7053 327.594,-54.3622 335.6939,-52.0418 343.6117,-49.87"/>
<polygon fill="#191970" stroke="#191970" points="344.7465,-53.1891 353.4916,-47.208 342.9253,-46.4302 344.7465,-53.1891"/>
</g>
<!-- Node72 -->
<g id="node24" class="node">
<title>Node72</title>
<g id="a_node24"><a xlink:href="classTensor.html#abf7346c2dbd5e6b195cfe9b66e5049e8" target="_top" xlink:title="Tensor::max_dim">
<polygon fill="none" stroke="#000000" points="345.5,-66.2053 345.5,-85.2053 437.5,-85.2053 437.5,-66.2053 345.5,-66.2053"/>
<text text-anchor="middle" x="391.5" y="-73.2053" font-family="Helvetica,sans-Serif" font-size="10.00" fill="#000000">Tensor::max_dim</text>
</a>
</g>
</g>
<!-- Node69&#45;&gt;Node72 -->
<g id="edge32" class="edge">
<title>Node69&#45;&gt;Node72</title>
<path fill="none" stroke="#191970" d="M263.5156,-90.2333C286.2561,-87.6519 312.369,-84.6878 335.0527,-82.1128"/>
<polygon fill="#191970" stroke="#191970" points="335.6678,-85.5656 345.2092,-80.9599 334.8782,-78.6103 335.6678,-85.5656"/>
</g>
<!-- Node72&#45;&gt;Node63 -->
<g id="edge33" class="edge">
<title>Node72&#45;&gt;Node63</title>
<path fill="none" stroke="#191970" d="M435.6551,-85.3066C444.8582,-87.8958 454.3772,-91.023 463,-94.7053 489.2939,-105.9339 516.9625,-123.6412 535.3162,-136.34"/>
<polygon fill="#191970" stroke="#191970" points="533.3389,-139.2283 543.5311,-142.1213 537.3676,-133.5038 533.3389,-139.2283"/>
</g>
<!-- Node73&#45;&gt;Node52 -->
<g id="edge35" class="edge">
<title>Node73&#45;&gt;Node52</title>
<path fill="none" stroke="#191970" d="M257.4067,-354.7772C266.5494,-358.0514 275.7768,-362.0042 284,-366.7053 302.5846,-377.3299 301.1439,-388.5703 320,-398.7053 324.2319,-400.9799 328.7537,-402.9955 333.3902,-404.7791"/>
<polygon fill="#191970" stroke="#191970" points="332.4176,-408.1464 343.0124,-408.1232 334.7156,-401.5343 332.4176,-408.1464"/>
</g>
<!-- Node73&#45;&gt;Node53 -->
<g id="edge36" class="edge">
<title>Node73&#45;&gt;Node53</title>
<path fill="none" stroke="#191970" d="M257.0313,-351.675C266.7151,-355.2576 276.2403,-360.1174 284,-366.7053 310.6691,-389.3474 292.7479,-414.7685 320,-436.7053 322.1761,-438.457 324.4986,-440.0482 326.9268,-441.4935"/>
<polygon fill="#191970" stroke="#191970" points="325.6036,-444.7458 336.1096,-446.1149 328.7504,-438.493 325.6036,-444.7458"/>
</g>
<!-- Node73&#45;&gt;Node54 -->
<g id="edge37" class="edge">
<title>Node73&#45;&gt;Node54</title>
<path fill="none" stroke="#191970" d="M257.0521,-352.089C281.2172,-357.0526 310.2282,-363.0116 335.106,-368.1217"/>
<polygon fill="#191970" stroke="#191970" points="334.6303,-371.597 345.13,-370.1807 336.0388,-364.7401 334.6303,-371.597"/>
</g>
<!-- Node73&#45;&gt;Node55 -->
<g id="edge38" class="edge">
<title>Node73&#45;&gt;Node55</title>
<path fill="none" stroke="#191970" d="M257.0521,-341.7053C283.119,-341.7053 314.8247,-341.7053 340.8987,-341.7053"/>
<polygon fill="#191970" stroke="#191970" points="340.9582,-345.2054 350.9582,-341.7053 340.9581,-338.2054 340.9582,-345.2054"/>
</g>
<!-- Node73&#45;&gt;Node56 -->
<g id="edge39" class="edge">
<title>Node73&#45;&gt;Node56</title>
<path fill="none" stroke="#191970" d="M257.0521,-331.3216C281.2172,-326.358 310.2282,-320.399 335.106,-315.2889"/>
<polygon fill="#191970" stroke="#191970" points="336.0388,-318.6705 345.13,-313.23 334.6303,-311.8137 336.0388,-318.6705"/>
</g>
<!-- Node73&#45;&gt;Node57 -->
<g id="edge40" class="edge">
<title>Node73&#45;&gt;Node57</title>
<path fill="none" stroke="#191970" d="M257.0612,-329.6008C266.3316,-326.4024 275.6934,-322.4738 284,-317.7053 302.8239,-306.8992 300.9607,-295.1273 320,-284.7053 324.1475,-282.435 328.5806,-280.4248 333.1315,-278.6467"/>
<polygon fill="#191970" stroke="#191970" points="334.3171,-281.94 342.5845,-275.3142 331.9897,-275.3382 334.3171,-281.94"/>
</g>
<!-- Node74&#45;&gt;Node62 -->
<g id="edge42" class="edge">
<title>Node74&#45;&gt;Node62</title>
<path fill="none" stroke="#191970" d="M258.5251,-193.2992C282.8385,-192.6421 311.7991,-191.8594 336.4767,-191.1924"/>
<polygon fill="#191970" stroke="#191970" points="336.8628,-194.6834 346.7646,-190.9144 336.6736,-187.6859 336.8628,-194.6834"/>
</g>
<!-- Node74&#45;&gt;Node67 -->
<g id="edge43" class="edge">
<title>Node74&#45;&gt;Node67</title>
<path fill="none" stroke="#191970" d="M258.5251,-203.9855C282.0904,-208.189 310.0213,-213.1713 334.1869,-217.4819"/>
<polygon fill="#191970" stroke="#191970" points="333.8301,-220.9734 344.2893,-219.284 335.0594,-214.0822 333.8301,-220.9734"/>
</g>
<!-- Node75&#45;&gt;Node62 -->
<g id="edge45" class="edge">
<title>Node75&#45;&gt;Node62</title>
<path fill="none" stroke="#191970" d="M263.5156,-159.2658C288.4118,-165.187 317.3501,-172.0697 341.4054,-177.7909"/>
<polygon fill="#191970" stroke="#191970" points="340.8513,-181.2567 351.3898,-180.1656 342.471,-174.4467 340.8513,-181.2567"/>
</g>
<!-- Node75&#45;&gt;Node63 -->
<g id="edge49" class="edge">
<title>Node75&#45;&gt;Node63</title>
<path fill="none" stroke="#191970" d="M263.5125,-146.6827C327.0388,-147.7717 429.3925,-149.5263 494.7686,-150.6471"/>
<polygon fill="#191970" stroke="#191970" points="494.8734,-154.1493 504.932,-150.8213 494.9935,-147.1503 494.8734,-154.1493"/>
</g>
<!-- Node75&#45;&gt;Node67 -->
<g id="edge46" class="edge">
<title>Node75&#45;&gt;Node67</title>
<path fill="none" stroke="#191970" d="M263.5,-159.531C270.6652,-162.3592 277.6864,-165.7219 284,-169.7053 303.9502,-182.2923 299.7985,-196.5257 320,-208.7053 324.4909,-211.4129 329.368,-213.7401 334.3938,-215.7394"/>
<polygon fill="#191970" stroke="#191970" points="333.5849,-219.1655 344.1797,-219.1939 335.915,-212.5647 333.5849,-219.1655"/>
</g>
<!-- Node75&#45;&gt;Node70 -->
<g id="edge47" class="edge">
<title>Node75&#45;&gt;Node70</title>
<path fill="none" stroke="#191970" d="M263.5156,-135.8431C284.044,-132.2923 307.3206,-128.2661 328.3419,-124.63"/>
<polygon fill="#191970" stroke="#191970" points="329.2013,-128.0334 338.4584,-122.8801 328.0081,-121.1358 329.2013,-128.0334"/>
</g>
<!-- Node75&#45;&gt;Node71 -->
<g id="edge48" class="edge">
<title>Node75&#45;&gt;Node71</title>
<path fill="none" stroke="#191970" d="M263.671,-132.7719C270.9687,-129.5865 277.9795,-125.6261 284,-120.7053 309.269,-100.0519 294.1995,-76.6908 320,-56.7053 322.64,-54.6603 325.4813,-52.8347 328.4558,-51.205"/>
<polygon fill="#191970" stroke="#191970" points="330.1325,-54.2848 337.7104,-46.8804 327.169,-47.9431 330.1325,-54.2848"/>
</g>
<!-- Node75&#45;&gt;Node72 -->
<g id="edge50" class="edge">
<title>Node75&#45;&gt;Node72</title>
<path fill="none" stroke="#191970" d="M260.7401,-130.6218C268.7061,-127.719 276.6847,-124.4098 284,-120.7053 301.6075,-111.7887 302.1653,-103.1584 320,-94.7053 325.0052,-92.333 330.3531,-90.2207 335.7862,-88.3483"/>
<polygon fill="#191970" stroke="#191970" points="337.1298,-91.594 345.6022,-85.2325 335.0119,-84.922 337.1298,-91.594"/>
</g>
</g>
</svg>
