<?xml version="1.0" encoding="UTF-8" standalone="no"?>
<!DOCTYPE svg PUBLIC "-//W3C//DTD SVG 1.1//EN"
 "http://www.w3.org/Graphics/SVG/1.1/DTD/svg11.dtd">
<!-- Generated by graphviz version 2.40.1 (20161225.0304)
 -->
<!-- Title: src/fish.cpp Pages: 1 -->
<svg width="283pt" height="196pt"
 viewBox="0.00 0.00 283.00 196.00" xmlns="http://www.w3.org/2000/svg" xmlns:xlink="http://www.w3.org/1999/xlink">
<g id="graph0" class="graph" transform="scale(1 1) rotate(0) translate(4 192)">
<title>src/fish.cpp</title>
<!-- Node0 -->
<g id="node1" class="node">
<title>Node0</title>
<polygon fill="#bfbfbf" stroke="#000000" points="179,-168.5 179,-187.5 247,-187.5 247,-168.5 179,-168.5"/>
<text text-anchor="middle" x="213" y="-175.5" font-family="Helvetica,sans-Serif" font-size="10.00" fill="#000000">src/fish.cpp</text>
</g>
<!-- Node1 -->
<g id="node2" class="node">
<title>Node1</title>
<g id="a_node2"><a xlink:href="fish_8h.html" target="_top" xlink:title="fish.h">
<polygon fill="none" stroke="#000000" points="142.5,-112.5 142.5,-131.5 183.5,-131.5 183.5,-112.5 142.5,-112.5"/>
<text text-anchor="middle" x="163" y="-119.5" font-family="Helvetica,sans-Serif" font-size="10.00" fill="#000000">fish.h</text>
</a>
</g>
</g>
<!-- Node0&#45;&gt;Node1 -->
<g id="edge1" class="edge">
<title>Node0&#45;&gt;Node1</title>
<path fill="none" stroke="#191970" d="M204.2907,-168.2455C197.1927,-160.2958 186.9916,-148.8706 178.505,-139.3656"/>
<polygon fill="#191970" stroke="#191970" points="180.8805,-136.771 171.6095,-131.6427 175.6589,-141.4331 180.8805,-136.771"/>
</g>
<!-- Node4 -->
<g id="node5" class="node">
<title>Node4</title>
<polygon fill="none" stroke="#bfbfbf" points="153,-.5 153,-19.5 197,-19.5 197,-.5 153,-.5"/>
<text text-anchor="middle" x="175" y="-7.5" font-family="Helvetica,sans-Serif" font-size="10.00" fill="#000000">cmath</text>
</g>
<!-- Node0&#45;&gt;Node4 -->
<g id="edge9" class="edge">
<title>Node0&#45;&gt;Node4</title>
<path fill="none" stroke="#191970" d="M212.2789,-168.3443C210.5531,-147.5003 205.4476,-96.8701 194,-56 191.4437,-46.8737 187.5899,-37.1231 184.0198,-28.9587"/>
<polygon fill="#191970" stroke="#191970" points="187.1008,-27.2794 179.7683,-19.6319 180.7313,-30.1829 187.1008,-27.2794"/>
</g>
<!-- Node6 -->
<g id="node7" class="node">
<title>Node6</title>
<polygon fill="none" stroke="#bfbfbf" points="221,-.5 221,-19.5 275,-19.5 275,-.5 221,-.5"/>
<text text-anchor="middle" x="248" y="-7.5" font-family="Helvetica,sans-Serif" font-size="10.00" fill="#000000">iostream</text>
</g>
<!-- Node0&#45;&gt;Node6 -->
<g id="edge8" class="edge">
<title>Node0&#45;&gt;Node6</title>
<path fill="none" stroke="#191970" d="M216.3636,-168.2267C219.4526,-158.9806 223.9937,-144.6708 227,-132 235.4806,-96.256 241.9984,-53.8546 245.3938,-29.6213"/>
<polygon fill="#191970" stroke="#191970" points="248.8806,-29.9553 246.7674,-19.5734 241.9451,-29.0071 248.8806,-29.9553"/>
</g>
<!-- Node2 -->
<g id="node3" class="node">
<title>Node2</title>
<polygon fill="none" stroke="#bfbfbf" points="141,-56.5 141,-75.5 185,-75.5 185,-56.5 141,-56.5"/>
<text text-anchor="middle" x="163" y="-63.5" font-family="Helvetica,sans-Serif" font-size="10.00" fill="#000000">vector</text>
</g>
<!-- Node1&#45;&gt;Node2 -->
<g id="edge2" class="edge">
<title>Node1&#45;&gt;Node2</title>
<path fill="none" stroke="#191970" d="M163,-112.2455C163,-104.9382 163,-94.6944 163,-85.7046"/>
<polygon fill="#191970" stroke="#191970" points="166.5001,-85.6426 163,-75.6427 159.5001,-85.6427 166.5001,-85.6426"/>
</g>
<!-- Node3 -->
<g id="node4" class="node">
<title>Node3</title>
<g id="a_node4"><a xlink:href="functions_8h.html" target="_top" xlink:title="functions.h">
<polygon fill="none" stroke="#000000" points="57.5,-56.5 57.5,-75.5 122.5,-75.5 122.5,-56.5 57.5,-56.5"/>
<text text-anchor="middle" x="90" y="-63.5" font-family="Helvetica,sans-Serif" font-size="10.00" fill="#000000">functions.h</text>
</a>
</g>
</g>
<!-- Node1&#45;&gt;Node3 -->
<g id="edge3" class="edge">
<title>Node1&#45;&gt;Node3</title>
<path fill="none" stroke="#191970" d="M150.2844,-112.2455C139.398,-103.8943 123.5117,-91.7076 110.78,-81.9408"/>
<polygon fill="#191970" stroke="#191970" points="112.6346,-78.9523 102.5699,-75.6427 108.3739,-84.5063 112.6346,-78.9523"/>
</g>
<!-- Node3&#45;&gt;Node4 -->
<g id="edge4" class="edge">
<title>Node3&#45;&gt;Node4</title>
<path fill="none" stroke="#191970" d="M104.8059,-56.2455C117.7256,-47.7337 136.6931,-35.2375 151.6552,-25.3801"/>
<polygon fill="#191970" stroke="#191970" points="153.9387,-28.067 160.3638,-19.6427 150.0876,-22.2216 153.9387,-28.067"/>
</g>
<!-- Node5 -->
<g id="node6" class="node">
<title>Node5</title>
<polygon fill="none" stroke="#bfbfbf" points="66,-.5 66,-19.5 122,-19.5 122,-.5 66,-.5"/>
<text text-anchor="middle" x="94" y="-7.5" font-family="Helvetica,sans-Serif" font-size="10.00" fill="#000000">algorithm</text>
</g>
<!-- Node3&#45;&gt;Node5 -->
<g id="edge5" class="edge">
<title>Node3&#45;&gt;Node5</title>
<path fill="none" stroke="#191970" d="M90.6967,-56.2455C91.2187,-48.9382 91.9504,-38.6944 92.5925,-29.7046"/>
<polygon fill="#191970" stroke="#191970" points="96.0898,-29.8667 93.3112,-19.6427 89.1076,-29.3679 96.0898,-29.8667"/>
</g>
<!-- Node3&#45;&gt;Node6 -->
<g id="edge6" class="edge">
<title>Node3&#45;&gt;Node6</title>
<path fill="none" stroke="#191970" d="M117.1612,-56.3733C143.2067,-47.1419 182.7116,-33.1402 211.4979,-22.9375"/>
<polygon fill="#191970" stroke="#191970" points="212.937,-26.1408 221.1933,-19.5011 210.5985,-19.5429 212.937,-26.1408"/>
</g>
<!-- Node7 -->
<g id="node8" class="node">
<title>Node7</title>
<polygon fill="none" stroke="#bfbfbf" points="0,-.5 0,-19.5 48,-19.5 48,-.5 0,-.5"/>
<text text-anchor="middle" x="24" y="-7.5" font-family="Helvetica,sans-Serif" font-size="10.00" fill="#000000">Rcpp.h</text>
</g>
<!-- Node3&#45;&gt;Node7 -->
<g id="edge7" class="edge">
<title>Node3&#45;&gt;Node7</title>
<path fill="none" stroke="#191970" d="M78.5037,-56.2455C68.7558,-47.9746 54.5741,-35.9416 43.1202,-26.2232"/>
<polygon fill="#191970" stroke="#191970" points="45.2541,-23.4437 35.3646,-19.6427 40.7253,-28.7813 45.2541,-23.4437"/>
</g>
</g>
</svg>
