<?xml version="1.0" encoding="UTF-8" standalone="no"?>
<!DOCTYPE svg PUBLIC "-//W3C//DTD SVG 1.1//EN"
 "http://www.w3.org/Graphics/SVG/1.1/DTD/svg11.dtd">
<!-- Generated by graphviz version 2.40.1 (20161225.0304)
 -->
<!-- Title: RCPP_MODULE Pages: 1 -->
<svg width="708pt" height="911pt"
 viewBox="0.00 0.00 708.00 910.85" xmlns="http://www.w3.org/2000/svg" xmlns:xlink="http://www.w3.org/1999/xlink">
<g id="graph0" class="graph" transform="scale(1 1) rotate(0) translate(4 906.853)">
<title>RCPP_MODULE</title>
<!-- Node11 -->
<g id="node1" class="node">
<title>Node11</title>
<polygon fill="#bfbfbf" stroke="#000000" points="0,-437.5 0,-456.5 93,-456.5 93,-437.5 0,-437.5"/>
<text text-anchor="middle" x="46.5" y="-444.5" font-family="Helvetica,sans-Serif" font-size="10.00" fill="#000000">RCPP_MODULE</text>
</g>
<!-- Node12 -->
<g id="node2" class="node">
<title>Node12</title>
<g id="a_node2"><a xlink:href="namespacefish.html#a1d06e0358aca1be4446ed148b7ce3d84" target="_top" xlink:title="Compute the new length after growth assuming no allocation to reproduction . ">
<polygon fill="none" stroke="#000000" points="472,-817.5 472,-836.5 575,-836.5 575,-817.5 472,-817.5"/>
<text text-anchor="middle" x="523.5" y="-824.5" font-family="Helvetica,sans-Serif" font-size="10.00" fill="#000000">fish::length_juvenile</text>
</a>
</g>
</g>
<!-- Node11&#45;&gt;Node12 -->
<g id="edge1" class="edge">
<title>Node11&#45;&gt;Node12</title>
<path fill="none" stroke="#191970" d="M46.8849,-456.8296C49.3492,-514.1503 64.9107,-804.5877 129,-859 236.562,-950.321 425.3872,-874.5534 495.906,-840.9911"/>
<polygon fill="#191970" stroke="#191970" points="497.5796,-844.0694 505.0506,-836.5572 494.5255,-837.7708 497.5796,-844.0694"/>
</g>
<!-- Node13 -->
<g id="node3" class="node">
<title>Node13</title>
<g id="a_node3"><a xlink:href="namespacefish.html#adc414165e9acd76993cbaaf5140c5f22" target="_top" xlink:title="Compute the new length after growth for adults, assuming allocation to reproduction ...">
<polygon fill="none" stroke="#000000" points="323.5,-836.5 323.5,-855.5 414.5,-855.5 414.5,-836.5 323.5,-836.5"/>
<text text-anchor="middle" x="369" y="-843.5" font-family="Helvetica,sans-Serif" font-size="10.00" fill="#000000">fish::length_adult</text>
</a>
</g>
</g>
<!-- Node11&#45;&gt;Node13 -->
<g id="edge2" class="edge">
<title>Node11&#45;&gt;Node13</title>
<path fill="none" stroke="#191970" d="M47.0936,-456.7343C50.6175,-511.0488 70.6583,-776.0359 129,-827 181.4908,-872.853 267.4294,-867.0323 320.9699,-857.401"/>
<polygon fill="#191970" stroke="#191970" points="321.7348,-860.8182 330.9005,-855.5041 320.4214,-853.9425 321.7348,-860.8182"/>
</g>
<!-- Node14 -->
<g id="node4" class="node">
<title>Node14</title>
<g id="a_node4"><a xlink:href="namespacefish.html#a79ee7b63f43f9e9bda95cc04deb3a082" target="_top" xlink:title="Calculate the steepness of the probabilistic maturation reaction norm (PMRN) . ">
<polygon fill="none" stroke="#000000" points="130.5,-608.5 130.5,-627.5 264.5,-627.5 264.5,-608.5 130.5,-608.5"/>
<text text-anchor="middle" x="197.5" y="-615.5" font-family="Helvetica,sans-Serif" font-size="10.00" fill="#000000">fish::maturation_steepness</text>
</a>
</g>
</g>
<!-- Node11&#45;&gt;Node14 -->
<g id="edge4" class="edge">
<title>Node11&#45;&gt;Node14</title>
<path fill="none" stroke="#191970" d="M49.3102,-456.8149C57.2954,-482.9803 82.5958,-555.0578 129,-594 133.9409,-598.1464 139.6446,-601.5942 145.6085,-604.4569"/>
<polygon fill="#191970" stroke="#191970" points="144.5494,-607.8094 155.1223,-608.4903 147.2817,-601.3647 144.5494,-607.8094"/>
</g>
<!-- Node15 -->
<g id="node5" class="node">
<title>Node15</title>
<g id="a_node5"><a xlink:href="namespacefish.html#a214a54b82cb48878c083a73958c45847" target="_top" xlink:title="Calculate the maturation probability given age &#160;and body length , . ">
<polygon fill="none" stroke="#000000" points="302,-551.5 302,-570.5 436,-570.5 436,-551.5 302,-551.5"/>
<text text-anchor="middle" x="369" y="-558.5" font-family="Helvetica,sans-Serif" font-size="10.00" fill="#000000">fish::maturation_probability</text>
</a>
</g>
</g>
<!-- Node11&#45;&gt;Node15 -->
<g id="edge5" class="edge">
<title>Node11&#45;&gt;Node15</title>
<path fill="none" stroke="#191970" d="M49.9648,-456.7351C58.8359,-479.977 84.8324,-538.4433 129,-561 190.447,-592.3814 272.8183,-583.1651 323.3346,-572.7416"/>
<polygon fill="#191970" stroke="#191970" points="324.2717,-576.1199 333.3045,-570.583 322.7903,-569.2785 324.2717,-576.1199"/>
</g>
<!-- Node16 -->
<g id="node6" class="node">
<title>Node16</title>
<g id="a_node6"><a xlink:href="namespacefish.html#a8eda92863da99cec25dc0a2f09571998" target="_top" xlink:title="Compute weight of fish (grams) given length (cm), . ">
<polygon fill="none" stroke="#000000" points="325,-475.5 325,-494.5 413,-494.5 413,-475.5 325,-475.5"/>
<text text-anchor="middle" x="369" y="-482.5" font-family="Helvetica,sans-Serif" font-size="10.00" fill="#000000">fish::weight_fish</text>
</a>
</g>
</g>
<!-- Node11&#45;&gt;Node16 -->
<g id="edge6" class="edge">
<title>Node11&#45;&gt;Node16</title>
<path fill="none" stroke="#191970" d="M61.9058,-456.569C77.9635,-465.9349 104.2005,-479.5631 129,-485 191.5056,-498.7033 265.3893,-495.9652 314.5045,-491.5807"/>
<polygon fill="#191970" stroke="#191970" points="314.9705,-495.0523 324.5962,-490.6254 314.3108,-488.0834 314.9705,-495.0523"/>
</g>
<!-- Node17 -->
<g id="node7" class="node">
<title>Node17</title>
<g id="a_node7"><a xlink:href="namespacefish.html#a55881de836369d1af447b740b433e50e" target="_top" xlink:title="Calculate the number of eggs produced per year by a fish of given weight, . ">
<polygon fill="none" stroke="#000000" points="330,-399.5 330,-418.5 408,-418.5 408,-399.5 330,-399.5"/>
<text text-anchor="middle" x="369" y="-406.5" font-family="Helvetica,sans-Serif" font-size="10.00" fill="#000000">fish::fecundity</text>
</a>
</g>
</g>
<!-- Node11&#45;&gt;Node17 -->
<g id="edge7" class="edge">
<title>Node11&#45;&gt;Node17</title>
<path fill="none" stroke="#191970" d="M93.0498,-441.5151C153.2364,-434.4233 257.6249,-422.1233 319.3061,-414.8554"/>
<polygon fill="#191970" stroke="#191970" points="320.0438,-418.2928 329.5655,-413.6465 319.2246,-411.3409 320.0438,-418.2928"/>
</g>
<!-- Node18 -->
<g id="node8" class="node">
<title>Node18</title>
<g id="a_node8"><a xlink:href="namespacefish.html#a7f532daff6b69774cc75d40ed18aad31" target="_top" xlink:title="Calculate effective GSI, given the initial and final body lengths. . ">
<polygon fill="none" stroke="#000000" points="343.5,-684.5 343.5,-703.5 394.5,-703.5 394.5,-684.5 343.5,-684.5"/>
<text text-anchor="middle" x="369" y="-691.5" font-family="Helvetica,sans-Serif" font-size="10.00" fill="#000000">fish::gsi</text>
</a>
</g>
</g>
<!-- Node11&#45;&gt;Node18 -->
<g id="edge8" class="edge">
<title>Node11&#45;&gt;Node18</title>
<path fill="none" stroke="#191970" d="M47.9553,-456.6287C54.801,-500.5105 85.3067,-680.8049 129,-713 191.8029,-759.2758 290.6005,-727.9759 339.5252,-707.6188"/>
<polygon fill="#191970" stroke="#191970" points="341.0895,-710.7562 348.8987,-703.5961 338.3289,-704.3235 341.0895,-710.7562"/>
</g>
<!-- Node19 -->
<g id="node9" class="node">
<title>Node19</title>
<g id="a_node9"><a xlink:href="namespacefish.html#a6473cb22340439ec0b60b709880e967f" target="_top" xlink:title="Calculate the instantaneous natural mortality . ">
<polygon fill="none" stroke="#000000" points="314,-304.5 314,-323.5 424,-323.5 424,-304.5 314,-304.5"/>
<text text-anchor="middle" x="369" y="-311.5" font-family="Helvetica,sans-Serif" font-size="10.00" fill="#000000">fish::natural_mortality</text>
</a>
</g>
</g>
<!-- Node11&#45;&gt;Node19 -->
<g id="edge9" class="edge">
<title>Node11&#45;&gt;Node19</title>
<path fill="none" stroke="#191970" d="M54.0284,-437.4007C67.3351,-421.1202 96.676,-388.1913 129,-371 159.1309,-354.9751 244.7666,-336.8107 305.1176,-325.3819"/>
<polygon fill="#191970" stroke="#191970" points="305.7648,-328.8216 314.9478,-323.5373 304.4738,-321.9417 305.7648,-328.8216"/>
</g>
<!-- Node20 -->
<g id="node10" class="node">
<title>Node20</title>
<g id="a_node10"><a xlink:href="namespacefish.html#a8145736f4c8af31563881d90bf61cbf0" target="_top" xlink:title="Calculate survival probability over a time interval dt (years) &#160;where &#160;is the instantaneous natural_m...">
<polygon fill="none" stroke="#000000" points="136.5,-304.5 136.5,-323.5 258.5,-323.5 258.5,-304.5 136.5,-304.5"/>
<text text-anchor="middle" x="197.5" y="-311.5" font-family="Helvetica,sans-Serif" font-size="10.00" fill="#000000">fish::survival_probability</text>
</a>
</g>
</g>
<!-- Node11&#45;&gt;Node20 -->
<g id="edge10" class="edge">
<title>Node11&#45;&gt;Node20</title>
<path fill="none" stroke="#191970" d="M51.2728,-437.3331C62.1537,-416.2544 90.8368,-365.8226 129,-338 134.6783,-333.8603 141.1332,-330.3853 147.7569,-327.4818"/>
<polygon fill="#191970" stroke="#191970" points="149.4982,-330.5571 157.5114,-323.626 146.9249,-324.0472 149.4982,-330.5571"/>
</g>
<!-- Node21 -->
<g id="node11" class="node">
<title>Node21</title>
<g id="a_node11"><a xlink:href="classFishParams.html#aa0812994bb72e90dfa8c4fadc3039f57" target="_top" xlink:title="FishParams::print">
<polygon fill="none" stroke="#000000" points="150.5,-684.5 150.5,-703.5 244.5,-703.5 244.5,-684.5 150.5,-684.5"/>
<text text-anchor="middle" x="197.5" y="-691.5" font-family="Helvetica,sans-Serif" font-size="10.00" fill="#000000">FishParams::print</text>
</a>
</g>
</g>
<!-- Node11&#45;&gt;Node21 -->
<g id="edge12" class="edge">
<title>Node11&#45;&gt;Node21</title>
<path fill="none" stroke="#191970" d="M46.9946,-456.9407C49.3025,-492.2651 61.9822,-612.9297 129,-675 132.5482,-678.2863 136.6153,-681.0117 140.9591,-683.2709"/>
<polygon fill="#191970" stroke="#191970" points="139.6206,-686.5054 150.1868,-687.2838 142.4123,-680.0861 139.6206,-686.5054"/>
</g>
<!-- Node22 -->
<g id="node12" class="node">
<title>Node22</title>
<g id="a_node12"><a xlink:href="classFishParams.html#a6a7122ea93777817165dfb09c1d840ac" target="_top" xlink:title="FishParams::initFromFile">
<polygon fill="none" stroke="#000000" points="134.5,-646.5 134.5,-665.5 260.5,-665.5 260.5,-646.5 134.5,-646.5"/>
<text text-anchor="middle" x="197.5" y="-653.5" font-family="Helvetica,sans-Serif" font-size="10.00" fill="#000000">FishParams::initFromFile</text>
</a>
</g>
</g>
<!-- Node11&#45;&gt;Node22 -->
<g id="edge14" class="edge">
<title>Node11&#45;&gt;Node22</title>
<path fill="none" stroke="#191970" d="M47.7443,-456.5861C52.2966,-487.6578 70.9333,-586.4953 129,-637 130.9555,-638.7008 133.0511,-640.2505 135.2507,-641.6623"/>
<polygon fill="#191970" stroke="#191970" points="133.7075,-644.8063 144.1737,-646.4527 137.0186,-638.6389 133.7075,-644.8063"/>
</g>
<!-- Node27 -->
<g id="node17" class="node">
<title>Node27</title>
<g id="a_node17"><a xlink:href="classFish.html#a7734c4cfe4ae06e89474e86dae63235e" target="_top" xlink:title="Fish::print">
<polygon fill="none" stroke="#000000" points="167.5,-228.5 167.5,-247.5 227.5,-247.5 227.5,-228.5 167.5,-228.5"/>
<text text-anchor="middle" x="197.5" y="-235.5" font-family="Helvetica,sans-Serif" font-size="10.00" fill="#000000">Fish::print</text>
</a>
</g>
</g>
<!-- Node11&#45;&gt;Node27 -->
<g id="edge20" class="edge">
<title>Node11&#45;&gt;Node27</title>
<path fill="none" stroke="#191970" d="M47.7443,-437.4139C52.2966,-406.3422 70.9333,-307.5047 129,-257 136.9617,-250.0752 147.2461,-245.6565 157.4136,-242.8425"/>
<polygon fill="#191970" stroke="#191970" points="158.4928,-246.1856 167.4518,-240.5299 156.9213,-239.3643 158.4928,-246.1856"/>
</g>
<!-- Node28 -->
<g id="node18" class="node">
<title>Node28</title>
<g id="a_node18"><a xlink:href="classFish.html#a530deb5c81c40050e692af241fb5610b" target="_top" xlink:title="Fish::print_line">
<polygon fill="none" stroke="#000000" points="157.5,-190.5 157.5,-209.5 237.5,-209.5 237.5,-190.5 157.5,-190.5"/>
<text text-anchor="middle" x="197.5" y="-197.5" font-family="Helvetica,sans-Serif" font-size="10.00" fill="#000000">Fish::print_line</text>
</a>
</g>
</g>
<!-- Node11&#45;&gt;Node28 -->
<g id="edge21" class="edge">
<title>Node11&#45;&gt;Node28</title>
<path fill="none" stroke="#191970" d="M46.9946,-437.0593C49.3025,-401.7349 61.9822,-281.0703 129,-219 134.3535,-214.0418 140.8879,-210.3603 147.7724,-207.6304"/>
<polygon fill="#191970" stroke="#191970" points="148.9116,-210.9401 157.2991,-204.467 146.7056,-204.2967 148.9116,-210.9401"/>
</g>
<!-- Node29 -->
<g id="node19" class="node">
<title>Node29</title>
<g id="a_node19"><a xlink:href="classFish.html#aa60ee2a3e2c8e6dc37daac44262b586e" target="_top" xlink:title="Fish::print_header">
<polygon fill="none" stroke="#000000" points="150,-152.5 150,-171.5 245,-171.5 245,-152.5 150,-152.5"/>
<text text-anchor="middle" x="197.5" y="-159.5" font-family="Helvetica,sans-Serif" font-size="10.00" fill="#000000">Fish::print_header</text>
</a>
</g>
</g>
<!-- Node11&#45;&gt;Node29 -->
<g id="edge22" class="edge">
<title>Node11&#45;&gt;Node29</title>
<path fill="none" stroke="#191970" d="M48.2231,-437.338C56.1197,-394.0837 90.1349,-218.7098 129,-181 132.471,-177.6322 136.4844,-174.8503 140.7929,-172.5537"/>
<polygon fill="#191970" stroke="#191970" points="142.2452,-175.7385 149.9718,-168.4893 139.411,-169.3379 142.2452,-175.7385"/>
</g>
<!-- Node30 -->
<g id="node20" class="node">
<title>Node30</title>
<g id="a_node20"><a xlink:href="classFish.html#ab9b673887514b9d446232e0019c6034a" target="_top" xlink:title="Set fish age and other variables that scale directly with age. ">
<polygon fill="none" stroke="#000000" points="159.5,-114.5 159.5,-133.5 235.5,-133.5 235.5,-114.5 159.5,-114.5"/>
<text text-anchor="middle" x="197.5" y="-121.5" font-family="Helvetica,sans-Serif" font-size="10.00" fill="#000000">Fish::set_age</text>
</a>
</g>
</g>
<!-- Node11&#45;&gt;Node30 -->
<g id="edge23" class="edge">
<title>Node11&#45;&gt;Node30</title>
<path fill="none" stroke="#191970" d="M47.8381,-437.2593C54.4902,-390.1946 85.4255,-186.8179 129,-143 134.6905,-137.2777 141.9432,-133.2391 149.5889,-130.3973"/>
<polygon fill="#191970" stroke="#191970" points="150.8545,-133.6704 159.3954,-127.4012 148.8091,-126.9759 150.8545,-133.6704"/>
</g>
<!-- Node31 -->
<g id="node21" class="node">
<title>Node31</title>
<g id="a_node21"><a xlink:href="classFish.html#a0a1f9fe15dae9fc71e5abbc2a03de9aa" target="_top" xlink:title="Set fish length and other variables that scale directly with length. ">
<polygon fill="none" stroke="#000000" points="154.5,-456.5 154.5,-475.5 240.5,-475.5 240.5,-456.5 154.5,-456.5"/>
<text text-anchor="middle" x="197.5" y="-463.5" font-family="Helvetica,sans-Serif" font-size="10.00" fill="#000000">Fish::set_length</text>
</a>
</g>
</g>
<!-- Node11&#45;&gt;Node31 -->
<g id="edge24" class="edge">
<title>Node11&#45;&gt;Node31</title>
<path fill="none" stroke="#191970" d="M93.0371,-452.8557C109.2551,-454.8963 127.5747,-457.2015 144.2925,-459.305"/>
<polygon fill="#191970" stroke="#191970" points="144.1028,-462.8087 154.4615,-460.5846 144.9767,-455.8634 144.1028,-462.8087"/>
</g>
<!-- Node32 -->
<g id="node22" class="node">
<title>Node32</title>
<g id="a_node22"><a xlink:href="classFish.html#adf85bf269f1651352506e371ffd2cecc" target="_top" xlink:title="Initializes the fish, i.e., initializes parameters and sets the initial state (age = 1...">
<polygon fill="none" stroke="#000000" points="170.5,-760.5 170.5,-779.5 224.5,-779.5 224.5,-760.5 170.5,-760.5"/>
<text text-anchor="middle" x="197.5" y="-767.5" font-family="Helvetica,sans-Serif" font-size="10.00" fill="#000000">Fish::init</text>
</a>
</g>
</g>
<!-- Node11&#45;&gt;Node32 -->
<g id="edge26" class="edge">
<title>Node11&#45;&gt;Node32</title>
<path fill="none" stroke="#191970" d="M47.9218,-456.5243C54.9659,-502.5515 87.4552,-701.5394 129,-746 137.3177,-754.9015 149.1226,-760.5025 160.5946,-764.0264"/>
<polygon fill="#191970" stroke="#191970" points="159.9337,-767.4713 170.4943,-766.6193 161.7074,-760.6997 159.9337,-767.4713"/>
</g>
<!-- Node34 -->
<g id="node24" class="node">
<title>Node34</title>
<g id="a_node24"><a xlink:href="classFish.html#ac7121f25ba24b82a7faabd07702d7e73" target="_top" xlink:title="Calculate the probability of maturation. ">
<polygon fill="none" stroke="#000000" points="144,-532.5 144,-551.5 251,-551.5 251,-532.5 144,-532.5"/>
<text text-anchor="middle" x="197.5" y="-539.5" font-family="Helvetica,sans-Serif" font-size="10.00" fill="#000000">Fish::maturationProb</text>
</a>
</g>
</g>
<!-- Node11&#45;&gt;Node34 -->
<g id="edge29" class="edge">
<title>Node11&#45;&gt;Node34</title>
<path fill="none" stroke="#191970" d="M55.2621,-456.5625C69.4446,-471.5387 98.892,-500.6087 129,-518 136.3722,-522.2584 144.6242,-525.9407 152.7782,-529.0544"/>
<polygon fill="#191970" stroke="#191970" points="151.6521,-532.3688 162.2466,-532.4489 154.0145,-525.7794 151.6521,-532.3688"/>
</g>
<!-- Node35 -->
<g id="node25" class="node">
<title>Node35</title>
<g id="a_node25"><a xlink:href="classFish.html#ac6b4ad0b461d1e2bf97d13ed12a4984b" target="_top" xlink:title="Implement maturation is matureNow() returns true. ">
<polygon fill="none" stroke="#000000" points="144.5,-76.5 144.5,-95.5 250.5,-95.5 250.5,-76.5 144.5,-76.5"/>
<text text-anchor="middle" x="197.5" y="-83.5" font-family="Helvetica,sans-Serif" font-size="10.00" fill="#000000">Fish::updateMaturity</text>
</a>
</g>
</g>
<!-- Node11&#45;&gt;Node35 -->
<g id="edge31" class="edge">
<title>Node11&#45;&gt;Node35</title>
<path fill="none" stroke="#191970" d="M47.5081,-437.4177C52.9736,-387.2298 80.6055,-155.0617 129,-105 131.0506,-102.8788 133.3156,-100.988 135.737,-99.3032"/>
<polygon fill="#191970" stroke="#191970" points="137.5216,-102.3148 144.4883,-94.3327 134.0644,-96.2281 137.5216,-102.3148"/>
</g>
<!-- Node36 -->
<g id="node26" class="node">
<title>Node36</title>
<g id="a_node26"><a xlink:href="classFish.html#abe4b5c9e5d1f6d3c56cc6be997db71cd" target="_top" xlink:title="Implement growth, i.e., set new length and effective GSI after 1 year of growth. ">
<polygon fill="none" stroke="#000000" points="166.5,-798.5 166.5,-817.5 228.5,-817.5 228.5,-798.5 166.5,-798.5"/>
<text text-anchor="middle" x="197.5" y="-805.5" font-family="Helvetica,sans-Serif" font-size="10.00" fill="#000000">Fish::grow</text>
</a>
</g>
</g>
<!-- Node11&#45;&gt;Node36 -->
<g id="edge32" class="edge">
<title>Node11&#45;&gt;Node36</title>
<path fill="none" stroke="#191970" d="M47.5081,-456.5823C52.9736,-506.7702 80.6055,-738.9383 129,-789 136.2696,-796.52 146.2333,-801.1433 156.3106,-803.9636"/>
<polygon fill="#191970" stroke="#191970" points="155.8052,-807.4375 166.3302,-806.2235 157.3454,-800.609 155.8052,-807.4375"/>
</g>
<!-- Node37 -->
<g id="node27" class="node">
<title>Node37</title>
<g id="a_node27"><a xlink:href="classFish.html#a9550ba7371eef86c50349864bcf05b4a" target="_top" xlink:title="Calculate the number of surviving recruits produced based on egg production and offspring survival un...">
<polygon fill="none" stroke="#000000" points="141,-380.5 141,-399.5 254,-399.5 254,-380.5 141,-380.5"/>
<text text-anchor="middle" x="197.5" y="-387.5" font-family="Helvetica,sans-Serif" font-size="10.00" fill="#000000">Fish::produceRecruits</text>
</a>
</g>
</g>
<!-- Node11&#45;&gt;Node37 -->
<g id="edge37" class="edge">
<title>Node11&#45;&gt;Node37</title>
<path fill="none" stroke="#191970" d="M69.5103,-437.4843C86.0005,-430.7413 108.7782,-421.5828 129,-414 138.9111,-410.2835 149.6931,-406.422 159.7075,-402.9108"/>
<polygon fill="#191970" stroke="#191970" points="161.112,-406.1279 169.4053,-399.5346 158.8105,-399.5171 161.112,-406.1279"/>
</g>
<!-- Node38 -->
<g id="node28" class="node">
<title>Node38</title>
<g id="a_node28"><a xlink:href="classFish.html#ad814087dbccdd9e4268a6c87db801536" target="_top" xlink:title="Calculate the instantaneous matural mortality rate. ">
<polygon fill="none" stroke="#000000" points="133,-266.5 133,-285.5 262,-285.5 262,-266.5 133,-266.5"/>
<text text-anchor="middle" x="197.5" y="-273.5" font-family="Helvetica,sans-Serif" font-size="10.00" fill="#000000">Fish::naturalMortalityRate</text>
</a>
</g>
</g>
<!-- Node11&#45;&gt;Node38 -->
<g id="edge39" class="edge">
<title>Node11&#45;&gt;Node38</title>
<path fill="none" stroke="#191970" d="M48.8556,-437.4617C55.9806,-410.6567 79.8928,-334.0693 129,-295 131.2635,-293.1992 133.6867,-291.5688 136.2214,-290.0928"/>
<polygon fill="#191970" stroke="#191970" points="137.7916,-293.221 145.1988,-285.6458 134.6844,-286.9484 137.7916,-293.221"/>
</g>
<!-- Node39 -->
<g id="node29" class="node">
<title>Node39</title>
<g id="a_node29"><a xlink:href="classFish.html#aa5c5cb34e7f19c6a4ca93858adf3e16a" target="_top" xlink:title="Get the state of the fish. ">
<polygon fill="none" stroke="#000000" points="156.5,-38.5 156.5,-57.5 238.5,-57.5 238.5,-38.5 156.5,-38.5"/>
<text text-anchor="middle" x="197.5" y="-45.5" font-family="Helvetica,sans-Serif" font-size="10.00" fill="#000000">Fish::get_state</text>
</a>
</g>
</g>
<!-- Node11&#45;&gt;Node39 -->
<g id="edge41" class="edge">
<title>Node11&#45;&gt;Node39</title>
<path fill="none" stroke="#191970" d="M47.2589,-437.4375C51.682,-384.058 75.7998,-123.3102 129,-67 133.8403,-61.8768 139.9299,-58.0938 146.4707,-55.3081"/>
<polygon fill="#191970" stroke="#191970" points="147.9852,-58.4873 156.2835,-51.9003 145.6887,-51.8747 147.9852,-58.4873"/>
</g>
<!-- Node40 -->
<g id="node30" class="node">
<title>Node40</title>
<g id="a_node30"><a xlink:href="fish__glue_8cpp.html#a98419b0e357e28499fdbf638fbe73e50" target="_top" xlink:title="RCPP_EXPOSED_CLASS">
<polygon fill="none" stroke="#000000" points="129,-.5 129,-19.5 266,-19.5 266,-.5 129,-.5"/>
<text text-anchor="middle" x="197.5" y="-7.5" font-family="Helvetica,sans-Serif" font-size="10.00" fill="#000000">RCPP_EXPOSED_CLASS</text>
</a>
</g>
</g>
<!-- Node11&#45;&gt;Node40 -->
<g id="edge42" class="edge">
<title>Node11&#45;&gt;Node40</title>
<path fill="none" stroke="#191970" d="M47.0675,-437.245C50.571,-380.3289 71.0438,-91.5187 129,-29 130.2113,-27.6933 131.5039,-26.4736 132.8647,-25.3351"/>
<polygon fill="#191970" stroke="#191970" points="134.9608,-28.1436 141.3137,-19.6647 131.0599,-22.3312 134.9608,-28.1436"/>
</g>
<!-- Node13&#45;&gt;Node12 -->
<g id="edge3" class="edge">
<title>Node13&#45;&gt;Node12</title>
<path fill="none" stroke="#191970" d="M414.5195,-840.4021C429.2689,-838.5883 445.8862,-836.5447 461.6174,-834.6102"/>
<polygon fill="#191970" stroke="#191970" points="462.3006,-838.0526 471.7986,-833.3581 461.4462,-831.1049 462.3006,-838.0526"/>
</g>
<!-- Node20&#45;&gt;Node19 -->
<g id="edge11" class="edge">
<title>Node20&#45;&gt;Node19</title>
<path fill="none" stroke="#191970" d="M258.931,-314C273.5343,-314 289.1633,-314 303.9234,-314"/>
<polygon fill="#191970" stroke="#191970" points="303.9798,-317.5001 313.9798,-314 303.9797,-310.5001 303.9798,-317.5001"/>
</g>
<!-- Node21&#45;&gt;Node18 -->
<g id="edge13" class="edge">
<title>Node21&#45;&gt;Node18</title>
<path fill="none" stroke="#191970" d="M244.8171,-694C272.7021,-694 307.4237,-694 333.0568,-694"/>
<polygon fill="#191970" stroke="#191970" points="333.0926,-697.5001 343.0925,-694 333.0925,-690.5001 333.0926,-697.5001"/>
</g>
<!-- Node22&#45;&gt;Node18 -->
<g id="edge16" class="edge">
<title>Node22&#45;&gt;Node18</title>
<path fill="none" stroke="#191970" d="M240.7767,-665.589C269.461,-671.9447 306.6283,-680.18 333.5563,-686.1466"/>
<polygon fill="#191970" stroke="#191970" points="332.8159,-689.5674 343.3363,-688.3136 334.3303,-682.7331 332.8159,-689.5674"/>
</g>
<!-- Node23 -->
<g id="node13" class="node">
<title>Node23</title>
<g id="a_node13"><a xlink:href="classio_1_1Initializer.html#a6c174190ba99677aac35c5c7e92b69b8" target="_top" xlink:title="io::Initializer::parse">
<polygon fill="none" stroke="#000000" points="319.5,-646.5 319.5,-665.5 418.5,-665.5 418.5,-646.5 319.5,-646.5"/>
<text text-anchor="middle" x="369" y="-653.5" font-family="Helvetica,sans-Serif" font-size="10.00" fill="#000000">io::Initializer::parse</text>
</a>
</g>
</g>
<!-- Node22&#45;&gt;Node23 -->
<g id="edge15" class="edge">
<title>Node22&#45;&gt;Node23</title>
<path fill="none" stroke="#191970" d="M260.873,-656C276.6841,-656 293.5864,-656 309.2176,-656"/>
<polygon fill="#191970" stroke="#191970" points="309.2818,-659.5001 319.2817,-656 309.2817,-652.5001 309.2818,-659.5001"/>
</g>
<!-- Node24 -->
<g id="node14" class="node">
<title>Node24</title>
<g id="a_node14"><a xlink:href="classio_1_1Initializer.html#a098a8511a950a4449925c8315af36bdb" target="_top" xlink:title="io::Initializer::get">
<polygon fill="none" stroke="#000000" points="324.5,-608.5 324.5,-627.5 413.5,-627.5 413.5,-608.5 324.5,-608.5"/>
<text text-anchor="middle" x="369" y="-615.5" font-family="Helvetica,sans-Serif" font-size="10.00" fill="#000000">io::Initializer::get</text>
</a>
</g>
</g>
<!-- Node22&#45;&gt;Node24 -->
<g id="edge17" class="edge">
<title>Node22&#45;&gt;Node24</title>
<path fill="none" stroke="#191970" d="M240.7767,-646.411C263.6119,-641.3513 291.8232,-635.1004 315.9648,-629.7512"/>
<polygon fill="#191970" stroke="#191970" points="317.0285,-633.1005 326.0345,-627.5201 315.5141,-626.2663 317.0285,-633.1005"/>
</g>
<!-- Node25 -->
<g id="node15" class="node">
<title>Node25</title>
<g id="a_node15"><a xlink:href="classio_1_1Initializer.html#a06fe79d6d19f76180836e03e3ad6b7fb" target="_top" xlink:title="io::Initializer::get\l_value">
<polygon fill="none" stroke="#000000" points="479,-603 479,-633 568,-633 568,-603 479,-603"/>
<text text-anchor="start" x="487" y="-621" font-family="Helvetica,sans-Serif" font-size="10.00" fill="#000000">io::Initializer::get</text>
<text text-anchor="middle" x="523.5" y="-610" font-family="Helvetica,sans-Serif" font-size="10.00" fill="#000000">_value</text>
</a>
</g>
</g>
<!-- Node24&#45;&gt;Node25 -->
<g id="edge18" class="edge">
<title>Node24&#45;&gt;Node25</title>
<path fill="none" stroke="#191970" d="M413.6878,-618C430.9027,-618 450.7583,-618 468.8118,-618"/>
<polygon fill="#191970" stroke="#191970" points="468.9127,-621.5001 478.9126,-618 468.9126,-614.5001 468.9127,-621.5001"/>
</g>
<!-- Node26 -->
<g id="node16" class="node">
<title>Node26</title>
<g id="a_node16"><a xlink:href="classio_1_1Initializer.html#a310526fc5b0c2c257bee66d6f48fa4ae" target="_top" xlink:title="io::Initializer::get\l_section">
<polygon fill="none" stroke="#000000" points="611,-603 611,-633 700,-633 700,-603 611,-603"/>
<text text-anchor="start" x="619" y="-621" font-family="Helvetica,sans-Serif" font-size="10.00" fill="#000000">io::Initializer::get</text>
<text text-anchor="middle" x="655.5" y="-610" font-family="Helvetica,sans-Serif" font-size="10.00" fill="#000000">_section</text>
</a>
</g>
</g>
<!-- Node25&#45;&gt;Node26 -->
<g id="edge19" class="edge">
<title>Node25&#45;&gt;Node26</title>
<path fill="none" stroke="#191970" d="M568.1892,-618C578.6182,-618 589.8424,-618 600.6553,-618"/>
<polygon fill="#191970" stroke="#191970" points="600.8569,-621.5001 610.8568,-618 600.8568,-614.5001 600.8569,-621.5001"/>
</g>
<!-- Node31&#45;&gt;Node16 -->
<g id="edge25" class="edge">
<title>Node31&#45;&gt;Node16</title>
<path fill="none" stroke="#191970" d="M240.7767,-470.7945C263.2646,-473.2859 290.9663,-476.3549 314.8605,-479.002"/>
<polygon fill="#191970" stroke="#191970" points="314.5168,-482.4853 324.8415,-480.1078 315.2877,-475.5279 314.5168,-482.4853"/>
</g>
<!-- Node32&#45;&gt;Node12 -->
<g id="edge28" class="edge">
<title>Node32&#45;&gt;Node12</title>
<path fill="none" stroke="#191970" d="M224.6452,-760.5638C270.0181,-746.3615 363.433,-723.8852 436,-751 467.0784,-762.6125 494.4217,-790.7947 509.9485,-809.3844"/>
<polygon fill="#191970" stroke="#191970" points="507.4027,-811.8031 516.4043,-817.3909 512.852,-807.4093 507.4027,-811.8031"/>
</g>
<!-- Node33 -->
<g id="node23" class="node">
<title>Node33</title>
<g id="a_node23"><a xlink:href="namespacefish.html#a0ab1c4842d702a0a40bd04f26793ce12" target="_top" xlink:title="Compute the nonlinear growth increment , as follows . ">
<polygon fill="none" stroke="#000000" points="330.5,-760.5 330.5,-779.5 407.5,-779.5 407.5,-760.5 330.5,-760.5"/>
<text text-anchor="middle" x="369" y="-767.5" font-family="Helvetica,sans-Serif" font-size="10.00" fill="#000000">fish::dl_power</text>
</a>
</g>
</g>
<!-- Node32&#45;&gt;Node33 -->
<g id="edge27" class="edge">
<title>Node32&#45;&gt;Node33</title>
<path fill="none" stroke="#191970" d="M224.6747,-770C250.3016,-770 289.2986,-770 320.2982,-770"/>
<polygon fill="#191970" stroke="#191970" points="320.4737,-773.5001 330.4737,-770 320.4736,-766.5001 320.4737,-773.5001"/>
</g>
<!-- Node34&#45;&gt;Node15 -->
<g id="edge30" class="edge">
<title>Node34&#45;&gt;Node15</title>
<path fill="none" stroke="#191970" d="M251.2931,-547.9596C264.0527,-549.3732 277.9138,-550.9088 291.4964,-552.4136"/>
<polygon fill="#191970" stroke="#191970" points="291.4814,-555.9333 301.806,-553.5558 292.2522,-548.9758 291.4814,-555.9333"/>
</g>
<!-- Node36&#45;&gt;Node12 -->
<g id="edge35" class="edge">
<title>Node36&#45;&gt;Node12</title>
<path fill="none" stroke="#191970" d="M228.7583,-809.8218C282.1916,-812.936 392.0396,-819.3382 461.5005,-823.3865"/>
<polygon fill="#191970" stroke="#191970" points="461.6787,-826.9028 471.8654,-823.9906 462.086,-819.9146 461.6787,-826.9028"/>
</g>
<!-- Node36&#45;&gt;Node13 -->
<g id="edge34" class="edge">
<title>Node36&#45;&gt;Node13</title>
<path fill="none" stroke="#191970" d="M228.5574,-814.8815C252.9069,-820.2768 287.3545,-827.9095 316.039,-834.2652"/>
<polygon fill="#191970" stroke="#191970" points="315.3984,-837.7081 325.9188,-836.4543 316.9127,-830.8738 315.3984,-837.7081"/>
</g>
<!-- Node36&#45;&gt;Node18 -->
<g id="edge36" class="edge">
<title>Node36&#45;&gt;Node18</title>
<path fill="none" stroke="#191970" d="M228.6027,-803.1001C240.8605,-800.2421 254.6839,-795.8062 266,-789 285.9362,-777.0091 285.1158,-767.005 302,-751 317.2364,-736.557 335.4291,-721.1891 349.0096,-710.0544"/>
<polygon fill="#191970" stroke="#191970" points="351.2537,-712.7408 356.8017,-703.7147 346.8359,-707.3109 351.2537,-712.7408"/>
</g>
<!-- Node36&#45;&gt;Node33 -->
<g id="edge33" class="edge">
<title>Node36&#45;&gt;Node33</title>
<path fill="none" stroke="#191970" d="M228.5574,-801.1185C254.1158,-795.4554 290.7998,-787.3272 320.2667,-780.7981"/>
<polygon fill="#191970" stroke="#191970" points="321.3524,-784.1425 330.3584,-778.562 319.838,-777.3082 321.3524,-784.1425"/>
</g>
<!-- Node37&#45;&gt;Node17 -->
<g id="edge38" class="edge">
<title>Node37&#45;&gt;Node17</title>
<path fill="none" stroke="#191970" d="M254.1308,-396.274C275.331,-398.6227 299.2258,-401.2699 319.7096,-403.5393"/>
<polygon fill="#191970" stroke="#191970" points="319.4457,-407.0314 329.7704,-404.6539 320.2166,-400.0739 319.4457,-407.0314"/>
</g>
<!-- Node38&#45;&gt;Node19 -->
<g id="edge40" class="edge">
<title>Node38&#45;&gt;Node19</title>
<path fill="none" stroke="#191970" d="M240.7767,-285.589C263.6119,-290.6487 291.8232,-296.8996 315.9648,-302.2488"/>
<polygon fill="#191970" stroke="#191970" points="315.5141,-305.7337 326.0345,-304.4799 317.0285,-298.8995 315.5141,-305.7337"/>
</g>
</g>
</svg>
