<?xml version="1.0" encoding="UTF-8" standalone="no"?>
<!DOCTYPE svg PUBLIC "-//W3C//DTD SVG 1.1//EN"
 "http://www.w3.org/Graphics/SVG/1.1/DTD/svg11.dtd">
<!-- Generated by graphviz version 2.40.1 (20161225.0304)
 -->
<!-- Title: inst/include/fish.h Pages: 1 -->
<svg width="761pt" height="140pt"
 viewBox="0.00 0.00 761.00 140.00" xmlns="http://www.w3.org/2000/svg" xmlns:xlink="http://www.w3.org/1999/xlink">
<g id="graph0" class="graph" transform="scale(1 1) rotate(0) translate(4 136)">
<title>inst/include/fish.h</title>
<!-- Node0 -->
<g id="node1" class="node">
<title>Node0</title>
<polygon fill="#bfbfbf" stroke="#000000" points="226.5,-112.5 226.5,-131.5 319.5,-131.5 319.5,-112.5 226.5,-112.5"/>
<text text-anchor="middle" x="273" y="-119.5" font-family="Helvetica,sans-Serif" font-size="10.00" fill="#000000">inst/include/fish.h</text>
</g>
<!-- Node1 -->
<g id="node2" class="node">
<title>Node1</title>
<polygon fill="none" stroke="#bfbfbf" points="274,-.5 274,-19.5 318,-19.5 318,-.5 274,-.5"/>
<text text-anchor="middle" x="296" y="-7.5" font-family="Helvetica,sans-Serif" font-size="10.00" fill="#000000">vector</text>
</g>
<!-- Node0&#45;&gt;Node1 -->
<g id="edge1" class="edge">
<title>Node0&#45;&gt;Node1</title>
<path fill="none" stroke="#191970" d="M274.961,-112.4509C278.7292,-94.1013 287.0483,-53.5908 292.0224,-29.3693"/>
<polygon fill="#191970" stroke="#191970" points="295.4608,-30.0246 294.044,-19.5249 288.6039,-28.6164 295.4608,-30.0246"/>
</g>
<!-- Node2 -->
<g id="node3" class="node">
<title>Node2</title>
<polygon fill="none" stroke="#bfbfbf" points="232.5,-56.5 232.5,-75.5 267.5,-75.5 267.5,-56.5 232.5,-56.5"/>
<text text-anchor="middle" x="250" y="-63.5" font-family="Helvetica,sans-Serif" font-size="10.00" fill="#000000">map</text>
</g>
<!-- Node0&#45;&gt;Node2 -->
<g id="edge2" class="edge">
<title>Node0&#45;&gt;Node2</title>
<path fill="none" stroke="#191970" d="M268.9937,-112.2455C265.9265,-104.7776 261.5997,-94.2427 257.8503,-85.1137"/>
<polygon fill="#191970" stroke="#191970" points="260.9972,-83.5631 253.9604,-75.6427 254.5221,-86.2226 260.9972,-83.5631"/>
</g>
<!-- Node3 -->
<g id="node4" class="node">
<title>Node3</title>
<g id="a_node4"><a xlink:href="functions_8h.html" target="_top" xlink:title="functions.h">
<polygon fill="none" stroke="#000000" points="127.5,-56.5 127.5,-75.5 192.5,-75.5 192.5,-56.5 127.5,-56.5"/>
<text text-anchor="middle" x="160" y="-63.5" font-family="Helvetica,sans-Serif" font-size="10.00" fill="#000000">functions.h</text>
</a>
</g>
</g>
<!-- Node0&#45;&gt;Node3 -->
<g id="edge3" class="edge">
<title>Node0&#45;&gt;Node3</title>
<path fill="none" stroke="#191970" d="M253.5746,-112.3733C235.5979,-103.4644 208.6559,-90.1127 188.291,-80.0203"/>
<polygon fill="#191970" stroke="#191970" points="189.6861,-76.8055 179.1719,-75.5011 186.5778,-83.0776 189.6861,-76.8055"/>
</g>
<!-- Node8 -->
<g id="node9" class="node">
<title>Node8</title>
<g id="a_node9"><a xlink:href="initializer__v2_8h.html" target="_top" xlink:title="initializer_v2.h">
<polygon fill="none" stroke="#000000" points="396.5,-56.5 396.5,-75.5 475.5,-75.5 475.5,-56.5 396.5,-56.5"/>
<text text-anchor="middle" x="436" y="-63.5" font-family="Helvetica,sans-Serif" font-size="10.00" fill="#000000">initializer_v2.h</text>
</a>
</g>
</g>
<!-- Node0&#45;&gt;Node8 -->
<g id="edge8" class="edge">
<title>Node0&#45;&gt;Node8</title>
<path fill="none" stroke="#191970" d="M301.0207,-112.3733C328.0078,-103.1016 369.0017,-89.0178 398.7311,-78.804"/>
<polygon fill="#191970" stroke="#191970" points="400.0248,-82.0605 408.3449,-75.5011 397.7503,-75.4403 400.0248,-82.0605"/>
</g>
<!-- Node4 -->
<g id="node5" class="node">
<title>Node4</title>
<polygon fill="none" stroke="#bfbfbf" points="0,-.5 0,-19.5 44,-19.5 44,-.5 0,-.5"/>
<text text-anchor="middle" x="22" y="-7.5" font-family="Helvetica,sans-Serif" font-size="10.00" fill="#000000">cmath</text>
</g>
<!-- Node3&#45;&gt;Node4 -->
<g id="edge4" class="edge">
<title>Node3&#45;&gt;Node4</title>
<path fill="none" stroke="#191970" d="M136.277,-56.3733C113.4182,-47.0972 78.6896,-33.0045 53.517,-22.7895"/>
<polygon fill="#191970" stroke="#191970" points="54.63,-19.464 44.0478,-18.9469 51.9978,-25.9503 54.63,-19.464"/>
</g>
<!-- Node5 -->
<g id="node6" class="node">
<title>Node5</title>
<polygon fill="none" stroke="#bfbfbf" points="62,-.5 62,-19.5 118,-19.5 118,-.5 62,-.5"/>
<text text-anchor="middle" x="90" y="-7.5" font-family="Helvetica,sans-Serif" font-size="10.00" fill="#000000">algorithm</text>
</g>
<!-- Node3&#45;&gt;Node5 -->
<g id="edge5" class="edge">
<title>Node3&#45;&gt;Node5</title>
<path fill="none" stroke="#191970" d="M147.8069,-56.2455C137.3679,-47.8943 122.1345,-35.7076 109.926,-25.9408"/>
<polygon fill="#191970" stroke="#191970" points="112.0485,-23.1566 102.0533,-19.6427 107.6756,-28.6227 112.0485,-23.1566"/>
</g>
<!-- Node6 -->
<g id="node7" class="node">
<title>Node6</title>
<polygon fill="none" stroke="#bfbfbf" points="202,-.5 202,-19.5 256,-19.5 256,-.5 202,-.5"/>
<text text-anchor="middle" x="229" y="-7.5" font-family="Helvetica,sans-Serif" font-size="10.00" fill="#000000">iostream</text>
</g>
<!-- Node3&#45;&gt;Node6 -->
<g id="edge6" class="edge">
<title>Node3&#45;&gt;Node6</title>
<path fill="none" stroke="#191970" d="M172.0189,-56.2455C182.2098,-47.9746 197.0362,-35.9416 209.0107,-26.2232"/>
<polygon fill="#191970" stroke="#191970" points="211.5598,-28.662 217.1188,-19.6427 207.1486,-23.2268 211.5598,-28.662"/>
</g>
<!-- Node7 -->
<g id="node8" class="node">
<title>Node7</title>
<polygon fill="none" stroke="#bfbfbf" points="136,-.5 136,-19.5 184,-19.5 184,-.5 136,-.5"/>
<text text-anchor="middle" x="160" y="-7.5" font-family="Helvetica,sans-Serif" font-size="10.00" fill="#000000">Rcpp.h</text>
</g>
<!-- Node3&#45;&gt;Node7 -->
<g id="edge7" class="edge">
<title>Node3&#45;&gt;Node7</title>
<path fill="none" stroke="#191970" d="M160,-56.2455C160,-48.9382 160,-38.6944 160,-29.7046"/>
<polygon fill="#191970" stroke="#191970" points="163.5001,-29.6426 160,-19.6427 156.5001,-29.6427 163.5001,-29.6426"/>
</g>
<!-- Node8&#45;&gt;Node1 -->
<g id="edge13" class="edge">
<title>Node8&#45;&gt;Node1</title>
<path fill="none" stroke="#191970" d="M411.9331,-56.3733C388.7431,-47.0972 353.5112,-33.0045 327.9737,-22.7895"/>
<polygon fill="#191970" stroke="#191970" points="328.952,-19.4112 318.3673,-18.9469 326.3522,-25.9106 328.952,-19.4112"/>
</g>
<!-- Node8&#45;&gt;Node6 -->
<g id="edge9" class="edge">
<title>Node8&#45;&gt;Node6</title>
<path fill="none" stroke="#191970" d="M400.278,-56.4815C367.6955,-47.7793 317.9633,-34.4465 265.8709,-20.224"/>
<polygon fill="#191970" stroke="#191970" points="266.6892,-16.8194 256.1203,-17.5589 264.8436,-23.5717 266.6892,-16.8194"/>
</g>
<!-- Node9 -->
<g id="node10" class="node">
<title>Node9</title>
<polygon fill="none" stroke="#bfbfbf" points="584.5,-.5 584.5,-19.5 625.5,-19.5 625.5,-.5 584.5,-.5"/>
<text text-anchor="middle" x="605" y="-7.5" font-family="Helvetica,sans-Serif" font-size="10.00" fill="#000000">regex</text>
</g>
<!-- Node8&#45;&gt;Node9 -->
<g id="edge10" class="edge">
<title>Node8&#45;&gt;Node9</title>
<path fill="none" stroke="#191970" d="M465.539,-56.4328C491.9626,-47.8441 531.9861,-34.7606 574.9232,-20.3348"/>
<polygon fill="#191970" stroke="#191970" points="576.0567,-23.6463 584.4176,-17.1389 573.8235,-17.0121 576.0567,-23.6463"/>
</g>
<!-- Node10 -->
<g id="node11" class="node">
<title>Node10</title>
<polygon fill="none" stroke="#bfbfbf" points="643.5,-.5 643.5,-19.5 684.5,-19.5 684.5,-.5 643.5,-.5"/>
<text text-anchor="middle" x="664" y="-7.5" font-family="Helvetica,sans-Serif" font-size="10.00" fill="#000000">string</text>
</g>
<!-- Node8&#45;&gt;Node10 -->
<g id="edge11" class="edge">
<title>Node8&#45;&gt;Node10</title>
<path fill="none" stroke="#191970" d="M475.5811,-58.129C513.9152,-50.223 573.8257,-37.1234 633.8573,-20.1308"/>
<polygon fill="#191970" stroke="#191970" points="634.8409,-23.4899 643.4897,-17.3704 632.9124,-16.7608 634.8409,-23.4899"/>
</g>
<!-- Node11 -->
<g id="node12" class="node">
<title>Node11</title>
<polygon fill="none" stroke="#bfbfbf" points="703,-.5 703,-19.5 753,-19.5 753,-.5 703,-.5"/>
<text text-anchor="middle" x="728" y="-7.5" font-family="Helvetica,sans-Serif" font-size="10.00" fill="#000000">fstream</text>
</g>
<!-- Node8&#45;&gt;Node11 -->
<g id="edge12" class="edge">
<title>Node8&#45;&gt;Node11</title>
<path fill="none" stroke="#191970" d="M475.614,-60.3182C524.5577,-52.995 610.5185,-39.1468 693.0468,-20.0318"/>
<polygon fill="#191970" stroke="#191970" points="693.8947,-23.428 702.831,-17.7366 692.2959,-16.613 693.8947,-23.428"/>
</g>
<!-- Node12 -->
<g id="node13" class="node">
<title>Node12</title>
<polygon fill="none" stroke="#bfbfbf" points="336,-.5 336,-19.5 388,-19.5 388,-.5 336,-.5"/>
<text text-anchor="middle" x="362" y="-7.5" font-family="Helvetica,sans-Serif" font-size="10.00" fill="#000000">sstream</text>
</g>
<!-- Node8&#45;&gt;Node12 -->
<g id="edge14" class="edge">
<title>Node8&#45;&gt;Node12</title>
<path fill="none" stroke="#191970" d="M423.1102,-56.2455C412.0746,-47.8943 395.9708,-35.7076 383.0647,-25.9408"/>
<polygon fill="#191970" stroke="#191970" points="384.8283,-22.8862 374.7421,-19.6427 380.6041,-28.4681 384.8283,-22.8862"/>
</g>
<!-- Node13 -->
<g id="node14" class="node">
<title>Node13</title>
<polygon fill="none" stroke="#bfbfbf" points="406.5,-.5 406.5,-19.5 465.5,-19.5 465.5,-.5 406.5,-.5"/>
<text text-anchor="middle" x="436" y="-7.5" font-family="Helvetica,sans-Serif" font-size="10.00" fill="#000000">stdexcept</text>
</g>
<!-- Node8&#45;&gt;Node13 -->
<g id="edge15" class="edge">
<title>Node8&#45;&gt;Node13</title>
<path fill="none" stroke="#191970" d="M436,-56.2455C436,-48.9382 436,-38.6944 436,-29.7046"/>
<polygon fill="#191970" stroke="#191970" points="439.5001,-29.6426 436,-19.6427 432.5001,-29.6427 439.5001,-29.6426"/>
</g>
<!-- Node14 -->
<g id="node15" class="node">
<title>Node14</title>
<polygon fill="none" stroke="#bfbfbf" points="483.5,-.5 483.5,-19.5 566.5,-19.5 566.5,-.5 483.5,-.5"/>
<text text-anchor="middle" x="525" y="-7.5" font-family="Helvetica,sans-Serif" font-size="10.00" fill="#000000">unordered_map</text>
</g>
<!-- Node8&#45;&gt;Node14 -->
<g id="edge16" class="edge">
<title>Node8&#45;&gt;Node14</title>
<path fill="none" stroke="#191970" d="M451.5026,-56.2455C465.158,-47.6534 485.2657,-35.0014 500.9989,-25.1018"/>
<polygon fill="#191970" stroke="#191970" points="503.0751,-27.9307 509.675,-19.6427 499.3471,-22.006 503.0751,-27.9307"/>
</g>
</g>
</svg>
