<?xml version="1.0" encoding="UTF-8" standalone="no"?>
<!DOCTYPE svg PUBLIC "-//W3C//DTD SVG 1.1//EN"
 "http://www.w3.org/Graphics/SVG/1.1/DTD/svg11.dtd">
<!-- Generated by graphviz version 2.40.1 (20161225.0304)
 -->
<!-- Title: inst/include/fish.h Pages: 1 -->
<svg width="264pt" height="140pt"
 viewBox="0.00 0.00 264.00 140.00" xmlns="http://www.w3.org/2000/svg" xmlns:xlink="http://www.w3.org/1999/xlink">
<g id="graph0" class="graph" transform="scale(1 1) rotate(0) translate(4 136)">
<title>inst/include/fish.h</title>
<!-- Node0 -->
<g id="node1" class="node">
<title>Node0</title>
<polygon fill="#bfbfbf" stroke="#000000" points="42.5,-112.5 42.5,-131.5 135.5,-131.5 135.5,-112.5 42.5,-112.5"/>
<text text-anchor="middle" x="89" y="-119.5" font-family="Helvetica,sans-Serif" font-size="10.00" fill="#000000">inst/include/fish.h</text>
</g>
<!-- Node1 -->
<g id="node2" class="node">
<title>Node1</title>
<polygon fill="none" stroke="#bfbfbf" points="31,-56.5 31,-75.5 75,-75.5 75,-56.5 31,-56.5"/>
<text text-anchor="middle" x="53" y="-63.5" font-family="Helvetica,sans-Serif" font-size="10.00" fill="#000000">vector</text>
</g>
<!-- Node0&#45;&gt;Node1 -->
<g id="edge1" class="edge">
<title>Node0&#45;&gt;Node1</title>
<path fill="none" stroke="#191970" d="M82.7293,-112.2455C77.7736,-104.5367 70.717,-93.5598 64.7224,-84.2348"/>
<polygon fill="#191970" stroke="#191970" points="67.5506,-82.1618 59.1989,-75.6427 61.6624,-85.9471 67.5506,-82.1618"/>
</g>
<!-- Node2 -->
<g id="node3" class="node">
<title>Node2</title>
<g id="a_node3"><a xlink:href="functions_8h.html" target="_top" xlink:title="functions.h">
<polygon fill="none" stroke="#000000" points="93.5,-56.5 93.5,-75.5 158.5,-75.5 158.5,-56.5 93.5,-56.5"/>
<text text-anchor="middle" x="126" y="-63.5" font-family="Helvetica,sans-Serif" font-size="10.00" fill="#000000">functions.h</text>
</a>
</g>
</g>
<!-- Node0&#45;&gt;Node2 -->
<g id="edge2" class="edge">
<title>Node0&#45;&gt;Node2</title>
<path fill="none" stroke="#191970" d="M95.4449,-112.2455C100.5382,-104.5367 107.7908,-93.5598 113.952,-84.2348"/>
<polygon fill="#191970" stroke="#191970" points="117.0365,-85.9155 119.6289,-75.6427 111.1962,-82.0566 117.0365,-85.9155"/>
</g>
<!-- Node3 -->
<g id="node4" class="node">
<title>Node3</title>
<polygon fill="none" stroke="#bfbfbf" points="0,-.5 0,-19.5 44,-19.5 44,-.5 0,-.5"/>
<text text-anchor="middle" x="22" y="-7.5" font-family="Helvetica,sans-Serif" font-size="10.00" fill="#000000">cmath</text>
</g>
<!-- Node2&#45;&gt;Node3 -->
<g id="edge3" class="edge">
<title>Node2&#45;&gt;Node3</title>
<path fill="none" stroke="#191970" d="M107.8846,-56.2455C91.555,-47.4527 67.329,-34.4079 48.7661,-24.4125"/>
<polygon fill="#191970" stroke="#191970" points="50.3719,-21.3021 39.9078,-19.6427 47.0532,-27.4654 50.3719,-21.3021"/>
</g>
<!-- Node4 -->
<g id="node5" class="node">
<title>Node4</title>
<polygon fill="none" stroke="#bfbfbf" points="62,-.5 62,-19.5 118,-19.5 118,-.5 62,-.5"/>
<text text-anchor="middle" x="90" y="-7.5" font-family="Helvetica,sans-Serif" font-size="10.00" fill="#000000">algorithm</text>
</g>
<!-- Node2&#45;&gt;Node4 -->
<g id="edge4" class="edge">
<title>Node2&#45;&gt;Node4</title>
<path fill="none" stroke="#191970" d="M119.7293,-56.2455C114.7736,-48.5367 107.717,-37.5598 101.7224,-28.2348"/>
<polygon fill="#191970" stroke="#191970" points="104.5506,-26.1618 96.1989,-19.6427 98.6624,-29.9471 104.5506,-26.1618"/>
</g>
<!-- Node5 -->
<g id="node6" class="node">
<title>Node5</title>
<polygon fill="none" stroke="#bfbfbf" points="136,-.5 136,-19.5 190,-19.5 190,-.5 136,-.5"/>
<text text-anchor="middle" x="163" y="-7.5" font-family="Helvetica,sans-Serif" font-size="10.00" fill="#000000">iostream</text>
</g>
<!-- Node2&#45;&gt;Node5 -->
<g id="edge5" class="edge">
<title>Node2&#45;&gt;Node5</title>
<path fill="none" stroke="#191970" d="M132.4449,-56.2455C137.5382,-48.5367 144.7908,-37.5598 150.952,-28.2348"/>
<polygon fill="#191970" stroke="#191970" points="154.0365,-29.9155 156.6289,-19.6427 148.1962,-26.0566 154.0365,-29.9155"/>
</g>
<!-- Node6 -->
<g id="node7" class="node">
<title>Node6</title>
<polygon fill="none" stroke="#bfbfbf" points="208,-.5 208,-19.5 256,-19.5 256,-.5 208,-.5"/>
<text text-anchor="middle" x="232" y="-7.5" font-family="Helvetica,sans-Serif" font-size="10.00" fill="#000000">Rcpp.h</text>
</g>
<!-- Node2&#45;&gt;Node6 -->
<g id="edge6" class="edge">
<title>Node2&#45;&gt;Node6</title>
<path fill="none" stroke="#191970" d="M144.4638,-56.2455C161.1074,-47.4527 185.7993,-34.4079 204.7192,-24.4125"/>
<polygon fill="#191970" stroke="#191970" points="206.5408,-27.4086 213.7478,-19.6427 203.2709,-21.2193 206.5408,-27.4086"/>
</g>
</g>
</svg>
