<?xml version="1.0" encoding="UTF-8" standalone="no"?>
<!DOCTYPE svg PUBLIC "-//W3C//DTD SVG 1.1//EN"
 "http://www.w3.org/Graphics/SVG/1.1/DTD/svg11.dtd">
<!-- Generated by graphviz version 2.40.1 (20161225.0304)
 -->
<!-- Title: inst/include/fisheRy.h Pages: 1 -->
<svg width="761pt" height="252pt"
 viewBox="0.00 0.00 760.50 252.00" xmlns="http://www.w3.org/2000/svg" xmlns:xlink="http://www.w3.org/1999/xlink">
<g id="graph0" class="graph" transform="scale(1 1) rotate(0) translate(4 248)">
<title>inst/include/fisheRy.h</title>
<!-- Node0 -->
<g id="node1" class="node">
<title>Node0</title>
<polygon fill="#bfbfbf" stroke="#000000" points="342,-224.5 342,-243.5 453,-243.5 453,-224.5 342,-224.5"/>
<text text-anchor="middle" x="397.5" y="-231.5" font-family="Helvetica,sans-Serif" font-size="10.00" fill="#000000">inst/include/fisheRy.h</text>
</g>
<!-- Node1 -->
<g id="node2" class="node">
<title>Node1</title>
<g id="a_node2"><a xlink:href="fish_8h.html" target="_top" xlink:title="fish.h">
<polygon fill="none" stroke="#000000" points="346,-112.5 346,-131.5 387,-131.5 387,-112.5 346,-112.5"/>
<text text-anchor="middle" x="366.5" y="-119.5" font-family="Helvetica,sans-Serif" font-size="10.00" fill="#000000">fish.h</text>
</a>
</g>
</g>
<!-- Node0&#45;&gt;Node1 -->
<g id="edge1" class="edge">
<title>Node0&#45;&gt;Node1</title>
<path fill="none" stroke="#191970" d="M394.857,-224.4509C389.778,-206.1013 378.5653,-165.5908 371.8612,-141.3693"/>
<polygon fill="#191970" stroke="#191970" points="375.1772,-140.2289 369.1364,-131.5249 368.4308,-142.0962 375.1772,-140.2289"/>
</g>
<!-- Node16 -->
<g id="node17" class="node">
<title>Node16</title>
<g id="a_node17"><a xlink:href="population_8h.html" target="_top" xlink:title="population.h">
<polygon fill="none" stroke="#000000" points="395,-168.5 395,-187.5 464,-187.5 464,-168.5 395,-168.5"/>
<text text-anchor="middle" x="429.5" y="-175.5" font-family="Helvetica,sans-Serif" font-size="10.00" fill="#000000">population.h</text>
</a>
</g>
</g>
<!-- Node0&#45;&gt;Node16 -->
<g id="edge18" class="edge">
<title>Node0&#45;&gt;Node16</title>
<path fill="none" stroke="#191970" d="M403.074,-224.2455C407.4331,-216.617 413.6211,-205.7881 418.9133,-196.5267"/>
<polygon fill="#191970" stroke="#191970" points="422.0673,-198.0616 423.9899,-187.6427 415.9896,-194.5886 422.0673,-198.0616"/>
</g>
<!-- Node2 -->
<g id="node3" class="node">
<title>Node2</title>
<polygon fill="none" stroke="#bfbfbf" points="434.5,-.5 434.5,-19.5 478.5,-19.5 478.5,-.5 434.5,-.5"/>
<text text-anchor="middle" x="456.5" y="-7.5" font-family="Helvetica,sans-Serif" font-size="10.00" fill="#000000">vector</text>
</g>
<!-- Node1&#45;&gt;Node2 -->
<g id="edge2" class="edge">
<title>Node1&#45;&gt;Node2</title>
<path fill="none" stroke="#191970" d="M374.1733,-112.4509C389.3171,-93.6054 423.2443,-51.3849 442.4842,-27.4419"/>
<polygon fill="#191970" stroke="#191970" points="445.3104,-29.5124 448.8461,-19.5249 439.8538,-25.1276 445.3104,-29.5124"/>
</g>
<!-- Node3 -->
<g id="node4" class="node">
<title>Node3</title>
<polygon fill="none" stroke="#bfbfbf" points="249,-56.5 249,-75.5 284,-75.5 284,-56.5 249,-56.5"/>
<text text-anchor="middle" x="266.5" y="-63.5" font-family="Helvetica,sans-Serif" font-size="10.00" fill="#000000">map</text>
</g>
<!-- Node1&#45;&gt;Node3 -->
<g id="edge3" class="edge">
<title>Node1&#45;&gt;Node3</title>
<path fill="none" stroke="#191970" d="M349.0813,-112.2455C333.4515,-103.4928 310.2981,-90.527 292.4815,-80.5496"/>
<polygon fill="#191970" stroke="#191970" points="294.1543,-77.475 283.7191,-75.6427 290.734,-83.5825 294.1543,-77.475"/>
</g>
<!-- Node4 -->
<g id="node5" class="node">
<title>Node4</title>
<g id="a_node5"><a xlink:href="functions_8h.html" target="_top" xlink:title="functions.h">
<polygon fill="none" stroke="#000000" points="558,-56.5 558,-75.5 623,-75.5 623,-56.5 558,-56.5"/>
<text text-anchor="middle" x="590.5" y="-63.5" font-family="Helvetica,sans-Serif" font-size="10.00" fill="#000000">functions.h</text>
</a>
</g>
</g>
<!-- Node1&#45;&gt;Node4 -->
<g id="edge4" class="edge">
<title>Node1&#45;&gt;Node4</title>
<path fill="none" stroke="#191970" d="M387.0818,-114.8716C390.2226,-113.8617 393.4374,-112.8717 396.5,-112 448.1053,-97.3124 508.3422,-83.5466 547.8382,-74.9712"/>
<polygon fill="#191970" stroke="#191970" points="548.6243,-78.3822 557.6616,-72.8525 547.1484,-71.5395 548.6243,-78.3822"/>
</g>
<!-- Node9 -->
<g id="node10" class="node">
<title>Node9</title>
<g id="a_node10"><a xlink:href="initializer__v2_8h.html" target="_top" xlink:title="initializer_v2.h">
<polygon fill="none" stroke="#000000" points="302,-56.5 302,-75.5 381,-75.5 381,-56.5 302,-56.5"/>
<text text-anchor="middle" x="341.5" y="-63.5" font-family="Helvetica,sans-Serif" font-size="10.00" fill="#000000">initializer_v2.h</text>
</a>
</g>
</g>
<!-- Node1&#45;&gt;Node9 -->
<g id="edge9" class="edge">
<title>Node1&#45;&gt;Node9</title>
<path fill="none" stroke="#191970" d="M362.1453,-112.2455C358.7756,-104.6973 354.007,-94.0158 349.9017,-84.8197"/>
<polygon fill="#191970" stroke="#191970" points="353.0773,-83.3473 345.8048,-75.6427 346.6853,-86.2009 353.0773,-83.3473"/>
</g>
<!-- Node5 -->
<g id="node6" class="node">
<title>Node5</title>
<polygon fill="none" stroke="#bfbfbf" points="568.5,-.5 568.5,-19.5 612.5,-19.5 612.5,-.5 568.5,-.5"/>
<text text-anchor="middle" x="590.5" y="-7.5" font-family="Helvetica,sans-Serif" font-size="10.00" fill="#000000">cmath</text>
</g>
<!-- Node4&#45;&gt;Node5 -->
<g id="edge5" class="edge">
<title>Node4&#45;&gt;Node5</title>
<path fill="none" stroke="#191970" d="M590.5,-56.2455C590.5,-48.9382 590.5,-38.6944 590.5,-29.7046"/>
<polygon fill="#191970" stroke="#191970" points="594.0001,-29.6426 590.5,-19.6427 587.0001,-29.6427 594.0001,-29.6426"/>
</g>
<!-- Node6 -->
<g id="node7" class="node">
<title>Node6</title>
<polygon fill="none" stroke="#bfbfbf" points="630.5,-.5 630.5,-19.5 686.5,-19.5 686.5,-.5 630.5,-.5"/>
<text text-anchor="middle" x="658.5" y="-7.5" font-family="Helvetica,sans-Serif" font-size="10.00" fill="#000000">algorithm</text>
</g>
<!-- Node4&#45;&gt;Node6 -->
<g id="edge6" class="edge">
<title>Node4&#45;&gt;Node6</title>
<path fill="none" stroke="#191970" d="M602.3447,-56.2455C612.388,-47.9746 626.9995,-35.9416 638.8004,-26.2232"/>
<polygon fill="#191970" stroke="#191970" points="641.2967,-28.7015 646.791,-19.6427 636.8467,-23.298 641.2967,-28.7015"/>
</g>
<!-- Node7 -->
<g id="node8" class="node">
<title>Node7</title>
<polygon fill="none" stroke="#bfbfbf" points="496.5,-.5 496.5,-19.5 550.5,-19.5 550.5,-.5 496.5,-.5"/>
<text text-anchor="middle" x="523.5" y="-7.5" font-family="Helvetica,sans-Serif" font-size="10.00" fill="#000000">iostream</text>
</g>
<!-- Node4&#45;&gt;Node7 -->
<g id="edge7" class="edge">
<title>Node4&#45;&gt;Node7</title>
<path fill="none" stroke="#191970" d="M578.8295,-56.2455C568.9339,-47.9746 554.5373,-35.9416 542.9099,-26.2232"/>
<polygon fill="#191970" stroke="#191970" points="544.9542,-23.3703 535.0368,-19.6427 540.465,-28.7413 544.9542,-23.3703"/>
</g>
<!-- Node8 -->
<g id="node9" class="node">
<title>Node8</title>
<polygon fill="none" stroke="#bfbfbf" points="704.5,-.5 704.5,-19.5 752.5,-19.5 752.5,-.5 704.5,-.5"/>
<text text-anchor="middle" x="728.5" y="-7.5" font-family="Helvetica,sans-Serif" font-size="10.00" fill="#000000">Rcpp.h</text>
</g>
<!-- Node4&#45;&gt;Node8 -->
<g id="edge8" class="edge">
<title>Node4&#45;&gt;Node8</title>
<path fill="none" stroke="#191970" d="M614.223,-56.3733C636.6737,-47.2629 670.5739,-33.5062 695.6255,-23.3404"/>
<polygon fill="#191970" stroke="#191970" points="697.1365,-26.5045 705.0865,-19.5011 694.5043,-20.0182 697.1365,-26.5045"/>
</g>
<!-- Node9&#45;&gt;Node2 -->
<g id="edge14" class="edge">
<title>Node9&#45;&gt;Node2</title>
<path fill="none" stroke="#191970" d="M361.2692,-56.3733C379.6469,-47.4241 407.2312,-33.9917 427.9893,-23.8835"/>
<polygon fill="#191970" stroke="#191970" points="429.5304,-27.026 436.9888,-19.5011 426.4657,-20.7325 429.5304,-27.026"/>
</g>
<!-- Node9&#45;&gt;Node7 -->
<g id="edge10" class="edge">
<title>Node9&#45;&gt;Node7</title>
<path fill="none" stroke="#191970" d="M372.7869,-56.3733C404.3791,-46.6526 453.1625,-31.6423 486.6183,-21.3482"/>
<polygon fill="#191970" stroke="#191970" points="487.9446,-24.6021 496.473,-18.316 485.8859,-17.9117 487.9446,-24.6021"/>
</g>
<!-- Node10 -->
<g id="node11" class="node">
<title>Node10</title>
<polygon fill="none" stroke="#bfbfbf" points="178,-.5 178,-19.5 219,-19.5 219,-.5 178,-.5"/>
<text text-anchor="middle" x="198.5" y="-7.5" font-family="Helvetica,sans-Serif" font-size="10.00" fill="#000000">regex</text>
</g>
<!-- Node9&#45;&gt;Node10 -->
<g id="edge11" class="edge">
<title>Node9&#45;&gt;Node10</title>
<path fill="none" stroke="#191970" d="M316.9174,-56.3733C292.4175,-46.7789 254.759,-32.0315 228.5092,-21.7519"/>
<polygon fill="#191970" stroke="#191970" points="229.6463,-18.4384 219.0586,-18.0509 227.0938,-24.9564 229.6463,-18.4384"/>
</g>
<!-- Node11 -->
<g id="node12" class="node">
<title>Node11</title>
<polygon fill="none" stroke="#bfbfbf" points="237,-.5 237,-19.5 278,-19.5 278,-.5 237,-.5"/>
<text text-anchor="middle" x="257.5" y="-7.5" font-family="Helvetica,sans-Serif" font-size="10.00" fill="#000000">string</text>
</g>
<!-- Node9&#45;&gt;Node11 -->
<g id="edge12" class="edge">
<title>Node9&#45;&gt;Node11</title>
<path fill="none" stroke="#191970" d="M326.8683,-56.2455C314.1006,-47.7337 295.3562,-35.2375 280.5701,-25.3801"/>
<polygon fill="#191970" stroke="#191970" points="282.226,-22.2775 271.964,-19.6427 278.3431,-28.1019 282.226,-22.2775"/>
</g>
<!-- Node12 -->
<g id="node13" class="node">
<title>Node12</title>
<polygon fill="none" stroke="#bfbfbf" points="296.5,-.5 296.5,-19.5 346.5,-19.5 346.5,-.5 296.5,-.5"/>
<text text-anchor="middle" x="321.5" y="-7.5" font-family="Helvetica,sans-Serif" font-size="10.00" fill="#000000">fstream</text>
</g>
<!-- Node9&#45;&gt;Node12 -->
<g id="edge13" class="edge">
<title>Node9&#45;&gt;Node12</title>
<path fill="none" stroke="#191970" d="M338.0163,-56.2455C335.3492,-48.7776 331.5867,-38.2427 328.3263,-29.1137"/>
<polygon fill="#191970" stroke="#191970" points="331.6033,-27.8829 324.9438,-19.6427 325.0111,-30.2373 331.6033,-27.8829"/>
</g>
<!-- Node13 -->
<g id="node14" class="node">
<title>Node13</title>
<polygon fill="none" stroke="#bfbfbf" points="364.5,-.5 364.5,-19.5 416.5,-19.5 416.5,-.5 364.5,-.5"/>
<text text-anchor="middle" x="390.5" y="-7.5" font-family="Helvetica,sans-Serif" font-size="10.00" fill="#000000">sstream</text>
</g>
<!-- Node9&#45;&gt;Node13 -->
<g id="edge15" class="edge">
<title>Node9&#45;&gt;Node13</title>
<path fill="none" stroke="#191970" d="M350.0351,-56.2455C356.9912,-48.2958 366.9883,-36.8706 375.3051,-27.3656"/>
<polygon fill="#191970" stroke="#191970" points="378.1116,-29.4732 382.0627,-19.6427 372.8436,-24.8637 378.1116,-29.4732"/>
</g>
<!-- Node14 -->
<g id="node15" class="node">
<title>Node14</title>
<polygon fill="none" stroke="#bfbfbf" points="0,-.5 0,-19.5 59,-19.5 59,-.5 0,-.5"/>
<text text-anchor="middle" x="29.5" y="-7.5" font-family="Helvetica,sans-Serif" font-size="10.00" fill="#000000">stdexcept</text>
</g>
<!-- Node9&#45;&gt;Node14 -->
<g id="edge16" class="edge">
<title>Node9&#45;&gt;Node14</title>
<path fill="none" stroke="#191970" d="M301.9476,-57.7773C298.7544,-57.1595 295.5751,-56.5595 292.5,-56 195.9776,-38.4372 168.3031,-40.7426 69.1298,-20.2011"/>
<polygon fill="#191970" stroke="#191970" points="69.81,-16.7677 59.3044,-18.1405 68.3731,-23.6186 69.81,-16.7677"/>
</g>
<!-- Node15 -->
<g id="node16" class="node">
<title>Node15</title>
<polygon fill="none" stroke="#bfbfbf" points="77,-.5 77,-19.5 160,-19.5 160,-.5 77,-.5"/>
<text text-anchor="middle" x="118.5" y="-7.5" font-family="Helvetica,sans-Serif" font-size="10.00" fill="#000000">unordered_map</text>
</g>
<!-- Node9&#45;&gt;Node15 -->
<g id="edge17" class="edge">
<title>Node9&#45;&gt;Node15</title>
<path fill="none" stroke="#191970" d="M303.4183,-56.4369C265.4941,-46.9133 207.1711,-32.2672 166.1874,-21.9753"/>
<polygon fill="#191970" stroke="#191970" points="166.976,-18.5647 156.4246,-19.5237 165.271,-25.3539 166.976,-18.5647"/>
</g>
<!-- Node16&#45;&gt;Node1 -->
<g id="edge22" class="edge">
<title>Node16&#45;&gt;Node1</title>
<path fill="none" stroke="#191970" d="M418.5262,-168.2455C409.3118,-160.0549 395.9468,-148.1749 385.0703,-138.5069"/>
<polygon fill="#191970" stroke="#191970" points="387.1474,-135.6704 377.348,-131.6427 382.4968,-140.9023 387.1474,-135.6704"/>
</g>
<!-- Node16&#45;&gt;Node2 -->
<g id="edge19" class="edge">
<title>Node16&#45;&gt;Node2</title>
<path fill="none" stroke="#191970" d="M439.4362,-168.4913C447.676,-159.8654 458.7767,-146.3368 463.5,-132 474.8985,-97.4018 467.8577,-54.3319 461.9849,-29.7188"/>
<polygon fill="#191970" stroke="#191970" points="465.3166,-28.6207 459.4392,-19.8056 458.5365,-30.3619 465.3166,-28.6207"/>
</g>
<!-- Node16&#45;&gt;Node8 -->
<g id="edge21" class="edge">
<title>Node16&#45;&gt;Node8</title>
<path fill="none" stroke="#191970" d="M450.7502,-168.4932C488.2647,-151.4547 568.3314,-113.9389 632.5,-76 659.2532,-60.1825 688.478,-39.5741 707.5681,-25.6253"/>
<polygon fill="#191970" stroke="#191970" points="709.8485,-28.2927 715.8253,-19.5447 705.6977,-22.6561 709.8485,-28.2927"/>
</g>
<!-- Node17 -->
<g id="node18" class="node">
<title>Node17</title>
<polygon fill="none" stroke="#bfbfbf" points="405,-112.5 405,-131.5 454,-131.5 454,-112.5 405,-112.5"/>
<text text-anchor="middle" x="429.5" y="-119.5" font-family="Helvetica,sans-Serif" font-size="10.00" fill="#000000">random</text>
</g>
<!-- Node16&#45;&gt;Node17 -->
<g id="edge20" class="edge">
<title>Node16&#45;&gt;Node17</title>
<path fill="none" stroke="#191970" d="M429.5,-168.2455C429.5,-160.9382 429.5,-150.6944 429.5,-141.7046"/>
<polygon fill="#191970" stroke="#191970" points="433.0001,-141.6426 429.5,-131.6427 426.0001,-141.6427 433.0001,-141.6426"/>
</g>
</g>
</svg>
