<?xml version="1.0" encoding="UTF-8" standalone="no"?>
<!DOCTYPE svg PUBLIC "-//W3C//DTD SVG 1.1//EN"
 "http://www.w3.org/Graphics/SVG/1.1/DTD/svg11.dtd">
<!-- Generated by graphviz version 2.40.1 (20161225.0304)
 -->
<!-- Title: RCPP_MODULE Pages: 1 -->
<svg width="934pt" height="469pt"
 viewBox="0.00 0.00 934.00 468.62" xmlns="http://www.w3.org/2000/svg" xmlns:xlink="http://www.w3.org/1999/xlink">
<g id="graph0" class="graph" transform="scale(1 1) rotate(0) translate(4 464.6222)">
<title>RCPP_MODULE</title>
<!-- Node49 -->
<g id="node1" class="node">
<title>Node49</title>
<polygon fill="#bfbfbf" stroke="#000000" points="0,-253.1222 0,-272.1222 93,-272.1222 93,-253.1222 0,-253.1222"/>
<text text-anchor="middle" x="46.5" y="-260.1222" font-family="Helvetica,sans-Serif" font-size="10.00" fill="#000000">RCPP_MODULE</text>
</g>
<!-- Node50 -->
<g id="node2" class="node">
<title>Node50</title>
<g id="a_node2"><a xlink:href="classSimulator.html#a1e385d56b6ae6694463f127b5f1d98d5" target="_top" xlink:title="Simulator::setNaturalPopulation">
<polygon fill="none" stroke="#000000" points="129,-398.1222 129,-417.1222 284,-417.1222 284,-398.1222 129,-398.1222"/>
<text text-anchor="middle" x="206.5" y="-405.1222" font-family="Helvetica,sans-Serif" font-size="10.00" fill="#000000">Simulator::setNaturalPopulation</text>
</a>
</g>
</g>
<!-- Node49&#45;&gt;Node50 -->
<g id="edge1" class="edge">
<title>Node49&#45;&gt;Node50</title>
<path fill="none" stroke="#191970" d="M50.45,-272.4285C60.2077,-295.4094 87.6935,-353.1018 129,-383.6222 134.8412,-387.9382 141.4734,-391.4891 148.3411,-394.4082"/>
<polygon fill="#191970" stroke="#191970" points="147.2088,-397.7222 157.7998,-398.0096 149.6997,-391.1803 147.2088,-397.7222"/>
</g>
<!-- Node51 -->
<g id="node3" class="node">
<title>Node51</title>
<g id="a_node3"><a xlink:href="classSimulator.html#a16eef6e60e97dabc2a1205b58b10182c" target="_top" xlink:title="Simulator::simulate_r">
<polygon fill="none" stroke="#000000" points="320,-339.1222 320,-358.1222 429,-358.1222 429,-339.1222 320,-339.1222"/>
<text text-anchor="middle" x="374.5" y="-346.1222" font-family="Helvetica,sans-Serif" font-size="10.00" fill="#000000">Simulator::simulate_r</text>
</a>
</g>
</g>
<!-- Node49&#45;&gt;Node51 -->
<g id="edge2" class="edge">
<title>Node49&#45;&gt;Node51</title>
<path fill="none" stroke="#191970" d="M58.8327,-272.293C74.2939,-283.877 102.0506,-302.9303 129,-312.6222 187.9702,-333.83 259.1982,-342.5598 309.7091,-346.1447"/>
<polygon fill="#191970" stroke="#191970" points="309.6337,-349.6473 319.8429,-346.8148 310.0956,-342.6625 309.6337,-349.6473"/>
</g>
<!-- Node60 -->
<g id="node12" class="node">
<title>Node60</title>
<g id="a_node12"><a xlink:href="classSimulator.html#adb6faf4ee69f21998ce7dc79c065a3e9" target="_top" xlink:title="Simulator::simulate\l_multi_r">
<polygon fill="none" stroke="#000000" points="156,-272.6222 156,-302.6222 257,-302.6222 257,-272.6222 156,-272.6222"/>
<text text-anchor="start" x="164" y="-290.6222" font-family="Helvetica,sans-Serif" font-size="10.00" fill="#000000">Simulator::simulate</text>
<text text-anchor="middle" x="206.5" y="-279.6222" font-family="Helvetica,sans-Serif" font-size="10.00" fill="#000000">_multi_r</text>
</a>
</g>
</g>
<!-- Node49&#45;&gt;Node60 -->
<g id="edge11" class="edge">
<title>Node49&#45;&gt;Node60</title>
<path fill="none" stroke="#191970" d="M93.2087,-269.9205C109.6323,-272.4866 128.3341,-275.4088 145.7435,-278.129"/>
<polygon fill="#191970" stroke="#191970" points="145.397,-281.6173 155.8175,-279.7031 146.4777,-274.7012 145.397,-281.6173"/>
</g>
<!-- Node63 -->
<g id="node15" class="node">
<title>Node63</title>
<g id="a_node15"><a xlink:href="classSimulator.html#addbc3da16a6f9c352eefbdc423419bca" target="_top" xlink:title="Simulator::max_avg\l_utils">
<polygon fill="none" stroke="#000000" points="154.5,-174.6222 154.5,-204.6222 258.5,-204.6222 258.5,-174.6222 154.5,-174.6222"/>
<text text-anchor="start" x="162.5" y="-192.6222" font-family="Helvetica,sans-Serif" font-size="10.00" fill="#000000">Simulator::max_avg</text>
<text text-anchor="middle" x="206.5" y="-181.6222" font-family="Helvetica,sans-Serif" font-size="10.00" fill="#000000">_utils</text>
</a>
</g>
</g>
<!-- Node49&#45;&gt;Node63 -->
<g id="edge19" class="edge">
<title>Node49&#45;&gt;Node63</title>
<path fill="none" stroke="#191970" d="M60.8965,-252.9601C76.9749,-242.4796 104.0289,-225.7584 129,-214.6222 134.084,-212.3549 139.4375,-210.1937 144.8574,-208.1595"/>
<polygon fill="#191970" stroke="#191970" points="146.4161,-211.3184 154.6408,-204.6396 144.0464,-204.7317 146.4161,-211.3184"/>
</g>
<!-- Node71 -->
<g id="node23" class="node">
<title>Node71</title>
<g id="a_node23"><a xlink:href="classSimulator.html#a1b66b7260ff50758884d1f7361a1b988" target="_top" xlink:title="Simulator::stakeholder\l_satisfaction">
<polygon fill="none" stroke="#000000" points="149.5,-125.6222 149.5,-155.6222 263.5,-155.6222 263.5,-125.6222 149.5,-125.6222"/>
<text text-anchor="start" x="157.5" y="-143.6222" font-family="Helvetica,sans-Serif" font-size="10.00" fill="#000000">Simulator::stakeholder</text>
<text text-anchor="middle" x="206.5" y="-132.6222" font-family="Helvetica,sans-Serif" font-size="10.00" fill="#000000">_satisfaction</text>
</a>
</g>
</g>
<!-- Node49&#45;&gt;Node71 -->
<g id="edge28" class="edge">
<title>Node49&#45;&gt;Node71</title>
<path fill="none" stroke="#191970" d="M51.985,-252.9666C63.6125,-233.3628 92.6746,-188.7178 129,-164.6222 132.4993,-162.301 136.2346,-160.195 140.1035,-158.2855"/>
<polygon fill="#191970" stroke="#191970" points="141.6146,-161.444 149.3252,-154.1778 138.7663,-155.0497 141.6146,-161.444"/>
</g>
<!-- Node75 -->
<g id="node27" class="node">
<title>Node75</title>
<g id="a_node27"><a xlink:href="classSimulator.html#a636e7a83b462c3e48769a85ae350e742" target="_top" xlink:title="Simulator::simulate\l_multi_2d">
<polygon fill="none" stroke="#000000" points="324,-377.6222 324,-407.6222 425,-407.6222 425,-377.6222 324,-377.6222"/>
<text text-anchor="start" x="332" y="-395.6222" font-family="Helvetica,sans-Serif" font-size="10.00" fill="#000000">Simulator::simulate</text>
<text text-anchor="middle" x="374.5" y="-384.6222" font-family="Helvetica,sans-Serif" font-size="10.00" fill="#000000">_multi_2d</text>
</a>
</g>
</g>
<!-- Node49&#45;&gt;Node75 -->
<g id="edge36" class="edge">
<title>Node49&#45;&gt;Node75</title>
<path fill="none" stroke="#191970" d="M53.474,-272.1696C66.3616,-289.0607 95.6543,-324.0804 129,-341.6222 187.15,-372.2126 262.0721,-384.4599 313.7742,-389.3601"/>
<polygon fill="#191970" stroke="#191970" points="313.5239,-392.8515 323.7932,-390.2455 314.1401,-385.8787 313.5239,-392.8515"/>
</g>
<!-- Node76 -->
<g id="node28" class="node">
<title>Node76</title>
<g id="a_node28"><a xlink:href="classSimulator.html#a32eeba843e7526dceb75a2c6aebe240e" target="_top" xlink:title="Simulator::max_avg\l_utils_2d">
<polygon fill="none" stroke="#000000" points="154.5,-223.6222 154.5,-253.6222 258.5,-253.6222 258.5,-223.6222 154.5,-223.6222"/>
<text text-anchor="start" x="162.5" y="-241.6222" font-family="Helvetica,sans-Serif" font-size="10.00" fill="#000000">Simulator::max_avg</text>
<text text-anchor="middle" x="206.5" y="-230.6222" font-family="Helvetica,sans-Serif" font-size="10.00" fill="#000000">_utils_2d</text>
</a>
</g>
</g>
<!-- Node49&#45;&gt;Node76 -->
<g id="edge43" class="edge">
<title>Node49&#45;&gt;Node76</title>
<path fill="none" stroke="#191970" d="M93.2087,-255.6159C109.0968,-253.2327 127.1172,-250.5296 144.0368,-247.9917"/>
<polygon fill="#191970" stroke="#191970" points="145.0304,-251.3819 154.4005,-246.4371 143.992,-244.4594 145.0304,-251.3819"/>
</g>
<!-- Node77 -->
<g id="node29" class="node">
<title>Node77</title>
<g id="a_node29"><a xlink:href="classSimulator.html#aac842e5498b4c9731910ce9a93fa555d" target="_top" xlink:title="Simulator::stakeholder\l_satisfaction_2d">
<polygon fill="none" stroke="#000000" points="149.5,-76.6222 149.5,-106.6222 263.5,-106.6222 263.5,-76.6222 149.5,-76.6222"/>
<text text-anchor="start" x="157.5" y="-94.6222" font-family="Helvetica,sans-Serif" font-size="10.00" fill="#000000">Simulator::stakeholder</text>
<text text-anchor="middle" x="206.5" y="-83.6222" font-family="Helvetica,sans-Serif" font-size="10.00" fill="#000000">_satisfaction_2d</text>
</a>
</g>
</g>
<!-- Node49&#45;&gt;Node77 -->
<g id="edge46" class="edge">
<title>Node49&#45;&gt;Node77</title>
<path fill="none" stroke="#191970" d="M49.1208,-253.0924C56.7853,-227.0158 81.6617,-153.8906 129,-115.6222 132.4829,-112.8066 136.2963,-110.3202 140.3042,-108.1246"/>
<polygon fill="#191970" stroke="#191970" points="141.8502,-111.2649 149.3364,-103.7678 138.8089,-104.96 141.8502,-111.2649"/>
</g>
<!-- Node52 -->
<g id="node4" class="node">
<title>Node52</title>
<g id="a_node4"><a xlink:href="classPopulation.html#a20696fa511c914e7c8837acb2a254b33" target="_top" xlink:title="Population::set_harvestProp">
<polygon fill="none" stroke="#000000" points="466.5,-365.1222 466.5,-384.1222 606.5,-384.1222 606.5,-365.1222 466.5,-365.1222"/>
<text text-anchor="middle" x="536.5" y="-372.1222" font-family="Helvetica,sans-Serif" font-size="10.00" fill="#000000">Population::set_harvestProp</text>
</a>
</g>
</g>
<!-- Node51&#45;&gt;Node52 -->
<g id="edge3" class="edge">
<title>Node51&#45;&gt;Node52</title>
<path fill="none" stroke="#191970" d="M429.3458,-357.4246C441.514,-359.3776 454.5643,-361.472 467.2242,-363.5039"/>
<polygon fill="#191970" stroke="#191970" points="466.8409,-366.9871 477.2692,-365.1161 467.9503,-360.0755 466.8409,-366.9871"/>
</g>
<!-- Node53 -->
<g id="node5" class="node">
<title>Node53</title>
<g id="a_node5"><a xlink:href="classPopulation.html#a343a346cae1413da400c042868c15859" target="_top" xlink:title="Population::set_minSizeLimit">
<polygon fill="none" stroke="#000000" points="465,-441.1222 465,-460.1222 608,-460.1222 608,-441.1222 465,-441.1222"/>
<text text-anchor="middle" x="536.5" y="-448.1222" font-family="Helvetica,sans-Serif" font-size="10.00" fill="#000000">Population::set_minSizeLimit</text>
</a>
</g>
</g>
<!-- Node51&#45;&gt;Node53 -->
<g id="edge4" class="edge">
<title>Node51&#45;&gt;Node53</title>
<path fill="none" stroke="#191970" d="M411.6047,-358.2239C417.8361,-360.9191 423.9195,-364.3283 429,-368.6222 453.6304,-389.4391 439.4386,-411.9598 465,-431.6222 467.4656,-433.5188 470.1046,-435.2266 472.8621,-436.7643"/>
<polygon fill="#191970" stroke="#191970" points="471.472,-439.9789 482.0052,-441.1197 474.4824,-433.6593 471.472,-439.9789"/>
</g>
<!-- Node54 -->
<g id="node6" class="node">
<title>Node54</title>
<g id="a_node6"><a xlink:href="classPopulation.html#a42c4b04852bdda937e50f82952106af1" target="_top" xlink:title="Population::fishableBiomass">
<polygon fill="none" stroke="#000000" points="466.5,-327.1222 466.5,-346.1222 606.5,-346.1222 606.5,-327.1222 466.5,-327.1222"/>
<text text-anchor="middle" x="536.5" y="-334.1222" font-family="Helvetica,sans-Serif" font-size="10.00" fill="#000000">Population::fishableBiomass</text>
</a>
</g>
</g>
<!-- Node51&#45;&gt;Node54 -->
<g id="edge5" class="edge">
<title>Node51&#45;&gt;Node54</title>
<path fill="none" stroke="#191970" d="M429.3458,-344.5596C438.0158,-343.9173 447.1337,-343.2419 456.2391,-342.5675"/>
<polygon fill="#191970" stroke="#191970" points="456.7755,-346.0374 466.4896,-341.8082 456.2584,-339.0565 456.7755,-346.0374"/>
</g>
<!-- Node55 -->
<g id="node7" class="node">
<title>Node55</title>
<g id="a_node7"><a xlink:href="classPopulation.html#a5440cd360f9b6af954085b442327633b" target="_top" xlink:title="Population::init">
<polygon fill="none" stroke="#000000" points="496,-251.1222 496,-270.1222 577,-270.1222 577,-251.1222 496,-251.1222"/>
<text text-anchor="middle" x="536.5" y="-258.1222" font-family="Helvetica,sans-Serif" font-size="10.00" fill="#000000">Population::init</text>
</a>
</g>
</g>
<!-- Node51&#45;&gt;Node55 -->
<g id="edge6" class="edge">
<title>Node51&#45;&gt;Node55</title>
<path fill="none" stroke="#191970" d="M411.8113,-339.0634C417.8844,-336.563 423.8604,-333.4577 429,-329.6222 450.9456,-313.2449 442.4503,-295.1572 465,-279.6222 471.3247,-275.265 478.5958,-271.9067 486.0261,-269.3183"/>
<polygon fill="#191970" stroke="#191970" points="487.2705,-272.5982 495.8195,-266.3399 485.2337,-265.9011 487.2705,-272.5982"/>
</g>
<!-- Node56 -->
<g id="node8" class="node">
<title>Node56</title>
<g id="a_node8"><a xlink:href="classPopulation.html#a345497aa32fe22f73153a59f469c6a19" target="_top" xlink:title="Population::print_summary">
<polygon fill="none" stroke="#000000" points="470,-403.1222 470,-422.1222 603,-422.1222 603,-403.1222 470,-403.1222"/>
<text text-anchor="middle" x="536.5" y="-410.1222" font-family="Helvetica,sans-Serif" font-size="10.00" fill="#000000">Population::print_summary</text>
</a>
</g>
</g>
<!-- Node51&#45;&gt;Node56 -->
<g id="edge7" class="edge">
<title>Node51&#45;&gt;Node56</title>
<path fill="none" stroke="#191970" d="M404.79,-358.183C412.8366,-361.1389 421.3986,-364.6711 429,-368.6222 446.2842,-377.6063 447.321,-385.4423 465,-393.6222 470.2273,-396.0409 475.8172,-398.1952 481.4823,-400.1035"/>
<polygon fill="#191970" stroke="#191970" points="480.4478,-403.4471 491.0365,-403.0862 482.5339,-396.7651 480.4478,-403.4471"/>
</g>
<!-- Node57 -->
<g id="node9" class="node">
<title>Node57</title>
<g id="a_node9"><a xlink:href="classPopulation.html#aa404f725dcde475806cdb26704b9fbcf" target="_top" xlink:title="Population::update">
<polygon fill="none" stroke="#000000" points="487.5,-289.1222 487.5,-308.1222 585.5,-308.1222 585.5,-289.1222 487.5,-289.1222"/>
<text text-anchor="middle" x="536.5" y="-296.1222" font-family="Helvetica,sans-Serif" font-size="10.00" fill="#000000">Population::update</text>
</a>
</g>
</g>
<!-- Node51&#45;&gt;Node57 -->
<g id="edge8" class="edge">
<title>Node51&#45;&gt;Node57</title>
<path fill="none" stroke="#191970" d="M402.3022,-338.9887C426.5521,-330.6043 458.8024,-319.5046 465,-317.6222 472.6042,-315.3126 480.7095,-313.0095 488.6294,-310.8447"/>
<polygon fill="#191970" stroke="#191970" points="489.763,-314.1642 498.5104,-308.1865 487.9445,-307.4046 489.763,-314.1642"/>
</g>
<!-- Node58 -->
<g id="node10" class="node">
<title>Node58</title>
<g id="a_node10"><a xlink:href="namespacepn.html#ad42003887dcc42a4758c69775f83a8d9" target="_top" xlink:title="pn::zero">
<polygon fill="none" stroke="#000000" points="680,-289.1222 680,-308.1222 732,-308.1222 732,-289.1222 680,-289.1222"/>
<text text-anchor="middle" x="706" y="-296.1222" font-family="Helvetica,sans-Serif" font-size="10.00" fill="#000000">pn::zero</text>
</a>
</g>
</g>
<!-- Node57&#45;&gt;Node58 -->
<g id="edge9" class="edge">
<title>Node57&#45;&gt;Node58</title>
<path fill="none" stroke="#191970" d="M585.5264,-298.6222C612.2696,-298.6222 644.8218,-298.6222 669.3439,-298.6222"/>
<polygon fill="#191970" stroke="#191970" points="669.6581,-302.1223 679.6581,-298.6222 669.658,-295.1223 669.6581,-302.1223"/>
</g>
<!-- Node59 -->
<g id="node11" class="node">
<title>Node59</title>
<g id="a_node11"><a xlink:href="structpn_1_1BrentRes.html#a4fa42a440c4b9dc765ea7f0d7fd3a412" target="_top" xlink:title="pn::BrentRes::BrentRes">
<polygon fill="none" stroke="#000000" points="804,-289.1222 804,-308.1222 926,-308.1222 926,-289.1222 804,-289.1222"/>
<text text-anchor="middle" x="865" y="-296.1222" font-family="Helvetica,sans-Serif" font-size="10.00" fill="#000000">pn::BrentRes::BrentRes</text>
</a>
</g>
</g>
<!-- Node58&#45;&gt;Node59 -->
<g id="edge10" class="edge">
<title>Node58&#45;&gt;Node59</title>
<path fill="none" stroke="#191970" d="M732.2556,-298.6222C749.1598,-298.6222 772.0079,-298.6222 793.9818,-298.6222"/>
<polygon fill="#191970" stroke="#191970" points="793.9919,-302.1223 803.9918,-298.6222 793.9918,-295.1223 793.9919,-302.1223"/>
</g>
<!-- Node61 -->
<g id="node13" class="node">
<title>Node61</title>
<g id="a_node13"><a xlink:href="classSimulator.html#a4734ed6f01bdac62f74ebd20dd761f2b" target="_top" xlink:title="Simulator::simulate\l_multi">
<polygon fill="none" stroke="#000000" points="324,-251.6222 324,-281.6222 425,-281.6222 425,-251.6222 324,-251.6222"/>
<text text-anchor="start" x="332" y="-269.6222" font-family="Helvetica,sans-Serif" font-size="10.00" fill="#000000">Simulator::simulate</text>
<text text-anchor="middle" x="374.5" y="-258.6222" font-family="Helvetica,sans-Serif" font-size="10.00" fill="#000000">_multi</text>
</a>
</g>
</g>
<!-- Node60&#45;&gt;Node61 -->
<g id="edge12" class="edge">
<title>Node60&#45;&gt;Node61</title>
<path fill="none" stroke="#191970" d="M257.3615,-281.2645C275.1253,-279.0441 295.244,-276.5292 313.7328,-274.2181"/>
<polygon fill="#191970" stroke="#191970" points="314.3228,-277.6717 323.8114,-272.9583 313.4545,-270.7258 314.3228,-277.6717"/>
</g>
<!-- Node62 -->
<g id="node14" class="node">
<title>Node62</title>
<g id="a_node14"><a xlink:href="simulator_8cpp.html#a2a2aec343c151304395503fd8b1d6a78" target="_top" xlink:title="tensor2array">
<polygon fill="none" stroke="#000000" points="339,-301.1222 339,-320.1222 410,-320.1222 410,-301.1222 339,-301.1222"/>
<text text-anchor="middle" x="374.5" y="-308.1222" font-family="Helvetica,sans-Serif" font-size="10.00" fill="#000000">tensor2array</text>
</a>
</g>
</g>
<!-- Node60&#45;&gt;Node62 -->
<g id="edge18" class="edge">
<title>Node60&#45;&gt;Node62</title>
<path fill="none" stroke="#191970" d="M257.3615,-294.5854C280.122,-297.7014 306.7483,-301.3467 328.859,-304.3738"/>
<polygon fill="#191970" stroke="#191970" points="328.6087,-307.8721 338.991,-305.7609 329.5582,-300.9367 328.6087,-307.8721"/>
</g>
<!-- Node61&#45;&gt;Node52 -->
<g id="edge13" class="edge">
<title>Node61&#45;&gt;Node52</title>
<path fill="none" stroke="#191970" d="M415.0245,-281.6417C420.0495,-284.5004 424.865,-287.8143 429,-291.6222 453.0068,-313.7301 439.1995,-335.6368 465,-355.6222 467.3322,-357.4288 469.8216,-359.0642 472.421,-360.5445"/>
<polygon fill="#191970" stroke="#191970" points="471.09,-363.7888 481.6149,-365.0036 474.1447,-357.4905 471.09,-363.7888"/>
</g>
<!-- Node61&#45;&gt;Node54 -->
<g id="edge14" class="edge">
<title>Node61&#45;&gt;Node54</title>
<path fill="none" stroke="#191970" d="M409.902,-281.6377C416.3699,-284.7234 422.9745,-288.1097 429,-291.6222 446.0509,-301.5619 447.1653,-309.1691 465,-317.6222 470.0052,-319.9946 475.3531,-322.1068 480.7862,-323.9792"/>
<polygon fill="#191970" stroke="#191970" points="480.0119,-327.4055 490.6022,-327.0951 482.1298,-320.7335 480.0119,-327.4055"/>
</g>
<!-- Node61&#45;&gt;Node55 -->
<g id="edge15" class="edge">
<title>Node61&#45;&gt;Node55</title>
<path fill="none" stroke="#191970" d="M425.3133,-264.7402C444.5839,-264.0265 466.5145,-263.2143 485.7768,-262.5009"/>
<polygon fill="#191970" stroke="#191970" points="486.0093,-265.9947 495.8729,-262.1269 485.7502,-258.9995 486.0093,-265.9947"/>
</g>
<!-- Node61&#45;&gt;Node56 -->
<g id="edge16" class="edge">
<title>Node61&#45;&gt;Node56</title>
<path fill="none" stroke="#191970" d="M416.7574,-281.6672C421.2727,-284.4827 425.4904,-287.7786 429,-291.6222 461.4159,-327.1232 429.6815,-361.0076 465,-393.6222 466.6867,-395.1798 468.4864,-396.6125 470.3752,-397.9302"/>
<polygon fill="#191970" stroke="#191970" points="468.7427,-401.0291 479.1524,-403.0011 472.2446,-394.968 468.7427,-401.0291"/>
</g>
<!-- Node61&#45;&gt;Node57 -->
<g id="edge17" class="edge">
<title>Node61&#45;&gt;Node57</title>
<path fill="none" stroke="#191970" d="M425.3133,-276.6594C442.1456,-279.9843 461.0073,-283.7101 478.3476,-287.1353"/>
<polygon fill="#191970" stroke="#191970" points="477.8659,-290.6077 488.3547,-289.112 479.2225,-283.7404 477.8659,-290.6077"/>
</g>
<!-- Node64 -->
<g id="node16" class="node">
<title>Node64</title>
<g id="a_node16"><a xlink:href="classTensor.html#a6c8465a488ce260e6e05f1a3ceb8ab26" target="_top" xlink:title="Tensor::avg_dim">
<polygon fill="none" stroke="#000000" points="330,-175.1222 330,-194.1222 419,-194.1222 419,-175.1222 330,-175.1222"/>
<text text-anchor="middle" x="374.5" y="-182.1222" font-family="Helvetica,sans-Serif" font-size="10.00" fill="#000000">Tensor::avg_dim</text>
</a>
</g>
</g>
<!-- Node63&#45;&gt;Node64 -->
<g id="edge20" class="edge">
<title>Node63&#45;&gt;Node64</title>
<path fill="none" stroke="#191970" d="M258.7353,-188.0676C278.175,-187.489 300.2765,-186.8313 319.9209,-186.2466"/>
<polygon fill="#191970" stroke="#191970" points="320.0511,-189.7444 329.9425,-185.9483 319.8428,-182.7475 320.0511,-189.7444"/>
</g>
<!-- Node69 -->
<g id="node21" class="node">
<title>Node69</title>
<g id="a_node21"><a xlink:href="classTensor.html#a3986d7a50faef0249a8d2da5b1f67a89" target="_top" xlink:title="Tensor::transform">
<polygon fill="none" stroke="#000000" points="327.5,-213.1222 327.5,-232.1222 421.5,-232.1222 421.5,-213.1222 327.5,-213.1222"/>
<text text-anchor="middle" x="374.5" y="-220.1222" font-family="Helvetica,sans-Serif" font-size="10.00" fill="#000000">Tensor::transform</text>
</a>
</g>
</g>
<!-- Node63&#45;&gt;Node69 -->
<g id="edge25" class="edge">
<title>Node63&#45;&gt;Node69</title>
<path fill="none" stroke="#191970" d="M258.7353,-199.8827C277.351,-203.5394 298.4077,-207.6755 317.41,-211.4081"/>
<polygon fill="#191970" stroke="#191970" points="316.9432,-214.8832 327.4303,-213.3764 318.2925,-208.0145 316.9432,-214.8832"/>
</g>
<!-- Node65 -->
<g id="node17" class="node">
<title>Node65</title>
<g id="a_node17"><a xlink:href="classTensor.html#a447f65c9ada7c9357091fba66ad73d10" target="_top" xlink:title="Tensor::accumulate">
<polygon fill="none" stroke="#000000" points="485,-137.1222 485,-156.1222 588,-156.1222 588,-137.1222 485,-137.1222"/>
<text text-anchor="middle" x="536.5" y="-144.1222" font-family="Helvetica,sans-Serif" font-size="10.00" fill="#000000">Tensor::accumulate</text>
</a>
</g>
</g>
<!-- Node64&#45;&gt;Node65 -->
<g id="edge21" class="edge">
<title>Node64&#45;&gt;Node65</title>
<path fill="none" stroke="#191970" d="M415.3794,-175.0332C436.8534,-169.9961 463.3605,-163.7784 486.097,-158.4452"/>
<polygon fill="#191970" stroke="#191970" points="486.9781,-161.8336 495.9145,-156.1423 485.3795,-155.0185 486.9781,-161.8336"/>
</g>
<!-- Node66 -->
<g id="node18" class="node">
<title>Node66</title>
<g id="a_node18"><a xlink:href="classTensor.html#a862952dc137707abdccd06cf9cd5855b" target="_top" xlink:title="Tensor::plane">
<polygon fill="none" stroke="#000000" points="668,-175.1222 668,-194.1222 744,-194.1222 744,-175.1222 668,-175.1222"/>
<text text-anchor="middle" x="706" y="-182.1222" font-family="Helvetica,sans-Serif" font-size="10.00" fill="#000000">Tensor::plane</text>
</a>
</g>
</g>
<!-- Node65&#45;&gt;Node66 -->
<g id="edge22" class="edge">
<title>Node65&#45;&gt;Node66</title>
<path fill="none" stroke="#191970" d="M579.272,-156.2112C603.2346,-161.5834 633.1871,-168.2984 657.9554,-173.8512"/>
<polygon fill="#191970" stroke="#191970" points="657.345,-177.3011 667.8685,-176.0736 658.8764,-170.4707 657.345,-177.3011"/>
</g>
<!-- Node68 -->
<g id="node20" class="node">
<title>Node68</title>
<g id="a_node20"><a xlink:href="classTensor.html#abbfd4d8d3390394254f1d42fcb845bd2" target="_top" xlink:title="Tensor::accumulate_dim">
<polygon fill="none" stroke="#000000" points="644,-137.1222 644,-156.1222 768,-156.1222 768,-137.1222 644,-137.1222"/>
<text text-anchor="middle" x="706" y="-144.1222" font-family="Helvetica,sans-Serif" font-size="10.00" fill="#000000">Tensor::accumulate_dim</text>
</a>
</g>
</g>
<!-- Node65&#45;&gt;Node68 -->
<g id="edge24" class="edge">
<title>Node65&#45;&gt;Node68</title>
<path fill="none" stroke="#191970" d="M588.2766,-146.6222C602.5151,-146.6222 618.2246,-146.6222 633.4031,-146.6222"/>
<polygon fill="#191970" stroke="#191970" points="633.8019,-150.1223 643.8019,-146.6222 633.8018,-143.1223 633.8019,-150.1223"/>
</g>
<!-- Node67 -->
<g id="node19" class="node">
<title>Node67</title>
<g id="a_node19"><a xlink:href="classTensor.html#a90a6b28226bcd1be7090fd2f8782d0b1" target="_top" xlink:title="Tensor::index">
<polygon fill="none" stroke="#000000" points="827,-175.1222 827,-194.1222 903,-194.1222 903,-175.1222 827,-175.1222"/>
<text text-anchor="middle" x="865" y="-182.1222" font-family="Helvetica,sans-Serif" font-size="10.00" fill="#000000">Tensor::index</text>
</a>
</g>
</g>
<!-- Node66&#45;&gt;Node67 -->
<g id="edge23" class="edge">
<title>Node66&#45;&gt;Node67</title>
<path fill="none" stroke="#191970" d="M744.0845,-184.6222C765.9325,-184.6222 793.5705,-184.6222 816.9065,-184.6222"/>
<polygon fill="#191970" stroke="#191970" points="816.9511,-188.1223 826.9511,-184.6222 816.951,-181.1223 816.9511,-188.1223"/>
</g>
<!-- Node69&#45;&gt;Node66 -->
<g id="edge26" class="edge">
<title>Node69&#45;&gt;Node66</title>
<path fill="none" stroke="#191970" d="M414.3996,-213.0933C430.0917,-209.6488 448.3145,-206.0214 465,-203.6222 531.3757,-194.0783 608.7754,-189.0465 657.5828,-186.6122"/>
<polygon fill="#191970" stroke="#191970" points="658.0291,-190.0948 667.849,-186.1175 657.6922,-183.1029 658.0291,-190.0948"/>
</g>
<!-- Node70 -->
<g id="node22" class="node">
<title>Node70</title>
<g id="a_node22"><a xlink:href="classTensor.html#a1a9aea97717d687b7d501842efb546d4" target="_top" xlink:title="Tensor::transform_dim">
<polygon fill="none" stroke="#000000" points="479,-213.1222 479,-232.1222 594,-232.1222 594,-213.1222 479,-213.1222"/>
<text text-anchor="middle" x="536.5" y="-220.1222" font-family="Helvetica,sans-Serif" font-size="10.00" fill="#000000">Tensor::transform_dim</text>
</a>
</g>
</g>
<!-- Node69&#45;&gt;Node70 -->
<g id="edge27" class="edge">
<title>Node69&#45;&gt;Node70</title>
<path fill="none" stroke="#191970" d="M421.7926,-222.6222C436.4252,-222.6222 452.844,-222.6222 468.5855,-222.6222"/>
<polygon fill="#191970" stroke="#191970" points="468.8066,-226.1223 478.8065,-222.6222 468.8065,-219.1223 468.8066,-226.1223"/>
</g>
<!-- Node71&#45;&gt;Node64 -->
<g id="edge29" class="edge">
<title>Node71&#45;&gt;Node64</title>
<path fill="none" stroke="#191970" d="M263.8462,-155.6415C284.9072,-161.1575 308.4622,-167.3266 328.4085,-172.5506"/>
<polygon fill="#191970" stroke="#191970" points="327.6193,-175.9619 338.1799,-175.1098 329.3929,-169.1903 327.6193,-175.9619"/>
</g>
<!-- Node71&#45;&gt;Node65 -->
<g id="edge33" class="edge">
<title>Node71&#45;&gt;Node65</title>
<path fill="none" stroke="#191970" d="M263.6049,-141.6605C322.547,-142.7322 414.2001,-144.3986 474.7829,-145.5001"/>
<polygon fill="#191970" stroke="#191970" points="474.9109,-149.0029 484.9729,-145.6854 475.0382,-142.0041 474.9109,-149.0029"/>
</g>
<!-- Node71&#45;&gt;Node69 -->
<g id="edge30" class="edge">
<title>Node71&#45;&gt;Node69</title>
<path fill="none" stroke="#191970" d="M263.5,-154.4479C270.6652,-157.2762 277.6864,-160.6388 284,-164.6222 303.9502,-177.2092 300.274,-190.6867 320,-203.6222 323.0716,-205.6364 326.3809,-207.4634 329.797,-209.1154"/>
<polygon fill="#191970" stroke="#191970" points="328.4304,-212.3376 338.9987,-213.0882 331.2052,-205.911 328.4304,-212.3376"/>
</g>
<!-- Node72 -->
<g id="node24" class="node">
<title>Node72</title>
<g id="a_node24"><a xlink:href="classTensor.html#ae4622cf6280102eb5103cfe4c88c1ad8" target="_top" xlink:title="Tensor::repeat_inner">
<polygon fill="none" stroke="#000000" points="321.5,-61.1222 321.5,-80.1222 427.5,-80.1222 427.5,-61.1222 321.5,-61.1222"/>
<text text-anchor="middle" x="374.5" y="-68.1222" font-family="Helvetica,sans-Serif" font-size="10.00" fill="#000000">Tensor::repeat_inner</text>
</a>
</g>
</g>
<!-- Node71&#45;&gt;Node72 -->
<g id="edge31" class="edge">
<title>Node71&#45;&gt;Node72</title>
<path fill="none" stroke="#191970" d="M260.7401,-125.5388C268.7061,-122.6359 276.6847,-119.3268 284,-115.6222 301.6075,-106.7056 302.498,-98.7443 320,-89.6222 324.0069,-87.5338 328.2933,-85.5916 332.6363,-83.8089"/>
<polygon fill="#191970" stroke="#191970" points="334.061,-87.0112 342.1478,-80.1661 331.5574,-80.4742 334.061,-87.0112"/>
</g>
<!-- Node73 -->
<g id="node25" class="node">
<title>Node73</title>
<g id="a_node25"><a xlink:href="classTensor.html#aedee003837348391c5f8d0bc788bf20f" target="_top" xlink:title="Tensor::repeat_outer">
<polygon fill="none" stroke="#000000" points="321,-99.1222 321,-118.1222 428,-118.1222 428,-99.1222 321,-99.1222"/>
<text text-anchor="middle" x="374.5" y="-106.1222" font-family="Helvetica,sans-Serif" font-size="10.00" fill="#000000">Tensor::repeat_outer</text>
</a>
</g>
</g>
<!-- Node71&#45;&gt;Node73 -->
<g id="edge32" class="edge">
<title>Node71&#45;&gt;Node73</title>
<path fill="none" stroke="#191970" d="M263.8462,-129.6991C280.1407,-126.5954 297.9281,-123.2073 314.3821,-120.0733"/>
<polygon fill="#191970" stroke="#191970" points="315.261,-123.4689 324.4295,-118.1595 313.9512,-116.5925 315.261,-123.4689"/>
</g>
<!-- Node74 -->
<g id="node26" class="node">
<title>Node74</title>
<g id="a_node26"><a xlink:href="classTensor.html#abf7346c2dbd5e6b195cfe9b66e5049e8" target="_top" xlink:title="Tensor::max_dim">
<polygon fill="none" stroke="#000000" points="328.5,-23.1222 328.5,-42.1222 420.5,-42.1222 420.5,-23.1222 328.5,-23.1222"/>
<text text-anchor="middle" x="374.5" y="-30.1222" font-family="Helvetica,sans-Serif" font-size="10.00" fill="#000000">Tensor::max_dim</text>
</a>
</g>
</g>
<!-- Node71&#45;&gt;Node74 -->
<g id="edge34" class="edge">
<title>Node71&#45;&gt;Node74</title>
<path fill="none" stroke="#191970" d="M263.671,-127.6888C270.9687,-124.5034 277.9795,-120.543 284,-115.6222 309.269,-94.9688 294.9744,-72.5699 320,-51.6222 322.017,-49.9339 324.1934,-48.3921 326.4752,-46.9844"/>
<polygon fill="#191970" stroke="#191970" points="328.4286,-49.9136 335.6853,-42.1941 325.1985,-43.7033 328.4286,-49.9136"/>
</g>
<!-- Node74&#45;&gt;Node65 -->
<g id="edge35" class="edge">
<title>Node74&#45;&gt;Node65</title>
<path fill="none" stroke="#191970" d="M408.555,-42.2034C415.5431,-44.7941 422.6872,-47.9269 429,-51.6222 465.8129,-73.1716 501.4834,-108.4068 521.0637,-129.3711"/>
<polygon fill="#191970" stroke="#191970" points="518.6345,-131.9005 527.9756,-136.8999 523.791,-127.1665 518.6345,-131.9005"/>
</g>
<!-- Node75&#45;&gt;Node52 -->
<g id="edge37" class="edge">
<title>Node75&#45;&gt;Node52</title>
<path fill="none" stroke="#191970" d="M425.3133,-386.9763C435.1579,-385.8825 445.6968,-384.7115 456.2194,-383.5423"/>
<polygon fill="#191970" stroke="#191970" points="456.7277,-387.0074 466.28,-382.4244 455.9546,-380.0503 456.7277,-387.0074"/>
</g>
<!-- Node75&#45;&gt;Node53 -->
<g id="edge38" class="edge">
<title>Node75&#45;&gt;Node53</title>
<path fill="none" stroke="#191970" d="M406.298,-407.6892C423.4458,-415.4652 445.1145,-424.7373 465,-431.6222 471.9257,-434.0201 479.3164,-436.293 486.6207,-438.3775"/>
<polygon fill="#191970" stroke="#191970" points="485.9049,-441.8108 496.4757,-441.0973 487.7672,-435.063 485.9049,-441.8108"/>
</g>
<!-- Node75&#45;&gt;Node54 -->
<g id="edge39" class="edge">
<title>Node75&#45;&gt;Node54</title>
<path fill="none" stroke="#191970" d="M408.4889,-377.5162C425.3007,-370.3565 446.0121,-361.9973 465,-355.6222 472.1116,-353.2346 479.6999,-350.9474 487.1772,-348.8392"/>
<polygon fill="#191970" stroke="#191970" points="488.1737,-352.1952 496.8936,-346.1773 486.3241,-345.444 488.1737,-352.1952"/>
</g>
<!-- Node75&#45;&gt;Node55 -->
<g id="edge40" class="edge">
<title>Node75&#45;&gt;Node55</title>
<path fill="none" stroke="#191970" d="M416.3034,-377.5745C420.9515,-374.751 425.3252,-371.4538 429,-367.6222 458.2501,-337.1245 433.2615,-307.5211 465,-279.6222 471.0368,-274.3157 478.3947,-270.4682 486.067,-267.6835"/>
<polygon fill="#191970" stroke="#191970" points="487.3317,-270.9571 495.8777,-264.6947 485.2918,-264.2609 487.3317,-270.9571"/>
</g>
<!-- Node75&#45;&gt;Node56 -->
<g id="edge41" class="edge">
<title>Node75&#45;&gt;Node56</title>
<path fill="none" stroke="#191970" d="M425.3133,-398.8955C436.2221,-400.2422 447.9834,-401.6942 459.6304,-403.1322"/>
<polygon fill="#191970" stroke="#191970" points="459.4585,-406.6374 469.812,-404.3891 460.3163,-399.6902 459.4585,-406.6374"/>
</g>
<!-- Node75&#45;&gt;Node57 -->
<g id="edge42" class="edge">
<title>Node75&#45;&gt;Node57</title>
<path fill="none" stroke="#191970" d="M414.0742,-377.4692C419.358,-374.6054 424.4982,-371.3258 429,-367.6222 450.1464,-350.2252 442.4503,-333.1572 465,-317.6222 468.9564,-314.8965 473.2832,-312.5617 477.7877,-310.5618"/>
<polygon fill="#191970" stroke="#191970" points="479.1599,-313.7837 487.2214,-306.909 476.6322,-307.256 479.1599,-313.7837"/>
</g>
<!-- Node76&#45;&gt;Node64 -->
<g id="edge44" class="edge">
<title>Node76&#45;&gt;Node64</title>
<path fill="none" stroke="#191970" d="M253.2974,-223.5802C279.0678,-215.2969 310.6926,-205.1318 335.1757,-197.2622"/>
<polygon fill="#191970" stroke="#191970" points="336.4055,-200.5433 344.8547,-194.1511 334.2634,-193.8791 336.4055,-200.5433"/>
</g>
<!-- Node76&#45;&gt;Node69 -->
<g id="edge45" class="edge">
<title>Node76&#45;&gt;Node69</title>
<path fill="none" stroke="#191970" d="M258.7353,-233.6474C277.351,-231.8745 298.4077,-229.8691 317.41,-228.0594"/>
<polygon fill="#191970" stroke="#191970" points="317.8072,-231.5375 327.4303,-227.1051 317.1435,-224.569 317.8072,-231.5375"/>
</g>
<!-- Node77&#45;&gt;Node64 -->
<g id="edge47" class="edge">
<title>Node77&#45;&gt;Node64</title>
<path fill="none" stroke="#191970" d="M263.3033,-106.6619C270.4261,-109.2845 277.4894,-112.2669 284,-115.6222 311.6197,-129.8563 339.4584,-152.6416 356.8237,-168.1"/>
<polygon fill="#191970" stroke="#191970" points="354.703,-170.9019 364.4603,-175.0305 359.4073,-165.7183 354.703,-170.9019"/>
</g>
<!-- Node77&#45;&gt;Node65 -->
<g id="edge51" class="edge">
<title>Node77&#45;&gt;Node65</title>
<path fill="none" stroke="#191970" d="M221.7459,-76.5376C242.113,-57.5591 280.2687,-25.9583 320,-13.6222 366.2657,.7427 385.2843,7.2536 429,-13.6222 478.8261,-37.416 512.992,-96.8309 527.9548,-127.5541"/>
<polygon fill="#191970" stroke="#191970" points="524.8688,-129.2168 532.2879,-136.7804 531.2049,-126.2411 524.8688,-129.2168"/>
</g>
<!-- Node77&#45;&gt;Node69 -->
<g id="edge48" class="edge">
<title>Node77&#45;&gt;Node69</title>
<path fill="none" stroke="#191970" d="M263.845,-102.9258C271.2018,-106.1508 278.1826,-110.2955 284,-115.6222 315.1659,-144.1593 289.3402,-174.542 320,-203.6222 321.654,-205.191 323.4444,-206.631 325.3339,-207.9527"/>
<polygon fill="#191970" stroke="#191970" points="323.7252,-211.0651 334.1376,-213.0228 327.2186,-204.9991 323.7252,-211.0651"/>
</g>
<!-- Node77&#45;&gt;Node72 -->
<g id="edge49" class="edge">
<title>Node77&#45;&gt;Node72</title>
<path fill="none" stroke="#191970" d="M263.8462,-84.454C279.1293,-82.5436 295.7256,-80.469 311.3033,-78.5218"/>
<polygon fill="#191970" stroke="#191970" points="311.8804,-81.977 321.369,-77.2636 311.0121,-75.0311 311.8804,-81.977"/>
</g>
<!-- Node77&#45;&gt;Node73 -->
<g id="edge50" class="edge">
<title>Node77&#45;&gt;Node73</title>
<path fill="none" stroke="#191970" d="M263.8462,-97.4251C278.9733,-98.9558 295.3871,-100.6168 310.8262,-102.179"/>
<polygon fill="#191970" stroke="#191970" points="310.5062,-105.6644 320.8078,-103.1891 311.211,-98.7 310.5062,-105.6644"/>
</g>
<!-- Node77&#45;&gt;Node74 -->
<g id="edge52" class="edge">
<title>Node77&#45;&gt;Node74</title>
<path fill="none" stroke="#191970" d="M249.0669,-76.5824C270.3625,-69.0679 296.5373,-59.8464 320,-51.6222 325.6338,-49.6474 331.5972,-47.5628 337.4316,-45.5263"/>
<polygon fill="#191970" stroke="#191970" points="338.7581,-48.7705 347.0477,-42.1725 336.4528,-42.1609 338.7581,-48.7705"/>
</g>
</g>
</svg>
