<?xml version="1.0" encoding="UTF-8" standalone="no"?>
<!DOCTYPE svg PUBLIC "-//W3C//DTD SVG 1.1//EN"
 "http://www.w3.org/Graphics/SVG/1.1/DTD/svg11.dtd">
<!-- Generated by graphviz version 2.40.1 (20161225.0304)
 -->
<!-- Title: inst/include/functions.h Pages: 1 -->
<svg width="440pt" height="252pt"
 viewBox="0.00 0.00 439.56 252.00" xmlns="http://www.w3.org/2000/svg" xmlns:xlink="http://www.w3.org/1999/xlink">
<g id="graph0" class="graph" transform="scale(1 1) rotate(0) translate(4 248)">
<title>inst/include/functions.h</title>
<!-- Node5 -->
<g id="node1" class="node">
<title>Node5</title>
<polygon fill="#bfbfbf" stroke="#000000" points="311,-224.5 311,-243.5 428,-243.5 428,-224.5 311,-224.5"/>
<text text-anchor="middle" x="369.5" y="-231.5" font-family="Helvetica,sans-Serif" font-size="10.00" fill="#000000">inst/include/functions.h</text>
</g>
<!-- Node6 -->
<g id="node2" class="node">
<title>Node6</title>
<g id="a_node2"><a xlink:href="fish__glue_8cpp.html" target="_top" xlink:title="src/fish_glue.cpp">
<polygon fill="none" stroke="#000000" points="316,-.5 316,-19.5 407,-19.5 407,-.5 316,-.5"/>
<text text-anchor="middle" x="361.5" y="-7.5" font-family="Helvetica,sans-Serif" font-size="10.00" fill="#000000">src/fish_glue.cpp</text>
</a>
</g>
</g>
<!-- Node5&#45;&gt;Node6 -->
<g id="edge1" class="edge">
<title>Node5&#45;&gt;Node6</title>
<path fill="none" stroke="#191970" d="M383.3136,-216.0818C406.9291,-183.1045 449.9752,-111.1308 422.5,-56 414.2172,-39.3801 396.7503,-27.1809 382.6216,-19.5378"/>
<polygon fill="#191970" stroke="#191970" points="380.3679,-214.1791 377.2429,-224.3026 385.9989,-218.3375 380.3679,-214.1791"/>
</g>
<!-- Node7 -->
<g id="node3" class="node">
<title>Node7</title>
<g id="a_node3"><a xlink:href="fish_8h.html" target="_top" xlink:title="inst/include/fish.h">
<polygon fill="none" stroke="#000000" points="228,-168.5 228,-187.5 321,-187.5 321,-168.5 228,-168.5"/>
<text text-anchor="middle" x="274.5" y="-175.5" font-family="Helvetica,sans-Serif" font-size="10.00" fill="#000000">inst/include/fish.h</text>
</a>
</g>
</g>
<!-- Node5&#45;&gt;Node7 -->
<g id="edge2" class="edge">
<title>Node5&#45;&gt;Node7</title>
<path fill="none" stroke="#191970" d="M344.1324,-219.0465C327.229,-209.0824 305.5096,-196.2794 290.8581,-187.6427"/>
<polygon fill="#191970" stroke="#191970" points="342.5602,-222.1825 352.9523,-224.2455 346.1149,-216.1522 342.5602,-222.1825"/>
</g>
<!-- Node7&#45;&gt;Node6 -->
<g id="edge4" class="edge">
<title>Node7&#45;&gt;Node6</title>
<path fill="none" stroke="#191970" d="M307.5876,-164.1051C340.3238,-148.264 388.242,-118.8845 407.5,-76 417.3411,-54.0854 393.1931,-31.8251 376.2864,-19.5762"/>
<polygon fill="#191970" stroke="#191970" points="305.9621,-161.0012 298.3792,-168.4004 308.9213,-167.345 305.9621,-161.0012"/>
</g>
<!-- Node8 -->
<g id="node4" class="node">
<title>Node8</title>
<g id="a_node4"><a xlink:href="fish_8cpp.html" target="_top" xlink:title="src/fish.cpp">
<polygon fill="none" stroke="#000000" points="127.5,-112.5 127.5,-131.5 195.5,-131.5 195.5,-112.5 127.5,-112.5"/>
<text text-anchor="middle" x="161.5" y="-119.5" font-family="Helvetica,sans-Serif" font-size="10.00" fill="#000000">src/fish.cpp</text>
</a>
</g>
</g>
<!-- Node7&#45;&gt;Node8 -->
<g id="edge3" class="edge">
<title>Node7&#45;&gt;Node8</title>
<path fill="none" stroke="#191970" d="M245.9208,-163.8368C225.4942,-153.7139 198.5638,-140.3679 180.6719,-131.5011"/>
<polygon fill="#191970" stroke="#191970" points="244.5604,-167.0688 255.0746,-168.3733 247.6687,-160.7968 244.5604,-167.0688"/>
</g>
<!-- Node9 -->
<g id="node5" class="node">
<title>Node9</title>
<g id="a_node5"><a xlink:href="fisheRy_8h.html" target="_top" xlink:title="inst/include/fisheRy.h">
<polygon fill="none" stroke="#000000" points="0,-56.5 0,-75.5 111,-75.5 111,-56.5 0,-56.5"/>
<text text-anchor="middle" x="55.5" y="-63.5" font-family="Helvetica,sans-Serif" font-size="10.00" fill="#000000">inst/include/fisheRy.h</text>
</a>
</g>
</g>
<!-- Node7&#45;&gt;Node9 -->
<g id="edge5" class="edge">
<title>Node7&#45;&gt;Node9</title>
<path fill="none" stroke="#191970" d="M218.0787,-168.7731C187.0642,-161.9367 148.8439,-150.508 118.5,-132 93.8873,-116.9877 72.4286,-89.9625 62.0793,-75.5929"/>
<polygon fill="#191970" stroke="#191970" points="217.3696,-172.2005 227.876,-170.8345 218.811,-165.3505 217.3696,-172.2005"/>
</g>
<!-- Node11 -->
<g id="node7" class="node">
<title>Node11</title>
<g id="a_node7"><a xlink:href="population_8h.html" target="_top" xlink:title="inst/include/population.h">
<polygon fill="none" stroke="#000000" points="213.5,-112.5 213.5,-131.5 335.5,-131.5 335.5,-112.5 213.5,-112.5"/>
<text text-anchor="middle" x="274.5" y="-119.5" font-family="Helvetica,sans-Serif" font-size="10.00" fill="#000000">inst/include/population.h</text>
</a>
</g>
</g>
<!-- Node7&#45;&gt;Node11 -->
<g id="edge7" class="edge">
<title>Node7&#45;&gt;Node11</title>
<path fill="none" stroke="#191970" d="M274.5,-158.1575C274.5,-149.155 274.5,-138.9199 274.5,-131.6427"/>
<polygon fill="#191970" stroke="#191970" points="271.0001,-158.2455 274.5,-168.2455 278.0001,-158.2456 271.0001,-158.2455"/>
</g>
<!-- Node10 -->
<g id="node6" class="node">
<title>Node10</title>
<g id="a_node6"><a xlink:href="RcppExports_8cpp.html" target="_top" xlink:title="src/RcppExports.cpp">
<polygon fill="none" stroke="#000000" points="1,-.5 1,-19.5 110,-19.5 110,-.5 1,-.5"/>
<text text-anchor="middle" x="55.5" y="-7.5" font-family="Helvetica,sans-Serif" font-size="10.00" fill="#000000">src/RcppExports.cpp</text>
</a>
</g>
</g>
<!-- Node9&#45;&gt;Node10 -->
<g id="edge6" class="edge">
<title>Node9&#45;&gt;Node10</title>
<path fill="none" stroke="#191970" d="M55.5,-46.1575C55.5,-37.155 55.5,-26.9199 55.5,-19.6427"/>
<polygon fill="#191970" stroke="#191970" points="52.0001,-46.2455 55.5,-56.2455 59.0001,-46.2456 52.0001,-46.2455"/>
</g>
<!-- Node11&#45;&gt;Node6 -->
<g id="edge8" class="edge">
<title>Node11&#45;&gt;Node6</title>
<path fill="none" stroke="#191970" d="M276.6031,-102.0821C278.8966,-88.0987 283.6583,-69.5502 293.5,-56 305.3102,-39.7396 324.7392,-27.4365 339.8117,-19.6642"/>
<polygon fill="#191970" stroke="#191970" points="273.1154,-101.7561 275.243,-112.1351 280.0522,-102.6946 273.1154,-101.7561"/>
</g>
<!-- Node11&#45;&gt;Node9 -->
<g id="edge10" class="edge">
<title>Node11&#45;&gt;Node9</title>
<path fill="none" stroke="#191970" d="M226.9892,-109.8511C186.6898,-99.5462 129.6852,-84.9697 92.6562,-75.5011"/>
<polygon fill="#191970" stroke="#191970" points="226.2972,-113.2867 236.8526,-112.3733 228.0314,-106.5049 226.2972,-113.2867"/>
</g>
<!-- Node12 -->
<g id="node8" class="node">
<title>Node12</title>
<g id="a_node8"><a xlink:href="population_8cpp.html" target="_top" xlink:title="src/population.cpp">
<polygon fill="none" stroke="#000000" points="302.5,-56.5 302.5,-75.5 398.5,-75.5 398.5,-56.5 302.5,-56.5"/>
<text text-anchor="middle" x="350.5" y="-63.5" font-family="Helvetica,sans-Serif" font-size="10.00" fill="#000000">src/population.cpp</text>
</a>
</g>
</g>
<!-- Node11&#45;&gt;Node12 -->
<g id="edge9" class="edge">
<title>Node11&#45;&gt;Node12</title>
<path fill="none" stroke="#191970" d="M295.9297,-106.2097C309.2777,-96.3743 326.0179,-84.0394 337.4135,-75.6427"/>
<polygon fill="#191970" stroke="#191970" points="293.7126,-103.4958 287.7382,-112.2455 297.865,-109.1312 293.7126,-103.4958"/>
</g>
<!-- Node13 -->
<g id="node9" class="node">
<title>Node13</title>
<g id="a_node9"><a xlink:href="simulator_8h.html" target="_top" xlink:title="inst/include/simulator.h">
<polygon fill="none" stroke="#000000" points="129,-56.5 129,-75.5 246,-75.5 246,-56.5 129,-56.5"/>
<text text-anchor="middle" x="187.5" y="-63.5" font-family="Helvetica,sans-Serif" font-size="10.00" fill="#000000">inst/include/simulator.h</text>
</a>
</g>
</g>
<!-- Node11&#45;&gt;Node13 -->
<g id="edge11" class="edge">
<title>Node11&#45;&gt;Node13</title>
<path fill="none" stroke="#191970" d="M250.8375,-106.769C235.4209,-96.8456 215.774,-84.1994 202.4806,-75.6427"/>
<polygon fill="#191970" stroke="#191970" points="249.0427,-109.7761 259.3458,-112.2455 252.8315,-103.89 249.0427,-109.7761"/>
</g>
<!-- Node13&#45;&gt;Node6 -->
<g id="edge12" class="edge">
<title>Node13&#45;&gt;Node6</title>
<path fill="none" stroke="#191970" d="M227.301,-53.1905C259.179,-42.9309 303.1816,-28.7691 331.9787,-19.5011"/>
<polygon fill="#191970" stroke="#191970" points="225.8585,-49.9779 217.4117,-56.3733 228.0031,-56.6413 225.8585,-49.9779"/>
</g>
<!-- Node14 -->
<g id="node10" class="node">
<title>Node14</title>
<g id="a_node10"><a xlink:href="simulator_8cpp.html" target="_top" xlink:title="src/simulator.cpp">
<polygon fill="none" stroke="#000000" points="141.5,-.5 141.5,-19.5 233.5,-19.5 233.5,-.5 141.5,-.5"/>
<text text-anchor="middle" x="187.5" y="-7.5" font-family="Helvetica,sans-Serif" font-size="10.00" fill="#000000">src/simulator.cpp</text>
</a>
</g>
</g>
<!-- Node13&#45;&gt;Node14 -->
<g id="edge13" class="edge">
<title>Node13&#45;&gt;Node14</title>
<path fill="none" stroke="#191970" d="M187.5,-46.1575C187.5,-37.155 187.5,-26.9199 187.5,-19.6427"/>
<polygon fill="#191970" stroke="#191970" points="184.0001,-46.2455 187.5,-56.2455 191.0001,-46.2456 184.0001,-46.2455"/>
</g>
</g>
</svg>
