<?xml version="1.0" encoding="UTF-8" standalone="no"?>
<!DOCTYPE svg PUBLIC "-//W3C//DTD SVG 1.1//EN"
 "http://www.w3.org/Graphics/SVG/1.1/DTD/svg11.dtd">
<!-- Generated by graphviz version 2.40.1 (20161225.0304)
 -->
<!-- Title: inst/include/functions.h Pages: 1 -->
<svg width="432pt" height="252pt"
 viewBox="0.00 0.00 431.56 252.00" xmlns="http://www.w3.org/2000/svg" xmlns:xlink="http://www.w3.org/1999/xlink">
<g id="graph0" class="graph" transform="scale(1 1) rotate(0) translate(4 248)">
<title>inst/include/functions.h</title>
<!-- Node5 -->
<g id="node1" class="node">
<title>Node5</title>
<polygon fill="#bfbfbf" stroke="#000000" points="303,-224.5 303,-243.5 420,-243.5 420,-224.5 303,-224.5"/>
<text text-anchor="middle" x="361.5" y="-231.5" font-family="Helvetica,sans-Serif" font-size="10.00" fill="#000000">inst/include/functions.h</text>
</g>
<!-- Node6 -->
<g id="node2" class="node">
<title>Node6</title>
<g id="a_node2"><a xlink:href="fish__glue_8cpp.html" target="_top" xlink:title="src/fish_glue.cpp">
<polygon fill="none" stroke="#000000" points="308,-.5 308,-19.5 399,-19.5 399,-.5 308,-.5"/>
<text text-anchor="middle" x="353.5" y="-7.5" font-family="Helvetica,sans-Serif" font-size="10.00" fill="#000000">src/fish_glue.cpp</text>
</a>
</g>
</g>
<!-- Node5&#45;&gt;Node6 -->
<g id="edge1" class="edge">
<title>Node5&#45;&gt;Node6</title>
<path fill="none" stroke="#191970" d="M375.3136,-216.0818C398.9291,-183.1045 441.9752,-111.1308 414.5,-56 406.2172,-39.3801 388.7503,-27.1809 374.6216,-19.5378"/>
<polygon fill="#191970" stroke="#191970" points="372.3679,-214.1791 369.2429,-224.3026 377.9989,-218.3375 372.3679,-214.1791"/>
</g>
<!-- Node7 -->
<g id="node3" class="node">
<title>Node7</title>
<g id="a_node3"><a xlink:href="fish_8h.html" target="_top" xlink:title="inst/include/fish.h">
<polygon fill="none" stroke="#000000" points="220,-168.5 220,-187.5 313,-187.5 313,-168.5 220,-168.5"/>
<text text-anchor="middle" x="266.5" y="-175.5" font-family="Helvetica,sans-Serif" font-size="10.00" fill="#000000">inst/include/fish.h</text>
</a>
</g>
</g>
<!-- Node5&#45;&gt;Node7 -->
<g id="edge2" class="edge">
<title>Node5&#45;&gt;Node7</title>
<path fill="none" stroke="#191970" d="M336.1324,-219.0465C319.229,-209.0824 297.5096,-196.2794 282.8581,-187.6427"/>
<polygon fill="#191970" stroke="#191970" points="334.5602,-222.1825 344.9523,-224.2455 338.1149,-216.1522 334.5602,-222.1825"/>
</g>
<!-- Node7&#45;&gt;Node6 -->
<g id="edge4" class="edge">
<title>Node7&#45;&gt;Node6</title>
<path fill="none" stroke="#191970" d="M299.5876,-164.1051C332.3238,-148.264 380.242,-118.8845 399.5,-76 409.3411,-54.0854 385.1931,-31.8251 368.2864,-19.5762"/>
<polygon fill="#191970" stroke="#191970" points="297.9621,-161.0012 290.3792,-168.4004 300.9213,-167.345 297.9621,-161.0012"/>
</g>
<!-- Node8 -->
<g id="node4" class="node">
<title>Node8</title>
<g id="a_node4"><a xlink:href="fish_8cpp.html" target="_top" xlink:title="src/fish.cpp">
<polygon fill="none" stroke="#000000" points="119.5,-112.5 119.5,-131.5 187.5,-131.5 187.5,-112.5 119.5,-112.5"/>
<text text-anchor="middle" x="153.5" y="-119.5" font-family="Helvetica,sans-Serif" font-size="10.00" fill="#000000">src/fish.cpp</text>
</a>
</g>
</g>
<!-- Node7&#45;&gt;Node8 -->
<g id="edge3" class="edge">
<title>Node7&#45;&gt;Node8</title>
<path fill="none" stroke="#191970" d="M237.9208,-163.8368C217.4942,-153.7139 190.5638,-140.3679 172.6719,-131.5011"/>
<polygon fill="#191970" stroke="#191970" points="236.5604,-167.0688 247.0746,-168.3733 239.6687,-160.7968 236.5604,-167.0688"/>
</g>
<!-- Node9 -->
<g id="node5" class="node">
<title>Node9</title>
<g id="a_node5"><a xlink:href="rfish_8h.html" target="_top" xlink:title="inst/include/rfish.h">
<polygon fill="none" stroke="#000000" points="6.5,-56.5 6.5,-75.5 102.5,-75.5 102.5,-56.5 6.5,-56.5"/>
<text text-anchor="middle" x="54.5" y="-63.5" font-family="Helvetica,sans-Serif" font-size="10.00" fill="#000000">inst/include/rfish.h</text>
</a>
</g>
</g>
<!-- Node7&#45;&gt;Node9 -->
<g id="edge5" class="edge">
<title>Node7&#45;&gt;Node9</title>
<path fill="none" stroke="#191970" d="M209.9835,-169.5262C178.7744,-162.9132 140.3961,-151.4575 110.5,-132 87.5779,-117.0814 68.9439,-90.0167 60.0865,-75.6164"/>
<polygon fill="#191970" stroke="#191970" points="209.3511,-172.969 219.8446,-171.5072 210.7298,-166.1061 209.3511,-172.969"/>
</g>
<!-- Node11 -->
<g id="node7" class="node">
<title>Node11</title>
<g id="a_node7"><a xlink:href="population_8h.html" target="_top" xlink:title="inst/include/population.h">
<polygon fill="none" stroke="#000000" points="205.5,-112.5 205.5,-131.5 327.5,-131.5 327.5,-112.5 205.5,-112.5"/>
<text text-anchor="middle" x="266.5" y="-119.5" font-family="Helvetica,sans-Serif" font-size="10.00" fill="#000000">inst/include/population.h</text>
</a>
</g>
</g>
<!-- Node7&#45;&gt;Node11 -->
<g id="edge7" class="edge">
<title>Node7&#45;&gt;Node11</title>
<path fill="none" stroke="#191970" d="M266.5,-158.1575C266.5,-149.155 266.5,-138.9199 266.5,-131.6427"/>
<polygon fill="#191970" stroke="#191970" points="263.0001,-158.2455 266.5,-168.2455 270.0001,-158.2456 263.0001,-158.2455"/>
</g>
<!-- Node10 -->
<g id="node6" class="node">
<title>Node10</title>
<g id="a_node6"><a xlink:href="RcppExports_8cpp.html" target="_top" xlink:title="src/RcppExports.cpp">
<polygon fill="none" stroke="#000000" points="0,-.5 0,-19.5 109,-19.5 109,-.5 0,-.5"/>
<text text-anchor="middle" x="54.5" y="-7.5" font-family="Helvetica,sans-Serif" font-size="10.00" fill="#000000">src/RcppExports.cpp</text>
</a>
</g>
</g>
<!-- Node9&#45;&gt;Node10 -->
<g id="edge6" class="edge">
<title>Node9&#45;&gt;Node10</title>
<path fill="none" stroke="#191970" d="M54.5,-46.1575C54.5,-37.155 54.5,-26.9199 54.5,-19.6427"/>
<polygon fill="#191970" stroke="#191970" points="51.0001,-46.2455 54.5,-56.2455 58.0001,-46.2456 51.0001,-46.2455"/>
</g>
<!-- Node11&#45;&gt;Node6 -->
<g id="edge8" class="edge">
<title>Node11&#45;&gt;Node6</title>
<path fill="none" stroke="#191970" d="M268.6031,-102.0821C270.8966,-88.0987 275.6583,-69.5502 285.5,-56 297.3102,-39.7396 316.7392,-27.4365 331.8117,-19.6642"/>
<polygon fill="#191970" stroke="#191970" points="265.1154,-101.7561 267.243,-112.1351 272.0522,-102.6946 265.1154,-101.7561"/>
</g>
<!-- Node11&#45;&gt;Node9 -->
<g id="edge10" class="edge">
<title>Node11&#45;&gt;Node9</title>
<path fill="none" stroke="#191970" d="M220.011,-109.7199C181.0292,-99.4228 126.1621,-84.9296 90.4685,-75.5011"/>
<polygon fill="#191970" stroke="#191970" points="219.4936,-113.2032 230.0559,-112.3733 221.2814,-106.4353 219.4936,-113.2032"/>
</g>
<!-- Node12 -->
<g id="node8" class="node">
<title>Node12</title>
<g id="a_node8"><a xlink:href="population_8cpp.html" target="_top" xlink:title="src/population.cpp">
<polygon fill="none" stroke="#000000" points="294.5,-56.5 294.5,-75.5 390.5,-75.5 390.5,-56.5 294.5,-56.5"/>
<text text-anchor="middle" x="342.5" y="-63.5" font-family="Helvetica,sans-Serif" font-size="10.00" fill="#000000">src/population.cpp</text>
</a>
</g>
</g>
<!-- Node11&#45;&gt;Node12 -->
<g id="edge9" class="edge">
<title>Node11&#45;&gt;Node12</title>
<path fill="none" stroke="#191970" d="M287.9297,-106.2097C301.2777,-96.3743 318.0179,-84.0394 329.4135,-75.6427"/>
<polygon fill="#191970" stroke="#191970" points="285.7126,-103.4958 279.7382,-112.2455 289.865,-109.1312 285.7126,-103.4958"/>
</g>
<!-- Node13 -->
<g id="node9" class="node">
<title>Node13</title>
<g id="a_node9"><a xlink:href="simulator_8h.html" target="_top" xlink:title="inst/include/simulator.h">
<polygon fill="none" stroke="#000000" points="121,-56.5 121,-75.5 238,-75.5 238,-56.5 121,-56.5"/>
<text text-anchor="middle" x="179.5" y="-63.5" font-family="Helvetica,sans-Serif" font-size="10.00" fill="#000000">inst/include/simulator.h</text>
</a>
</g>
</g>
<!-- Node11&#45;&gt;Node13 -->
<g id="edge11" class="edge">
<title>Node11&#45;&gt;Node13</title>
<path fill="none" stroke="#191970" d="M242.8375,-106.769C227.4209,-96.8456 207.774,-84.1994 194.4806,-75.6427"/>
<polygon fill="#191970" stroke="#191970" points="241.0427,-109.7761 251.3458,-112.2455 244.8315,-103.89 241.0427,-109.7761"/>
</g>
<!-- Node13&#45;&gt;Node6 -->
<g id="edge12" class="edge">
<title>Node13&#45;&gt;Node6</title>
<path fill="none" stroke="#191970" d="M219.301,-53.1905C251.179,-42.9309 295.1816,-28.7691 323.9787,-19.5011"/>
<polygon fill="#191970" stroke="#191970" points="217.8585,-49.9779 209.4117,-56.3733 220.0031,-56.6413 217.8585,-49.9779"/>
</g>
<!-- Node14 -->
<g id="node10" class="node">
<title>Node14</title>
<g id="a_node10"><a xlink:href="simulator_8cpp.html" target="_top" xlink:title="src/simulator.cpp">
<polygon fill="none" stroke="#000000" points="133.5,-.5 133.5,-19.5 225.5,-19.5 225.5,-.5 133.5,-.5"/>
<text text-anchor="middle" x="179.5" y="-7.5" font-family="Helvetica,sans-Serif" font-size="10.00" fill="#000000">src/simulator.cpp</text>
</a>
</g>
</g>
<!-- Node13&#45;&gt;Node14 -->
<g id="edge13" class="edge">
<title>Node13&#45;&gt;Node14</title>
<path fill="none" stroke="#191970" d="M179.5,-46.1575C179.5,-37.155 179.5,-26.9199 179.5,-19.6427"/>
<polygon fill="#191970" stroke="#191970" points="176.0001,-46.2455 179.5,-56.2455 183.0001,-46.2456 176.0001,-46.2455"/>
</g>
</g>
</svg>
