<?xml version="1.0" encoding="UTF-8" standalone="no"?>
<!DOCTYPE svg PUBLIC "-//W3C//DTD SVG 1.1//EN"
 "http://www.w3.org/Graphics/SVG/1.1/DTD/svg11.dtd">
<!-- Generated by graphviz version 2.40.1 (20161225.0304)
 -->
<!-- Title: inst/include/initializer_v2.h Pages: 1 -->
<svg width="560pt" height="84pt"
 viewBox="0.00 0.00 559.50 84.00" xmlns="http://www.w3.org/2000/svg" xmlns:xlink="http://www.w3.org/1999/xlink">
<g id="graph0" class="graph" transform="scale(1 1) rotate(0) translate(4 80)">
<title>inst/include/initializer_v2.h</title>
<!-- Node0 -->
<g id="node1" class="node">
<title>Node0</title>
<polygon fill="#bfbfbf" stroke="#000000" points="182.5,-56.5 182.5,-75.5 313.5,-75.5 313.5,-56.5 182.5,-56.5"/>
<text text-anchor="middle" x="248" y="-63.5" font-family="Helvetica,sans-Serif" font-size="10.00" fill="#000000">inst/include/initializer_v2.h</text>
</g>
<!-- Node1 -->
<g id="node2" class="node">
<title>Node1</title>
<polygon fill="none" stroke="#bfbfbf" points="0,-.5 0,-19.5 54,-19.5 54,-.5 0,-.5"/>
<text text-anchor="middle" x="27" y="-7.5" font-family="Helvetica,sans-Serif" font-size="10.00" fill="#000000">iostream</text>
</g>
<!-- Node0&#45;&gt;Node1 -->
<g id="edge1" class="edge">
<title>Node0&#45;&gt;Node1</title>
<path fill="none" stroke="#191970" d="M208.2235,-56.4413C172.8303,-47.862 119.4097,-34.7326 64.0873,-20.2391"/>
<polygon fill="#191970" stroke="#191970" points="64.6667,-16.7725 54.1054,-17.6144 62.8866,-23.5424 64.6667,-16.7725"/>
</g>
<!-- Node2 -->
<g id="node3" class="node">
<title>Node2</title>
<polygon fill="none" stroke="#bfbfbf" points="72.5,-.5 72.5,-19.5 113.5,-19.5 113.5,-.5 72.5,-.5"/>
<text text-anchor="middle" x="93" y="-7.5" font-family="Helvetica,sans-Serif" font-size="10.00" fill="#000000">regex</text>
</g>
<!-- Node0&#45;&gt;Node2 -->
<g id="edge2" class="edge">
<title>Node0&#45;&gt;Node2</title>
<path fill="none" stroke="#191970" d="M221.3546,-56.3733C194.1002,-46.5265 151.8228,-31.2521 123.3084,-20.9501"/>
<polygon fill="#191970" stroke="#191970" points="124.4379,-17.6368 113.8436,-17.5306 122.0593,-24.2204 124.4379,-17.6368"/>
</g>
<!-- Node3 -->
<g id="node4" class="node">
<title>Node3</title>
<polygon fill="none" stroke="#bfbfbf" points="131.5,-.5 131.5,-19.5 172.5,-19.5 172.5,-.5 131.5,-.5"/>
<text text-anchor="middle" x="152" y="-7.5" font-family="Helvetica,sans-Serif" font-size="10.00" fill="#000000">string</text>
</g>
<!-- Node0&#45;&gt;Node3 -->
<g id="edge3" class="edge">
<title>Node0&#45;&gt;Node3</title>
<path fill="none" stroke="#191970" d="M231.2781,-56.2455C216.4111,-47.5731 194.4534,-34.7645 177.4142,-24.825"/>
<polygon fill="#191970" stroke="#191970" points="178.9317,-21.6582 168.5303,-19.6427 175.4045,-27.7047 178.9317,-21.6582"/>
</g>
<!-- Node4 -->
<g id="node5" class="node">
<title>Node4</title>
<polygon fill="none" stroke="#bfbfbf" points="191,-.5 191,-19.5 241,-19.5 241,-.5 191,-.5"/>
<text text-anchor="middle" x="216" y="-7.5" font-family="Helvetica,sans-Serif" font-size="10.00" fill="#000000">fstream</text>
</g>
<!-- Node0&#45;&gt;Node4 -->
<g id="edge4" class="edge">
<title>Node0&#45;&gt;Node4</title>
<path fill="none" stroke="#191970" d="M242.426,-56.2455C238.0669,-48.617 231.8789,-37.7881 226.5867,-28.5267"/>
<polygon fill="#191970" stroke="#191970" points="229.5104,-26.5886 221.5101,-19.6427 223.4327,-30.0616 229.5104,-26.5886"/>
</g>
<!-- Node5 -->
<g id="node6" class="node">
<title>Node5</title>
<polygon fill="none" stroke="#bfbfbf" points="259,-.5 259,-19.5 303,-19.5 303,-.5 259,-.5"/>
<text text-anchor="middle" x="281" y="-7.5" font-family="Helvetica,sans-Serif" font-size="10.00" fill="#000000">vector</text>
</g>
<!-- Node0&#45;&gt;Node5 -->
<g id="edge5" class="edge">
<title>Node0&#45;&gt;Node5</title>
<path fill="none" stroke="#191970" d="M253.7482,-56.2455C258.2435,-48.617 264.6248,-37.7881 270.0825,-28.5267"/>
<polygon fill="#191970" stroke="#191970" points="273.2561,-30.035 275.3177,-19.6427 267.2253,-26.4811 273.2561,-30.035"/>
</g>
<!-- Node6 -->
<g id="node7" class="node">
<title>Node6</title>
<polygon fill="none" stroke="#bfbfbf" points="321,-.5 321,-19.5 373,-19.5 373,-.5 321,-.5"/>
<text text-anchor="middle" x="347" y="-7.5" font-family="Helvetica,sans-Serif" font-size="10.00" fill="#000000">sstream</text>
</g>
<!-- Node0&#45;&gt;Node6 -->
<g id="edge6" class="edge">
<title>Node0&#45;&gt;Node6</title>
<path fill="none" stroke="#191970" d="M265.2445,-56.2455C280.5761,-47.5731 303.2199,-34.7645 320.7916,-24.825"/>
<polygon fill="#191970" stroke="#191970" points="322.9724,-27.6126 329.9531,-19.6427 319.5259,-21.5198 322.9724,-27.6126"/>
</g>
<!-- Node7 -->
<g id="node8" class="node">
<title>Node7</title>
<polygon fill="none" stroke="#bfbfbf" points="391.5,-.5 391.5,-19.5 450.5,-19.5 450.5,-.5 391.5,-.5"/>
<text text-anchor="middle" x="421" y="-7.5" font-family="Helvetica,sans-Serif" font-size="10.00" fill="#000000">stdexcept</text>
</g>
<!-- Node0&#45;&gt;Node7 -->
<g id="edge7" class="edge">
<title>Node0&#45;&gt;Node7</title>
<path fill="none" stroke="#191970" d="M277.7398,-56.3733C306.507,-47.0613 350.27,-32.8953 381.8556,-22.671"/>
<polygon fill="#191970" stroke="#191970" points="383.2122,-25.9107 391.6483,-19.5011 381.0564,-19.251 383.2122,-25.9107"/>
</g>
<!-- Node8 -->
<g id="node9" class="node">
<title>Node8</title>
<polygon fill="none" stroke="#bfbfbf" points="468.5,-.5 468.5,-19.5 551.5,-19.5 551.5,-.5 468.5,-.5"/>
<text text-anchor="middle" x="510" y="-7.5" font-family="Helvetica,sans-Serif" font-size="10.00" fill="#000000">unordered_map</text>
</g>
<!-- Node0&#45;&gt;Node8 -->
<g id="edge8" class="edge">
<title>Node0&#45;&gt;Node8</title>
<path fill="none" stroke="#191970" d="M292.7417,-56.4369C338.7245,-46.6085 410.2324,-31.3244 458.5321,-21.0008"/>
<polygon fill="#191970" stroke="#191970" points="459.4214,-24.3898 468.4689,-18.8769 457.9582,-17.5444 459.4214,-24.3898"/>
</g>
</g>
</svg>
