<?xml version="1.0" encoding="UTF-8" standalone="no"?>
<!DOCTYPE svg PUBLIC "-//W3C//DTD SVG 1.1//EN"
 "http://www.w3.org/Graphics/SVG/1.1/DTD/svg11.dtd">
<!-- Generated by graphviz version 2.40.1 (20161225.0304)
 -->
<!-- Title: inst/include/initializer_v2.h Pages: 1 -->
<svg width="420pt" height="252pt"
 viewBox="0.00 0.00 420.02 252.00" xmlns="http://www.w3.org/2000/svg" xmlns:xlink="http://www.w3.org/1999/xlink">
<g id="graph0" class="graph" transform="scale(1 1) rotate(0) translate(4 248)">
<title>inst/include/initializer_v2.h</title>
<!-- Node9 -->
<g id="node1" class="node">
<title>Node9</title>
<polygon fill="#bfbfbf" stroke="#000000" points="120,-224.5 120,-243.5 251,-243.5 251,-224.5 120,-224.5"/>
<text text-anchor="middle" x="185.5" y="-231.5" font-family="Helvetica,sans-Serif" font-size="10.00" fill="#000000">inst/include/initializer_v2.h</text>
</g>
<!-- Node10 -->
<g id="node2" class="node">
<title>Node10</title>
<g id="a_node2"><a xlink:href="fish_8h.html" target="_top" xlink:title="inst/include/fish.h">
<polygon fill="none" stroke="#000000" points="139,-168.5 139,-187.5 232,-187.5 232,-168.5 139,-168.5"/>
<text text-anchor="middle" x="185.5" y="-175.5" font-family="Helvetica,sans-Serif" font-size="10.00" fill="#000000">inst/include/fish.h</text>
</a>
</g>
</g>
<!-- Node9&#45;&gt;Node10 -->
<g id="edge1" class="edge">
<title>Node9&#45;&gt;Node10</title>
<path fill="none" stroke="#191970" d="M185.5,-214.1575C185.5,-205.155 185.5,-194.9199 185.5,-187.6427"/>
<polygon fill="#191970" stroke="#191970" points="182.0001,-214.2455 185.5,-224.2455 189.0001,-214.2456 182.0001,-214.2455"/>
</g>
<!-- Node11 -->
<g id="node3" class="node">
<title>Node11</title>
<g id="a_node3"><a xlink:href="fish_8cpp.html" target="_top" xlink:title="src/fish.cpp">
<polygon fill="none" stroke="#000000" points="45.5,-112.5 45.5,-131.5 113.5,-131.5 113.5,-112.5 45.5,-112.5"/>
<text text-anchor="middle" x="79.5" y="-119.5" font-family="Helvetica,sans-Serif" font-size="10.00" fill="#000000">src/fish.cpp</text>
</a>
</g>
</g>
<!-- Node10&#45;&gt;Node11 -->
<g id="edge2" class="edge">
<title>Node10&#45;&gt;Node11</title>
<path fill="none" stroke="#191970" d="M157.9778,-163.46C139.0092,-153.4388 114.3273,-140.3993 97.7522,-131.6427"/>
<polygon fill="#191970" stroke="#191970" points="156.5593,-166.669 167.0362,-168.2455 159.8292,-160.4796 156.5593,-166.669"/>
</g>
<!-- Node12 -->
<g id="node4" class="node">
<title>Node12</title>
<g id="a_node4"><a xlink:href="fish__glue_8cpp.html" target="_top" xlink:title="src/fish_glue.cpp">
<polygon fill="none" stroke="#000000" points="245,-.5 245,-19.5 336,-19.5 336,-.5 245,-.5"/>
<text text-anchor="middle" x="290.5" y="-7.5" font-family="Helvetica,sans-Serif" font-size="10.00" fill="#000000">src/fish_glue.cpp</text>
</a>
</g>
</g>
<!-- Node10&#45;&gt;Node12 -->
<g id="edge3" class="edge">
<title>Node10&#45;&gt;Node12</title>
<path fill="none" stroke="#191970" d="M242.1573,-169.9663C295.6225,-158.9941 372.6283,-133.6094 407.5,-76 426.7622,-44.178 376.604,-26.3888 336.0523,-17.4992"/>
<polygon fill="#191970" stroke="#191970" points="241.2805,-166.5711 232.1308,-171.9129 242.6146,-173.4428 241.2805,-166.5711"/>
</g>
<!-- Node13 -->
<g id="node5" class="node">
<title>Node13</title>
<g id="a_node5"><a xlink:href="fisheRy_8h.html" target="_top" xlink:title="inst/include/fisheRy.h">
<polygon fill="none" stroke="#000000" points="0,-56.5 0,-75.5 111,-75.5 111,-56.5 0,-56.5"/>
<text text-anchor="middle" x="55.5" y="-63.5" font-family="Helvetica,sans-Serif" font-size="10.00" fill="#000000">inst/include/fisheRy.h</text>
</a>
</g>
</g>
<!-- Node10&#45;&gt;Node13 -->
<g id="edge4" class="edge">
<title>Node10&#45;&gt;Node13</title>
<path fill="none" stroke="#191970" d="M170.7075,-160.6171C158.4732,-146.7222 140.2813,-127.1342 122.5,-112 106.0607,-98.008 85.3396,-84.3099 71.3267,-75.5523"/>
<polygon fill="#191970" stroke="#191970" points="168.3005,-163.1836 177.4982,-168.4422 173.5874,-158.5956 168.3005,-163.1836"/>
</g>
<!-- Node15 -->
<g id="node7" class="node">
<title>Node15</title>
<g id="a_node7"><a xlink:href="population_8h.html" target="_top" xlink:title="inst/include/population.h">
<polygon fill="none" stroke="#000000" points="169.5,-112.5 169.5,-131.5 291.5,-131.5 291.5,-112.5 169.5,-112.5"/>
<text text-anchor="middle" x="230.5" y="-119.5" font-family="Helvetica,sans-Serif" font-size="10.00" fill="#000000">inst/include/population.h</text>
</a>
</g>
</g>
<!-- Node10&#45;&gt;Node15 -->
<g id="edge6" class="edge">
<title>Node10&#45;&gt;Node15</title>
<path fill="none" stroke="#191970" d="M199.7946,-160.2112C207.3996,-150.7472 216.4538,-139.4797 222.7514,-131.6427"/>
<polygon fill="#191970" stroke="#191970" points="196.8741,-158.2581 193.3384,-168.2455 202.3306,-162.6428 196.8741,-158.2581"/>
</g>
<!-- Node14 -->
<g id="node6" class="node">
<title>Node14</title>
<g id="a_node6"><a xlink:href="RcppExports_8cpp.html" target="_top" xlink:title="src/RcppExports.cpp">
<polygon fill="none" stroke="#000000" points="1,-.5 1,-19.5 110,-19.5 110,-.5 1,-.5"/>
<text text-anchor="middle" x="55.5" y="-7.5" font-family="Helvetica,sans-Serif" font-size="10.00" fill="#000000">src/RcppExports.cpp</text>
</a>
</g>
</g>
<!-- Node13&#45;&gt;Node14 -->
<g id="edge5" class="edge">
<title>Node13&#45;&gt;Node14</title>
<path fill="none" stroke="#191970" d="M55.5,-46.1575C55.5,-37.155 55.5,-26.9199 55.5,-19.6427"/>
<polygon fill="#191970" stroke="#191970" points="52.0001,-46.2455 55.5,-56.2455 59.0001,-46.2456 52.0001,-46.2455"/>
</g>
<!-- Node15&#45;&gt;Node12 -->
<g id="edge7" class="edge">
<title>Node15&#45;&gt;Node12</title>
<path fill="none" stroke="#191970" d="M240.7456,-103.2516C245.2856,-94.9172 250.6793,-84.9792 255.5,-76 266.1747,-56.1168 278.5076,-32.772 285.3132,-19.8567"/>
<polygon fill="#191970" stroke="#191970" points="237.6103,-101.6904 235.8936,-112.1452 243.7554,-105.0429 237.6103,-101.6904"/>
</g>
<!-- Node15&#45;&gt;Node13 -->
<g id="edge9" class="edge">
<title>Node15&#45;&gt;Node13</title>
<path fill="none" stroke="#191970" d="M190.886,-109.3235C158.7925,-99.0536 114.2789,-84.8093 85.191,-75.5011"/>
<polygon fill="#191970" stroke="#191970" points="189.8254,-112.6589 200.4164,-112.3733 191.9589,-105.9919 189.8254,-112.6589"/>
</g>
<!-- Node16 -->
<g id="node8" class="node">
<title>Node16</title>
<g id="a_node8"><a xlink:href="population_8cpp.html" target="_top" xlink:title="src/population.cpp">
<polygon fill="none" stroke="#000000" points="302.5,-56.5 302.5,-75.5 398.5,-75.5 398.5,-56.5 302.5,-56.5"/>
<text text-anchor="middle" x="350.5" y="-63.5" font-family="Helvetica,sans-Serif" font-size="10.00" fill="#000000">src/population.cpp</text>
</a>
</g>
</g>
<!-- Node15&#45;&gt;Node16 -->
<g id="edge8" class="edge">
<title>Node15&#45;&gt;Node16</title>
<path fill="none" stroke="#191970" d="M260.2624,-108.1109C282.0232,-97.9559 310.9682,-84.4482 330.1405,-75.5011"/>
<polygon fill="#191970" stroke="#191970" points="258.7105,-104.9727 251.1287,-112.3733 261.6707,-111.316 258.7105,-104.9727"/>
</g>
<!-- Node17 -->
<g id="node9" class="node">
<title>Node17</title>
<g id="a_node9"><a xlink:href="simulator_8h.html" target="_top" xlink:title="inst/include/simulator.h">
<polygon fill="none" stroke="#000000" points="129,-56.5 129,-75.5 246,-75.5 246,-56.5 129,-56.5"/>
<text text-anchor="middle" x="187.5" y="-63.5" font-family="Helvetica,sans-Serif" font-size="10.00" fill="#000000">inst/include/simulator.h</text>
</a>
</g>
</g>
<!-- Node15&#45;&gt;Node17 -->
<g id="edge10" class="edge">
<title>Node15&#45;&gt;Node17</title>
<path fill="none" stroke="#191970" d="M216.8408,-104.2112C209.5737,-94.7472 200.9219,-83.4797 194.9042,-75.6427"/>
<polygon fill="#191970" stroke="#191970" points="214.1436,-106.4456 223.01,-112.2455 219.6957,-102.1824 214.1436,-106.4456"/>
</g>
<!-- Node17&#45;&gt;Node12 -->
<g id="edge11" class="edge">
<title>Node17&#45;&gt;Node12</title>
<path fill="none" stroke="#191970" d="M214.2432,-51.46C232.675,-41.4388 256.6584,-28.3993 272.7644,-19.6427"/>
<polygon fill="#191970" stroke="#191970" points="212.5549,-48.394 205.4412,-56.2455 215.8985,-54.5438 212.5549,-48.394"/>
</g>
<!-- Node18 -->
<g id="node10" class="node">
<title>Node18</title>
<g id="a_node10"><a xlink:href="simulator_8cpp.html" target="_top" xlink:title="src/simulator.cpp">
<polygon fill="none" stroke="#000000" points="134.5,-.5 134.5,-19.5 226.5,-19.5 226.5,-.5 134.5,-.5"/>
<text text-anchor="middle" x="180.5" y="-7.5" font-family="Helvetica,sans-Serif" font-size="10.00" fill="#000000">src/simulator.cpp</text>
</a>
</g>
</g>
<!-- Node17&#45;&gt;Node18 -->
<g id="edge12" class="edge">
<title>Node17&#45;&gt;Node18</title>
<path fill="none" stroke="#191970" d="M185.0197,-46.1575C183.8944,-37.155 182.615,-26.9199 181.7053,-19.6427"/>
<polygon fill="#191970" stroke="#191970" points="181.5673,-46.7569 186.2807,-56.2455 188.5132,-45.8886 181.5673,-46.7569"/>
</g>
</g>
</svg>
