<?xml version="1.0" encoding="UTF-8" standalone="no"?>
<!DOCTYPE svg PUBLIC "-//W3C//DTD SVG 1.1//EN"
 "http://www.w3.org/Graphics/SVG/1.1/DTD/svg11.dtd">
<!-- Generated by graphviz version 2.40.1 (20161225.0304)
 -->
<!-- Title: fish::length_juvenile Pages: 1 -->
<svg width="873pt" height="298pt"
 viewBox="0.00 0.00 873.00 297.87" xmlns="http://www.w3.org/2000/svg" xmlns:xlink="http://www.w3.org/1999/xlink">
<g id="graph0" class="graph" transform="scale(1 1) rotate(0) translate(4 293.8682)">
<title>fish::length_juvenile</title>
<!-- Node32 -->
<g id="node1" class="node">
<title>Node32</title>
<polygon fill="#bfbfbf" stroke="#000000" points="0,-231.5 0,-250.5 103,-250.5 103,-231.5 0,-231.5"/>
<text text-anchor="middle" x="51.5" y="-238.5" font-family="Helvetica,sans-Serif" font-size="10.00" fill="#000000">fish::length_juvenile</text>
</g>
<!-- Node33 -->
<g id="node2" class="node">
<title>Node33</title>
<g id="a_node2"><a xlink:href="namespacefish.html#adc414165e9acd76993cbaaf5140c5f22" target="_top" xlink:title="Compute the new length after growth for adults, assuming allocation to reproduction ...">
<polygon fill="none" stroke="#000000" points="139,-250.5 139,-269.5 230,-269.5 230,-250.5 139,-250.5"/>
<text text-anchor="middle" x="184.5" y="-257.5" font-family="Helvetica,sans-Serif" font-size="10.00" fill="#000000">fish::length_adult</text>
</a>
</g>
</g>
<!-- Node32&#45;&gt;Node33 -->
<g id="edge1" class="edge">
<title>Node32&#45;&gt;Node33</title>
<path fill="none" stroke="#191970" d="M113.2654,-249.8236C121.8229,-251.0461 130.4854,-252.2836 138.6824,-253.4546"/>
<polygon fill="#191970" stroke="#191970" points="113.6966,-246.3498 103.3021,-248.4003 112.7066,-253.2794 113.6966,-246.3498"/>
</g>
<!-- Node34 -->
<g id="node3" class="node">
<title>Node34</title>
<g id="a_node3"><a xlink:href="classFish.html#abe4b5c9e5d1f6d3c56cc6be997db71cd" target="_top" xlink:title="Implement growth, i.e., set new length and effective GSI after 1 year of growth. ">
<polygon fill="none" stroke="#000000" points="284,-212.5 284,-231.5 346,-231.5 346,-212.5 284,-212.5"/>
<text text-anchor="middle" x="315" y="-219.5" font-family="Helvetica,sans-Serif" font-size="10.00" fill="#000000">Fish::grow</text>
</a>
</g>
</g>
<!-- Node32&#45;&gt;Node34 -->
<g id="edge27" class="edge">
<title>Node32&#45;&gt;Node34</title>
<path fill="none" stroke="#191970" d="M113.3185,-236.5425C166.8974,-232.6791 242.2034,-227.2491 283.9877,-224.2362"/>
<polygon fill="#191970" stroke="#191970" points="112.9671,-233.0587 103.2447,-237.2689 113.4706,-240.0405 112.9671,-233.0587"/>
</g>
<!-- Node35 -->
<g id="node4" class="node">
<title>Node35</title>
<g id="a_node4"><a xlink:href="fish__glue_8cpp.html#a7b6a9b6d94c71377c935b2cfbffdfabc" target="_top" xlink:title="RCPP_MODULE">
<polygon fill="none" stroke="#000000" points="432.5,-252.5 432.5,-271.5 525.5,-271.5 525.5,-252.5 432.5,-252.5"/>
<text text-anchor="middle" x="479" y="-259.5" font-family="Helvetica,sans-Serif" font-size="10.00" fill="#000000">RCPP_MODULE</text>
</a>
</g>
</g>
<!-- Node32&#45;&gt;Node35 -->
<g id="edge28" class="edge">
<title>Node32&#45;&gt;Node35</title>
<path fill="none" stroke="#191970" d="M77.1497,-255.4751C94.1153,-264.1963 117.1764,-274.4657 139,-279 242.5797,-300.5207 367.538,-283.6346 433.3374,-271.5296"/>
<polygon fill="#191970" stroke="#191970" points="78.3939,-252.173 67.9204,-250.5742 75.1109,-258.3554 78.3939,-252.173"/>
</g>
<!-- Node36 -->
<g id="node5" class="node">
<title>Node36</title>
<g id="a_node5"><a xlink:href="classFish.html#adf85bf269f1651352506e371ffd2cecc" target="_top" xlink:title="Initializes the fish, i.e., initializes parameters and sets the initial state (age = 1...">
<polygon fill="none" stroke="#000000" points="157.5,-149.5 157.5,-168.5 211.5,-168.5 211.5,-149.5 157.5,-149.5"/>
<text text-anchor="middle" x="184.5" y="-156.5" font-family="Helvetica,sans-Serif" font-size="10.00" fill="#000000">Fish::init</text>
</a>
</g>
</g>
<!-- Node32&#45;&gt;Node36 -->
<g id="edge5" class="edge">
<title>Node32&#45;&gt;Node36</title>
<path fill="none" stroke="#191970" d="M75.5538,-226.1698C102.7176,-209.4223 146.1153,-182.6657 169.0817,-168.506"/>
<polygon fill="#191970" stroke="#191970" points="73.6924,-223.2056 67.0171,-231.4331 77.3661,-229.1642 73.6924,-223.2056"/>
</g>
<!-- Node33&#45;&gt;Node34 -->
<g id="edge2" class="edge">
<title>Node33&#45;&gt;Node34</title>
<path fill="none" stroke="#191970" d="M227.0991,-247.5957C245.6063,-242.2066 266.8889,-236.0094 283.8767,-231.0627"/>
<polygon fill="#191970" stroke="#191970" points="226.0534,-244.2547 217.4307,-250.411 228.0104,-250.9756 226.0534,-244.2547"/>
</g>
<!-- Node33&#45;&gt;Node35 -->
<g id="edge4" class="edge">
<title>Node33&#45;&gt;Node35</title>
<path fill="none" stroke="#191970" d="M240.2123,-260.3784C295.7444,-260.7555 380.0647,-261.3281 432.2263,-261.6824"/>
<polygon fill="#191970" stroke="#191970" points="240.2161,-256.8784 230.1925,-260.3103 240.1685,-263.8782 240.2161,-256.8784"/>
</g>
<!-- Node34&#45;&gt;Node35 -->
<g id="edge3" class="edge">
<title>Node34&#45;&gt;Node35</title>
<path fill="none" stroke="#191970" d="M356.0265,-232.0065C381.6594,-238.2584 414.4815,-246.2638 439.7684,-252.4313"/>
<polygon fill="#191970" stroke="#191970" points="356.7777,-228.5872 346.2332,-229.6178 355.119,-235.3878 356.7777,-228.5872"/>
</g>
<!-- Node36&#45;&gt;Node35 -->
<g id="edge6" class="edge">
<title>Node36&#45;&gt;Node35</title>
<path fill="none" stroke="#191970" d="M221.6625,-163.8398C258.9608,-169.6649 317.4106,-181.4674 364,-203 381.9156,-211.2802 382.7807,-219.355 400,-229 416.5991,-238.2976 436.3491,-246.5476 451.9493,-252.4732"/>
<polygon fill="#191970" stroke="#191970" points="222.139,-160.3723 211.7308,-162.3523 221.1021,-167.295 222.139,-160.3723"/>
</g>
<!-- Node37 -->
<g id="node6" class="node">
<title>Node37</title>
<g id="a_node6"><a xlink:href="classPopulation.html#a012ef586a78b4e7c2082634b316072d0" target="_top" xlink:title="Population::init">
<polygon fill="none" stroke="#000000" points="274.5,-127.5 274.5,-146.5 355.5,-146.5 355.5,-127.5 274.5,-127.5"/>
<text text-anchor="middle" x="315" y="-134.5" font-family="Helvetica,sans-Serif" font-size="10.00" fill="#000000">Population::init</text>
</a>
</g>
</g>
<!-- Node36&#45;&gt;Node37 -->
<g id="edge7" class="edge">
<title>Node36&#45;&gt;Node37</title>
<path fill="none" stroke="#191970" d="M221.8513,-152.7032C238.2656,-149.9361 257.5817,-146.6797 274.356,-143.8519"/>
<polygon fill="#191970" stroke="#191970" points="220.8187,-149.3278 211.5397,-154.4416 221.9824,-156.2304 220.8187,-149.3278"/>
</g>
<!-- Node47 -->
<g id="node16" class="node">
<title>Node47</title>
<g id="a_node16"><a xlink:href="classPopulation.html#a81c19d1c80cfb1d54d3872ecdefd0872" target="_top" xlink:title="Population::update">
<polygon fill="none" stroke="#000000" points="266,-86.5 266,-105.5 364,-105.5 364,-86.5 266,-86.5"/>
<text text-anchor="middle" x="315" y="-93.5" font-family="Helvetica,sans-Serif" font-size="10.00" fill="#000000">Population::update</text>
</a>
</g>
</g>
<!-- Node36&#45;&gt;Node47 -->
<g id="edge21" class="edge">
<title>Node36&#45;&gt;Node47</title>
<path fill="none" stroke="#191970" d="M212.0009,-144.7862C227.7301,-136.7521 247.8779,-126.6214 266,-118 274.7575,-113.8337 284.4865,-109.4217 292.9522,-105.6512"/>
<polygon fill="#191970" stroke="#191970" points="210.1375,-141.8083 202.8359,-149.4854 213.3313,-148.0373 210.1375,-141.8083"/>
</g>
<!-- Node38 -->
<g id="node7" class="node">
<title>Node38</title>
<g id="a_node7"><a xlink:href="fish__glue_8cpp.html#ab96ae82277aa9004dc603b77512c7265" target="_top" xlink:title="RCPP_MODULE">
<polygon fill="none" stroke="#000000" points="618.5,-137.5 618.5,-156.5 711.5,-156.5 711.5,-137.5 618.5,-137.5"/>
<text text-anchor="middle" x="665" y="-144.5" font-family="Helvetica,sans-Serif" font-size="10.00" fill="#000000">RCPP_MODULE</text>
</a>
</g>
</g>
<!-- Node37&#45;&gt;Node38 -->
<g id="edge8" class="edge">
<title>Node37&#45;&gt;Node38</title>
<path fill="none" stroke="#191970" d="M342.3637,-152.0082C349.657,-156.4688 357.3516,-161.6138 364,-167 382.0767,-181.6447 378.6287,-195.8075 400,-205 464.5079,-232.7469 493.6732,-233.1643 558,-205 579.6087,-195.539 573.8091,-178.1973 594,-166 601.4269,-161.5134 609.9178,-158.0698 618.3834,-155.4315"/>
<polygon fill="#191970" stroke="#191970" points="343.8421,-148.817 333.4493,-146.7574 340.2894,-154.8484 343.8421,-148.817"/>
</g>
<!-- Node39 -->
<g id="node8" class="node">
<title>Node39</title>
<g id="a_node8"><a xlink:href="classPopulation.html#aa7eba257f23cbc12aa3673ce012fb2cb" target="_top" xlink:title="Population::noFishingEquilibriate">
<polygon fill="none" stroke="#000000" points="400,-126.5 400,-145.5 558,-145.5 558,-126.5 400,-126.5"/>
<text text-anchor="middle" x="479" y="-133.5" font-family="Helvetica,sans-Serif" font-size="10.00" fill="#000000">Population::noFishingEquilibriate</text>
</a>
</g>
</g>
<!-- Node37&#45;&gt;Node39 -->
<g id="edge9" class="edge">
<title>Node37&#45;&gt;Node39</title>
<path fill="none" stroke="#191970" d="M365.6513,-136.6912C376.5059,-136.625 388.2232,-136.5535 399.8635,-136.4825"/>
<polygon fill="#191970" stroke="#191970" points="365.5178,-133.1918 355.5393,-136.7528 365.5605,-140.1917 365.5178,-133.1918"/>
</g>
<!-- Node42 -->
<g id="node11" class="node">
<title>Node42</title>
<g id="a_node11"><a xlink:href="classSimulator.html#a7540919b97662be7deacba9194c0ed60" target="_top" xlink:title="Simulator::simulate\l_multi">
<polygon fill="none" stroke="#000000" points="428.5,-165 428.5,-195 529.5,-195 529.5,-165 428.5,-165"/>
<text text-anchor="start" x="436.5" y="-183" font-family="Helvetica,sans-Serif" font-size="10.00" fill="#000000">Simulator::simulate</text>
<text text-anchor="middle" x="479" y="-172" font-family="Helvetica,sans-Serif" font-size="10.00" fill="#000000">_multi</text>
</a>
</g>
</g>
<!-- Node37&#45;&gt;Node42 -->
<g id="edge13" class="edge">
<title>Node37&#45;&gt;Node42</title>
<path fill="none" stroke="#191970" d="M361.3237,-149.1458C382.2387,-154.6296 407.0001,-161.122 428.4005,-166.733"/>
<polygon fill="#191970" stroke="#191970" points="361.9577,-145.6938 351.3969,-146.5431 360.1822,-152.465 361.9577,-145.6938"/>
</g>
<!-- Node44 -->
<g id="node13" class="node">
<title>Node44</title>
<g id="a_node13"><a xlink:href="classSimulator.html#ab21d1c6b0af00931f9a8fa5e0b6d417f" target="_top" xlink:title="Simulator::simulate\l_multi_2d">
<polygon fill="none" stroke="#000000" points="428.5,-77 428.5,-107 529.5,-107 529.5,-77 428.5,-77"/>
<text text-anchor="start" x="436.5" y="-95" font-family="Helvetica,sans-Serif" font-size="10.00" fill="#000000">Simulator::simulate</text>
<text text-anchor="middle" x="479" y="-84" font-family="Helvetica,sans-Serif" font-size="10.00" fill="#000000">_multi_2d</text>
</a>
</g>
</g>
<!-- Node37&#45;&gt;Node44 -->
<g id="edge16" class="edge">
<title>Node37&#45;&gt;Node44</title>
<path fill="none" stroke="#191970" d="M359.5364,-124.7797C380.8153,-118.9409 406.3818,-111.9257 428.3935,-105.8859"/>
<polygon fill="#191970" stroke="#191970" points="358.4976,-121.4352 349.7802,-127.4567 360.3499,-128.1857 358.4976,-121.4352"/>
</g>
<!-- Node46 -->
<g id="node15" class="node">
<title>Node46</title>
<g id="a_node15"><a xlink:href="classSimulator.html#aa6e6cfd73fd8d3200e7f515b473e88f2" target="_top" xlink:title="Simulator::simulate_r">
<polygon fill="none" stroke="#000000" points="424.5,-.5 424.5,-19.5 533.5,-19.5 533.5,-.5 424.5,-.5"/>
<text text-anchor="middle" x="479" y="-7.5" font-family="Helvetica,sans-Serif" font-size="10.00" fill="#000000">Simulator::simulate_r</text>
</a>
</g>
</g>
<!-- Node37&#45;&gt;Node46 -->
<g id="edge19" class="edge">
<title>Node37&#45;&gt;Node46</title>
<path fill="none" stroke="#191970" d="M352.1207,-122.8081C356.3169,-120.4968 360.3794,-117.8959 364,-115 384.8247,-98.3434 380.9704,-85.6812 400,-67 419.5518,-47.8062 445.994,-30.0788 462.7764,-19.6481"/>
<polygon fill="#191970" stroke="#191970" points="350.2466,-119.8306 342.8407,-127.4071 353.355,-126.1026 350.2466,-119.8306"/>
</g>
<!-- Node39&#45;&gt;Node38 -->
<g id="edge10" class="edge">
<title>Node39&#45;&gt;Node38</title>
<path fill="none" stroke="#191970" d="M568.3292,-141.2829C585.6815,-142.3091 603.2045,-143.3454 618.4768,-144.2486"/>
<polygon fill="#191970" stroke="#191970" points="568.3397,-137.7775 558.1504,-140.6809 567.9263,-144.7653 568.3397,-137.7775"/>
</g>
<!-- Node40 -->
<g id="node9" class="node">
<title>Node40</title>
<g id="a_node9"><a xlink:href="classSimulator.html#a3dfce52c0bb26ec7ff2632b1eca50240" target="_top" xlink:title="Simulator::equilibriateNatural\lPopulation">
<polygon fill="none" stroke="#000000" points="594,-88 594,-118 736,-118 736,-88 594,-88"/>
<text text-anchor="start" x="602" y="-106" font-family="Helvetica,sans-Serif" font-size="10.00" fill="#000000">Simulator::equilibriateNatural</text>
<text text-anchor="middle" x="665" y="-95" font-family="Helvetica,sans-Serif" font-size="10.00" fill="#000000">Population</text>
</a>
</g>
</g>
<!-- Node39&#45;&gt;Node40 -->
<g id="edge11" class="edge">
<title>Node39&#45;&gt;Node40</title>
<path fill="none" stroke="#191970" d="M542.8065,-124.6795C559.1922,-121.7723 576.9234,-118.6265 593.6631,-115.6565"/>
<polygon fill="#191970" stroke="#191970" points="542.0337,-121.2619 532.7989,-126.455 543.2566,-128.1542 542.0337,-121.2619"/>
</g>
<!-- Node41 -->
<g id="node10" class="node">
<title>Node41</title>
<g id="a_node10"><a xlink:href="fish__glue_8cpp.html#addebb0997b0e49067d8784c9954b7b96" target="_top" xlink:title="RCPP_MODULE">
<polygon fill="none" stroke="#000000" points="772,-68.5 772,-87.5 865,-87.5 865,-68.5 772,-68.5"/>
<text text-anchor="middle" x="818.5" y="-75.5" font-family="Helvetica,sans-Serif" font-size="10.00" fill="#000000">RCPP_MODULE</text>
</a>
</g>
</g>
<!-- Node40&#45;&gt;Node41 -->
<g id="edge12" class="edge">
<title>Node40&#45;&gt;Node41</title>
<path fill="none" stroke="#191970" d="M746.2635,-89.7649C755.0294,-88.3372 763.7166,-86.9224 771.8654,-85.5952"/>
<polygon fill="#191970" stroke="#191970" points="745.6648,-86.3162 736.3575,-91.3783 746.7901,-93.2252 745.6648,-86.3162"/>
</g>
<!-- Node43 -->
<g id="node12" class="node">
<title>Node43</title>
<g id="a_node12"><a xlink:href="classSimulator.html#a1a5454ee4736819d709398b225d7876d" target="_top" xlink:title="Simulator::simulate\l_multi_r">
<polygon fill="none" stroke="#000000" points="614.5,-176 614.5,-206 715.5,-206 715.5,-176 614.5,-176"/>
<text text-anchor="start" x="622.5" y="-194" font-family="Helvetica,sans-Serif" font-size="10.00" fill="#000000">Simulator::simulate</text>
<text text-anchor="middle" x="665" y="-183" font-family="Helvetica,sans-Serif" font-size="10.00" fill="#000000">_multi_r</text>
</a>
</g>
</g>
<!-- Node42&#45;&gt;Node43 -->
<g id="edge14" class="edge">
<title>Node42&#45;&gt;Node43</title>
<path fill="none" stroke="#191970" d="M539.9114,-183.6023C563.9637,-185.0247 591.2797,-186.6402 614.2361,-187.9978"/>
<polygon fill="#191970" stroke="#191970" points="540.0145,-180.1024 529.8253,-183.0058 539.6012,-187.0902 540.0145,-180.1024"/>
</g>
<!-- Node43&#45;&gt;Node41 -->
<g id="edge15" class="edge">
<title>Node43&#45;&gt;Node41</title>
<path fill="none" stroke="#191970" d="M724.8823,-172.3341C728.747,-170.3978 732.4909,-168.2896 736,-166 769.6744,-144.0289 799.2435,-105.5145 811.9233,-87.6304"/>
<polygon fill="#191970" stroke="#191970" points="723.33,-169.1954 715.6988,-176.5449 726.2476,-175.5584 723.33,-169.1954"/>
</g>
<!-- Node45 -->
<g id="node14" class="node">
<title>Node45</title>
<g id="a_node14"><a xlink:href="classSimulator.html#af1b0a9562ecf0ad8f98d61576efba28b" target="_top" xlink:title="Simulator::simulate\l_multi_2d_r">
<polygon fill="none" stroke="#000000" points="614.5,-39 614.5,-69 715.5,-69 715.5,-39 614.5,-39"/>
<text text-anchor="start" x="622.5" y="-57" font-family="Helvetica,sans-Serif" font-size="10.00" fill="#000000">Simulator::simulate</text>
<text text-anchor="middle" x="665" y="-46" font-family="Helvetica,sans-Serif" font-size="10.00" fill="#000000">_multi_2d_r</text>
</a>
</g>
</g>
<!-- Node44&#45;&gt;Node45 -->
<g id="edge17" class="edge">
<title>Node44&#45;&gt;Node45</title>
<path fill="none" stroke="#191970" d="M539.9114,-79.5557C563.9637,-74.6418 591.2797,-69.0611 614.2361,-64.3711"/>
<polygon fill="#191970" stroke="#191970" points="538.9223,-76.1854 529.8253,-81.6163 540.3235,-83.0438 538.9223,-76.1854"/>
</g>
<!-- Node45&#45;&gt;Node41 -->
<g id="edge18" class="edge">
<title>Node45&#45;&gt;Node41</title>
<path fill="none" stroke="#191970" d="M725.6161,-63.4774C740.9646,-65.8772 757.2148,-68.4179 771.7586,-70.6919"/>
<polygon fill="#191970" stroke="#191970" points="726.1077,-60.0119 715.6871,-61.925 725.0263,-66.9278 726.1077,-60.0119"/>
</g>
<!-- Node46&#45;&gt;Node41 -->
<g id="edge20" class="edge">
<title>Node46&#45;&gt;Node41</title>
<path fill="none" stroke="#191970" d="M543.7698,-6.6811C596.6824,-5.8739 672.7852,-9.1073 736,-29 763.3317,-37.6009 791.1783,-56.7637 806.5099,-68.4133"/>
<polygon fill="#191970" stroke="#191970" points="543.4328,-3.1872 533.5071,-6.8927 543.5772,-10.1858 543.4328,-3.1872"/>
</g>
<!-- Node47&#45;&gt;Node38 -->
<g id="edge22" class="edge">
<title>Node47&#45;&gt;Node38</title>
<path fill="none" stroke="#191970" d="M343.5911,-82.1896C391.3635,-61.2716 488.9662,-27.9137 558,-67 585.0618,-82.3221 569.2897,-108.1184 594,-127 601.1229,-132.4427 609.6589,-136.4043 618.3028,-139.2878"/>
<polygon fill="#191970" stroke="#191970" points="341.858,-79.1317 334.1815,-86.4339 344.7363,-85.5126 341.858,-79.1317"/>
</g>
<!-- Node47&#45;&gt;Node39 -->
<g id="edge23" class="edge">
<title>Node47&#45;&gt;Node39</title>
<path fill="none" stroke="#191970" d="M364.0351,-107.9598C388.3379,-113.8873 417.2756,-120.9453 440.0384,-126.4972"/>
<polygon fill="#191970" stroke="#191970" points="364.8267,-104.5503 354.2821,-105.581 363.1679,-111.351 364.8267,-104.5503"/>
</g>
<!-- Node47&#45;&gt;Node42 -->
<g id="edge24" class="edge">
<title>Node47&#45;&gt;Node42</title>
<path fill="none" stroke="#191970" d="M350.2983,-109.8922C355.0628,-112.3228 359.7632,-115.0354 364,-118 382.7986,-131.1541 380.4734,-142.953 400,-155 408.6926,-160.3629 418.6402,-164.6741 428.4779,-168.1043"/>
<polygon fill="#191970" stroke="#191970" points="351.6989,-106.683 341.1623,-105.5736 348.7073,-113.0116 351.6989,-106.683"/>
</g>
<!-- Node47&#45;&gt;Node44 -->
<g id="edge25" class="edge">
<title>Node47&#45;&gt;Node44</title>
<path fill="none" stroke="#191970" d="M374.4207,-94.5507C392.1162,-94.1191 411.3331,-93.6504 428.4092,-93.2339"/>
<polygon fill="#191970" stroke="#191970" points="374.1171,-91.057 364.2054,-94.7999 374.2878,-98.0549 374.1171,-91.057"/>
</g>
<!-- Node47&#45;&gt;Node46 -->
<g id="edge26" class="edge">
<title>Node47&#45;&gt;Node46</title>
<path fill="none" stroke="#191970" d="M333.5226,-79.6355C349.9874,-65.8154 375.223,-46.355 400,-34 411.9299,-28.0512 425.6179,-23.2572 438.2121,-19.5641"/>
<polygon fill="#191970" stroke="#191970" points="331.0808,-77.1185 325.761,-86.2809 335.6335,-82.4358 331.0808,-77.1185"/>
</g>
</g>
</svg>
