<?xml version="1.0" encoding="UTF-8" standalone="no"?>
<!DOCTYPE svg PUBLIC "-//W3C//DTD SVG 1.1//EN"
 "http://www.w3.org/Graphics/SVG/1.1/DTD/svg11.dtd">
<!-- Generated by graphviz version 2.40.1 (20161225.0304)
 -->
<!-- Title: fish::fecundity Pages: 1 -->
<svg width="210pt" height="66pt"
 viewBox="0.00 0.00 210.00 66.00" xmlns="http://www.w3.org/2000/svg" xmlns:xlink="http://www.w3.org/1999/xlink">
<g id="graph0" class="graph" transform="scale(1 1) rotate(0) translate(4 62)">
<title>fish::fecundity</title>
<!-- Node0 -->
<g id="node1" class="node">
<title>Node0</title>
<polygon fill="#bfbfbf" stroke="#000000" points="0,-19.5 0,-38.5 78,-38.5 78,-19.5 0,-19.5"/>
<text text-anchor="middle" x="39" y="-26.5" font-family="Helvetica,sans-Serif" font-size="10.00" fill="#000000">fish::fecundity</text>
</g>
<!-- Node1 -->
<g id="node2" class="node">
<title>Node1</title>
<g id="a_node2"><a xlink:href="namespacefish.html#a8eda92863da99cec25dc0a2f09571998" target="_top" xlink:title="fish::weight_fish">
<polygon fill="none" stroke="#000000" points="114,-38.5 114,-57.5 202,-57.5 202,-38.5 114,-38.5"/>
<text text-anchor="middle" x="158" y="-45.5" font-family="Helvetica,sans-Serif" font-size="10.00" fill="#000000">fish::weight_fish</text>
</a>
</g>
</g>
<!-- Node0&#45;&gt;Node1 -->
<g id="edge1" class="edge">
<title>Node0&#45;&gt;Node1</title>
<path fill="none" stroke="#191970" d="M78.2948,-35.274C86.4695,-36.5792 95.2216,-37.9766 103.8241,-39.3501"/>
<polygon fill="#191970" stroke="#191970" points="103.3836,-42.824 113.8104,-40.9445 104.4873,-35.9115 103.3836,-42.824"/>
</g>
<!-- Node2 -->
<g id="node3" class="node">
<title>Node2</title>
<g id="a_node3"><a xlink:href="namespacefish.html#a90c2a586379b7d0521d4ade4e55ee5ec" target="_top" xlink:title="fish::gsi">
<polygon fill="none" stroke="#000000" points="132.5,-.5 132.5,-19.5 183.5,-19.5 183.5,-.5 132.5,-.5"/>
<text text-anchor="middle" x="158" y="-7.5" font-family="Helvetica,sans-Serif" font-size="10.00" fill="#000000">fish::gsi</text>
</a>
</g>
</g>
<!-- Node0&#45;&gt;Node2 -->
<g id="edge2" class="edge">
<title>Node0&#45;&gt;Node2</title>
<path fill="none" stroke="#191970" d="M78.2948,-22.726C92.4292,-20.4693 108.2897,-17.9369 122.1184,-15.729"/>
<polygon fill="#191970" stroke="#191970" points="122.9118,-19.1467 132.2349,-14.1138 121.8081,-12.2343 122.9118,-19.1467"/>
</g>
</g>
</svg>
