<?xml version="1.0" encoding="UTF-8" standalone="no"?>
<!DOCTYPE svg PUBLIC "-//W3C//DTD SVG 1.1//EN"
 "http://www.w3.org/Graphics/SVG/1.1/DTD/svg11.dtd">
<!-- Generated by graphviz version 2.40.1 (20161225.0304)
 -->
<!-- Title: pn::zero Pages: 1 -->
<svg width="695pt" height="214pt"
 viewBox="0.00 0.00 695.00 214.00" xmlns="http://www.w3.org/2000/svg" xmlns:xlink="http://www.w3.org/1999/xlink">
<g id="graph0" class="graph" transform="scale(1 1) rotate(0) translate(4 210)">
<title>pn::zero</title>
<!-- Node2 -->
<g id="node1" class="node">
<title>Node2</title>
<polygon fill="#bfbfbf" stroke="#000000" points="0,-93.5 0,-112.5 52,-112.5 52,-93.5 0,-93.5"/>
<text text-anchor="middle" x="26" y="-100.5" font-family="Helvetica,sans-Serif" font-size="10.00" fill="#000000">pn::zero</text>
</g>
<!-- Node3 -->
<g id="node2" class="node">
<title>Node3</title>
<g id="a_node2"><a xlink:href="classPopulation.html#a81c19d1c80cfb1d54d3872ecdefd0872" target="_top" xlink:title="Population::update">
<polygon fill="none" stroke="#000000" points="88,-93.5 88,-112.5 186,-112.5 186,-93.5 88,-93.5"/>
<text text-anchor="middle" x="137" y="-100.5" font-family="Helvetica,sans-Serif" font-size="10.00" fill="#000000">Population::update</text>
</a>
</g>
</g>
<!-- Node2&#45;&gt;Node3 -->
<g id="edge1" class="edge">
<title>Node2&#45;&gt;Node3</title>
<path fill="none" stroke="#191970" d="M62.2453,-103C70.3462,-103 79.0719,-103 87.6029,-103"/>
<polygon fill="#191970" stroke="#191970" points="62.0246,-99.5001 52.0246,-103 62.0245,-106.5001 62.0246,-99.5001"/>
</g>
<!-- Node4 -->
<g id="node3" class="node">
<title>Node4</title>
<g id="a_node3"><a xlink:href="fish__glue_8cpp.html#ab96ae82277aa9004dc603b77512c7265" target="_top" xlink:title="RCPP_MODULE">
<polygon fill="none" stroke="#000000" points="440.5,-186.5 440.5,-205.5 533.5,-205.5 533.5,-186.5 440.5,-186.5"/>
<text text-anchor="middle" x="487" y="-193.5" font-family="Helvetica,sans-Serif" font-size="10.00" fill="#000000">RCPP_MODULE</text>
</a>
</g>
</g>
<!-- Node3&#45;&gt;Node4 -->
<g id="edge2" class="edge">
<title>Node3&#45;&gt;Node4</title>
<path fill="none" stroke="#191970" d="M152.5463,-120.2231C168.3013,-136.4093 194.2516,-159.7751 222,-171 293.9693,-200.1134 385.6049,-201.7821 440.1001,-199.4891"/>
<polygon fill="#191970" stroke="#191970" points="154.6873,-117.3918 145.2813,-112.5156 149.5935,-122.1932 154.6873,-117.3918"/>
</g>
<!-- Node5 -->
<g id="node4" class="node">
<title>Node5</title>
<g id="a_node4"><a xlink:href="classPopulation.html#aa7eba257f23cbc12aa3673ce012fb2cb" target="_top" xlink:title="Population::noFishingEquilibriate">
<polygon fill="none" stroke="#000000" points="222,-142.5 222,-161.5 380,-161.5 380,-142.5 222,-142.5"/>
<text text-anchor="middle" x="301" y="-149.5" font-family="Helvetica,sans-Serif" font-size="10.00" fill="#000000">Population::noFishingEquilibriate</text>
</a>
</g>
</g>
<!-- Node3&#45;&gt;Node5 -->
<g id="edge3" class="edge">
<title>Node3&#45;&gt;Node5</title>
<path fill="none" stroke="#191970" d="M178.9377,-115.5302C206.998,-123.914 243.3562,-134.7772 269.0706,-142.4601"/>
<polygon fill="#191970" stroke="#191970" points="179.5936,-112.0733 169.0102,-112.564 177.5897,-118.7804 179.5936,-112.0733"/>
</g>
<!-- Node8 -->
<g id="node7" class="node">
<title>Node8</title>
<g id="a_node7"><a xlink:href="classSimulator.html#a7540919b97662be7deacba9194c0ed60" target="_top" xlink:title="Simulator::simulate\l_multi">
<polygon fill="none" stroke="#000000" points="250.5,-88 250.5,-118 351.5,-118 351.5,-88 250.5,-88"/>
<text text-anchor="start" x="258.5" y="-106" font-family="Helvetica,sans-Serif" font-size="10.00" fill="#000000">Simulator::simulate</text>
<text text-anchor="middle" x="301" y="-95" font-family="Helvetica,sans-Serif" font-size="10.00" fill="#000000">_multi</text>
</a>
</g>
</g>
<!-- Node3&#45;&gt;Node8 -->
<g id="edge7" class="edge">
<title>Node3&#45;&gt;Node8</title>
<path fill="none" stroke="#191970" d="M196.4207,-103C214.1162,-103 233.3331,-103 250.4092,-103"/>
<polygon fill="#191970" stroke="#191970" points="196.2054,-99.5001 186.2054,-103 196.2054,-106.5001 196.2054,-99.5001"/>
</g>
<!-- Node10 -->
<g id="node9" class="node">
<title>Node10</title>
<g id="a_node9"><a xlink:href="classSimulator.html#ab21d1c6b0af00931f9a8fa5e0b6d417f" target="_top" xlink:title="Simulator::simulate\l_multi_2d">
<polygon fill="none" stroke="#000000" points="250.5,-39 250.5,-69 351.5,-69 351.5,-39 250.5,-39"/>
<text text-anchor="start" x="258.5" y="-57" font-family="Helvetica,sans-Serif" font-size="10.00" fill="#000000">Simulator::simulate</text>
<text text-anchor="middle" x="301" y="-46" font-family="Helvetica,sans-Serif" font-size="10.00" fill="#000000">_multi_2d</text>
</a>
</g>
</g>
<!-- Node3&#45;&gt;Node10 -->
<g id="edge10" class="edge">
<title>Node3&#45;&gt;Node10</title>
<path fill="none" stroke="#191970" d="M178.683,-90.5459C200.5892,-84.0008 227.6061,-75.9287 250.6722,-69.037"/>
<polygon fill="#191970" stroke="#191970" points="177.5897,-87.2196 169.0102,-93.436 179.5936,-93.9267 177.5897,-87.2196"/>
</g>
<!-- Node12 -->
<g id="node11" class="node">
<title>Node12</title>
<g id="a_node11"><a xlink:href="classSimulator.html#aa6e6cfd73fd8d3200e7f515b473e88f2" target="_top" xlink:title="Simulator::simulate_r">
<polygon fill="none" stroke="#000000" points="246.5,-.5 246.5,-19.5 355.5,-19.5 355.5,-.5 246.5,-.5"/>
<text text-anchor="middle" x="301" y="-7.5" font-family="Helvetica,sans-Serif" font-size="10.00" fill="#000000">Simulator::simulate_r</text>
</a>
</g>
</g>
<!-- Node3&#45;&gt;Node12 -->
<g id="edge13" class="edge">
<title>Node3&#45;&gt;Node12</title>
<path fill="none" stroke="#191970" d="M151.9495,-85.863C167.6992,-68.8913 194.0551,-43.4128 222,-29 229.5223,-25.1203 237.8581,-22.0156 246.2128,-19.5356"/>
<polygon fill="#191970" stroke="#191970" points="149.2217,-83.6612 145.1093,-93.4254 154.4131,-88.3569 149.2217,-83.6612"/>
</g>
<!-- Node5&#45;&gt;Node4 -->
<g id="edge4" class="edge">
<title>Node5&#45;&gt;Node4</title>
<path fill="none" stroke="#191970" d="M351.205,-163.8764C381.1669,-170.9642 418.7075,-179.8448 446.7195,-186.4713"/>
<polygon fill="#191970" stroke="#191970" points="351.8964,-160.4435 341.3592,-161.5473 350.2849,-167.2555 351.8964,-160.4435"/>
</g>
<!-- Node6 -->
<g id="node5" class="node">
<title>Node6</title>
<g id="a_node5"><a xlink:href="classSimulator.html#a3dfce52c0bb26ec7ff2632b1eca50240" target="_top" xlink:title="Simulator::equilibriateNatural\lPopulation">
<polygon fill="none" stroke="#000000" points="416,-137 416,-167 558,-167 558,-137 416,-137"/>
<text text-anchor="start" x="424" y="-155" font-family="Helvetica,sans-Serif" font-size="10.00" fill="#000000">Simulator::equilibriateNatural</text>
<text text-anchor="middle" x="487" y="-144" font-family="Helvetica,sans-Serif" font-size="10.00" fill="#000000">Population</text>
</a>
</g>
</g>
<!-- Node5&#45;&gt;Node6 -->
<g id="edge5" class="edge">
<title>Node5&#45;&gt;Node6</title>
<path fill="none" stroke="#191970" d="M390.2169,-152C398.8241,-152 407.4746,-152 415.8728,-152"/>
<polygon fill="#191970" stroke="#191970" points="390.1505,-148.5001 380.1504,-152 390.1504,-155.5001 390.1505,-148.5001"/>
</g>
<!-- Node7 -->
<g id="node6" class="node">
<title>Node7</title>
<g id="a_node6"><a xlink:href="fish__glue_8cpp.html#addebb0997b0e49067d8784c9954b7b96" target="_top" xlink:title="RCPP_MODULE">
<polygon fill="none" stroke="#000000" points="594,-68.5 594,-87.5 687,-87.5 687,-68.5 594,-68.5"/>
<text text-anchor="middle" x="640.5" y="-75.5" font-family="Helvetica,sans-Serif" font-size="10.00" fill="#000000">RCPP_MODULE</text>
</a>
</g>
</g>
<!-- Node6&#45;&gt;Node7 -->
<g id="edge6" class="edge">
<title>Node6&#45;&gt;Node7</title>
<path fill="none" stroke="#191970" d="M545.485,-133.3837C549.7638,-131.6712 553.9759,-129.872 558,-128 583.3596,-116.2029 610.7409,-98.5197 626.7144,-87.6502"/>
<polygon fill="#191970" stroke="#191970" points="544.1487,-130.1475 536.059,-136.9892 546.6495,-136.6856 544.1487,-130.1475"/>
</g>
<!-- Node9 -->
<g id="node8" class="node">
<title>Node9</title>
<g id="a_node8"><a xlink:href="classSimulator.html#a1a5454ee4736819d709398b225d7876d" target="_top" xlink:title="Simulator::simulate\l_multi_r">
<polygon fill="none" stroke="#000000" points="436.5,-88 436.5,-118 537.5,-118 537.5,-88 436.5,-88"/>
<text text-anchor="start" x="444.5" y="-106" font-family="Helvetica,sans-Serif" font-size="10.00" fill="#000000">Simulator::simulate</text>
<text text-anchor="middle" x="487" y="-95" font-family="Helvetica,sans-Serif" font-size="10.00" fill="#000000">_multi_r</text>
</a>
</g>
</g>
<!-- Node8&#45;&gt;Node9 -->
<g id="edge8" class="edge">
<title>Node8&#45;&gt;Node9</title>
<path fill="none" stroke="#191970" d="M361.9114,-103C385.9637,-103 413.2797,-103 436.2361,-103"/>
<polygon fill="#191970" stroke="#191970" points="361.8254,-99.5001 351.8253,-103 361.8253,-106.5001 361.8254,-99.5001"/>
</g>
<!-- Node9&#45;&gt;Node7 -->
<g id="edge9" class="edge">
<title>Node9&#45;&gt;Node7</title>
<path fill="none" stroke="#191970" d="M547.6161,-93.1277C562.9646,-90.6279 579.2148,-87.9813 593.7586,-85.6126"/>
<polygon fill="#191970" stroke="#191970" points="546.9944,-89.6827 537.6871,-94.7448 548.1197,-96.5917 546.9944,-89.6827"/>
</g>
<!-- Node11 -->
<g id="node10" class="node">
<title>Node11</title>
<g id="a_node10"><a xlink:href="classSimulator.html#af1b0a9562ecf0ad8f98d61576efba28b" target="_top" xlink:title="Simulator::simulate\l_multi_2d_r">
<polygon fill="none" stroke="#000000" points="436.5,-39 436.5,-69 537.5,-69 537.5,-39 436.5,-39"/>
<text text-anchor="start" x="444.5" y="-57" font-family="Helvetica,sans-Serif" font-size="10.00" fill="#000000">Simulator::simulate</text>
<text text-anchor="middle" x="487" y="-46" font-family="Helvetica,sans-Serif" font-size="10.00" fill="#000000">_multi_2d_r</text>
</a>
</g>
</g>
<!-- Node10&#45;&gt;Node11 -->
<g id="edge11" class="edge">
<title>Node10&#45;&gt;Node11</title>
<path fill="none" stroke="#191970" d="M361.9114,-54C385.9637,-54 413.2797,-54 436.2361,-54"/>
<polygon fill="#191970" stroke="#191970" points="361.8254,-50.5001 351.8253,-54 361.8253,-57.5001 361.8254,-50.5001"/>
</g>
<!-- Node11&#45;&gt;Node7 -->
<g id="edge12" class="edge">
<title>Node11&#45;&gt;Node7</title>
<path fill="none" stroke="#191970" d="M547.6161,-63.4774C562.9646,-65.8772 579.2148,-68.4179 593.7586,-70.6919"/>
<polygon fill="#191970" stroke="#191970" points="548.1077,-60.0119 537.6871,-61.925 547.0263,-66.9278 548.1077,-60.0119"/>
</g>
<!-- Node12&#45;&gt;Node7 -->
<g id="edge14" class="edge">
<title>Node12&#45;&gt;Node7</title>
<path fill="none" stroke="#191970" d="M365.7698,-6.6811C418.6824,-5.8739 494.7852,-9.1073 558,-29 585.3317,-37.6009 613.1783,-56.7637 628.5099,-68.4133"/>
<polygon fill="#191970" stroke="#191970" points="365.4328,-3.1872 355.5071,-6.8927 365.5772,-10.1858 365.4328,-3.1872"/>
</g>
</g>
</svg>
