<?xml version="1.0" encoding="UTF-8" standalone="no"?>
<!DOCTYPE svg PUBLIC "-//W3C//DTD SVG 1.1//EN"
 "http://www.w3.org/Graphics/SVG/1.1/DTD/svg11.dtd">
<!-- Generated by graphviz version 2.40.1 (20161225.0304)
 -->
<!-- Title: fish::gsi Pages: 1 -->
<svg width="350pt" height="142pt"
 viewBox="0.00 0.00 350.00 142.00" xmlns="http://www.w3.org/2000/svg" xmlns:xlink="http://www.w3.org/1999/xlink">
<g id="graph0" class="graph" transform="scale(1 1) rotate(0) translate(4 138)">
<title>fish::gsi</title>
<!-- Node21 -->
<g id="node1" class="node">
<title>Node21</title>
<polygon fill="#bfbfbf" stroke="#000000" points="0,-57.5 0,-76.5 51,-76.5 51,-57.5 0,-57.5"/>
<text text-anchor="middle" x="25.5" y="-64.5" font-family="Helvetica,sans-Serif" font-size="10.00" fill="#000000">fish::gsi</text>
</g>
<!-- Node22 -->
<g id="node2" class="node">
<title>Node22</title>
<g id="a_node2"><a xlink:href="classFish.html#abe4b5c9e5d1f6d3c56cc6be997db71cd" target="_top" xlink:title="Implement growth, i.e., set new length and effective GSI after 1 year of growth. ">
<polygon fill="none" stroke="#000000" points="119,-114.5 119,-133.5 181,-133.5 181,-114.5 119,-114.5"/>
<text text-anchor="middle" x="150" y="-121.5" font-family="Helvetica,sans-Serif" font-size="10.00" fill="#000000">Fish::grow</text>
</a>
</g>
</g>
<!-- Node21&#45;&gt;Node22 -->
<g id="edge1" class="edge">
<title>Node21&#45;&gt;Node22</title>
<path fill="none" stroke="#191970" d="M50.9135,-81.585C61.8557,-87.6153 74.8937,-94.4737 87,-100 98.4992,-105.2492 111.5086,-110.3409 122.7073,-114.4737"/>
<polygon fill="#191970" stroke="#191970" points="52.3498,-78.3782 41.9133,-76.5531 48.9338,-84.4881 52.3498,-78.3782"/>
</g>
<!-- Node23 -->
<g id="node3" class="node">
<title>Node23</title>
<g id="a_node3"><a xlink:href="fish__glue_8cpp.html#a7b6a9b6d94c71377c935b2cfbffdfabc" target="_top" xlink:title="RCPP_MODULE">
<polygon fill="none" stroke="#000000" points="249,-57.5 249,-76.5 342,-76.5 342,-57.5 249,-57.5"/>
<text text-anchor="middle" x="295.5" y="-64.5" font-family="Helvetica,sans-Serif" font-size="10.00" fill="#000000">RCPP_MODULE</text>
</a>
</g>
</g>
<!-- Node21&#45;&gt;Node23 -->
<g id="edge7" class="edge">
<title>Node21&#45;&gt;Node23</title>
<path fill="none" stroke="#191970" d="M61.6656,-67C109.9098,-67 195.402,-67 248.566,-67"/>
<polygon fill="#191970" stroke="#191970" points="61.3888,-63.5001 51.3887,-67 61.3887,-70.5001 61.3888,-63.5001"/>
</g>
<!-- Node24 -->
<g id="node4" class="node">
<title>Node24</title>
<g id="a_node4"><a xlink:href="classFishParams.html#a6a7122ea93777817165dfb09c1d840ac" target="_top" xlink:title="FishParams::initFromFile">
<polygon fill="none" stroke="#000000" points="87,-38.5 87,-57.5 213,-57.5 213,-38.5 87,-38.5"/>
<text text-anchor="middle" x="150" y="-45.5" font-family="Helvetica,sans-Serif" font-size="10.00" fill="#000000">FishParams::initFromFile</text>
</a>
</g>
</g>
<!-- Node21&#45;&gt;Node24 -->
<g id="edge3" class="edge">
<title>Node21&#45;&gt;Node24</title>
<path fill="none" stroke="#191970" d="M61.2685,-61.5414C69.507,-60.2841 78.5062,-58.9107 87.5121,-57.5363"/>
<polygon fill="#191970" stroke="#191970" points="60.654,-58.0945 51.2965,-63.0632 61.7101,-65.0144 60.654,-58.0945"/>
</g>
<!-- Node25 -->
<g id="node5" class="node">
<title>Node25</title>
<g id="a_node5"><a xlink:href="classFishParams.html#aa0812994bb72e90dfa8c4fadc3039f57" target="_top" xlink:title="FishParams::print">
<polygon fill="none" stroke="#000000" points="103,-.5 103,-19.5 197,-19.5 197,-.5 103,-.5"/>
<text text-anchor="middle" x="150" y="-7.5" font-family="Helvetica,sans-Serif" font-size="10.00" fill="#000000">FishParams::print</text>
</a>
</g>
</g>
<!-- Node21&#45;&gt;Node25 -->
<g id="edge5" class="edge">
<title>Node21&#45;&gt;Node25</title>
<path fill="none" stroke="#191970" d="M47.0718,-51.7429C58.533,-44.1424 73.0942,-35.2632 87,-29 95.0205,-25.3875 103.9158,-22.2292 112.434,-19.5788"/>
<polygon fill="#191970" stroke="#191970" points="44.9196,-48.9738 38.6165,-57.4898 48.8545,-54.7631 44.9196,-48.9738"/>
</g>
<!-- Node22&#45;&gt;Node23 -->
<g id="edge2" class="edge">
<title>Node22&#45;&gt;Node23</title>
<path fill="none" stroke="#191970" d="M185.0343,-110.7713C194.1507,-107.2968 203.9525,-103.5326 213,-100 232.8303,-92.2574 255.2546,-83.2728 271.7138,-76.6353"/>
<polygon fill="#191970" stroke="#191970" points="183.5832,-107.5785 175.4792,-114.4031 186.0703,-114.1218 183.5832,-107.5785"/>
</g>
<!-- Node24&#45;&gt;Node23 -->
<g id="edge4" class="edge">
<title>Node24&#45;&gt;Node23</title>
<path fill="none" stroke="#191970" d="M223.527,-57.6015C232.177,-58.731 240.8124,-59.8587 248.9439,-60.9205"/>
<polygon fill="#191970" stroke="#191970" points="223.7642,-54.1028 213.3952,-56.2784 222.8577,-61.0439 223.7642,-54.1028"/>
</g>
<!-- Node25&#45;&gt;Node23 -->
<g id="edge6" class="edge">
<title>Node25&#45;&gt;Node23</title>
<path fill="none" stroke="#191970" d="M194.3952,-22.5425C200.6879,-24.5652 207.0411,-26.7416 213,-29 235.4135,-37.4948 260.2954,-49.2985 276.8129,-57.487"/>
<polygon fill="#191970" stroke="#191970" points="195.21,-19.1306 184.6217,-19.5005 193.1297,-25.8143 195.21,-19.1306"/>
</g>
</g>
</svg>
