<?xml version="1.0" encoding="UTF-8" standalone="no"?>
<!DOCTYPE svg PUBLIC "-//W3C//DTD SVG 1.1//EN"
 "http://www.w3.org/Graphics/SVG/1.1/DTD/svg11.dtd">
<!-- Generated by graphviz version 2.40.1 (20161225.0304)
 -->
<!-- Title: fish::maturation_probability Pages: 1 -->
<svg width="414pt" height="47pt"
 viewBox="0.00 0.00 414.00 47.00" xmlns="http://www.w3.org/2000/svg" xmlns:xlink="http://www.w3.org/1999/xlink">
<g id="graph0" class="graph" transform="scale(1 1) rotate(0) translate(4 43)">
<title>fish::maturation_probability</title>
<!-- Node49 -->
<g id="node1" class="node">
<title>Node49</title>
<polygon fill="#bfbfbf" stroke="#000000" points="0,-.5 0,-19.5 134,-19.5 134,-.5 0,-.5"/>
<text text-anchor="middle" x="67" y="-7.5" font-family="Helvetica,sans-Serif" font-size="10.00" fill="#000000">fish::maturation_probability</text>
</g>
<!-- Node50 -->
<g id="node2" class="node">
<title>Node50</title>
<g id="a_node2"><a xlink:href="classFish.html#ac7121f25ba24b82a7faabd07702d7e73" target="_top" xlink:title="Calculate the probability of maturation. ">
<polygon fill="none" stroke="#000000" points="170,-19.5 170,-38.5 277,-38.5 277,-19.5 170,-19.5"/>
<text text-anchor="middle" x="223.5" y="-26.5" font-family="Helvetica,sans-Serif" font-size="10.00" fill="#000000">Fish::maturationProb</text>
</a>
</g>
</g>
<!-- Node49&#45;&gt;Node50 -->
<g id="edge1" class="edge">
<title>Node49&#45;&gt;Node50</title>
<path fill="none" stroke="#191970" d="M144.4011,-19.3969C153.0512,-20.4471 161.7151,-21.499 169.9699,-22.5011"/>
<polygon fill="#191970" stroke="#191970" points="144.6273,-15.8988 134.2783,-18.168 143.7836,-22.8478 144.6273,-15.8988"/>
</g>
<!-- Node51 -->
<g id="node3" class="node">
<title>Node51</title>
<g id="a_node3"><a xlink:href="fish__glue_8cpp.html#a7b6a9b6d94c71377c935b2cfbffdfabc" target="_top" xlink:title="RCPP_MODULE">
<polygon fill="none" stroke="#000000" points="313,-.5 313,-19.5 406,-19.5 406,-.5 313,-.5"/>
<text text-anchor="middle" x="359.5" y="-7.5" font-family="Helvetica,sans-Serif" font-size="10.00" fill="#000000">RCPP_MODULE</text>
</a>
</g>
</g>
<!-- Node49&#45;&gt;Node51 -->
<g id="edge3" class="edge">
<title>Node49&#45;&gt;Node51</title>
<path fill="none" stroke="#191970" d="M144.2528,-10C197.8239,-10 267.4183,-10 312.7531,-10"/>
<polygon fill="#191970" stroke="#191970" points="144.1054,-6.5001 134.1054,-10 144.1054,-13.5001 144.1054,-6.5001"/>
</g>
<!-- Node50&#45;&gt;Node51 -->
<g id="edge2" class="edge">
<title>Node50&#45;&gt;Node51</title>
<path fill="none" stroke="#191970" d="M287.2564,-20.0929C295.8433,-18.8932 304.5207,-17.6809 312.7382,-16.5329"/>
<polygon fill="#191970" stroke="#191970" points="286.6703,-16.6407 277.2508,-21.4907 287.6389,-23.5733 286.6703,-16.6407"/>
</g>
</g>
</svg>
