<?xml version="1.0" encoding="UTF-8" standalone="no"?>
<!DOCTYPE svg PUBLIC "-//W3C//DTD SVG 1.1//EN"
 "http://www.w3.org/Graphics/SVG/1.1/DTD/svg11.dtd">
<!-- Generated by graphviz version 2.40.1 (20161225.0304)
 -->
<!-- Title: fish::gsi Pages: 1 -->
<svg width="302pt" height="104pt"
 viewBox="0.00 0.00 302.00 104.00" xmlns="http://www.w3.org/2000/svg" xmlns:xlink="http://www.w3.org/1999/xlink">
<g id="graph0" class="graph" transform="scale(1 1) rotate(0) translate(4 100)">
<title>fish::gsi</title>
<!-- Node6 -->
<g id="node1" class="node">
<title>Node6</title>
<polygon fill="#bfbfbf" stroke="#000000" points="0,-38.5 0,-57.5 51,-57.5 51,-38.5 0,-38.5"/>
<text text-anchor="middle" x="25.5" y="-45.5" font-family="Helvetica,sans-Serif" font-size="10.00" fill="#000000">fish::gsi</text>
</g>
<!-- Node7 -->
<g id="node2" class="node">
<title>Node7</title>
<g id="a_node2"><a xlink:href="namespacefish.html#a30a5cb4380aecc75b3cf0bf2774a6a4f" target="_top" xlink:title="fish::fecundity">
<polygon fill="none" stroke="#000000" points="87,-76.5 87,-95.5 165,-95.5 165,-76.5 87,-76.5"/>
<text text-anchor="middle" x="126" y="-83.5" font-family="Helvetica,sans-Serif" font-size="10.00" fill="#000000">fish::fecundity</text>
</a>
</g>
</g>
<!-- Node6&#45;&gt;Node7 -->
<g id="edge1" class="edge">
<title>Node6&#45;&gt;Node7</title>
<path fill="none" stroke="#191970" d="M60.5813,-61.2646C73.7751,-66.2533 88.5085,-71.8241 100.6477,-76.4141"/>
<polygon fill="#191970" stroke="#191970" points="61.452,-57.852 50.8604,-57.589 58.9762,-64.3996 61.452,-57.852"/>
</g>
<!-- Node8 -->
<g id="node3" class="node">
<title>Node8</title>
<g id="a_node3"><a xlink:href="fish__glue_8cpp.html#a7b6a9b6d94c71377c935b2cfbffdfabc" target="_top" xlink:title="RCPP_MODULE">
<polygon fill="none" stroke="#000000" points="201,-38.5 201,-57.5 294,-57.5 294,-38.5 201,-38.5"/>
<text text-anchor="middle" x="247.5" y="-45.5" font-family="Helvetica,sans-Serif" font-size="10.00" fill="#000000">RCPP_MODULE</text>
</a>
</g>
</g>
<!-- Node6&#45;&gt;Node8 -->
<g id="edge5" class="edge">
<title>Node6&#45;&gt;Node8</title>
<path fill="none" stroke="#191970" d="M61.4868,-48C99.432,-48 159.3576,-48 200.8939,-48"/>
<polygon fill="#191970" stroke="#191970" points="61.4007,-44.5001 51.4007,-48 61.4007,-51.5001 61.4007,-44.5001"/>
</g>
<!-- Node9 -->
<g id="node4" class="node">
<title>Node9</title>
<g id="a_node4"><a xlink:href="classFish.html#ab95285bebae6447ce00fabcd2f0aa6d0" target="_top" xlink:title="Fish::grow">
<polygon fill="none" stroke="#000000" points="95,-.5 95,-19.5 157,-19.5 157,-.5 95,-.5"/>
<text text-anchor="middle" x="126" y="-7.5" font-family="Helvetica,sans-Serif" font-size="10.00" fill="#000000">Fish::grow</text>
</a>
</g>
</g>
<!-- Node6&#45;&gt;Node9 -->
<g id="edge3" class="edge">
<title>Node6&#45;&gt;Node9</title>
<path fill="none" stroke="#191970" d="M60.5813,-34.7354C73.7751,-29.7467 88.5085,-24.1759 100.6477,-19.5859"/>
<polygon fill="#191970" stroke="#191970" points="58.9762,-31.6004 50.8604,-38.411 61.452,-38.148 58.9762,-31.6004"/>
</g>
<!-- Node7&#45;&gt;Node8 -->
<g id="edge2" class="edge">
<title>Node7&#45;&gt;Node8</title>
<path fill="none" stroke="#191970" d="M166.544,-73.3196C182.9606,-68.1852 201.5989,-62.3559 216.8502,-57.5859"/>
<polygon fill="#191970" stroke="#191970" points="165.1589,-70.0855 156.6596,-76.411 167.2485,-76.7664 165.1589,-70.0855"/>
</g>
<!-- Node9&#45;&gt;Node8 -->
<g id="edge4" class="edge">
<title>Node9&#45;&gt;Node8</title>
<path fill="none" stroke="#191970" d="M166.544,-22.6804C182.9606,-27.8148 201.5989,-33.6441 216.8502,-38.4141"/>
<polygon fill="#191970" stroke="#191970" points="167.2485,-19.2336 156.6596,-19.589 165.1589,-25.9145 167.2485,-19.2336"/>
</g>
</g>
</svg>
