<?xml version="1.0" encoding="UTF-8" standalone="no"?>
<!DOCTYPE svg PUBLIC "-//W3C//DTD SVG 1.1//EN"
 "http://www.w3.org/Graphics/SVG/1.1/DTD/svg11.dtd">
<!-- Generated by graphviz version 2.40.1 (20161225.0304)
 -->
<!-- Title: fish::maturation_probability Pages: 1 -->
<svg width="399pt" height="47pt"
 viewBox="0.00 0.00 399.00 47.00" xmlns="http://www.w3.org/2000/svg" xmlns:xlink="http://www.w3.org/1999/xlink">
<g id="graph0" class="graph" transform="scale(1 1) rotate(0) translate(4 43)">
<title>fish::maturation_probability</title>
<!-- Node22 -->
<g id="node1" class="node">
<title>Node22</title>
<polygon fill="#bfbfbf" stroke="#000000" points="0,-.5 0,-19.5 134,-19.5 134,-.5 0,-.5"/>
<text text-anchor="middle" x="67" y="-7.5" font-family="Helvetica,sans-Serif" font-size="10.00" fill="#000000">fish::maturation_probability</text>
</g>
<!-- Node23 -->
<g id="node2" class="node">
<title>Node23</title>
<g id="a_node2"><a xlink:href="classFish.html#acf6d815ee242fd3b3ee2412dbe11a2ed" target="_top" xlink:title="Fish::matureNow">
<polygon fill="none" stroke="#000000" points="170,-19.5 170,-38.5 262,-38.5 262,-19.5 170,-19.5"/>
<text text-anchor="middle" x="216" y="-26.5" font-family="Helvetica,sans-Serif" font-size="10.00" fill="#000000">Fish::matureNow</text>
</a>
</g>
</g>
<!-- Node22&#45;&gt;Node23 -->
<g id="edge1" class="edge">
<title>Node22&#45;&gt;Node23</title>
<path fill="none" stroke="#191970" d="M144.2907,-19.8559C152.9845,-20.9645 161.6276,-22.0666 169.7454,-23.1018"/>
<polygon fill="#191970" stroke="#191970" points="144.4524,-16.3482 134.09,-18.5551 143.5669,-23.292 144.4524,-16.3482"/>
</g>
<!-- Node24 -->
<g id="node3" class="node">
<title>Node24</title>
<g id="a_node3"><a xlink:href="fish__glue_8cpp.html#a7b6a9b6d94c71377c935b2cfbffdfabc" target="_top" xlink:title="RCPP_MODULE">
<polygon fill="none" stroke="#000000" points="298,-.5 298,-19.5 391,-19.5 391,-.5 298,-.5"/>
<text text-anchor="middle" x="344.5" y="-7.5" font-family="Helvetica,sans-Serif" font-size="10.00" fill="#000000">RCPP_MODULE</text>
</a>
</g>
</g>
<!-- Node22&#45;&gt;Node24 -->
<g id="edge3" class="edge">
<title>Node22&#45;&gt;Node24</title>
<path fill="none" stroke="#191970" d="M144.1837,-10C193.5616,-10 255.9884,-10 297.9159,-10"/>
<polygon fill="#191970" stroke="#191970" points="144.175,-6.5001 134.175,-10 144.175,-13.5001 144.175,-6.5001"/>
</g>
<!-- Node23&#45;&gt;Node24 -->
<g id="edge2" class="edge">
<title>Node23&#45;&gt;Node24</title>
<path fill="none" stroke="#191970" d="M272.0411,-20.7138C280.6818,-19.4362 289.5239,-18.1288 297.9283,-16.8861"/>
<polygon fill="#191970" stroke="#191970" points="271.409,-17.2691 262.0285,-22.1942 272.4329,-24.1938 271.409,-17.2691"/>
</g>
</g>
</svg>
