<?xml version="1.0" encoding="UTF-8" standalone="no"?>
<!DOCTYPE svg PUBLIC "-//W3C//DTD SVG 1.1//EN"
 "http://www.w3.org/Graphics/SVG/1.1/DTD/svg11.dtd">
<!-- Generated by graphviz version 2.40.1 (20161225.0304)
 -->
<!-- Title: fish::weight_fish Pages: 1 -->
<svg width="347pt" height="104pt"
 viewBox="0.00 0.00 347.00 104.00" xmlns="http://www.w3.org/2000/svg" xmlns:xlink="http://www.w3.org/1999/xlink">
<g id="graph0" class="graph" transform="scale(1 1) rotate(0) translate(4 100)">
<title>fish::weight_fish</title>
<!-- Node39 -->
<g id="node1" class="node">
<title>Node39</title>
<polygon fill="#bfbfbf" stroke="#000000" points="0,-38.5 0,-57.5 88,-57.5 88,-38.5 0,-38.5"/>
<text text-anchor="middle" x="44" y="-45.5" font-family="Helvetica,sans-Serif" font-size="10.00" fill="#000000">fish::weight_fish</text>
</g>
<!-- Node40 -->
<g id="node2" class="node">
<title>Node40</title>
<g id="a_node2"><a xlink:href="namespacefish.html#a30a5cb4380aecc75b3cf0bf2774a6a4f" target="_top" xlink:title="fish::fecundity">
<polygon fill="none" stroke="#000000" points="128,-76.5 128,-95.5 206,-95.5 206,-76.5 128,-76.5"/>
<text text-anchor="middle" x="167" y="-83.5" font-family="Helvetica,sans-Serif" font-size="10.00" fill="#000000">fish::fecundity</text>
</a>
</g>
</g>
<!-- Node39&#45;&gt;Node40 -->
<g id="edge1" class="edge">
<title>Node39&#45;&gt;Node40</title>
<path fill="none" stroke="#191970" d="M85.0445,-60.6804C101.6638,-65.8148 120.5322,-71.6441 135.9718,-76.4141"/>
<polygon fill="#191970" stroke="#191970" points="85.6257,-57.1968 75.0381,-57.589 83.5594,-63.8849 85.6257,-57.1968"/>
</g>
<!-- Node41 -->
<g id="node3" class="node">
<title>Node41</title>
<g id="a_node3"><a xlink:href="fish__glue_8cpp.html#a7b6a9b6d94c71377c935b2cfbffdfabc" target="_top" xlink:title="RCPP_MODULE">
<polygon fill="none" stroke="#000000" points="246,-57.5 246,-76.5 339,-76.5 339,-57.5 246,-57.5"/>
<text text-anchor="middle" x="292.5" y="-64.5" font-family="Helvetica,sans-Serif" font-size="10.00" fill="#000000">RCPP_MODULE</text>
</a>
</g>
</g>
<!-- Node39&#45;&gt;Node41 -->
<g id="edge4" class="edge">
<title>Node39&#45;&gt;Node41</title>
<path fill="none" stroke="#191970" d="M98.3889,-52.1585C142.4736,-55.5292 203.9411,-60.2289 245.8172,-63.4307"/>
<polygon fill="#191970" stroke="#191970" points="98.3782,-48.6476 88.1405,-51.3749 97.8445,-55.6272 98.3782,-48.6476"/>
</g>
<!-- Node42 -->
<g id="node4" class="node">
<title>Node42</title>
<g id="a_node4"><a xlink:href="classFish.html#a0a1f9fe15dae9fc71e5abbc2a03de9aa" target="_top" xlink:title="Fish::set_length">
<polygon fill="none" stroke="#000000" points="124,-.5 124,-19.5 210,-19.5 210,-.5 124,-.5"/>
<text text-anchor="middle" x="167" y="-7.5" font-family="Helvetica,sans-Serif" font-size="10.00" fill="#000000">Fish::set_length</text>
</a>
</g>
</g>
<!-- Node39&#45;&gt;Node42 -->
<g id="edge3" class="edge">
<title>Node39&#45;&gt;Node42</title>
<path fill="none" stroke="#191970" d="M85.0445,-35.3196C101.6638,-30.1852 120.5322,-24.3559 135.9718,-19.5859"/>
<polygon fill="#191970" stroke="#191970" points="83.5594,-32.1151 75.0381,-38.411 85.6257,-38.8032 83.5594,-32.1151"/>
</g>
<!-- Node40&#45;&gt;Node41 -->
<g id="edge2" class="edge">
<title>Node40&#45;&gt;Node41</title>
<path fill="none" stroke="#191970" d="M215.9573,-78.5881C225.6943,-77.114 235.8974,-75.5693 245.5649,-74.1057"/>
<polygon fill="#191970" stroke="#191970" points="215.3844,-75.1349 206.021,-80.0924 216.4323,-82.056 215.3844,-75.1349"/>
</g>
</g>
</svg>
