<?xml version="1.0" encoding="UTF-8" standalone="no"?>
<!DOCTYPE svg PUBLIC "-//W3C//DTD SVG 1.1//EN"
 "http://www.w3.org/Graphics/SVG/1.1/DTD/svg11.dtd">
<!-- Generated by graphviz version 2.40.1 (20161225.0304)
 -->
<!-- Title: fish::length_adult Pages: 1 -->
<svg width="326pt" height="47pt"
 viewBox="0.00 0.00 326.00 47.00" xmlns="http://www.w3.org/2000/svg" xmlns:xlink="http://www.w3.org/1999/xlink">
<g id="graph0" class="graph" transform="scale(1 1) rotate(0) translate(4 43)">
<title>fish::length_adult</title>
<!-- Node12 -->
<g id="node1" class="node">
<title>Node12</title>
<polygon fill="#bfbfbf" stroke="#000000" points="0,-.5 0,-19.5 91,-19.5 91,-.5 0,-.5"/>
<text text-anchor="middle" x="45.5" y="-7.5" font-family="Helvetica,sans-Serif" font-size="10.00" fill="#000000">fish::length_adult</text>
</g>
<!-- Node13 -->
<g id="node2" class="node">
<title>Node13</title>
<g id="a_node2"><a xlink:href="classFish.html#ab95285bebae6447ce00fabcd2f0aa6d0" target="_top" xlink:title="Fish::grow">
<polygon fill="none" stroke="#000000" points="127,-19.5 127,-38.5 189,-38.5 189,-19.5 127,-19.5"/>
<text text-anchor="middle" x="158" y="-26.5" font-family="Helvetica,sans-Serif" font-size="10.00" fill="#000000">Fish::grow</text>
</a>
</g>
</g>
<!-- Node12&#45;&gt;Node13 -->
<g id="edge1" class="edge">
<title>Node12&#45;&gt;Node13</title>
<path fill="none" stroke="#191970" d="M101.1391,-19.3968C109.9391,-20.883 118.759,-22.3726 126.7372,-23.7201"/>
<polygon fill="#191970" stroke="#191970" points="101.7013,-15.9423 91.2581,-17.728 100.5355,-22.8445 101.7013,-15.9423"/>
</g>
<!-- Node14 -->
<g id="node3" class="node">
<title>Node14</title>
<g id="a_node3"><a xlink:href="fish__glue_8cpp.html#a7b6a9b6d94c71377c935b2cfbffdfabc" target="_top" xlink:title="RCPP_MODULE">
<polygon fill="none" stroke="#000000" points="225,-.5 225,-19.5 318,-19.5 318,-.5 225,-.5"/>
<text text-anchor="middle" x="271.5" y="-7.5" font-family="Helvetica,sans-Serif" font-size="10.00" fill="#000000">RCPP_MODULE</text>
</a>
</g>
</g>
<!-- Node12&#45;&gt;Node14 -->
<g id="edge3" class="edge">
<title>Node12&#45;&gt;Node14</title>
<path fill="none" stroke="#191970" d="M101.5916,-10C139.4721,-10 188.8987,-10 224.6684,-10"/>
<polygon fill="#191970" stroke="#191970" points="101.2345,-6.5001 91.2345,-10 101.2344,-13.5001 101.2345,-6.5001"/>
</g>
<!-- Node13&#45;&gt;Node14 -->
<g id="edge2" class="edge">
<title>Node13&#45;&gt;Node14</title>
<path fill="none" stroke="#191970" d="M198.9341,-22.1476C207.3148,-20.7447 216.1955,-19.258 224.7619,-17.824"/>
<polygon fill="#191970" stroke="#191970" points="198.2992,-18.7051 189.0144,-23.8082 199.455,-25.609 198.2992,-18.7051"/>
</g>
</g>
</svg>
