<?xml version="1.0" encoding="UTF-8" standalone="no"?>
<!DOCTYPE svg PUBLIC "-//W3C//DTD SVG 1.1//EN"
 "http://www.w3.org/Graphics/SVG/1.1/DTD/svg11.dtd">
<!-- Generated by graphviz version 2.40.1 (20161225.0304)
 -->
<!-- Title: fish::maturation_steepness Pages: 1 -->
<svg width="271pt" height="66pt"
 viewBox="0.00 0.00 271.00 66.00" xmlns="http://www.w3.org/2000/svg" xmlns:xlink="http://www.w3.org/1999/xlink">
<g id="graph0" class="graph" transform="scale(1 1) rotate(0) translate(4 62)">
<title>fish::maturation_steepness</title>
<!-- Node53 -->
<g id="node1" class="node">
<title>Node53</title>
<polygon fill="#bfbfbf" stroke="#000000" points="0,-19.5 0,-38.5 134,-38.5 134,-19.5 0,-19.5"/>
<text text-anchor="middle" x="67" y="-26.5" font-family="Helvetica,sans-Serif" font-size="10.00" fill="#000000">fish::maturation_steepness</text>
</g>
<!-- Node54 -->
<g id="node2" class="node">
<title>Node54</title>
<g id="a_node2"><a xlink:href="classFishParams.html#a9f2eb8f9cba3f7cc9b1d187e28a0e566" target="_top" xlink:title="FishParams::init">
<polygon fill="none" stroke="#000000" points="172.5,-38.5 172.5,-57.5 260.5,-57.5 260.5,-38.5 172.5,-38.5"/>
<text text-anchor="middle" x="216.5" y="-45.5" font-family="Helvetica,sans-Serif" font-size="10.00" fill="#000000">FishParams::init</text>
</a>
</g>
</g>
<!-- Node53&#45;&gt;Node54 -->
<g id="edge1" class="edge">
<title>Node53&#45;&gt;Node54</title>
<path fill="none" stroke="#191970" d="M144.2984,-38.8239C153.8843,-40.0421 163.4142,-41.2533 172.2566,-42.3771"/>
<polygon fill="#191970" stroke="#191970" points="144.6766,-35.3439 134.3151,-37.5551 143.7941,-42.288 144.6766,-35.3439"/>
</g>
<!-- Node55 -->
<g id="node3" class="node">
<title>Node55</title>
<g id="a_node3"><a xlink:href="fish__glue_8cpp.html#a7b6a9b6d94c71377c935b2cfbffdfabc" target="_top" xlink:title="RCPP_MODULE">
<polygon fill="none" stroke="#000000" points="170,-.5 170,-19.5 263,-19.5 263,-.5 170,-.5"/>
<text text-anchor="middle" x="216.5" y="-7.5" font-family="Helvetica,sans-Serif" font-size="10.00" fill="#000000">RCPP_MODULE</text>
</a>
</g>
</g>
<!-- Node53&#45;&gt;Node55 -->
<g id="edge2" class="edge">
<title>Node53&#45;&gt;Node55</title>
<path fill="none" stroke="#191970" d="M144.4188,-19.1608C153.0304,-18.0664 161.5948,-16.9779 169.6539,-15.9537"/>
<polygon fill="#191970" stroke="#191970" points="143.7941,-15.712 134.3151,-20.4449 144.6766,-22.6561 143.7941,-15.712"/>
</g>
</g>
</svg>
