<?xml version="1.0" encoding="UTF-8" standalone="no"?>
<!DOCTYPE svg PUBLIC "-//W3C//DTD SVG 1.1//EN"
 "http://www.w3.org/Graphics/SVG/1.1/DTD/svg11.dtd">
<!-- Generated by graphviz version 2.40.1 (20161225.0304)
 -->
<!-- Title: fish::fecundity Pages: 1 -->
<svg width="364pt" height="47pt"
 viewBox="0.00 0.00 364.00 47.00" xmlns="http://www.w3.org/2000/svg" xmlns:xlink="http://www.w3.org/1999/xlink">
<g id="graph0" class="graph" transform="scale(1 1) rotate(0) translate(4 43)">
<title>fish::fecundity</title>
<!-- Node17 -->
<g id="node1" class="node">
<title>Node17</title>
<polygon fill="#bfbfbf" stroke="#000000" points="0,-.5 0,-19.5 78,-19.5 78,-.5 0,-.5"/>
<text text-anchor="middle" x="39" y="-7.5" font-family="Helvetica,sans-Serif" font-size="10.00" fill="#000000">fish::fecundity</text>
</g>
<!-- Node18 -->
<g id="node2" class="node">
<title>Node18</title>
<g id="a_node2"><a xlink:href="classFish.html#a9550ba7371eef86c50349864bcf05b4a" target="_top" xlink:title="Calculate the number of surviving recruits produced based on egg production and offspring survival un...">
<polygon fill="none" stroke="#000000" points="114,-19.5 114,-38.5 227,-38.5 227,-19.5 114,-19.5"/>
<text text-anchor="middle" x="170.5" y="-26.5" font-family="Helvetica,sans-Serif" font-size="10.00" fill="#000000">Fish::produceRecruits</text>
</a>
</g>
</g>
<!-- Node17&#45;&gt;Node18 -->
<g id="edge1" class="edge">
<title>Node17&#45;&gt;Node18</title>
<path fill="none" stroke="#191970" d="M88.0866,-17.0924C96.4651,-18.3029 105.2301,-19.5694 113.787,-20.8057"/>
<polygon fill="#191970" stroke="#191970" points="88.4961,-13.6153 78.0983,-15.6492 87.495,-20.5433 88.4961,-13.6153"/>
</g>
<!-- Node19 -->
<g id="node3" class="node">
<title>Node19</title>
<g id="a_node3"><a xlink:href="fish__glue_8cpp.html#a7b6a9b6d94c71377c935b2cfbffdfabc" target="_top" xlink:title="RCPP_MODULE">
<polygon fill="none" stroke="#000000" points="263,-.5 263,-19.5 356,-19.5 356,-.5 263,-.5"/>
<text text-anchor="middle" x="309.5" y="-7.5" font-family="Helvetica,sans-Serif" font-size="10.00" fill="#000000">RCPP_MODULE</text>
</a>
</g>
</g>
<!-- Node17&#45;&gt;Node19 -->
<g id="edge3" class="edge">
<title>Node17&#45;&gt;Node19</title>
<path fill="none" stroke="#191970" d="M88.2196,-10C137.8768,-10 213.9867,-10 262.7455,-10"/>
<polygon fill="#191970" stroke="#191970" points="88.0442,-6.5001 78.0441,-10 88.0441,-13.5001 88.0442,-6.5001"/>
</g>
<!-- Node18&#45;&gt;Node19 -->
<g id="edge2" class="edge">
<title>Node18&#45;&gt;Node19</title>
<path fill="none" stroke="#191970" d="M237.1485,-19.8898C245.8131,-18.7054 254.5369,-17.5129 262.7799,-16.3862"/>
<polygon fill="#191970" stroke="#191970" points="236.4705,-16.4498 227.0366,-21.272 237.4185,-23.3853 236.4705,-16.4498"/>
</g>
</g>
</svg>
