<?xml version="1.0" encoding="UTF-8" standalone="no"?>
<!DOCTYPE svg PUBLIC "-//W3C//DTD SVG 1.1//EN"
 "http://www.w3.org/Graphics/SVG/1.1/DTD/svg11.dtd">
<!-- Generated by graphviz version 2.40.1 (20161225.0304)
 -->
<!-- Title: fish::length_juvenile Pages: 1 -->
<svg width="465pt" height="142pt"
 viewBox="0.00 0.00 465.00 142.00" xmlns="http://www.w3.org/2000/svg" xmlns:xlink="http://www.w3.org/1999/xlink">
<g id="graph0" class="graph" transform="scale(1 1) rotate(0) translate(4 138)">
<title>fish::length_juvenile</title>
<!-- Node16 -->
<g id="node1" class="node">
<title>Node16</title>
<polygon fill="#bfbfbf" stroke="#000000" points="0,-57.5 0,-76.5 103,-76.5 103,-57.5 0,-57.5"/>
<text text-anchor="middle" x="51.5" y="-64.5" font-family="Helvetica,sans-Serif" font-size="10.00" fill="#000000">fish::length_juvenile</text>
</g>
<!-- Node17 -->
<g id="node2" class="node">
<title>Node17</title>
<g id="a_node2"><a xlink:href="namespacefish.html#a138fecf39fc899d469d340b073a4daec" target="_top" xlink:title="fish::length_adult">
<polygon fill="none" stroke="#000000" points="139,-76.5 139,-95.5 230,-95.5 230,-76.5 139,-76.5"/>
<text text-anchor="middle" x="184.5" y="-83.5" font-family="Helvetica,sans-Serif" font-size="10.00" fill="#000000">fish::length_adult</text>
</a>
</g>
</g>
<!-- Node16&#45;&gt;Node17 -->
<g id="edge1" class="edge">
<title>Node16&#45;&gt;Node17</title>
<path fill="none" stroke="#191970" d="M113.2654,-75.8236C121.8229,-77.0461 130.4854,-78.2836 138.6824,-79.4546"/>
<polygon fill="#191970" stroke="#191970" points="113.6966,-72.3498 103.3021,-74.4003 112.7066,-79.2794 113.6966,-72.3498"/>
</g>
<!-- Node18 -->
<g id="node3" class="node">
<title>Node18</title>
<g id="a_node3"><a xlink:href="classFish.html#ab95285bebae6447ce00fabcd2f0aa6d0" target="_top" xlink:title="Fish::grow">
<polygon fill="none" stroke="#000000" points="266,-114.5 266,-133.5 328,-133.5 328,-114.5 266,-114.5"/>
<text text-anchor="middle" x="297" y="-121.5" font-family="Helvetica,sans-Serif" font-size="10.00" fill="#000000">Fish::grow</text>
</a>
</g>
</g>
<!-- Node16&#45;&gt;Node18 -->
<g id="edge6" class="edge">
<title>Node16&#45;&gt;Node18</title>
<path fill="none" stroke="#191970" d="M78.6409,-81.2268C95.5553,-89.4703 118.0211,-99.3136 139,-105 182.0655,-116.6731 233.6759,-121.1797 265.9105,-122.9162"/>
<polygon fill="#191970" stroke="#191970" points="79.887,-77.937 69.3767,-76.6015 76.7602,-84.1998 79.887,-77.937"/>
</g>
<!-- Node19 -->
<g id="node4" class="node">
<title>Node19</title>
<g id="a_node4"><a xlink:href="fish__glue_8cpp.html#a7b6a9b6d94c71377c935b2cfbffdfabc" target="_top" xlink:title="RCPP_MODULE">
<polygon fill="none" stroke="#000000" points="364,-76.5 364,-95.5 457,-95.5 457,-76.5 364,-76.5"/>
<text text-anchor="middle" x="410.5" y="-83.5" font-family="Helvetica,sans-Serif" font-size="10.00" fill="#000000">RCPP_MODULE</text>
</a>
</g>
</g>
<!-- Node16&#45;&gt;Node19 -->
<g id="edge7" class="edge">
<title>Node16&#45;&gt;Node19</title>
<path fill="none" stroke="#191970" d="M113.4469,-65.4057C147.8084,-64.922 191.2969,-64.9686 230,-67 275.6266,-69.3948 327.4741,-75.1722 363.8577,-79.7321"/>
<polygon fill="#191970" stroke="#191970" points="113.0341,-61.9118 103.0914,-65.5713 113.1461,-68.9109 113.0341,-61.9118"/>
</g>
<!-- Node20 -->
<g id="node5" class="node">
<title>Node20</title>
<g id="a_node5"><a xlink:href="classFish.html#a6e44b925e372b9a14403dc73ad50cead" target="_top" xlink:title="Fish::Fish">
<polygon fill="none" stroke="#000000" points="154.5,-.5 154.5,-19.5 214.5,-19.5 214.5,-.5 154.5,-.5"/>
<text text-anchor="middle" x="184.5" y="-7.5" font-family="Helvetica,sans-Serif" font-size="10.00" fill="#000000">Fish::Fish</text>
</a>
</g>
</g>
<!-- Node16&#45;&gt;Node20 -->
<g id="edge5" class="edge">
<title>Node16&#45;&gt;Node20</title>
<path fill="none" stroke="#191970" d="M83.2756,-53.3819C107.6084,-42.9535 140.5626,-28.8303 162.1662,-19.5716"/>
<polygon fill="#191970" stroke="#191970" points="81.5739,-50.3032 73.7612,-57.4595 84.3314,-56.7372 81.5739,-50.3032"/>
</g>
<!-- Node17&#45;&gt;Node18 -->
<g id="edge2" class="edge">
<title>Node17&#45;&gt;Node18</title>
<path fill="none" stroke="#191970" d="M222.4715,-98.8259C237.5666,-103.9247 254.6322,-109.6891 268.6206,-114.4141"/>
<polygon fill="#191970" stroke="#191970" points="223.4827,-95.4733 212.8885,-95.589 221.2426,-102.1052 223.4827,-95.4733"/>
</g>
<!-- Node17&#45;&gt;Node19 -->
<g id="edge4" class="edge">
<title>Node17&#45;&gt;Node19</title>
<path fill="none" stroke="#191970" d="M240.5916,-86C278.4721,-86 327.8987,-86 363.6684,-86"/>
<polygon fill="#191970" stroke="#191970" points="240.2345,-82.5001 230.2345,-86 240.2344,-89.5001 240.2345,-82.5001"/>
</g>
<!-- Node18&#45;&gt;Node19 -->
<g id="edge3" class="edge">
<title>Node18&#45;&gt;Node19</title>
<path fill="none" stroke="#191970" d="M335.309,-111.1741C350.5383,-106.0753 367.7556,-100.3109 381.8683,-95.5859"/>
<polygon fill="#191970" stroke="#191970" points="334.0123,-107.9172 325.6408,-114.411 336.2347,-114.555 334.0123,-107.9172"/>
</g>
</g>
</svg>
