<?xml version="1.0" encoding="UTF-8" standalone="no"?>
<!DOCTYPE svg PUBLIC "-//W3C//DTD SVG 1.1//EN"
 "http://www.w3.org/Graphics/SVG/1.1/DTD/svg11.dtd">
<!-- Generated by graphviz version 2.40.1 (20161225.0304)
 -->
<!-- Title: fish::natural_mortality Pages: 1 -->
<svg width="412pt" height="104pt"
 viewBox="0.00 0.00 412.00 104.00" xmlns="http://www.w3.org/2000/svg" xmlns:xlink="http://www.w3.org/1999/xlink">
<g id="graph0" class="graph" transform="scale(1 1) rotate(0) translate(4 100)">
<title>fish::natural_mortality</title>
<!-- Node30 -->
<g id="node1" class="node">
<title>Node30</title>
<polygon fill="#bfbfbf" stroke="#000000" points="0,-38.5 0,-57.5 110,-57.5 110,-38.5 0,-38.5"/>
<text text-anchor="middle" x="55" y="-45.5" font-family="Helvetica,sans-Serif" font-size="10.00" fill="#000000">fish::natural_mortality</text>
</g>
<!-- Node31 -->
<g id="node2" class="node">
<title>Node31</title>
<g id="a_node2"><a xlink:href="namespacefish.html#ab0499480bb6eb74da282054a5885d04c" target="_top" xlink:title="fish::survival_probability">
<polygon fill="none" stroke="#000000" points="149.5,-76.5 149.5,-95.5 271.5,-95.5 271.5,-76.5 149.5,-76.5"/>
<text text-anchor="middle" x="210.5" y="-83.5" font-family="Helvetica,sans-Serif" font-size="10.00" fill="#000000">fish::survival_probability</text>
</a>
</g>
</g>
<!-- Node30&#45;&gt;Node31 -->
<g id="edge1" class="edge">
<title>Node30&#45;&gt;Node31</title>
<path fill="none" stroke="#191970" d="M103.9742,-59.968C125.7652,-65.2931 151.0672,-71.4762 171.543,-76.4799"/>
<polygon fill="#191970" stroke="#191970" points="104.7843,-56.563 94.2392,-57.589 103.1225,-63.3629 104.7843,-56.563"/>
</g>
<!-- Node32 -->
<g id="node3" class="node">
<title>Node32</title>
<g id="a_node3"><a xlink:href="fish__glue_8cpp.html#a7b6a9b6d94c71377c935b2cfbffdfabc" target="_top" xlink:title="RCPP_MODULE">
<polygon fill="none" stroke="#000000" points="311,-38.5 311,-57.5 404,-57.5 404,-38.5 311,-38.5"/>
<text text-anchor="middle" x="357.5" y="-45.5" font-family="Helvetica,sans-Serif" font-size="10.00" fill="#000000">RCPP_MODULE</text>
</a>
</g>
</g>
<!-- Node30&#45;&gt;Node32 -->
<g id="edge5" class="edge">
<title>Node30&#45;&gt;Node32</title>
<path fill="none" stroke="#191970" d="M120.1816,-48C177.5304,-48 259.6233,-48 310.686,-48"/>
<polygon fill="#191970" stroke="#191970" points="120.1315,-44.5001 110.1314,-48 120.1314,-51.5001 120.1315,-44.5001"/>
</g>
<!-- Node33 -->
<g id="node4" class="node">
<title>Node33</title>
<g id="a_node4"><a xlink:href="classFish.html#a78cda076a02648a86822064657256027" target="_top" xlink:title="Fish::naturalMortalityRate">
<polygon fill="none" stroke="#000000" points="146,-.5 146,-19.5 275,-19.5 275,-.5 146,-.5"/>
<text text-anchor="middle" x="210.5" y="-7.5" font-family="Helvetica,sans-Serif" font-size="10.00" fill="#000000">Fish::naturalMortalityRate</text>
</a>
</g>
</g>
<!-- Node30&#45;&gt;Node33 -->
<g id="edge3" class="edge">
<title>Node30&#45;&gt;Node33</title>
<path fill="none" stroke="#191970" d="M103.9742,-36.032C125.7652,-30.7069 151.0672,-24.5238 171.543,-19.5201"/>
<polygon fill="#191970" stroke="#191970" points="103.1225,-32.6371 94.2392,-38.411 104.7843,-39.437 103.1225,-32.6371"/>
</g>
<!-- Node31&#45;&gt;Node32 -->
<g id="edge2" class="edge">
<title>Node31&#45;&gt;Node32</title>
<path fill="none" stroke="#191970" d="M257.3548,-73.8879C277.8276,-68.5956 301.4903,-62.4787 320.6724,-57.5201"/>
<polygon fill="#191970" stroke="#191970" points="256.4001,-70.5195 247.5943,-76.411 258.152,-77.2968 256.4001,-70.5195"/>
</g>
<!-- Node33&#45;&gt;Node32 -->
<g id="edge4" class="edge">
<title>Node33&#45;&gt;Node32</title>
<path fill="none" stroke="#191970" d="M257.3548,-22.1121C277.8276,-27.4044 301.4903,-33.5213 320.6724,-38.4799"/>
<polygon fill="#191970" stroke="#191970" points="258.152,-18.7032 247.5943,-19.589 256.4001,-25.4805 258.152,-18.7032"/>
</g>
</g>
</svg>
