<?xml version="1.0" encoding="UTF-8" standalone="no"?>
<!DOCTYPE svg PUBLIC "-//W3C//DTD SVG 1.1//EN"
 "http://www.w3.org/Graphics/SVG/1.1/DTD/svg11.dtd">
<!-- Generated by graphviz version 2.40.1 (20161225.0304)
 -->
<!-- Title: fish::weight_fish Pages: 1 -->
<svg width="347pt" height="47pt"
 viewBox="0.00 0.00 347.00 47.00" xmlns="http://www.w3.org/2000/svg" xmlns:xlink="http://www.w3.org/1999/xlink">
<g id="graph0" class="graph" transform="scale(1 1) rotate(0) translate(4 43)">
<title>fish::weight_fish</title>
<!-- Node66 -->
<g id="node1" class="node">
<title>Node66</title>
<polygon fill="#bfbfbf" stroke="#000000" points="0,-.5 0,-19.5 88,-19.5 88,-.5 0,-.5"/>
<text text-anchor="middle" x="44" y="-7.5" font-family="Helvetica,sans-Serif" font-size="10.00" fill="#000000">fish::weight_fish</text>
</g>
<!-- Node67 -->
<g id="node2" class="node">
<title>Node67</title>
<g id="a_node2"><a xlink:href="classFish.html#a0a1f9fe15dae9fc71e5abbc2a03de9aa" target="_top" xlink:title="Set fish length and other variables that scale directly with length. ">
<polygon fill="none" stroke="#000000" points="124,-19.5 124,-38.5 210,-38.5 210,-19.5 124,-19.5"/>
<text text-anchor="middle" x="167" y="-26.5" font-family="Helvetica,sans-Serif" font-size="10.00" fill="#000000">Fish::set_length</text>
</a>
</g>
</g>
<!-- Node66&#45;&gt;Node67 -->
<g id="edge1" class="edge">
<title>Node66&#45;&gt;Node67</title>
<path fill="none" stroke="#191970" d="M98.0022,-18.3418C106.585,-19.6676 115.3656,-21.024 123.6618,-22.3055"/>
<polygon fill="#191970" stroke="#191970" points="98.4755,-14.8735 88.0584,-16.8058 97.4069,-21.7914 98.4755,-14.8735"/>
</g>
<!-- Node68 -->
<g id="node3" class="node">
<title>Node68</title>
<g id="a_node3"><a xlink:href="fish__glue_8cpp.html#a7b6a9b6d94c71377c935b2cfbffdfabc" target="_top" xlink:title="RCPP_MODULE">
<polygon fill="none" stroke="#000000" points="246,-.5 246,-19.5 339,-19.5 339,-.5 246,-.5"/>
<text text-anchor="middle" x="292.5" y="-7.5" font-family="Helvetica,sans-Serif" font-size="10.00" fill="#000000">RCPP_MODULE</text>
</a>
</g>
</g>
<!-- Node66&#45;&gt;Node68 -->
<g id="edge3" class="edge">
<title>Node66&#45;&gt;Node68</title>
<path fill="none" stroke="#191970" d="M98.3889,-10C142.4736,-10 203.9411,-10 245.8172,-10"/>
<polygon fill="#191970" stroke="#191970" points="98.1405,-6.5001 88.1405,-10 98.1404,-13.5001 98.1405,-6.5001"/>
</g>
<!-- Node67&#45;&gt;Node68 -->
<g id="edge2" class="edge">
<title>Node67&#45;&gt;Node68</title>
<path fill="none" stroke="#191970" d="M220.3518,-20.9228C228.8124,-19.642 237.5062,-18.3258 245.7991,-17.0703"/>
<polygon fill="#191970" stroke="#191970" points="219.5534,-17.5037 210.19,-22.4613 220.6013,-24.4249 219.5534,-17.5037"/>
</g>
</g>
</svg>
