<?xml version="1.0" encoding="UTF-8" standalone="no"?>
<!DOCTYPE svg PUBLIC "-//W3C//DTD SVG 1.1//EN"
 "http://www.w3.org/Graphics/SVG/1.1/DTD/svg11.dtd">
<!-- Generated by graphviz version 2.40.1 (20161225.0304)
 -->
<!-- Title: pn::zero Pages: 1 -->
<svg width="468pt" height="165pt"
 viewBox="0.00 0.00 468.00 164.50" xmlns="http://www.w3.org/2000/svg" xmlns:xlink="http://www.w3.org/1999/xlink">
<g id="graph0" class="graph" transform="scale(1 1) rotate(0) translate(4 160.5)">
<title>pn::zero</title>
<!-- Node2 -->
<g id="node1" class="node">
<title>Node2</title>
<polygon fill="#bfbfbf" stroke="#000000" points="0,-77 0,-96 52,-96 52,-77 0,-77"/>
<text text-anchor="middle" x="26" y="-84" font-family="Helvetica,sans-Serif" font-size="10.00" fill="#000000">pn::zero</text>
</g>
<!-- Node3 -->
<g id="node2" class="node">
<title>Node3</title>
<g id="a_node2"><a xlink:href="classPopulation.html#aa404f725dcde475806cdb26704b9fbcf" target="_top" xlink:title="Population::update">
<polygon fill="none" stroke="#000000" points="88,-77 88,-96 186,-96 186,-77 88,-77"/>
<text text-anchor="middle" x="137" y="-84" font-family="Helvetica,sans-Serif" font-size="10.00" fill="#000000">Population::update</text>
</a>
</g>
</g>
<!-- Node2&#45;&gt;Node3 -->
<g id="edge1" class="edge">
<title>Node2&#45;&gt;Node3</title>
<path fill="none" stroke="#191970" d="M62.2453,-86.5C70.3462,-86.5 79.0719,-86.5 87.6029,-86.5"/>
<polygon fill="#191970" stroke="#191970" points="62.0246,-83.0001 52.0246,-86.5 62.0245,-90.0001 62.0246,-83.0001"/>
</g>
<!-- Node4 -->
<g id="node3" class="node">
<title>Node4</title>
<g id="a_node3"><a xlink:href="fish__glue_8cpp.html#ab96ae82277aa9004dc603b77512c7265" target="_top" xlink:title="RCPP_MODULE">
<polygon fill="none" stroke="#000000" points="230,-137 230,-156 323,-156 323,-137 230,-137"/>
<text text-anchor="middle" x="276.5" y="-144" font-family="Helvetica,sans-Serif" font-size="10.00" fill="#000000">RCPP_MODULE</text>
</a>
</g>
</g>
<!-- Node3&#45;&gt;Node4 -->
<g id="edge2" class="edge">
<title>Node3&#45;&gt;Node4</title>
<path fill="none" stroke="#191970" d="M164.3655,-100.6822C180.8511,-108.9778 202.3851,-119.3812 222,-127.5 230.0549,-130.834 238.9295,-134.0963 247.1362,-136.9506"/>
<polygon fill="#191970" stroke="#191970" points="165.7959,-97.4831 155.2951,-96.0746 162.6256,-103.7241 165.7959,-97.4831"/>
</g>
<!-- Node5 -->
<g id="node4" class="node">
<title>Node5</title>
<g id="a_node4"><a xlink:href="classSimulator.html#a16eef6e60e97dabc2a1205b58b10182c" target="_top" xlink:title="Simulator::simulate_r">
<polygon fill="none" stroke="#000000" points="222,-99 222,-118 331,-118 331,-99 222,-99"/>
<text text-anchor="middle" x="276.5" y="-106" font-family="Helvetica,sans-Serif" font-size="10.00" fill="#000000">Simulator::simulate_r</text>
</a>
</g>
</g>
<!-- Node3&#45;&gt;Node5 -->
<g id="edge3" class="edge">
<title>Node3&#45;&gt;Node5</title>
<path fill="none" stroke="#191970" d="M196.2841,-95.8495C204.6773,-97.1731 213.2775,-98.5294 221.5834,-99.8393"/>
<polygon fill="#191970" stroke="#191970" points="196.6057,-92.357 186.1825,-94.2564 195.5151,-99.2715 196.6057,-92.357"/>
</g>
<!-- Node7 -->
<g id="node6" class="node">
<title>Node7</title>
<g id="a_node6"><a xlink:href="classSimulator.html#a3e61a52f336d592216770c0c43cfd388" target="_top" xlink:title="Simulator::simulate\l_multi">
<polygon fill="none" stroke="#000000" points="226,-49.5 226,-79.5 327,-79.5 327,-49.5 226,-49.5"/>
<text text-anchor="start" x="234" y="-67.5" font-family="Helvetica,sans-Serif" font-size="10.00" fill="#000000">Simulator::simulate</text>
<text text-anchor="middle" x="276.5" y="-56.5" font-family="Helvetica,sans-Serif" font-size="10.00" fill="#000000">_multi</text>
</a>
</g>
</g>
<!-- Node3&#45;&gt;Node7 -->
<g id="edge5" class="edge">
<title>Node3&#45;&gt;Node7</title>
<path fill="none" stroke="#191970" d="M196.303,-77.1475C206.1459,-75.5953 216.2726,-73.9982 225.8753,-72.4838"/>
<polygon fill="#191970" stroke="#191970" points="195.5151,-73.7285 186.1825,-78.7436 196.6057,-80.643 195.5151,-73.7285"/>
</g>
<!-- Node8 -->
<g id="node7" class="node">
<title>Node8</title>
<g id="a_node7"><a xlink:href="classSimulator.html#a636e7a83b462c3e48769a85ae350e742" target="_top" xlink:title="Simulator::simulate\l_multi_2d">
<polygon fill="none" stroke="#000000" points="226,-.5 226,-30.5 327,-30.5 327,-.5 226,-.5"/>
<text text-anchor="start" x="234" y="-18.5" font-family="Helvetica,sans-Serif" font-size="10.00" fill="#000000">Simulator::simulate</text>
<text text-anchor="middle" x="276.5" y="-7.5" font-family="Helvetica,sans-Serif" font-size="10.00" fill="#000000">_multi_2d</text>
</a>
</g>
</g>
<!-- Node3&#45;&gt;Node8 -->
<g id="edge7" class="edge">
<title>Node3&#45;&gt;Node8</title>
<path fill="none" stroke="#191970" d="M163.2157,-71.7327C179.8997,-62.4796 202.0466,-50.4621 222,-40.5 228.6126,-37.1985 235.7494,-33.8054 242.611,-30.6253"/>
<polygon fill="#191970" stroke="#191970" points="161.1116,-68.8985 154.0816,-76.825 164.5203,-75.0126 161.1116,-68.8985"/>
</g>
<!-- Node6 -->
<g id="node5" class="node">
<title>Node6</title>
<g id="a_node5"><a xlink:href="fish__glue_8cpp.html#addebb0997b0e49067d8784c9954b7b96" target="_top" xlink:title="RCPP_MODULE">
<polygon fill="none" stroke="#000000" points="367,-55 367,-74 460,-74 460,-55 367,-55"/>
<text text-anchor="middle" x="413.5" y="-62" font-family="Helvetica,sans-Serif" font-size="10.00" fill="#000000">RCPP_MODULE</text>
</a>
</g>
</g>
<!-- Node5&#45;&gt;Node6 -->
<g id="edge4" class="edge">
<title>Node5&#45;&gt;Node6</title>
<path fill="none" stroke="#191970" d="M315.8015,-95.8776C337.4627,-88.9207 363.9162,-80.4247 383.8311,-74.0287"/>
<polygon fill="#191970" stroke="#191970" points="314.6777,-92.5624 306.227,-98.9527 316.8182,-99.2271 314.6777,-92.5624"/>
</g>
<!-- Node7&#45;&gt;Node6 -->
<g id="edge6" class="edge">
<title>Node7&#45;&gt;Node6</title>
<path fill="none" stroke="#191970" d="M337.2947,-64.5C347.1625,-64.5 357.2464,-64.5 366.7131,-64.5"/>
<polygon fill="#191970" stroke="#191970" points="337.1245,-61.0001 327.1245,-64.5 337.1245,-68.0001 337.1245,-61.0001"/>
</g>
<!-- Node8&#45;&gt;Node6 -->
<g id="edge8" class="edge">
<title>Node8&#45;&gt;Node6</title>
<path fill="none" stroke="#191970" d="M328.3007,-34.0272C348.2049,-41.1463 370.1124,-48.9818 386.728,-54.9246"/>
<polygon fill="#191970" stroke="#191970" points="329.317,-30.6737 318.7224,-30.6014 326.9595,-37.2648 329.317,-30.6737"/>
</g>
</g>
</svg>
