<?xml version="1.0" encoding="UTF-8" standalone="no"?>
<!DOCTYPE svg PUBLIC "-//W3C//DTD SVG 1.1//EN"
 "http://www.w3.org/Graphics/SVG/1.1/DTD/svg11.dtd">
<!-- Generated by graphviz version 2.40.1 (20161225.0304)
 -->
<!-- Title: pn::zero Pages: 1 -->
<svg width="605pt" height="160pt"
 viewBox="0.00 0.00 605.00 160.00" xmlns="http://www.w3.org/2000/svg" xmlns:xlink="http://www.w3.org/1999/xlink">
<g id="graph0" class="graph" transform="scale(1 1) rotate(0) translate(4 156)">
<title>pn::zero</title>
<!-- Node2 -->
<g id="node1" class="node">
<title>Node2</title>
<polygon fill="#bfbfbf" stroke="#000000" points="0,-66.5 0,-85.5 52,-85.5 52,-66.5 0,-66.5"/>
<text text-anchor="middle" x="26" y="-73.5" font-family="Helvetica,sans-Serif" font-size="10.00" fill="#000000">pn::zero</text>
</g>
<!-- Node3 -->
<g id="node2" class="node">
<title>Node3</title>
<g id="a_node2"><a xlink:href="classPopulation.html#aa404f725dcde475806cdb26704b9fbcf" target="_top" xlink:title="Population::update">
<polygon fill="none" stroke="#000000" points="88,-66.5 88,-85.5 186,-85.5 186,-66.5 88,-66.5"/>
<text text-anchor="middle" x="137" y="-73.5" font-family="Helvetica,sans-Serif" font-size="10.00" fill="#000000">Population::update</text>
</a>
</g>
</g>
<!-- Node2&#45;&gt;Node3 -->
<g id="edge1" class="edge">
<title>Node2&#45;&gt;Node3</title>
<path fill="none" stroke="#191970" d="M62.2453,-76C70.3462,-76 79.0719,-76 87.6029,-76"/>
<polygon fill="#191970" stroke="#191970" points="62.0246,-72.5001 52.0246,-76 62.0245,-79.5001 62.0246,-72.5001"/>
</g>
<!-- Node4 -->
<g id="node3" class="node">
<title>Node4</title>
<g id="a_node3"><a xlink:href="fish__glue_8cpp.html#ab96ae82277aa9004dc603b77512c7265" target="_top" xlink:title="RCPP_MODULE">
<polygon fill="none" stroke="#000000" points="226,-132.5 226,-151.5 319,-151.5 319,-132.5 226,-132.5"/>
<text text-anchor="middle" x="272.5" y="-139.5" font-family="Helvetica,sans-Serif" font-size="10.00" fill="#000000">RCPP_MODULE</text>
</a>
</g>
</g>
<!-- Node3&#45;&gt;Node4 -->
<g id="edge2" class="edge">
<title>Node3&#45;&gt;Node4</title>
<path fill="none" stroke="#191970" d="M161.2339,-90.6353C177.9792,-100.4388 200.9438,-113.28 222,-123 229.3142,-126.3764 237.4133,-129.6285 244.9445,-132.4588"/>
<polygon fill="#191970" stroke="#191970" points="163.0112,-87.6201 152.6224,-85.5406 159.4469,-93.6447 163.0112,-87.6201"/>
</g>
<!-- Node5 -->
<g id="node4" class="node">
<title>Node5</title>
<g id="a_node4"><a xlink:href="classSimulator.html#a4734ed6f01bdac62f74ebd20dd761f2b" target="_top" xlink:title="Simulator::simulate\l_multi">
<polygon fill="none" stroke="#000000" points="222,-83 222,-113 323,-113 323,-83 222,-83"/>
<text text-anchor="start" x="230" y="-101" font-family="Helvetica,sans-Serif" font-size="10.00" fill="#000000">Simulator::simulate</text>
<text text-anchor="middle" x="272.5" y="-90" font-family="Helvetica,sans-Serif" font-size="10.00" fill="#000000">_multi</text>
</a>
</g>
</g>
<!-- Node3&#45;&gt;Node5 -->
<g id="edge3" class="edge">
<title>Node3&#45;&gt;Node5</title>
<path fill="none" stroke="#191970" d="M196.4331,-85.6497C204.8384,-87.0144 213.4172,-88.4072 221.6412,-89.7425"/>
<polygon fill="#191970" stroke="#191970" points="196.7336,-82.1527 186.3019,-84.0047 195.6117,-89.0622 196.7336,-82.1527"/>
</g>
<!-- Node8 -->
<g id="node7" class="node">
<title>Node8</title>
<g id="a_node7"><a xlink:href="classSimulator.html#a636e7a83b462c3e48769a85ae350e742" target="_top" xlink:title="Simulator::simulate\l_multi_2d">
<polygon fill="none" stroke="#000000" points="363,-39 363,-69 464,-69 464,-39 363,-39"/>
<text text-anchor="start" x="371" y="-57" font-family="Helvetica,sans-Serif" font-size="10.00" fill="#000000">Simulator::simulate</text>
<text text-anchor="middle" x="413.5" y="-46" font-family="Helvetica,sans-Serif" font-size="10.00" fill="#000000">_multi_2d</text>
</a>
</g>
</g>
<!-- Node3&#45;&gt;Node8 -->
<g id="edge6" class="edge">
<title>Node3&#45;&gt;Node8</title>
<path fill="none" stroke="#191970" d="M196.3785,-71.2755C246.0029,-67.3271 316.0003,-61.7577 362.9747,-58.0201"/>
<polygon fill="#191970" stroke="#191970" points="195.8049,-67.81 186.114,-72.0922 196.3602,-74.7879 195.8049,-67.81"/>
</g>
<!-- Node9 -->
<g id="node8" class="node">
<title>Node9</title>
<g id="a_node8"><a xlink:href="classSimulator.html#a16eef6e60e97dabc2a1205b58b10182c" target="_top" xlink:title="Simulator::simulate_r">
<polygon fill="none" stroke="#000000" points="359,-.5 359,-19.5 468,-19.5 468,-.5 359,-.5"/>
<text text-anchor="middle" x="413.5" y="-7.5" font-family="Helvetica,sans-Serif" font-size="10.00" fill="#000000">Simulator::simulate_r</text>
</a>
</g>
</g>
<!-- Node3&#45;&gt;Node9 -->
<g id="edge8" class="edge">
<title>Node3&#45;&gt;Node9</title>
<path fill="none" stroke="#191970" d="M186.859,-64.0988C240.3653,-51.3269 324.2926,-31.2936 373.6019,-19.5236"/>
<polygon fill="#191970" stroke="#191970" points="185.8243,-60.7473 176.9102,-66.4735 187.4496,-67.5561 185.8243,-60.7473"/>
</g>
<!-- Node6 -->
<g id="node5" class="node">
<title>Node6</title>
<g id="a_node5"><a xlink:href="classSimulator.html#adb6faf4ee69f21998ce7dc79c065a3e9" target="_top" xlink:title="Simulator::simulate\l_multi_r">
<polygon fill="none" stroke="#000000" points="363,-88 363,-118 464,-118 464,-88 363,-88"/>
<text text-anchor="start" x="371" y="-106" font-family="Helvetica,sans-Serif" font-size="10.00" fill="#000000">Simulator::simulate</text>
<text text-anchor="middle" x="413.5" y="-95" font-family="Helvetica,sans-Serif" font-size="10.00" fill="#000000">_multi_r</text>
</a>
</g>
</g>
<!-- Node5&#45;&gt;Node6 -->
<g id="edge4" class="edge">
<title>Node5&#45;&gt;Node6</title>
<path fill="none" stroke="#191970" d="M333.1916,-100.1522C343.0892,-100.5032 353.2499,-100.8635 362.8727,-101.2047"/>
<polygon fill="#191970" stroke="#191970" points="333.1238,-96.6477 323.006,-99.791 332.8756,-103.6433 333.1238,-96.6477"/>
</g>
<!-- Node7 -->
<g id="node6" class="node">
<title>Node7</title>
<g id="a_node6"><a xlink:href="fish__glue_8cpp.html#addebb0997b0e49067d8784c9954b7b96" target="_top" xlink:title="RCPP_MODULE">
<polygon fill="none" stroke="#000000" points="504,-44.5 504,-63.5 597,-63.5 597,-44.5 504,-44.5"/>
<text text-anchor="middle" x="550.5" y="-51.5" font-family="Helvetica,sans-Serif" font-size="10.00" fill="#000000">RCPP_MODULE</text>
</a>
</g>
</g>
<!-- Node6&#45;&gt;Node7 -->
<g id="edge5" class="edge">
<title>Node6&#45;&gt;Node7</title>
<path fill="none" stroke="#191970" d="M465.3007,-84.4728C485.2049,-77.3537 507.1124,-69.5182 523.728,-63.5754"/>
<polygon fill="#191970" stroke="#191970" points="463.9595,-81.2352 455.7224,-87.8986 466.317,-87.8263 463.9595,-81.2352"/>
</g>
<!-- Node8&#45;&gt;Node7 -->
<g id="edge7" class="edge">
<title>Node8&#45;&gt;Node7</title>
<path fill="none" stroke="#191970" d="M474.2947,-54C484.1625,-54 494.2464,-54 503.7131,-54"/>
<polygon fill="#191970" stroke="#191970" points="474.1245,-50.5001 464.1245,-54 474.1245,-57.5001 474.1245,-50.5001"/>
</g>
<!-- Node9&#45;&gt;Node7 -->
<g id="edge9" class="edge">
<title>Node9&#45;&gt;Node7</title>
<path fill="none" stroke="#191970" d="M452.8015,-22.6224C474.4627,-29.5793 500.9162,-38.0753 520.8311,-44.4713"/>
<polygon fill="#191970" stroke="#191970" points="453.8182,-19.2729 443.227,-19.5473 451.6777,-25.9376 453.8182,-19.2729"/>
</g>
</g>
</svg>
