<?xml version="1.0" encoding="UTF-8" standalone="no"?>
<!DOCTYPE svg PUBLIC "-//W3C//DTD SVG 1.1//EN"
 "http://www.w3.org/Graphics/SVG/1.1/DTD/svg11.dtd">
<!-- Generated by graphviz version 2.40.1 (20161225.0304)
 -->
<!-- Title: fish::dl_power Pages: 1 -->
<svg width="818pt" height="240pt"
 viewBox="0.00 0.00 818.00 239.56" xmlns="http://www.w3.org/2000/svg" xmlns:xlink="http://www.w3.org/1999/xlink">
<g id="graph0" class="graph" transform="scale(1 1) rotate(0) translate(4 235.5569)">
<title>fish::dl_power</title>
<!-- Node1 -->
<g id="node1" class="node">
<title>Node1</title>
<polygon fill="#bfbfbf" stroke="#000000" points="0,-145 0,-164 77,-164 77,-145 0,-145"/>
<text text-anchor="middle" x="38.5" y="-152" font-family="Helvetica,sans-Serif" font-size="10.00" fill="#000000">fish::dl_power</text>
</g>
<!-- Node2 -->
<g id="node2" class="node">
<title>Node2</title>
<g id="a_node2"><a xlink:href="classFish.html#adf85bf269f1651352506e371ffd2cecc" target="_top" xlink:title="Initializes the fish, i.e., initializes parameters and sets the initial state (age = 1...">
<polygon fill="none" stroke="#000000" points="117,-126 117,-145 171,-145 171,-126 117,-126"/>
<text text-anchor="middle" x="144" y="-133" font-family="Helvetica,sans-Serif" font-size="10.00" fill="#000000">Fish::init</text>
</a>
</g>
</g>
<!-- Node1&#45;&gt;Node2 -->
<g id="edge1" class="edge">
<title>Node1&#45;&gt;Node2</title>
<path fill="none" stroke="#191970" d="M87.245,-145.7213C97.4282,-143.8873 107.8116,-142.0174 116.8654,-140.3868"/>
<polygon fill="#191970" stroke="#191970" points="86.4065,-142.3159 77.1852,-147.533 87.6473,-149.2051 86.4065,-142.3159"/>
</g>
<!-- Node15 -->
<g id="node15" class="node">
<title>Node15</title>
<g id="a_node15"><a xlink:href="classFish.html#abe4b5c9e5d1f6d3c56cc6be997db71cd" target="_top" xlink:title="Implement growth, i.e., set new length and effective GSI after 1 year of growth. ">
<polygon fill="none" stroke="#000000" points="113,-164 113,-183 175,-183 175,-164 113,-164"/>
<text text-anchor="middle" x="144" y="-171" font-family="Helvetica,sans-Serif" font-size="10.00" fill="#000000">Fish::grow</text>
</a>
</g>
</g>
<!-- Node1&#45;&gt;Node15 -->
<g id="edge23" class="edge">
<title>Node1&#45;&gt;Node15</title>
<path fill="none" stroke="#191970" d="M87.2905,-163.2869C96.0043,-164.8562 104.863,-166.4516 112.9082,-167.9005"/>
<polygon fill="#191970" stroke="#191970" points="87.6473,-159.7949 77.1852,-161.467 86.4065,-166.6841 87.6473,-159.7949"/>
</g>
<!-- Node3 -->
<g id="node3" class="node">
<title>Node3</title>
<g id="a_node3"><a xlink:href="fish__glue_8cpp.html#a7b6a9b6d94c71377c935b2cfbffdfabc" target="_top" xlink:title="RCPP_MODULE">
<polygon fill="none" stroke="#000000" points="213.5,-164 213.5,-183 306.5,-183 306.5,-164 213.5,-164"/>
<text text-anchor="middle" x="260" y="-171" font-family="Helvetica,sans-Serif" font-size="10.00" fill="#000000">RCPP_MODULE</text>
</a>
</g>
</g>
<!-- Node2&#45;&gt;Node3 -->
<g id="edge2" class="edge">
<title>Node2&#45;&gt;Node3</title>
<path fill="none" stroke="#191970" d="M180.8874,-147.5838C197.0651,-152.8834 215.7806,-159.0143 230.9458,-163.9822"/>
<polygon fill="#191970" stroke="#191970" points="181.7895,-144.1964 171.1968,-144.4093 179.6103,-150.8485 181.7895,-144.1964"/>
</g>
<!-- Node4 -->
<g id="node4" class="node">
<title>Node4</title>
<g id="a_node4"><a xlink:href="classPopulation.html#a012ef586a78b4e7c2082634b316072d0" target="_top" xlink:title="Population::init">
<polygon fill="none" stroke="#000000" points="219.5,-126 219.5,-145 300.5,-145 300.5,-126 219.5,-126"/>
<text text-anchor="middle" x="260" y="-133" font-family="Helvetica,sans-Serif" font-size="10.00" fill="#000000">Population::init</text>
</a>
</g>
</g>
<!-- Node2&#45;&gt;Node4 -->
<g id="edge3" class="edge">
<title>Node2&#45;&gt;Node4</title>
<path fill="none" stroke="#191970" d="M181.4179,-135.5C193.5236,-135.5 207.0039,-135.5 219.3334,-135.5"/>
<polygon fill="#191970" stroke="#191970" points="181.1969,-132.0001 171.1968,-135.5 181.1968,-139.0001 181.1969,-132.0001"/>
</g>
<!-- Node14 -->
<g id="node14" class="node">
<title>Node14</title>
<g id="a_node14"><a xlink:href="classPopulation.html#a81c19d1c80cfb1d54d3872ecdefd0872" target="_top" xlink:title="Population::update">
<polygon fill="none" stroke="#000000" points="211,-88 211,-107 309,-107 309,-88 211,-88"/>
<text text-anchor="middle" x="260" y="-95" font-family="Helvetica,sans-Serif" font-size="10.00" fill="#000000">Population::update</text>
</a>
</g>
</g>
<!-- Node2&#45;&gt;Node14 -->
<g id="edge17" class="edge">
<title>Node2&#45;&gt;Node14</title>
<path fill="none" stroke="#191970" d="M180.8874,-123.4162C197.0651,-118.1166 215.7806,-111.9857 230.9458,-107.0178"/>
<polygon fill="#191970" stroke="#191970" points="179.6103,-120.1515 171.1968,-126.5907 181.7895,-126.8036 179.6103,-120.1515"/>
</g>
<!-- Node5 -->
<g id="node5" class="node">
<title>Node5</title>
<g id="a_node5"><a xlink:href="fish__glue_8cpp.html#ab96ae82277aa9004dc603b77512c7265" target="_top" xlink:title="RCPP_MODULE">
<polygon fill="none" stroke="#000000" points="563.5,-50 563.5,-69 656.5,-69 656.5,-50 563.5,-50"/>
<text text-anchor="middle" x="610" y="-57" font-family="Helvetica,sans-Serif" font-size="10.00" fill="#000000">RCPP_MODULE</text>
</a>
</g>
</g>
<!-- Node4&#45;&gt;Node5 -->
<g id="edge4" class="edge">
<title>Node4&#45;&gt;Node5</title>
<path fill="none" stroke="#191970" d="M301.6008,-149.6237C304.1973,-151.1093 306.691,-152.7318 309,-154.5 330.4551,-170.9302 320.8893,-191.2956 345,-203.5 407.653,-235.2139 446.8936,-245.7283 503,-203.5 549.1922,-168.7336 497.7344,-118.9916 539,-78.5 545.6487,-71.976 554.2788,-67.6278 563.2198,-64.7449"/>
<polygon fill="#191970" stroke="#191970" points="303.0066,-146.4138 292.4951,-145.0873 299.8851,-152.6793 303.0066,-146.4138"/>
</g>
<!-- Node6 -->
<g id="node6" class="node">
<title>Node6</title>
<g id="a_node6"><a xlink:href="classPopulation.html#aa7eba257f23cbc12aa3673ce012fb2cb" target="_top" xlink:title="Population::noFishingEquilibriate">
<polygon fill="none" stroke="#000000" points="345,-88 345,-107 503,-107 503,-88 345,-88"/>
<text text-anchor="middle" x="424" y="-95" font-family="Helvetica,sans-Serif" font-size="10.00" fill="#000000">Population::noFishingEquilibriate</text>
</a>
</g>
</g>
<!-- Node4&#45;&gt;Node6 -->
<g id="edge5" class="edge">
<title>Node4&#45;&gt;Node6</title>
<path fill="none" stroke="#191970" d="M310.5426,-123.7889C333.7272,-118.4169 360.8665,-112.1285 382.7879,-107.0491"/>
<polygon fill="#191970" stroke="#191970" points="309.4912,-120.4397 300.5393,-126.1067 311.0713,-127.2591 309.4912,-120.4397"/>
</g>
<!-- Node9 -->
<g id="node9" class="node">
<title>Node9</title>
<g id="a_node9"><a xlink:href="classSimulator.html#a7540919b97662be7deacba9194c0ed60" target="_top" xlink:title="Simulator::simulate\l_multi">
<polygon fill="none" stroke="#000000" points="373.5,-.5 373.5,-30.5 474.5,-30.5 474.5,-.5 373.5,-.5"/>
<text text-anchor="start" x="381.5" y="-18.5" font-family="Helvetica,sans-Serif" font-size="10.00" fill="#000000">Simulator::simulate</text>
<text text-anchor="middle" x="424" y="-7.5" font-family="Helvetica,sans-Serif" font-size="10.00" fill="#000000">_multi</text>
</a>
</g>
</g>
<!-- Node4&#45;&gt;Node9 -->
<g id="edge9" class="edge">
<title>Node4&#45;&gt;Node9</title>
<path fill="none" stroke="#191970" d="M300.1972,-121.6422C303.2622,-120.0691 306.2349,-118.3561 309,-116.5 328.3163,-103.5341 327.864,-94.2351 345,-78.5 363.9943,-61.0585 387.2233,-42.8746 403.5607,-30.5519"/>
<polygon fill="#191970" stroke="#191970" points="298.4644,-118.5866 290.8413,-125.9445 301.389,-124.9464 298.4644,-118.5866"/>
</g>
<!-- Node11 -->
<g id="node11" class="node">
<title>Node11</title>
<g id="a_node11"><a xlink:href="classSimulator.html#ab21d1c6b0af00931f9a8fa5e0b6d417f" target="_top" xlink:title="Simulator::simulate\l_multi_2d">
<polygon fill="none" stroke="#000000" points="373.5,-164.5 373.5,-194.5 474.5,-194.5 474.5,-164.5 373.5,-164.5"/>
<text text-anchor="start" x="381.5" y="-182.5" font-family="Helvetica,sans-Serif" font-size="10.00" fill="#000000">Simulator::simulate</text>
<text text-anchor="middle" x="424" y="-171.5" font-family="Helvetica,sans-Serif" font-size="10.00" fill="#000000">_multi_2d</text>
</a>
</g>
</g>
<!-- Node4&#45;&gt;Node11 -->
<g id="edge12" class="edge">
<title>Node4&#45;&gt;Node11</title>
<path fill="none" stroke="#191970" d="M305.2647,-147.6442C326.3466,-153.3003 351.512,-160.052 373.2378,-165.8809"/>
<polygon fill="#191970" stroke="#191970" points="306.151,-144.2583 295.5856,-145.0473 304.337,-151.0192 306.151,-144.2583"/>
</g>
<!-- Node13 -->
<g id="node13" class="node">
<title>Node13</title>
<g id="a_node13"><a xlink:href="classSimulator.html#aa6e6cfd73fd8d3200e7f515b473e88f2" target="_top" xlink:title="Simulator::simulate_r">
<polygon fill="none" stroke="#000000" points="369.5,-126 369.5,-145 478.5,-145 478.5,-126 369.5,-126"/>
<text text-anchor="middle" x="424" y="-133" font-family="Helvetica,sans-Serif" font-size="10.00" fill="#000000">Simulator::simulate_r</text>
</a>
</g>
</g>
<!-- Node4&#45;&gt;Node13 -->
<g id="edge15" class="edge">
<title>Node4&#45;&gt;Node13</title>
<path fill="none" stroke="#191970" d="M310.5993,-135.5C329.2335,-135.5 350.416,-135.5 369.3886,-135.5"/>
<polygon fill="#191970" stroke="#191970" points="310.5394,-132.0001 300.5393,-135.5 310.5393,-139.0001 310.5394,-132.0001"/>
</g>
<!-- Node6&#45;&gt;Node5 -->
<g id="edge6" class="edge">
<title>Node6&#45;&gt;Node5</title>
<path fill="none" stroke="#191970" d="M480.8255,-85.8905C507.279,-80.486 538.3583,-74.1365 563.4019,-69.0201"/>
<polygon fill="#191970" stroke="#191970" points="480.0327,-82.4801 470.9357,-87.911 481.4339,-89.3384 480.0327,-82.4801"/>
</g>
<!-- Node7 -->
<g id="node7" class="node">
<title>Node7</title>
<g id="a_node7"><a xlink:href="classSimulator.html#a3dfce52c0bb26ec7ff2632b1eca50240" target="_top" xlink:title="Simulator::equilibriateNatural\lPopulation">
<polygon fill="none" stroke="#000000" points="539,-88.5 539,-118.5 681,-118.5 681,-88.5 539,-88.5"/>
<text text-anchor="start" x="547" y="-106.5" font-family="Helvetica,sans-Serif" font-size="10.00" fill="#000000">Simulator::equilibriateNatural</text>
<text text-anchor="middle" x="610" y="-95.5" font-family="Helvetica,sans-Serif" font-size="10.00" fill="#000000">Population</text>
</a>
</g>
</g>
<!-- Node6&#45;&gt;Node7 -->
<g id="edge7" class="edge">
<title>Node6&#45;&gt;Node7</title>
<path fill="none" stroke="#191970" d="M513.2169,-100.378C521.8241,-100.6556 530.4746,-100.9347 538.8728,-101.2056"/>
<polygon fill="#191970" stroke="#191970" points="513.2581,-96.8776 503.1504,-100.0532 513.0324,-103.8739 513.2581,-96.8776"/>
</g>
<!-- Node8 -->
<g id="node8" class="node">
<title>Node8</title>
<g id="a_node8"><a xlink:href="fish__glue_8cpp.html#addebb0997b0e49067d8784c9954b7b96" target="_top" xlink:title="RCPP_MODULE">
<polygon fill="none" stroke="#000000" points="717,-116 717,-135 810,-135 810,-116 717,-116"/>
<text text-anchor="middle" x="763.5" y="-123" font-family="Helvetica,sans-Serif" font-size="10.00" fill="#000000">RCPP_MODULE</text>
</a>
</g>
</g>
<!-- Node7&#45;&gt;Node8 -->
<g id="edge8" class="edge">
<title>Node7&#45;&gt;Node8</title>
<path fill="none" stroke="#191970" d="M691.2635,-115.1469C700.0294,-116.4032 708.7166,-117.6483 716.8654,-118.8162"/>
<polygon fill="#191970" stroke="#191970" points="691.7529,-111.6813 681.3575,-113.7271 690.7597,-118.6105 691.7529,-111.6813"/>
</g>
<!-- Node10 -->
<g id="node10" class="node">
<title>Node10</title>
<g id="a_node10"><a xlink:href="classSimulator.html#a1a5454ee4736819d709398b225d7876d" target="_top" xlink:title="Simulator::simulate\l_multi_r">
<polygon fill="none" stroke="#000000" points="559.5,-.5 559.5,-30.5 660.5,-30.5 660.5,-.5 559.5,-.5"/>
<text text-anchor="start" x="567.5" y="-18.5" font-family="Helvetica,sans-Serif" font-size="10.00" fill="#000000">Simulator::simulate</text>
<text text-anchor="middle" x="610" y="-7.5" font-family="Helvetica,sans-Serif" font-size="10.00" fill="#000000">_multi_r</text>
</a>
</g>
</g>
<!-- Node9&#45;&gt;Node10 -->
<g id="edge10" class="edge">
<title>Node9&#45;&gt;Node10</title>
<path fill="none" stroke="#191970" d="M484.9114,-15.5C508.9637,-15.5 536.2797,-15.5 559.2361,-15.5"/>
<polygon fill="#191970" stroke="#191970" points="484.8254,-12.0001 474.8253,-15.5 484.8253,-19.0001 484.8254,-12.0001"/>
</g>
<!-- Node10&#45;&gt;Node8 -->
<g id="edge11" class="edge">
<title>Node10&#45;&gt;Node8</title>
<path fill="none" stroke="#191970" d="M669.8371,-34.2359C673.7126,-36.1556 677.4712,-38.2409 681,-40.5 714.0808,-61.6776 743.723,-98.57 756.6429,-115.9391"/>
<polygon fill="#191970" stroke="#191970" points="671.1873,-31.005 660.6353,-30.0533 668.2907,-37.3776 671.1873,-31.005"/>
</g>
<!-- Node12 -->
<g id="node12" class="node">
<title>Node12</title>
<g id="a_node12"><a xlink:href="classSimulator.html#af1b0a9562ecf0ad8f98d61576efba28b" target="_top" xlink:title="Simulator::simulate\l_multi_2d_r">
<polygon fill="none" stroke="#000000" points="559.5,-176.5 559.5,-206.5 660.5,-206.5 660.5,-176.5 559.5,-176.5"/>
<text text-anchor="start" x="567.5" y="-194.5" font-family="Helvetica,sans-Serif" font-size="10.00" fill="#000000">Simulator::simulate</text>
<text text-anchor="middle" x="610" y="-183.5" font-family="Helvetica,sans-Serif" font-size="10.00" fill="#000000">_multi_2d_r</text>
</a>
</g>
</g>
<!-- Node11&#45;&gt;Node12 -->
<g id="edge13" class="edge">
<title>Node11&#45;&gt;Node12</title>
<path fill="none" stroke="#191970" d="M484.9114,-183.4298C508.9637,-184.9815 536.2797,-186.7438 559.2361,-188.2249"/>
<polygon fill="#191970" stroke="#191970" points="485.0299,-179.9302 474.8253,-182.7791 484.5792,-186.9157 485.0299,-179.9302"/>
</g>
<!-- Node12&#45;&gt;Node8 -->
<g id="edge14" class="edge">
<title>Node12&#45;&gt;Node8</title>
<path fill="none" stroke="#191970" d="M655.2683,-172.4657C663.8229,-168.8423 672.6917,-165.0678 681,-161.5 701.6772,-152.6206 725.1961,-142.3399 741.8173,-135.0438"/>
<polygon fill="#191970" stroke="#191970" points="653.6374,-169.3552 645.79,-176.4734 656.3635,-175.8026 653.6374,-169.3552"/>
</g>
<!-- Node13&#45;&gt;Node8 -->
<g id="edge16" class="edge">
<title>Node13&#45;&gt;Node8</title>
<path fill="none" stroke="#191970" d="M488.9261,-133.5876C555.5682,-131.6246 657.6304,-128.6184 716.7394,-126.8773"/>
<polygon fill="#191970" stroke="#191970" points="488.4391,-130.1003 478.5465,-133.8933 488.6453,-137.0973 488.4391,-130.1003"/>
</g>
<!-- Node14&#45;&gt;Node5 -->
<g id="edge18" class="edge">
<title>Node14&#45;&gt;Node5</title>
<path fill="none" stroke="#191970" d="M307.0597,-85.6753C319.3421,-82.9488 332.6106,-80.3186 345,-78.5 420.984,-67.3466 510.2265,-62.6642 563.3393,-60.7534"/>
<polygon fill="#191970" stroke="#191970" points="305.9834,-82.331 297.0154,-87.9725 307.5441,-89.1548 305.9834,-82.331"/>
</g>
<!-- Node14&#45;&gt;Node6 -->
<g id="edge19" class="edge">
<title>Node14&#45;&gt;Node6</title>
<path fill="none" stroke="#191970" d="M319.4369,-97.5C327.6755,-97.5 336.2435,-97.5 344.7716,-97.5"/>
<polygon fill="#191970" stroke="#191970" points="319.2054,-94.0001 309.2054,-97.5 319.2054,-101.0001 319.2054,-94.0001"/>
</g>
<!-- Node14&#45;&gt;Node9 -->
<g id="edge20" class="edge">
<title>Node14&#45;&gt;Node9</title>
<path fill="none" stroke="#191970" d="M282.5229,-82.1253C299.2879,-71.081 322.9835,-56.2979 345,-45.5 356.0645,-40.0735 368.3735,-34.9781 379.9191,-30.5809"/>
<polygon fill="#191970" stroke="#191970" points="280.3525,-79.3658 273.9766,-87.8274 284.2376,-85.1887 280.3525,-79.3658"/>
</g>
<!-- Node14&#45;&gt;Node11 -->
<g id="edge21" class="edge">
<title>Node14&#45;&gt;Node11</title>
<path fill="none" stroke="#191970" d="M300.1972,-111.3578C303.2622,-112.9309 306.2349,-114.6439 309,-116.5 328.3163,-129.4659 325.2823,-142.1531 345,-154.5 353.6567,-159.9207 363.5882,-164.2576 373.4217,-167.6949"/>
<polygon fill="#191970" stroke="#191970" points="301.389,-108.0536 290.8413,-107.0555 298.4644,-114.4134 301.389,-108.0536"/>
</g>
<!-- Node14&#45;&gt;Node13 -->
<g id="edge22" class="edge">
<title>Node14&#45;&gt;Node13</title>
<path fill="none" stroke="#191970" d="M311.341,-109.3961C334.3929,-114.7374 361.2211,-120.9537 382.9135,-125.9799"/>
<polygon fill="#191970" stroke="#191970" points="311.9161,-105.9367 301.3841,-107.089 310.336,-112.756 311.9161,-105.9367"/>
</g>
<!-- Node15&#45;&gt;Node3 -->
<g id="edge24" class="edge">
<title>Node15&#45;&gt;Node3</title>
<path fill="none" stroke="#191970" d="M185.3241,-173.5C194.3242,-173.5 203.9099,-173.5 213.1083,-173.5"/>
<polygon fill="#191970" stroke="#191970" points="185.0859,-170.0001 175.0859,-173.5 185.0858,-177.0001 185.0859,-170.0001"/>
</g>
</g>
</svg>
