<?xml version="1.0" encoding="UTF-8" standalone="no"?>
<!DOCTYPE svg PUBLIC "-//W3C//DTD SVG 1.1//EN"
 "http://www.w3.org/Graphics/SVG/1.1/DTD/svg11.dtd">
<!-- Generated by graphviz version 2.40.1 (20161225.0304)
 -->
<!-- Title: runif Pages: 1 -->
<svg width="300pt" height="66pt"
 viewBox="0.00 0.00 300.00 66.00" xmlns="http://www.w3.org/2000/svg" xmlns:xlink="http://www.w3.org/1999/xlink">
<g id="graph0" class="graph" transform="scale(1 1) rotate(0) translate(4 62)">
<title>runif</title>
<!-- Node4 -->
<g id="node1" class="node">
<title>Node4</title>
<polygon fill="#bfbfbf" stroke="#000000" points="0,-19.5 0,-38.5 35,-38.5 35,-19.5 0,-19.5"/>
<text text-anchor="middle" x="17.5" y="-26.5" font-family="Helvetica,sans-Serif" font-size="10.00" fill="#000000">runif</text>
</g>
<!-- Node5 -->
<g id="node2" class="node">
<title>Node5</title>
<g id="a_node2"><a xlink:href="classFish.html#acf6d815ee242fd3b3ee2412dbe11a2ed" target="_top" xlink:title="Fish::matureNow">
<polygon fill="none" stroke="#000000" points="71,-38.5 71,-57.5 163,-57.5 163,-38.5 71,-38.5"/>
<text text-anchor="middle" x="117" y="-45.5" font-family="Helvetica,sans-Serif" font-size="10.00" fill="#000000">Fish::matureNow</text>
</a>
</g>
</g>
<!-- Node4&#45;&gt;Node5 -->
<g id="edge1" class="edge">
<title>Node4&#45;&gt;Node5</title>
<path fill="none" stroke="#191970" d="M45.1149,-34.2732C53.076,-35.7934 61.987,-37.495 70.7523,-39.1688"/>
<polygon fill="#191970" stroke="#191970" points="45.7676,-30.8347 35.2886,-32.3968 44.4546,-37.7104 45.7676,-30.8347"/>
</g>
<!-- Node7 -->
<g id="node4" class="node">
<title>Node7</title>
<g id="a_node4"><a xlink:href="population_8cpp.html#a61a9d6b6e4939c3d945009e0406dc44f" target="_top" xlink:title="rnorm">
<polygon fill="none" stroke="#000000" points="96.5,-.5 96.5,-19.5 137.5,-19.5 137.5,-.5 96.5,-.5"/>
<text text-anchor="middle" x="117" y="-7.5" font-family="Helvetica,sans-Serif" font-size="10.00" fill="#000000">rnorm</text>
</a>
</g>
</g>
<!-- Node4&#45;&gt;Node7 -->
<g id="edge3" class="edge">
<title>Node4&#45;&gt;Node7</title>
<path fill="none" stroke="#191970" d="M45.2598,-23.6991C61.4294,-20.6115 81.4789,-16.7829 96.2683,-13.9588"/>
<polygon fill="#191970" stroke="#191970" points="44.4546,-20.2896 35.2886,-25.6032 45.7676,-27.1653 44.4546,-20.2896"/>
</g>
<!-- Node6 -->
<g id="node3" class="node">
<title>Node6</title>
<g id="a_node3"><a xlink:href="fish__glue_8cpp.html#a7b6a9b6d94c71377c935b2cfbffdfabc" target="_top" xlink:title="RCPP_MODULE">
<polygon fill="none" stroke="#000000" points="199,-38.5 199,-57.5 292,-57.5 292,-38.5 199,-38.5"/>
<text text-anchor="middle" x="245.5" y="-45.5" font-family="Helvetica,sans-Serif" font-size="10.00" fill="#000000">RCPP_MODULE</text>
</a>
</g>
</g>
<!-- Node5&#45;&gt;Node6 -->
<g id="edge2" class="edge">
<title>Node5&#45;&gt;Node6</title>
<path fill="none" stroke="#191970" d="M173.0411,-48C181.6818,-48 190.5239,-48 198.9283,-48"/>
<polygon fill="#191970" stroke="#191970" points="173.0285,-44.5001 163.0285,-48 173.0285,-51.5001 173.0285,-44.5001"/>
</g>
</g>
</svg>
