<?xml version="1.0" encoding="UTF-8" standalone="no"?>
<!DOCTYPE svg PUBLIC "-//W3C//DTD SVG 1.1//EN"
 "http://www.w3.org/Graphics/SVG/1.1/DTD/svg11.dtd">
<!-- Generated by graphviz version 2.40.1 (20161225.0304)
 -->
<!-- Title: inst/include/population.h Pages: 1 -->
<svg width="388pt" height="140pt"
 viewBox="0.00 0.00 388.00 140.00" xmlns="http://www.w3.org/2000/svg" xmlns:xlink="http://www.w3.org/1999/xlink">
<g id="graph0" class="graph" transform="scale(1 1) rotate(0) translate(4 136)">
<title>inst/include/population.h</title>
<!-- Node8 -->
<g id="node1" class="node">
<title>Node8</title>
<polygon fill="#bfbfbf" stroke="#000000" points="76.5,-112.5 76.5,-131.5 198.5,-131.5 198.5,-112.5 76.5,-112.5"/>
<text text-anchor="middle" x="137.5" y="-119.5" font-family="Helvetica,sans-Serif" font-size="10.00" fill="#000000">inst/include/population.h</text>
</g>
<!-- Node9 -->
<g id="node2" class="node">
<title>Node9</title>
<g id="a_node2"><a xlink:href="fish__glue_8cpp.html" target="_top" xlink:title="src/fish_glue.cpp">
<polygon fill="none" stroke="#000000" points="0,-.5 0,-19.5 91,-19.5 91,-.5 0,-.5"/>
<text text-anchor="middle" x="45.5" y="-7.5" font-family="Helvetica,sans-Serif" font-size="10.00" fill="#000000">src/fish_glue.cpp</text>
</a>
</g>
</g>
<!-- Node8&#45;&gt;Node9 -->
<g id="edge1" class="edge">
<title>Node8&#45;&gt;Node9</title>
<path fill="none" stroke="#191970" d="M90.1217,-109.6218C60.7821,-100.8909 27.108,-88.5562 18.5,-76 6.0397,-57.8245 23.9604,-33.016 36.0376,-19.5856"/>
<polygon fill="#191970" stroke="#191970" points="89.2842,-113.023 99.8629,-112.4397 91.2294,-106.2987 89.2842,-113.023"/>
</g>
<!-- Node10 -->
<g id="node3" class="node">
<title>Node10</title>
<g id="a_node3"><a xlink:href="population_8cpp.html" target="_top" xlink:title="src/population.cpp">
<polygon fill="none" stroke="#000000" points="27.5,-56.5 27.5,-75.5 123.5,-75.5 123.5,-56.5 27.5,-56.5"/>
<text text-anchor="middle" x="75.5" y="-63.5" font-family="Helvetica,sans-Serif" font-size="10.00" fill="#000000">src/population.cpp</text>
</a>
</g>
</g>
<!-- Node8&#45;&gt;Node10 -->
<g id="edge2" class="edge">
<title>Node8&#45;&gt;Node10</title>
<path fill="none" stroke="#191970" d="M119.0779,-105.3607C108.3519,-95.6727 95.2066,-83.7995 86.1758,-75.6427"/>
<polygon fill="#191970" stroke="#191970" points="116.9334,-108.14 126.7004,-112.2455 121.6254,-102.9453 116.9334,-108.14"/>
</g>
<!-- Node11 -->
<g id="node4" class="node">
<title>Node11</title>
<g id="a_node4"><a xlink:href="rfish_8h.html" target="_top" xlink:title="inst/include/rfish.h">
<polygon fill="none" stroke="#000000" points="277.5,-56.5 277.5,-75.5 373.5,-75.5 373.5,-56.5 277.5,-56.5"/>
<text text-anchor="middle" x="325.5" y="-63.5" font-family="Helvetica,sans-Serif" font-size="10.00" fill="#000000">inst/include/rfish.h</text>
</a>
</g>
</g>
<!-- Node8&#45;&gt;Node11 -->
<g id="edge3" class="edge">
<title>Node8&#45;&gt;Node11</title>
<path fill="none" stroke="#191970" d="M179.6117,-109.4561C214.1218,-99.1765 262.2199,-84.8494 293.6034,-75.5011"/>
<polygon fill="#191970" stroke="#191970" points="178.403,-106.1641 169.8184,-112.3733 180.4014,-112.8728 178.403,-106.1641"/>
</g>
<!-- Node13 -->
<g id="node6" class="node">
<title>Node13</title>
<g id="a_node6"><a xlink:href="simulator_8h.html" target="_top" xlink:title="inst/include/simulator.h">
<polygon fill="none" stroke="#000000" points="142,-56.5 142,-75.5 259,-75.5 259,-56.5 142,-56.5"/>
<text text-anchor="middle" x="200.5" y="-63.5" font-family="Helvetica,sans-Serif" font-size="10.00" fill="#000000">inst/include/simulator.h</text>
</a>
</g>
</g>
<!-- Node8&#45;&gt;Node13 -->
<g id="edge5" class="edge">
<title>Node8&#45;&gt;Node13</title>
<path fill="none" stroke="#191970" d="M156.2192,-105.3607C167.1182,-95.6727 180.4755,-83.7995 189.652,-75.6427"/>
<polygon fill="#191970" stroke="#191970" points="153.6226,-102.9859 148.4738,-112.2455 158.2732,-108.2178 153.6226,-102.9859"/>
</g>
<!-- Node12 -->
<g id="node5" class="node">
<title>Node12</title>
<g id="a_node5"><a xlink:href="RcppExports_8cpp.html" target="_top" xlink:title="src/RcppExports.cpp">
<polygon fill="none" stroke="#000000" points="271,-.5 271,-19.5 380,-19.5 380,-.5 271,-.5"/>
<text text-anchor="middle" x="325.5" y="-7.5" font-family="Helvetica,sans-Serif" font-size="10.00" fill="#000000">src/RcppExports.cpp</text>
</a>
</g>
</g>
<!-- Node11&#45;&gt;Node12 -->
<g id="edge4" class="edge">
<title>Node11&#45;&gt;Node12</title>
<path fill="none" stroke="#191970" d="M325.5,-46.1575C325.5,-37.155 325.5,-26.9199 325.5,-19.6427"/>
<polygon fill="#191970" stroke="#191970" points="322.0001,-46.2455 325.5,-56.2455 329.0001,-46.2456 322.0001,-46.2455"/>
</g>
<!-- Node13&#45;&gt;Node9 -->
<g id="edge6" class="edge">
<title>Node13&#45;&gt;Node9</title>
<path fill="none" stroke="#191970" d="M164.3051,-52.9231C135.9703,-42.686 97.2282,-28.6889 71.7978,-19.5011"/>
<polygon fill="#191970" stroke="#191970" points="163.2602,-56.267 173.8546,-56.3733 165.6388,-49.6835 163.2602,-56.267"/>
</g>
<!-- Node14 -->
<g id="node7" class="node">
<title>Node14</title>
<g id="a_node7"><a xlink:href="simulator_8cpp.html" target="_top" xlink:title="src/simulator.cpp">
<polygon fill="none" stroke="#000000" points="154.5,-.5 154.5,-19.5 246.5,-19.5 246.5,-.5 154.5,-.5"/>
<text text-anchor="middle" x="200.5" y="-7.5" font-family="Helvetica,sans-Serif" font-size="10.00" fill="#000000">src/simulator.cpp</text>
</a>
</g>
</g>
<!-- Node13&#45;&gt;Node14 -->
<g id="edge7" class="edge">
<title>Node13&#45;&gt;Node14</title>
<path fill="none" stroke="#191970" d="M200.5,-46.1575C200.5,-37.155 200.5,-26.9199 200.5,-19.6427"/>
<polygon fill="#191970" stroke="#191970" points="197.0001,-46.2455 200.5,-56.2455 204.0001,-46.2456 197.0001,-46.2455"/>
</g>
</g>
</svg>
