<?xml version="1.0" encoding="UTF-8" standalone="no"?>
<!DOCTYPE svg PUBLIC "-//W3C//DTD SVG 1.1//EN"
 "http://www.w3.org/Graphics/SVG/1.1/DTD/svg11.dtd">
<!-- Generated by graphviz version 2.40.1 (20161225.0304)
 -->
<!-- Title: src/population.cpp Pages: 1 -->
<svg width="771pt" height="252pt"
 viewBox="0.00 0.00 771.11 252.00" xmlns="http://www.w3.org/2000/svg" xmlns:xlink="http://www.w3.org/1999/xlink">
<g id="graph0" class="graph" transform="scale(1 1) rotate(0) translate(4 248)">
<title>src/population.cpp</title>
<!-- Node0 -->
<g id="node1" class="node">
<title>Node0</title>
<polygon fill="#bfbfbf" stroke="#000000" points="522,-224.5 522,-243.5 618,-243.5 618,-224.5 522,-224.5"/>
<text text-anchor="middle" x="570" y="-231.5" font-family="Helvetica,sans-Serif" font-size="10.00" fill="#000000">src/population.cpp</text>
</g>
<!-- Node1 -->
<g id="node2" class="node">
<title>Node1</title>
<g id="a_node2"><a xlink:href="population_8h.html" target="_top" xlink:title="population.h">
<polygon fill="none" stroke="#000000" points="299.5,-168.5 299.5,-187.5 368.5,-187.5 368.5,-168.5 299.5,-168.5"/>
<text text-anchor="middle" x="334" y="-175.5" font-family="Helvetica,sans-Serif" font-size="10.00" fill="#000000">population.h</text>
</a>
</g>
</g>
<!-- Node0&#45;&gt;Node1 -->
<g id="edge1" class="edge">
<title>Node0&#45;&gt;Node1</title>
<path fill="none" stroke="#191970" d="M529.6983,-224.4369C487.6837,-214.4673 422.0117,-198.8841 378.4986,-188.559"/>
<polygon fill="#191970" stroke="#191970" points="379.2932,-185.1504 368.7552,-186.247 377.677,-191.9613 379.2932,-185.1504"/>
</g>
<!-- Node8 -->
<g id="node9" class="node">
<title>Node8</title>
<polygon fill="none" stroke="#bfbfbf" points="718,-.5 718,-19.5 762,-19.5 762,-.5 718,-.5"/>
<text text-anchor="middle" x="740" y="-7.5" font-family="Helvetica,sans-Serif" font-size="10.00" fill="#000000">cmath</text>
</g>
<!-- Node0&#45;&gt;Node8 -->
<g id="edge25" class="edge">
<title>Node0&#45;&gt;Node8</title>
<path fill="none" stroke="#191970" d="M618.385,-227.3428C663.3144,-220.0856 725.533,-206.9239 741,-188 778.3963,-142.2454 759.3685,-65.5316 747.3437,-29.6364"/>
<polygon fill="#191970" stroke="#191970" points="750.5324,-28.1541 743.907,-19.8864 743.9305,-30.4812 750.5324,-28.1541"/>
</g>
<!-- Node9 -->
<g id="node10" class="node">
<title>Node9</title>
<polygon fill="none" stroke="#bfbfbf" points="636,-.5 636,-19.5 692,-19.5 692,-.5 636,-.5"/>
<text text-anchor="middle" x="664" y="-7.5" font-family="Helvetica,sans-Serif" font-size="10.00" fill="#000000">algorithm</text>
</g>
<!-- Node0&#45;&gt;Node9 -->
<g id="edge26" class="edge">
<title>Node0&#45;&gt;Node9</title>
<path fill="none" stroke="#191970" d="M574.0391,-224.375C588.3511,-190.2697 636.8172,-74.7761 656.0449,-28.9567"/>
<polygon fill="#191970" stroke="#191970" points="659.3338,-30.1645 659.976,-19.5891 652.879,-27.4558 659.3338,-30.1645"/>
</g>
<!-- Node10 -->
<g id="node11" class="node">
<title>Node10</title>
<polygon fill="none" stroke="#bfbfbf" points="498,-.5 498,-19.5 552,-19.5 552,-.5 498,-.5"/>
<text text-anchor="middle" x="525" y="-7.5" font-family="Helvetica,sans-Serif" font-size="10.00" fill="#000000">iostream</text>
</g>
<!-- Node0&#45;&gt;Node10 -->
<g id="edge27" class="edge">
<title>Node0&#45;&gt;Node10</title>
<path fill="none" stroke="#191970" d="M568.0664,-224.375C561.2437,-190.4133 538.2081,-75.7472 528.9253,-29.5392"/>
<polygon fill="#191970" stroke="#191970" points="532.3275,-28.7039 526.9264,-19.5891 525.4646,-30.0826 532.3275,-28.7039"/>
</g>
<!-- Node13 -->
<g id="node14" class="node">
<title>Node13</title>
<polygon fill="none" stroke="#bfbfbf" points="370.5,-.5 370.5,-19.5 411.5,-19.5 411.5,-.5 370.5,-.5"/>
<text text-anchor="middle" x="391" y="-7.5" font-family="Helvetica,sans-Serif" font-size="10.00" fill="#000000">string</text>
</g>
<!-- Node0&#45;&gt;Node13 -->
<g id="edge29" class="edge">
<title>Node0&#45;&gt;Node13</title>
<path fill="none" stroke="#191970" d="M562.3086,-224.375C534.7679,-189.9107 440.8128,-72.3356 405.0109,-27.5331"/>
<polygon fill="#191970" stroke="#191970" points="407.6397,-25.2163 398.6628,-19.5891 402.1712,-29.5862 407.6397,-25.2163"/>
</g>
<!-- Node14 -->
<g id="node15" class="node">
<title>Node14</title>
<polygon fill="none" stroke="#bfbfbf" points="430,-.5 430,-19.5 480,-19.5 480,-.5 430,-.5"/>
<text text-anchor="middle" x="455" y="-7.5" font-family="Helvetica,sans-Serif" font-size="10.00" fill="#000000">fstream</text>
</g>
<!-- Node0&#45;&gt;Node14 -->
<g id="edge28" class="edge">
<title>Node0&#45;&gt;Node14</title>
<path fill="none" stroke="#191970" d="M565.2056,-224.4938C554.8316,-203.9402 529.5016,-153.8409 508,-112 493.0182,-82.8461 475.4435,-49.114 464.7704,-28.6798"/>
<polygon fill="#191970" stroke="#191970" points="467.7315,-26.789 459.9976,-19.5476 461.5277,-30.0314 467.7315,-26.789"/>
</g>
<!-- Node18 -->
<g id="node19" class="node">
<title>Node18</title>
<g id="a_node19"><a xlink:href="pn__zero_8h.html" target="_top" xlink:title="pn_zero.h">
<polygon fill="none" stroke="#000000" points="672.5,-168.5 672.5,-187.5 731.5,-187.5 731.5,-168.5 672.5,-168.5"/>
<text text-anchor="middle" x="702" y="-175.5" font-family="Helvetica,sans-Serif" font-size="10.00" fill="#000000">pn_zero.h</text>
</a>
</g>
</g>
<!-- Node0&#45;&gt;Node18 -->
<g id="edge22" class="edge">
<title>Node0&#45;&gt;Node18</title>
<path fill="none" stroke="#191970" d="M592.6916,-224.3733C614.0711,-215.3032 646.3057,-201.6279 670.2362,-191.4755"/>
<polygon fill="#191970" stroke="#191970" points="671.7656,-194.6287 679.6045,-187.5011 669.0317,-188.1846 671.7656,-194.6287"/>
</g>
<!-- Node2 -->
<g id="node3" class="node">
<title>Node2</title>
<polygon fill="none" stroke="#bfbfbf" points="0,-.5 0,-19.5 44,-19.5 44,-.5 0,-.5"/>
<text text-anchor="middle" x="22" y="-7.5" font-family="Helvetica,sans-Serif" font-size="10.00" fill="#000000">vector</text>
</g>
<!-- Node1&#45;&gt;Node2 -->
<g id="edge2" class="edge">
<title>Node1&#45;&gt;Node2</title>
<path fill="none" stroke="#191970" d="M316.3316,-168.4862C264.2202,-140.4263 110.9159,-57.8778 48.6972,-24.3754"/>
<polygon fill="#191970" stroke="#191970" points="50.3254,-21.2771 39.8614,-19.6177 47.0067,-27.4404 50.3254,-21.2771"/>
</g>
<!-- Node3 -->
<g id="node4" class="node">
<title>Node3</title>
<polygon fill="none" stroke="#bfbfbf" points="113.5,-112.5 113.5,-131.5 162.5,-131.5 162.5,-112.5 113.5,-112.5"/>
<text text-anchor="middle" x="138" y="-119.5" font-family="Helvetica,sans-Serif" font-size="10.00" fill="#000000">random</text>
</g>
<!-- Node1&#45;&gt;Node3 -->
<g id="edge3" class="edge">
<title>Node1&#45;&gt;Node3</title>
<path fill="none" stroke="#191970" d="M300.3064,-168.3733C264.6431,-158.1837 208.6374,-142.1821 172.6247,-131.8928"/>
<polygon fill="#191970" stroke="#191970" points="173.1601,-128.4057 162.5833,-129.0238 171.237,-135.1364 173.1601,-128.4057"/>
</g>
<!-- Node4 -->
<g id="node5" class="node">
<title>Node4</title>
<polygon fill="none" stroke="#bfbfbf" points="570,-.5 570,-19.5 618,-19.5 618,-.5 570,-.5"/>
<text text-anchor="middle" x="594" y="-7.5" font-family="Helvetica,sans-Serif" font-size="10.00" fill="#000000">Rcpp.h</text>
</g>
<!-- Node1&#45;&gt;Node4 -->
<g id="edge4" class="edge">
<title>Node1&#45;&gt;Node4</title>
<path fill="none" stroke="#191970" d="M348.7237,-168.4862C391.7932,-140.6567 517.8105,-59.2301 570.4595,-25.2108"/>
<polygon fill="#191970" stroke="#191970" points="572.6159,-27.9846 579.1155,-19.6177 568.8168,-22.1051 572.6159,-27.9846"/>
</g>
<!-- Node5 -->
<g id="node6" class="node">
<title>Node5</title>
<g id="a_node6"><a xlink:href="fish_8h.html" target="_top" xlink:title="fish.h">
<polygon fill="none" stroke="#000000" points="313.5,-112.5 313.5,-131.5 354.5,-131.5 354.5,-112.5 313.5,-112.5"/>
<text text-anchor="middle" x="334" y="-119.5" font-family="Helvetica,sans-Serif" font-size="10.00" fill="#000000">fish.h</text>
</a>
</g>
</g>
<!-- Node1&#45;&gt;Node5 -->
<g id="edge5" class="edge">
<title>Node1&#45;&gt;Node5</title>
<path fill="none" stroke="#191970" d="M334,-168.2455C334,-160.9382 334,-150.6944 334,-141.7046"/>
<polygon fill="#191970" stroke="#191970" points="337.5001,-141.6426 334,-131.6427 330.5001,-141.6427 337.5001,-141.6426"/>
</g>
<!-- Node5&#45;&gt;Node2 -->
<g id="edge6" class="edge">
<title>Node5&#45;&gt;Node2</title>
<path fill="none" stroke="#191970" d="M316.7013,-112.4916C286.9903,-96.2728 227.3096,-64.2128 205,-56 142.7765,-33.0938 121.753,-38.1354 54.145,-20.1231"/>
<polygon fill="#191970" stroke="#191970" points="54.8563,-16.6891 44.2869,-17.4232 53.0072,-23.4405 54.8563,-16.6891"/>
</g>
<!-- Node6 -->
<g id="node7" class="node">
<title>Node6</title>
<polygon fill="none" stroke="#bfbfbf" points="354.5,-56.5 354.5,-75.5 389.5,-75.5 389.5,-56.5 354.5,-56.5"/>
<text text-anchor="middle" x="372" y="-63.5" font-family="Helvetica,sans-Serif" font-size="10.00" fill="#000000">map</text>
</g>
<!-- Node5&#45;&gt;Node6 -->
<g id="edge7" class="edge">
<title>Node5&#45;&gt;Node6</title>
<path fill="none" stroke="#191970" d="M340.6191,-112.2455C345.9046,-104.4564 353.4541,-93.3308 359.8238,-83.9439"/>
<polygon fill="#191970" stroke="#191970" points="362.7379,-85.8827 365.4568,-75.6427 356.9455,-81.9522 362.7379,-85.8827"/>
</g>
<!-- Node7 -->
<g id="node8" class="node">
<title>Node7</title>
<g id="a_node8"><a xlink:href="functions_8h.html" target="_top" xlink:title="functions.h">
<polygon fill="none" stroke="#000000" points="560.5,-56.5 560.5,-75.5 625.5,-75.5 625.5,-56.5 560.5,-56.5"/>
<text text-anchor="middle" x="593" y="-63.5" font-family="Helvetica,sans-Serif" font-size="10.00" fill="#000000">functions.h</text>
</a>
</g>
</g>
<!-- Node5&#45;&gt;Node7 -->
<g id="edge8" class="edge">
<title>Node5&#45;&gt;Node7</title>
<path fill="none" stroke="#191970" d="M354.7572,-117.5119C397.0211,-108.3738 493.8199,-87.4443 550.1637,-75.2619"/>
<polygon fill="#191970" stroke="#191970" points="551.1569,-78.6281 560.1913,-73.0938 549.6775,-71.7862 551.1569,-78.6281"/>
</g>
<!-- Node11 -->
<g id="node12" class="node">
<title>Node11</title>
<g id="a_node12"><a xlink:href="initializer__v2_8h.html" target="_top" xlink:title="initializer_v2.h">
<polygon fill="none" stroke="#000000" points="257.5,-56.5 257.5,-75.5 336.5,-75.5 336.5,-56.5 257.5,-56.5"/>
<text text-anchor="middle" x="297" y="-63.5" font-family="Helvetica,sans-Serif" font-size="10.00" fill="#000000">initializer_v2.h</text>
</a>
</g>
</g>
<!-- Node5&#45;&gt;Node11 -->
<g id="edge13" class="edge">
<title>Node5&#45;&gt;Node11</title>
<path fill="none" stroke="#191970" d="M327.5551,-112.2455C322.4618,-104.5367 315.2092,-93.5598 309.048,-84.2348"/>
<polygon fill="#191970" stroke="#191970" points="311.8038,-82.0566 303.3711,-75.6427 305.9635,-85.9155 311.8038,-82.0566"/>
</g>
<!-- Node7&#45;&gt;Node4 -->
<g id="edge12" class="edge">
<title>Node7&#45;&gt;Node4</title>
<path fill="none" stroke="#191970" d="M593.1742,-56.2455C593.3047,-48.9382 593.4876,-38.6944 593.6481,-29.7046"/>
<polygon fill="#191970" stroke="#191970" points="597.1486,-29.7036 593.8278,-19.6427 590.1497,-29.5786 597.1486,-29.7036"/>
</g>
<!-- Node7&#45;&gt;Node8 -->
<g id="edge9" class="edge">
<title>Node7&#45;&gt;Node8</title>
<path fill="none" stroke="#191970" d="M618.2702,-56.3733C643.2739,-46.848 681.6101,-32.2438 708.5662,-21.9748"/>
<polygon fill="#191970" stroke="#191970" points="709.8378,-25.2358 717.9367,-18.4051 707.3458,-18.6944 709.8378,-25.2358"/>
</g>
<!-- Node7&#45;&gt;Node9 -->
<g id="edge10" class="edge">
<title>Node7&#45;&gt;Node9</title>
<path fill="none" stroke="#191970" d="M605.3673,-56.2455C615.9554,-47.8943 631.4064,-35.7076 643.7893,-25.9408"/>
<polygon fill="#191970" stroke="#191970" points="646.0903,-28.5837 651.7745,-19.6427 641.7553,-23.0875 646.0903,-28.5837"/>
</g>
<!-- Node7&#45;&gt;Node10 -->
<g id="edge11" class="edge">
<title>Node7&#45;&gt;Node10</title>
<path fill="none" stroke="#191970" d="M581.1553,-56.2455C571.112,-47.9746 556.5005,-35.9416 544.6996,-26.2232"/>
<polygon fill="#191970" stroke="#191970" points="546.6533,-23.298 536.709,-19.6427 542.2033,-28.7015 546.6533,-23.298"/>
</g>
<!-- Node11&#45;&gt;Node2 -->
<g id="edge18" class="edge">
<title>Node11&#45;&gt;Node2</title>
<path fill="none" stroke="#191970" d="M257.3727,-58.6639C198.1004,-47.6739 90.1141,-27.5807 54.059,-19.8128"/>
<polygon fill="#191970" stroke="#191970" points="54.7847,-16.3883 44.2535,-17.5483 53.2095,-23.2088 54.7847,-16.3883"/>
</g>
<!-- Node11&#45;&gt;Node10 -->
<g id="edge14" class="edge">
<title>Node11&#45;&gt;Node10</title>
<path fill="none" stroke="#191970" d="M336.8168,-56.8987C373.6682,-48.3775 430.2111,-35.0566 488.2052,-20.1441"/>
<polygon fill="#191970" stroke="#191970" points="489.0944,-23.5294 497.9011,-17.6393 487.3435,-16.7519 489.0944,-23.5294"/>
</g>
<!-- Node12 -->
<g id="node13" class="node">
<title>Node12</title>
<polygon fill="none" stroke="#bfbfbf" points="62.5,-.5 62.5,-19.5 103.5,-19.5 103.5,-.5 62.5,-.5"/>
<text text-anchor="middle" x="83" y="-7.5" font-family="Helvetica,sans-Serif" font-size="10.00" fill="#000000">regex</text>
</g>
<!-- Node11&#45;&gt;Node12 -->
<g id="edge15" class="edge">
<title>Node11&#45;&gt;Node12</title>
<path fill="none" stroke="#191970" d="M257.2822,-57.0007C221.903,-48.7773 168.5516,-35.8706 113.2126,-19.8976"/>
<polygon fill="#191970" stroke="#191970" points="114.1713,-16.5315 103.5914,-17.095 112.2135,-23.2521 114.1713,-16.5315"/>
</g>
<!-- Node11&#45;&gt;Node13 -->
<g id="edge16" class="edge">
<title>Node11&#45;&gt;Node13</title>
<path fill="none" stroke="#191970" d="M313.3736,-56.2455C327.9308,-47.5731 349.431,-34.7645 366.1152,-24.825"/>
<polygon fill="#191970" stroke="#191970" points="368.0144,-27.7676 374.8141,-19.6427 364.4317,-21.7539 368.0144,-27.7676"/>
</g>
<!-- Node11&#45;&gt;Node14 -->
<g id="edge17" class="edge">
<title>Node11&#45;&gt;Node14</title>
<path fill="none" stroke="#191970" d="M324.1612,-56.3733C350.6803,-46.9741 391.1526,-32.6295 420.0572,-22.3848"/>
<polygon fill="#191970" stroke="#191970" points="421.5007,-25.5866 429.7569,-18.9469 419.1622,-18.9887 421.5007,-25.5866"/>
</g>
<!-- Node15 -->
<g id="node16" class="node">
<title>Node15</title>
<polygon fill="none" stroke="#bfbfbf" points="122,-.5 122,-19.5 174,-19.5 174,-.5 122,-.5"/>
<text text-anchor="middle" x="148" y="-7.5" font-family="Helvetica,sans-Serif" font-size="10.00" fill="#000000">sstream</text>
</g>
<!-- Node11&#45;&gt;Node15 -->
<g id="edge19" class="edge">
<title>Node11&#45;&gt;Node15</title>
<path fill="none" stroke="#191970" d="M271.386,-56.3733C246.9313,-47.1822 209.8946,-33.2624 182.7791,-23.0713"/>
<polygon fill="#191970" stroke="#191970" points="183.8719,-19.7431 173.2798,-19.5011 181.4091,-26.2956 183.8719,-19.7431"/>
</g>
<!-- Node16 -->
<g id="node17" class="node">
<title>Node16</title>
<polygon fill="none" stroke="#bfbfbf" points="192.5,-.5 192.5,-19.5 251.5,-19.5 251.5,-.5 192.5,-.5"/>
<text text-anchor="middle" x="222" y="-7.5" font-family="Helvetica,sans-Serif" font-size="10.00" fill="#000000">stdexcept</text>
</g>
<!-- Node11&#45;&gt;Node16 -->
<g id="edge20" class="edge">
<title>Node11&#45;&gt;Node16</title>
<path fill="none" stroke="#191970" d="M283.936,-56.2455C272.6438,-47.814 256.1155,-35.4729 242.9729,-25.6598"/>
<polygon fill="#191970" stroke="#191970" points="245.0211,-22.8211 234.9143,-19.6427 240.8331,-28.4301 245.0211,-22.8211"/>
</g>
<!-- Node17 -->
<g id="node18" class="node">
<title>Node17</title>
<polygon fill="none" stroke="#bfbfbf" points="269.5,-.5 269.5,-19.5 352.5,-19.5 352.5,-.5 269.5,-.5"/>
<text text-anchor="middle" x="311" y="-7.5" font-family="Helvetica,sans-Serif" font-size="10.00" fill="#000000">unordered_map</text>
</g>
<!-- Node11&#45;&gt;Node17 -->
<g id="edge21" class="edge">
<title>Node11&#45;&gt;Node17</title>
<path fill="none" stroke="#191970" d="M299.4386,-56.2455C301.2855,-48.8579 303.8828,-38.4689 306.1478,-29.4087"/>
<polygon fill="#191970" stroke="#191970" points="309.5594,-30.193 308.5893,-19.6427 302.7684,-28.4952 309.5594,-30.193"/>
</g>
<!-- Node18&#45;&gt;Node8 -->
<g id="edge23" class="edge">
<title>Node18&#45;&gt;Node8</title>
<path fill="none" stroke="#191970" d="M706.7683,-168.3681C711.1043,-159.2219 717.3644,-144.9797 721,-132 730.8825,-96.7176 736.0385,-54.1614 738.374,-29.7742"/>
<polygon fill="#191970" stroke="#191970" points="741.8741,-29.9278 739.2789,-19.6557 734.9019,-29.3042 741.8741,-29.9278"/>
</g>
<!-- Node19 -->
<g id="node20" class="node">
<title>Node19</title>
<polygon fill="none" stroke="#bfbfbf" points="672,-112.5 672,-131.5 712,-131.5 712,-112.5 672,-112.5"/>
<text text-anchor="middle" x="692" y="-119.5" font-family="Helvetica,sans-Serif" font-size="10.00" fill="#000000">limits</text>
</g>
<!-- Node18&#45;&gt;Node19 -->
<g id="edge24" class="edge">
<title>Node18&#45;&gt;Node19</title>
<path fill="none" stroke="#191970" d="M700.2581,-168.2455C698.9533,-160.9382 697.124,-150.6944 695.5187,-141.7046"/>
<polygon fill="#191970" stroke="#191970" points="698.9254,-140.8717 693.7219,-131.6427 692.0344,-142.1022 698.9254,-140.8717"/>
</g>
</g>
</svg>
