<?xml version="1.0" encoding="UTF-8" standalone="no"?>
<!DOCTYPE svg PUBLIC "-//W3C//DTD SVG 1.1//EN"
 "http://www.w3.org/Graphics/SVG/1.1/DTD/svg11.dtd">
<!-- Generated by graphviz version 2.40.1 (20161225.0304)
 -->
<!-- Title: inst/include/population.h Pages: 1 -->
<svg width="761pt" height="196pt"
 viewBox="0.00 0.00 761.00 196.00" xmlns="http://www.w3.org/2000/svg" xmlns:xlink="http://www.w3.org/1999/xlink">
<g id="graph0" class="graph" transform="scale(1 1) rotate(0) translate(4 192)">
<title>inst/include/population.h</title>
<!-- Node0 -->
<g id="node1" class="node">
<title>Node0</title>
<polygon fill="#bfbfbf" stroke="#000000" points="431,-168.5 431,-187.5 553,-187.5 553,-168.5 431,-168.5"/>
<text text-anchor="middle" x="492" y="-175.5" font-family="Helvetica,sans-Serif" font-size="10.00" fill="#000000">inst/include/population.h</text>
</g>
<!-- Node1 -->
<g id="node2" class="node">
<title>Node1</title>
<polygon fill="none" stroke="#bfbfbf" points="709,-.5 709,-19.5 753,-19.5 753,-.5 709,-.5"/>
<text text-anchor="middle" x="731" y="-7.5" font-family="Helvetica,sans-Serif" font-size="10.00" fill="#000000">vector</text>
</g>
<!-- Node0&#45;&gt;Node1 -->
<g id="edge1" class="edge">
<title>Node0&#45;&gt;Node1</title>
<path fill="none" stroke="#191970" d="M505.5345,-168.4862C545.0433,-140.7144 660.4849,-59.5671 709.0594,-25.4227"/>
<polygon fill="#191970" stroke="#191970" points="711.1494,-28.2318 717.3177,-19.6177 707.1239,-22.505 711.1494,-28.2318"/>
</g>
<!-- Node2 -->
<g id="node3" class="node">
<title>Node2</title>
<polygon fill="none" stroke="#bfbfbf" points="436.5,-112.5 436.5,-131.5 485.5,-131.5 485.5,-112.5 436.5,-112.5"/>
<text text-anchor="middle" x="461" y="-119.5" font-family="Helvetica,sans-Serif" font-size="10.00" fill="#000000">random</text>
</g>
<!-- Node0&#45;&gt;Node2 -->
<g id="edge2" class="edge">
<title>Node0&#45;&gt;Node2</title>
<path fill="none" stroke="#191970" d="M486.6002,-168.2455C482.3773,-160.617 476.3827,-149.7881 471.2559,-140.5267"/>
<polygon fill="#191970" stroke="#191970" points="474.2432,-138.6965 466.3379,-131.6427 468.119,-142.0867 474.2432,-138.6965"/>
</g>
<!-- Node3 -->
<g id="node4" class="node">
<title>Node3</title>
<polygon fill="none" stroke="#bfbfbf" points="0,-.5 0,-19.5 48,-19.5 48,-.5 0,-.5"/>
<text text-anchor="middle" x="24" y="-7.5" font-family="Helvetica,sans-Serif" font-size="10.00" fill="#000000">Rcpp.h</text>
</g>
<!-- Node0&#45;&gt;Node3 -->
<g id="edge3" class="edge">
<title>Node0&#45;&gt;Node3</title>
<path fill="none" stroke="#191970" d="M430.9827,-168.6818C354.1731,-155.3723 219.52,-126.7323 114,-76 86.6873,-62.8685 59.1539,-41.1466 41.8647,-26.2327"/>
<polygon fill="#191970" stroke="#191970" points="44.0646,-23.5064 34.246,-19.5258 39.4392,-28.7605 44.0646,-23.5064"/>
</g>
<!-- Node4 -->
<g id="node5" class="node">
<title>Node4</title>
<g id="a_node5"><a xlink:href="fish_8h.html" target="_top" xlink:title="fish.h">
<polygon fill="none" stroke="#000000" points="503.5,-112.5 503.5,-131.5 544.5,-131.5 544.5,-112.5 503.5,-112.5"/>
<text text-anchor="middle" x="524" y="-119.5" font-family="Helvetica,sans-Serif" font-size="10.00" fill="#000000">fish.h</text>
</a>
</g>
</g>
<!-- Node0&#45;&gt;Node4 -->
<g id="edge4" class="edge">
<title>Node0&#45;&gt;Node4</title>
<path fill="none" stroke="#191970" d="M497.574,-168.2455C501.9331,-160.617 508.1211,-149.7881 513.4133,-140.5267"/>
<polygon fill="#191970" stroke="#191970" points="516.5673,-142.0616 518.4899,-131.6427 510.4896,-138.5886 516.5673,-142.0616"/>
</g>
<!-- Node4&#45;&gt;Node1 -->
<g id="edge5" class="edge">
<title>Node4&#45;&gt;Node1</title>
<path fill="none" stroke="#191970" d="M529.3003,-112.3793C537.7282,-97.9734 555.5507,-70.9015 578,-56 622.5256,-26.4447 643.6205,-35.5021 698.7495,-20.1912"/>
<polygon fill="#191970" stroke="#191970" points="700.062,-23.4536 708.6701,-17.2771 698.0891,-16.7374 700.062,-23.4536"/>
</g>
<!-- Node5 -->
<g id="node6" class="node">
<title>Node5</title>
<polygon fill="none" stroke="#bfbfbf" points="586.5,-56.5 586.5,-75.5 621.5,-75.5 621.5,-56.5 586.5,-56.5"/>
<text text-anchor="middle" x="604" y="-63.5" font-family="Helvetica,sans-Serif" font-size="10.00" fill="#000000">map</text>
</g>
<!-- Node4&#45;&gt;Node5 -->
<g id="edge6" class="edge">
<title>Node4&#45;&gt;Node5</title>
<path fill="none" stroke="#191970" d="M537.9349,-112.2455C550.0947,-103.7337 567.9464,-91.2375 582.0285,-81.3801"/>
<polygon fill="#191970" stroke="#191970" points="584.0395,-84.2447 590.2248,-75.6427 580.0253,-78.51 584.0395,-84.2447"/>
</g>
<!-- Node6 -->
<g id="node7" class="node">
<title>Node6</title>
<g id="a_node7"><a xlink:href="functions_8h.html" target="_top" xlink:title="functions.h">
<polygon fill="none" stroke="#000000" points="123.5,-56.5 123.5,-75.5 188.5,-75.5 188.5,-56.5 123.5,-56.5"/>
<text text-anchor="middle" x="156" y="-63.5" font-family="Helvetica,sans-Serif" font-size="10.00" fill="#000000">functions.h</text>
</a>
</g>
</g>
<!-- Node4&#45;&gt;Node6 -->
<g id="edge7" class="edge">
<title>Node4&#45;&gt;Node6</title>
<path fill="none" stroke="#191970" d="M503.236,-114.2907C500.4904,-113.4337 497.6942,-112.6407 495,-112 390.1823,-87.0743 263.6958,-74.3761 198.8799,-69.0921"/>
<polygon fill="#191970" stroke="#191970" points="198.8888,-65.5818 188.6427,-68.2777 198.3336,-72.5598 198.8888,-65.5818"/>
</g>
<!-- Node10 -->
<g id="node11" class="node">
<title>Node10</title>
<g id="a_node11"><a xlink:href="initializer__v2_8h.html" target="_top" xlink:title="initializer_v2.h">
<polygon fill="none" stroke="#000000" points="450.5,-56.5 450.5,-75.5 529.5,-75.5 529.5,-56.5 450.5,-56.5"/>
<text text-anchor="middle" x="490" y="-63.5" font-family="Helvetica,sans-Serif" font-size="10.00" fill="#000000">initializer_v2.h</text>
</a>
</g>
</g>
<!-- Node4&#45;&gt;Node10 -->
<g id="edge12" class="edge">
<title>Node4&#45;&gt;Node10</title>
<path fill="none" stroke="#191970" d="M518.0777,-112.2455C513.3973,-104.5367 506.7327,-93.5598 501.0711,-84.2348"/>
<polygon fill="#191970" stroke="#191970" points="504.0361,-82.3741 495.8545,-75.6427 498.0525,-86.007 504.0361,-82.3741"/>
</g>
<!-- Node6&#45;&gt;Node3 -->
<g id="edge11" class="edge">
<title>Node6&#45;&gt;Node3</title>
<path fill="none" stroke="#191970" d="M133.3084,-56.3733C111.9289,-47.3032 79.6943,-33.6279 55.7638,-23.4755"/>
<polygon fill="#191970" stroke="#191970" points="56.9683,-20.1846 46.3955,-19.5011 54.2344,-26.6287 56.9683,-20.1846"/>
</g>
<!-- Node7 -->
<g id="node8" class="node">
<title>Node7</title>
<polygon fill="none" stroke="#bfbfbf" points="66,-.5 66,-19.5 110,-19.5 110,-.5 66,-.5"/>
<text text-anchor="middle" x="88" y="-7.5" font-family="Helvetica,sans-Serif" font-size="10.00" fill="#000000">cmath</text>
</g>
<!-- Node6&#45;&gt;Node7 -->
<g id="edge8" class="edge">
<title>Node6&#45;&gt;Node7</title>
<path fill="none" stroke="#191970" d="M144.1553,-56.2455C134.112,-47.9746 119.5005,-35.9416 107.6996,-26.2232"/>
<polygon fill="#191970" stroke="#191970" points="109.6533,-23.298 99.709,-19.6427 105.2033,-28.7015 109.6533,-23.298"/>
</g>
<!-- Node8 -->
<g id="node9" class="node">
<title>Node8</title>
<polygon fill="none" stroke="#bfbfbf" points="128,-.5 128,-19.5 184,-19.5 184,-.5 128,-.5"/>
<text text-anchor="middle" x="156" y="-7.5" font-family="Helvetica,sans-Serif" font-size="10.00" fill="#000000">algorithm</text>
</g>
<!-- Node6&#45;&gt;Node8 -->
<g id="edge9" class="edge">
<title>Node6&#45;&gt;Node8</title>
<path fill="none" stroke="#191970" d="M156,-56.2455C156,-48.9382 156,-38.6944 156,-29.7046"/>
<polygon fill="#191970" stroke="#191970" points="159.5001,-29.6426 156,-19.6427 152.5001,-29.6427 159.5001,-29.6426"/>
</g>
<!-- Node9 -->
<g id="node10" class="node">
<title>Node9</title>
<polygon fill="none" stroke="#bfbfbf" points="202,-.5 202,-19.5 256,-19.5 256,-.5 202,-.5"/>
<text text-anchor="middle" x="229" y="-7.5" font-family="Helvetica,sans-Serif" font-size="10.00" fill="#000000">iostream</text>
</g>
<!-- Node6&#45;&gt;Node9 -->
<g id="edge10" class="edge">
<title>Node6&#45;&gt;Node9</title>
<path fill="none" stroke="#191970" d="M168.7156,-56.2455C179.602,-47.8943 195.4883,-35.7076 208.22,-25.9408"/>
<polygon fill="#191970" stroke="#191970" points="210.6261,-28.5063 216.4301,-19.6427 206.3654,-22.9523 210.6261,-28.5063"/>
</g>
<!-- Node10&#45;&gt;Node1 -->
<g id="edge17" class="edge">
<title>Node10&#45;&gt;Node1</title>
<path fill="none" stroke="#191970" d="M529.7542,-58.48C570.1199,-50.5817 634.5868,-37.2487 698.836,-20.1343"/>
<polygon fill="#191970" stroke="#191970" points="699.981,-23.4506 708.7257,-17.4689 698.1594,-16.6918 699.981,-23.4506"/>
</g>
<!-- Node10&#45;&gt;Node9 -->
<g id="edge13" class="edge">
<title>Node10&#45;&gt;Node9</title>
<path fill="none" stroke="#191970" d="M450.3916,-58.7628C407.3295,-50.7043 336.2846,-36.8569 265.9859,-20.118"/>
<polygon fill="#191970" stroke="#191970" points="266.6154,-16.6697 256.0744,-17.7372 264.9804,-23.4761 266.6154,-16.6697"/>
</g>
<!-- Node11 -->
<g id="node12" class="node">
<title>Node11</title>
<polygon fill="none" stroke="#bfbfbf" points="522.5,-.5 522.5,-19.5 563.5,-19.5 563.5,-.5 522.5,-.5"/>
<text text-anchor="middle" x="543" y="-7.5" font-family="Helvetica,sans-Serif" font-size="10.00" fill="#000000">regex</text>
</g>
<!-- Node10&#45;&gt;Node11 -->
<g id="edge14" class="edge">
<title>Node10&#45;&gt;Node11</title>
<path fill="none" stroke="#191970" d="M499.2319,-56.2455C506.8317,-48.2155 517.7877,-36.6394 526.8368,-27.0781"/>
<polygon fill="#191970" stroke="#191970" points="529.5421,-29.3115 533.8739,-19.6427 524.458,-24.4998 529.5421,-29.3115"/>
</g>
<!-- Node12 -->
<g id="node13" class="node">
<title>Node12</title>
<polygon fill="none" stroke="#bfbfbf" points="581.5,-.5 581.5,-19.5 622.5,-19.5 622.5,-.5 581.5,-.5"/>
<text text-anchor="middle" x="602" y="-7.5" font-family="Helvetica,sans-Serif" font-size="10.00" fill="#000000">string</text>
</g>
<!-- Node10&#45;&gt;Node12 -->
<g id="edge15" class="edge">
<title>Node10&#45;&gt;Node12</title>
<path fill="none" stroke="#191970" d="M509.2535,-56.3733C527.0712,-47.4644 553.7747,-34.1127 573.9594,-24.0203"/>
<polygon fill="#191970" stroke="#191970" points="575.6187,-27.1038 582.9978,-19.5011 572.4882,-20.8428 575.6187,-27.1038"/>
</g>
<!-- Node13 -->
<g id="node14" class="node">
<title>Node13</title>
<polygon fill="none" stroke="#bfbfbf" points="641,-.5 641,-19.5 691,-19.5 691,-.5 641,-.5"/>
<text text-anchor="middle" x="666" y="-7.5" font-family="Helvetica,sans-Serif" font-size="10.00" fill="#000000">fstream</text>
</g>
<!-- Node10&#45;&gt;Node13 -->
<g id="edge16" class="edge">
<title>Node10&#45;&gt;Node13</title>
<path fill="none" stroke="#191970" d="M520.2555,-56.3733C551.0293,-46.5816 598.671,-31.4229 631.0404,-21.1235"/>
<polygon fill="#191970" stroke="#191970" points="632.5046,-24.3306 640.9726,-17.9633 630.3821,-17.6601 632.5046,-24.3306"/>
</g>
<!-- Node14 -->
<g id="node15" class="node">
<title>Node14</title>
<polygon fill="none" stroke="#bfbfbf" points="274,-.5 274,-19.5 326,-19.5 326,-.5 274,-.5"/>
<text text-anchor="middle" x="300" y="-7.5" font-family="Helvetica,sans-Serif" font-size="10.00" fill="#000000">sstream</text>
</g>
<!-- Node10&#45;&gt;Node14 -->
<g id="edge18" class="edge">
<title>Node10&#45;&gt;Node14</title>
<path fill="none" stroke="#191970" d="M457.3378,-56.3733C423.5388,-46.4114 370.8916,-30.8944 335.9337,-20.591"/>
<polygon fill="#191970" stroke="#191970" points="336.7152,-17.1725 326.1337,-17.7026 334.7362,-23.887 336.7152,-17.1725"/>
</g>
<!-- Node15 -->
<g id="node16" class="node">
<title>Node15</title>
<polygon fill="none" stroke="#bfbfbf" points="344.5,-.5 344.5,-19.5 403.5,-19.5 403.5,-.5 344.5,-.5"/>
<text text-anchor="middle" x="374" y="-7.5" font-family="Helvetica,sans-Serif" font-size="10.00" fill="#000000">stdexcept</text>
</g>
<!-- Node10&#45;&gt;Node15 -->
<g id="edge19" class="edge">
<title>Node10&#45;&gt;Node15</title>
<path fill="none" stroke="#191970" d="M470.0589,-56.3733C451.5214,-47.4241 423.6972,-33.9917 402.7587,-23.8835"/>
<polygon fill="#191970" stroke="#191970" points="404.2081,-20.6967 393.6809,-19.5011 401.1648,-27.0006 404.2081,-20.6967"/>
</g>
<!-- Node16 -->
<g id="node17" class="node">
<title>Node16</title>
<polygon fill="none" stroke="#bfbfbf" points="421.5,-.5 421.5,-19.5 504.5,-19.5 504.5,-.5 421.5,-.5"/>
<text text-anchor="middle" x="463" y="-7.5" font-family="Helvetica,sans-Serif" font-size="10.00" fill="#000000">unordered_map</text>
</g>
<!-- Node10&#45;&gt;Node16 -->
<g id="edge20" class="edge">
<title>Node10&#45;&gt;Node16</title>
<path fill="none" stroke="#191970" d="M485.297,-56.2455C481.6576,-48.6973 476.5076,-38.0158 472.0738,-28.8197"/>
<polygon fill="#191970" stroke="#191970" points="475.1449,-27.1303 467.6491,-19.6427 468.8395,-30.1704 475.1449,-27.1303"/>
</g>
</g>
</svg>
