<?xml version="1.0" encoding="UTF-8" standalone="no"?>
<!DOCTYPE svg PUBLIC "-//W3C//DTD SVG 1.1//EN"
 "http://www.w3.org/Graphics/SVG/1.1/DTD/svg11.dtd">
<!-- Generated by graphviz version 2.40.1 (20161225.0304)
 -->
<!-- Title: inst/include/population.h Pages: 1 -->
<svg width="264pt" height="196pt"
 viewBox="0.00 0.00 264.00 196.00" xmlns="http://www.w3.org/2000/svg" xmlns:xlink="http://www.w3.org/1999/xlink">
<g id="graph0" class="graph" transform="scale(1 1) rotate(0) translate(4 192)">
<title>inst/include/population.h</title>
<!-- Node0 -->
<g id="node1" class="node">
<title>Node0</title>
<polygon fill="#bfbfbf" stroke="#000000" points="90,-168.5 90,-187.5 212,-187.5 212,-168.5 90,-168.5"/>
<text text-anchor="middle" x="151" y="-175.5" font-family="Helvetica,sans-Serif" font-size="10.00" fill="#000000">inst/include/population.h</text>
</g>
<!-- Node1 -->
<g id="node2" class="node">
<title>Node1</title>
<g id="a_node2"><a xlink:href="fish_8h.html" target="_top" xlink:title="fish.h">
<polygon fill="none" stroke="#000000" points="130.5,-112.5 130.5,-131.5 171.5,-131.5 171.5,-112.5 130.5,-112.5"/>
<text text-anchor="middle" x="151" y="-119.5" font-family="Helvetica,sans-Serif" font-size="10.00" fill="#000000">fish.h</text>
</a>
</g>
</g>
<!-- Node0&#45;&gt;Node1 -->
<g id="edge1" class="edge">
<title>Node0&#45;&gt;Node1</title>
<path fill="none" stroke="#191970" d="M151,-168.2455C151,-160.9382 151,-150.6944 151,-141.7046"/>
<polygon fill="#191970" stroke="#191970" points="154.5001,-141.6426 151,-131.6427 147.5001,-141.6427 154.5001,-141.6426"/>
</g>
<!-- Node2 -->
<g id="node3" class="node">
<title>Node2</title>
<polygon fill="none" stroke="#bfbfbf" points="68,-56.5 68,-75.5 112,-75.5 112,-56.5 68,-56.5"/>
<text text-anchor="middle" x="90" y="-63.5" font-family="Helvetica,sans-Serif" font-size="10.00" fill="#000000">vector</text>
</g>
<!-- Node0&#45;&gt;Node2 -->
<g id="edge8" class="edge">
<title>Node0&#45;&gt;Node2</title>
<path fill="none" stroke="#191970" d="M144.1583,-168.3736C137.7976,-159.2313 128.2416,-144.9917 121,-132 112.4404,-116.6438 104.0448,-98.5257 98.1542,-85.1613"/>
<polygon fill="#191970" stroke="#191970" points="101.2007,-83.3889 94.0119,-75.6061 94.7782,-86.1731 101.2007,-83.3889"/>
</g>
<!-- Node7 -->
<g id="node8" class="node">
<title>Node7</title>
<polygon fill="none" stroke="#bfbfbf" points="208,-.5 208,-19.5 256,-19.5 256,-.5 208,-.5"/>
<text text-anchor="middle" x="232" y="-7.5" font-family="Helvetica,sans-Serif" font-size="10.00" fill="#000000">Rcpp.h</text>
</g>
<!-- Node0&#45;&gt;Node7 -->
<g id="edge9" class="edge">
<title>Node0&#45;&gt;Node7</title>
<path fill="none" stroke="#191970" d="M157.6828,-168.3948C163.8804,-159.2675 173.1509,-145.038 180,-132 198.4679,-96.8441 215.6547,-53.6815 224.9037,-29.259"/>
<polygon fill="#191970" stroke="#191970" points="228.241,-30.327 228.4667,-19.7345 221.6847,-27.8743 228.241,-30.327"/>
</g>
<!-- Node1&#45;&gt;Node2 -->
<g id="edge2" class="edge">
<title>Node1&#45;&gt;Node2</title>
<path fill="none" stroke="#191970" d="M140.3746,-112.2455C131.4527,-104.0549 118.512,-92.1749 107.9808,-82.5069"/>
<polygon fill="#191970" stroke="#191970" points="110.2371,-79.8271 100.5036,-75.6427 105.5032,-84.9837 110.2371,-79.8271"/>
</g>
<!-- Node3 -->
<g id="node4" class="node">
<title>Node3</title>
<g id="a_node4"><a xlink:href="functions_8h.html" target="_top" xlink:title="functions.h">
<polygon fill="none" stroke="#000000" points="130.5,-56.5 130.5,-75.5 195.5,-75.5 195.5,-56.5 130.5,-56.5"/>
<text text-anchor="middle" x="163" y="-63.5" font-family="Helvetica,sans-Serif" font-size="10.00" fill="#000000">functions.h</text>
</a>
</g>
</g>
<!-- Node1&#45;&gt;Node3 -->
<g id="edge3" class="edge">
<title>Node1&#45;&gt;Node3</title>
<path fill="none" stroke="#191970" d="M153.0902,-112.2455C154.6561,-104.9382 156.8512,-94.6944 158.7776,-85.7046"/>
<polygon fill="#191970" stroke="#191970" points="162.2607,-86.1541 160.9337,-75.6427 155.416,-84.6873 162.2607,-86.1541"/>
</g>
<!-- Node4 -->
<g id="node5" class="node">
<title>Node4</title>
<polygon fill="none" stroke="#bfbfbf" points="0,-.5 0,-19.5 44,-19.5 44,-.5 0,-.5"/>
<text text-anchor="middle" x="22" y="-7.5" font-family="Helvetica,sans-Serif" font-size="10.00" fill="#000000">cmath</text>
</g>
<!-- Node3&#45;&gt;Node4 -->
<g id="edge4" class="edge">
<title>Node3&#45;&gt;Node4</title>
<path fill="none" stroke="#191970" d="M138.7612,-56.3733C115.1625,-47.0007 79.1823,-32.7107 53.4026,-22.472"/>
<polygon fill="#191970" stroke="#191970" points="54.6545,-19.2033 44.0688,-18.7649 52.0707,-25.709 54.6545,-19.2033"/>
</g>
<!-- Node5 -->
<g id="node6" class="node">
<title>Node5</title>
<polygon fill="none" stroke="#bfbfbf" points="62,-.5 62,-19.5 118,-19.5 118,-.5 62,-.5"/>
<text text-anchor="middle" x="90" y="-7.5" font-family="Helvetica,sans-Serif" font-size="10.00" fill="#000000">algorithm</text>
</g>
<!-- Node3&#45;&gt;Node5 -->
<g id="edge5" class="edge">
<title>Node3&#45;&gt;Node5</title>
<path fill="none" stroke="#191970" d="M150.2844,-56.2455C139.398,-47.8943 123.5117,-35.7076 110.78,-25.9408"/>
<polygon fill="#191970" stroke="#191970" points="112.6346,-22.9523 102.5699,-19.6427 108.3739,-28.5063 112.6346,-22.9523"/>
</g>
<!-- Node6 -->
<g id="node7" class="node">
<title>Node6</title>
<polygon fill="none" stroke="#bfbfbf" points="136,-.5 136,-19.5 190,-19.5 190,-.5 136,-.5"/>
<text text-anchor="middle" x="163" y="-7.5" font-family="Helvetica,sans-Serif" font-size="10.00" fill="#000000">iostream</text>
</g>
<!-- Node3&#45;&gt;Node6 -->
<g id="edge6" class="edge">
<title>Node3&#45;&gt;Node6</title>
<path fill="none" stroke="#191970" d="M163,-56.2455C163,-48.9382 163,-38.6944 163,-29.7046"/>
<polygon fill="#191970" stroke="#191970" points="166.5001,-29.6426 163,-19.6427 159.5001,-29.6427 166.5001,-29.6426"/>
</g>
<!-- Node3&#45;&gt;Node7 -->
<g id="edge7" class="edge">
<title>Node3&#45;&gt;Node7</title>
<path fill="none" stroke="#191970" d="M175.0189,-56.2455C185.2098,-47.9746 200.0362,-35.9416 212.0107,-26.2232"/>
<polygon fill="#191970" stroke="#191970" points="214.5598,-28.662 220.1188,-19.6427 210.1486,-23.2268 214.5598,-28.662"/>
</g>
</g>
</svg>
