<?xml version="1.0" encoding="UTF-8" standalone="no"?>
<!DOCTYPE svg PUBLIC "-//W3C//DTD SVG 1.1//EN"
 "http://www.w3.org/Graphics/SVG/1.1/DTD/svg11.dtd">
<!-- Generated by graphviz version 2.40.1 (20161225.0304)
 -->
<!-- Title: src/population.cpp Pages: 1 -->
<svg width="343pt" height="252pt"
 viewBox="0.00 0.00 342.99 252.00" xmlns="http://www.w3.org/2000/svg" xmlns:xlink="http://www.w3.org/1999/xlink">
<g id="graph0" class="graph" transform="scale(1 1) rotate(0) translate(4 248)">
<title>src/population.cpp</title>
<!-- Node0 -->
<g id="node1" class="node">
<title>Node0</title>
<polygon fill="#bfbfbf" stroke="#000000" points="171,-224.5 171,-243.5 267,-243.5 267,-224.5 171,-224.5"/>
<text text-anchor="middle" x="219" y="-231.5" font-family="Helvetica,sans-Serif" font-size="10.00" fill="#000000">src/population.cpp</text>
</g>
<!-- Node1 -->
<g id="node2" class="node">
<title>Node1</title>
<g id="a_node2"><a xlink:href="population_8h.html" target="_top" xlink:title="population.h">
<polygon fill="none" stroke="#000000" points="37.5,-168.5 37.5,-187.5 106.5,-187.5 106.5,-168.5 37.5,-168.5"/>
<text text-anchor="middle" x="72" y="-175.5" font-family="Helvetica,sans-Serif" font-size="10.00" fill="#000000">population.h</text>
</a>
</g>
</g>
<!-- Node0&#45;&gt;Node1 -->
<g id="edge1" class="edge">
<title>Node0&#45;&gt;Node1</title>
<path fill="none" stroke="#191970" d="M193.7298,-224.3733C169.6034,-215.1822 133.0638,-201.2624 106.3123,-191.0713"/>
<polygon fill="#191970" stroke="#191970" points="107.5313,-187.7904 96.9404,-187.5011 105.0393,-194.3318 107.5313,-187.7904"/>
</g>
<!-- Node5 -->
<g id="node6" class="node">
<title>Node5</title>
<polygon fill="none" stroke="#bfbfbf" points="238,-.5 238,-19.5 282,-19.5 282,-.5 238,-.5"/>
<text text-anchor="middle" x="260" y="-7.5" font-family="Helvetica,sans-Serif" font-size="10.00" fill="#000000">cmath</text>
</g>
<!-- Node0&#45;&gt;Node5 -->
<g id="edge14" class="edge">
<title>Node0&#45;&gt;Node5</title>
<path fill="none" stroke="#191970" d="M255.7089,-224.4577C276.0285,-217.4435 300.2785,-205.9435 316,-188 333.2282,-168.3367 329.9511,-157.8276 334,-132 340.687,-89.3436 303.9654,-48.2187 279.8447,-26.3134"/>
<polygon fill="#191970" stroke="#191970" points="282.0585,-23.5998 272.2286,-19.647 277.4481,-28.867 282.0585,-23.5998"/>
</g>
<!-- Node6 -->
<g id="node7" class="node">
<title>Node6</title>
<polygon fill="none" stroke="#bfbfbf" points="92,-.5 92,-19.5 148,-19.5 148,-.5 92,-.5"/>
<text text-anchor="middle" x="120" y="-7.5" font-family="Helvetica,sans-Serif" font-size="10.00" fill="#000000">algorithm</text>
</g>
<!-- Node0&#45;&gt;Node6 -->
<g id="edge15" class="edge">
<title>Node0&#45;&gt;Node6</title>
<path fill="none" stroke="#191970" d="M216.4274,-224.0881C207.8038,-191.2189 179.4816,-86.1854 162,-56 155.7572,-45.2207 146.6292,-34.8287 138.4762,-26.6578"/>
<polygon fill="#191970" stroke="#191970" points="140.7229,-23.9629 131.0843,-19.5644 135.8762,-29.0136 140.7229,-23.9629"/>
</g>
<!-- Node7 -->
<g id="node8" class="node">
<title>Node7</title>
<polygon fill="none" stroke="#bfbfbf" points="166,-.5 166,-19.5 220,-19.5 220,-.5 166,-.5"/>
<text text-anchor="middle" x="193" y="-7.5" font-family="Helvetica,sans-Serif" font-size="10.00" fill="#000000">iostream</text>
</g>
<!-- Node0&#45;&gt;Node7 -->
<g id="edge16" class="edge">
<title>Node0&#45;&gt;Node7</title>
<path fill="none" stroke="#191970" d="M217.8828,-224.375C213.9408,-190.4133 200.6314,-75.7472 195.2679,-29.5392"/>
<polygon fill="#191970" stroke="#191970" points="198.7427,-29.1189 194.113,-19.5891 191.7894,-29.926 198.7427,-29.1189"/>
</g>
<!-- Node9 -->
<g id="node10" class="node">
<title>Node9</title>
<g id="a_node10"><a xlink:href="pn__zero_8h.html" target="_top" xlink:title="pn_zero.h">
<polygon fill="none" stroke="#000000" points="247.5,-168.5 247.5,-187.5 306.5,-187.5 306.5,-168.5 247.5,-168.5"/>
<text text-anchor="middle" x="277" y="-175.5" font-family="Helvetica,sans-Serif" font-size="10.00" fill="#000000">pn_zero.h</text>
</a>
</g>
</g>
<!-- Node0&#45;&gt;Node9 -->
<g id="edge11" class="edge">
<title>Node0&#45;&gt;Node9</title>
<path fill="none" stroke="#191970" d="M229.1028,-224.2455C237.5028,-216.1352 249.6494,-204.4075 259.6084,-194.7919"/>
<polygon fill="#191970" stroke="#191970" points="262.25,-197.1066 267.0129,-187.6427 257.3878,-192.0707 262.25,-197.1066"/>
</g>
<!-- Node2 -->
<g id="node3" class="node">
<title>Node2</title>
<g id="a_node3"><a xlink:href="fish_8h.html" target="_top" xlink:title="fish.h">
<polygon fill="none" stroke="#000000" points="75.5,-112.5 75.5,-131.5 116.5,-131.5 116.5,-112.5 75.5,-112.5"/>
<text text-anchor="middle" x="96" y="-119.5" font-family="Helvetica,sans-Serif" font-size="10.00" fill="#000000">fish.h</text>
</a>
</g>
</g>
<!-- Node1&#45;&gt;Node2 -->
<g id="edge2" class="edge">
<title>Node1&#45;&gt;Node2</title>
<path fill="none" stroke="#191970" d="M76.1805,-168.2455C79.381,-160.7776 83.896,-150.2427 87.8084,-141.1137"/>
<polygon fill="#191970" stroke="#191970" points="91.1452,-142.2129 91.8674,-131.6427 84.7112,-139.4554 91.1452,-142.2129"/>
</g>
<!-- Node3 -->
<g id="node4" class="node">
<title>Node3</title>
<polygon fill="none" stroke="#bfbfbf" points="25,-56.5 25,-75.5 69,-75.5 69,-56.5 25,-56.5"/>
<text text-anchor="middle" x="47" y="-63.5" font-family="Helvetica,sans-Serif" font-size="10.00" fill="#000000">vector</text>
</g>
<!-- Node1&#45;&gt;Node3 -->
<g id="edge9" class="edge">
<title>Node1&#45;&gt;Node3</title>
<path fill="none" stroke="#191970" d="M69.8685,-168.4509C65.7726,-150.1013 56.7301,-109.5908 51.3235,-85.3693"/>
<polygon fill="#191970" stroke="#191970" points="54.7206,-84.5222 49.1261,-75.5249 47.8888,-86.0472 54.7206,-84.5222"/>
</g>
<!-- Node8 -->
<g id="node9" class="node">
<title>Node8</title>
<polygon fill="none" stroke="#bfbfbf" points="0,-.5 0,-19.5 48,-19.5 48,-.5 0,-.5"/>
<text text-anchor="middle" x="24" y="-7.5" font-family="Helvetica,sans-Serif" font-size="10.00" fill="#000000">Rcpp.h</text>
</g>
<!-- Node1&#45;&gt;Node8 -->
<g id="edge10" class="edge">
<title>Node1&#45;&gt;Node8</title>
<path fill="none" stroke="#191970" d="M64.4494,-168.297C51.488,-150.955 25.4848,-112.9843 16,-76 12.0575,-60.627 14.658,-42.7278 17.9102,-29.4511"/>
<polygon fill="#191970" stroke="#191970" points="21.3584,-30.1149 20.6661,-19.5427 14.6144,-28.2391 21.3584,-30.1149"/>
</g>
<!-- Node2&#45;&gt;Node3 -->
<g id="edge3" class="edge">
<title>Node2&#45;&gt;Node3</title>
<path fill="none" stroke="#191970" d="M87.4649,-112.2455C80.5088,-104.2958 70.5117,-92.8706 62.1949,-83.3656"/>
<polygon fill="#191970" stroke="#191970" points="64.6564,-80.8637 55.4373,-75.6427 59.3884,-85.4732 64.6564,-80.8637"/>
</g>
<!-- Node4 -->
<g id="node5" class="node">
<title>Node4</title>
<g id="a_node5"><a xlink:href="functions_8h.html" target="_top" xlink:title="functions.h">
<polygon fill="none" stroke="#000000" points="87.5,-56.5 87.5,-75.5 152.5,-75.5 152.5,-56.5 87.5,-56.5"/>
<text text-anchor="middle" x="120" y="-63.5" font-family="Helvetica,sans-Serif" font-size="10.00" fill="#000000">functions.h</text>
</a>
</g>
</g>
<!-- Node2&#45;&gt;Node4 -->
<g id="edge4" class="edge">
<title>Node2&#45;&gt;Node4</title>
<path fill="none" stroke="#191970" d="M100.1805,-112.2455C103.381,-104.7776 107.896,-94.2427 111.8084,-85.1137"/>
<polygon fill="#191970" stroke="#191970" points="115.1452,-86.2129 115.8674,-75.6427 108.7112,-83.4554 115.1452,-86.2129"/>
</g>
<!-- Node4&#45;&gt;Node5 -->
<g id="edge5" class="edge">
<title>Node4&#45;&gt;Node5</title>
<path fill="none" stroke="#191970" d="M144.0669,-56.3733C167.2569,-47.0972 202.4888,-33.0045 228.0263,-22.7895"/>
<polygon fill="#191970" stroke="#191970" points="229.6478,-25.9106 237.6327,-18.9469 227.048,-19.4112 229.6478,-25.9106"/>
</g>
<!-- Node4&#45;&gt;Node6 -->
<g id="edge6" class="edge">
<title>Node4&#45;&gt;Node6</title>
<path fill="none" stroke="#191970" d="M120,-56.2455C120,-48.9382 120,-38.6944 120,-29.7046"/>
<polygon fill="#191970" stroke="#191970" points="123.5001,-29.6426 120,-19.6427 116.5001,-29.6427 123.5001,-29.6426"/>
</g>
<!-- Node4&#45;&gt;Node7 -->
<g id="edge7" class="edge">
<title>Node4&#45;&gt;Node7</title>
<path fill="none" stroke="#191970" d="M132.7156,-56.2455C143.602,-47.8943 159.4883,-35.7076 172.22,-25.9408"/>
<polygon fill="#191970" stroke="#191970" points="174.6261,-28.5063 180.4301,-19.6427 170.3654,-22.9523 174.6261,-28.5063"/>
</g>
<!-- Node4&#45;&gt;Node8 -->
<g id="edge8" class="edge">
<title>Node4&#45;&gt;Node8</title>
<path fill="none" stroke="#191970" d="M103.2781,-56.2455C88.4111,-47.5731 66.4534,-34.7645 49.4142,-24.825"/>
<polygon fill="#191970" stroke="#191970" points="50.9317,-21.6582 40.5303,-19.6427 47.4045,-27.7047 50.9317,-21.6582"/>
</g>
<!-- Node9&#45;&gt;Node5 -->
<g id="edge12" class="edge">
<title>Node9&#45;&gt;Node5</title>
<path fill="none" stroke="#191970" d="M276.0373,-168.4862C273.35,-141.9293 265.7239,-66.5651 262.0406,-30.1655"/>
<polygon fill="#191970" stroke="#191970" points="265.4836,-29.4247 260.9945,-19.8279 258.5191,-30.1295 265.4836,-29.4247"/>
</g>
<!-- Node10 -->
<g id="node11" class="node">
<title>Node10</title>
<polygon fill="none" stroke="#bfbfbf" points="285,-112.5 285,-131.5 325,-131.5 325,-112.5 285,-112.5"/>
<text text-anchor="middle" x="305" y="-119.5" font-family="Helvetica,sans-Serif" font-size="10.00" fill="#000000">limits</text>
</g>
<!-- Node9&#45;&gt;Node10 -->
<g id="edge13" class="edge">
<title>Node9&#45;&gt;Node10</title>
<path fill="none" stroke="#191970" d="M281.8772,-168.2455C285.6513,-160.6973 290.9921,-150.0158 295.5901,-140.8197"/>
<polygon fill="#191970" stroke="#191970" points="298.837,-142.1522 300.1787,-131.6427 292.576,-139.0217 298.837,-142.1522"/>
</g>
</g>
</svg>
