<?xml version="1.0" encoding="UTF-8" standalone="no"?>
<!DOCTYPE svg PUBLIC "-//W3C//DTD SVG 1.1//EN"
 "http://www.w3.org/Graphics/SVG/1.1/DTD/svg11.dtd">
<!-- Generated by graphviz version 2.40.1 (20161225.0304)
 -->
<!-- Title: src/RcppExports.cpp Pages: 1 -->
<svg width="282pt" height="308pt"
 viewBox="0.00 0.00 281.50 308.00" xmlns="http://www.w3.org/2000/svg" xmlns:xlink="http://www.w3.org/1999/xlink">
<g id="graph0" class="graph" transform="scale(1 1) rotate(0) translate(4 304)">
<title>src/RcppExports.cpp</title>
<!-- Node0 -->
<g id="node1" class="node">
<title>Node0</title>
<polygon fill="#bfbfbf" stroke="#000000" points="164.5,-280.5 164.5,-299.5 273.5,-299.5 273.5,-280.5 164.5,-280.5"/>
<text text-anchor="middle" x="219" y="-287.5" font-family="Helvetica,sans-Serif" font-size="10.00" fill="#000000">src/RcppExports.cpp</text>
</g>
<!-- Node1 -->
<g id="node2" class="node">
<title>Node1</title>
<g id="a_node2"><a xlink:href="rfish_8h.html" target="_top" xlink:title="../inst/include/rfish.h">
<polygon fill="none" stroke="#000000" points="126.5,-224.5 126.5,-243.5 231.5,-243.5 231.5,-224.5 126.5,-224.5"/>
<text text-anchor="middle" x="179" y="-231.5" font-family="Helvetica,sans-Serif" font-size="10.00" fill="#000000">../inst/include/rfish.h</text>
</a>
</g>
</g>
<!-- Node0&#45;&gt;Node1 -->
<g id="edge1" class="edge">
<title>Node0&#45;&gt;Node1</title>
<path fill="none" stroke="#191970" d="M212.0325,-280.2455C206.4689,-272.4564 198.522,-261.3308 191.8171,-251.9439"/>
<polygon fill="#191970" stroke="#191970" points="194.5481,-249.7457 185.8876,-243.6427 188.852,-253.8144 194.5481,-249.7457"/>
</g>
<!-- Node8 -->
<g id="node9" class="node">
<title>Node8</title>
<polygon fill="none" stroke="#bfbfbf" points="208,-.5 208,-19.5 256,-19.5 256,-.5 208,-.5"/>
<text text-anchor="middle" x="232" y="-7.5" font-family="Helvetica,sans-Serif" font-size="10.00" fill="#000000">Rcpp.h</text>
</g>
<!-- Node0&#45;&gt;Node8 -->
<g id="edge13" class="edge">
<title>Node0&#45;&gt;Node8</title>
<path fill="none" stroke="#191970" d="M225.227,-280.2504C236.6966,-261.3274 260,-217.9633 260,-178 260,-178 260,-178 260,-122 260,-88.5848 248.1246,-51.1911 239.8415,-29.1729"/>
<polygon fill="#191970" stroke="#191970" points="243.0326,-27.7229 236.1315,-19.6839 236.5132,-30.2719 243.0326,-27.7229"/>
</g>
<!-- Node2 -->
<g id="node3" class="node">
<title>Node2</title>
<g id="a_node3"><a xlink:href="fish_8h.html" target="_top" xlink:title="fish.h">
<polygon fill="none" stroke="#000000" points="108.5,-112.5 108.5,-131.5 149.5,-131.5 149.5,-112.5 108.5,-112.5"/>
<text text-anchor="middle" x="129" y="-119.5" font-family="Helvetica,sans-Serif" font-size="10.00" fill="#000000">fish.h</text>
</a>
</g>
</g>
<!-- Node1&#45;&gt;Node2 -->
<g id="edge2" class="edge">
<title>Node1&#45;&gt;Node2</title>
<path fill="none" stroke="#191970" d="M171.1448,-224.3119C164.2162,-215.3557 154.272,-201.4392 148,-188 141.0664,-173.1432 136.0998,-155.2058 132.9874,-141.7829"/>
<polygon fill="#191970" stroke="#191970" points="136.3483,-140.7663 130.8066,-131.7363 129.5076,-142.2512 136.3483,-140.7663"/>
</g>
<!-- Node9 -->
<g id="node10" class="node">
<title>Node9</title>
<g id="a_node10"><a xlink:href="population_8h.html" target="_top" xlink:title="population.h">
<polygon fill="none" stroke="#000000" points="157.5,-168.5 157.5,-187.5 226.5,-187.5 226.5,-168.5 157.5,-168.5"/>
<text text-anchor="middle" x="192" y="-175.5" font-family="Helvetica,sans-Serif" font-size="10.00" fill="#000000">population.h</text>
</a>
</g>
</g>
<!-- Node1&#45;&gt;Node9 -->
<g id="edge9" class="edge">
<title>Node1&#45;&gt;Node9</title>
<path fill="none" stroke="#191970" d="M181.2644,-224.2455C182.9794,-216.8579 185.3912,-206.4689 187.4944,-197.4087"/>
<polygon fill="#191970" stroke="#191970" points="190.9095,-198.1751 189.7615,-187.6427 184.0908,-196.5922 190.9095,-198.1751"/>
</g>
<!-- Node3 -->
<g id="node4" class="node">
<title>Node3</title>
<polygon fill="none" stroke="#bfbfbf" points="150,-56.5 150,-75.5 194,-75.5 194,-56.5 150,-56.5"/>
<text text-anchor="middle" x="172" y="-63.5" font-family="Helvetica,sans-Serif" font-size="10.00" fill="#000000">vector</text>
</g>
<!-- Node2&#45;&gt;Node3 -->
<g id="edge3" class="edge">
<title>Node2&#45;&gt;Node3</title>
<path fill="none" stroke="#191970" d="M136.49,-112.2455C142.5326,-104.3761 151.1903,-93.101 158.4441,-83.6542"/>
<polygon fill="#191970" stroke="#191970" points="161.2815,-85.7058 164.5958,-75.6427 155.7295,-81.4426 161.2815,-85.7058"/>
</g>
<!-- Node4 -->
<g id="node5" class="node">
<title>Node4</title>
<g id="a_node5"><a xlink:href="functions_8h.html" target="_top" xlink:title="functions.h">
<polygon fill="none" stroke="#000000" points="66.5,-56.5 66.5,-75.5 131.5,-75.5 131.5,-56.5 66.5,-56.5"/>
<text text-anchor="middle" x="99" y="-63.5" font-family="Helvetica,sans-Serif" font-size="10.00" fill="#000000">functions.h</text>
</a>
</g>
</g>
<!-- Node2&#45;&gt;Node4 -->
<g id="edge4" class="edge">
<title>Node2&#45;&gt;Node4</title>
<path fill="none" stroke="#191970" d="M123.7744,-112.2455C119.6877,-104.617 113.8865,-93.7881 108.925,-84.5267"/>
<polygon fill="#191970" stroke="#191970" points="111.9732,-82.8047 104.1657,-75.6427 105.8028,-86.1103 111.9732,-82.8047"/>
</g>
<!-- Node5 -->
<g id="node6" class="node">
<title>Node5</title>
<polygon fill="none" stroke="#bfbfbf" points="0,-.5 0,-19.5 44,-19.5 44,-.5 0,-.5"/>
<text text-anchor="middle" x="22" y="-7.5" font-family="Helvetica,sans-Serif" font-size="10.00" fill="#000000">cmath</text>
</g>
<!-- Node4&#45;&gt;Node5 -->
<g id="edge5" class="edge">
<title>Node4&#45;&gt;Node5</title>
<path fill="none" stroke="#191970" d="M85.5876,-56.2455C73.9943,-47.814 57.0252,-35.4729 43.5322,-25.6598"/>
<polygon fill="#191970" stroke="#191970" points="45.4047,-22.6938 35.2587,-19.6427 41.2874,-28.355 45.4047,-22.6938"/>
</g>
<!-- Node6 -->
<g id="node7" class="node">
<title>Node6</title>
<polygon fill="none" stroke="#bfbfbf" points="62,-.5 62,-19.5 118,-19.5 118,-.5 62,-.5"/>
<text text-anchor="middle" x="90" y="-7.5" font-family="Helvetica,sans-Serif" font-size="10.00" fill="#000000">algorithm</text>
</g>
<!-- Node4&#45;&gt;Node6 -->
<g id="edge6" class="edge">
<title>Node4&#45;&gt;Node6</title>
<path fill="none" stroke="#191970" d="M97.4323,-56.2455C96.2579,-48.9382 94.6116,-38.6944 93.1668,-29.7046"/>
<polygon fill="#191970" stroke="#191970" points="96.5922,-28.9606 91.5497,-19.6427 89.6809,-30.0714 96.5922,-28.9606"/>
</g>
<!-- Node7 -->
<g id="node8" class="node">
<title>Node7</title>
<polygon fill="none" stroke="#bfbfbf" points="136,-.5 136,-19.5 190,-19.5 190,-.5 136,-.5"/>
<text text-anchor="middle" x="163" y="-7.5" font-family="Helvetica,sans-Serif" font-size="10.00" fill="#000000">iostream</text>
</g>
<!-- Node4&#45;&gt;Node7 -->
<g id="edge7" class="edge">
<title>Node4&#45;&gt;Node7</title>
<path fill="none" stroke="#191970" d="M110.1479,-56.2455C119.5087,-48.0549 133.0858,-36.1749 144.1349,-26.5069"/>
<polygon fill="#191970" stroke="#191970" points="146.7588,-28.8618 151.9798,-19.6427 142.1492,-23.5937 146.7588,-28.8618"/>
</g>
<!-- Node4&#45;&gt;Node8 -->
<g id="edge8" class="edge">
<title>Node4&#45;&gt;Node8</title>
<path fill="none" stroke="#191970" d="M121.8635,-56.3733C143.405,-47.3032 175.8838,-33.6279 199.9956,-23.4755"/>
<polygon fill="#191970" stroke="#191970" points="201.5767,-26.6075 209.4348,-19.5011 198.8603,-20.156 201.5767,-26.6075"/>
</g>
<!-- Node9&#45;&gt;Node2 -->
<g id="edge10" class="edge">
<title>Node9&#45;&gt;Node2</title>
<path fill="none" stroke="#191970" d="M181.0262,-168.2455C171.8118,-160.0549 158.4468,-148.1749 147.5703,-138.5069"/>
<polygon fill="#191970" stroke="#191970" points="149.6474,-135.6704 139.848,-131.6427 144.9968,-140.9023 149.6474,-135.6704"/>
</g>
<!-- Node9&#45;&gt;Node3 -->
<g id="edge11" class="edge">
<title>Node9&#45;&gt;Node3</title>
<path fill="none" stroke="#191970" d="M190.2948,-168.4509C187.0181,-150.1013 179.7841,-109.5908 175.4588,-85.3693"/>
<polygon fill="#191970" stroke="#191970" points="178.9044,-84.7539 173.7009,-75.5249 172.0134,-85.9845 178.9044,-84.7539"/>
</g>
<!-- Node9&#45;&gt;Node8 -->
<g id="edge12" class="edge">
<title>Node9&#45;&gt;Node8</title>
<path fill="none" stroke="#191970" d="M194.2652,-168.4862C200.6156,-141.8144 218.6877,-65.9117 227.3107,-29.695"/>
<polygon fill="#191970" stroke="#191970" points="230.7486,-30.3666 229.66,-19.8279 223.9389,-28.7452 230.7486,-30.3666"/>
</g>
</g>
</svg>
