<?xml version="1.0" encoding="UTF-8" standalone="no"?>
<!DOCTYPE svg PUBLIC "-//W3C//DTD SVG 1.1//EN"
 "http://www.w3.org/Graphics/SVG/1.1/DTD/svg11.dtd">
<!-- Generated by graphviz version 2.40.1 (20161225.0304)
 -->
<!-- Title: src/RcppExports.cpp Pages: 1 -->
<svg width="762pt" height="308pt"
 viewBox="0.00 0.00 762.00 308.00" xmlns="http://www.w3.org/2000/svg" xmlns:xlink="http://www.w3.org/1999/xlink">
<g id="graph0" class="graph" transform="scale(1 1) rotate(0) translate(4 304)">
<title>src/RcppExports.cpp</title>
<!-- Node0 -->
<g id="node1" class="node">
<title>Node0</title>
<polygon fill="#bfbfbf" stroke="#000000" points="630.5,-280.5 630.5,-299.5 739.5,-299.5 739.5,-280.5 630.5,-280.5"/>
<text text-anchor="middle" x="685" y="-287.5" font-family="Helvetica,sans-Serif" font-size="10.00" fill="#000000">src/RcppExports.cpp</text>
</g>
<!-- Node1 -->
<g id="node2" class="node">
<title>Node1</title>
<g id="a_node2"><a xlink:href="fisheRy_8h.html" target="_top" xlink:title="../inst/include/fisheRy.h">
<polygon fill="none" stroke="#000000" points="549,-224.5 549,-243.5 669,-243.5 669,-224.5 549,-224.5"/>
<text text-anchor="middle" x="609" y="-231.5" font-family="Helvetica,sans-Serif" font-size="10.00" fill="#000000">../inst/include/fisheRy.h</text>
</a>
</g>
</g>
<!-- Node0&#45;&gt;Node1 -->
<g id="edge1" class="edge">
<title>Node0&#45;&gt;Node1</title>
<path fill="none" stroke="#191970" d="M671.7618,-280.2455C660.319,-271.814 643.5704,-259.4729 630.2525,-249.6598"/>
<polygon fill="#191970" stroke="#191970" points="632.2133,-246.757 622.0865,-243.6427 628.0609,-252.3924 632.2133,-246.757"/>
</g>
<!-- Node9 -->
<g id="node10" class="node">
<title>Node9</title>
<polygon fill="none" stroke="#bfbfbf" points="706,-.5 706,-19.5 754,-19.5 754,-.5 706,-.5"/>
<text text-anchor="middle" x="730" y="-7.5" font-family="Helvetica,sans-Serif" font-size="10.00" fill="#000000">Rcpp.h</text>
</g>
<!-- Node0&#45;&gt;Node9 -->
<g id="edge24" class="edge">
<title>Node0&#45;&gt;Node9</title>
<path fill="none" stroke="#191970" d="M691.8345,-280.3377C704.4231,-261.5638 730,-218.4436 730,-178 730,-178 730,-178 730,-122 730,-89.7116 730,-52.1872 730,-29.8048"/>
<polygon fill="#191970" stroke="#191970" points="733.5001,-29.5883 730,-19.5884 726.5001,-29.5884 733.5001,-29.5883"/>
</g>
<!-- Node2 -->
<g id="node3" class="node">
<title>Node2</title>
<g id="a_node3"><a xlink:href="fish_8h.html" target="_top" xlink:title="fish.h">
<polygon fill="none" stroke="#000000" points="557.5,-112.5 557.5,-131.5 598.5,-131.5 598.5,-112.5 557.5,-112.5"/>
<text text-anchor="middle" x="578" y="-119.5" font-family="Helvetica,sans-Serif" font-size="10.00" fill="#000000">fish.h</text>
</a>
</g>
</g>
<!-- Node1&#45;&gt;Node2 -->
<g id="edge2" class="edge">
<title>Node1&#45;&gt;Node2</title>
<path fill="none" stroke="#191970" d="M606.357,-224.4509C601.278,-206.1013 590.0653,-165.5908 583.3612,-141.3693"/>
<polygon fill="#191970" stroke="#191970" points="586.6772,-140.2289 580.6364,-131.5249 579.9308,-142.0962 586.6772,-140.2289"/>
</g>
<!-- Node17 -->
<g id="node18" class="node">
<title>Node17</title>
<g id="a_node18"><a xlink:href="population_8h.html" target="_top" xlink:title="population.h">
<polygon fill="none" stroke="#000000" points="511.5,-168.5 511.5,-187.5 580.5,-187.5 580.5,-168.5 511.5,-168.5"/>
<text text-anchor="middle" x="546" y="-175.5" font-family="Helvetica,sans-Serif" font-size="10.00" fill="#000000">population.h</text>
</a>
</g>
</g>
<!-- Node1&#45;&gt;Node17 -->
<g id="edge19" class="edge">
<title>Node1&#45;&gt;Node17</title>
<path fill="none" stroke="#191970" d="M598.0262,-224.2455C588.8118,-216.0549 575.4468,-204.1749 564.5703,-194.5069"/>
<polygon fill="#191970" stroke="#191970" points="566.6474,-191.6704 556.848,-187.6427 561.9968,-196.9023 566.6474,-191.6704"/>
</g>
<!-- Node3 -->
<g id="node4" class="node">
<title>Node3</title>
<polygon fill="none" stroke="#bfbfbf" points="0,-.5 0,-19.5 44,-19.5 44,-.5 0,-.5"/>
<text text-anchor="middle" x="22" y="-7.5" font-family="Helvetica,sans-Serif" font-size="10.00" fill="#000000">vector</text>
</g>
<!-- Node2&#45;&gt;Node3 -->
<g id="edge3" class="edge">
<title>Node2&#45;&gt;Node3</title>
<path fill="none" stroke="#191970" d="M557.2469,-114.2441C554.4995,-113.3947 551.6999,-112.6162 549,-112 415.0649,-81.4308 376.5752,-103.6152 242,-76 173.6518,-61.9748 95.9598,-36.2895 53.6259,-21.4351"/>
<polygon fill="#191970" stroke="#191970" points="54.7439,-18.1181 44.1492,-18.0829 52.4096,-24.7174 54.7439,-18.1181"/>
</g>
<!-- Node4 -->
<g id="node5" class="node">
<title>Node4</title>
<polygon fill="none" stroke="#bfbfbf" points="628.5,-56.5 628.5,-75.5 663.5,-75.5 663.5,-56.5 628.5,-56.5"/>
<text text-anchor="middle" x="646" y="-63.5" font-family="Helvetica,sans-Serif" font-size="10.00" fill="#000000">map</text>
</g>
<!-- Node2&#45;&gt;Node4 -->
<g id="edge4" class="edge">
<title>Node2&#45;&gt;Node4</title>
<path fill="none" stroke="#191970" d="M589.8447,-112.2455C599.888,-103.9746 614.4995,-91.9416 626.3004,-82.2232"/>
<polygon fill="#191970" stroke="#191970" points="628.7967,-84.7015 634.291,-75.6427 624.3467,-79.298 628.7967,-84.7015"/>
</g>
<!-- Node5 -->
<g id="node6" class="node">
<title>Node5</title>
<g id="a_node6"><a xlink:href="functions_8h.html" target="_top" xlink:title="functions.h">
<polygon fill="none" stroke="#000000" points="545.5,-56.5 545.5,-75.5 610.5,-75.5 610.5,-56.5 545.5,-56.5"/>
<text text-anchor="middle" x="578" y="-63.5" font-family="Helvetica,sans-Serif" font-size="10.00" fill="#000000">functions.h</text>
</a>
</g>
</g>
<!-- Node2&#45;&gt;Node5 -->
<g id="edge5" class="edge">
<title>Node2&#45;&gt;Node5</title>
<path fill="none" stroke="#191970" d="M578,-112.2455C578,-104.9382 578,-94.6944 578,-85.7046"/>
<polygon fill="#191970" stroke="#191970" points="581.5001,-85.6426 578,-75.6427 574.5001,-85.6427 581.5001,-85.6426"/>
</g>
<!-- Node10 -->
<g id="node11" class="node">
<title>Node10</title>
<g id="a_node11"><a xlink:href="initializer__v2_8h.html" target="_top" xlink:title="initializer_v2.h">
<polygon fill="none" stroke="#000000" points="250.5,-56.5 250.5,-75.5 329.5,-75.5 329.5,-56.5 250.5,-56.5"/>
<text text-anchor="middle" x="290" y="-63.5" font-family="Helvetica,sans-Serif" font-size="10.00" fill="#000000">initializer_v2.h</text>
</a>
</g>
</g>
<!-- Node2&#45;&gt;Node10 -->
<g id="edge10" class="edge">
<title>Node2&#45;&gt;Node10</title>
<path fill="none" stroke="#191970" d="M557.21,-114.3954C554.4686,-113.5213 551.6805,-112.6956 549,-112 477.3056,-93.394 392.4972,-79.9001 339.9681,-72.5088"/>
<polygon fill="#191970" stroke="#191970" points="340.2924,-69.0203 329.9061,-71.1122 339.33,-75.9538 340.2924,-69.0203"/>
</g>
<!-- Node6 -->
<g id="node7" class="node">
<title>Node6</title>
<polygon fill="none" stroke="#bfbfbf" points="570,-.5 570,-19.5 614,-19.5 614,-.5 570,-.5"/>
<text text-anchor="middle" x="592" y="-7.5" font-family="Helvetica,sans-Serif" font-size="10.00" fill="#000000">cmath</text>
</g>
<!-- Node5&#45;&gt;Node6 -->
<g id="edge6" class="edge">
<title>Node5&#45;&gt;Node6</title>
<path fill="none" stroke="#191970" d="M580.4386,-56.2455C582.2855,-48.8579 584.8828,-38.4689 587.1478,-29.4087"/>
<polygon fill="#191970" stroke="#191970" points="590.5594,-30.193 589.5893,-19.6427 583.7684,-28.4952 590.5594,-30.193"/>
</g>
<!-- Node7 -->
<g id="node8" class="node">
<title>Node7</title>
<polygon fill="none" stroke="#bfbfbf" points="632,-.5 632,-19.5 688,-19.5 688,-.5 632,-.5"/>
<text text-anchor="middle" x="660" y="-7.5" font-family="Helvetica,sans-Serif" font-size="10.00" fill="#000000">algorithm</text>
</g>
<!-- Node5&#45;&gt;Node7 -->
<g id="edge7" class="edge">
<title>Node5&#45;&gt;Node7</title>
<path fill="none" stroke="#191970" d="M592.2833,-56.2455C604.747,-47.7337 623.0451,-35.2375 637.4792,-25.3801"/>
<polygon fill="#191970" stroke="#191970" points="639.5962,-28.1726 645.8804,-19.6427 635.6485,-22.392 639.5962,-28.1726"/>
</g>
<!-- Node8 -->
<g id="node9" class="node">
<title>Node8</title>
<polygon fill="none" stroke="#bfbfbf" points="498,-.5 498,-19.5 552,-19.5 552,-.5 498,-.5"/>
<text text-anchor="middle" x="525" y="-7.5" font-family="Helvetica,sans-Serif" font-size="10.00" fill="#000000">iostream</text>
</g>
<!-- Node5&#45;&gt;Node8 -->
<g id="edge8" class="edge">
<title>Node5&#45;&gt;Node8</title>
<path fill="none" stroke="#191970" d="M568.7681,-56.2455C561.1683,-48.2155 550.2123,-36.6394 541.1632,-27.0781"/>
<polygon fill="#191970" stroke="#191970" points="543.542,-24.4998 534.1261,-19.6427 538.4579,-29.3115 543.542,-24.4998"/>
</g>
<!-- Node5&#45;&gt;Node9 -->
<g id="edge9" class="edge">
<title>Node5&#45;&gt;Node9</title>
<path fill="none" stroke="#191970" d="M604.1297,-56.3733C629.5304,-47.0151 668.2374,-32.7547 696.0193,-22.5192"/>
<polygon fill="#191970" stroke="#191970" points="697.5421,-25.6882 705.7155,-18.9469 695.1221,-19.1198 697.5421,-25.6882"/>
</g>
<!-- Node10&#45;&gt;Node3 -->
<g id="edge15" class="edge">
<title>Node10&#45;&gt;Node3</title>
<path fill="none" stroke="#191970" d="M250.2567,-59.7894C204.9464,-52.3786 128.5242,-38.8779 54.2461,-20.0955"/>
<polygon fill="#191970" stroke="#191970" points="54.8133,-16.6277 44.2573,-17.5337 53.0743,-23.4083 54.8133,-16.6277"/>
</g>
<!-- Node10&#45;&gt;Node8 -->
<g id="edge11" class="edge">
<title>Node10&#45;&gt;Node8</title>
<path fill="none" stroke="#191970" d="M329.7681,-57.3451C367.9826,-48.9086 427.5775,-35.4401 488.1759,-20.1344"/>
<polygon fill="#191970" stroke="#191970" points="489.0766,-23.5169 497.9071,-17.6626 487.3532,-16.7323 489.0766,-23.5169"/>
</g>
<!-- Node11 -->
<g id="node12" class="node">
<title>Node11</title>
<polygon fill="none" stroke="#bfbfbf" points="438.5,-.5 438.5,-19.5 479.5,-19.5 479.5,-.5 438.5,-.5"/>
<text text-anchor="middle" x="459" y="-7.5" font-family="Helvetica,sans-Serif" font-size="10.00" fill="#000000">regex</text>
</g>
<!-- Node10&#45;&gt;Node11 -->
<g id="edge12" class="edge">
<title>Node10&#45;&gt;Node11</title>
<path fill="none" stroke="#191970" d="M319.539,-56.4328C345.9626,-47.8441 385.9861,-34.7606 428.9232,-20.3348"/>
<polygon fill="#191970" stroke="#191970" points="430.0567,-23.6463 438.4176,-17.1389 427.8235,-17.0121 430.0567,-23.6463"/>
</g>
<!-- Node12 -->
<g id="node13" class="node">
<title>Node12</title>
<polygon fill="none" stroke="#bfbfbf" points="62.5,-.5 62.5,-19.5 103.5,-19.5 103.5,-.5 62.5,-.5"/>
<text text-anchor="middle" x="83" y="-7.5" font-family="Helvetica,sans-Serif" font-size="10.00" fill="#000000">string</text>
</g>
<!-- Node10&#45;&gt;Node12 -->
<g id="edge13" class="edge">
<title>Node10&#45;&gt;Node12</title>
<path fill="none" stroke="#191970" d="M250.4214,-56.5258C216.5207,-48.2298 166.2077,-35.4911 113.4708,-19.9947"/>
<polygon fill="#191970" stroke="#191970" points="114.1812,-16.5548 103.5989,-17.0695 112.1925,-23.2664 114.1812,-16.5548"/>
</g>
<!-- Node13 -->
<g id="node14" class="node">
<title>Node13</title>
<polygon fill="none" stroke="#bfbfbf" points="122,-.5 122,-19.5 172,-19.5 172,-.5 122,-.5"/>
<text text-anchor="middle" x="147" y="-7.5" font-family="Helvetica,sans-Serif" font-size="10.00" fill="#000000">fstream</text>
</g>
<!-- Node10&#45;&gt;Node13 -->
<g id="edge14" class="edge">
<title>Node10&#45;&gt;Node13</title>
<path fill="none" stroke="#191970" d="M265.4174,-56.3733C242.0504,-47.2226 206.7138,-33.3844 180.7216,-23.2057"/>
<polygon fill="#191970" stroke="#191970" points="181.8495,-19.8886 171.2618,-19.5011 179.297,-26.4066 181.8495,-19.8886"/>
</g>
<!-- Node14 -->
<g id="node15" class="node">
<title>Node14</title>
<polygon fill="none" stroke="#bfbfbf" points="190,-.5 190,-19.5 242,-19.5 242,-.5 190,-.5"/>
<text text-anchor="middle" x="216" y="-7.5" font-family="Helvetica,sans-Serif" font-size="10.00" fill="#000000">sstream</text>
</g>
<!-- Node10&#45;&gt;Node14 -->
<g id="edge16" class="edge">
<title>Node10&#45;&gt;Node14</title>
<path fill="none" stroke="#191970" d="M277.1102,-56.2455C266.0746,-47.8943 249.9708,-35.7076 237.0647,-25.9408"/>
<polygon fill="#191970" stroke="#191970" points="238.8283,-22.8862 228.7421,-19.6427 234.6041,-28.4681 238.8283,-22.8862"/>
</g>
<!-- Node15 -->
<g id="node16" class="node">
<title>Node15</title>
<polygon fill="none" stroke="#bfbfbf" points="260.5,-.5 260.5,-19.5 319.5,-19.5 319.5,-.5 260.5,-.5"/>
<text text-anchor="middle" x="290" y="-7.5" font-family="Helvetica,sans-Serif" font-size="10.00" fill="#000000">stdexcept</text>
</g>
<!-- Node10&#45;&gt;Node15 -->
<g id="edge17" class="edge">
<title>Node10&#45;&gt;Node15</title>
<path fill="none" stroke="#191970" d="M290,-56.2455C290,-48.9382 290,-38.6944 290,-29.7046"/>
<polygon fill="#191970" stroke="#191970" points="293.5001,-29.6426 290,-19.6427 286.5001,-29.6427 293.5001,-29.6426"/>
</g>
<!-- Node16 -->
<g id="node17" class="node">
<title>Node16</title>
<polygon fill="none" stroke="#bfbfbf" points="337.5,-.5 337.5,-19.5 420.5,-19.5 420.5,-.5 337.5,-.5"/>
<text text-anchor="middle" x="379" y="-7.5" font-family="Helvetica,sans-Serif" font-size="10.00" fill="#000000">unordered_map</text>
</g>
<!-- Node10&#45;&gt;Node16 -->
<g id="edge18" class="edge">
<title>Node10&#45;&gt;Node16</title>
<path fill="none" stroke="#191970" d="M305.5026,-56.2455C319.158,-47.6534 339.2657,-35.0014 354.9989,-25.1018"/>
<polygon fill="#191970" stroke="#191970" points="357.0751,-27.9307 363.675,-19.6427 353.3471,-22.006 357.0751,-27.9307"/>
</g>
<!-- Node17&#45;&gt;Node2 -->
<g id="edge23" class="edge">
<title>Node17&#45;&gt;Node2</title>
<path fill="none" stroke="#191970" d="M551.574,-168.2455C555.9331,-160.617 562.1211,-149.7881 567.4133,-140.5267"/>
<polygon fill="#191970" stroke="#191970" points="570.5673,-142.0616 572.4899,-131.6427 564.4896,-138.5886 570.5673,-142.0616"/>
</g>
<!-- Node17&#45;&gt;Node3 -->
<g id="edge20" class="edge">
<title>Node17&#45;&gt;Node3</title>
<path fill="none" stroke="#191970" d="M511.4157,-171.2108C442.9092,-157.2575 285.6314,-122.7017 159,-76 119.1164,-61.2909 75.2066,-38.9753 48.1132,-24.4406"/>
<polygon fill="#191970" stroke="#191970" points="49.7255,-21.3335 39.2654,-19.6492 46.3921,-27.4889 49.7255,-21.3335"/>
</g>
<!-- Node17&#45;&gt;Node9 -->
<g id="edge22" class="edge">
<title>Node17&#45;&gt;Node9</title>
<path fill="none" stroke="#191970" d="M559.5165,-168.4056C572.2216,-159.2858 591.6731,-145.0614 608,-132 637.7759,-108.1794 646.0206,-102.9469 673,-76 688.4655,-60.553 704.6163,-41.5375 715.7604,-27.8914"/>
<polygon fill="#191970" stroke="#191970" points="718.7426,-29.7695 722.3032,-19.7908 713.297,-25.3711 718.7426,-29.7695"/>
</g>
<!-- Node18 -->
<g id="node19" class="node">
<title>Node18</title>
<polygon fill="none" stroke="#bfbfbf" points="490.5,-112.5 490.5,-131.5 539.5,-131.5 539.5,-112.5 490.5,-112.5"/>
<text text-anchor="middle" x="515" y="-119.5" font-family="Helvetica,sans-Serif" font-size="10.00" fill="#000000">random</text>
</g>
<!-- Node17&#45;&gt;Node18 -->
<g id="edge21" class="edge">
<title>Node17&#45;&gt;Node18</title>
<path fill="none" stroke="#191970" d="M540.6002,-168.2455C536.3773,-160.617 530.3827,-149.7881 525.2559,-140.5267"/>
<polygon fill="#191970" stroke="#191970" points="528.2432,-138.6965 520.3379,-131.6427 522.119,-142.0867 528.2432,-138.6965"/>
</g>
</g>
</svg>
