<?xml version="1.0" encoding="UTF-8" standalone="no"?>
<!DOCTYPE svg PUBLIC "-//W3C//DTD SVG 1.1//EN"
 "http://www.w3.org/Graphics/SVG/1.1/DTD/svg11.dtd">
<!-- Generated by graphviz version 2.40.1 (20161225.0304)
 -->
<!-- Title: inst/include/rfish.h Pages: 1 -->
<svg width="264pt" height="252pt"
 viewBox="0.00 0.00 264.00 252.00" xmlns="http://www.w3.org/2000/svg" xmlns:xlink="http://www.w3.org/1999/xlink">
<g id="graph0" class="graph" transform="scale(1 1) rotate(0) translate(4 248)">
<title>inst/include/rfish.h</title>
<!-- Node0 -->
<g id="node1" class="node">
<title>Node0</title>
<polygon fill="#bfbfbf" stroke="#000000" points="112,-224.5 112,-243.5 208,-243.5 208,-224.5 112,-224.5"/>
<text text-anchor="middle" x="160" y="-231.5" font-family="Helvetica,sans-Serif" font-size="10.00" fill="#000000">inst/include/rfish.h</text>
</g>
<!-- Node1 -->
<g id="node2" class="node">
<title>Node1</title>
<g id="a_node2"><a xlink:href="fish_8h.html" target="_top" xlink:title="fish.h">
<polygon fill="none" stroke="#000000" points="115.5,-112.5 115.5,-131.5 156.5,-131.5 156.5,-112.5 115.5,-112.5"/>
<text text-anchor="middle" x="136" y="-119.5" font-family="Helvetica,sans-Serif" font-size="10.00" fill="#000000">fish.h</text>
</a>
</g>
</g>
<!-- Node0&#45;&gt;Node1 -->
<g id="edge1" class="edge">
<title>Node0&#45;&gt;Node1</title>
<path fill="none" stroke="#191970" d="M157.2093,-224.1814C154.6268,-214.9033 150.7786,-200.5719 148,-188 144.6176,-172.6961 141.4752,-155.2431 139.2551,-142.1299"/>
<polygon fill="#191970" stroke="#191970" points="142.6456,-141.1802 137.5588,-131.8864 135.7397,-142.3238 142.6456,-141.1802"/>
</g>
<!-- Node8 -->
<g id="node9" class="node">
<title>Node8</title>
<g id="a_node9"><a xlink:href="population_8h.html" target="_top" xlink:title="population.h">
<polygon fill="none" stroke="#000000" points="157.5,-168.5 157.5,-187.5 226.5,-187.5 226.5,-168.5 157.5,-168.5"/>
<text text-anchor="middle" x="192" y="-175.5" font-family="Helvetica,sans-Serif" font-size="10.00" fill="#000000">population.h</text>
</a>
</g>
</g>
<!-- Node0&#45;&gt;Node8 -->
<g id="edge8" class="edge">
<title>Node0&#45;&gt;Node8</title>
<path fill="none" stroke="#191970" d="M165.574,-224.2455C169.9331,-216.617 176.1211,-205.7881 181.4133,-196.5267"/>
<polygon fill="#191970" stroke="#191970" points="184.5673,-198.0616 186.4899,-187.6427 178.4896,-194.5886 184.5673,-198.0616"/>
</g>
<!-- Node2 -->
<g id="node3" class="node">
<title>Node2</title>
<polygon fill="none" stroke="#bfbfbf" points="160,-56.5 160,-75.5 204,-75.5 204,-56.5 160,-56.5"/>
<text text-anchor="middle" x="182" y="-63.5" font-family="Helvetica,sans-Serif" font-size="10.00" fill="#000000">vector</text>
</g>
<!-- Node1&#45;&gt;Node2 -->
<g id="edge2" class="edge">
<title>Node1&#45;&gt;Node2</title>
<path fill="none" stroke="#191970" d="M144.0126,-112.2455C150.4768,-104.3761 159.7385,-93.101 167.4983,-83.6542"/>
<polygon fill="#191970" stroke="#191970" points="170.4364,-85.5916 174.0792,-75.6427 165.0273,-81.1484 170.4364,-85.5916"/>
</g>
<!-- Node3 -->
<g id="node4" class="node">
<title>Node3</title>
<g id="a_node4"><a xlink:href="functions_8h.html" target="_top" xlink:title="functions.h">
<polygon fill="none" stroke="#000000" points="76.5,-56.5 76.5,-75.5 141.5,-75.5 141.5,-56.5 76.5,-56.5"/>
<text text-anchor="middle" x="109" y="-63.5" font-family="Helvetica,sans-Serif" font-size="10.00" fill="#000000">functions.h</text>
</a>
</g>
</g>
<!-- Node1&#45;&gt;Node3 -->
<g id="edge3" class="edge">
<title>Node1&#45;&gt;Node3</title>
<path fill="none" stroke="#191970" d="M131.297,-112.2455C127.6576,-104.6973 122.5076,-94.0158 118.0738,-84.8197"/>
<polygon fill="#191970" stroke="#191970" points="121.1449,-83.1303 113.6491,-75.6427 114.8395,-86.1704 121.1449,-83.1303"/>
</g>
<!-- Node4 -->
<g id="node5" class="node">
<title>Node4</title>
<polygon fill="none" stroke="#bfbfbf" points="0,-.5 0,-19.5 44,-19.5 44,-.5 0,-.5"/>
<text text-anchor="middle" x="22" y="-7.5" font-family="Helvetica,sans-Serif" font-size="10.00" fill="#000000">cmath</text>
</g>
<!-- Node3&#45;&gt;Node4 -->
<g id="edge4" class="edge">
<title>Node3&#45;&gt;Node4</title>
<path fill="none" stroke="#191970" d="M93.8458,-56.2455C80.4973,-47.6534 60.8414,-35.0014 45.4617,-25.1018"/>
<polygon fill="#191970" stroke="#191970" points="47.2836,-22.1121 36.9806,-19.6427 43.4949,-27.9982 47.2836,-22.1121"/>
</g>
<!-- Node5 -->
<g id="node6" class="node">
<title>Node5</title>
<polygon fill="none" stroke="#bfbfbf" points="62,-.5 62,-19.5 118,-19.5 118,-.5 62,-.5"/>
<text text-anchor="middle" x="90" y="-7.5" font-family="Helvetica,sans-Serif" font-size="10.00" fill="#000000">algorithm</text>
</g>
<!-- Node3&#45;&gt;Node5 -->
<g id="edge5" class="edge">
<title>Node3&#45;&gt;Node5</title>
<path fill="none" stroke="#191970" d="M105.6905,-56.2455C103.1567,-48.7776 99.5823,-38.2427 96.485,-29.1137"/>
<polygon fill="#191970" stroke="#191970" points="99.7991,-27.9879 93.2716,-19.6427 93.1702,-30.237 99.7991,-27.9879"/>
</g>
<!-- Node6 -->
<g id="node7" class="node">
<title>Node6</title>
<polygon fill="none" stroke="#bfbfbf" points="136,-.5 136,-19.5 190,-19.5 190,-.5 136,-.5"/>
<text text-anchor="middle" x="163" y="-7.5" font-family="Helvetica,sans-Serif" font-size="10.00" fill="#000000">iostream</text>
</g>
<!-- Node3&#45;&gt;Node6 -->
<g id="edge6" class="edge">
<title>Node3&#45;&gt;Node6</title>
<path fill="none" stroke="#191970" d="M118.4061,-56.2455C126.1493,-48.2155 137.312,-36.6394 146.5318,-27.0781"/>
<polygon fill="#191970" stroke="#191970" points="149.2798,-29.2706 153.7017,-19.6427 144.2409,-24.4117 149.2798,-29.2706"/>
</g>
<!-- Node7 -->
<g id="node8" class="node">
<title>Node7</title>
<polygon fill="none" stroke="#bfbfbf" points="208,-.5 208,-19.5 256,-19.5 256,-.5 208,-.5"/>
<text text-anchor="middle" x="232" y="-7.5" font-family="Helvetica,sans-Serif" font-size="10.00" fill="#000000">Rcpp.h</text>
</g>
<!-- Node3&#45;&gt;Node7 -->
<g id="edge7" class="edge">
<title>Node3&#45;&gt;Node7</title>
<path fill="none" stroke="#191970" d="M130.1445,-56.3733C149.8892,-47.3838 179.5698,-33.8706 201.8055,-23.7471"/>
<polygon fill="#191970" stroke="#191970" points="203.4806,-26.8302 211.1315,-19.5011 200.58,-20.4594 203.4806,-26.8302"/>
</g>
<!-- Node8&#45;&gt;Node1 -->
<g id="edge9" class="edge">
<title>Node8&#45;&gt;Node1</title>
<path fill="none" stroke="#191970" d="M182.2455,-168.2455C174.1352,-160.1352 162.4075,-148.4075 152.7919,-138.7919"/>
<polygon fill="#191970" stroke="#191970" points="155.1887,-136.2389 145.6427,-131.6427 150.2389,-141.1887 155.1887,-136.2389"/>
</g>
<!-- Node8&#45;&gt;Node2 -->
<g id="edge10" class="edge">
<title>Node8&#45;&gt;Node2</title>
<path fill="none" stroke="#191970" d="M191.1474,-168.4509C189.5164,-150.184 185.9246,-109.9553 183.7587,-85.6976"/>
<polygon fill="#191970" stroke="#191970" points="187.226,-85.174 182.8504,-75.5249 180.2537,-85.7966 187.226,-85.174"/>
</g>
<!-- Node8&#45;&gt;Node7 -->
<g id="edge11" class="edge">
<title>Node8&#45;&gt;Node7</title>
<path fill="none" stroke="#191970" d="M194.2652,-168.4862C200.6156,-141.8144 218.6877,-65.9117 227.3107,-29.695"/>
<polygon fill="#191970" stroke="#191970" points="230.7486,-30.3666 229.66,-19.8279 223.9389,-28.7452 230.7486,-30.3666"/>
</g>
</g>
</svg>
