<?xml version="1.0" encoding="UTF-8" standalone="no"?>
<!DOCTYPE svg PUBLIC "-//W3C//DTD SVG 1.1//EN"
 "http://www.w3.org/Graphics/SVG/1.1/DTD/svg11.dtd">
<!-- Generated by graphviz version 2.40.1 (20161225.0304)
 -->
<!-- Title: src/simulator.cpp Pages: 1 -->
<svg width="482pt" height="308pt"
 viewBox="0.00 0.00 481.50 308.00" xmlns="http://www.w3.org/2000/svg" xmlns:xlink="http://www.w3.org/1999/xlink">
<g id="graph0" class="graph" transform="scale(1 1) rotate(0) translate(4 304)">
<title>src/simulator.cpp</title>
<!-- Node0 -->
<g id="node1" class="node">
<title>Node0</title>
<polygon fill="#bfbfbf" stroke="#000000" points="170,-280.5 170,-299.5 262,-299.5 262,-280.5 170,-280.5"/>
<text text-anchor="middle" x="216" y="-287.5" font-family="Helvetica,sans-Serif" font-size="10.00" fill="#000000">src/simulator.cpp</text>
</g>
<!-- Node1 -->
<g id="node2" class="node">
<title>Node1</title>
<g id="a_node2"><a xlink:href="simulator_8h.html" target="_top" xlink:title="simulator.h">
<polygon fill="none" stroke="#000000" points="109.5,-224.5 109.5,-243.5 174.5,-243.5 174.5,-224.5 109.5,-224.5"/>
<text text-anchor="middle" x="142" y="-231.5" font-family="Helvetica,sans-Serif" font-size="10.00" fill="#000000">simulator.h</text>
</a>
</g>
</g>
<!-- Node0&#45;&gt;Node1 -->
<g id="edge1" class="edge">
<title>Node0&#45;&gt;Node1</title>
<path fill="none" stroke="#191970" d="M203.1102,-280.2455C192.0746,-271.8943 175.9708,-259.7076 163.0647,-249.9408"/>
<polygon fill="#191970" stroke="#191970" points="164.8283,-246.8862 154.7421,-243.6427 160.6041,-252.4681 164.8283,-246.8862"/>
</g>
<!-- Node14 -->
<g id="node15" class="node">
<title>Node14</title>
<polygon fill="none" stroke="#bfbfbf" points="193,-224.5 193,-243.5 239,-243.5 239,-224.5 193,-224.5"/>
<text text-anchor="middle" x="216" y="-231.5" font-family="Helvetica,sans-Serif" font-size="10.00" fill="#000000">chrono</text>
</g>
<!-- Node0&#45;&gt;Node14 -->
<g id="edge21" class="edge">
<title>Node0&#45;&gt;Node14</title>
<path fill="none" stroke="#191970" d="M216,-280.2455C216,-272.9382 216,-262.6944 216,-253.7046"/>
<polygon fill="#191970" stroke="#191970" points="219.5001,-253.6426 216,-243.6427 212.5001,-253.6427 219.5001,-253.6426"/>
</g>
<!-- Node15 -->
<g id="node16" class="node">
<title>Node15</title>
<polygon fill="none" stroke="#bfbfbf" points="257,-224.5 257,-243.5 301,-243.5 301,-224.5 257,-224.5"/>
<text text-anchor="middle" x="279" y="-231.5" font-family="Helvetica,sans-Serif" font-size="10.00" fill="#000000">thread</text>
</g>
<!-- Node0&#45;&gt;Node15 -->
<g id="edge22" class="edge">
<title>Node0&#45;&gt;Node15</title>
<path fill="none" stroke="#191970" d="M226.9738,-280.2455C236.1882,-272.0549 249.5532,-260.1749 260.4297,-250.5069"/>
<polygon fill="#191970" stroke="#191970" points="263.0032,-252.9023 268.152,-243.6427 258.3526,-247.6704 263.0032,-252.9023"/>
</g>
<!-- Node2 -->
<g id="node3" class="node">
<title>Node2</title>
<g id="a_node3"><a xlink:href="population_8h.html" target="_top" xlink:title="population.h">
<polygon fill="none" stroke="#000000" points="64.5,-168.5 64.5,-187.5 133.5,-187.5 133.5,-168.5 64.5,-168.5"/>
<text text-anchor="middle" x="99" y="-175.5" font-family="Helvetica,sans-Serif" font-size="10.00" fill="#000000">population.h</text>
</a>
</g>
</g>
<!-- Node1&#45;&gt;Node2 -->
<g id="edge2" class="edge">
<title>Node1&#45;&gt;Node2</title>
<path fill="none" stroke="#191970" d="M134.51,-224.2455C128.4674,-216.3761 119.8097,-205.101 112.5559,-195.6542"/>
<polygon fill="#191970" stroke="#191970" points="115.2705,-193.4426 106.4042,-187.6427 109.7185,-197.7058 115.2705,-193.4426"/>
</g>
<!-- Node4 -->
<g id="node5" class="node">
<title>Node4</title>
<polygon fill="none" stroke="#bfbfbf" points="138,-56.5 138,-75.5 182,-75.5 182,-56.5 138,-56.5"/>
<text text-anchor="middle" x="160" y="-63.5" font-family="Helvetica,sans-Serif" font-size="10.00" fill="#000000">vector</text>
</g>
<!-- Node1&#45;&gt;Node4 -->
<g id="edge12" class="edge">
<title>Node1&#45;&gt;Node4</title>
<path fill="none" stroke="#191970" d="M143.0193,-224.4862C145.8647,-197.9293 153.9394,-122.5651 157.8394,-86.1655"/>
<polygon fill="#191970" stroke="#191970" points="161.3617,-86.1439 158.947,-75.8279 154.4015,-85.3981 161.3617,-86.1439"/>
</g>
<!-- Node9 -->
<g id="node10" class="node">
<title>Node9</title>
<polygon fill="none" stroke="#bfbfbf" points="0,-.5 0,-19.5 48,-19.5 48,-.5 0,-.5"/>
<text text-anchor="middle" x="24" y="-7.5" font-family="Helvetica,sans-Serif" font-size="10.00" fill="#000000">Rcpp.h</text>
</g>
<!-- Node1&#45;&gt;Node9 -->
<g id="edge13" class="edge">
<title>Node1&#45;&gt;Node9</title>
<path fill="none" stroke="#191970" d="M109.8505,-224.4505C91.1911,-217.306 68.7315,-205.6748 55,-188 18.3597,-140.8374 19.0732,-65.3696 21.8452,-29.7865"/>
<polygon fill="#191970" stroke="#191970" points="25.3403,-30.0005 22.7728,-19.7215 18.3698,-29.3581 25.3403,-30.0005"/>
</g>
<!-- Node10 -->
<g id="node11" class="node">
<title>Node10</title>
<g id="a_node11"><a xlink:href="tensor_8h.html" target="_top" xlink:title="tensor.h">
<polygon fill="none" stroke="#000000" points="252,-112.5 252,-131.5 304,-131.5 304,-112.5 252,-112.5"/>
<text text-anchor="middle" x="278" y="-119.5" font-family="Helvetica,sans-Serif" font-size="10.00" fill="#000000">tensor.h</text>
</a>
</g>
</g>
<!-- Node1&#45;&gt;Node10 -->
<g id="edge14" class="edge">
<title>Node1&#45;&gt;Node10</title>
<path fill="none" stroke="#191970" d="M153.5953,-224.4509C176.981,-205.1921 230.0092,-161.5218 258.7008,-137.8935"/>
<polygon fill="#191970" stroke="#191970" points="260.9397,-140.5838 266.4341,-131.5249 256.4898,-135.1802 260.9397,-140.5838"/>
</g>
<!-- Node3 -->
<g id="node4" class="node">
<title>Node3</title>
<g id="a_node4"><a xlink:href="fish_8h.html" target="_top" xlink:title="fish.h">
<polygon fill="none" stroke="#000000" points="66.5,-112.5 66.5,-131.5 107.5,-131.5 107.5,-112.5 66.5,-112.5"/>
<text text-anchor="middle" x="87" y="-119.5" font-family="Helvetica,sans-Serif" font-size="10.00" fill="#000000">fish.h</text>
</a>
</g>
</g>
<!-- Node2&#45;&gt;Node3 -->
<g id="edge3" class="edge">
<title>Node2&#45;&gt;Node3</title>
<path fill="none" stroke="#191970" d="M96.9098,-168.2455C95.3439,-160.9382 93.1488,-150.6944 91.2224,-141.7046"/>
<polygon fill="#191970" stroke="#191970" points="94.584,-140.6873 89.0663,-131.6427 87.7393,-142.1541 94.584,-140.6873"/>
</g>
<!-- Node2&#45;&gt;Node4 -->
<g id="edge10" class="edge">
<title>Node2&#45;&gt;Node4</title>
<path fill="none" stroke="#191970" d="M104.2008,-168.4509C114.3299,-149.8533 136.8571,-108.4919 149.9805,-84.3964"/>
<polygon fill="#191970" stroke="#191970" points="153.1029,-85.9809 154.8123,-75.5249 146.9556,-82.6328 153.1029,-85.9809"/>
</g>
<!-- Node2&#45;&gt;Node9 -->
<g id="edge11" class="edge">
<title>Node2&#45;&gt;Node9</title>
<path fill="none" stroke="#191970" d="M87.3759,-168.1849C77.8842,-159.5682 64.8064,-146.2193 57,-132 38.7778,-98.8081 30.1272,-54.9271 26.4241,-29.851"/>
<polygon fill="#191970" stroke="#191970" points="29.8676,-29.1971 25.0543,-19.7588 22.9312,-30.1387 29.8676,-29.1971"/>
</g>
<!-- Node3&#45;&gt;Node4 -->
<g id="edge4" class="edge">
<title>Node3&#45;&gt;Node4</title>
<path fill="none" stroke="#191970" d="M99.7156,-112.2455C110.602,-103.8943 126.4883,-91.7076 139.22,-81.9408"/>
<polygon fill="#191970" stroke="#191970" points="141.6261,-84.5063 147.4301,-75.6427 137.3654,-78.9523 141.6261,-84.5063"/>
</g>
<!-- Node5 -->
<g id="node6" class="node">
<title>Node5</title>
<g id="a_node6"><a xlink:href="functions_8h.html" target="_top" xlink:title="functions.h">
<polygon fill="none" stroke="#000000" points="54.5,-56.5 54.5,-75.5 119.5,-75.5 119.5,-56.5 54.5,-56.5"/>
<text text-anchor="middle" x="87" y="-63.5" font-family="Helvetica,sans-Serif" font-size="10.00" fill="#000000">functions.h</text>
</a>
</g>
</g>
<!-- Node3&#45;&gt;Node5 -->
<g id="edge5" class="edge">
<title>Node3&#45;&gt;Node5</title>
<path fill="none" stroke="#191970" d="M87,-112.2455C87,-104.9382 87,-94.6944 87,-85.7046"/>
<polygon fill="#191970" stroke="#191970" points="90.5001,-85.6426 87,-75.6427 83.5001,-85.6427 90.5001,-85.6426"/>
</g>
<!-- Node6 -->
<g id="node7" class="node">
<title>Node6</title>
<polygon fill="none" stroke="#bfbfbf" points="66,-.5 66,-19.5 110,-19.5 110,-.5 66,-.5"/>
<text text-anchor="middle" x="88" y="-7.5" font-family="Helvetica,sans-Serif" font-size="10.00" fill="#000000">cmath</text>
</g>
<!-- Node5&#45;&gt;Node6 -->
<g id="edge6" class="edge">
<title>Node5&#45;&gt;Node6</title>
<path fill="none" stroke="#191970" d="M87.1742,-56.2455C87.3047,-48.9382 87.4876,-38.6944 87.6481,-29.7046"/>
<polygon fill="#191970" stroke="#191970" points="91.1486,-29.7036 87.8278,-19.6427 84.1497,-29.5786 91.1486,-29.7036"/>
</g>
<!-- Node7 -->
<g id="node8" class="node">
<title>Node7</title>
<polygon fill="none" stroke="#bfbfbf" points="314,-.5 314,-19.5 370,-19.5 370,-.5 314,-.5"/>
<text text-anchor="middle" x="342" y="-7.5" font-family="Helvetica,sans-Serif" font-size="10.00" fill="#000000">algorithm</text>
</g>
<!-- Node5&#45;&gt;Node7 -->
<g id="edge7" class="edge">
<title>Node5&#45;&gt;Node7</title>
<path fill="none" stroke="#191970" d="M119.5436,-58.1801C122.7368,-57.4343 125.93,-56.6969 129,-56 190.0083,-42.151 261.0758,-26.9997 303.7503,-18.0072"/>
<polygon fill="#191970" stroke="#191970" points="304.6405,-21.3966 313.7056,-15.9127 303.1992,-14.5466 304.6405,-21.3966"/>
</g>
<!-- Node8 -->
<g id="node9" class="node">
<title>Node8</title>
<polygon fill="none" stroke="#bfbfbf" points="190,-.5 190,-19.5 244,-19.5 244,-.5 190,-.5"/>
<text text-anchor="middle" x="217" y="-7.5" font-family="Helvetica,sans-Serif" font-size="10.00" fill="#000000">iostream</text>
</g>
<!-- Node5&#45;&gt;Node8 -->
<g id="edge8" class="edge">
<title>Node5&#45;&gt;Node8</title>
<path fill="none" stroke="#191970" d="M109.3478,-56.3733C130.4033,-47.3032 162.1495,-33.6279 185.7175,-23.4755"/>
<polygon fill="#191970" stroke="#191970" points="187.1444,-26.6719 194.9438,-19.5011 184.375,-20.243 187.1444,-26.6719"/>
</g>
<!-- Node5&#45;&gt;Node9 -->
<g id="edge9" class="edge">
<title>Node5&#45;&gt;Node9</title>
<path fill="none" stroke="#191970" d="M76.0262,-56.2455C66.8118,-48.0549 53.4468,-36.1749 42.5703,-26.5069"/>
<polygon fill="#191970" stroke="#191970" points="44.6474,-23.6704 34.848,-19.6427 39.9968,-28.9023 44.6474,-23.6704"/>
</g>
<!-- Node10&#45;&gt;Node4 -->
<g id="edge17" class="edge">
<title>Node10&#45;&gt;Node4</title>
<path fill="none" stroke="#191970" d="M257.7151,-112.3733C238.8579,-103.4241 210.554,-89.9917 189.2545,-79.8835"/>
<polygon fill="#191970" stroke="#191970" points="190.5551,-76.6266 180.0202,-75.5011 187.5539,-82.9506 190.5551,-76.6266"/>
</g>
<!-- Node10&#45;&gt;Node7 -->
<g id="edge19" class="edge">
<title>Node10&#45;&gt;Node7</title>
<path fill="none" stroke="#191970" d="M304.1706,-117.5702C327.2552,-112.128 359.5571,-100.4148 375,-76 385.0754,-60.0711 372.6705,-40.6521 360.2966,-27.0157"/>
<polygon fill="#191970" stroke="#191970" points="362.6731,-24.4395 353.1849,-19.7251 357.6622,-29.3274 362.6731,-24.4395"/>
</g>
<!-- Node10&#45;&gt;Node8 -->
<g id="edge15" class="edge">
<title>Node10&#45;&gt;Node8</title>
<path fill="none" stroke="#191970" d="M276.5954,-112.0577C274.385,-98.6414 269.2472,-74.3137 259,-56 252.9175,-45.1294 243.8055,-34.7283 235.6217,-26.575"/>
<polygon fill="#191970" stroke="#191970" points="237.8468,-23.861 228.189,-19.5048 233.0222,-28.9329 237.8468,-23.861"/>
</g>
<!-- Node11 -->
<g id="node12" class="node">
<title>Node11</title>
<polygon fill="none" stroke="#bfbfbf" points="200.5,-56.5 200.5,-75.5 249.5,-75.5 249.5,-56.5 200.5,-56.5"/>
<text text-anchor="middle" x="225" y="-63.5" font-family="Helvetica,sans-Serif" font-size="10.00" fill="#000000">cassert</text>
</g>
<!-- Node10&#45;&gt;Node11 -->
<g id="edge16" class="edge">
<title>Node10&#45;&gt;Node11</title>
<path fill="none" stroke="#191970" d="M268.7681,-112.2455C261.1683,-104.2155 250.2123,-92.6394 241.1632,-83.0781"/>
<polygon fill="#191970" stroke="#191970" points="243.542,-80.4998 234.1261,-75.6427 238.4579,-85.3115 243.542,-80.4998"/>
</g>
<!-- Node12 -->
<g id="node13" class="node">
<title>Node12</title>
<polygon fill="none" stroke="#bfbfbf" points="306.5,-56.5 306.5,-75.5 365.5,-75.5 365.5,-56.5 306.5,-56.5"/>
<text text-anchor="middle" x="336" y="-63.5" font-family="Helvetica,sans-Serif" font-size="10.00" fill="#000000">functional</text>
</g>
<!-- Node10&#45;&gt;Node12 -->
<g id="edge18" class="edge">
<title>Node10&#45;&gt;Node12</title>
<path fill="none" stroke="#191970" d="M288.1028,-112.2455C296.5028,-104.1352 308.6494,-92.4075 318.6084,-82.7919"/>
<polygon fill="#191970" stroke="#191970" points="321.25,-85.1066 326.0129,-75.6427 316.3878,-80.0707 321.25,-85.1066"/>
</g>
<!-- Node13 -->
<g id="node14" class="node">
<title>Node13</title>
<polygon fill="none" stroke="#bfbfbf" points="422.5,-56.5 422.5,-75.5 473.5,-75.5 473.5,-56.5 422.5,-56.5"/>
<text text-anchor="middle" x="448" y="-63.5" font-family="Helvetica,sans-Serif" font-size="10.00" fill="#000000">numeric</text>
</g>
<!-- Node10&#45;&gt;Node13 -->
<g id="edge20" class="edge">
<title>Node10&#45;&gt;Node13</title>
<path fill="none" stroke="#191970" d="M304.1899,-113.3727C333.3099,-103.7803 380.4923,-88.2378 412.8183,-77.5893"/>
<polygon fill="#191970" stroke="#191970" points="413.9343,-80.9067 422.3371,-74.4536 411.7441,-74.2582 413.9343,-80.9067"/>
</g>
</g>
</svg>
