<?xml version="1.0" encoding="UTF-8" standalone="no"?>
<!DOCTYPE svg PUBLIC "-//W3C//DTD SVG 1.1//EN"
 "http://www.w3.org/Graphics/SVG/1.1/DTD/svg11.dtd">
<!-- Generated by graphviz version 2.40.1 (20161225.0304)
 -->
<!-- Title: inst/include/simulator.h Pages: 1 -->
<svg width="210pt" height="84pt"
 viewBox="0.00 0.00 209.50 84.00" xmlns="http://www.w3.org/2000/svg" xmlns:xlink="http://www.w3.org/1999/xlink">
<g id="graph0" class="graph" transform="scale(1 1) rotate(0) translate(4 80)">
<title>inst/include/simulator.h</title>
<!-- Node13 -->
<g id="node1" class="node">
<title>Node13</title>
<polygon fill="#bfbfbf" stroke="#000000" points="42,-56.5 42,-75.5 159,-75.5 159,-56.5 42,-56.5"/>
<text text-anchor="middle" x="100.5" y="-63.5" font-family="Helvetica,sans-Serif" font-size="10.00" fill="#000000">inst/include/simulator.h</text>
</g>
<!-- Node14 -->
<g id="node2" class="node">
<title>Node14</title>
<g id="a_node2"><a xlink:href="fish__glue_8cpp.html" target="_top" xlink:title="src/fish_glue.cpp">
<polygon fill="none" stroke="#000000" points="0,-.5 0,-19.5 91,-19.5 91,-.5 0,-.5"/>
<text text-anchor="middle" x="45.5" y="-7.5" font-family="Helvetica,sans-Serif" font-size="10.00" fill="#000000">src/fish_glue.cpp</text>
</a>
</g>
</g>
<!-- Node13&#45;&gt;Node14 -->
<g id="edge1" class="edge">
<title>Node13&#45;&gt;Node14</title>
<path fill="none" stroke="#191970" d="M83.8774,-49.0751C74.4145,-39.4402 62.9031,-27.7196 54.9705,-19.6427"/>
<polygon fill="#191970" stroke="#191970" points="81.4155,-51.5635 90.9197,-56.2455 86.4097,-46.6585 81.4155,-51.5635"/>
</g>
<!-- Node15 -->
<g id="node3" class="node">
<title>Node15</title>
<g id="a_node3"><a xlink:href="simulator_8cpp.html" target="_top" xlink:title="src/simulator.cpp">
<polygon fill="none" stroke="#000000" points="109.5,-.5 109.5,-19.5 201.5,-19.5 201.5,-.5 109.5,-.5"/>
<text text-anchor="middle" x="155.5" y="-7.5" font-family="Helvetica,sans-Serif" font-size="10.00" fill="#000000">src/simulator.cpp</text>
</a>
</g>
</g>
<!-- Node13&#45;&gt;Node15 -->
<g id="edge2" class="edge">
<title>Node13&#45;&gt;Node15</title>
<path fill="none" stroke="#191970" d="M117.1226,-49.0751C126.5855,-39.4402 138.0969,-27.7196 146.0295,-19.6427"/>
<polygon fill="#191970" stroke="#191970" points="114.5903,-46.6585 110.0803,-56.2455 119.5845,-51.5635 114.5903,-46.6585"/>
</g>
</g>
</svg>
