<?xml version="1.0" encoding="UTF-8" standalone="no"?>
<!DOCTYPE svg PUBLIC "-//W3C//DTD SVG 1.1//EN"
 "http://www.w3.org/Graphics/SVG/1.1/DTD/svg11.dtd">
<!-- Generated by graphviz version 2.40.1 (20161225.0304)
 -->
<!-- Title: src/simulator.cpp Pages: 1 -->
<svg width="1014pt" height="308pt"
 viewBox="0.00 0.00 1013.50 308.00" xmlns="http://www.w3.org/2000/svg" xmlns:xlink="http://www.w3.org/1999/xlink">
<g id="graph0" class="graph" transform="scale(1 1) rotate(0) translate(4 304)">
<title>src/simulator.cpp</title>
<!-- Node0 -->
<g id="node1" class="node">
<title>Node0</title>
<polygon fill="#bfbfbf" stroke="#000000" points="848.5,-280.5 848.5,-299.5 940.5,-299.5 940.5,-280.5 848.5,-280.5"/>
<text text-anchor="middle" x="894.5" y="-287.5" font-family="Helvetica,sans-Serif" font-size="10.00" fill="#000000">src/simulator.cpp</text>
</g>
<!-- Node1 -->
<g id="node2" class="node">
<title>Node1</title>
<g id="a_node2"><a xlink:href="simulator_8h.html" target="_top" xlink:title="simulator.h">
<polygon fill="none" stroke="#000000" points="660,-224.5 660,-243.5 725,-243.5 725,-224.5 660,-224.5"/>
<text text-anchor="middle" x="692.5" y="-231.5" font-family="Helvetica,sans-Serif" font-size="10.00" fill="#000000">simulator.h</text>
</a>
</g>
</g>
<!-- Node0&#45;&gt;Node1 -->
<g id="edge1" class="edge">
<title>Node0&#45;&gt;Node1</title>
<path fill="none" stroke="#191970" d="M859.775,-280.3733C825.2337,-270.7975 772.1766,-256.0886 735.1061,-245.8116"/>
<polygon fill="#191970" stroke="#191970" points="735.6745,-242.3372 725.1029,-243.0384 733.8044,-249.0828 735.6745,-242.3372"/>
</g>
<!-- Node10 -->
<g id="node11" class="node">
<title>Node10</title>
<polygon fill="none" stroke="#bfbfbf" points="910.5,-.5 910.5,-19.5 966.5,-19.5 966.5,-.5 910.5,-.5"/>
<text text-anchor="middle" x="938.5" y="-7.5" font-family="Helvetica,sans-Serif" font-size="10.00" fill="#000000">algorithm</text>
</g>
<!-- Node0&#45;&gt;Node10 -->
<g id="edge32" class="edge">
<title>Node0&#45;&gt;Node10</title>
<path fill="none" stroke="#191970" d="M890.8112,-280.2751C883.857,-261.0407 869.5,-216.6505 869.5,-178 869.5,-178 869.5,-178 869.5,-122 869.5,-83.3203 899.7001,-46.7993 920.1409,-26.5101"/>
<polygon fill="#191970" stroke="#191970" points="922.6035,-28.998 927.414,-19.5582 917.7667,-23.9378 922.6035,-28.998"/>
</g>
<!-- Node23 -->
<g id="node24" class="node">
<title>Node23</title>
<polygon fill="none" stroke="#bfbfbf" points="897.5,-224.5 897.5,-243.5 943.5,-243.5 943.5,-224.5 897.5,-224.5"/>
<text text-anchor="middle" x="920.5" y="-231.5" font-family="Helvetica,sans-Serif" font-size="10.00" fill="#000000">chrono</text>
</g>
<!-- Node0&#45;&gt;Node23 -->
<g id="edge33" class="edge">
<title>Node0&#45;&gt;Node23</title>
<path fill="none" stroke="#191970" d="M899.0289,-280.2455C902.5334,-272.6973 907.4927,-262.0158 911.7623,-252.8197"/>
<polygon fill="#191970" stroke="#191970" points="914.9864,-254.1867 916.023,-243.6427 908.6373,-251.2389 914.9864,-254.1867"/>
</g>
<!-- Node24 -->
<g id="node25" class="node">
<title>Node24</title>
<polygon fill="none" stroke="#bfbfbf" points="961.5,-224.5 961.5,-243.5 1005.5,-243.5 1005.5,-224.5 961.5,-224.5"/>
<text text-anchor="middle" x="983.5" y="-231.5" font-family="Helvetica,sans-Serif" font-size="10.00" fill="#000000">thread</text>
</g>
<!-- Node0&#45;&gt;Node24 -->
<g id="edge34" class="edge">
<title>Node0&#45;&gt;Node24</title>
<path fill="none" stroke="#191970" d="M910.0026,-280.2455C923.658,-271.6534 943.7657,-259.0014 959.4989,-249.1018"/>
<polygon fill="#191970" stroke="#191970" points="961.5751,-251.9307 968.175,-243.6427 957.8471,-246.006 961.5751,-251.9307"/>
</g>
<!-- Node2 -->
<g id="node3" class="node">
<title>Node2</title>
<polygon fill="none" stroke="#bfbfbf" points="434.5,-.5 434.5,-19.5 478.5,-19.5 478.5,-.5 434.5,-.5"/>
<text text-anchor="middle" x="456.5" y="-7.5" font-family="Helvetica,sans-Serif" font-size="10.00" fill="#000000">vector</text>
</g>
<!-- Node1&#45;&gt;Node2 -->
<g id="edge2" class="edge">
<title>Node1&#45;&gt;Node2</title>
<path fill="none" stroke="#191970" d="M659.9495,-231.7199C605.1835,-225.8786 496.3974,-205.1658 453.5,-132 434.747,-100.015 443.0348,-54.7488 450.1568,-29.306"/>
<polygon fill="#191970" stroke="#191970" points="453.5136,-30.297 453.0555,-19.712 446.8127,-28.2724 453.5136,-30.297"/>
</g>
<!-- Node3 -->
<g id="node4" class="node">
<title>Node3</title>
<g id="a_node4"><a xlink:href="population_8h.html" target="_top" xlink:title="population.h">
<polygon fill="none" stroke="#000000" points="559,-168.5 559,-187.5 628,-187.5 628,-168.5 559,-168.5"/>
<text text-anchor="middle" x="593.5" y="-175.5" font-family="Helvetica,sans-Serif" font-size="10.00" fill="#000000">population.h</text>
</a>
</g>
</g>
<!-- Node1&#45;&gt;Node3 -->
<g id="edge3" class="edge">
<title>Node1&#45;&gt;Node3</title>
<path fill="none" stroke="#191970" d="M675.2555,-224.2455C659.9239,-215.5731 637.2801,-202.7645 619.7084,-192.825"/>
<polygon fill="#191970" stroke="#191970" points="620.9741,-189.5198 610.5469,-187.6427 617.5276,-195.6126 620.9741,-189.5198"/>
</g>
<!-- Node5 -->
<g id="node6" class="node">
<title>Node5</title>
<polygon fill="none" stroke="#bfbfbf" points="630.5,-.5 630.5,-19.5 678.5,-19.5 678.5,-.5 630.5,-.5"/>
<text text-anchor="middle" x="654.5" y="-7.5" font-family="Helvetica,sans-Serif" font-size="10.00" fill="#000000">Rcpp.h</text>
</g>
<!-- Node1&#45;&gt;Node5 -->
<g id="edge31" class="edge">
<title>Node1&#45;&gt;Node5</title>
<path fill="none" stroke="#191970" d="M690.8672,-224.375C685.1058,-190.4133 665.6535,-75.7472 657.8147,-29.5392"/>
<polygon fill="#191970" stroke="#191970" points="661.25,-28.8629 656.1267,-19.5891 654.3486,-30.0337 661.25,-28.8629"/>
</g>
<!-- Node19 -->
<g id="node20" class="node">
<title>Node19</title>
<g id="a_node20"><a xlink:href="tensor_8h.html" target="_top" xlink:title="tensor.h">
<polygon fill="none" stroke="#000000" points="720.5,-56.5 720.5,-75.5 772.5,-75.5 772.5,-56.5 720.5,-56.5"/>
<text text-anchor="middle" x="746.5" y="-63.5" font-family="Helvetica,sans-Serif" font-size="10.00" fill="#000000">tensor.h</text>
</a>
</g>
</g>
<!-- Node1&#45;&gt;Node19 -->
<g id="edge24" class="edge">
<title>Node1&#45;&gt;Node19</title>
<path fill="none" stroke="#191970" d="M695.558,-224.4862C704.1311,-197.8144 728.5284,-121.9117 740.1695,-85.695"/>
<polygon fill="#191970" stroke="#191970" points="743.613,-86.4192 743.341,-75.8279 736.9488,-84.2771 743.613,-86.4192"/>
</g>
<!-- Node3&#45;&gt;Node2 -->
<g id="edge4" class="edge">
<title>Node3&#45;&gt;Node2</title>
<path fill="none" stroke="#191970" d="M585.9652,-168.2988C578.9112,-159.1035 568.1858,-144.8281 559.5,-132 537.2334,-99.1141 538.6424,-85.8975 512.5,-56 502.6976,-44.7896 489.9888,-34.1123 479.1564,-25.8715"/>
<polygon fill="#191970" stroke="#191970" points="481.0864,-22.9458 470.9627,-19.8213 476.9283,-28.577 481.0864,-22.9458"/>
</g>
<!-- Node4 -->
<g id="node5" class="node">
<title>Node4</title>
<polygon fill="none" stroke="#bfbfbf" points="569,-112.5 569,-131.5 618,-131.5 618,-112.5 569,-112.5"/>
<text text-anchor="middle" x="593.5" y="-119.5" font-family="Helvetica,sans-Serif" font-size="10.00" fill="#000000">random</text>
</g>
<!-- Node3&#45;&gt;Node4 -->
<g id="edge5" class="edge">
<title>Node3&#45;&gt;Node4</title>
<path fill="none" stroke="#191970" d="M593.5,-168.2455C593.5,-160.9382 593.5,-150.6944 593.5,-141.7046"/>
<polygon fill="#191970" stroke="#191970" points="597.0001,-141.6426 593.5,-131.6427 590.0001,-141.6427 597.0001,-141.6426"/>
</g>
<!-- Node3&#45;&gt;Node5 -->
<g id="edge6" class="edge">
<title>Node3&#45;&gt;Node5</title>
<path fill="none" stroke="#191970" d="M602.0764,-168.4819C609.5963,-159.6401 620.2736,-145.7961 626.5,-132 641.9269,-97.8184 649.2788,-54.282 652.4322,-29.5357"/>
<polygon fill="#191970" stroke="#191970" points="655.91,-29.9289 653.5996,-19.589 648.9577,-29.1129 655.91,-29.9289"/>
</g>
<!-- Node6 -->
<g id="node7" class="node">
<title>Node6</title>
<g id="a_node7"><a xlink:href="fish_8h.html" target="_top" xlink:title="fish.h">
<polygon fill="none" stroke="#000000" points="463,-112.5 463,-131.5 504,-131.5 504,-112.5 463,-112.5"/>
<text text-anchor="middle" x="483.5" y="-119.5" font-family="Helvetica,sans-Serif" font-size="10.00" fill="#000000">fish.h</text>
</a>
</g>
</g>
<!-- Node3&#45;&gt;Node6 -->
<g id="edge7" class="edge">
<title>Node3&#45;&gt;Node6</title>
<path fill="none" stroke="#191970" d="M574.3395,-168.2455C556.9889,-159.4125 531.2099,-146.2887 511.5417,-136.2758"/>
<polygon fill="#191970" stroke="#191970" points="512.9405,-133.0605 502.441,-131.6427 509.7647,-139.2986 512.9405,-133.0605"/>
</g>
<!-- Node6&#45;&gt;Node2 -->
<g id="edge8" class="edge">
<title>Node6&#45;&gt;Node2</title>
<path fill="none" stroke="#191970" d="M476.8245,-112.2906C471.0606,-103.32 463.1085,-89.3943 459.5,-76 455.4384,-60.9238 454.848,-43.2195 455.1856,-29.9449"/>
<polygon fill="#191970" stroke="#191970" points="458.6982,-29.746 455.6573,-19.5969 451.7055,-29.4271 458.6982,-29.746"/>
</g>
<!-- Node7 -->
<g id="node8" class="node">
<title>Node7</title>
<polygon fill="none" stroke="#bfbfbf" points="469,-56.5 469,-75.5 504,-75.5 504,-56.5 469,-56.5"/>
<text text-anchor="middle" x="486.5" y="-63.5" font-family="Helvetica,sans-Serif" font-size="10.00" fill="#000000">map</text>
</g>
<!-- Node6&#45;&gt;Node7 -->
<g id="edge9" class="edge">
<title>Node6&#45;&gt;Node7</title>
<path fill="none" stroke="#191970" d="M484.0226,-112.2455C484.414,-104.9382 484.9628,-94.6944 485.4444,-85.7046"/>
<polygon fill="#191970" stroke="#191970" points="488.9434,-85.8156 485.9834,-75.6427 481.9534,-85.4411 488.9434,-85.8156"/>
</g>
<!-- Node8 -->
<g id="node9" class="node">
<title>Node8</title>
<g id="a_node9"><a xlink:href="functions_8h.html" target="_top" xlink:title="functions.h">
<polygon fill="none" stroke="#000000" points="561,-56.5 561,-75.5 626,-75.5 626,-56.5 561,-56.5"/>
<text text-anchor="middle" x="593.5" y="-63.5" font-family="Helvetica,sans-Serif" font-size="10.00" fill="#000000">functions.h</text>
</a>
</g>
</g>
<!-- Node6&#45;&gt;Node8 -->
<g id="edge10" class="edge">
<title>Node6&#45;&gt;Node8</title>
<path fill="none" stroke="#191970" d="M502.6605,-112.2455C520.0111,-103.4125 545.7901,-90.2887 565.4583,-80.2758"/>
<polygon fill="#191970" stroke="#191970" points="567.2353,-83.2986 574.559,-75.6427 564.0595,-77.0605 567.2353,-83.2986"/>
</g>
<!-- Node12 -->
<g id="node13" class="node">
<title>Node12</title>
<g id="a_node13"><a xlink:href="initializer__v2_8h.html" target="_top" xlink:title="initializer_v2.h">
<polygon fill="none" stroke="#000000" points="282,-56.5 282,-75.5 361,-75.5 361,-56.5 282,-56.5"/>
<text text-anchor="middle" x="321.5" y="-63.5" font-family="Helvetica,sans-Serif" font-size="10.00" fill="#000000">initializer_v2.h</text>
</a>
</g>
</g>
<!-- Node6&#45;&gt;Node12 -->
<g id="edge15" class="edge">
<title>Node6&#45;&gt;Node12</title>
<path fill="none" stroke="#191970" d="M462.9826,-114.9076C436.8258,-105.8657 391.1191,-90.0659 358.7415,-78.8736"/>
<polygon fill="#191970" stroke="#191970" points="359.7523,-75.5199 349.1575,-75.5606 357.4653,-82.1357 359.7523,-75.5199"/>
</g>
<!-- Node8&#45;&gt;Node5 -->
<g id="edge14" class="edge">
<title>Node8&#45;&gt;Node5</title>
<path fill="none" stroke="#191970" d="M604.1254,-56.2455C613.0473,-48.0549 625.988,-36.1749 636.5192,-26.5069"/>
<polygon fill="#191970" stroke="#191970" points="638.9968,-28.9837 643.9964,-19.6427 634.2629,-23.8271 638.9968,-28.9837"/>
</g>
<!-- Node9 -->
<g id="node10" class="node">
<title>Node9</title>
<polygon fill="none" stroke="#bfbfbf" points="496.5,-.5 496.5,-19.5 540.5,-19.5 540.5,-.5 496.5,-.5"/>
<text text-anchor="middle" x="518.5" y="-7.5" font-family="Helvetica,sans-Serif" font-size="10.00" fill="#000000">cmath</text>
</g>
<!-- Node8&#45;&gt;Node9 -->
<g id="edge11" class="edge">
<title>Node8&#45;&gt;Node9</title>
<path fill="none" stroke="#191970" d="M580.436,-56.2455C569.1438,-47.814 552.6155,-35.4729 539.4729,-25.6598"/>
<polygon fill="#191970" stroke="#191970" points="541.5211,-22.8211 531.4143,-19.6427 537.3331,-28.4301 541.5211,-22.8211"/>
</g>
<!-- Node8&#45;&gt;Node10 -->
<g id="edge12" class="edge">
<title>Node8&#45;&gt;Node10</title>
<path fill="none" stroke="#191970" d="M626.0902,-62.3905C680.8298,-56.0566 794.8328,-41.7054 900.4357,-20.0336"/>
<polygon fill="#191970" stroke="#191970" points="901.2214,-23.4452 910.2994,-17.9826 899.7963,-16.5918 901.2214,-23.4452"/>
</g>
<!-- Node11 -->
<g id="node12" class="node">
<title>Node11</title>
<polygon fill="none" stroke="#bfbfbf" points="558.5,-.5 558.5,-19.5 612.5,-19.5 612.5,-.5 558.5,-.5"/>
<text text-anchor="middle" x="585.5" y="-7.5" font-family="Helvetica,sans-Serif" font-size="10.00" fill="#000000">iostream</text>
</g>
<!-- Node8&#45;&gt;Node11 -->
<g id="edge13" class="edge">
<title>Node8&#45;&gt;Node11</title>
<path fill="none" stroke="#191970" d="M592.1065,-56.2455C591.0626,-48.9382 589.5992,-38.6944 588.3149,-29.7046"/>
<polygon fill="#191970" stroke="#191970" points="591.7566,-29.0472 586.8775,-19.6427 584.827,-30.0372 591.7566,-29.0472"/>
</g>
<!-- Node12&#45;&gt;Node2 -->
<g id="edge20" class="edge">
<title>Node12&#45;&gt;Node2</title>
<path fill="none" stroke="#191970" d="M344.7073,-56.3733C366.9361,-47.1524 400.6388,-33.1721 425.2275,-22.9723"/>
<polygon fill="#191970" stroke="#191970" points="426.5937,-26.1948 434.4895,-19.1303 423.9115,-19.729 426.5937,-26.1948"/>
</g>
<!-- Node12&#45;&gt;Node11 -->
<g id="edge16" class="edge">
<title>Node12&#45;&gt;Node11</title>
<path fill="none" stroke="#191970" d="M361.2309,-58.8802C404.8234,-50.8706 477.0591,-37.0189 548.3738,-20.1454"/>
<polygon fill="#191970" stroke="#191970" points="549.5138,-23.4717 558.4274,-17.7448 547.8879,-16.6631 549.5138,-23.4717"/>
</g>
<!-- Node13 -->
<g id="node14" class="node">
<title>Node13</title>
<polygon fill="none" stroke="#bfbfbf" points="178,-.5 178,-19.5 219,-19.5 219,-.5 178,-.5"/>
<text text-anchor="middle" x="198.5" y="-7.5" font-family="Helvetica,sans-Serif" font-size="10.00" fill="#000000">regex</text>
</g>
<!-- Node12&#45;&gt;Node13 -->
<g id="edge17" class="edge">
<title>Node12&#45;&gt;Node13</title>
<path fill="none" stroke="#191970" d="M300.3555,-56.3733C280.6108,-47.3838 250.9302,-33.8706 228.6945,-23.7471"/>
<polygon fill="#191970" stroke="#191970" points="229.92,-20.4594 219.3685,-19.5011 227.0194,-26.8302 229.92,-20.4594"/>
</g>
<!-- Node14 -->
<g id="node15" class="node">
<title>Node14</title>
<polygon fill="none" stroke="#bfbfbf" points="237,-.5 237,-19.5 278,-19.5 278,-.5 237,-.5"/>
<text text-anchor="middle" x="257.5" y="-7.5" font-family="Helvetica,sans-Serif" font-size="10.00" fill="#000000">string</text>
</g>
<!-- Node12&#45;&gt;Node14 -->
<g id="edge18" class="edge">
<title>Node12&#45;&gt;Node14</title>
<path fill="none" stroke="#191970" d="M310.3521,-56.2455C300.9913,-48.0549 287.4142,-36.1749 276.3651,-26.5069"/>
<polygon fill="#191970" stroke="#191970" points="278.3508,-23.5937 268.5202,-19.6427 273.7412,-28.8618 278.3508,-23.5937"/>
</g>
<!-- Node15 -->
<g id="node16" class="node">
<title>Node15</title>
<polygon fill="none" stroke="#bfbfbf" points="296.5,-.5 296.5,-19.5 346.5,-19.5 346.5,-.5 296.5,-.5"/>
<text text-anchor="middle" x="321.5" y="-7.5" font-family="Helvetica,sans-Serif" font-size="10.00" fill="#000000">fstream</text>
</g>
<!-- Node12&#45;&gt;Node15 -->
<g id="edge19" class="edge">
<title>Node12&#45;&gt;Node15</title>
<path fill="none" stroke="#191970" d="M321.5,-56.2455C321.5,-48.9382 321.5,-38.6944 321.5,-29.7046"/>
<polygon fill="#191970" stroke="#191970" points="325.0001,-29.6426 321.5,-19.6427 318.0001,-29.6427 325.0001,-29.6426"/>
</g>
<!-- Node16 -->
<g id="node17" class="node">
<title>Node16</title>
<polygon fill="none" stroke="#bfbfbf" points="364.5,-.5 364.5,-19.5 416.5,-19.5 416.5,-.5 364.5,-.5"/>
<text text-anchor="middle" x="390.5" y="-7.5" font-family="Helvetica,sans-Serif" font-size="10.00" fill="#000000">sstream</text>
</g>
<!-- Node12&#45;&gt;Node16 -->
<g id="edge21" class="edge">
<title>Node12&#45;&gt;Node16</title>
<path fill="none" stroke="#191970" d="M333.5189,-56.2455C343.7098,-47.9746 358.5362,-35.9416 370.5107,-26.2232"/>
<polygon fill="#191970" stroke="#191970" points="373.0598,-28.662 378.6188,-19.6427 368.6486,-23.2268 373.0598,-28.662"/>
</g>
<!-- Node17 -->
<g id="node18" class="node">
<title>Node17</title>
<polygon fill="none" stroke="#bfbfbf" points="0,-.5 0,-19.5 59,-19.5 59,-.5 0,-.5"/>
<text text-anchor="middle" x="29.5" y="-7.5" font-family="Helvetica,sans-Serif" font-size="10.00" fill="#000000">stdexcept</text>
</g>
<!-- Node12&#45;&gt;Node17 -->
<g id="edge22" class="edge">
<title>Node12&#45;&gt;Node17</title>
<path fill="none" stroke="#191970" d="M281.7115,-59.7828C233.5039,-52.0324 149.6305,-37.8526 69.1166,-20.246"/>
<polygon fill="#191970" stroke="#191970" points="69.8366,-16.8207 59.3171,-18.0821 68.3271,-23.6561 69.8366,-16.8207"/>
</g>
<!-- Node18 -->
<g id="node19" class="node">
<title>Node18</title>
<polygon fill="none" stroke="#bfbfbf" points="77,-.5 77,-19.5 160,-19.5 160,-.5 77,-.5"/>
<text text-anchor="middle" x="118.5" y="-7.5" font-family="Helvetica,sans-Serif" font-size="10.00" fill="#000000">unordered_map</text>
</g>
<!-- Node12&#45;&gt;Node18 -->
<g id="edge23" class="edge">
<title>Node12&#45;&gt;Node18</title>
<path fill="none" stroke="#191970" d="M286.6031,-56.3733C252.4089,-46.9404 200.1585,-32.5265 162.9958,-22.2747"/>
<polygon fill="#191970" stroke="#191970" points="163.5123,-18.7865 152.9416,-19.5011 161.6507,-25.5345 163.5123,-18.7865"/>
</g>
<!-- Node19&#45;&gt;Node2 -->
<g id="edge27" class="edge">
<title>Node19&#45;&gt;Node2</title>
<path fill="none" stroke="#191970" d="M720.1499,-62.5315C674.705,-56.291 578.5553,-41.9552 488.5569,-20.0065"/>
<polygon fill="#191970" stroke="#191970" points="489.2945,-16.5835 478.7463,-17.577 487.6117,-23.3783 489.2945,-16.5835"/>
</g>
<!-- Node19&#45;&gt;Node10 -->
<g id="edge29" class="edge">
<title>Node19&#45;&gt;Node10</title>
<path fill="none" stroke="#191970" d="M772.7942,-58.3309C805.8859,-48.6791 862.9524,-32.0347 900.7132,-21.0211"/>
<polygon fill="#191970" stroke="#191970" points="901.723,-24.3725 910.3429,-18.2125 899.7629,-17.6525 901.723,-24.3725"/>
</g>
<!-- Node19&#45;&gt;Node11 -->
<g id="edge25" class="edge">
<title>Node19&#45;&gt;Node11</title>
<path fill="none" stroke="#191970" d="M720.2742,-56.878C693.6161,-47.6056 652.0942,-33.1632 622.1817,-22.7589"/>
<polygon fill="#191970" stroke="#191970" points="623.1156,-19.3781 612.5208,-19.3985 620.8159,-25.9896 623.1156,-19.3781"/>
</g>
<!-- Node20 -->
<g id="node21" class="node">
<title>Node20</title>
<polygon fill="none" stroke="#bfbfbf" points="843,-.5 843,-19.5 892,-19.5 892,-.5 843,-.5"/>
<text text-anchor="middle" x="867.5" y="-7.5" font-family="Helvetica,sans-Serif" font-size="10.00" fill="#000000">cassert</text>
</g>
<!-- Node19&#45;&gt;Node20 -->
<g id="edge26" class="edge">
<title>Node19&#45;&gt;Node20</title>
<path fill="none" stroke="#191970" d="M767.3006,-56.3733C786.7243,-47.3838 815.9224,-33.8706 837.7964,-23.7471"/>
<polygon fill="#191970" stroke="#191970" points="839.3656,-26.8776 846.9708,-19.5011 836.4255,-20.5249 839.3656,-26.8776"/>
</g>
<!-- Node21 -->
<g id="node22" class="node">
<title>Node21</title>
<polygon fill="none" stroke="#bfbfbf" points="697,-.5 697,-19.5 756,-19.5 756,-.5 697,-.5"/>
<text text-anchor="middle" x="726.5" y="-7.5" font-family="Helvetica,sans-Serif" font-size="10.00" fill="#000000">functional</text>
</g>
<!-- Node19&#45;&gt;Node21 -->
<g id="edge28" class="edge">
<title>Node19&#45;&gt;Node21</title>
<path fill="none" stroke="#191970" d="M743.0163,-56.2455C740.3492,-48.7776 736.5867,-38.2427 733.3263,-29.1137"/>
<polygon fill="#191970" stroke="#191970" points="736.6033,-27.8829 729.9438,-19.6427 730.0111,-30.2373 736.6033,-27.8829"/>
</g>
<!-- Node22 -->
<g id="node23" class="node">
<title>Node22</title>
<polygon fill="none" stroke="#bfbfbf" points="774,-.5 774,-19.5 825,-19.5 825,-.5 774,-.5"/>
<text text-anchor="middle" x="799.5" y="-7.5" font-family="Helvetica,sans-Serif" font-size="10.00" fill="#000000">numeric</text>
</g>
<!-- Node19&#45;&gt;Node22 -->
<g id="edge30" class="edge">
<title>Node19&#45;&gt;Node22</title>
<path fill="none" stroke="#191970" d="M755.7319,-56.2455C763.3317,-48.2155 774.2877,-36.6394 783.3368,-27.0781"/>
<polygon fill="#191970" stroke="#191970" points="786.0421,-29.3115 790.3739,-19.6427 780.958,-24.4998 786.0421,-29.3115"/>
</g>
</g>
</svg>
