<?xml version="1.0" encoding="UTF-8" standalone="no"?>
<!DOCTYPE svg PUBLIC "-//W3C//DTD SVG 1.1//EN"
 "http://www.w3.org/Graphics/SVG/1.1/DTD/svg11.dtd">
<!-- Generated by graphviz version 2.40.1 (20161225.0304)
 -->
<!-- Title: inst/include/simulator.h Pages: 1 -->
<svg width="976pt" height="252pt"
 viewBox="0.00 0.00 975.50 252.00" xmlns="http://www.w3.org/2000/svg" xmlns:xlink="http://www.w3.org/1999/xlink">
<g id="graph0" class="graph" transform="scale(1 1) rotate(0) translate(4 248)">
<title>inst/include/simulator.h</title>
<!-- Node0 -->
<g id="node1" class="node">
<title>Node0</title>
<polygon fill="#bfbfbf" stroke="#000000" points="513.5,-224.5 513.5,-243.5 630.5,-243.5 630.5,-224.5 513.5,-224.5"/>
<text text-anchor="middle" x="572" y="-231.5" font-family="Helvetica,sans-Serif" font-size="10.00" fill="#000000">inst/include/simulator.h</text>
</g>
<!-- Node1 -->
<g id="node2" class="node">
<title>Node1</title>
<polygon fill="none" stroke="#bfbfbf" points="0,-.5 0,-19.5 44,-19.5 44,-.5 0,-.5"/>
<text text-anchor="middle" x="22" y="-7.5" font-family="Helvetica,sans-Serif" font-size="10.00" fill="#000000">vector</text>
</g>
<!-- Node0&#45;&gt;Node1 -->
<g id="edge1" class="edge">
<title>Node0&#45;&gt;Node1</title>
<path fill="none" stroke="#191970" d="M523.6381,-224.441C485.0969,-216.296 429.9937,-203.4671 383,-188 260.7663,-147.7692 228.6418,-138.2209 116,-76 89.028,-61.1013 60.368,-40.1412 41.8853,-25.8658"/>
<polygon fill="#191970" stroke="#191970" points="43.951,-23.0381 33.9168,-19.637 39.6399,-28.5531 43.951,-23.0381"/>
</g>
<!-- Node2 -->
<g id="node3" class="node">
<title>Node2</title>
<g id="a_node3"><a xlink:href="population_8h.html" target="_top" xlink:title="population.h">
<polygon fill="none" stroke="#000000" points="392.5,-168.5 392.5,-187.5 461.5,-187.5 461.5,-168.5 392.5,-168.5"/>
<text text-anchor="middle" x="427" y="-175.5" font-family="Helvetica,sans-Serif" font-size="10.00" fill="#000000">population.h</text>
</a>
</g>
</g>
<!-- Node0&#45;&gt;Node2 -->
<g id="edge2" class="edge">
<title>Node0&#45;&gt;Node2</title>
<path fill="none" stroke="#191970" d="M547.0736,-224.3733C523.3798,-215.2226 487.5489,-201.3844 461.1932,-191.2057"/>
<polygon fill="#191970" stroke="#191970" points="462.1906,-187.8389 451.6011,-187.5011 459.6686,-194.3689 462.1906,-187.8389"/>
</g>
<!-- Node4 -->
<g id="node5" class="node">
<title>Node4</title>
<polygon fill="none" stroke="#bfbfbf" points="632,-.5 632,-19.5 680,-19.5 680,-.5 632,-.5"/>
<text text-anchor="middle" x="656" y="-7.5" font-family="Helvetica,sans-Serif" font-size="10.00" fill="#000000">Rcpp.h</text>
</g>
<!-- Node0&#45;&gt;Node4 -->
<g id="edge30" class="edge">
<title>Node0&#45;&gt;Node4</title>
<path fill="none" stroke="#191970" d="M575.6094,-224.375C588.3989,-190.2697 631.709,-74.7761 648.8912,-28.9567"/>
<polygon fill="#191970" stroke="#191970" points="652.1699,-30.1814 652.4041,-19.5891 645.6156,-27.7235 652.1699,-30.1814"/>
</g>
<!-- Node18 -->
<g id="node19" class="node">
<title>Node18</title>
<g id="a_node19"><a xlink:href="tensor_8h.html" target="_top" xlink:title="tensor.h">
<polygon fill="none" stroke="#000000" points="700,-56.5 700,-75.5 752,-75.5 752,-56.5 700,-56.5"/>
<text text-anchor="middle" x="726" y="-63.5" font-family="Helvetica,sans-Serif" font-size="10.00" fill="#000000">tensor.h</text>
</a>
</g>
</g>
<!-- Node0&#45;&gt;Node18 -->
<g id="edge23" class="edge">
<title>Node0&#45;&gt;Node18</title>
<path fill="none" stroke="#191970" d="M606.409,-224.478C627.0228,-217.297 652.5321,-205.6175 670,-188 699.0027,-158.7488 714.6516,-111.7328 721.561,-85.4266"/>
<polygon fill="#191970" stroke="#191970" points="725.0047,-86.0797 724.0005,-75.5326 718.2082,-84.4039 725.0047,-86.0797"/>
</g>
<!-- Node2&#45;&gt;Node1 -->
<g id="edge3" class="edge">
<title>Node2&#45;&gt;Node1</title>
<path fill="none" stroke="#191970" d="M400.7559,-168.3895C353.3317,-150.8887 250.3547,-112.272 165,-76 124.9817,-58.994 79.5013,-37.6482 50.7868,-23.9164"/>
<polygon fill="#191970" stroke="#191970" points="52.2537,-20.7383 41.7237,-19.5687 49.2261,-27.0497 52.2537,-20.7383"/>
</g>
<!-- Node3 -->
<g id="node4" class="node">
<title>Node3</title>
<polygon fill="none" stroke="#bfbfbf" points="339.5,-112.5 339.5,-131.5 388.5,-131.5 388.5,-112.5 339.5,-112.5"/>
<text text-anchor="middle" x="364" y="-119.5" font-family="Helvetica,sans-Serif" font-size="10.00" fill="#000000">random</text>
</g>
<!-- Node2&#45;&gt;Node3 -->
<g id="edge4" class="edge">
<title>Node2&#45;&gt;Node3</title>
<path fill="none" stroke="#191970" d="M416.0262,-168.2455C406.8118,-160.0549 393.4468,-148.1749 382.5703,-138.5069"/>
<polygon fill="#191970" stroke="#191970" points="384.6474,-135.6704 374.848,-131.6427 379.9968,-140.9023 384.6474,-135.6704"/>
</g>
<!-- Node2&#45;&gt;Node4 -->
<g id="edge5" class="edge">
<title>Node2&#45;&gt;Node4</title>
<path fill="none" stroke="#191970" d="M447.5467,-168.3833C481.0625,-152.1413 548.7019,-117.006 598,-76 615.2869,-61.6208 631.896,-41.9184 642.8764,-27.7905"/>
<polygon fill="#191970" stroke="#191970" points="645.6763,-29.8909 648.9416,-19.8117 640.1036,-25.6547 645.6763,-29.8909"/>
</g>
<!-- Node5 -->
<g id="node6" class="node">
<title>Node5</title>
<g id="a_node6"><a xlink:href="fish_8h.html" target="_top" xlink:title="fish.h">
<polygon fill="none" stroke="#000000" points="406.5,-112.5 406.5,-131.5 447.5,-131.5 447.5,-112.5 406.5,-112.5"/>
<text text-anchor="middle" x="427" y="-119.5" font-family="Helvetica,sans-Serif" font-size="10.00" fill="#000000">fish.h</text>
</a>
</g>
</g>
<!-- Node2&#45;&gt;Node5 -->
<g id="edge6" class="edge">
<title>Node2&#45;&gt;Node5</title>
<path fill="none" stroke="#191970" d="M427,-168.2455C427,-160.9382 427,-150.6944 427,-141.7046"/>
<polygon fill="#191970" stroke="#191970" points="430.5001,-141.6426 427,-131.6427 423.5001,-141.6427 430.5001,-141.6426"/>
</g>
<!-- Node5&#45;&gt;Node1 -->
<g id="edge7" class="edge">
<title>Node5&#45;&gt;Node1</title>
<path fill="none" stroke="#191970" d="M406.4229,-114.8551C403.2814,-113.8474 400.0652,-112.8624 397,-112 328.5041,-92.7276 309.7977,-94.1655 241,-76 159.7511,-54.5468 137.8299,-46.4195 54.0242,-20.2867"/>
<polygon fill="#191970" stroke="#191970" points="54.9203,-16.9001 44.332,-17.2702 52.8401,-23.5838 54.9203,-16.9001"/>
</g>
<!-- Node6 -->
<g id="node7" class="node">
<title>Node6</title>
<polygon fill="none" stroke="#bfbfbf" points="409.5,-56.5 409.5,-75.5 444.5,-75.5 444.5,-56.5 409.5,-56.5"/>
<text text-anchor="middle" x="427" y="-63.5" font-family="Helvetica,sans-Serif" font-size="10.00" fill="#000000">map</text>
</g>
<!-- Node5&#45;&gt;Node6 -->
<g id="edge8" class="edge">
<title>Node5&#45;&gt;Node6</title>
<path fill="none" stroke="#191970" d="M427,-112.2455C427,-104.9382 427,-94.6944 427,-85.7046"/>
<polygon fill="#191970" stroke="#191970" points="430.5001,-85.6426 427,-75.6427 423.5001,-85.6427 430.5001,-85.6426"/>
</g>
<!-- Node7 -->
<g id="node8" class="node">
<title>Node7</title>
<g id="a_node8"><a xlink:href="functions_8h.html" target="_top" xlink:title="functions.h">
<polygon fill="none" stroke="#000000" points="524.5,-56.5 524.5,-75.5 589.5,-75.5 589.5,-56.5 524.5,-56.5"/>
<text text-anchor="middle" x="557" y="-63.5" font-family="Helvetica,sans-Serif" font-size="10.00" fill="#000000">functions.h</text>
</a>
</g>
</g>
<!-- Node5&#45;&gt;Node7 -->
<g id="edge9" class="edge">
<title>Node5&#45;&gt;Node7</title>
<path fill="none" stroke="#191970" d="M447.5989,-113.1266C468.49,-104.1274 501.1027,-90.0788 525.2908,-79.6593"/>
<polygon fill="#191970" stroke="#191970" points="526.9567,-82.7527 534.7561,-75.582 524.1873,-76.3238 526.9567,-82.7527"/>
</g>
<!-- Node11 -->
<g id="node12" class="node">
<title>Node11</title>
<g id="a_node12"><a xlink:href="initializer__v2_8h.html" target="_top" xlink:title="initializer_v2.h">
<polygon fill="none" stroke="#000000" points="250.5,-56.5 250.5,-75.5 329.5,-75.5 329.5,-56.5 250.5,-56.5"/>
<text text-anchor="middle" x="290" y="-63.5" font-family="Helvetica,sans-Serif" font-size="10.00" fill="#000000">initializer_v2.h</text>
</a>
</g>
</g>
<!-- Node5&#45;&gt;Node11 -->
<g id="edge14" class="edge">
<title>Node5&#45;&gt;Node11</title>
<path fill="none" stroke="#191970" d="M406.4897,-113.6162C384.3825,-104.5797 348.8735,-90.0651 322.8643,-79.4336"/>
<polygon fill="#191970" stroke="#191970" points="323.9897,-76.1125 313.4088,-75.5686 321.3411,-82.5921 323.9897,-76.1125"/>
</g>
<!-- Node7&#45;&gt;Node4 -->
<g id="edge13" class="edge">
<title>Node7&#45;&gt;Node4</title>
<path fill="none" stroke="#191970" d="M574.2445,-56.2455C589.5761,-47.5731 612.2199,-34.7645 629.7916,-24.825"/>
<polygon fill="#191970" stroke="#191970" points="631.9724,-27.6126 638.9531,-19.6427 628.5259,-21.5198 631.9724,-27.6126"/>
</g>
<!-- Node8 -->
<g id="node9" class="node">
<title>Node8</title>
<polygon fill="none" stroke="#bfbfbf" points="498,-.5 498,-19.5 542,-19.5 542,-.5 498,-.5"/>
<text text-anchor="middle" x="520" y="-7.5" font-family="Helvetica,sans-Serif" font-size="10.00" fill="#000000">cmath</text>
</g>
<!-- Node7&#45;&gt;Node8 -->
<g id="edge10" class="edge">
<title>Node7&#45;&gt;Node8</title>
<path fill="none" stroke="#191970" d="M550.5551,-56.2455C545.4618,-48.5367 538.2092,-37.5598 532.048,-28.2348"/>
<polygon fill="#191970" stroke="#191970" points="534.8038,-26.0566 526.3711,-19.6427 528.9635,-29.9155 534.8038,-26.0566"/>
</g>
<!-- Node9 -->
<g id="node10" class="node">
<title>Node9</title>
<polygon fill="none" stroke="#bfbfbf" points="698,-.5 698,-19.5 754,-19.5 754,-.5 698,-.5"/>
<text text-anchor="middle" x="726" y="-7.5" font-family="Helvetica,sans-Serif" font-size="10.00" fill="#000000">algorithm</text>
</g>
<!-- Node7&#45;&gt;Node9 -->
<g id="edge11" class="edge">
<title>Node7&#45;&gt;Node9</title>
<path fill="none" stroke="#191970" d="M586.0521,-56.3733C614.3246,-47.0049 657.4241,-32.7234 688.3203,-22.4856"/>
<polygon fill="#191970" stroke="#191970" points="689.497,-25.7829 697.8885,-19.315 687.2952,-19.1382 689.497,-25.7829"/>
</g>
<!-- Node10 -->
<g id="node11" class="node">
<title>Node10</title>
<polygon fill="none" stroke="#bfbfbf" points="560,-.5 560,-19.5 614,-19.5 614,-.5 560,-.5"/>
<text text-anchor="middle" x="587" y="-7.5" font-family="Helvetica,sans-Serif" font-size="10.00" fill="#000000">iostream</text>
</g>
<!-- Node7&#45;&gt;Node10 -->
<g id="edge12" class="edge">
<title>Node7&#45;&gt;Node10</title>
<path fill="none" stroke="#191970" d="M562.2256,-56.2455C566.3123,-48.617 572.1135,-37.7881 577.075,-28.5267"/>
<polygon fill="#191970" stroke="#191970" points="580.1972,-30.1103 581.8343,-19.6427 574.0268,-26.8047 580.1972,-30.1103"/>
</g>
<!-- Node11&#45;&gt;Node1 -->
<g id="edge19" class="edge">
<title>Node11&#45;&gt;Node1</title>
<path fill="none" stroke="#191970" d="M250.2567,-59.7894C204.9464,-52.3786 128.5242,-38.8779 54.2461,-20.0955"/>
<polygon fill="#191970" stroke="#191970" points="54.8133,-16.6277 44.2573,-17.5337 53.0743,-23.4083 54.8133,-16.6277"/>
</g>
<!-- Node11&#45;&gt;Node10 -->
<g id="edge15" class="edge">
<title>Node11&#45;&gt;Node10</title>
<path fill="none" stroke="#191970" d="M329.5901,-60.2404C378.9794,-52.7879 466.1782,-38.753 550.0055,-20.0593"/>
<polygon fill="#191970" stroke="#191970" points="550.9597,-23.432 559.9442,-17.817 549.4191,-16.6037 550.9597,-23.432"/>
</g>
<!-- Node12 -->
<g id="node13" class="node">
<title>Node12</title>
<polygon fill="none" stroke="#bfbfbf" points="438.5,-.5 438.5,-19.5 479.5,-19.5 479.5,-.5 438.5,-.5"/>
<text text-anchor="middle" x="459" y="-7.5" font-family="Helvetica,sans-Serif" font-size="10.00" fill="#000000">regex</text>
</g>
<!-- Node11&#45;&gt;Node12 -->
<g id="edge16" class="edge">
<title>Node11&#45;&gt;Node12</title>
<path fill="none" stroke="#191970" d="M319.0245,-56.415C345.2264,-47.7577 385.0833,-34.5777 428.6896,-20.0984"/>
<polygon fill="#191970" stroke="#191970" points="429.9582,-23.3652 438.3452,-16.8915 427.7517,-16.722 429.9582,-23.3652"/>
</g>
<!-- Node13 -->
<g id="node14" class="node">
<title>Node13</title>
<polygon fill="none" stroke="#bfbfbf" points="62.5,-.5 62.5,-19.5 103.5,-19.5 103.5,-.5 62.5,-.5"/>
<text text-anchor="middle" x="83" y="-7.5" font-family="Helvetica,sans-Serif" font-size="10.00" fill="#000000">string</text>
</g>
<!-- Node11&#45;&gt;Node13 -->
<g id="edge17" class="edge">
<title>Node11&#45;&gt;Node13</title>
<path fill="none" stroke="#191970" d="M250.4214,-56.5258C216.5207,-48.2298 166.2077,-35.4911 113.4708,-19.9947"/>
<polygon fill="#191970" stroke="#191970" points="114.1812,-16.5548 103.5989,-17.0695 112.1925,-23.2664 114.1812,-16.5548"/>
</g>
<!-- Node14 -->
<g id="node15" class="node">
<title>Node14</title>
<polygon fill="none" stroke="#bfbfbf" points="122,-.5 122,-19.5 172,-19.5 172,-.5 122,-.5"/>
<text text-anchor="middle" x="147" y="-7.5" font-family="Helvetica,sans-Serif" font-size="10.00" fill="#000000">fstream</text>
</g>
<!-- Node11&#45;&gt;Node14 -->
<g id="edge18" class="edge">
<title>Node11&#45;&gt;Node14</title>
<path fill="none" stroke="#191970" d="M265.4174,-56.3733C242.0504,-47.2226 206.7138,-33.3844 180.7216,-23.2057"/>
<polygon fill="#191970" stroke="#191970" points="181.8495,-19.8886 171.2618,-19.5011 179.297,-26.4066 181.8495,-19.8886"/>
</g>
<!-- Node15 -->
<g id="node16" class="node">
<title>Node15</title>
<polygon fill="none" stroke="#bfbfbf" points="190,-.5 190,-19.5 242,-19.5 242,-.5 190,-.5"/>
<text text-anchor="middle" x="216" y="-7.5" font-family="Helvetica,sans-Serif" font-size="10.00" fill="#000000">sstream</text>
</g>
<!-- Node11&#45;&gt;Node15 -->
<g id="edge20" class="edge">
<title>Node11&#45;&gt;Node15</title>
<path fill="none" stroke="#191970" d="M277.1102,-56.2455C266.0746,-47.8943 249.9708,-35.7076 237.0647,-25.9408"/>
<polygon fill="#191970" stroke="#191970" points="238.8283,-22.8862 228.7421,-19.6427 234.6041,-28.4681 238.8283,-22.8862"/>
</g>
<!-- Node16 -->
<g id="node17" class="node">
<title>Node16</title>
<polygon fill="none" stroke="#bfbfbf" points="260.5,-.5 260.5,-19.5 319.5,-19.5 319.5,-.5 260.5,-.5"/>
<text text-anchor="middle" x="290" y="-7.5" font-family="Helvetica,sans-Serif" font-size="10.00" fill="#000000">stdexcept</text>
</g>
<!-- Node11&#45;&gt;Node16 -->
<g id="edge21" class="edge">
<title>Node11&#45;&gt;Node16</title>
<path fill="none" stroke="#191970" d="M290,-56.2455C290,-48.9382 290,-38.6944 290,-29.7046"/>
<polygon fill="#191970" stroke="#191970" points="293.5001,-29.6426 290,-19.6427 286.5001,-29.6427 293.5001,-29.6426"/>
</g>
<!-- Node17 -->
<g id="node18" class="node">
<title>Node17</title>
<polygon fill="none" stroke="#bfbfbf" points="337.5,-.5 337.5,-19.5 420.5,-19.5 420.5,-.5 337.5,-.5"/>
<text text-anchor="middle" x="379" y="-7.5" font-family="Helvetica,sans-Serif" font-size="10.00" fill="#000000">unordered_map</text>
</g>
<!-- Node11&#45;&gt;Node17 -->
<g id="edge22" class="edge">
<title>Node11&#45;&gt;Node17</title>
<path fill="none" stroke="#191970" d="M305.5026,-56.2455C319.158,-47.6534 339.2657,-35.0014 354.9989,-25.1018"/>
<polygon fill="#191970" stroke="#191970" points="357.0751,-27.9307 363.675,-19.6427 353.3471,-22.006 357.0751,-27.9307"/>
</g>
<!-- Node18&#45;&gt;Node1 -->
<g id="edge26" class="edge">
<title>Node18&#45;&gt;Node1</title>
<path fill="none" stroke="#191970" d="M699.5311,-63.8389C673.6519,-61.7479 633.1269,-58.5322 598,-56 359.1885,-38.7847 293.2228,-64.8756 54.2197,-19.7934"/>
<polygon fill="#191970" stroke="#191970" points="54.6591,-16.3142 44.1803,-17.8773 53.3468,-23.19 54.6591,-16.3142"/>
</g>
<!-- Node18&#45;&gt;Node9 -->
<g id="edge28" class="edge">
<title>Node18&#45;&gt;Node9</title>
<path fill="none" stroke="#191970" d="M726,-56.2455C726,-48.9382 726,-38.6944 726,-29.7046"/>
<polygon fill="#191970" stroke="#191970" points="729.5001,-29.6426 726,-19.6427 722.5001,-29.6427 729.5001,-29.6426"/>
</g>
<!-- Node18&#45;&gt;Node10 -->
<g id="edge24" class="edge">
<title>Node18&#45;&gt;Node10</title>
<path fill="none" stroke="#191970" d="M702.105,-56.3733C679.4918,-47.2629 645.3458,-33.5062 620.1127,-23.3404"/>
<polygon fill="#191970" stroke="#191970" points="621.1666,-19.9917 610.5831,-19.5011 618.5507,-26.4845 621.1666,-19.9917"/>
</g>
<!-- Node19 -->
<g id="node20" class="node">
<title>Node19</title>
<polygon fill="none" stroke="#bfbfbf" points="772.5,-.5 772.5,-19.5 821.5,-19.5 821.5,-.5 772.5,-.5"/>
<text text-anchor="middle" x="797" y="-7.5" font-family="Helvetica,sans-Serif" font-size="10.00" fill="#000000">cassert</text>
</g>
<!-- Node18&#45;&gt;Node19 -->
<g id="edge25" class="edge">
<title>Node18&#45;&gt;Node19</title>
<path fill="none" stroke="#191970" d="M738.3673,-56.2455C748.9554,-47.8943 764.4064,-35.7076 776.7893,-25.9408"/>
<polygon fill="#191970" stroke="#191970" points="779.0903,-28.5837 784.7745,-19.6427 774.7553,-23.0875 779.0903,-28.5837"/>
</g>
<!-- Node20 -->
<g id="node21" class="node">
<title>Node20</title>
<polygon fill="none" stroke="#bfbfbf" points="839.5,-.5 839.5,-19.5 898.5,-19.5 898.5,-.5 839.5,-.5"/>
<text text-anchor="middle" x="869" y="-7.5" font-family="Helvetica,sans-Serif" font-size="10.00" fill="#000000">functional</text>
</g>
<!-- Node18&#45;&gt;Node20 -->
<g id="edge27" class="edge">
<title>Node18&#45;&gt;Node20</title>
<path fill="none" stroke="#191970" d="M750.5826,-56.3733C773.9496,-47.2226 809.2862,-33.3844 835.2784,-23.2057"/>
<polygon fill="#191970" stroke="#191970" points="836.703,-26.4066 844.7382,-19.5011 834.1505,-19.8886 836.703,-26.4066"/>
</g>
<!-- Node21 -->
<g id="node22" class="node">
<title>Node21</title>
<polygon fill="none" stroke="#bfbfbf" points="916.5,-.5 916.5,-19.5 967.5,-19.5 967.5,-.5 916.5,-.5"/>
<text text-anchor="middle" x="942" y="-7.5" font-family="Helvetica,sans-Serif" font-size="10.00" fill="#000000">numeric</text>
</g>
<!-- Node18&#45;&gt;Node21 -->
<g id="edge29" class="edge">
<title>Node18&#45;&gt;Node21</title>
<path fill="none" stroke="#191970" d="M752.0019,-59.7616C785.5978,-51.6292 846.1173,-36.736 906.692,-20.2926"/>
<polygon fill="#191970" stroke="#191970" points="907.6842,-23.6499 916.4103,-17.641 905.8416,-16.8967 907.6842,-23.6499"/>
</g>
</g>
</svg>
