<?xml version="1.0" encoding="UTF-8" standalone="no"?>
<!DOCTYPE svg PUBLIC "-//W3C//DTD SVG 1.1//EN"
 "http://www.w3.org/Graphics/SVG/1.1/DTD/svg11.dtd">
<!-- Generated by graphviz version 2.40.1 (20161225.0304)
 -->
<!-- Title: src/simulator.cpp Pages: 1 -->
<svg width="644pt" height="308pt"
 viewBox="0.00 0.00 644.00 308.00" xmlns="http://www.w3.org/2000/svg" xmlns:xlink="http://www.w3.org/1999/xlink">
<g id="graph0" class="graph" transform="scale(1 1) rotate(0) translate(4 304)">
<title>src/simulator.cpp</title>
<!-- Node0 -->
<g id="node1" class="node">
<title>Node0</title>
<polygon fill="#bfbfbf" stroke="#000000" points="479,-280.5 479,-299.5 571,-299.5 571,-280.5 479,-280.5"/>
<text text-anchor="middle" x="525" y="-287.5" font-family="Helvetica,sans-Serif" font-size="10.00" fill="#000000">src/simulator.cpp</text>
</g>
<!-- Node1 -->
<g id="node2" class="node">
<title>Node1</title>
<g id="a_node2"><a xlink:href="simulator_8h.html" target="_top" xlink:title="simulator.h">
<polygon fill="none" stroke="#000000" points="153.5,-224.5 153.5,-243.5 218.5,-243.5 218.5,-224.5 153.5,-224.5"/>
<text text-anchor="middle" x="186" y="-231.5" font-family="Helvetica,sans-Serif" font-size="10.00" fill="#000000">simulator.h</text>
</a>
</g>
</g>
<!-- Node0&#45;&gt;Node1 -->
<g id="edge1" class="edge">
<title>Node0&#45;&gt;Node1</title>
<path fill="none" stroke="#191970" d="M478.9281,-282.3893C413.0774,-271.5113 292.9419,-251.6659 228.8921,-241.0854"/>
<polygon fill="#191970" stroke="#191970" points="229.1724,-237.5844 218.7356,-239.4077 228.0315,-244.4908 229.1724,-237.5844"/>
</g>
<!-- Node7 -->
<g id="node8" class="node">
<title>Node7</title>
<polygon fill="none" stroke="#bfbfbf" points="434,-.5 434,-19.5 490,-19.5 490,-.5 434,-.5"/>
<text text-anchor="middle" x="462" y="-7.5" font-family="Helvetica,sans-Serif" font-size="10.00" fill="#000000">algorithm</text>
</g>
<!-- Node0&#45;&gt;Node7 -->
<g id="edge21" class="edge">
<title>Node0&#45;&gt;Node7</title>
<path fill="none" stroke="#191970" d="M521.3112,-280.2751C514.357,-261.0407 500,-216.6505 500,-178 500,-178 500,-178 500,-122 500,-87.6118 483.7366,-50.2832 472.489,-28.5791"/>
<polygon fill="#191970" stroke="#191970" points="475.431,-26.6605 467.607,-19.5166 469.2683,-29.9804 475.431,-26.6605"/>
</g>
<!-- Node14 -->
<g id="node15" class="node">
<title>Node14</title>
<polygon fill="none" stroke="#bfbfbf" points="528,-224.5 528,-243.5 574,-243.5 574,-224.5 528,-224.5"/>
<text text-anchor="middle" x="551" y="-231.5" font-family="Helvetica,sans-Serif" font-size="10.00" fill="#000000">chrono</text>
</g>
<!-- Node0&#45;&gt;Node14 -->
<g id="edge22" class="edge">
<title>Node0&#45;&gt;Node14</title>
<path fill="none" stroke="#191970" d="M529.5289,-280.2455C533.0334,-272.6973 537.9927,-262.0158 542.2623,-252.8197"/>
<polygon fill="#191970" stroke="#191970" points="545.4864,-254.1867 546.523,-243.6427 539.1373,-251.2389 545.4864,-254.1867"/>
</g>
<!-- Node15 -->
<g id="node16" class="node">
<title>Node15</title>
<polygon fill="none" stroke="#bfbfbf" points="592,-224.5 592,-243.5 636,-243.5 636,-224.5 592,-224.5"/>
<text text-anchor="middle" x="614" y="-231.5" font-family="Helvetica,sans-Serif" font-size="10.00" fill="#000000">thread</text>
</g>
<!-- Node0&#45;&gt;Node15 -->
<g id="edge23" class="edge">
<title>Node0&#45;&gt;Node15</title>
<path fill="none" stroke="#191970" d="M540.5026,-280.2455C554.158,-271.6534 574.2657,-259.0014 589.9989,-249.1018"/>
<polygon fill="#191970" stroke="#191970" points="592.0751,-251.9307 598.675,-243.6427 588.3471,-246.006 592.0751,-251.9307"/>
</g>
<!-- Node2 -->
<g id="node3" class="node">
<title>Node2</title>
<g id="a_node3"><a xlink:href="population_8h.html" target="_top" xlink:title="population.h">
<polygon fill="none" stroke="#000000" points="76.5,-168.5 76.5,-187.5 145.5,-187.5 145.5,-168.5 76.5,-168.5"/>
<text text-anchor="middle" x="111" y="-175.5" font-family="Helvetica,sans-Serif" font-size="10.00" fill="#000000">population.h</text>
</a>
</g>
</g>
<!-- Node1&#45;&gt;Node2 -->
<g id="edge2" class="edge">
<title>Node1&#45;&gt;Node2</title>
<path fill="none" stroke="#191970" d="M172.936,-224.2455C161.6438,-215.814 145.1155,-203.4729 131.9729,-193.6598"/>
<polygon fill="#191970" stroke="#191970" points="134.0211,-190.8211 123.9143,-187.6427 129.8331,-196.4301 134.0211,-190.8211"/>
</g>
<!-- Node4 -->
<g id="node5" class="node">
<title>Node4</title>
<polygon fill="none" stroke="#bfbfbf" points="138,-56.5 138,-75.5 182,-75.5 182,-56.5 138,-56.5"/>
<text text-anchor="middle" x="160" y="-63.5" font-family="Helvetica,sans-Serif" font-size="10.00" fill="#000000">vector</text>
</g>
<!-- Node1&#45;&gt;Node4 -->
<g id="edge12" class="edge">
<title>Node1&#45;&gt;Node4</title>
<path fill="none" stroke="#191970" d="M184.5276,-224.4862C180.4176,-197.9293 168.7541,-122.5651 163.1209,-86.1655"/>
<polygon fill="#191970" stroke="#191970" points="166.5093,-85.1749 161.521,-75.8279 159.5917,-86.2456 166.5093,-85.1749"/>
</g>
<!-- Node9 -->
<g id="node10" class="node">
<title>Node9</title>
<polygon fill="none" stroke="#bfbfbf" points="0,-.5 0,-19.5 48,-19.5 48,-.5 0,-.5"/>
<text text-anchor="middle" x="24" y="-7.5" font-family="Helvetica,sans-Serif" font-size="10.00" fill="#000000">Rcpp.h</text>
</g>
<!-- Node1&#45;&gt;Node9 -->
<g id="edge13" class="edge">
<title>Node1&#45;&gt;Node9</title>
<path fill="none" stroke="#191970" d="M153.3162,-229.3943C126.5763,-223.9557 89.6064,-212.3476 67,-188 25.6194,-143.4321 22.0717,-66.0783 22.9218,-29.8234"/>
<polygon fill="#191970" stroke="#191970" points="26.4283,-29.7157 23.31,-19.5902 19.4334,-29.4503 26.4283,-29.7157"/>
</g>
<!-- Node10 -->
<g id="node11" class="node">
<title>Node10</title>
<g id="a_node11"><a xlink:href="tensor_8h.html" target="_top" xlink:title="tensor.h">
<polygon fill="none" stroke="#000000" points="238,-112.5 238,-131.5 290,-131.5 290,-112.5 238,-112.5"/>
<text text-anchor="middle" x="264" y="-119.5" font-family="Helvetica,sans-Serif" font-size="10.00" fill="#000000">tensor.h</text>
</a>
</g>
</g>
<!-- Node1&#45;&gt;Node10 -->
<g id="edge14" class="edge">
<title>Node1&#45;&gt;Node10</title>
<path fill="none" stroke="#191970" d="M192.6502,-224.4509C205.7173,-205.688 234.9208,-163.7548 251.6328,-139.758"/>
<polygon fill="#191970" stroke="#191970" points="254.5237,-141.7312 257.3666,-131.5249 248.7795,-137.7307 254.5237,-141.7312"/>
</g>
<!-- Node3 -->
<g id="node4" class="node">
<title>Node3</title>
<g id="a_node4"><a xlink:href="fish_8h.html" target="_top" xlink:title="fish.h">
<polygon fill="none" stroke="#000000" points="78.5,-112.5 78.5,-131.5 119.5,-131.5 119.5,-112.5 78.5,-112.5"/>
<text text-anchor="middle" x="99" y="-119.5" font-family="Helvetica,sans-Serif" font-size="10.00" fill="#000000">fish.h</text>
</a>
</g>
</g>
<!-- Node2&#45;&gt;Node3 -->
<g id="edge3" class="edge">
<title>Node2&#45;&gt;Node3</title>
<path fill="none" stroke="#191970" d="M108.9098,-168.2455C107.3439,-160.9382 105.1488,-150.6944 103.2224,-141.7046"/>
<polygon fill="#191970" stroke="#191970" points="106.584,-140.6873 101.0663,-131.6427 99.7393,-142.1541 106.584,-140.6873"/>
</g>
<!-- Node2&#45;&gt;Node4 -->
<g id="edge10" class="edge">
<title>Node2&#45;&gt;Node4</title>
<path fill="none" stroke="#191970" d="M115.1777,-168.4509C123.278,-149.936 141.2492,-108.8591 151.8106,-84.7187"/>
<polygon fill="#191970" stroke="#191970" points="155.0312,-86.0894 155.8329,-75.5249 148.6181,-83.2836 155.0312,-86.0894"/>
</g>
<!-- Node2&#45;&gt;Node9 -->
<g id="edge11" class="edge">
<title>Node2&#45;&gt;Node9</title>
<path fill="none" stroke="#191970" d="M100.2455,-168.2341C91.041,-159.4432 77.9039,-145.8172 69,-132 47.6954,-98.9392 34.547,-54.3742 28.3204,-29.2748"/>
<polygon fill="#191970" stroke="#191970" points="31.7184,-28.4348 26.0069,-19.5112 24.907,-30.0488 31.7184,-28.4348"/>
</g>
<!-- Node3&#45;&gt;Node4 -->
<g id="edge4" class="edge">
<title>Node3&#45;&gt;Node4</title>
<path fill="none" stroke="#191970" d="M109.6254,-112.2455C118.5473,-104.0549 131.488,-92.1749 142.0192,-82.5069"/>
<polygon fill="#191970" stroke="#191970" points="144.4968,-84.9837 149.4964,-75.6427 139.7629,-79.8271 144.4968,-84.9837"/>
</g>
<!-- Node5 -->
<g id="node6" class="node">
<title>Node5</title>
<g id="a_node6"><a xlink:href="functions_8h.html" target="_top" xlink:title="functions.h">
<polygon fill="none" stroke="#000000" points="54.5,-56.5 54.5,-75.5 119.5,-75.5 119.5,-56.5 54.5,-56.5"/>
<text text-anchor="middle" x="87" y="-63.5" font-family="Helvetica,sans-Serif" font-size="10.00" fill="#000000">functions.h</text>
</a>
</g>
</g>
<!-- Node3&#45;&gt;Node5 -->
<g id="edge5" class="edge">
<title>Node3&#45;&gt;Node5</title>
<path fill="none" stroke="#191970" d="M96.9098,-112.2455C95.3439,-104.9382 93.1488,-94.6944 91.2224,-85.7046"/>
<polygon fill="#191970" stroke="#191970" points="94.584,-84.6873 89.0663,-75.6427 87.7393,-86.1541 94.584,-84.6873"/>
</g>
<!-- Node6 -->
<g id="node7" class="node">
<title>Node6</title>
<polygon fill="none" stroke="#bfbfbf" points="66,-.5 66,-19.5 110,-19.5 110,-.5 66,-.5"/>
<text text-anchor="middle" x="88" y="-7.5" font-family="Helvetica,sans-Serif" font-size="10.00" fill="#000000">cmath</text>
</g>
<!-- Node5&#45;&gt;Node6 -->
<g id="edge6" class="edge">
<title>Node5&#45;&gt;Node6</title>
<path fill="none" stroke="#191970" d="M87.1742,-56.2455C87.3047,-48.9382 87.4876,-38.6944 87.6481,-29.7046"/>
<polygon fill="#191970" stroke="#191970" points="91.1486,-29.7036 87.8278,-19.6427 84.1497,-29.5786 91.1486,-29.7036"/>
</g>
<!-- Node5&#45;&gt;Node7 -->
<g id="edge7" class="edge">
<title>Node5&#45;&gt;Node7</title>
<path fill="none" stroke="#191970" d="M119.9507,-57.8372C123.002,-57.1773 126.0532,-56.553 129,-56 235.0065,-36.1064 361.5026,-20.9625 423.6596,-14.0782"/>
<polygon fill="#191970" stroke="#191970" points="424.2263,-17.5371 433.7848,-12.967 423.4626,-10.5789 424.2263,-17.5371"/>
</g>
<!-- Node8 -->
<g id="node9" class="node">
<title>Node8</title>
<polygon fill="none" stroke="#bfbfbf" points="155,-.5 155,-19.5 209,-19.5 209,-.5 155,-.5"/>
<text text-anchor="middle" x="182" y="-7.5" font-family="Helvetica,sans-Serif" font-size="10.00" fill="#000000">iostream</text>
</g>
<!-- Node5&#45;&gt;Node8 -->
<g id="edge8" class="edge">
<title>Node5&#45;&gt;Node8</title>
<path fill="none" stroke="#191970" d="M103.5477,-56.2455C118.2599,-47.5731 139.9888,-34.7645 156.8505,-24.825"/>
<polygon fill="#191970" stroke="#191970" points="158.8046,-27.736 165.6419,-19.6427 155.2498,-21.7057 158.8046,-27.736"/>
</g>
<!-- Node5&#45;&gt;Node9 -->
<g id="edge9" class="edge">
<title>Node5&#45;&gt;Node9</title>
<path fill="none" stroke="#191970" d="M76.0262,-56.2455C66.8118,-48.0549 53.4468,-36.1749 42.5703,-26.5069"/>
<polygon fill="#191970" stroke="#191970" points="44.6474,-23.6704 34.848,-19.6427 39.9968,-28.9023 44.6474,-23.6704"/>
</g>
<!-- Node10&#45;&gt;Node4 -->
<g id="edge17" class="edge">
<title>Node10&#45;&gt;Node4</title>
<path fill="none" stroke="#191970" d="M245.8846,-112.2455C229.555,-103.4527 205.329,-90.4079 186.7661,-80.4125"/>
<polygon fill="#191970" stroke="#191970" points="188.3719,-77.3021 177.9078,-75.6427 185.0532,-83.4654 188.3719,-77.3021"/>
</g>
<!-- Node10&#45;&gt;Node7 -->
<g id="edge19" class="edge">
<title>Node10&#45;&gt;Node7</title>
<path fill="none" stroke="#191970" d="M290.2476,-118.4877C334.5124,-112.0535 421.311,-97.0741 443,-76 455.4026,-63.949 459.8505,-44.3695 461.3761,-29.6595"/>
<polygon fill="#191970" stroke="#191970" points="464.876,-29.778 462.0565,-19.5652 457.8918,-29.3072 464.876,-29.778"/>
</g>
<!-- Node10&#45;&gt;Node8 -->
<g id="edge15" class="edge">
<title>Node10&#45;&gt;Node8</title>
<path fill="none" stroke="#191970" d="M256.6824,-112.1457C249.7819,-102.8423 239.1602,-88.4937 230,-76 218.1564,-59.8463 204.7551,-41.4059 195.1286,-28.1308"/>
<polygon fill="#191970" stroke="#191970" points="197.8349,-25.9007 189.1327,-19.8572 192.1668,-30.0084 197.8349,-25.9007"/>
</g>
<!-- Node11 -->
<g id="node12" class="node">
<title>Node11</title>
<polygon fill="none" stroke="#bfbfbf" points="307.5,-56.5 307.5,-75.5 356.5,-75.5 356.5,-56.5 307.5,-56.5"/>
<text text-anchor="middle" x="332" y="-63.5" font-family="Helvetica,sans-Serif" font-size="10.00" fill="#000000">cassert</text>
</g>
<!-- Node10&#45;&gt;Node11 -->
<g id="edge16" class="edge">
<title>Node10&#45;&gt;Node11</title>
<path fill="none" stroke="#191970" d="M275.8447,-112.2455C285.888,-103.9746 300.4995,-91.9416 312.3004,-82.2232"/>
<polygon fill="#191970" stroke="#191970" points="314.7967,-84.7015 320.291,-75.6427 310.3467,-79.298 314.7967,-84.7015"/>
</g>
<!-- Node12 -->
<g id="node13" class="node">
<title>Node12</title>
<polygon fill="none" stroke="#bfbfbf" points="374.5,-56.5 374.5,-75.5 433.5,-75.5 433.5,-56.5 374.5,-56.5"/>
<text text-anchor="middle" x="404" y="-63.5" font-family="Helvetica,sans-Serif" font-size="10.00" fill="#000000">functional</text>
</g>
<!-- Node10&#45;&gt;Node12 -->
<g id="edge18" class="edge">
<title>Node10&#45;&gt;Node12</title>
<path fill="none" stroke="#191970" d="M288.0669,-112.3733C310.8428,-103.2629 345.2344,-89.5062 370.649,-79.3404"/>
<polygon fill="#191970" stroke="#191970" points="372.2623,-82.4648 380.2472,-75.5011 369.6625,-75.9654 372.2623,-82.4648"/>
</g>
<!-- Node13 -->
<g id="node14" class="node">
<title>Node13</title>
<polygon fill="none" stroke="#bfbfbf" points="238.5,-56.5 238.5,-75.5 289.5,-75.5 289.5,-56.5 238.5,-56.5"/>
<text text-anchor="middle" x="264" y="-63.5" font-family="Helvetica,sans-Serif" font-size="10.00" fill="#000000">numeric</text>
</g>
<!-- Node10&#45;&gt;Node13 -->
<g id="edge20" class="edge">
<title>Node10&#45;&gt;Node13</title>
<path fill="none" stroke="#191970" d="M264,-112.2455C264,-104.9382 264,-94.6944 264,-85.7046"/>
<polygon fill="#191970" stroke="#191970" points="267.5001,-85.6426 264,-75.6427 260.5001,-85.6427 267.5001,-85.6426"/>
</g>
</g>
</svg>
