<?xml version="1.0" encoding="UTF-8" standalone="no"?>
<!DOCTYPE svg PUBLIC "-//W3C//DTD SVG 1.1//EN"
 "http://www.w3.org/Graphics/SVG/1.1/DTD/svg11.dtd">
<!-- Generated by graphviz version 2.40.1 (20161225.0304)
 -->
<!-- Title: pn::BrentRes::BrentRes Pages: 1 -->
<svg width="626pt" height="165pt"
 viewBox="0.00 0.00 626.00 164.50" xmlns="http://www.w3.org/2000/svg" xmlns:xlink="http://www.w3.org/1999/xlink">
<g id="graph0" class="graph" transform="scale(1 1) rotate(0) translate(4 160.5)">
<title>pn::BrentRes::BrentRes</title>
<!-- Node1 -->
<g id="node1" class="node">
<title>Node1</title>
<polygon fill="#bfbfbf" stroke="#000000" points="0,-77 0,-96 122,-96 122,-77 0,-77"/>
<text text-anchor="middle" x="61" y="-84" font-family="Helvetica,sans-Serif" font-size="10.00" fill="#000000">pn::BrentRes::BrentRes</text>
</g>
<!-- Node2 -->
<g id="node2" class="node">
<title>Node2</title>
<g id="a_node2"><a xlink:href="namespacepn.html#ad42003887dcc42a4758c69775f83a8d9" target="_top" xlink:title="pn::zero">
<polygon fill="none" stroke="#000000" points="158,-77 158,-96 210,-96 210,-77 158,-77"/>
<text text-anchor="middle" x="184" y="-84" font-family="Helvetica,sans-Serif" font-size="10.00" fill="#000000">pn::zero</text>
</a>
</g>
</g>
<!-- Node1&#45;&gt;Node2 -->
<g id="edge1" class="edge">
<title>Node1&#45;&gt;Node2</title>
<path fill="none" stroke="#191970" d="M132.3889,-86.5C141.3951,-86.5 150.1109,-86.5 157.736,-86.5"/>
<polygon fill="#191970" stroke="#191970" points="132.1397,-83.0001 122.1397,-86.5 132.1396,-90.0001 132.1397,-83.0001"/>
</g>
<!-- Node3 -->
<g id="node3" class="node">
<title>Node3</title>
<g id="a_node3"><a xlink:href="classPopulation.html#aa404f725dcde475806cdb26704b9fbcf" target="_top" xlink:title="Population::update">
<polygon fill="none" stroke="#000000" points="246,-77 246,-96 344,-96 344,-77 246,-77"/>
<text text-anchor="middle" x="295" y="-84" font-family="Helvetica,sans-Serif" font-size="10.00" fill="#000000">Population::update</text>
</a>
</g>
</g>
<!-- Node2&#45;&gt;Node3 -->
<g id="edge2" class="edge">
<title>Node2&#45;&gt;Node3</title>
<path fill="none" stroke="#191970" d="M220.2453,-86.5C228.3462,-86.5 237.0719,-86.5 245.6029,-86.5"/>
<polygon fill="#191970" stroke="#191970" points="220.0246,-83.0001 210.0246,-86.5 220.0245,-90.0001 220.0246,-83.0001"/>
</g>
<!-- Node4 -->
<g id="node4" class="node">
<title>Node4</title>
<g id="a_node4"><a xlink:href="fish__glue_8cpp.html#ab96ae82277aa9004dc603b77512c7265" target="_top" xlink:title="RCPP_MODULE">
<polygon fill="none" stroke="#000000" points="388,-137 388,-156 481,-156 481,-137 388,-137"/>
<text text-anchor="middle" x="434.5" y="-144" font-family="Helvetica,sans-Serif" font-size="10.00" fill="#000000">RCPP_MODULE</text>
</a>
</g>
</g>
<!-- Node3&#45;&gt;Node4 -->
<g id="edge3" class="edge">
<title>Node3&#45;&gt;Node4</title>
<path fill="none" stroke="#191970" d="M322.3655,-100.6822C338.8511,-108.9778 360.3851,-119.3812 380,-127.5 388.0549,-130.834 396.9295,-134.0963 405.1362,-136.9506"/>
<polygon fill="#191970" stroke="#191970" points="323.7959,-97.4831 313.2951,-96.0746 320.6256,-103.7241 323.7959,-97.4831"/>
</g>
<!-- Node5 -->
<g id="node5" class="node">
<title>Node5</title>
<g id="a_node5"><a xlink:href="classSimulator.html#a16eef6e60e97dabc2a1205b58b10182c" target="_top" xlink:title="Simulator::simulate_r">
<polygon fill="none" stroke="#000000" points="380,-99 380,-118 489,-118 489,-99 380,-99"/>
<text text-anchor="middle" x="434.5" y="-106" font-family="Helvetica,sans-Serif" font-size="10.00" fill="#000000">Simulator::simulate_r</text>
</a>
</g>
</g>
<!-- Node3&#45;&gt;Node5 -->
<g id="edge4" class="edge">
<title>Node3&#45;&gt;Node5</title>
<path fill="none" stroke="#191970" d="M354.2841,-95.8495C362.6773,-97.1731 371.2775,-98.5294 379.5834,-99.8393"/>
<polygon fill="#191970" stroke="#191970" points="354.6057,-92.357 344.1825,-94.2564 353.5151,-99.2715 354.6057,-92.357"/>
</g>
<!-- Node7 -->
<g id="node7" class="node">
<title>Node7</title>
<g id="a_node7"><a xlink:href="classSimulator.html#a3e61a52f336d592216770c0c43cfd388" target="_top" xlink:title="Simulator::simulate\l_multi">
<polygon fill="none" stroke="#000000" points="384,-49.5 384,-79.5 485,-79.5 485,-49.5 384,-49.5"/>
<text text-anchor="start" x="392" y="-67.5" font-family="Helvetica,sans-Serif" font-size="10.00" fill="#000000">Simulator::simulate</text>
<text text-anchor="middle" x="434.5" y="-56.5" font-family="Helvetica,sans-Serif" font-size="10.00" fill="#000000">_multi</text>
</a>
</g>
</g>
<!-- Node3&#45;&gt;Node7 -->
<g id="edge6" class="edge">
<title>Node3&#45;&gt;Node7</title>
<path fill="none" stroke="#191970" d="M354.303,-77.1475C364.1459,-75.5953 374.2726,-73.9982 383.8753,-72.4838"/>
<polygon fill="#191970" stroke="#191970" points="353.5151,-73.7285 344.1825,-78.7436 354.6057,-80.643 353.5151,-73.7285"/>
</g>
<!-- Node8 -->
<g id="node8" class="node">
<title>Node8</title>
<g id="a_node8"><a xlink:href="classSimulator.html#a636e7a83b462c3e48769a85ae350e742" target="_top" xlink:title="Simulator::simulate\l_multi_2d">
<polygon fill="none" stroke="#000000" points="384,-.5 384,-30.5 485,-30.5 485,-.5 384,-.5"/>
<text text-anchor="start" x="392" y="-18.5" font-family="Helvetica,sans-Serif" font-size="10.00" fill="#000000">Simulator::simulate</text>
<text text-anchor="middle" x="434.5" y="-7.5" font-family="Helvetica,sans-Serif" font-size="10.00" fill="#000000">_multi_2d</text>
</a>
</g>
</g>
<!-- Node3&#45;&gt;Node8 -->
<g id="edge8" class="edge">
<title>Node3&#45;&gt;Node8</title>
<path fill="none" stroke="#191970" d="M321.2157,-71.7327C337.8997,-62.4796 360.0466,-50.4621 380,-40.5 386.6126,-37.1985 393.7494,-33.8054 400.611,-30.6253"/>
<polygon fill="#191970" stroke="#191970" points="319.1116,-68.8985 312.0816,-76.825 322.5203,-75.0126 319.1116,-68.8985"/>
</g>
<!-- Node6 -->
<g id="node6" class="node">
<title>Node6</title>
<g id="a_node6"><a xlink:href="fish__glue_8cpp.html#addebb0997b0e49067d8784c9954b7b96" target="_top" xlink:title="RCPP_MODULE">
<polygon fill="none" stroke="#000000" points="525,-55 525,-74 618,-74 618,-55 525,-55"/>
<text text-anchor="middle" x="571.5" y="-62" font-family="Helvetica,sans-Serif" font-size="10.00" fill="#000000">RCPP_MODULE</text>
</a>
</g>
</g>
<!-- Node5&#45;&gt;Node6 -->
<g id="edge5" class="edge">
<title>Node5&#45;&gt;Node6</title>
<path fill="none" stroke="#191970" d="M473.8015,-95.8776C495.4627,-88.9207 521.9162,-80.4247 541.8311,-74.0287"/>
<polygon fill="#191970" stroke="#191970" points="472.6777,-92.5624 464.227,-98.9527 474.8182,-99.2271 472.6777,-92.5624"/>
</g>
<!-- Node7&#45;&gt;Node6 -->
<g id="edge7" class="edge">
<title>Node7&#45;&gt;Node6</title>
<path fill="none" stroke="#191970" d="M495.2947,-64.5C505.1625,-64.5 515.2464,-64.5 524.7131,-64.5"/>
<polygon fill="#191970" stroke="#191970" points="495.1245,-61.0001 485.1245,-64.5 495.1245,-68.0001 495.1245,-61.0001"/>
</g>
<!-- Node8&#45;&gt;Node6 -->
<g id="edge9" class="edge">
<title>Node8&#45;&gt;Node6</title>
<path fill="none" stroke="#191970" d="M486.3007,-34.0272C506.2049,-41.1463 528.1124,-48.9818 544.728,-54.9246"/>
<polygon fill="#191970" stroke="#191970" points="487.317,-30.6737 476.7224,-30.6014 484.9595,-37.2648 487.317,-30.6737"/>
</g>
</g>
</svg>
