<?xml version="1.0" encoding="UTF-8" standalone="no"?>
<!DOCTYPE svg PUBLIC "-//W3C//DTD SVG 1.1//EN"
 "http://www.w3.org/Graphics/SVG/1.1/DTD/svg11.dtd">
<!-- Generated by graphviz version 2.40.1 (20161225.0304)
 -->
<!-- Title: pn::BrentRes::BrentRes Pages: 1 -->
<svg width="763pt" height="160pt"
 viewBox="0.00 0.00 763.00 160.00" xmlns="http://www.w3.org/2000/svg" xmlns:xlink="http://www.w3.org/1999/xlink">
<g id="graph0" class="graph" transform="scale(1 1) rotate(0) translate(4 156)">
<title>pn::BrentRes::BrentRes</title>
<!-- Node1 -->
<g id="node1" class="node">
<title>Node1</title>
<polygon fill="#bfbfbf" stroke="#000000" points="0,-66.5 0,-85.5 122,-85.5 122,-66.5 0,-66.5"/>
<text text-anchor="middle" x="61" y="-73.5" font-family="Helvetica,sans-Serif" font-size="10.00" fill="#000000">pn::BrentRes::BrentRes</text>
</g>
<!-- Node2 -->
<g id="node2" class="node">
<title>Node2</title>
<g id="a_node2"><a xlink:href="namespacepn.html#ad42003887dcc42a4758c69775f83a8d9" target="_top" xlink:title="pn::zero">
<polygon fill="none" stroke="#000000" points="158,-66.5 158,-85.5 210,-85.5 210,-66.5 158,-66.5"/>
<text text-anchor="middle" x="184" y="-73.5" font-family="Helvetica,sans-Serif" font-size="10.00" fill="#000000">pn::zero</text>
</a>
</g>
</g>
<!-- Node1&#45;&gt;Node2 -->
<g id="edge1" class="edge">
<title>Node1&#45;&gt;Node2</title>
<path fill="none" stroke="#191970" d="M132.3889,-76C141.3951,-76 150.1109,-76 157.736,-76"/>
<polygon fill="#191970" stroke="#191970" points="132.1397,-72.5001 122.1397,-76 132.1396,-79.5001 132.1397,-72.5001"/>
</g>
<!-- Node3 -->
<g id="node3" class="node">
<title>Node3</title>
<g id="a_node3"><a xlink:href="classPopulation.html#aa404f725dcde475806cdb26704b9fbcf" target="_top" xlink:title="Population::update">
<polygon fill="none" stroke="#000000" points="246,-66.5 246,-85.5 344,-85.5 344,-66.5 246,-66.5"/>
<text text-anchor="middle" x="295" y="-73.5" font-family="Helvetica,sans-Serif" font-size="10.00" fill="#000000">Population::update</text>
</a>
</g>
</g>
<!-- Node2&#45;&gt;Node3 -->
<g id="edge2" class="edge">
<title>Node2&#45;&gt;Node3</title>
<path fill="none" stroke="#191970" d="M220.2453,-76C228.3462,-76 237.0719,-76 245.6029,-76"/>
<polygon fill="#191970" stroke="#191970" points="220.0246,-72.5001 210.0246,-76 220.0245,-79.5001 220.0246,-72.5001"/>
</g>
<!-- Node4 -->
<g id="node4" class="node">
<title>Node4</title>
<g id="a_node4"><a xlink:href="fish__glue_8cpp.html#ab96ae82277aa9004dc603b77512c7265" target="_top" xlink:title="RCPP_MODULE">
<polygon fill="none" stroke="#000000" points="384,-132.5 384,-151.5 477,-151.5 477,-132.5 384,-132.5"/>
<text text-anchor="middle" x="430.5" y="-139.5" font-family="Helvetica,sans-Serif" font-size="10.00" fill="#000000">RCPP_MODULE</text>
</a>
</g>
</g>
<!-- Node3&#45;&gt;Node4 -->
<g id="edge3" class="edge">
<title>Node3&#45;&gt;Node4</title>
<path fill="none" stroke="#191970" d="M319.2339,-90.6353C335.9792,-100.4388 358.9438,-113.28 380,-123 387.3142,-126.3764 395.4133,-129.6285 402.9445,-132.4588"/>
<polygon fill="#191970" stroke="#191970" points="321.0112,-87.6201 310.6224,-85.5406 317.4469,-93.6447 321.0112,-87.6201"/>
</g>
<!-- Node5 -->
<g id="node5" class="node">
<title>Node5</title>
<g id="a_node5"><a xlink:href="classSimulator.html#a4734ed6f01bdac62f74ebd20dd761f2b" target="_top" xlink:title="Simulator::simulate\l_multi">
<polygon fill="none" stroke="#000000" points="380,-83 380,-113 481,-113 481,-83 380,-83"/>
<text text-anchor="start" x="388" y="-101" font-family="Helvetica,sans-Serif" font-size="10.00" fill="#000000">Simulator::simulate</text>
<text text-anchor="middle" x="430.5" y="-90" font-family="Helvetica,sans-Serif" font-size="10.00" fill="#000000">_multi</text>
</a>
</g>
</g>
<!-- Node3&#45;&gt;Node5 -->
<g id="edge4" class="edge">
<title>Node3&#45;&gt;Node5</title>
<path fill="none" stroke="#191970" d="M354.4331,-85.6497C362.8384,-87.0144 371.4172,-88.4072 379.6412,-89.7425"/>
<polygon fill="#191970" stroke="#191970" points="354.7336,-82.1527 344.3019,-84.0047 353.6117,-89.0622 354.7336,-82.1527"/>
</g>
<!-- Node8 -->
<g id="node8" class="node">
<title>Node8</title>
<g id="a_node8"><a xlink:href="classSimulator.html#a636e7a83b462c3e48769a85ae350e742" target="_top" xlink:title="Simulator::simulate\l_multi_2d">
<polygon fill="none" stroke="#000000" points="521,-39 521,-69 622,-69 622,-39 521,-39"/>
<text text-anchor="start" x="529" y="-57" font-family="Helvetica,sans-Serif" font-size="10.00" fill="#000000">Simulator::simulate</text>
<text text-anchor="middle" x="571.5" y="-46" font-family="Helvetica,sans-Serif" font-size="10.00" fill="#000000">_multi_2d</text>
</a>
</g>
</g>
<!-- Node3&#45;&gt;Node8 -->
<g id="edge7" class="edge">
<title>Node3&#45;&gt;Node8</title>
<path fill="none" stroke="#191970" d="M354.3785,-71.2755C404.0029,-67.3271 474.0003,-61.7577 520.9747,-58.0201"/>
<polygon fill="#191970" stroke="#191970" points="353.8049,-67.81 344.114,-72.0922 354.3602,-74.7879 353.8049,-67.81"/>
</g>
<!-- Node9 -->
<g id="node9" class="node">
<title>Node9</title>
<g id="a_node9"><a xlink:href="classSimulator.html#a16eef6e60e97dabc2a1205b58b10182c" target="_top" xlink:title="Simulator::simulate_r">
<polygon fill="none" stroke="#000000" points="517,-.5 517,-19.5 626,-19.5 626,-.5 517,-.5"/>
<text text-anchor="middle" x="571.5" y="-7.5" font-family="Helvetica,sans-Serif" font-size="10.00" fill="#000000">Simulator::simulate_r</text>
</a>
</g>
</g>
<!-- Node3&#45;&gt;Node9 -->
<g id="edge9" class="edge">
<title>Node3&#45;&gt;Node9</title>
<path fill="none" stroke="#191970" d="M344.859,-64.0988C398.3653,-51.3269 482.2926,-31.2936 531.6019,-19.5236"/>
<polygon fill="#191970" stroke="#191970" points="343.8243,-60.7473 334.9102,-66.4735 345.4496,-67.5561 343.8243,-60.7473"/>
</g>
<!-- Node6 -->
<g id="node6" class="node">
<title>Node6</title>
<g id="a_node6"><a xlink:href="classSimulator.html#adb6faf4ee69f21998ce7dc79c065a3e9" target="_top" xlink:title="Simulator::simulate\l_multi_r">
<polygon fill="none" stroke="#000000" points="521,-88 521,-118 622,-118 622,-88 521,-88"/>
<text text-anchor="start" x="529" y="-106" font-family="Helvetica,sans-Serif" font-size="10.00" fill="#000000">Simulator::simulate</text>
<text text-anchor="middle" x="571.5" y="-95" font-family="Helvetica,sans-Serif" font-size="10.00" fill="#000000">_multi_r</text>
</a>
</g>
</g>
<!-- Node5&#45;&gt;Node6 -->
<g id="edge5" class="edge">
<title>Node5&#45;&gt;Node6</title>
<path fill="none" stroke="#191970" d="M491.1916,-100.1522C501.0892,-100.5032 511.2499,-100.8635 520.8727,-101.2047"/>
<polygon fill="#191970" stroke="#191970" points="491.1238,-96.6477 481.006,-99.791 490.8756,-103.6433 491.1238,-96.6477"/>
</g>
<!-- Node7 -->
<g id="node7" class="node">
<title>Node7</title>
<g id="a_node7"><a xlink:href="fish__glue_8cpp.html#addebb0997b0e49067d8784c9954b7b96" target="_top" xlink:title="RCPP_MODULE">
<polygon fill="none" stroke="#000000" points="662,-44.5 662,-63.5 755,-63.5 755,-44.5 662,-44.5"/>
<text text-anchor="middle" x="708.5" y="-51.5" font-family="Helvetica,sans-Serif" font-size="10.00" fill="#000000">RCPP_MODULE</text>
</a>
</g>
</g>
<!-- Node6&#45;&gt;Node7 -->
<g id="edge6" class="edge">
<title>Node6&#45;&gt;Node7</title>
<path fill="none" stroke="#191970" d="M623.3007,-84.4728C643.2049,-77.3537 665.1124,-69.5182 681.728,-63.5754"/>
<polygon fill="#191970" stroke="#191970" points="621.9595,-81.2352 613.7224,-87.8986 624.317,-87.8263 621.9595,-81.2352"/>
</g>
<!-- Node8&#45;&gt;Node7 -->
<g id="edge8" class="edge">
<title>Node8&#45;&gt;Node7</title>
<path fill="none" stroke="#191970" d="M632.2947,-54C642.1625,-54 652.2464,-54 661.7131,-54"/>
<polygon fill="#191970" stroke="#191970" points="632.1245,-50.5001 622.1245,-54 632.1245,-57.5001 632.1245,-50.5001"/>
</g>
<!-- Node9&#45;&gt;Node7 -->
<g id="edge10" class="edge">
<title>Node9&#45;&gt;Node7</title>
<path fill="none" stroke="#191970" d="M610.8015,-22.6224C632.4627,-29.5793 658.9162,-38.0753 678.8311,-44.4713"/>
<polygon fill="#191970" stroke="#191970" points="611.8182,-19.2729 601.227,-19.5473 609.6777,-25.9376 611.8182,-19.2729"/>
</g>
</g>
</svg>
