<?xml version="1.0" encoding="UTF-8" standalone="no"?>
<!DOCTYPE svg PUBLIC "-//W3C//DTD SVG 1.1//EN"
 "http://www.w3.org/Graphics/SVG/1.1/DTD/svg11.dtd">
<!-- Generated by graphviz version 2.40.1 (20161225.0304)
 -->
<!-- Title: pn::BrentRes::BrentRes Pages: 1 -->
<svg width="853pt" height="214pt"
 viewBox="0.00 0.00 853.00 214.00" xmlns="http://www.w3.org/2000/svg" xmlns:xlink="http://www.w3.org/1999/xlink">
<g id="graph0" class="graph" transform="scale(1 1) rotate(0) translate(4 210)">
<title>pn::BrentRes::BrentRes</title>
<!-- Node1 -->
<g id="node1" class="node">
<title>Node1</title>
<polygon fill="#bfbfbf" stroke="#000000" points="0,-93.5 0,-112.5 122,-112.5 122,-93.5 0,-93.5"/>
<text text-anchor="middle" x="61" y="-100.5" font-family="Helvetica,sans-Serif" font-size="10.00" fill="#000000">pn::BrentRes::BrentRes</text>
</g>
<!-- Node2 -->
<g id="node2" class="node">
<title>Node2</title>
<g id="a_node2"><a xlink:href="namespacepn.html#ad42003887dcc42a4758c69775f83a8d9" target="_top" xlink:title="pn::zero">
<polygon fill="none" stroke="#000000" points="158,-93.5 158,-112.5 210,-112.5 210,-93.5 158,-93.5"/>
<text text-anchor="middle" x="184" y="-100.5" font-family="Helvetica,sans-Serif" font-size="10.00" fill="#000000">pn::zero</text>
</a>
</g>
</g>
<!-- Node1&#45;&gt;Node2 -->
<g id="edge1" class="edge">
<title>Node1&#45;&gt;Node2</title>
<path fill="none" stroke="#191970" d="M132.3889,-103C141.3951,-103 150.1109,-103 157.736,-103"/>
<polygon fill="#191970" stroke="#191970" points="132.1397,-99.5001 122.1397,-103 132.1396,-106.5001 132.1397,-99.5001"/>
</g>
<!-- Node3 -->
<g id="node3" class="node">
<title>Node3</title>
<g id="a_node3"><a xlink:href="classPopulation.html#a81c19d1c80cfb1d54d3872ecdefd0872" target="_top" xlink:title="Population::update">
<polygon fill="none" stroke="#000000" points="246,-93.5 246,-112.5 344,-112.5 344,-93.5 246,-93.5"/>
<text text-anchor="middle" x="295" y="-100.5" font-family="Helvetica,sans-Serif" font-size="10.00" fill="#000000">Population::update</text>
</a>
</g>
</g>
<!-- Node2&#45;&gt;Node3 -->
<g id="edge2" class="edge">
<title>Node2&#45;&gt;Node3</title>
<path fill="none" stroke="#191970" d="M220.2453,-103C228.3462,-103 237.0719,-103 245.6029,-103"/>
<polygon fill="#191970" stroke="#191970" points="220.0246,-99.5001 210.0246,-103 220.0245,-106.5001 220.0246,-99.5001"/>
</g>
<!-- Node4 -->
<g id="node4" class="node">
<title>Node4</title>
<g id="a_node4"><a xlink:href="fish__glue_8cpp.html#ab96ae82277aa9004dc603b77512c7265" target="_top" xlink:title="RCPP_MODULE">
<polygon fill="none" stroke="#000000" points="598.5,-186.5 598.5,-205.5 691.5,-205.5 691.5,-186.5 598.5,-186.5"/>
<text text-anchor="middle" x="645" y="-193.5" font-family="Helvetica,sans-Serif" font-size="10.00" fill="#000000">RCPP_MODULE</text>
</a>
</g>
</g>
<!-- Node3&#45;&gt;Node4 -->
<g id="edge3" class="edge">
<title>Node3&#45;&gt;Node4</title>
<path fill="none" stroke="#191970" d="M310.5463,-120.2231C326.3013,-136.4093 352.2516,-159.7751 380,-171 451.9693,-200.1134 543.6049,-201.7821 598.1001,-199.4891"/>
<polygon fill="#191970" stroke="#191970" points="312.6873,-117.3918 303.2813,-112.5156 307.5935,-122.1932 312.6873,-117.3918"/>
</g>
<!-- Node5 -->
<g id="node5" class="node">
<title>Node5</title>
<g id="a_node5"><a xlink:href="classPopulation.html#aa7eba257f23cbc12aa3673ce012fb2cb" target="_top" xlink:title="Population::noFishingEquilibriate">
<polygon fill="none" stroke="#000000" points="380,-142.5 380,-161.5 538,-161.5 538,-142.5 380,-142.5"/>
<text text-anchor="middle" x="459" y="-149.5" font-family="Helvetica,sans-Serif" font-size="10.00" fill="#000000">Population::noFishingEquilibriate</text>
</a>
</g>
</g>
<!-- Node3&#45;&gt;Node5 -->
<g id="edge4" class="edge">
<title>Node3&#45;&gt;Node5</title>
<path fill="none" stroke="#191970" d="M336.9377,-115.5302C364.998,-123.914 401.3562,-134.7772 427.0706,-142.4601"/>
<polygon fill="#191970" stroke="#191970" points="337.5936,-112.0733 327.0102,-112.564 335.5897,-118.7804 337.5936,-112.0733"/>
</g>
<!-- Node8 -->
<g id="node8" class="node">
<title>Node8</title>
<g id="a_node8"><a xlink:href="classSimulator.html#a7540919b97662be7deacba9194c0ed60" target="_top" xlink:title="Simulator::simulate\l_multi">
<polygon fill="none" stroke="#000000" points="408.5,-88 408.5,-118 509.5,-118 509.5,-88 408.5,-88"/>
<text text-anchor="start" x="416.5" y="-106" font-family="Helvetica,sans-Serif" font-size="10.00" fill="#000000">Simulator::simulate</text>
<text text-anchor="middle" x="459" y="-95" font-family="Helvetica,sans-Serif" font-size="10.00" fill="#000000">_multi</text>
</a>
</g>
</g>
<!-- Node3&#45;&gt;Node8 -->
<g id="edge8" class="edge">
<title>Node3&#45;&gt;Node8</title>
<path fill="none" stroke="#191970" d="M354.4207,-103C372.1162,-103 391.3331,-103 408.4092,-103"/>
<polygon fill="#191970" stroke="#191970" points="354.2054,-99.5001 344.2054,-103 354.2054,-106.5001 354.2054,-99.5001"/>
</g>
<!-- Node10 -->
<g id="node10" class="node">
<title>Node10</title>
<g id="a_node10"><a xlink:href="classSimulator.html#ab21d1c6b0af00931f9a8fa5e0b6d417f" target="_top" xlink:title="Simulator::simulate\l_multi_2d">
<polygon fill="none" stroke="#000000" points="408.5,-39 408.5,-69 509.5,-69 509.5,-39 408.5,-39"/>
<text text-anchor="start" x="416.5" y="-57" font-family="Helvetica,sans-Serif" font-size="10.00" fill="#000000">Simulator::simulate</text>
<text text-anchor="middle" x="459" y="-46" font-family="Helvetica,sans-Serif" font-size="10.00" fill="#000000">_multi_2d</text>
</a>
</g>
</g>
<!-- Node3&#45;&gt;Node10 -->
<g id="edge11" class="edge">
<title>Node3&#45;&gt;Node10</title>
<path fill="none" stroke="#191970" d="M336.683,-90.5459C358.5892,-84.0008 385.6061,-75.9287 408.6722,-69.037"/>
<polygon fill="#191970" stroke="#191970" points="335.5897,-87.2196 327.0102,-93.436 337.5936,-93.9267 335.5897,-87.2196"/>
</g>
<!-- Node12 -->
<g id="node12" class="node">
<title>Node12</title>
<g id="a_node12"><a xlink:href="classSimulator.html#aa6e6cfd73fd8d3200e7f515b473e88f2" target="_top" xlink:title="Simulator::simulate_r">
<polygon fill="none" stroke="#000000" points="404.5,-.5 404.5,-19.5 513.5,-19.5 513.5,-.5 404.5,-.5"/>
<text text-anchor="middle" x="459" y="-7.5" font-family="Helvetica,sans-Serif" font-size="10.00" fill="#000000">Simulator::simulate_r</text>
</a>
</g>
</g>
<!-- Node3&#45;&gt;Node12 -->
<g id="edge14" class="edge">
<title>Node3&#45;&gt;Node12</title>
<path fill="none" stroke="#191970" d="M309.9495,-85.863C325.6992,-68.8913 352.0551,-43.4128 380,-29 387.5223,-25.1203 395.8581,-22.0156 404.2128,-19.5356"/>
<polygon fill="#191970" stroke="#191970" points="307.2217,-83.6612 303.1093,-93.4254 312.4131,-88.3569 307.2217,-83.6612"/>
</g>
<!-- Node5&#45;&gt;Node4 -->
<g id="edge5" class="edge">
<title>Node5&#45;&gt;Node4</title>
<path fill="none" stroke="#191970" d="M509.205,-163.8764C539.1669,-170.9642 576.7075,-179.8448 604.7195,-186.4713"/>
<polygon fill="#191970" stroke="#191970" points="509.8964,-160.4435 499.3592,-161.5473 508.2849,-167.2555 509.8964,-160.4435"/>
</g>
<!-- Node6 -->
<g id="node6" class="node">
<title>Node6</title>
<g id="a_node6"><a xlink:href="classSimulator.html#a3dfce52c0bb26ec7ff2632b1eca50240" target="_top" xlink:title="Simulator::equilibriateNatural\lPopulation">
<polygon fill="none" stroke="#000000" points="574,-137 574,-167 716,-167 716,-137 574,-137"/>
<text text-anchor="start" x="582" y="-155" font-family="Helvetica,sans-Serif" font-size="10.00" fill="#000000">Simulator::equilibriateNatural</text>
<text text-anchor="middle" x="645" y="-144" font-family="Helvetica,sans-Serif" font-size="10.00" fill="#000000">Population</text>
</a>
</g>
</g>
<!-- Node5&#45;&gt;Node6 -->
<g id="edge6" class="edge">
<title>Node5&#45;&gt;Node6</title>
<path fill="none" stroke="#191970" d="M548.2169,-152C556.8241,-152 565.4746,-152 573.8728,-152"/>
<polygon fill="#191970" stroke="#191970" points="548.1505,-148.5001 538.1504,-152 548.1504,-155.5001 548.1505,-148.5001"/>
</g>
<!-- Node7 -->
<g id="node7" class="node">
<title>Node7</title>
<g id="a_node7"><a xlink:href="fish__glue_8cpp.html#addebb0997b0e49067d8784c9954b7b96" target="_top" xlink:title="RCPP_MODULE">
<polygon fill="none" stroke="#000000" points="752,-68.5 752,-87.5 845,-87.5 845,-68.5 752,-68.5"/>
<text text-anchor="middle" x="798.5" y="-75.5" font-family="Helvetica,sans-Serif" font-size="10.00" fill="#000000">RCPP_MODULE</text>
</a>
</g>
</g>
<!-- Node6&#45;&gt;Node7 -->
<g id="edge7" class="edge">
<title>Node6&#45;&gt;Node7</title>
<path fill="none" stroke="#191970" d="M703.485,-133.3837C707.7638,-131.6712 711.9759,-129.872 716,-128 741.3596,-116.2029 768.7409,-98.5197 784.7144,-87.6502"/>
<polygon fill="#191970" stroke="#191970" points="702.1487,-130.1475 694.059,-136.9892 704.6495,-136.6856 702.1487,-130.1475"/>
</g>
<!-- Node9 -->
<g id="node9" class="node">
<title>Node9</title>
<g id="a_node9"><a xlink:href="classSimulator.html#a1a5454ee4736819d709398b225d7876d" target="_top" xlink:title="Simulator::simulate\l_multi_r">
<polygon fill="none" stroke="#000000" points="594.5,-88 594.5,-118 695.5,-118 695.5,-88 594.5,-88"/>
<text text-anchor="start" x="602.5" y="-106" font-family="Helvetica,sans-Serif" font-size="10.00" fill="#000000">Simulator::simulate</text>
<text text-anchor="middle" x="645" y="-95" font-family="Helvetica,sans-Serif" font-size="10.00" fill="#000000">_multi_r</text>
</a>
</g>
</g>
<!-- Node8&#45;&gt;Node9 -->
<g id="edge9" class="edge">
<title>Node8&#45;&gt;Node9</title>
<path fill="none" stroke="#191970" d="M519.9114,-103C543.9637,-103 571.2797,-103 594.2361,-103"/>
<polygon fill="#191970" stroke="#191970" points="519.8254,-99.5001 509.8253,-103 519.8253,-106.5001 519.8254,-99.5001"/>
</g>
<!-- Node9&#45;&gt;Node7 -->
<g id="edge10" class="edge">
<title>Node9&#45;&gt;Node7</title>
<path fill="none" stroke="#191970" d="M705.6161,-93.1277C720.9646,-90.6279 737.2148,-87.9813 751.7586,-85.6126"/>
<polygon fill="#191970" stroke="#191970" points="704.9944,-89.6827 695.6871,-94.7448 706.1197,-96.5917 704.9944,-89.6827"/>
</g>
<!-- Node11 -->
<g id="node11" class="node">
<title>Node11</title>
<g id="a_node11"><a xlink:href="classSimulator.html#af1b0a9562ecf0ad8f98d61576efba28b" target="_top" xlink:title="Simulator::simulate\l_multi_2d_r">
<polygon fill="none" stroke="#000000" points="594.5,-39 594.5,-69 695.5,-69 695.5,-39 594.5,-39"/>
<text text-anchor="start" x="602.5" y="-57" font-family="Helvetica,sans-Serif" font-size="10.00" fill="#000000">Simulator::simulate</text>
<text text-anchor="middle" x="645" y="-46" font-family="Helvetica,sans-Serif" font-size="10.00" fill="#000000">_multi_2d_r</text>
</a>
</g>
</g>
<!-- Node10&#45;&gt;Node11 -->
<g id="edge12" class="edge">
<title>Node10&#45;&gt;Node11</title>
<path fill="none" stroke="#191970" d="M519.9114,-54C543.9637,-54 571.2797,-54 594.2361,-54"/>
<polygon fill="#191970" stroke="#191970" points="519.8254,-50.5001 509.8253,-54 519.8253,-57.5001 519.8254,-50.5001"/>
</g>
<!-- Node11&#45;&gt;Node7 -->
<g id="edge13" class="edge">
<title>Node11&#45;&gt;Node7</title>
<path fill="none" stroke="#191970" d="M705.6161,-63.4774C720.9646,-65.8772 737.2148,-68.4179 751.7586,-70.6919"/>
<polygon fill="#191970" stroke="#191970" points="706.1077,-60.0119 695.6871,-61.925 705.0263,-66.9278 706.1077,-60.0119"/>
</g>
<!-- Node12&#45;&gt;Node7 -->
<g id="edge15" class="edge">
<title>Node12&#45;&gt;Node7</title>
<path fill="none" stroke="#191970" d="M523.7698,-6.6811C576.6824,-5.8739 652.7852,-9.1073 716,-29 743.3317,-37.6009 771.1783,-56.7637 786.5099,-68.4133"/>
<polygon fill="#191970" stroke="#191970" points="523.4328,-3.1872 513.5071,-6.8927 523.5772,-10.1858 523.4328,-3.1872"/>
</g>
</g>
</svg>
