<?xml version="1.0" encoding="UTF-8" standalone="no"?>
<!DOCTYPE svg PUBLIC "-//W3C//DTD SVG 1.1//EN"
 "http://www.w3.org/Graphics/SVG/1.1/DTD/svg11.dtd">
<!-- Generated by graphviz version 2.40.1 (20161225.0304)
 -->
<!-- Title: inst/include/tensor.h Pages: 1 -->
<svg width="414pt" height="84pt"
 viewBox="0.00 0.00 413.50 84.00" xmlns="http://www.w3.org/2000/svg" xmlns:xlink="http://www.w3.org/1999/xlink">
<g id="graph0" class="graph" transform="scale(1 1) rotate(0) translate(4 80)">
<title>inst/include/tensor.h</title>
<!-- Node0 -->
<g id="node1" class="node">
<title>Node0</title>
<polygon fill="#bfbfbf" stroke="#000000" points="145,-56.5 145,-75.5 249,-75.5 249,-56.5 145,-56.5"/>
<text text-anchor="middle" x="197" y="-63.5" font-family="Helvetica,sans-Serif" font-size="10.00" fill="#000000">inst/include/tensor.h</text>
</g>
<!-- Node1 -->
<g id="node2" class="node">
<title>Node1</title>
<polygon fill="none" stroke="#bfbfbf" points="0,-.5 0,-19.5 54,-19.5 54,-.5 0,-.5"/>
<text text-anchor="middle" x="27" y="-7.5" font-family="Helvetica,sans-Serif" font-size="10.00" fill="#000000">iostream</text>
</g>
<!-- Node0&#45;&gt;Node1 -->
<g id="edge1" class="edge">
<title>Node0&#45;&gt;Node1</title>
<path fill="none" stroke="#191970" d="M167.776,-56.3733C138.9936,-46.892 94.9348,-32.3785 63.7847,-22.1173"/>
<polygon fill="#191970" stroke="#191970" points="64.7533,-18.7514 54.1603,-18.9469 62.5632,-25.4 64.7533,-18.7514"/>
</g>
<!-- Node2 -->
<g id="node3" class="node">
<title>Node2</title>
<polygon fill="none" stroke="#bfbfbf" points="72.5,-.5 72.5,-19.5 121.5,-19.5 121.5,-.5 72.5,-.5"/>
<text text-anchor="middle" x="97" y="-7.5" font-family="Helvetica,sans-Serif" font-size="10.00" fill="#000000">cassert</text>
</g>
<!-- Node0&#45;&gt;Node2 -->
<g id="edge2" class="edge">
<title>Node0&#45;&gt;Node2</title>
<path fill="none" stroke="#191970" d="M179.5813,-56.2455C163.9515,-47.4928 140.7981,-34.527 122.9815,-24.5496"/>
<polygon fill="#191970" stroke="#191970" points="124.6543,-21.475 114.2191,-19.6427 121.234,-27.5825 124.6543,-21.475"/>
</g>
<!-- Node3 -->
<g id="node4" class="node">
<title>Node3</title>
<polygon fill="none" stroke="#bfbfbf" points="140,-.5 140,-19.5 184,-19.5 184,-.5 140,-.5"/>
<text text-anchor="middle" x="162" y="-7.5" font-family="Helvetica,sans-Serif" font-size="10.00" fill="#000000">vector</text>
</g>
<!-- Node0&#45;&gt;Node3 -->
<g id="edge3" class="edge">
<title>Node0&#45;&gt;Node3</title>
<path fill="none" stroke="#191970" d="M190.9035,-56.2455C186.0855,-48.5367 179.2249,-37.5598 173.3968,-28.2348"/>
<polygon fill="#191970" stroke="#191970" points="176.2947,-26.2677 168.0267,-19.6427 170.3587,-29.9777 176.2947,-26.2677"/>
</g>
<!-- Node4 -->
<g id="node5" class="node">
<title>Node4</title>
<polygon fill="none" stroke="#bfbfbf" points="202.5,-.5 202.5,-19.5 261.5,-19.5 261.5,-.5 202.5,-.5"/>
<text text-anchor="middle" x="232" y="-7.5" font-family="Helvetica,sans-Serif" font-size="10.00" fill="#000000">functional</text>
</g>
<!-- Node0&#45;&gt;Node4 -->
<g id="edge4" class="edge">
<title>Node0&#45;&gt;Node4</title>
<path fill="none" stroke="#191970" d="M203.0965,-56.2455C207.9145,-48.5367 214.7751,-37.5598 220.6032,-28.2348"/>
<polygon fill="#191970" stroke="#191970" points="223.6413,-29.9777 225.9733,-19.6427 217.7053,-26.2677 223.6413,-29.9777"/>
</g>
<!-- Node5 -->
<g id="node6" class="node">
<title>Node5</title>
<polygon fill="none" stroke="#bfbfbf" points="280,-.5 280,-19.5 336,-19.5 336,-.5 280,-.5"/>
<text text-anchor="middle" x="308" y="-7.5" font-family="Helvetica,sans-Serif" font-size="10.00" fill="#000000">algorithm</text>
</g>
<!-- Node0&#45;&gt;Node5 -->
<g id="edge5" class="edge">
<title>Node0&#45;&gt;Node5</title>
<path fill="none" stroke="#191970" d="M216.0816,-56.3733C233.7402,-47.4644 260.2053,-34.1127 280.2098,-24.0203"/>
<polygon fill="#191970" stroke="#191970" points="281.8158,-27.1303 289.1674,-19.5011 278.6628,-20.8806 281.8158,-27.1303"/>
</g>
<!-- Node6 -->
<g id="node7" class="node">
<title>Node6</title>
<polygon fill="none" stroke="#bfbfbf" points="354.5,-.5 354.5,-19.5 405.5,-19.5 405.5,-.5 354.5,-.5"/>
<text text-anchor="middle" x="380" y="-7.5" font-family="Helvetica,sans-Serif" font-size="10.00" fill="#000000">numeric</text>
</g>
<!-- Node0&#45;&gt;Node6 -->
<g id="edge6" class="edge">
<title>Node0&#45;&gt;Node6</title>
<path fill="none" stroke="#191970" d="M228.4588,-56.3733C260.6877,-46.5109 310.7097,-31.2036 344.3768,-20.9011"/>
<polygon fill="#191970" stroke="#191970" points="345.7243,-24.149 354.2624,-17.876 343.6759,-17.4554 345.7243,-24.149"/>
</g>
</g>
</svg>
